<?xml version="1.0" encoding="UTF-8" standalone="no"?>
<svg
   viewBox="0 0 793.7007874015749 1122.5196850393702"
   width="793.7007874015749"
   height="1122.5196850393702"
   version="1.1"
   id="svg20849"
   sodipodi:docname="AP320.svg"
   inkscape:version="1.2.2 (732a01da63, 2022-12-09)"
   xmlns:inkscape="http://www.inkscape.org/namespaces/inkscape"
   xmlns:sodipodi="http://sodipodi.sourceforge.net/DTD/sodipodi-0.dtd"
   xmlns="http://www.w3.org/2000/svg"
   xmlns:svg="http://www.w3.org/2000/svg">
  <sodipodi:namedview
     id="namedview20851"
     pagecolor="#ffffff"
     bordercolor="#000000"
     borderopacity="0.25"
     inkscape:showpageshadow="2"
     inkscape:pageopacity="0.0"
     inkscape:pagecheckerboard="0"
     inkscape:deskcolor="#d1d1d1"
     showgrid="false"
     inkscape:zoom="0.26146536"
     inkscape:cx="839.49937"
     inkscape:cy="187.40533"
     inkscape:window-width="3440"
     inkscape:window-height="1377"
     inkscape:window-x="-8"
     inkscape:window-y="-8"
     inkscape:window-maximized="1"
     inkscape:current-layer="g20847" />
  <desc
     id="desc20772">AP320.dxf - scale = 1.000000, origin = (0.000000, 0.000000), method = manual</desc>
  <defs
     id="defs20819">
    <marker
       id="DistanceX"
       orient="auto"
       refX="0.0"
       refY="0.0"
       style="overflow:visible">
      <path
         d="M 3,-3 L -3,3 M 0,-5 L  0,5"
         style="stroke:#000000; stroke-width:0.5"
         id="path20774" />
    </marker>
    <pattern
       id="Hatch"
       patternUnits="userSpaceOnUse"
       width="8"
       height="8"
       x="0"
       y="0">
      <path
         d="M8 4 l-4,4"
         stroke="#000000"
         stroke-width="0.25"
         linecap="square"
         id="path20777" />
      <path
         d="M6 2 l-4,4"
         stroke="#000000"
         stroke-width="0.25"
         linecap="square"
         id="path20779" />
      <path
         d="M4 0 l-4,4"
         stroke="#000000"
         stroke-width="0.25"
         linecap="square"
         id="path20781" />
    </pattern>
    <symbol
       id="*Model_Space" />
    <symbol
       id="*Paper_Space" />
    <symbol
       id="*Paper_Space0" />
    <symbol
       id="DIMDOT">
      <path
         style="fill:none;stroke:#000000"
         d="M -7.55905 1122.52 L 7.55905 1122.52"
         id="path20787" />
      <path
         style="fill:none;stroke:#000000"
         d="M 0 1135.75 L 0 1109.29"
         id="path20789" />
      <path
         d="M 1.889764,1122.519685 A 1.889764,1.889764 0.000000 0, 0 -1.889764,1122.519685 A 1.889764,1.889764 0.000000 0, 0 1.889764,1122.519685 z"
         style="fill:none;stroke:#000000"
         id="path20791" />
      <path
         d="M 0.944882,1122.519685 A 0.944882,0.944882 0.000000 0, 0 -0.944882,1122.519685 A 0.944882,0.944882 0.000000 0, 0 0.944882,1122.519685 z"
         style="fill:none;stroke:#000000"
         id="path20793" />
    </symbol>
    <symbol
       id="VBI_AL320_DDRSN_NP">
      <path
         d="M 2267.716535,-86.929134 L 2369.763780,-86.929134 L 2369.763780,64.251969 L 2415.118110,109.606299 L 2415.118110,245.669291 L 2369.763780,291.023622 L 2369.763780,593.385827 L 2409.840887,628.802805 L 2389.149915,752.948636 L 2332.482749,817.072008 L 2294.173228,1046.929134 L 2267.716535,1046.929134 L 2241.259843,1046.929134 L 2202.950322,817.072008 L 2146.283156,752.948636 L 2125.592184,628.802805 L 2165.669291,593.385827 L 2165.669291,291.023622 L 2120.314961,245.669291 L 2120.314961,109.606299 L 2165.669291,64.251969 L 2165.669291,-86.929134 L 2267.716535,-86.929134 z"
         style="fill:none;stroke:#FF0000"
         id="path20796" />
    </symbol>
    <symbol
       id="VBI_AL320_DDRSN_PP">
      <path
         d="M -94.488189,306.141732 L -94.488189,404.409449 A 37.795276,37.795276 0.0 0 0 -56.692913,442.204724 L 0.000000,442.204724 L 0.000000,1122.519685 L -2222.362205,1122.519685 L -2260.157480,1084.724409 L -2260.157480,1046.929134 L -2241.259843,1046.929134 L -2202.950322,817.072008 L -2146.283156,752.948636 L -2125.592184,628.802805 L -2165.669291,593.385827 L -2165.669291,291.023622 L -2120.314961,245.669291 L -2120.314961,109.606299 L -2165.669291,64.251969 L -2165.669291,-86.929134 L 0.000000,-86.929134 L -0.000000,211.653543 A 90.313683,90.313683 0.0 0 0 -94.488189,306.141732 z"
         style="fill:none;stroke:#000000"
         id="path20799" />
      <path
         d="M -1795.275591,366.614173 L -1795.275591,268.346457 A 94.488189,94.488189 0.0 0 0 -1984.251969,268.346457 L -1984.251969,366.614173 A 37.795276,37.795276 0.0 0 0 -1946.456693,404.409449 L -1833.070866,404.409449 A 37.795276,37.795276 0.0 0 0 -1795.275591,366.614173 z"
         style="fill:none;stroke:#000000"
         id="path20801" />
      <path
         d="M -1417.322835,404.409449 L -1417.322835,306.141732 A 94.488189,94.488189 0.0 0 0 -1606.299213,306.141732 L -1606.299213,404.409449 A 37.795276,37.795276 0.0 0 0 -1568.503937,442.204724 L -1455.118110,442.204724 A 37.795276,37.795276 0.0 0 0 -1417.322835,404.409449 z"
         style="fill:none;stroke:#000000"
         id="path20803" />
      <path
         d="M -1039.370079,404.409449 L -1039.370079,306.141732 A 94.488189,94.488189 0.0 0 0 -1228.346457,306.141732 L -1228.346457,404.409449 A 37.795276,37.795276 0.0 0 0 -1190.551181,442.204724 L -1077.165354,442.204724 A 37.795276,37.795276 0.0 0 0 -1039.370079,404.409449 z"
         style="fill:none;stroke:#000000"
         id="path20805" />
      <path
         d="M -661.417323,404.409449 L -661.417323,306.141732 A 94.488189,94.488189 0.0 0 0 -850.393701,306.141732 L -850.393701,404.409449 A 37.795276,37.795276 0.0 0 0 -812.598425,442.204724 L -699.212598,442.204724 A 37.795276,37.795276 0.0 0 0 -661.417323,404.409449 z"
         style="fill:none;stroke:#000000"
         id="path20807" />
      <path
         d="M -283.464567,404.409449 L -283.464567,306.141732 A 94.488189,94.488189 0.0 0 0 -472.440945,306.141732 L -472.440945,404.409449 A 37.795276,37.795276 0.0 0 0 -434.645669,442.204724 L -321.259843,442.204724 A 37.795276,37.795276 0.0 0 0 -283.464567,404.409449 z"
         style="fill:none;stroke:#000000"
         id="path20809" />
    </symbol>
    <symbol
       id="VBI_AL320_LDRSN">
      <path
         d="M 0.000000,-86.929134 L 9070.866142,-86.929134 L 9070.866142,1122.519685 L 0.000000,1122.519685 L 0.000000,-86.929134 z"
         style="fill:none;stroke:#000000"
         id="path20812" />
      <path
         d="M 0.000000,442.204724 L 9070.866142,442.204724"
         style="fill:none;stroke:#000000;stroke-dasharray:188.9764,94.4882,"
         id="path20814" />
      <path
         d="M 0.000000,211.653543 L 9070.866142,211.653543"
         style="fill:none;stroke:#000000;stroke-dasharray:188.9764,94.4882,"
         id="path20816" />
    </symbol>
  </defs>
  <g
     inkscape:groupmode="layer"
     inkscape:label="0"
     id="g20821" />
  <g
     inkscape:groupmode="layer"
     inkscape:label="A--L23"
     id="g20847">
    <path
       id="path20823"
       style="fill:#c0c0c0;stroke:#000000;fill-opacity:1"
       d="M 94.488281 -86.929688 L 94.488281 64.251953 L 139.8418 109.60547 L 139.8418 245.66992 L 94.488281 291.02344 L 94.488281 593.38672 L 134.56445 628.80273 L 113.875 752.94922 L 57.207031 817.07227 L 18.898438 1046.9297 L 0 1046.9297 L 0 1084.7246 L 37.794922 1122.5195 L 4482.5195 1122.5195 L 4520.3145 1084.7246 L 4520.3145 1046.9297 L 4501.418 1046.9297 L 4463.1074 817.07227 L 4406.4414 752.94922 L 4385.75 628.80273 L 4425.8262 593.38672 L 4425.8262 291.02344 L 4380.4727 245.66992 L 4380.4727 109.60547 L 4425.8262 64.251953 L 4425.8262 -86.929688 L 94.488281 -86.929688 z M 370.39453 173.85742 A 94.488189 94.488189 0 0 1 464.88281 268.3457 L 464.88281 366.61328 A 37.795276 37.795276 0 0 1 427.08594 404.41016 L 313.70117 404.41016 A 37.795276 37.795276 0 0 1 275.90625 366.61328 L 275.90625 268.3457 A 94.488189 94.488189 0 0 1 341.19531 178.48242 A 94.488189 94.488189 0 0 1 370.39453 173.85742 z M 4120.7227 178.48242 A 94.488189 94.488189 0 0 1 4244.4102 268.3457 L 4244.4102 366.61328 A 37.795276 37.795276 0 0 1 4206.6133 404.41016 L 4093.2285 404.41016 A 37.795276 37.795276 0 0 1 4055.4336 366.61328 L 4055.4336 268.3457 A 94.488189 94.488189 0 0 1 4120.7227 178.48242 z M 1504.252 211.66211 A 94.488189 94.488189 0 0 1 1598.7402 306.14258 L 1598.7402 404.41016 A 37.795276 37.795276 0 0 1 1560.9453 442.20508 L 1447.5586 442.20508 A 37.795276 37.795276 0 0 1 1409.7637 404.41016 L 1409.7637 306.14258 A 94.488189 94.488189 0 0 1 1475.0547 216.28711 A 94.488189 94.488189 0 0 1 1504.252 211.66211 z M 1884.3242 211.67578 A 94.488189 94.488189 0 0 1 1976.6934 306.14258 L 1976.6934 404.41016 A 37.795276 37.795276 0 0 1 1938.8984 442.20508 L 1825.5117 442.20508 A 37.795276 37.795276 0 0 1 1787.7168 404.41016 L 1787.7168 306.14258 A 94.488189 94.488189 0 0 1 1853.0059 216.27734 A 94.488189 94.488189 0 0 1 1884.3242 211.67578 z M 2262.2773 211.67578 A 94.488189 94.488189 0 0 1 2354.6465 306.14258 L 2354.6465 404.41016 A 37.795276 37.795276 0 0 1 2316.8496 442.20508 L 2203.4648 442.20508 A 37.795276 37.795276 0 0 1 2165.6699 404.41016 L 2165.6699 306.14258 A 94.488189 94.488189 0 0 1 2230.959 216.27734 A 94.488189 94.488189 0 0 1 2262.2773 211.67578 z M 3396.1348 211.67578 A 94.488189 94.488189 0 0 1 3488.5039 306.14258 L 3488.5039 404.41016 A 37.795276 37.795276 0 0 1 3450.709 442.20508 L 3337.3223 442.20508 A 37.795276 37.795276 0 0 1 3299.5273 404.41016 L 3299.5273 306.14258 A 94.488189 94.488189 0 0 1 3364.8164 216.27734 A 94.488189 94.488189 0 0 1 3396.1348 211.67578 z M 3774.0879 211.67578 A 94.488189 94.488189 0 0 1 3866.457 306.14258 L 3866.457 404.41016 A 37.795276 37.795276 0 0 1 3828.6621 442.20508 L 3715.2754 442.20508 A 37.795276 37.795276 0 0 1 3677.4805 404.41016 L 3677.4805 306.14258 A 94.488189 94.488189 0 0 1 3742.7695 216.27734 A 94.488189 94.488189 0 0 1 3774.0879 211.67578 z M 750.4668 211.67773 A 94.488189 94.488189 0 0 1 842.83398 306.14258 L 842.83398 404.41016 A 37.795276 37.795276 0 0 1 805.03906 442.20508 L 691.6543 442.20508 A 37.795276 37.795276 0 0 1 653.85742 404.41016 L 653.85742 306.14258 A 94.488189 94.488189 0 0 1 719.14844 216.27734 A 94.488189 94.488189 0 0 1 750.4668 211.67773 z M 1128.4199 211.67773 A 94.488189 94.488189 0 0 1 1220.7871 306.14258 L 1220.7871 404.41016 A 37.795276 37.795276 0 0 1 1182.9922 442.20508 L 1069.6055 442.20508 A 37.795276 37.795276 0 0 1 1031.8105 404.41016 L 1031.8105 306.14258 A 94.488189 94.488189 0 0 1 1097.1016 216.27734 A 94.488189 94.488189 0 0 1 1128.4199 211.67773 z M 2640.2305 211.67773 A 94.488189 94.488189 0 0 1 2732.5977 306.14258 L 2732.5977 404.41016 A 37.795276 37.795276 0 0 1 2694.8027 442.20508 L 2581.418 442.20508 A 37.795276 37.795276 0 0 1 2543.6211 404.41016 L 2543.6211 306.14258 A 94.488189 94.488189 0 0 1 2608.9121 216.27734 A 94.488189 94.488189 0 0 1 2640.2305 211.67773 z M 3018.1836 211.67773 A 94.488189 94.488189 0 0 1 3110.5508 306.14258 L 3110.5508 404.41016 A 37.795276 37.795276 0 0 1 3072.7559 442.20508 L 2959.3691 442.20508 A 37.795276 37.795276 0 0 1 2921.5742 404.41016 L 2921.5742 306.14258 A 94.488189 94.488189 0 0 1 2986.8652 216.27734 A 94.488189 94.488189 0 0 1 3018.1836 211.67773 z " />
  </g>
</svg>
