<?xml version="1.0" encoding="UTF-8" standalone="no"?>
<svg
   viewBox="0 0 793.7007874015749 1122.5196850393702"
   width="793.7007874015749"
   height="1122.5196850393702"
   version="1.1"
   id="svg18022"
   sodipodi:docname="AP260.svg"
   inkscape:version="1.2.2 (732a01da63, 2022-12-09)"
   xmlns:inkscape="http://www.inkscape.org/namespaces/inkscape"
   xmlns:sodipodi="http://sodipodi.sourceforge.net/DTD/sodipodi-0.dtd"
   xmlns:xlink="http://www.w3.org/1999/xlink"
   xmlns="http://www.w3.org/2000/svg"
   xmlns:svg="http://www.w3.org/2000/svg">
  <sodipodi:namedview
     id="namedview18024"
     pagecolor="#ffffff"
     bordercolor="#000000"
     borderopacity="0.25"
     inkscape:showpageshadow="2"
     inkscape:pageopacity="0.0"
     inkscape:pagecheckerboard="0"
     inkscape:deskcolor="#d1d1d1"
     showgrid="false"
     inkscape:zoom="0.52293071"
     inkscape:cx="2075.8008"
     inkscape:cy="474.25021"
     inkscape:window-width="3440"
     inkscape:window-height="1377"
     inkscape:window-x="-8"
     inkscape:window-y="-8"
     inkscape:window-maximized="1"
     inkscape:current-layer="g18020" />
  <desc
     id="desc17860">AP260.dxf - scale = 1.000000, origin = (0.000000, 0.000000), method = manual</desc>
  <defs
     id="defs17992">
    <marker
       id="DistanceX"
       orient="auto"
       refX="0.0"
       refY="0.0"
       style="overflow:visible">
      <path
         d="M 3,-3 L -3,3 M 0,-5 L  0,5"
         style="stroke:#000000; stroke-width:0.5"
         id="path17862" />
    </marker>
    <pattern
       id="Hatch"
       patternUnits="userSpaceOnUse"
       width="8"
       height="8"
       x="0"
       y="0">
      <path
         d="M8 4 l-4,4"
         stroke="#000000"
         stroke-width="0.25"
         linecap="square"
         id="path17865" />
      <path
         d="M6 2 l-4,4"
         stroke="#000000"
         stroke-width="0.25"
         linecap="square"
         id="path17867" />
      <path
         d="M4 0 l-4,4"
         stroke="#000000"
         stroke-width="0.25"
         linecap="square"
         id="path17869" />
    </pattern>
    <symbol
       id="*Model_Space" />
    <symbol
       id="*Paper_Space" />
    <symbol
       id="*Paper_Space0" />
    <symbol
       id="DIMDOT">
      <path
         style="fill:none;stroke:#000000"
         d="M -7.55905 1122.52 L 7.55905 1122.52"
         id="path17875" />
      <path
         style="fill:none;stroke:#000000"
         d="M 0 1135.75 L 0 1109.29"
         id="path17877" />
      <path
         d="M 1.889764,1122.519685 A 1.889764,1.889764 0.000000 0, 0 -1.889764,1122.519685 A 1.889764,1.889764 0.000000 0, 0 1.889764,1122.519685 z"
         style="fill:none;stroke:#000000"
         id="path17879" />
      <path
         d="M 0.944882,1122.519685 A 0.944882,0.944882 0.000000 0, 0 -0.944882,1122.519685 A 0.944882,0.944882 0.000000 0, 0 0.944882,1122.519685 z"
         style="fill:none;stroke:#000000"
         id="path17881" />
    </symbol>
    <symbol
       id="VBI_AL260-DDRSN-NP">
      <path
         d="M 2267.716535,139.842520 L 2165.669291,139.842520 L 2165.669291,291.023622 L 2120.314961,336.377953 L 2120.314961,593.385827 L 2165.669291,638.740157 L 2165.669291,763.464567 L 2129.150176,802.540021 L 2161.579150,924.148677 L 2224.099877,982.579262 L 2241.259843,1046.929134 L 2267.716535,1046.929134 L 2294.173228,1046.929134 L 2311.333194,982.579262 L 2373.853921,924.148677 L 2406.282895,802.540021 L 2369.763780,763.464567 L 2369.763780,638.740157 L 2415.118110,593.385827 L 2415.118110,336.377953 L 2369.763780,291.023622 L 2369.763780,139.842520 L 2267.716535,139.842520 z"
         style="fill:none;stroke:#FF0000"
         id="path17884" />
      <path
         d="M -1766.929134,574.488189 A 37.795276,37.795276 0.0 0 1 -1804.724409,612.283465 L -1938.897638,612.283465 A 37.795276,37.795276 0.0 0 1 -1976.692913,574.488189 L -1976.692913,445.039370 A 104.881890,104.881890 0.0 0 1 -1766.929134,445.039370 L -1766.929134,574.488189 z"
         style="fill:none;stroke:#000000"
         id="path17886" />
      <path
         d="M -2165.669291,638.740157 L -2120.314961,593.385827 L -2120.314961,336.377953 L -2165.669291,291.023622 L -2165.669291,139.842520 L 2165.669291,139.842520 L 2165.669291,291.023622 L 2120.314961,336.377953 L 2120.314961,593.385827 L 2165.669291,638.740157 L 2165.669291,763.464567 L 2129.150176,802.540021 L 2161.579150,924.148677 L 2224.099877,982.579262 L 2241.259843,1046.929134 L 2260.157480,1046.929134 L 2260.157480,1084.724409 L 2222.362205,1122.519685 L -2222.362205,1122.519685 L -2260.157480,1084.724409 L -2260.157480,1046.929134 L -2241.259843,1046.929134 L -2224.099877,982.579262 L -2161.579150,924.148677 L -2129.150176,802.540021 L -2165.669291,763.464567 L -2165.669291,638.740157"
         style="fill:none;stroke:#000000"
         id="path17888" />
      <path
         d="M 1766.929134,574.488189 A 37.795276,37.795276 0.0 0 0 1804.724409,612.283465 L 1938.897638,612.283465 A 37.795276,37.795276 0.0 0 0 1976.692913,574.488189 L 1976.692913,445.039370 A 104.881890,104.881890 0.0 0 0 1766.929134,445.039370 L 1766.929134,574.488189 z"
         style="fill:none;stroke:#000000"
         id="path17890" />
      <path
         d="M 1422.992126,612.283465 L 1600.629921,612.283465 A 37.795276,37.795276 0.0 0 0 1638.425197,574.488189 L 1638.425197,348.808269 A 56.692913,56.692913 0.0 0 0 1611.698443,300.682229 A 188.976378,188.976378 0.0 0 0 1411.923415,300.682623 A 56.692913,56.692913 0.0 0 0 1385.196850,348.808545 L 1385.196850,574.488189 A 37.795276,37.795276 0.0 0 0 1422.992126,612.283465 z"
         style="fill:none;stroke:#000000"
         id="path17892" />
      <path
         d="M 1045.039370,612.283465 L 1222.677165,612.283465 A 37.795276,37.795276 0.0 0 0 1260.472441,574.488189 L 1260.472441,348.808269 A 56.692913,56.692913 0.0 0 0 1233.745687,300.682229 A 188.976378,188.976378 0.0 0 0 1033.970659,300.682623 A 56.692913,56.692913 0.0 0 0 1007.244094,348.808545 L 1007.244094,574.488189 A 37.795276,37.795276 0.0 0 0 1045.039370,612.283465 z"
         style="fill:none;stroke:#000000"
         id="path17894" />
      <path
         d="M 667.086614,612.283465 L 844.724409,612.283465 A 37.795276,37.795276 0.0 0 0 882.519685,574.488189 L 882.519685,348.808269 A 56.692913,56.692913 0.0 0 0 855.792931,300.682229 A 188.976378,188.976378 0.0 0 0 656.017903,300.682623 A 56.692913,56.692913 0.0 0 0 629.291339,348.808545 L 629.291339,574.488189 A 37.795276,37.795276 0.0 0 0 667.086614,612.283465 z"
         style="fill:none;stroke:#000000"
         id="path17896" />
      <path
         d="M 289.133858,612.283465 L 466.771654,612.283465 A 37.795276,37.795276 0.0 0 0 504.566929,574.488189 L 504.566929,348.808269 A 56.692913,56.692913 0.0 0 0 477.840175,300.682229 A 188.976378,188.976378 0.0 0 0 278.065147,300.682623 A 56.692913,56.692913 0.0 0 0 251.338583,348.808545 L 251.338583,574.488189 A 37.795276,37.795276 0.0 0 0 289.133858,612.283465 z"
         style="fill:none;stroke:#000000"
         id="path17898" />
      <path
         d="M -88.818898,612.283465 L 88.818898,612.283465 A 37.795276,37.795276 0.0 0 0 126.614173,574.488189 L 126.614173,348.808269 A 56.692913,56.692913 0.0 0 0 99.887419,300.682229 A 188.976378,188.976378 0.0 0 0 -99.887609,300.682623 A 56.692913,56.692913 0.0 0 0 -126.614173,348.808545 L -126.614173,574.488189 A 37.795276,37.795276 0.0 0 0 -88.818898,612.283465 z"
         style="fill:none;stroke:#000000"
         id="path17900" />
      <path
         d="M -466.771654,612.283465 L -289.133858,612.283465 A 37.795276,37.795276 0.0 0 0 -251.338583,574.488189 L -251.338583,348.808269 A 56.692913,56.692913 0.0 0 0 -278.065337,300.682229 A 188.976378,188.976378 0.0 0 0 -477.840365,300.682623 A 56.692913,56.692913 0.0 0 0 -504.566929,348.808545 L -504.566929,574.488189 A 37.795276,37.795276 0.0 0 0 -466.771654,612.283465 z"
         style="fill:none;stroke:#000000"
         id="path17902" />
      <path
         d="M -844.724409,612.283465 L -667.086614,612.283465 A 37.795276,37.795276 0.0 0 0 -629.291339,574.488189 L -629.291339,348.808269 A 56.692913,56.692913 0.0 0 0 -656.018093,300.682229 A 188.976378,188.976378 0.0 0 0 -855.793121,300.682623 A 56.692913,56.692913 0.0 0 0 -882.519685,348.808545 L -882.519685,574.488189 A 37.795276,37.795276 0.0 0 0 -844.724409,612.283465 z"
         style="fill:none;stroke:#000000"
         id="path17904" />
      <path
         d="M -1222.677165,612.283465 L -1045.039370,612.283465 A 37.795276,37.795276 0.0 0 0 -1007.244094,574.488189 L -1007.244094,348.808269 A 56.692913,56.692913 0.0 0 0 -1033.970849,300.682229 A 188.976378,188.976378 0.0 0 0 -1233.745877,300.682623 A 56.692913,56.692913 0.0 0 0 -1260.472441,348.808545 L -1260.472441,574.488189 A 37.795276,37.795276 0.0 0 0 -1222.677165,612.283465 z"
         style="fill:none;stroke:#000000"
         id="path17906" />
      <path
         d="M -1600.629921,612.283465 L -1422.992126,612.283465 A 37.795276,37.795276 0.0 0 0 -1385.196850,574.488189 L -1385.196850,348.808269 A 56.692913,56.692913 0.0 0 0 -1411.923604,300.682229 A 188.976378,188.976378 0.0 0 0 -1611.698633,300.682623 A 56.692913,56.692913 0.0 0 0 -1638.425197,348.808545 L -1638.425197,574.488189 A 37.795276,37.795276 0.0 0 0 -1600.629921,612.283465 z"
         style="fill:none;stroke:#000000"
         id="path17908" />
    </symbol>
    <symbol
       id="VBI_AL260-DDRSN-PP">
      <path
         d="M -1766.929134,574.488189 A 37.795276,37.795276 0.0 0 1 -1804.724409,612.283465 L -1938.897638,612.283465 A 37.795276,37.795276 0.0 0 1 -1976.692913,574.488189 L -1976.692913,445.039370 A 104.881890,104.881890 0.0 0 1 -1766.929134,445.039370 L -1766.929134,574.488189 z"
         style="fill:none;stroke:#000000"
         id="path17911" />
      <path
         d="M -466.771654,612.283465 L -289.133858,612.283465 A 37.795276,37.795276 0.0 0 0 -251.338583,574.488189 L -251.338583,348.808269 A 56.692913,56.692913 0.0 0 0 -278.065337,300.682229 A 188.976378,188.976378 0.0 0 0 -477.840365,300.682623 A 56.692913,56.692913 0.0 0 0 -504.566929,348.808545 L -504.566929,574.488189 A 37.795276,37.795276 0.0 0 0 -466.771654,612.283465 z"
         style="fill:none;stroke:#000000"
         id="path17913" />
      <path
         d="M -844.724409,612.283465 L -667.086614,612.283465 A 37.795276,37.795276 0.0 0 0 -629.291339,574.488189 L -629.291339,348.808269 A 56.692913,56.692913 0.0 0 0 -656.018093,300.682229 A 188.976378,188.976378 0.0 0 0 -855.793121,300.682623 A 56.692913,56.692913 0.0 0 0 -882.519685,348.808545 L -882.519685,574.488189 A 37.795276,37.795276 0.0 0 0 -844.724409,612.283465 z"
         style="fill:none;stroke:#000000"
         id="path17915" />
      <path
         d="M -1222.677165,612.283465 L -1045.039370,612.283465 A 37.795276,37.795276 0.0 0 0 -1007.244094,574.488189 L -1007.244094,348.808269 A 56.692913,56.692913 0.0 0 0 -1033.970849,300.682229 A 188.976378,188.976378 0.0 0 0 -1233.745877,300.682623 A 56.692913,56.692913 0.0 0 0 -1260.472441,348.808545 L -1260.472441,574.488189 A 37.795276,37.795276 0.0 0 0 -1222.677165,612.283465 z"
         style="fill:none;stroke:#000000"
         id="path17917" />
      <path
         d="M -1600.629921,612.283465 L -1422.992126,612.283465 A 37.795276,37.795276 0.0 0 0 -1385.196850,574.488189 L -1385.196850,348.808269 A 56.692913,56.692913 0.0 0 0 -1411.923604,300.682229 A 188.976378,188.976378 0.0 0 0 -1611.698633,300.682623 A 56.692913,56.692913 0.0 0 0 -1638.425197,348.808545 L -1638.425197,574.488189 A 37.795276,37.795276 0.0 0 0 -1600.629921,612.283465 z"
         style="fill:none;stroke:#000000"
         id="path17919" />
      <path
         d="M -2224.099877,982.579262 L -2161.579150,924.148677 L -2129.150176,802.540021 L -2165.669291,763.464567 L -2165.669291,638.740157 L -2120.314961,593.385827 L -2120.314961,336.377953 L -2165.669291,291.023622 L -2165.669291,139.842520 L 0.000000,139.842520 L -0.000000,272.125984 A 219.869066,219.869066 0.0 0 0 -99.887609,300.682623 A 56.692913,56.692913 0.0 0 0 -126.614173,348.808545 L -126.614173,574.488189 A 37.795276,37.795276 0.0 0 0 -88.818898,612.283465 L 0.000000,612.283465 L 0.000000,1122.519685 L -2222.362205,1122.519685 L -2260.157480,1084.724409 L -2260.157480,1046.929134 L -2241.259843,1046.929134 L -2224.099877,982.579262 z"
         style="fill:none;stroke:#000000"
         id="path17921" />
    </symbol>
    <symbol
       id="VBI_AL260_LDRSN">
      <path
         d="M 0.000000,139.842520 L 9070.866142,139.842520 L 9070.866142,1122.519685 L 0.000000,1122.519685 L 0.000000,139.842520 z"
         style="fill:none;stroke:#000000"
         id="path17924" />
      <path
         d="M 0.000000,272.125984 L 9070.866142,272.125984"
         style="fill:none;stroke:#000000;stroke-dasharray:188.9764,94.4882,"
         id="path17926" />
      <path
         d="M 0.000000,612.283465 L 9070.866142,612.283465"
         style="fill:none;stroke:#000000;stroke-dasharray:188.9764,94.4882,"
         id="path17928" />
    </symbol>
    <symbol
       id="VBI_AL320_DDRSN_NP">
      <path
         d="M 2267.716535,-86.929134 L 2369.763780,-86.929134 L 2369.763780,64.251969 L 2415.118110,109.606299 L 2415.118110,245.669291 L 2369.763780,291.023622 L 2369.763780,593.385827 L 2409.840887,628.802805 L 2389.149915,752.948636 L 2332.482749,817.072008 L 2294.173228,1046.929134 L 2267.716535,1046.929134 L 2241.259843,1046.929134 L 2202.950322,817.072008 L 2146.283156,752.948636 L 2125.592184,628.802805 L 2165.669291,593.385827 L 2165.669291,291.023622 L 2120.314961,245.669291 L 2120.314961,109.606299 L 2165.669291,64.251969 L 2165.669291,-86.929134 L 2267.716535,-86.929134 z"
         style="fill:none;stroke:#FF0000"
         id="path17931" />
    </symbol>
    <symbol
       id="VBI_AL320_DDRSN_PP">
      <path
         d="M -94.488189,306.141732 L -94.488189,404.409449 A 37.795276,37.795276 0.0 0 0 -56.692913,442.204724 L 0.000000,442.204724 L 0.000000,1122.519685 L -2222.362205,1122.519685 L -2260.157480,1084.724409 L -2260.157480,1046.929134 L -2241.259843,1046.929134 L -2202.950322,817.072008 L -2146.283156,752.948636 L -2125.592184,628.802805 L -2165.669291,593.385827 L -2165.669291,291.023622 L -2120.314961,245.669291 L -2120.314961,109.606299 L -2165.669291,64.251969 L -2165.669291,-86.929134 L 0.000000,-86.929134 L -0.000000,211.653543 A 90.313683,90.313683 0.0 0 0 -94.488189,306.141732 z"
         style="fill:none;stroke:#000000"
         id="path17934" />
      <path
         d="M -1795.275591,366.614173 L -1795.275591,268.346457 A 94.488189,94.488189 0.0 0 0 -1984.251969,268.346457 L -1984.251969,366.614173 A 37.795276,37.795276 0.0 0 0 -1946.456693,404.409449 L -1833.070866,404.409449 A 37.795276,37.795276 0.0 0 0 -1795.275591,366.614173 z"
         style="fill:none;stroke:#000000"
         id="path17936" />
      <path
         d="M -1417.322835,404.409449 L -1417.322835,306.141732 A 94.488189,94.488189 0.0 0 0 -1606.299213,306.141732 L -1606.299213,404.409449 A 37.795276,37.795276 0.0 0 0 -1568.503937,442.204724 L -1455.118110,442.204724 A 37.795276,37.795276 0.0 0 0 -1417.322835,404.409449 z"
         style="fill:none;stroke:#000000"
         id="path17938" />
      <path
         d="M -1039.370079,404.409449 L -1039.370079,306.141732 A 94.488189,94.488189 0.0 0 0 -1228.346457,306.141732 L -1228.346457,404.409449 A 37.795276,37.795276 0.0 0 0 -1190.551181,442.204724 L -1077.165354,442.204724 A 37.795276,37.795276 0.0 0 0 -1039.370079,404.409449 z"
         style="fill:none;stroke:#000000"
         id="path17940" />
      <path
         d="M -661.417323,404.409449 L -661.417323,306.141732 A 94.488189,94.488189 0.0 0 0 -850.393701,306.141732 L -850.393701,404.409449 A 37.795276,37.795276 0.0 0 0 -812.598425,442.204724 L -699.212598,442.204724 A 37.795276,37.795276 0.0 0 0 -661.417323,404.409449 z"
         style="fill:none;stroke:#000000"
         id="path17942" />
      <path
         d="M -283.464567,404.409449 L -283.464567,306.141732 A 94.488189,94.488189 0.0 0 0 -472.440945,306.141732 L -472.440945,404.409449 A 37.795276,37.795276 0.0 0 0 -434.645669,442.204724 L -321.259843,442.204724 A 37.795276,37.795276 0.0 0 0 -283.464567,404.409449 z"
         style="fill:none;stroke:#000000"
         id="path17944" />
    </symbol>
    <symbol
       id="VBI_AL320_LDRSN">
      <path
         d="M 0.000000,-86.929134 L 9070.866142,-86.929134 L 9070.866142,1122.519685 L 0.000000,1122.519685 L 0.000000,-86.929134 z"
         style="fill:none;stroke:#000000"
         id="path17947" />
      <path
         d="M 0.000000,442.204724 L 9070.866142,442.204724"
         style="fill:none;stroke:#000000;stroke-dasharray:188.9764,94.4882,"
         id="path17949" />
      <path
         d="M 0.000000,211.653543 L 9070.866142,211.653543"
         style="fill:none;stroke:#000000;stroke-dasharray:188.9764,94.4882,"
         id="path17951" />
    </symbol>
    <symbol
       id="*U9">
      <path
         d="M 0.000000,-86.929134 L 9070.866142,-86.929134 L 9070.866142,1122.519685 L 0.000000,1122.519685 L 0.000000,-86.929134 z"
         style="fill:none;stroke:#000000"
         id="path17954" />
      <path
         d="M 0.000000,442.204724 L 9070.866142,442.204724"
         style="fill:none;stroke:#000000;stroke-dasharray:188.9764,94.4882,"
         id="path17956" />
      <path
         d="M 0.000000,211.653543 L 9070.866142,211.653543"
         style="fill:none;stroke:#000000;stroke-dasharray:188.9764,94.4882,"
         id="path17958" />
    </symbol>
    <symbol
       id="AP320">
      <text
         x="-11355.206450"
         y="-14078.071478"
         style="font-size: 377.953px; fill: #000000; font-family: Arial; text-anchor: start"
         id="text17963"><tspan
           sodipodi:role="line"
           dx="0.000000"
           dy="0.000000"
           id="tspan17961">Appartementenvloer 320</tspan></text>
      <text
         x="-11353.170669"
         y="-12640.704987"
         style="font-size: 283.465px; fill: #000000; font-family: Arial; text-anchor: start"
         id="text17967"><tspan
           sodipodi:role="line"
           dx="0.000000"
           dy="0.000000"
           id="tspan17965">Dwarsdoorsnede</tspan></text>
      <text
         x="-11341.881811"
         y="-10682.169902"
         style="font-size: 188.976px; fill: #000000; font-family: Arial; text-anchor: start"
         id="text17971"><tspan
           sodipodi:role="line"
           dx="0.000000"
           dy="0.000000"
           id="tspan17969">standaard element</tspan></text>
      <text
         x="-11352.675780"
         y="-8861.067207"
         style="font-size: 283.465px; fill: #000000; font-family: Arial; text-anchor: start"
         id="text17975"><tspan
           sodipodi:role="line"
           dx="0.000000"
           dy="0.000000"
           id="tspan17973">Langsdoorsnede</tspan></text>
      <text
         x="-4538.732205"
         y="-10682.169902"
         style="font-size: 188.976px; fill: #000000; font-family: Arial; text-anchor: start"
         id="text17979"><tspan
           sodipodi:role="line"
           dx="0.000000"
           dy="0.000000"
           id="tspan17977">pasplaat (600 mm)</tspan></text>
      <text
         x="-7024.800719"
         y="-10682.169902"
         style="font-size: 188.976px; fill: #000000; font-family: Arial; text-anchor: start"
         id="text17983"><tspan
           sodipodi:role="line"
           dx="0.000000"
           dy="0.000000"
           id="tspan17981">voeg</tspan></text>
      <use
         xlink:href="#VBI_AL320_DDRSN_NP"
         style="stroke-width:0.500px"
         transform="translate(-9062.35, -12176.9)"
         id="use17985" />
      <use
         xlink:href="#VBI_AL320_DDRSN_PP"
         style="stroke-width:0.500px"
         transform="translate(-2251.64, -12176.9)"
         id="use17987" />
      <use
         xlink:href="#%2AU9"
         style="stroke-width:0.500px"
         transform="translate(-11322.5, -8397.33)"
         id="use17989" />
    </symbol>
  </defs>
  <g
     inkscape:groupmode="layer"
     inkscape:label="0"
     id="g17994" />
  <g
     inkscape:groupmode="layer"
     inkscape:label="A--L23"
     id="g18020">
    <path
       id="path18016"
       style="fill:#c0c0c0;stroke:#000000;fill-opacity:1;opacity:1"
       d="M 94.488281 139.8418 L 94.488281 291.02344 L 139.8418 336.37891 L 139.8418 593.38672 L 94.488281 638.74023 L 94.488281 763.46484 L 131.00781 802.53906 L 98.578125 924.14844 L 36.056641 982.58008 L 18.898438 1046.9297 L 0 1046.9297 L 0 1084.7246 L 37.794922 1122.5195 L 4482.5195 1122.5195 L 4520.3145 1084.7246 L 4520.3145 1046.9297 L 4501.418 1046.9297 L 4484.2578 982.58008 L 4421.7363 924.14844 L 4389.3086 802.53906 L 4425.8262 763.46484 L 4425.8262 638.74023 L 4380.4727 593.38672 L 4380.4727 336.37891 L 4425.8262 291.02344 L 4425.8262 139.8418 L 94.488281 139.8418 z M 1126.2969 272.125 A 188.97638 188.97638 0 0 1 1137.9844 272.48633 A 188.97638 188.97638 0 0 1 1226.1875 300.68164 A 56.692913 56.692913 0 0 1 1252.9141 348.80859 L 1252.9141 574.48828 A 37.795276 37.795276 0 0 1 1215.1172 612.2832 L 1037.4805 612.2832 A 37.795276 37.795276 0 0 1 999.68555 574.48828 L 999.68555 348.80859 A 56.692913 56.692913 0 0 1 1026.4121 300.68359 A 188.97638 188.97638 0 0 1 1091.418 275.37305 A 188.97638 188.97638 0 0 1 1114.6113 272.48633 A 188.97638 188.97638 0 0 1 1126.2969 272.125 z M 3776.9785 272.19141 A 188.97638 188.97638 0 0 1 3871.8555 300.68164 A 56.692913 56.692913 0 0 1 3898.582 348.80859 L 3898.582 574.48828 A 37.795276 37.795276 0 0 1 3860.7871 612.2832 L 3683.1504 612.2832 A 37.795276 37.795276 0 0 1 3645.3535 574.48828 L 3645.3535 348.80859 A 56.692913 56.692913 0 0 1 3672.0801 300.68359 A 188.97638 188.97638 0 0 1 3737.0879 275.37305 A 188.97638 188.97638 0 0 1 3776.9785 272.19141 z M 756.14062 272.28711 A 188.97638 188.97638 0 0 1 848.23438 300.68164 A 56.692913 56.692913 0 0 1 874.96094 348.80859 L 874.96094 574.48828 A 37.795276 37.795276 0 0 1 837.16602 612.2832 L 659.52734 612.2832 A 37.795276 37.795276 0 0 1 621.73242 574.48828 L 621.73242 348.80859 A 56.692913 56.692913 0 0 1 648.45898 300.68359 A 188.97638 188.97638 0 0 1 713.4668 275.37305 A 188.97638 188.97638 0 0 1 736.66016 272.48828 A 188.97638 188.97638 0 0 1 756.14062 272.28711 z M 1512.0449 272.28711 A 188.97638 188.97638 0 0 1 1604.1387 300.68164 A 56.692913 56.692913 0 0 1 1630.8652 348.80859 L 1630.8652 574.48828 A 37.795276 37.795276 0 0 1 1593.0703 612.2832 L 1415.4336 612.2832 A 37.795276 37.795276 0 0 1 1377.6387 574.48828 L 1377.6387 348.80859 A 56.692913 56.692913 0 0 1 1404.3652 300.68359 A 188.97638 188.97638 0 0 1 1469.3711 275.37305 A 188.97638 188.97638 0 0 1 1492.5645 272.48828 A 188.97638 188.97638 0 0 1 1512.0449 272.28711 z M 1889.998 272.28711 A 188.97638 188.97638 0 0 1 1982.0918 300.68164 A 56.692913 56.692913 0 0 1 2008.8184 348.80859 L 2008.8184 574.48828 A 37.795276 37.795276 0 0 1 1971.0234 612.2832 L 1793.3867 612.2832 A 37.795276 37.795276 0 0 1 1755.5898 574.48828 L 1755.5898 348.80859 A 56.692913 56.692913 0 0 1 1782.3164 300.68359 A 188.97638 188.97638 0 0 1 1847.3242 275.37305 A 188.97638 188.97638 0 0 1 1870.5176 272.48828 A 188.97638 188.97638 0 0 1 1889.998 272.28711 z M 2267.9512 272.28711 A 188.97638 188.97638 0 0 1 2360.0449 300.68164 A 56.692913 56.692913 0 0 1 2386.7715 348.80859 L 2386.7715 574.48828 A 37.795276 37.795276 0 0 1 2348.9766 612.2832 L 2171.3379 612.2832 A 37.795276 37.795276 0 0 1 2133.543 574.48828 L 2133.543 348.80859 A 56.692913 56.692913 0 0 1 2160.2695 300.68359 A 188.97638 188.97638 0 0 1 2225.2773 275.37305 A 188.97638 188.97638 0 0 1 2248.4707 272.48828 A 188.97638 188.97638 0 0 1 2267.9512 272.28711 z M 2645.9043 272.28711 A 188.97638 188.97638 0 0 1 2737.998 300.68164 A 56.692913 56.692913 0 0 1 2764.7246 348.80859 L 2764.7246 574.48828 A 37.795276 37.795276 0 0 1 2726.9297 612.2832 L 2549.291 612.2832 A 37.795276 37.795276 0 0 1 2511.4961 574.48828 L 2511.4961 348.80859 A 56.692913 56.692913 0 0 1 2538.2227 300.68359 A 188.97638 188.97638 0 0 1 2603.2305 275.37305 A 188.97638 188.97638 0 0 1 2626.4238 272.48828 A 188.97638 188.97638 0 0 1 2645.9043 272.28711 z M 3023.8574 272.28711 A 188.97638 188.97638 0 0 1 3115.9512 300.68164 A 56.692913 56.692913 0 0 1 3142.6777 348.80859 L 3142.6777 574.48828 A 37.795276 37.795276 0 0 1 3104.8828 612.2832 L 2927.2441 612.2832 A 37.795276 37.795276 0 0 1 2889.4492 574.48828 L 2889.4492 348.80859 A 56.692913 56.692913 0 0 1 2916.1758 300.68359 A 188.97638 188.97638 0 0 1 2981.1836 275.37305 A 188.97638 188.97638 0 0 1 3004.377 272.48828 A 188.97638 188.97638 0 0 1 3023.8574 272.28711 z M 3401.8086 272.28711 A 188.97638 188.97638 0 0 1 3493.9023 300.68164 A 56.692913 56.692913 0 0 1 3520.6309 348.80859 L 3520.6309 574.48828 A 37.795276 37.795276 0 0 1 3482.834 612.2832 L 3305.1973 612.2832 A 37.795276 37.795276 0 0 1 3267.4023 574.48828 L 3267.4023 348.80859 A 56.692913 56.692913 0 0 1 3294.1289 300.68359 A 188.97638 188.97638 0 0 1 3359.1348 275.37305 A 188.97638 188.97638 0 0 1 3382.3281 272.48828 A 188.97638 188.97638 0 0 1 3401.8086 272.28711 z M 4131.9688 340.1582 A 104.88189 104.88189 0 0 1 4236.8496 445.03906 L 4236.8496 574.48828 A 37.795276 37.795276 0 0 1 4199.0547 612.2832 L 4064.8828 612.2832 A 37.795276 37.795276 0 0 1 4027.0859 574.48828 L 4027.0859 445.03906 A 104.88189 104.88189 0 0 1 4131.9688 340.1582 z M 388.3457 340.16797 A 104.88189 104.88189 0 0 1 493.22852 445.03906 L 493.22852 574.48828 A 37.795276 37.795276 0 0 1 455.43359 612.2832 L 321.25977 612.2832 A 37.795276 37.795276 0 0 1 283.46484 574.48828 L 283.46484 445.03906 A 104.88189 104.88189 0 0 1 388.3457 340.16797 z " />
  </g>
</svg>
