<?xml version="1.0" encoding="UTF-8" standalone="no"?>
<svg
   viewBox="0 0 793.7007874015749 1122.5196850393702"
   width="793.7007874015749"
   height="1122.5196850393702"
   version="1.1"
   id="svg15434"
   sodipodi:docname="AP200.svg"
   inkscape:version="1.2.2 (732a01da63, 2022-12-09)"
   xmlns:inkscape="http://www.inkscape.org/namespaces/inkscape"
   xmlns:sodipodi="http://sodipodi.sourceforge.net/DTD/sodipodi-0.dtd"
   xmlns:xlink="http://www.w3.org/1999/xlink"
   xmlns="http://www.w3.org/2000/svg"
   xmlns:svg="http://www.w3.org/2000/svg">
  <sodipodi:namedview
     id="namedview15436"
     pagecolor="#ffffff"
     bordercolor="#000000"
     borderopacity="0.25"
     inkscape:showpageshadow="2"
     inkscape:pageopacity="0.0"
     inkscape:pagecheckerboard="0"
     inkscape:deskcolor="#d1d1d1"
     showgrid="false"
     inkscape:zoom="0.52293071"
     inkscape:cx="1857.7987"
     inkscape:cy="531.61919"
     inkscape:window-width="3440"
     inkscape:window-height="1377"
     inkscape:window-x="-8"
     inkscape:window-y="-8"
     inkscape:window-maximized="1"
     inkscape:current-layer="g15430" />
  <desc
     id="desc15284">AP200.dxf - scale = 1.000000, origin = (0.000000, 0.000000), method = manual</desc>
  <defs
     id="defs15404">
    <marker
       id="DistanceX"
       orient="auto"
       refX="0.0"
       refY="0.0"
       style="overflow:visible">
      <path
         d="M 3,-3 L -3,3 M 0,-5 L  0,5"
         style="stroke:#000000; stroke-width:0.5"
         id="path15286" />
    </marker>
    <pattern
       id="Hatch"
       patternUnits="userSpaceOnUse"
       width="8"
       height="8"
       x="0"
       y="0">
      <path
         d="M8 4 l-4,4"
         stroke="#000000"
         stroke-width="0.25"
         linecap="square"
         id="path15289" />
      <path
         d="M6 2 l-4,4"
         stroke="#000000"
         stroke-width="0.25"
         linecap="square"
         id="path15291" />
      <path
         d="M4 0 l-4,4"
         stroke="#000000"
         stroke-width="0.25"
         linecap="square"
         id="path15293" />
    </pattern>
    <symbol
       id="*Model_Space" />
    <symbol
       id="*Paper_Space" />
    <symbol
       id="*Paper_Space0" />
    <symbol
       id="DIMDOT">
      <path
         style="fill:none;stroke:#000000"
         d="M -7.55905 1122.52 L 7.55905 1122.52"
         id="path15299" />
      <path
         style="fill:none;stroke:#000000"
         d="M 0 1135.75 L 0 1109.29"
         id="path15301" />
      <path
         d="M 1.889764,1122.519685 A 1.889764,1.889764 0.000000 0, 0 -1.889764,1122.519685 A 1.889764,1.889764 0.000000 0, 0 1.889764,1122.519685 z"
         style="fill:none;stroke:#000000"
         id="path15303" />
      <path
         d="M 0.944882,1122.519685 A 0.944882,0.944882 0.000000 0, 0 -0.944882,1122.519685 A 0.944882,0.944882 0.000000 0, 0 0.944882,1122.519685 z"
         style="fill:none;stroke:#000000"
         id="path15305" />
    </symbol>
    <symbol
       id="VBI_AL200_DDRSN_NP">
      <path
         d="M 2235.380277,1005.772179 L 2181.929686,952.321587 L 2171.016416,875.928699 L 2211.104360,835.840755 L 2197.739646,742.287759 L 2144.289055,688.837168 L 2125.581348,557.883219 L 2165.669291,517.795276 L 2165.669291,366.614173 L 2369.763780,366.614173 L 2369.763780,517.795276 L 2409.851723,557.883219 L 2391.144016,688.837168 L 2337.693425,742.287759 L 2324.328711,835.840755 L 2364.416654,875.928699 L 2353.503385,952.321587 L 2300.052793,1005.772179 L 2294.173228,1046.929134 L 2267.716535,1046.929134 L 2241.259843,1046.929134 L 2235.380277,1005.772179 z"
         style="fill:none;stroke:#FF0000"
         id="path15308" />
    </symbol>
    <symbol
       id="VBI_AL200_DDRSN_PP" />
    <symbol
       id="VBI_AL200_LDRSN">
      <path
         d="M 0.000000,1122.519685 L 9070.866142,1122.519685 L 9070.866142,366.614173 L 0.000000,366.614173 L 0.000000,1122.519685 z"
         style="fill:none;stroke:#000000"
         id="path15312" />
      <path
         style="fill:none;stroke:#000000;stroke-dasharray:188.9764,94.4882,"
         d="M 9070.87 498.898 L 0 498.898"
         id="path15314" />
      <path
         style="fill:none;stroke:#000000;stroke-dasharray:188.9764,94.4882,"
         d="M 9070.87 763.465 L 0 763.465"
         id="path15316" />
    </symbol>
    <symbol
       id="VBI_AL260-DDRSN-NP">
      <path
         d="M 2267.716535,139.842520 L 2165.669291,139.842520 L 2165.669291,291.023622 L 2120.314961,336.377953 L 2120.314961,593.385827 L 2165.669291,638.740157 L 2165.669291,763.464567 L 2129.150176,802.540021 L 2161.579150,924.148677 L 2224.099877,982.579262 L 2241.259843,1046.929134 L 2267.716535,1046.929134 L 2294.173228,1046.929134 L 2311.333194,982.579262 L 2373.853921,924.148677 L 2406.282895,802.540021 L 2369.763780,763.464567 L 2369.763780,638.740157 L 2415.118110,593.385827 L 2415.118110,336.377953 L 2369.763780,291.023622 L 2369.763780,139.842520 L 2267.716535,139.842520 z"
         style="fill:none;stroke:#FF0000"
         id="path15319" />
      <path
         d="M -1766.929134,574.488189 A 37.795276,37.795276 0.0 0 1 -1804.724409,612.283465 L -1938.897638,612.283465 A 37.795276,37.795276 0.0 0 1 -1976.692913,574.488189 L -1976.692913,445.039370 A 104.881890,104.881890 0.0 0 1 -1766.929134,445.039370 L -1766.929134,574.488189 z"
         style="fill:none;stroke:#000000"
         id="path15321" />
      <path
         d="M -2165.669291,638.740157 L -2120.314961,593.385827 L -2120.314961,336.377953 L -2165.669291,291.023622 L -2165.669291,139.842520 L 2165.669291,139.842520 L 2165.669291,291.023622 L 2120.314961,336.377953 L 2120.314961,593.385827 L 2165.669291,638.740157 L 2165.669291,763.464567 L 2129.150176,802.540021 L 2161.579150,924.148677 L 2224.099877,982.579262 L 2241.259843,1046.929134 L 2260.157480,1046.929134 L 2260.157480,1084.724409 L 2222.362205,1122.519685 L -2222.362205,1122.519685 L -2260.157480,1084.724409 L -2260.157480,1046.929134 L -2241.259843,1046.929134 L -2224.099877,982.579262 L -2161.579150,924.148677 L -2129.150176,802.540021 L -2165.669291,763.464567 L -2165.669291,638.740157"
         style="fill:none;stroke:#000000"
         id="path15323" />
      <path
         d="M 1766.929134,574.488189 A 37.795276,37.795276 0.0 0 0 1804.724409,612.283465 L 1938.897638,612.283465 A 37.795276,37.795276 0.0 0 0 1976.692913,574.488189 L 1976.692913,445.039370 A 104.881890,104.881890 0.0 0 0 1766.929134,445.039370 L 1766.929134,574.488189 z"
         style="fill:none;stroke:#000000"
         id="path15325" />
      <path
         d="M 1422.992126,612.283465 L 1600.629921,612.283465 A 37.795276,37.795276 0.0 0 0 1638.425197,574.488189 L 1638.425197,348.808269 A 56.692913,56.692913 0.0 0 0 1611.698443,300.682229 A 188.976378,188.976378 0.0 0 0 1411.923415,300.682623 A 56.692913,56.692913 0.0 0 0 1385.196850,348.808545 L 1385.196850,574.488189 A 37.795276,37.795276 0.0 0 0 1422.992126,612.283465 z"
         style="fill:none;stroke:#000000"
         id="path15327" />
      <path
         d="M 1045.039370,612.283465 L 1222.677165,612.283465 A 37.795276,37.795276 0.0 0 0 1260.472441,574.488189 L 1260.472441,348.808269 A 56.692913,56.692913 0.0 0 0 1233.745687,300.682229 A 188.976378,188.976378 0.0 0 0 1033.970659,300.682623 A 56.692913,56.692913 0.0 0 0 1007.244094,348.808545 L 1007.244094,574.488189 A 37.795276,37.795276 0.0 0 0 1045.039370,612.283465 z"
         style="fill:none;stroke:#000000"
         id="path15329" />
      <path
         d="M 667.086614,612.283465 L 844.724409,612.283465 A 37.795276,37.795276 0.0 0 0 882.519685,574.488189 L 882.519685,348.808269 A 56.692913,56.692913 0.0 0 0 855.792931,300.682229 A 188.976378,188.976378 0.0 0 0 656.017903,300.682623 A 56.692913,56.692913 0.0 0 0 629.291339,348.808545 L 629.291339,574.488189 A 37.795276,37.795276 0.0 0 0 667.086614,612.283465 z"
         style="fill:none;stroke:#000000"
         id="path15331" />
      <path
         d="M 289.133858,612.283465 L 466.771654,612.283465 A 37.795276,37.795276 0.0 0 0 504.566929,574.488189 L 504.566929,348.808269 A 56.692913,56.692913 0.0 0 0 477.840175,300.682229 A 188.976378,188.976378 0.0 0 0 278.065147,300.682623 A 56.692913,56.692913 0.0 0 0 251.338583,348.808545 L 251.338583,574.488189 A 37.795276,37.795276 0.0 0 0 289.133858,612.283465 z"
         style="fill:none;stroke:#000000"
         id="path15333" />
      <path
         d="M -88.818898,612.283465 L 88.818898,612.283465 A 37.795276,37.795276 0.0 0 0 126.614173,574.488189 L 126.614173,348.808269 A 56.692913,56.692913 0.0 0 0 99.887419,300.682229 A 188.976378,188.976378 0.0 0 0 -99.887609,300.682623 A 56.692913,56.692913 0.0 0 0 -126.614173,348.808545 L -126.614173,574.488189 A 37.795276,37.795276 0.0 0 0 -88.818898,612.283465 z"
         style="fill:none;stroke:#000000"
         id="path15335" />
      <path
         d="M -466.771654,612.283465 L -289.133858,612.283465 A 37.795276,37.795276 0.0 0 0 -251.338583,574.488189 L -251.338583,348.808269 A 56.692913,56.692913 0.0 0 0 -278.065337,300.682229 A 188.976378,188.976378 0.0 0 0 -477.840365,300.682623 A 56.692913,56.692913 0.0 0 0 -504.566929,348.808545 L -504.566929,574.488189 A 37.795276,37.795276 0.0 0 0 -466.771654,612.283465 z"
         style="fill:none;stroke:#000000"
         id="path15337" />
      <path
         d="M -844.724409,612.283465 L -667.086614,612.283465 A 37.795276,37.795276 0.0 0 0 -629.291339,574.488189 L -629.291339,348.808269 A 56.692913,56.692913 0.0 0 0 -656.018093,300.682229 A 188.976378,188.976378 0.0 0 0 -855.793121,300.682623 A 56.692913,56.692913 0.0 0 0 -882.519685,348.808545 L -882.519685,574.488189 A 37.795276,37.795276 0.0 0 0 -844.724409,612.283465 z"
         style="fill:none;stroke:#000000"
         id="path15339" />
      <path
         d="M -1222.677165,612.283465 L -1045.039370,612.283465 A 37.795276,37.795276 0.0 0 0 -1007.244094,574.488189 L -1007.244094,348.808269 A 56.692913,56.692913 0.0 0 0 -1033.970849,300.682229 A 188.976378,188.976378 0.0 0 0 -1233.745877,300.682623 A 56.692913,56.692913 0.0 0 0 -1260.472441,348.808545 L -1260.472441,574.488189 A 37.795276,37.795276 0.0 0 0 -1222.677165,612.283465 z"
         style="fill:none;stroke:#000000"
         id="path15341" />
      <path
         d="M -1600.629921,612.283465 L -1422.992126,612.283465 A 37.795276,37.795276 0.0 0 0 -1385.196850,574.488189 L -1385.196850,348.808269 A 56.692913,56.692913 0.0 0 0 -1411.923604,300.682229 A 188.976378,188.976378 0.0 0 0 -1611.698633,300.682623 A 56.692913,56.692913 0.0 0 0 -1638.425197,348.808545 L -1638.425197,574.488189 A 37.795276,37.795276 0.0 0 0 -1600.629921,612.283465 z"
         style="fill:none;stroke:#000000"
         id="path15343" />
    </symbol>
    <symbol
       id="VBI_AL260-DDRSN-PP">
      <path
         d="M -1766.929134,574.488189 A 37.795276,37.795276 0.0 0 1 -1804.724409,612.283465 L -1938.897638,612.283465 A 37.795276,37.795276 0.0 0 1 -1976.692913,574.488189 L -1976.692913,445.039370 A 104.881890,104.881890 0.0 0 1 -1766.929134,445.039370 L -1766.929134,574.488189 z"
         style="fill:none;stroke:#000000"
         id="path15346" />
      <path
         d="M -466.771654,612.283465 L -289.133858,612.283465 A 37.795276,37.795276 0.0 0 0 -251.338583,574.488189 L -251.338583,348.808269 A 56.692913,56.692913 0.0 0 0 -278.065337,300.682229 A 188.976378,188.976378 0.0 0 0 -477.840365,300.682623 A 56.692913,56.692913 0.0 0 0 -504.566929,348.808545 L -504.566929,574.488189 A 37.795276,37.795276 0.0 0 0 -466.771654,612.283465 z"
         style="fill:none;stroke:#000000"
         id="path15348" />
      <path
         d="M -844.724409,612.283465 L -667.086614,612.283465 A 37.795276,37.795276 0.0 0 0 -629.291339,574.488189 L -629.291339,348.808269 A 56.692913,56.692913 0.0 0 0 -656.018093,300.682229 A 188.976378,188.976378 0.0 0 0 -855.793121,300.682623 A 56.692913,56.692913 0.0 0 0 -882.519685,348.808545 L -882.519685,574.488189 A 37.795276,37.795276 0.0 0 0 -844.724409,612.283465 z"
         style="fill:none;stroke:#000000"
         id="path15350" />
      <path
         d="M -1222.677165,612.283465 L -1045.039370,612.283465 A 37.795276,37.795276 0.0 0 0 -1007.244094,574.488189 L -1007.244094,348.808269 A 56.692913,56.692913 0.0 0 0 -1033.970849,300.682229 A 188.976378,188.976378 0.0 0 0 -1233.745877,300.682623 A 56.692913,56.692913 0.0 0 0 -1260.472441,348.808545 L -1260.472441,574.488189 A 37.795276,37.795276 0.0 0 0 -1222.677165,612.283465 z"
         style="fill:none;stroke:#000000"
         id="path15352" />
      <path
         d="M -1600.629921,612.283465 L -1422.992126,612.283465 A 37.795276,37.795276 0.0 0 0 -1385.196850,574.488189 L -1385.196850,348.808269 A 56.692913,56.692913 0.0 0 0 -1411.923604,300.682229 A 188.976378,188.976378 0.0 0 0 -1611.698633,300.682623 A 56.692913,56.692913 0.0 0 0 -1638.425197,348.808545 L -1638.425197,574.488189 A 37.795276,37.795276 0.0 0 0 -1600.629921,612.283465 z"
         style="fill:none;stroke:#000000"
         id="path15354" />
      <path
         d="M -2224.099877,982.579262 L -2161.579150,924.148677 L -2129.150176,802.540021 L -2165.669291,763.464567 L -2165.669291,638.740157 L -2120.314961,593.385827 L -2120.314961,336.377953 L -2165.669291,291.023622 L -2165.669291,139.842520 L 0.000000,139.842520 L -0.000000,272.125984 A 219.869066,219.869066 0.0 0 0 -99.887609,300.682623 A 56.692913,56.692913 0.0 0 0 -126.614173,348.808545 L -126.614173,574.488189 A 37.795276,37.795276 0.0 0 0 -88.818898,612.283465 L 0.000000,612.283465 L 0.000000,1122.519685 L -2222.362205,1122.519685 L -2260.157480,1084.724409 L -2260.157480,1046.929134 L -2241.259843,1046.929134 L -2224.099877,982.579262 z"
         style="fill:none;stroke:#000000"
         id="path15356" />
    </symbol>
    <symbol
       id="VBI_AL260_LDRSN">
      <path
         d="M 0.000000,139.842520 L 9070.866142,139.842520 L 9070.866142,1122.519685 L 0.000000,1122.519685 L 0.000000,139.842520 z"
         style="fill:none;stroke:#000000"
         id="path15359" />
      <path
         d="M 0.000000,272.125984 L 9070.866142,272.125984"
         style="fill:none;stroke:#000000;stroke-dasharray:188.9764,94.4882,"
         id="path15361" />
      <path
         d="M 0.000000,612.283465 L 9070.866142,612.283465"
         style="fill:none;stroke:#000000;stroke-dasharray:188.9764,94.4882,"
         id="path15363" />
    </symbol>
    <symbol
       id="*U9">
      <path
         d="M 0.000000,139.842520 L 9070.866142,139.842520 L 9070.866142,1122.519685 L 0.000000,1122.519685 L 0.000000,139.842520 z"
         style="fill:none;stroke:#000000"
         id="path15366" />
      <path
         d="M 0.000000,272.125984 L 9070.866142,272.125984"
         style="fill:none;stroke:#000000;stroke-dasharray:188.9764,94.4882,"
         id="path15368" />
      <path
         d="M 0.000000,612.283465 L 9070.866142,612.283465"
         style="fill:none;stroke:#000000;stroke-dasharray:188.9764,94.4882,"
         id="path15370" />
    </symbol>
    <symbol
       id="AP260">
      <text
         x="-11355.206450"
         y="-14078.071478"
         style="font-size: 377.953px; fill: #000000; font-family: Arial; text-anchor: start"
         id="text15375"><tspan
           sodipodi:role="line"
           dx="0.000000"
           dy="0.000000"
           id="tspan15373">Appartementenvloer 260</tspan></text>
      <text
         x="-11353.170669"
         y="-12413.933334"
         style="font-size: 283.465px; fill: #000000; font-family: Arial; text-anchor: start"
         id="text15379"><tspan
           sodipodi:role="line"
           dx="0.000000"
           dy="0.000000"
           id="tspan15377">Dwarsdoorsnede</tspan></text>
      <text
         x="-11341.881811"
         y="-10682.169902"
         style="font-size: 188.976px; fill: #000000; font-family: Arial; text-anchor: start"
         id="text15383"><tspan
           sodipodi:role="line"
           dx="0.000000"
           dy="0.000000"
           id="tspan15381">standaard element</tspan></text>
      <text
         x="-11352.675780"
         y="-8634.295554"
         style="font-size: 283.465px; fill: #000000; font-family: Arial; text-anchor: start"
         id="text15387"><tspan
           sodipodi:role="line"
           dx="0.000000"
           dy="0.000000"
           id="tspan15385">Langsdoorsnede</tspan></text>
      <text
         x="-4538.732205"
         y="-10682.169902"
         style="font-size: 188.976px; fill: #000000; font-family: Arial; text-anchor: start"
         id="text15391"><tspan
           sodipodi:role="line"
           dx="0.000000"
           dy="0.000000"
           id="tspan15389">pasplaat (600 mm)</tspan></text>
      <text
         x="-7004.389150"
         y="-10682.169902"
         style="font-size: 188.976px; fill: #000000; font-family: Arial; text-anchor: start"
         id="text15395"><tspan
           sodipodi:role="line"
           dx="0.000000"
           dy="0.000000"
           id="tspan15393">voeg</tspan></text>
      <use
         xlink:href="#VBI_AL260-DDRSN-NP"
         style="stroke-width:0.500px"
         transform="translate(-9062.35, -12176.9)"
         id="use15397" />
      <use
         xlink:href="#VBI_AL260-DDRSN-PP"
         style="stroke-width:0.500px"
         transform="translate(-2251.64, -12176.9)"
         id="use15399" />
      <use
         xlink:href="#%2AU9"
         style="stroke-width:0.500px"
         transform="translate(-11322.5, -8397.33)"
         id="use15401" />
    </symbol>
  </defs>
  <g
     inkscape:groupmode="layer"
     inkscape:label="0"
     id="g15430">
    <path
       id="path15406"
       style="fill:#c0c0c0;stroke:#000000;fill-opacity:1"
       d="M 94.488281 366.61328 L 94.488281 517.79492 L 134.57617 557.88281 L 115.86914 688.83789 L 62.417969 742.28711 L 49.052734 835.83984 L 89.140625 875.92773 L 78.228516 952.32227 L 24.777344 1005.7715 L 18.898438 1046.9297 L 0 1046.9297 L 0 1084.7246 L 37.794922 1122.5195 L 4482.5195 1122.5195 L 4520.3145 1084.7246 L 4520.3145 1046.9297 L 4501.418 1046.9297 L 4495.5371 1005.7715 L 4442.0879 952.32227 L 4431.1738 875.92773 L 4471.2617 835.83984 L 4457.8965 742.28711 L 4404.4473 688.83789 L 4385.7383 557.88281 L 4425.8262 517.79492 L 4425.8262 366.61328 L 94.488281 366.61328 z M 748.3457 498.89844 A 302.36221 302.36221 0 0 1 839.05469 512.82422 A 56.692913 56.692913 0 0 1 878.74023 566.90625 L 878.74023 725.66992 A 37.795276 37.795276 0 0 1 840.94531 763.46484 L 655.74805 763.46484 A 37.795276 37.795276 0 0 1 617.95312 725.66992 L 617.95312 566.90625 A 56.692913 56.692913 0 0 1 657.63867 512.82422 A 302.36221 302.36221 0 0 1 748.3457 498.89844 z M 1126.2988 498.89844 A 302.36221 302.36221 0 0 1 1217.0078 512.82422 A 56.692913 56.692913 0 0 1 1256.6934 566.90625 L 1256.6934 725.66992 A 37.795276 37.795276 0 0 1 1218.8984 763.46484 L 1033.7012 763.46484 A 37.795276 37.795276 0 0 1 995.90625 725.66992 L 995.90625 566.90625 A 56.692913 56.692913 0 0 1 1035.5898 512.82422 A 302.36221 302.36221 0 0 1 1126.2988 498.89844 z M 1504.252 498.89844 A 302.36221 302.36221 0 0 1 1594.9609 512.82422 A 56.692913 56.692913 0 0 1 1634.6465 566.90625 L 1634.6465 725.66992 A 37.795276 37.795276 0 0 1 1596.8496 763.46484 L 1411.6543 763.46484 A 37.795276 37.795276 0 0 1 1373.8574 725.66992 L 1373.8574 566.90625 A 56.692913 56.692913 0 0 1 1413.543 512.82422 A 302.36221 302.36221 0 0 1 1504.252 498.89844 z M 1882.2051 498.89844 A 302.36221 302.36221 0 0 1 1972.9141 512.82422 A 56.692913 56.692913 0 0 1 2012.5977 566.90625 L 2012.5977 725.66992 A 37.795276 37.795276 0 0 1 1974.8027 763.46484 L 1789.6055 763.46484 A 37.795276 37.795276 0 0 1 1751.8105 725.66992 L 1751.8105 566.90625 A 56.692913 56.692913 0 0 1 1791.4961 512.82422 A 302.36221 302.36221 0 0 1 1882.2051 498.89844 z M 2260.1582 498.89844 A 302.36221 302.36221 0 0 1 2350.8652 512.82422 A 56.692913 56.692913 0 0 1 2390.5508 566.90625 L 2390.5508 725.66992 A 37.795276 37.795276 0 0 1 2352.7559 763.46484 L 2167.5586 763.46484 A 37.795276 37.795276 0 0 1 2129.7637 725.66992 L 2129.7637 566.90625 A 56.692913 56.692913 0 0 1 2169.4492 512.82422 A 302.36221 302.36221 0 0 1 2260.1582 498.89844 z M 2638.1094 498.89844 A 302.36221 302.36221 0 0 1 2728.8184 512.82422 A 56.692913 56.692913 0 0 1 2768.5039 566.90625 L 2768.5039 725.66992 A 37.795276 37.795276 0 0 1 2730.709 763.46484 L 2545.5117 763.46484 A 37.795276 37.795276 0 0 1 2507.7168 725.66992 L 2507.7168 566.90625 A 56.692913 56.692913 0 0 1 2547.4023 512.82422 A 302.36221 302.36221 0 0 1 2638.1094 498.89844 z M 3016.0625 498.89844 A 302.36221 302.36221 0 0 1 3106.7715 512.82422 A 56.692913 56.692913 0 0 1 3146.457 566.90625 L 3146.457 725.66992 A 37.795276 37.795276 0 0 1 3108.6621 763.46484 L 2923.4648 763.46484 A 37.795276 37.795276 0 0 1 2885.6699 725.66992 L 2885.6699 566.90625 A 56.692913 56.692913 0 0 1 2925.3535 512.82422 A 302.36221 302.36221 0 0 1 3016.0625 498.89844 z M 3394.0156 498.89844 A 302.36221 302.36221 0 0 1 3484.7246 512.82422 A 56.692913 56.692913 0 0 1 3524.4102 566.90625 L 3524.4102 725.66992 A 37.795276 37.795276 0 0 1 3486.6133 763.46484 L 3301.418 763.46484 A 37.795276 37.795276 0 0 1 3263.6211 725.66992 L 3263.6211 566.90625 A 56.692913 56.692913 0 0 1 3303.3066 512.82422 A 302.36221 302.36221 0 0 1 3394.0156 498.89844 z M 3771.9688 498.89844 A 302.36221 302.36221 0 0 1 3862.6777 512.82422 A 56.692913 56.692913 0 0 1 3902.3613 566.90625 L 3902.3613 725.66992 A 37.795276 37.795276 0 0 1 3864.5664 763.46484 L 3679.3691 763.46484 A 37.795276 37.795276 0 0 1 3641.5742 725.66992 L 3641.5742 566.90625 A 56.692913 56.692913 0 0 1 3681.2598 512.82422 A 302.36221 302.36221 0 0 1 3771.9688 498.89844 z M 383.62109 506.45703 A 113.38583 113.38583 0 0 1 497.00781 619.8418 L 497.00781 725.66992 A 37.795276 37.795276 0 0 1 459.21289 763.46484 L 308.03125 763.46484 A 37.795276 37.795276 0 0 1 270.23633 725.66992 L 270.23633 619.8418 A 113.38583 113.38583 0 0 1 383.62109 506.45703 z M 4136.6934 506.4668 A 113.38583 113.38583 0 0 1 4250.0781 619.8418 L 4250.0781 725.66992 A 37.795276 37.795276 0 0 1 4212.2832 763.46484 L 4061.1016 763.46484 A 37.795276 37.795276 0 0 1 4023.3066 725.66992 L 4023.3066 619.8418 A 113.38583 113.38583 0 0 1 4136.6934 506.4668 z " />
  </g>
  <g
     inkscape:groupmode="layer"
     inkscape:label="A--L23"
     id="g15432" />
</svg>
