<?xml version="1.0" encoding="UTF-8" standalone="no"?>
<!-- Created with Inkscape (http://www.inkscape.org/) -->

<svg
   width="210mm"
   height="297mm"
   viewBox="0 0 210 297"
   version="1.1"
   id="svg5"
   xml:space="preserve"
   inkscape:version="1.2.2 (732a01da63, 2022-12-09)"
   sodipodi:docname="Combinatievloer ongeisoleerd B880 200-210.svg"
   xmlns:inkscape="http://www.inkscape.org/namespaces/inkscape"
   xmlns:sodipodi="http://sodipodi.sourceforge.net/DTD/sodipodi-0.dtd"
   xmlns="http://www.w3.org/2000/svg"
   xmlns:svg="http://www.w3.org/2000/svg"><sodipodi:namedview
     id="namedview7"
     pagecolor="#ffffff"
     bordercolor="#000000"
     borderopacity="0.25"
     inkscape:showpageshadow="2"
     inkscape:pageopacity="0.0"
     inkscape:pagecheckerboard="0"
     inkscape:deskcolor="#d1d1d1"
     inkscape:document-units="mm"
     showgrid="false"
     inkscape:zoom="0.2287265"
     inkscape:cx="135.53305"
     inkscape:cy="338.83262"
     inkscape:window-width="2023"
     inkscape:window-height="1368"
     inkscape:window-x="274"
     inkscape:window-y="0"
     inkscape:window-maximized="0"
     inkscape:current-layer="g1843" /><defs
     id="defs2"><marker
       id="DistanceX"
       orient="auto"
       refX="0.0"
       refY="0.0"
       style="overflow:visible"><path
         d="M 3,-3 L -3,3 M 0,-5 L  0,5"
         style="stroke:#000000; stroke-width:0.5"
         id="path1777" /></marker><pattern
       id="Hatch"
       patternUnits="userSpaceOnUse"
       width="8"
       height="8"
       x="0"
       y="0"><path
         d="M8 4 l-4,4"
         stroke="#000000"
         stroke-width="0.25"
         linecap="square"
         id="path1780" /><path
         d="M6 2 l-4,4"
         stroke="#000000"
         stroke-width="0.25"
         linecap="square"
         id="path1782" /><path
         d="M4 0 l-4,4"
         stroke="#000000"
         stroke-width="0.25"
         linecap="square"
         id="path1784" /></pattern><symbol
       id="*Model_Space" /><symbol
       id="*Paper_Space" /><symbol
       id="*Paper_Space0" /><symbol
       id="DIMDOT"><path
         style="fill:none;stroke:#000000"
         d="M -7.55905 1122.52 L 7.55905 1122.52"
         id="path1790" /><path
         style="fill:none;stroke:#000000"
         d="M 0 1135.75 L 0 1109.29"
         id="path1792" /><path
         d="M 1.889764,1122.519685 A 1.889764,1.889764 0.000000 0, 0 -1.889764,1122.519685 A 1.889764,1.889764 0.000000 0, 0 1.889764,1122.519685 z"
         style="fill:none;stroke:#000000"
         id="path1794" /><path
         d="M 0.944882,1122.519685 A 0.944882,0.944882 0.000000 0, 0 -0.944882,1122.519685 A 0.944882,0.944882 0.000000 0, 0 0.944882,1122.519685 z"
         style="fill:none;stroke:#000000"
         id="path1796" /></symbol></defs><g
     inkscape:label="Laag 1"
     inkscape:groupmode="layer"
     id="layer1"><g
       id="g1843"
       transform="matrix(0.26458333,0,0,0.26458333,-421.43503,7.0385419)"><g
         inkscape:label="0"
         id="g1801" /><g
         inkscape:label="ANZ"
         id="g1805"
         style="fill:#c0c0c0;fill-opacity:1"><path
           d="M 664.53934,598.27872 692.91339,20.15748 V -216.06299 H 220.47244 V 20.15748 l 28.37405,578.12124 a 78.740157,78.740157 0 0 1 -58.43111,79.96109 L 29.262889,721.04594 A 39.370079,39.370079 0 0 0 0,759.09654 V 1122.5197 H 913.38583 V 759.09654 a 39.370079,39.370079 0 0 0 -29.26289,-38.0506 L 722.97045,678.23981 a 78.740157,78.740157 0 0 1 -58.43111,-79.96109 z"
           style="fill:#c0c0c0;stroke:#00ff00;fill-opacity:1"
           id="path1803" /></g><g
         inkscape:label="Defpoints"
         id="g1807" /><g
         inkscape:label="beton"
         id="g1815"
         style="fill:#c0c0c0;fill-opacity:1"><path
           id="path1813"
           style="fill:#c0c0c0;stroke:#00ff00;fill-opacity:1"
           d="M 1766.3956 -86.928536 L 821.51477 442.20428 L 821.51477 691.65351 L 1025.6085 744.56757 L 1040.7257 1122.5187 L 2484.505 1122.5187 L 3928.2863 1122.5187 L 3943.4035 744.56757 L 4147.4972 691.65351 L 4147.4972 442.20428 L 3202.6164 -86.928536 L 2484.505 -86.928536 L 1766.3956 -86.928536 z M 2021.2687 139.84295 L 2144.3488 139.84295 A 226.77165 226.77165 0 0 1 2371.1203 366.61444 L 2371.1203 668.97577 A 226.77165 226.77165 0 0 1 2144.3488 895.74726 L 1653.0089 895.74726 A 226.77165 226.77165 0 0 1 1426.2374 668.97577 L 1426.2374 606.15936 A 340.15748 340.15748 0 0 1 1600.1945 309.3703 L 1799.6652 197.66717 A 453.54331 453.54331 0 0 1 2021.2687 139.84295 z M 2824.6632 139.84295 L 2947.7433 139.84295 A 453.54331 453.54331 0 0 1 3169.3468 197.66717 L 3368.8175 309.3703 A 340.15748 340.15748 0 0 1 3542.7746 606.15936 L 3542.7746 668.97577 A 226.77165 226.77165 0 0 1 3316.0011 895.74726 L 2824.6632 895.74726 A 226.77165 226.77165 0 0 1 2597.8917 668.97577 L 2597.8917 366.61444 A 226.77165 226.77165 0 0 1 2824.6632 139.84295 z " /></g></g></g></svg>
