<?xml version="1.0" encoding="UTF-8" standalone="no"?>
<!-- Created with Inkscape (http://www.inkscape.org/) -->

<svg
   width="210mm"
   height="297mm"
   viewBox="0 0 210 297"
   version="1.1"
   id="svg7777"
   xml:space="preserve"
   inkscape:version="1.2.2 (732a01da63, 2022-12-09)"
   sodipodi:docname="Combinatievloer ongeisoleerd B1280 200-210.svg"
   xmlns:inkscape="http://www.inkscape.org/namespaces/inkscape"
   xmlns:sodipodi="http://sodipodi.sourceforge.net/DTD/sodipodi-0.dtd"
   xmlns="http://www.w3.org/2000/svg"
   xmlns:svg="http://www.w3.org/2000/svg"><sodipodi:namedview
     id="namedview7779"
     pagecolor="#ffffff"
     bordercolor="#000000"
     borderopacity="0.25"
     inkscape:showpageshadow="2"
     inkscape:pageopacity="0.0"
     inkscape:pagecheckerboard="0"
     inkscape:deskcolor="#d1d1d1"
     inkscape:document-units="mm"
     showgrid="false"
     inkscape:zoom="0.16173406"
     inkscape:cx="463.72421"
     inkscape:cy="250.41108"
     inkscape:window-width="2195"
     inkscape:window-height="1344"
     inkscape:window-x="183"
     inkscape:window-y="0"
     inkscape:window-maximized="0"
     inkscape:current-layer="g9033" /><defs
     id="defs7774"><marker
       id="DistanceX"
       orient="auto"
       refX="0.0"
       refY="0.0"
       style="overflow:visible"><path
         d="M 3,-3 L -3,3 M 0,-5 L  0,5"
         style="stroke:#000000; stroke-width:0.5"
         id="path8995" /></marker><pattern
       id="Hatch"
       patternUnits="userSpaceOnUse"
       width="8"
       height="8"
       x="0"
       y="0"><path
         d="M8 4 l-4,4"
         stroke="#000000"
         stroke-width="0.25"
         linecap="square"
         id="path8998" /><path
         d="M6 2 l-4,4"
         stroke="#000000"
         stroke-width="0.25"
         linecap="square"
         id="path9000" /><path
         d="M4 0 l-4,4"
         stroke="#000000"
         stroke-width="0.25"
         linecap="square"
         id="path9002" /></pattern><symbol
       id="*Model_Space" /><symbol
       id="*Paper_Space" /><symbol
       id="*Paper_Space0" /><symbol
       id="DIMDOT"><path
         style="fill:none;stroke:#000000"
         d="M -7.55905 1122.52 L 7.55905 1122.52"
         id="path9008" /><path
         style="fill:none;stroke:#000000"
         d="M 0 1135.75 L 0 1109.29"
         id="path9010" /><path
         d="M 1.889764,1122.519685 A 1.889764,1.889764 0.000000 0, 0 -1.889764,1122.519685 A 1.889764,1.889764 0.000000 0, 0 1.889764,1122.519685 z"
         style="fill:none;stroke:#000000"
         id="path9012" /><path
         d="M 0.944882,1122.519685 A 0.944882,0.944882 0.000000 0, 0 -0.944882,1122.519685 A 0.944882,0.944882 0.000000 0, 0 0.944882,1122.519685 z"
         style="fill:none;stroke:#000000"
         id="path9014" /></symbol></defs><g
     inkscape:label="Laag 1"
     inkscape:groupmode="layer"
     id="layer1"><g
       id="g9061"
       transform="matrix(0.26458333,0,0,0.26458333,-581.52655,-9.1562)"><g
         inkscape:label="0"
         id="g9019" /><g
         inkscape:label="ANZ"
         id="g9023"
         style="fill:#c0c0c0;fill-opacity:1"><path
           d="M 4994.7698,598.27872 4966.3957,20.15748 v -236.22047 h 472.441 V 20.15748 l -28.3741,578.12124 a 78.740157,78.740157 0 0 0 58.4311,79.96109 l 161.1525,42.80613 a 39.370079,39.370079 0 0 1 29.2629,38.0506 V 1122.5197 H 4745.9233 V 759.09654 a 39.370079,39.370079 0 0 1 29.2629,-38.0506 l 161.1525,-42.80613 a 78.740157,78.740157 0 0 0 58.4311,-79.96109 z"
           style="fill:#c0c0c0;stroke:#00ff00;fill-opacity:1"
           id="path9021" /></g><g
         inkscape:label="Defpoints"
         id="g9025" /><g
         inkscape:label="beton"
         id="g9033"><path
           id="path9029"
           style="fill:#c0c0c0;stroke:#00ff00;fill-opacity:1"
           d="M -0.00086232777 185.19596 L -0.00086232777 1122.5202 L 2192.1261 1122.5202 L 4618.5832 1122.5202 L 4633.7004 744.56706 L 4837.7961 691.65299 L 4837.7961 449.76432 L 4044.0949 185.19596 L 2192.1261 185.19596 L -0.00086232777 185.19596 z M 1133.8585 502.67643 L 2025.8273 502.67643 L 2025.8273 805.03971 L 1133.8585 805.03971 L 1133.8585 502.67643 z M 2630.5519 502.67643 L 3522.5207 502.67643 L 3522.5207 805.03971 L 2630.5519 805.03971 L 2630.5519 502.67643 z " /></g></g></g></svg>
