<?xml version="1.0" encoding="UTF-8" standalone="no"?>
<!-- Created with Inkscape (http://www.inkscape.org/) -->

<svg
   width="210mm"
   height="297mm"
   viewBox="0 0 210 297"
   version="1.1"
   id="svg10265"
   xml:space="preserve"
   inkscape:version="1.2.2 (732a01da63, 2022-12-09)"
   sodipodi:docname="Combinatievloer ongeisoleerd B1400 200-210.svg"
   xmlns:inkscape="http://www.inkscape.org/namespaces/inkscape"
   xmlns:sodipodi="http://sodipodi.sourceforge.net/DTD/sodipodi-0.dtd"
   xmlns="http://www.w3.org/2000/svg"
   xmlns:svg="http://www.w3.org/2000/svg"><sodipodi:namedview
     id="namedview10267"
     pagecolor="#ffffff"
     bordercolor="#000000"
     borderopacity="0.25"
     inkscape:showpageshadow="2"
     inkscape:pageopacity="0.0"
     inkscape:pagecheckerboard="0"
     inkscape:deskcolor="#d1d1d1"
     inkscape:document-units="mm"
     showgrid="false"
     inkscape:zoom="0.2287265"
     inkscape:cx="-356.32076"
     inkscape:cy="1134.5428"
     inkscape:window-width="1648"
     inkscape:window-height="1244"
     inkscape:window-x="472"
     inkscape:window-y="51"
     inkscape:window-maximized="0"
     inkscape:current-layer="g22721" /><defs
     id="defs10262"><marker
       id="DistanceX"
       orient="auto"
       refX="0.0"
       refY="0.0"
       style="overflow:visible"><path
         d="M 3,-3 L -3,3 M 0,-5 L  0,5"
         style="stroke:#000000; stroke-width:0.5"
         id="path22655" /></marker><pattern
       id="Hatch"
       patternUnits="userSpaceOnUse"
       width="8"
       height="8"
       x="0"
       y="0"><path
         d="M8 4 l-4,4"
         stroke="#000000"
         stroke-width="0.25"
         linecap="square"
         id="path22658" /><path
         d="M6 2 l-4,4"
         stroke="#000000"
         stroke-width="0.25"
         linecap="square"
         id="path22660" /><path
         d="M4 0 l-4,4"
         stroke="#000000"
         stroke-width="0.25"
         linecap="square"
         id="path22662" /></pattern><symbol
       id="*Model_Space" /><symbol
       id="*Paper_Space" /><symbol
       id="*Paper_Space0" /><symbol
       id="DIMDOT"><path
         style="fill:none;stroke:#000000"
         d="M -7.55905 1122.52 L 7.55905 1122.52"
         id="path22668" /><path
         style="fill:none;stroke:#000000"
         d="M 0 1135.75 L 0 1109.29"
         id="path22670" /><path
         d="M 1.889764,1122.519685 A 1.889764,1.889764 0.000000 0, 0 -1.889764,1122.519685 A 1.889764,1.889764 0.000000 0, 0 1.889764,1122.519685 z"
         style="fill:none;stroke:#000000"
         id="path22672" /><path
         d="M 0.944882,1122.519685 A 0.944882,0.944882 0.000000 0, 0 -0.944882,1122.519685 A 0.944882,0.944882 0.000000 0, 0 0.944882,1122.519685 z"
         style="fill:none;stroke:#000000"
         id="path22674" /></symbol></defs><g
     inkscape:label="Laag 1"
     inkscape:groupmode="layer"
     id="layer1"><g
       id="g22721"
       transform="matrix(0.26458333,0,0,0.26458333,-679.12149,20.052174)"><g
         inkscape:label="0"
         id="g22679" /><g
         inkscape:label="ANZ"
         id="g22683"
         style="fill:#c0c0c0;fill-opacity:1"><path
           d="M 664.53934,598.27872 692.91339,20.15748 V -216.06299 H 220.47244 V 20.15748 l 28.37405,578.12124 a 78.740157,78.740157 0 0 1 -58.43111,79.96109 L 29.262889,721.04594 A 39.370079,39.370079 0 0 0 0,759.09654 V 1122.5197 H 913.38583 V 759.09654 a 39.370079,39.370079 0 0 0 -29.26289,-38.0506 L 722.97045,678.23981 a 78.740157,78.740157 0 0 1 -58.43111,-79.96109 z"
           style="fill:#c0c0c0;stroke:#00ff00;fill-opacity:1"
           id="path22681" /></g><g
         inkscape:label="Defpoints"
         id="g22685" /><g
         inkscape:label="beton"
         id="g22693"><path
           id="path22691"
           style="fill:#c0c0c0;stroke:#00ff00;fill-opacity:1"
           d="M 1615.2154 185.19663 L 821.51426 449.76304 L 821.51426 691.65367 L 1025.608 744.56773 L 1040.7272 1122.5189 L 3467.1823 1122.5189 L 5893.6393 1122.5189 L 5908.7585 744.56773 L 6112.8522 691.65367 L 6112.8522 449.76304 L 5319.151 185.19663 L 3467.1823 185.19663 L 1615.2154 185.19663 z M 1819.3092 502.67711 L 2711.278 502.67711 L 2711.278 805.03844 L 1819.3092 805.03844 L 1819.3092 502.67711 z M 4223.0885 502.67711 L 5115.0573 502.67711 L 5115.0573 805.03844 L 4223.0885 805.03844 L 4223.0885 502.67711 z " /></g></g></g></svg>
