<?xml version="1.0" encoding="UTF-8" standalone="no"?>
<!-- Created with Inkscape (http://www.inkscape.org/) -->

<svg
   width="210mm"
   height="297mm"
   viewBox="0 0 210 297"
   version="1.1"
   id="svg4622"
   xml:space="preserve"
   inkscape:version="1.2.2 (732a01da63, 2022-12-09)"
   sodipodi:docname="Combinatievloer ongeisoleerd B1140 200-210.svg"
   xmlns:inkscape="http://www.inkscape.org/namespaces/inkscape"
   xmlns:sodipodi="http://sodipodi.sourceforge.net/DTD/sodipodi-0.dtd"
   xmlns="http://www.w3.org/2000/svg"
   xmlns:svg="http://www.w3.org/2000/svg"><sodipodi:namedview
     id="namedview4624"
     pagecolor="#ffffff"
     bordercolor="#000000"
     borderopacity="0.25"
     inkscape:showpageshadow="2"
     inkscape:pageopacity="0.0"
     inkscape:pagecheckerboard="0"
     inkscape:deskcolor="#d1d1d1"
     inkscape:document-units="mm"
     showgrid="false"
     inkscape:zoom="0.2287265"
     inkscape:cx="-32.790254"
     inkscape:cy="644.87499"
     inkscape:window-width="1876"
     inkscape:window-height="1368"
     inkscape:window-x="572"
     inkscape:window-y="0"
     inkscape:window-maximized="0"
     inkscape:current-layer="g6604" /><defs
     id="defs4619"><marker
       id="DistanceX"
       orient="auto"
       refX="0.0"
       refY="0.0"
       style="overflow:visible"><path
         d="M 3,-3 L -3,3 M 0,-5 L  0,5"
         style="stroke:#000000; stroke-width:0.5"
         id="path6566" /></marker><pattern
       id="Hatch"
       patternUnits="userSpaceOnUse"
       width="8"
       height="8"
       x="0"
       y="0"><path
         d="M8 4 l-4,4"
         stroke="#000000"
         stroke-width="0.25"
         linecap="square"
         id="path6569" /><path
         d="M6 2 l-4,4"
         stroke="#000000"
         stroke-width="0.25"
         linecap="square"
         id="path6571" /><path
         d="M4 0 l-4,4"
         stroke="#000000"
         stroke-width="0.25"
         linecap="square"
         id="path6573" /></pattern><symbol
       id="*Model_Space" /><symbol
       id="*Paper_Space" /><symbol
       id="*Paper_Space0" /><symbol
       id="DIMDOT"><path
         style="fill:none;stroke:#000000"
         d="M -7.55905 1122.52 L 7.55905 1122.52"
         id="path6579" /><path
         style="fill:none;stroke:#000000"
         d="M 0 1135.75 L 0 1109.29"
         id="path6581" /><path
         d="M 1.889764,1122.519685 A 1.889764,1.889764 0.000000 0, 0 -1.889764,1122.519685 A 1.889764,1.889764 0.000000 0, 0 1.889764,1122.519685 z"
         style="fill:none;stroke:#000000"
         id="path6583" /><path
         d="M 0.944882,1122.519685 A 0.944882,0.944882 0.000000 0, 0 -0.944882,1122.519685 A 0.944882,0.944882 0.000000 0, 0 0.944882,1122.519685 z"
         style="fill:none;stroke:#000000"
         id="path6585" /></symbol></defs><g
     inkscape:label="Laag 1"
     inkscape:groupmode="layer"
     id="layer1"><g
       id="g6632"
       transform="matrix(0.26458333,0,0,0.26458333,-549.82159,-0.76963723)"><g
         inkscape:label="0"
         id="g6590" /><g
         inkscape:label="ANZ"
         id="g6594"
         style="fill:#c0c0c0;fill-opacity:1"><path
           d="M 664.53934,598.27872 692.91339,20.15748 V -216.06299 H 220.47244 V 20.15748 l 28.37405,578.12124 a 78.740157,78.740157 0 0 1 -58.43111,79.96109 L 29.262889,721.04594 A 39.370079,39.370079 0 0 0 0,759.09654 V 1122.5197 H 913.38583 V 759.09654 a 39.370079,39.370079 0 0 0 -29.26289,-38.0506 L 722.97045,678.23981 a 78.740157,78.740157 0 0 1 -58.43111,-79.96109 z"
           style="fill:#c0c0c0;stroke:#00ff00;fill-opacity:1"
           id="path6592" /></g><g
         inkscape:label="Defpoints"
         id="g6596" /><g
         inkscape:label="beton"
         id="g6604"><path
           id="path6602"
           style="fill:#c0c0c0;stroke:#00ff00;fill-opacity:1"
           d="M 1766.396 -86.929027 L 821.51313 442.20379 L 821.51313 691.65301 L 1025.6088 744.56708 L 1040.726 1122.5202 L 2938.0503 1122.5202 L 4835.3726 1122.5202 L 4850.4897 744.56708 L 5054.5854 691.65301 L 5054.5854 442.20379 L 4109.7026 -86.929027 L 2938.0503 -86.929027 L 1766.396 -86.929027 z M 1953.7768 177.63738 L 2461.8296 177.63738 A 340.15749 340.15749 0 0 1 2461.8296 857.95184 L 1653.0092 857.95184 A 226.77165 226.77165 0 0 1 1426.2377 631.18036 L 1426.2377 606.16083 A 340.15748 340.15748 0 0 1 1600.1928 309.36981 L 1732.1733 235.4616 A 453.54331 453.54331 0 0 1 1953.7768 177.63738 z M 3414.269 177.63738 L 3922.3218 177.63738 A 453.54331 453.54331 0 0 1 4143.9253 235.4616 L 4275.9057 309.36981 A 340.15748 340.15748 0 0 1 4449.8608 606.16083 L 4449.8608 631.18036 A 226.77165 226.77165 0 0 1 4223.0893 857.95184 L 3414.269 857.95184 A 340.15749 340.15749 0 0 1 3414.269 177.63738 z " /></g></g></g></svg>
