<?xml version="1.0" encoding="UTF-8" standalone="no"?>
<svg
   viewBox="0 0 793.7007874015749 1122.5196850393702"
   width="793.7007874015749"
   height="1122.5196850393702"
   version="1.1"
   id="svg6668"
   sodipodi:docname="H260.svg"
   inkscape:version="1.2.2 (732a01da63, 2022-12-09)"
   xmlns:inkscape="http://www.inkscape.org/namespaces/inkscape"
   xmlns:sodipodi="http://sodipodi.sourceforge.net/DTD/sodipodi-0.dtd"
   xmlns="http://www.w3.org/2000/svg"
   xmlns:svg="http://www.w3.org/2000/svg">
  <sodipodi:namedview
     id="namedview6670"
     pagecolor="#ffffff"
     bordercolor="#000000"
     borderopacity="0.25"
     inkscape:showpageshadow="2"
     inkscape:pageopacity="0.0"
     inkscape:pagecheckerboard="0"
     inkscape:deskcolor="#d1d1d1"
     showgrid="false"
     inkscape:zoom="0.36976785"
     inkscape:cx="1402.2311"
     inkscape:cy="21.635196"
     inkscape:window-width="3440"
     inkscape:window-height="1377"
     inkscape:window-x="-8"
     inkscape:window-y="-8"
     inkscape:window-maximized="1"
     inkscape:current-layer="g6662" />
  <desc
     id="desc6548">H260.dxf - scale = 1.000000, origin = (0.000000, 0.000000), method = manual</desc>
  <defs
     id="defs6642">
    <marker
       id="DistanceX"
       orient="auto"
       refX="0.0"
       refY="0.0"
       style="overflow:visible">
      <path
         d="M 3,-3 L -3,3 M 0,-5 L  0,5"
         style="stroke:#000000; stroke-width:0.5"
         id="path6550" />
    </marker>
    <pattern
       id="Hatch"
       patternUnits="userSpaceOnUse"
       width="8"
       height="8"
       x="0"
       y="0">
      <path
         d="M8 4 l-4,4"
         stroke="#000000"
         stroke-width="0.25"
         linecap="square"
         id="path6553" />
      <path
         d="M6 2 l-4,4"
         stroke="#000000"
         stroke-width="0.25"
         linecap="square"
         id="path6555" />
      <path
         d="M4 0 l-4,4"
         stroke="#000000"
         stroke-width="0.25"
         linecap="square"
         id="path6557" />
    </pattern>
    <symbol
       id="*Model_Space" />
    <symbol
       id="*Paper_Space" />
    <symbol
       id="$MODEL_SPACE" />
    <symbol
       id="$PAPER_SPACE" />
    <symbol
       id="DIMDOT">
      <path
         style="fill:none;stroke:#000000"
         d="M -7.55905 1122.52 L 7.55905 1122.52"
         id="path6564" />
      <path
         style="fill:none;stroke:#000000"
         d="M 0 1135.75 L 0 1109.29"
         id="path6566" />
      <path
         d="M 1.889764,1122.519685 A 1.889764,1.889764 0.000000 0, 0 -1.889764,1122.519685 A 1.889764,1.889764 0.000000 0, 0 1.889764,1122.519685 z"
         style="fill:none;stroke:#000000"
         id="path6568" />
      <path
         d="M 0.944882,1122.519685 A 0.944882,0.944882 0.000000 0, 0 -0.944882,1122.519685 A 0.944882,0.944882 0.000000 0, 0 0.944882,1122.519685 z"
         style="fill:none;stroke:#000000"
         id="path6570" />
    </symbol>
    <symbol
       id="VBI_H260_DDRSN_NP">
      <path
         d="M 2267.716535,1122.519685 L 2241.259843,1122.519685 L 2241.259843,1046.929134 L 2203.276993,667.100676 L 2152.631951,616.455634 L 2124.232433,332.460482 L 2165.669287,291.023628 L 2165.669291,139.842526 L 2263.937008,139.842526 L 2369.763776,139.842526 L 2369.763776,291.023628 L 2411.200630,332.460482 L 2382.801112,616.455634 L 2332.156070,667.100676 L 2294.173228,1046.929134 L 2294.173228,1122.519685 L 2267.716535,1122.519685 z"
         style="fill:none;stroke:#FF0000"
         id="path6573" />
      <path
         d="M -2267.716535,1122.519685 L 2267.716535,1122.519685 L 2267.716535,1621.417323 L -2267.716535,1621.417323 L -2267.716535,1122.519685 z"
         style="fill:none;stroke:#000000"
         id="path6575" />
      <path
         d="M -2267.716535,1455.118110 L -2086.299213,1122.519685 L -1738.582677,1621.417323 L -1390.866142,1122.519685 L -1043.149606,1621.417323 L -695.433071,1122.519685 L -347.716535,1621.417323 L 0.000000,1122.519685 L 347.716535,1621.417323 L 695.433071,1122.519685 L 1043.149606,1621.417323 L 1390.866142,1122.519685 L 1738.582677,1621.417323 L 2086.299213,1122.519685 L 2267.716535,1455.118110"
         style="fill:none;stroke:#000000"
         id="path6577" />
      <path
         d="M -1983.345899,806.321218 L -1862.065316,920.045737 A 119.745165,119.745165 0.0 0 0 -1698.249652,920.045737 L -1576.969070,806.321218 A 56.692913,56.692913 0.0 0 0 -1559.055122,764.965707 L -1559.055122,493.228352 A 221.102362,221.102362 0.0 0 0 -2001.259846,493.228352 L -2001.259846,764.965707 A 56.692913,56.692913 0.0 0 0 -1983.345899,806.321218 z"
         style="fill:none;stroke:#000000"
         id="path6579" />
      <path
         d="M -1389.960072,806.321218 L -1268.679490,920.045737 A 119.745165,119.745165 0.0 0 0 -1104.863825,920.045737 L -983.583243,806.321218 A 56.692913,56.692913 0.0 0 0 -965.669295,764.965707 L -965.669295,493.228352 A 221.102362,221.102362 0.0 0 0 -1407.874020,493.228352 L -1407.874020,764.965707 A 56.692913,56.692913 0.0 0 0 -1389.960072,806.321218 z"
         style="fill:none;stroke:#000000"
         id="path6581" />
      <path
         d="M -796.574245,806.321218 L -675.293663,920.045737 A 119.745165,119.745165 0.0 0 0 -511.477999,920.045737 L -390.197416,806.321218 A 56.692913,56.692913 0.0 0 0 -372.283469,764.965707 L -372.283469,493.228352 A 221.102362,221.102362 0.0 0 0 -814.488193,493.228352 L -814.488193,764.965707 A 56.692913,56.692913 0.0 0 0 -796.574245,806.321218 z"
         style="fill:none;stroke:#000000"
         id="path6583" />
      <path
         d="M -203.188418,806.321218 L -81.907836,920.045737 A 119.745165,119.745165 0.0 0 0 81.907828,920.045737 L 203.188411,806.321218 A 56.692913,56.692913 0.0 0 0 221.102358,764.965707 L 221.102358,493.228352 A 221.102362,221.102362 0.0 0 0 -221.102366,493.228352 L -221.102366,764.965707 A 56.692913,56.692913 0.0 0 0 -203.188418,806.321218 z"
         style="fill:none;stroke:#000000"
         id="path6585" />
      <path
         d="M 390.197408,806.321218 L 511.477991,920.045737 A 119.745165,119.745165 0.0 0 0 675.293655,920.045737 L 796.574237,806.321218 A 56.692913,56.692913 0.0 0 0 814.488185,764.965707 L 814.488185,493.228352 A 221.102362,221.102362 0.0 0 0 372.283461,493.228352 L 372.283461,764.965707 A 56.692913,56.692913 0.0 0 0 390.197408,806.321218 z"
         style="fill:none;stroke:#000000"
         id="path6587" />
      <path
         d="M 983.583235,806.321218 L 1104.863817,920.045737 A 119.745165,119.745165 0.0 0 0 1268.679482,920.045737 L 1389.960064,806.321218 A 56.692913,56.692913 0.0 0 0 1407.874012,764.965707 L 1407.874012,493.228352 A 221.102362,221.102362 0.0 0 0 965.669287,493.228352 L 965.669287,764.965707 A 56.692913,56.692913 0.0 0 0 983.583235,806.321218 z"
         style="fill:none;stroke:#000000"
         id="path6589" />
      <path
         d="M 1576.969062,806.321218 L 1698.249644,920.045737 A 119.745165,119.745165 0.0 0 0 1862.065308,920.045737 L 1983.345891,806.321218 A 56.692913,56.692913 0.0 0 0 2001.259839,764.965707 L 2001.259839,493.228352 A 221.102362,221.102362 0.0 0 0 1559.055114,493.228352 L 1559.055114,764.965707 A 56.692913,56.692913 0.0 0 0 1576.969062,806.321218 z"
         style="fill:none;stroke:#000000"
         id="path6591" />
      <path
         d="M -2241.259846,1122.519691 L 2241.259839,1122.519691 L 2241.259839,1046.929140 L 2203.276993,667.100676 L 2152.631951,616.455634 L 2124.232433,332.460482 L 2165.669287,291.023628 L 2165.669287,139.842526 L -2165.669295,139.842526 L -2165.669295,291.023628 L -2124.232441,332.460482 L -2152.631959,616.455634 L -2203.277000,667.100676 L -2241.259846,1046.929140 L -2241.259846,1122.519691"
         style="fill:none;stroke:#000000"
         id="path6593" />
    </symbol>
    <symbol
       id="VBI_H260_DDRSN_GR">
      <path
         d="M -2267.716535,1455.118110 L -2086.299213,1122.519685 L -1738.582677,1621.417323 L -1390.866142,1122.519685 L -1043.149606,1621.417323 L -695.433071,1122.519685 L -347.716535,1621.417323 L 0.000000,1122.519685 L 347.716535,1621.417323 L 695.433071,1122.519685 L 1043.149606,1621.417323 L 1390.866142,1122.519685 L 1693.228346,1576.062992 L 1995.590551,1122.519685 L 2267.716535,1545.826772"
         style="fill:none;stroke:#000000"
         id="path6596" />
      <path
         d="M -2241.259843,1122.519685 L -2267.716535,1122.519685 L -2267.716535,1621.417323 L 1322.834646,1621.417323 L 1322.834646,1576.062992 L 2267.716535,1576.062992 L 2267.716535,1122.519685 L 2241.259843,1122.519685"
         style="fill:none;stroke:#000000"
         id="path6598" />
      <path
         style="fill:none;stroke:#FF0000"
         d="M 1845.92 1122.52 L 1897.32 1576.06"
         id="path6600" />
      <path
         style="fill:none;stroke:#FF0000"
         d="M 2161.89 1576.06 L 2170.96 1122.52"
         id="path6602" />
      <path
         d="M -1983.345899,806.321218 L -1862.065316,920.045737 A 119.745165,119.745165 0.0 0 0 -1698.249652,920.045737 L -1576.969070,806.321218 A 56.692913,56.692913 0.0 0 0 -1559.055122,764.965707 L -1559.055122,493.228352 A 221.102362,221.102362 0.0 0 0 -2001.259846,493.228352 L -2001.259846,764.965707 A 56.692913,56.692913 0.0 0 0 -1983.345899,806.321218 z"
         style="fill:none;stroke:#000000"
         id="path6604" />
      <path
         d="M -1389.960072,806.321218 L -1268.679490,920.045737 A 119.745165,119.745165 0.0 0 0 -1104.863825,920.045737 L -983.583243,806.321218 A 56.692913,56.692913 0.0 0 0 -965.669295,764.965707 L -965.669295,493.228352 A 221.102362,221.102362 0.0 0 0 -1407.874020,493.228352 L -1407.874020,764.965707 A 56.692913,56.692913 0.0 0 0 -1389.960072,806.321218 z"
         style="fill:none;stroke:#000000"
         id="path6606" />
      <path
         d="M -796.574245,806.321218 L -675.293663,920.045737 A 119.745165,119.745165 0.0 0 0 -511.477999,920.045737 L -390.197416,806.321218 A 56.692913,56.692913 0.0 0 0 -372.283469,764.965707 L -372.283469,493.228352 A 221.102362,221.102362 0.0 0 0 -814.488193,493.228352 L -814.488193,764.965707 A 56.692913,56.692913 0.0 0 0 -796.574245,806.321218 z"
         style="fill:none;stroke:#000000"
         id="path6608" />
      <path
         d="M -203.188418,806.321218 L -81.907836,920.045737 A 119.745165,119.745165 0.0 0 0 81.907828,920.045737 L 203.188411,806.321218 A 56.692913,56.692913 0.0 0 0 221.102358,764.965707 L 221.102358,493.228352 A 221.102362,221.102362 0.0 0 0 -221.102366,493.228352 L -221.102366,764.965707 A 56.692913,56.692913 0.0 0 0 -203.188418,806.321218 z"
         style="fill:none;stroke:#000000"
         id="path6610" />
      <path
         d="M 390.197408,806.321218 L 511.477991,920.045737 A 119.745165,119.745165 0.0 0 0 675.293655,920.045737 L 796.574237,806.321218 A 56.692913,56.692913 0.0 0 0 814.488185,764.965707 L 814.488185,493.228352 A 221.102362,221.102362 0.0 0 0 372.283461,493.228352 L 372.283461,764.965707 A 56.692913,56.692913 0.0 0 0 390.197408,806.321218 z"
         style="fill:none;stroke:#000000"
         id="path6612" />
      <path
         d="M 983.583235,806.321218 L 1104.863817,920.045737 A 119.745165,119.745165 0.0 0 0 1268.679482,920.045737 L 1389.960064,806.321218 A 56.692913,56.692913 0.0 0 0 1407.874012,764.965707 L 1407.874012,493.228352 A 221.102362,221.102362 0.0 0 0 965.669287,493.228352 L 965.669287,764.965707 A 56.692913,56.692913 0.0 0 0 983.583235,806.321218 z"
         style="fill:none;stroke:#000000"
         id="path6614" />
      <path
         d="M 1576.969062,806.321218 L 1698.249644,920.045737 A 119.745165,119.745165 0.0 0 0 1862.065308,920.045737 L 1983.345891,806.321218 A 56.692913,56.692913 0.0 0 0 2001.259839,764.965707 L 2001.259839,493.228352 A 221.102362,221.102362 0.0 0 0 1559.055114,493.228352 L 1559.055114,764.965707 A 56.692913,56.692913 0.0 0 0 1576.969062,806.321218 z"
         style="fill:none;stroke:#000000"
         id="path6616" />
      <path
         d="M -2241.259846,1122.519691 L 2241.259839,1122.519691 L 2241.259839,1046.929140 L 2203.276993,667.100676 L 2152.631951,616.455634 L 2124.232433,332.460482 L 2165.669287,291.023628 L 2165.669287,139.842526 L -2165.669295,139.842526 L -2165.669295,291.023628 L -2124.232441,332.460482 L -2152.631959,616.455634 L -2203.277000,667.100676 L -2241.259846,1046.929140 L -2241.259846,1122.519691"
         style="fill:none;stroke:#000000"
         id="path6618" />
    </symbol>
    <symbol
       id="VBI_H260_DDRSN_RO">
      <path
         d="M -2267.716538,1455.118110 L -2086.299216,1122.519685 L -1738.582680,1621.417323 L -1390.866145,1122.519685 L -1043.149609,1621.417323 L -695.433074,1122.519685 L -347.716538,1621.417323 L -0.000003,1122.519685 L 347.716532,1621.417323 L 695.433068,1122.519685 L 1043.149603,1621.417323 L 1390.866139,1122.519685 L 1700.787399,1583.622047"
         style="fill:none;stroke:#000000"
         id="path6621" />
      <path
         d="M -2248.818901,1122.519685 L -2267.716538,1122.519685 L -2267.716538,1621.417323 L 1700.787399,1621.417323 L 1700.787399,1122.519685"
         style="fill:none;stroke:#000000"
         id="path6623" />
      <path
         d="M -1983.345899,806.321218 L -1862.065316,920.045737 A 119.745165,119.745165 0.0 0 0 -1698.249652,920.045737 L -1576.969070,806.321218 A 56.692913,56.692913 0.0 0 0 -1559.055122,764.965707 L -1559.055122,493.228352 A 221.102362,221.102362 0.0 0 0 -2001.259846,493.228352 L -2001.259846,764.965707 A 56.692913,56.692913 0.0 0 0 -1983.345899,806.321218 z"
         style="fill:none;stroke:#000000"
         id="path6625" />
      <path
         d="M -1389.960072,806.321218 L -1268.679490,920.045737 A 119.745165,119.745165 0.0 0 0 -1104.863825,920.045737 L -983.583243,806.321218 A 56.692913,56.692913 0.0 0 0 -965.669295,764.965707 L -965.669295,493.228352 A 221.102362,221.102362 0.0 0 0 -1407.874020,493.228352 L -1407.874020,764.965707 A 56.692913,56.692913 0.0 0 0 -1389.960072,806.321218 z"
         style="fill:none;stroke:#000000"
         id="path6627" />
      <path
         d="M -796.574245,806.321218 L -675.293663,920.045737 A 119.745165,119.745165 0.0 0 0 -511.477999,920.045737 L -390.197416,806.321218 A 56.692913,56.692913 0.0 0 0 -372.283469,764.965707 L -372.283469,493.228352 A 221.102362,221.102362 0.0 0 0 -814.488193,493.228352 L -814.488193,764.965707 A 56.692913,56.692913 0.0 0 0 -796.574245,806.321218 z"
         style="fill:none;stroke:#000000"
         id="path6629" />
      <path
         d="M -203.188418,806.321218 L -81.907836,920.045737 A 119.745165,119.745165 0.0 0 0 81.907828,920.045737 L 203.188411,806.321218 A 56.692913,56.692913 0.0 0 0 221.102358,764.965707 L 221.102358,493.228352 A 221.102362,221.102362 0.0 0 0 -221.102366,493.228352 L -221.102366,764.965707 A 56.692913,56.692913 0.0 0 0 -203.188418,806.321218 z"
         style="fill:none;stroke:#000000"
         id="path6631" />
      <path
         d="M 390.197408,806.321218 L 511.477991,920.045737 A 119.745165,119.745165 0.0 0 0 675.293655,920.045737 L 796.574237,806.321218 A 56.692913,56.692913 0.0 0 0 814.488185,764.965707 L 814.488185,493.228352 A 221.102362,221.102362 0.0 0 0 372.283461,493.228352 L 372.283461,764.965707 A 56.692913,56.692913 0.0 0 0 390.197408,806.321218 z"
         style="fill:none;stroke:#000000"
         id="path6633" />
      <path
         d="M 983.583235,806.321218 L 1104.863817,920.045737 A 119.745165,119.745165 0.0 0 0 1268.679482,920.045737 L 1389.960064,806.321218 A 56.692913,56.692913 0.0 0 0 1407.874012,764.965707 L 1407.874012,493.228352 A 221.102362,221.102362 0.0 0 0 965.669287,493.228352 L 965.669287,764.965707 A 56.692913,56.692913 0.0 0 0 983.583235,806.321218 z"
         style="fill:none;stroke:#000000"
         id="path6635" />
      <path
         d="M 1576.969062,806.321218 L 1698.249644,920.045737 A 119.745165,119.745165 0.0 0 0 1862.065308,920.045737 L 1983.345891,806.321218 A 56.692913,56.692913 0.0 0 0 2001.259839,764.965707 L 2001.259839,493.228352 A 221.102362,221.102362 0.0 0 0 1559.055114,493.228352 L 1559.055114,764.965707 A 56.692913,56.692913 0.0 0 0 1576.969062,806.321218 z"
         style="fill:none;stroke:#000000"
         id="path6637" />
      <path
         d="M -2241.259846,1122.519691 L 2241.259839,1122.519691 L 2241.259839,1046.929140 L 2203.276993,667.100676 L 2152.631951,616.455634 L 2124.232433,332.460482 L 2165.669287,291.023628 L 2165.669287,139.842526 L -2165.669295,139.842526 L -2165.669295,291.023628 L -2124.232441,332.460482 L -2152.631959,616.455634 L -2203.277000,667.100676 L -2241.259846,1046.929140 L -2241.259846,1122.519691"
         style="fill:none;stroke:#000000"
         id="path6639" />
    </symbol>
  </defs>
  <g
     inkscape:groupmode="layer"
     inkscape:label="0"
     id="g6644" />
  <g
     inkscape:groupmode="layer"
     inkscape:label="insulation"
     id="g6666">
    <path
       d="M 0.000000,623.622047 L 4535.433071,623.622047 L 4535.433071,1122.519685 L 0.000000,1122.519685 L 0.000000,623.622047 z"
       style="fill:#ffffff;stroke:#000000;fill-opacity:1"
       id="path6664" />
  </g>
  <g
     inkscape:groupmode="layer"
     inkscape:label="concrete"
     id="g6662"
     style="display:inline">
    <path
       id="path6660"
       style="fill:#c0c0c0;fill-opacity:1;stroke:#000000;opacity:1"
       d="M 102.04688 -359.05469 L 102.04688 -207.87305 L 143.48438 -166.4375 L 115.08398 117.55859 L 64.439453 168.20312 L 26.457031 548.03125 L 26.457031 623.62109 L 4508.9766 623.62109 L 4508.9766 548.03125 L 4470.9941 168.20312 L 4420.3477 117.55859 L 4391.9492 -166.4375 L 4433.3867 -207.87305 L 4433.3867 -359.05469 L 102.04688 -359.05469 z M 487.55859 -226.77148 A 221.10236 221.10236 0 0 1 708.66211 -5.6699219 L 708.66211 266.06836 A 56.692913 56.692913 0 0 1 690.74805 307.42383 L 569.4668 421.14844 A 119.74517 119.74517 0 0 1 405.65039 421.14844 L 284.37109 307.42383 A 56.692913 56.692913 0 0 1 266.45703 266.06836 L 266.45703 -5.6699219 A 221.10236 221.10236 0 0 1 487.55859 -226.77148 z M 1674.3301 -226.77148 A 221.1024 221.1024 0 0 1 1895.4336 -5.6699219 L 1895.4336 266.06836 A 56.692913 56.692913 0 0 1 1877.5195 307.42383 L 1756.2383 421.14844 A 119.74517 119.74517 0 0 1 1592.4238 421.14844 L 1471.1426 307.42383 A 56.692913 56.692913 0 0 1 1453.2285 266.06836 L 1453.2285 -5.6699219 A 221.1024 221.1024 0 0 1 1674.3301 -226.77148 z M 2267.7168 -226.70508 A 221.10236 221.10236 0 0 1 2488.8184 -5.6699219 L 2488.8184 266.06836 A 56.692913 56.692913 0 0 1 2470.9043 307.42383 L 2349.625 421.14844 A 119.74517 119.74517 0 0 1 2185.8086 421.14844 L 2064.5273 307.42383 A 56.692913 56.692913 0 0 1 2046.6133 266.06836 L 2046.6133 -5.6699219 A 221.10236 221.10236 0 0 1 2267.7168 -226.70508 z M 2861.1016 -226.70508 A 221.10236 221.10236 0 0 1 3082.2051 -5.6699219 L 3082.2051 266.06836 A 56.692913 56.692913 0 0 1 3064.291 307.42383 L 2943.0098 421.14844 A 119.74517 119.74517 0 0 1 2779.1953 421.14844 L 2657.9141 307.42383 A 56.692913 56.692913 0 0 1 2640 266.06836 L 2640 -5.6699219 A 221.10236 221.10236 0 0 1 2861.1016 -226.70508 z M 3454.4883 -226.70508 A 221.10236 221.10236 0 0 1 3675.5898 -5.6699219 L 3675.5898 266.06836 A 56.692913 56.692913 0 0 1 3657.6758 307.42383 L 3536.3965 421.14844 A 119.74517 119.74517 0 0 1 3372.5801 421.14844 L 3251.2988 307.42383 A 56.692913 56.692913 0 0 1 3233.3867 266.06836 L 3233.3867 -5.6699219 A 221.10236 221.10236 0 0 1 3454.4883 -226.70508 z M 4047.875 -226.70508 A 221.10236 221.10236 0 0 1 4268.9766 -5.6699219 L 4268.9766 266.06836 A 56.692913 56.692913 0 0 1 4251.0625 307.42383 L 4129.7812 421.14844 A 119.74517 119.74517 0 0 1 3965.9668 421.14844 L 3844.6855 307.42383 A 56.692913 56.692913 0 0 1 3826.7715 266.06836 L 3826.7715 -5.6699219 A 221.10236 221.10236 0 0 1 4047.875 -226.70508 z M 1080.9453 -226.67773 A 221.10236 221.10236 0 0 1 1302.0469 -5.6699219 L 1302.0469 266.06836 A 56.692913 56.692913 0 0 1 1284.1328 307.42383 L 1162.8535 421.14844 A 119.74517 119.74517 0 0 1 999.03711 421.14844 L 877.75586 307.42383 A 56.692913 56.692913 0 0 1 859.8418 266.06836 L 859.8418 -5.6699219 A 221.10236 221.10236 0 0 1 1080.9453 -226.67773 z " />
  </g>
</svg>
