<?xml version="1.0" encoding="UTF-8" standalone="no"?>
<svg
   viewBox="0 0 793.7007874015749 1122.5196850393702"
   width="793.7007874015749"
   height="1122.5196850393702"
   version="1.1"
   id="svg29780"
   sodipodi:docname="Q260.svg"
   inkscape:version="1.2.2 (732a01da63, 2022-12-09)"
   xmlns:inkscape="http://www.inkscape.org/namespaces/inkscape"
   xmlns:sodipodi="http://sodipodi.sourceforge.net/DTD/sodipodi-0.dtd"
   xmlns="http://www.w3.org/2000/svg"
   xmlns:svg="http://www.w3.org/2000/svg">
  <sodipodi:namedview
     id="namedview29782"
     pagecolor="#ffffff"
     bordercolor="#000000"
     borderopacity="0.25"
     inkscape:showpageshadow="2"
     inkscape:pageopacity="0.0"
     inkscape:pagecheckerboard="0"
     inkscape:deskcolor="#d1d1d1"
     showgrid="false"
     inkscape:zoom="0.36976785"
     inkscape:cx="1310.2816"
     inkscape:cy="424.59072"
     inkscape:window-width="3440"
     inkscape:window-height="1377"
     inkscape:window-x="-8"
     inkscape:window-y="-8"
     inkscape:window-maximized="1"
     inkscape:current-layer="g29778" />
  <desc
     id="desc29658">Q260.dxf - scale = 1.000000, origin = (0.000000, 0.000000), method = manual</desc>
  <defs
     id="defs29754">
    <marker
       id="DistanceX"
       orient="auto"
       refX="0.0"
       refY="0.0"
       style="overflow:visible">
      <path
         d="M 3,-3 L -3,3 M 0,-5 L  0,5"
         style="stroke:#000000; stroke-width:0.5"
         id="path29660" />
    </marker>
    <pattern
       id="Hatch"
       patternUnits="userSpaceOnUse"
       width="8"
       height="8"
       x="0"
       y="0">
      <path
         d="M8 4 l-4,4"
         stroke="#000000"
         stroke-width="0.25"
         linecap="square"
         id="path29663" />
      <path
         d="M6 2 l-4,4"
         stroke="#000000"
         stroke-width="0.25"
         linecap="square"
         id="path29665" />
      <path
         d="M4 0 l-4,4"
         stroke="#000000"
         stroke-width="0.25"
         linecap="square"
         id="path29667" />
    </pattern>
    <symbol
       id="*Model_Space" />
    <symbol
       id="*Paper_Space" />
    <symbol
       id="$MODEL_SPACE" />
    <symbol
       id="$PAPER_SPACE" />
    <symbol
       id="DIMDOT">
      <path
         style="fill:none;stroke:#000000"
         d="M -7.55905 1122.52 L 7.55905 1122.52"
         id="path29674" />
      <path
         style="fill:none;stroke:#000000"
         d="M 0 1135.75 L 0 1109.29"
         id="path29676" />
      <path
         d="M 1.889764,1122.519685 A 1.889764,1.889764 0.000000 0, 0 -1.889764,1122.519685 A 1.889764,1.889764 0.000000 0, 0 1.889764,1122.519685 z"
         style="fill:none;stroke:#000000"
         id="path29678" />
      <path
         d="M 0.944882,1122.519685 A 0.944882,0.944882 0.000000 0, 0 -0.944882,1122.519685 A 0.944882,0.944882 0.000000 0, 0 0.944882,1122.519685 z"
         style="fill:none;stroke:#000000"
         id="path29680" />
    </symbol>
    <symbol
       id="VBI_Q260_DDRSN_NP">
      <path
         d="M 2267.716535,1122.519685 L 2241.259843,1122.519685 L 2241.259843,1046.929134 L 2203.276993,667.100676 L 2152.631951,616.455634 L 2124.232433,332.460482 L 2165.669287,291.023628 L 2165.669291,139.842526 L 2263.937008,139.842526 L 2369.763776,139.842526 L 2369.763776,291.023628 L 2411.200630,332.460482 L 2382.801112,616.455634 L 2332.156070,667.100676 L 2294.173228,1046.929134 L 2294.173228,1122.519685 L 2267.716535,1122.519685 z"
         style="fill:none;stroke:#FF0000"
         id="path29683" />
      <path
         d="M -1983.345899,806.321218 L -1862.065316,920.045737 A 119.745165,119.745165 0.0 0 0 -1698.249652,920.045737 L -1576.969070,806.321218 A 56.692913,56.692913 0.0 0 0 -1559.055122,764.965707 L -1559.055122,493.228352 A 221.102362,221.102362 0.0 0 0 -2001.259846,493.228352 L -2001.259846,764.965707 A 56.692913,56.692913 0.0 0 0 -1983.345899,806.321218 z"
         style="fill:none;stroke:#000000"
         id="path29685" />
      <path
         d="M -1389.960072,806.321218 L -1268.679490,920.045737 A 119.745165,119.745165 0.0 0 0 -1104.863825,920.045737 L -983.583243,806.321218 A 56.692913,56.692913 0.0 0 0 -965.669295,764.965707 L -965.669295,493.228352 A 221.102362,221.102362 0.0 0 0 -1407.874020,493.228352 L -1407.874020,764.965707 A 56.692913,56.692913 0.0 0 0 -1389.960072,806.321218 z"
         style="fill:none;stroke:#000000"
         id="path29687" />
      <path
         d="M -796.574245,806.321218 L -675.293663,920.045737 A 119.745165,119.745165 0.0 0 0 -511.477999,920.045737 L -390.197416,806.321218 A 56.692913,56.692913 0.0 0 0 -372.283469,764.965707 L -372.283469,493.228352 A 221.102362,221.102362 0.0 0 0 -814.488193,493.228352 L -814.488193,764.965707 A 56.692913,56.692913 0.0 0 0 -796.574245,806.321218 z"
         style="fill:none;stroke:#000000"
         id="path29689" />
      <path
         d="M -203.188418,806.321218 L -81.907836,920.045737 A 119.745165,119.745165 0.0 0 0 81.907828,920.045737 L 203.188411,806.321218 A 56.692913,56.692913 0.0 0 0 221.102358,764.965707 L 221.102358,493.228352 A 221.102362,221.102362 0.0 0 0 -221.102366,493.228352 L -221.102366,764.965707 A 56.692913,56.692913 0.0 0 0 -203.188418,806.321218 z"
         style="fill:none;stroke:#000000"
         id="path29691" />
      <path
         d="M 390.197408,806.321218 L 511.477991,920.045737 A 119.745165,119.745165 0.0 0 0 675.293655,920.045737 L 796.574237,806.321218 A 56.692913,56.692913 0.0 0 0 814.488185,764.965707 L 814.488185,493.228352 A 221.102362,221.102362 0.0 0 0 372.283461,493.228352 L 372.283461,764.965707 A 56.692913,56.692913 0.0 0 0 390.197408,806.321218 z"
         style="fill:none;stroke:#000000"
         id="path29693" />
      <path
         d="M 983.583235,806.321218 L 1104.863817,920.045737 A 119.745165,119.745165 0.0 0 0 1268.679482,920.045737 L 1389.960064,806.321218 A 56.692913,56.692913 0.0 0 0 1407.874012,764.965707 L 1407.874012,493.228352 A 221.102362,221.102362 0.0 0 0 965.669287,493.228352 L 965.669287,764.965707 A 56.692913,56.692913 0.0 0 0 983.583235,806.321218 z"
         style="fill:none;stroke:#000000"
         id="path29695" />
      <path
         d="M 1576.969062,806.321218 L 1698.249644,920.045737 A 119.745165,119.745165 0.0 0 0 1862.065308,920.045737 L 1983.345891,806.321218 A 56.692913,56.692913 0.0 0 0 2001.259839,764.965707 L 2001.259839,493.228352 A 221.102362,221.102362 0.0 0 0 1559.055114,493.228352 L 1559.055114,764.965707 A 56.692913,56.692913 0.0 0 0 1576.969062,806.321218 z"
         style="fill:none;stroke:#000000"
         id="path29697" />
      <path
         d="M -2241.259846,1122.519691 L 2241.259839,1122.519691 L 2241.259839,1046.929140 L 2203.276993,667.100676 L 2152.631951,616.455634 L 2124.232433,332.460482 L 2165.669287,291.023628 L 2165.669287,139.842526 L -2165.669295,139.842526 L -2165.669295,291.023628 L -2124.232441,332.460482 L -2152.631959,616.455634 L -2203.277000,667.100676 L -2241.259846,1046.929140 L -2241.259846,1122.519691"
         style="fill:none;stroke:#000000"
         id="path29699" />
      <path
         d="M 2267.716531,1122.519691 L 2267.716531,1697.007880 L -2267.716539,1697.007880 L -2267.716539,1122.519691 L 2267.716531,1122.519691"
         style="fill:none;stroke:#000000;stroke-linecap: round"
         id="path29701" />
      <path
         d="M 2267.716531,1296.899953 L 2139.225812,1122.519691 L 1548.823823,1697.007880 L 958.421834,1122.519691 L 368.019844,1697.007880 L -222.382145,1122.519691 L -812.784134,1697.007880 L -1403.186123,1122.519691 L -1993.588113,1697.007880 L -2267.716539,1400.566995"
         style="fill:none;stroke:#000000"
         id="path29703" />
    </symbol>
    <symbol
       id="VBI_Q260_DDRSN_GR">
      <path
         d="M -1983.345899,806.321218 L -1862.065316,920.045737 A 119.745165,119.745165 0.0 0 0 -1698.249652,920.045737 L -1576.969070,806.321218 A 56.692913,56.692913 0.0 0 0 -1559.055122,764.965707 L -1559.055122,493.228352 A 221.102362,221.102362 0.0 0 0 -2001.259846,493.228352 L -2001.259846,764.965707 A 56.692913,56.692913 0.0 0 0 -1983.345899,806.321218 z"
         style="fill:none;stroke:#000000"
         id="path29706" />
      <path
         d="M -1389.960072,806.321218 L -1268.679490,920.045737 A 119.745165,119.745165 0.0 0 0 -1104.863825,920.045737 L -983.583243,806.321218 A 56.692913,56.692913 0.0 0 0 -965.669295,764.965707 L -965.669295,493.228352 A 221.102362,221.102362 0.0 0 0 -1407.874020,493.228352 L -1407.874020,764.965707 A 56.692913,56.692913 0.0 0 0 -1389.960072,806.321218 z"
         style="fill:none;stroke:#000000"
         id="path29708" />
      <path
         d="M -796.574245,806.321218 L -675.293663,920.045737 A 119.745165,119.745165 0.0 0 0 -511.477999,920.045737 L -390.197416,806.321218 A 56.692913,56.692913 0.0 0 0 -372.283469,764.965707 L -372.283469,493.228352 A 221.102362,221.102362 0.0 0 0 -814.488193,493.228352 L -814.488193,764.965707 A 56.692913,56.692913 0.0 0 0 -796.574245,806.321218 z"
         style="fill:none;stroke:#000000"
         id="path29710" />
      <path
         d="M -203.188418,806.321218 L -81.907836,920.045737 A 119.745165,119.745165 0.0 0 0 81.907828,920.045737 L 203.188411,806.321218 A 56.692913,56.692913 0.0 0 0 221.102358,764.965707 L 221.102358,493.228352 A 221.102362,221.102362 0.0 0 0 -221.102366,493.228352 L -221.102366,764.965707 A 56.692913,56.692913 0.0 0 0 -203.188418,806.321218 z"
         style="fill:none;stroke:#000000"
         id="path29712" />
      <path
         d="M 390.197408,806.321218 L 511.477991,920.045737 A 119.745165,119.745165 0.0 0 0 675.293655,920.045737 L 796.574237,806.321218 A 56.692913,56.692913 0.0 0 0 814.488185,764.965707 L 814.488185,493.228352 A 221.102362,221.102362 0.0 0 0 372.283461,493.228352 L 372.283461,764.965707 A 56.692913,56.692913 0.0 0 0 390.197408,806.321218 z"
         style="fill:none;stroke:#000000"
         id="path29714" />
      <path
         d="M 983.583235,806.321218 L 1104.863817,920.045737 A 119.745165,119.745165 0.0 0 0 1268.679482,920.045737 L 1389.960064,806.321218 A 56.692913,56.692913 0.0 0 0 1407.874012,764.965707 L 1407.874012,493.228352 A 221.102362,221.102362 0.0 0 0 965.669287,493.228352 L 965.669287,764.965707 A 56.692913,56.692913 0.0 0 0 983.583235,806.321218 z"
         style="fill:none;stroke:#000000"
         id="path29716" />
      <path
         d="M 1576.969062,806.321218 L 1698.249644,920.045737 A 119.745165,119.745165 0.0 0 0 1862.065308,920.045737 L 1983.345891,806.321218 A 56.692913,56.692913 0.0 0 0 2001.259839,764.965707 L 2001.259839,493.228352 A 221.102362,221.102362 0.0 0 0 1559.055114,493.228352 L 1559.055114,764.965707 A 56.692913,56.692913 0.0 0 0 1576.969062,806.321218 z"
         style="fill:none;stroke:#000000"
         id="path29718" />
      <path
         d="M -2241.259846,1122.519691 L 2241.259839,1122.519691 L 2241.259839,1046.929140 L 2203.276993,667.100676 L 2152.631951,616.455634 L 2124.232433,332.460482 L 2165.669287,291.023628 L 2165.669287,139.842526 L -2165.669295,139.842526 L -2165.669295,291.023628 L -2124.232441,332.460482 L -2152.631959,616.455634 L -2203.277000,667.100676 L -2241.259846,1046.929140 L -2241.259846,1122.519691"
         style="fill:none;stroke:#000000"
         id="path29720" />
      <path
         style="fill:none;stroke:#FF0000"
         d="M 2155.09 1651.65 L 2177.76 1122.52"
         id="path29722" />
      <path
         style="fill:none;stroke:#FF0000"
         d="M 1807.37 1122.52 L 1890.52 1651.65"
         id="path29724" />
      <path
         d="M 2267.716531,1122.519691 L -2267.716539,1122.519691 L -2267.716539,1697.007880 L 1322.834642,1697.007880 L 1322.834642,1651.653549 L 2267.716531,1651.653549 L 2267.716531,1122.519691"
         style="fill:none;stroke:#000000"
         id="path29726" />
      <path
         d="M 2267.716531,1387.608615 L 2072.387851,1122.519691 L 1515.404842,1651.653549"
         style="fill:none;stroke:#000000"
         id="path29728" />
      <path
         d="M 1515.404842,1651.653549 L 958.421834,1122.519691 L 368.019844,1697.007880 L -222.382145,1122.519691 L -812.784134,1697.007880 L -1403.186123,1122.519691 L -1993.588113,1697.007880 L -2267.716539,1400.566995"
         style="fill:none;stroke:#000000"
         id="path29730" />
    </symbol>
    <symbol
       id="VBI_Q260_DDRSN_RO">
      <path
         d="M -1983.345895,806.321212 L -1862.065312,920.045731 A 119.745165,119.745165 0.0 0 0 -1698.249648,920.045731 L -1576.969066,806.321212 A 56.692913,56.692913 0.0 0 0 -1559.055118,764.965701 L -1559.055118,493.228346 A 221.102362,221.102362 0.0 0 0 -2001.259843,493.228346 L -2001.259843,764.965701 A 56.692913,56.692913 0.0 0 0 -1983.345895,806.321212 z"
         style="fill:none;stroke:#000000"
         id="path29733" />
      <path
         d="M -1389.960068,806.321212 L -1268.679486,920.045731 A 119.745165,119.745165 0.0 0 0 -1104.863821,920.045731 L -983.583239,806.321212 A 56.692913,56.692913 0.0 0 0 -965.669291,764.965701 L -965.669291,493.228346 A 221.102362,221.102362 0.0 0 0 -1407.874016,493.228346 L -1407.874016,764.965701 A 56.692913,56.692913 0.0 0 0 -1389.960068,806.321212 z"
         style="fill:none;stroke:#000000"
         id="path29735" />
      <path
         d="M -796.574241,806.321212 L -675.293659,920.045731 A 119.745165,119.745165 0.0 0 0 -511.477995,920.045731 L -390.197412,806.321212 A 56.692913,56.692913 0.0 0 0 -372.283465,764.965701 L -372.283465,493.228346 A 221.102362,221.102362 0.0 0 0 -814.488189,493.228346 L -814.488189,764.965701 A 56.692913,56.692913 0.0 0 0 -796.574241,806.321212 z"
         style="fill:none;stroke:#000000"
         id="path29737" />
      <path
         d="M -203.188415,806.321212 L -81.907832,920.045731 A 119.745165,119.745165 0.0 0 0 81.907832,920.045731 L 203.188415,806.321212 A 56.692913,56.692913 0.0 0 0 221.102362,764.965701 L 221.102362,493.228346 A 221.102362,221.102362 0.0 0 0 -221.102362,493.228346 L -221.102362,764.965701 A 56.692913,56.692913 0.0 0 0 -203.188415,806.321212 z"
         style="fill:none;stroke:#000000"
         id="path29739" />
      <path
         d="M 390.197412,806.321212 L 511.477995,920.045731 A 119.745165,119.745165 0.0 0 0 675.293659,920.045731 L 796.574241,806.321212 A 56.692913,56.692913 0.0 0 0 814.488189,764.965701 L 814.488189,493.228346 A 221.102362,221.102362 0.0 0 0 372.283465,493.228346 L 372.283465,764.965701 A 56.692913,56.692913 0.0 0 0 390.197412,806.321212 z"
         style="fill:none;stroke:#000000"
         id="path29741" />
      <path
         d="M 983.583239,806.321212 L 1104.863821,920.045731 A 119.745165,119.745165 0.0 0 0 1268.679486,920.045731 L 1389.960068,806.321212 A 56.692913,56.692913 0.0 0 0 1407.874016,764.965701 L 1407.874016,493.228346 A 221.102362,221.102362 0.0 0 0 965.669291,493.228346 L 965.669291,764.965701 A 56.692913,56.692913 0.0 0 0 983.583239,806.321212 z"
         style="fill:none;stroke:#000000"
         id="path29743" />
      <path
         d="M 1576.969066,806.321212 L 1698.249648,920.045731 A 119.745165,119.745165 0.0 0 0 1862.065312,920.045731 L 1983.345895,806.321212 A 56.692913,56.692913 0.0 0 0 2001.259843,764.965701 L 2001.259843,493.228346 A 221.102362,221.102362 0.0 0 0 1559.055118,493.228346 L 1559.055118,764.965701 A 56.692913,56.692913 0.0 0 0 1576.969066,806.321212 z"
         style="fill:none;stroke:#000000"
         id="path29745" />
      <path
         d="M -2241.259843,1122.519685 L 2241.259843,1122.519685 L 2241.259843,1046.929134 L 2203.276997,667.100670 L 2152.631955,616.455628 L 2124.232437,332.460476 L 2165.669291,291.023622 L 2165.669291,139.842520 L -2165.669291,139.842520 L -2165.669291,291.023622 L -2124.232437,332.460476 L -2152.631955,616.455628 L -2203.276997,667.100670 L -2241.259843,1046.929134 L -2241.259843,1122.519685"
         style="fill:none;stroke:#000000"
         id="path29747" />
      <path
         d="M 1700.787401,1122.519685 L 1700.787401,1697.007874 L -2267.716535,1697.007874 L -2267.716535,1122.519685 L 2267.716535,1122.519685"
         style="fill:none;stroke:#000000;stroke-linecap: round"
         id="path29749" />
      <path
         d="M 1700.787401,1486.992066 L 1548.823827,1697.007874 L 958.421838,1122.519685 L 368.019848,1697.007874 L -222.382141,1122.519685 L -812.784130,1697.007874 L -1403.186119,1122.519685 L -1993.588109,1697.007874 L -2267.716535,1321.196910"
         style="fill:none;stroke:#000000"
         id="path29751" />
    </symbol>
  </defs>
  <g
     inkscape:groupmode="layer"
     inkscape:label="0"
     id="g29756" />
  <g
     inkscape:groupmode="layer"
     inkscape:label="concrete"
     id="g29774">
    <path
       id="path29772"
       style="fill:#c0c0c0;stroke:#000000;fill-opacity:1"
       d="M 102.04688 -434.64648 L 102.04688 -283.46484 L 143.48438 -242.02734 L 115.08398 41.966797 L 64.439453 92.613281 L 26.457031 472.44141 L 26.457031 548.03125 L 4508.9766 548.03125 L 4508.9766 472.44141 L 4470.9941 92.613281 L 4420.3477 41.966797 L 4391.9492 -242.02734 L 4433.3867 -283.46484 L 4433.3867 -434.64648 L 102.04688 -434.64648 z M 487.55859 -302.36133 A 221.10236 221.10236 0 0 1 708.66211 -81.259766 L 708.66211 190.47656 A 56.692913 56.692913 0 0 1 690.74805 231.83398 L 569.4668 345.55664 A 119.74517 119.74517 0 0 1 405.65039 345.55664 L 284.37109 231.83398 A 56.692913 56.692913 0 0 1 266.45703 190.47656 L 266.45703 -81.259766 A 221.10236 221.10236 0 0 1 487.55859 -302.36133 z M 1080.9453 -302.36133 A 221.10236 221.10236 0 0 1 1302.0469 -81.259766 L 1302.0469 190.47656 A 56.692913 56.692913 0 0 1 1284.1328 231.83398 L 1162.8535 345.55664 A 119.74517 119.74517 0 0 1 999.03711 345.55664 L 877.75586 231.83398 A 56.692913 56.692913 0 0 1 859.8418 190.47656 L 859.8418 -81.259766 A 221.10236 221.10236 0 0 1 1080.9453 -302.36133 z M 1674.3301 -302.36133 A 221.10236 221.10236 0 0 1 1895.4336 -81.259766 L 1895.4336 190.47656 A 56.692913 56.692913 0 0 1 1877.5195 231.83398 L 1756.2383 345.55664 A 119.74517 119.74517 0 0 1 1592.4238 345.55664 L 1471.1426 231.83398 A 56.692913 56.692913 0 0 1 1453.2285 190.47656 L 1453.2285 -81.259766 A 221.10236 221.10236 0 0 1 1674.3301 -302.36133 z M 2267.7168 -302.36133 A 221.10236 221.10236 0 0 1 2488.8184 -81.259766 L 2488.8184 190.47656 A 56.692913 56.692913 0 0 1 2470.9043 231.83398 L 2349.625 345.55664 A 119.74517 119.74517 0 0 1 2185.8086 345.55664 L 2064.5273 231.83398 A 56.692913 56.692913 0 0 1 2046.6133 190.47656 L 2046.6133 -81.259766 A 221.10236 221.10236 0 0 1 2267.7168 -302.36133 z M 2861.1016 -302.36133 A 221.10236 221.10236 0 0 1 3082.2051 -81.259766 L 3082.2051 190.47656 A 56.692913 56.692913 0 0 1 3064.291 231.83398 L 2943.0098 345.55664 A 119.74517 119.74517 0 0 1 2779.1953 345.55664 L 2657.9141 231.83398 A 56.692913 56.692913 0 0 1 2640 190.47656 L 2640 -81.259766 A 221.10236 221.10236 0 0 1 2861.1016 -302.36133 z M 3454.4883 -302.36133 A 221.10236 221.10236 0 0 1 3675.5898 -81.259766 L 3675.5898 190.47656 A 56.692913 56.692913 0 0 1 3657.6758 231.83398 L 3536.3965 345.55664 A 119.74517 119.74517 0 0 1 3372.5801 345.55664 L 3251.2988 231.83398 A 56.692913 56.692913 0 0 1 3233.3867 190.47656 L 3233.3867 -81.259766 A 221.10236 221.10236 0 0 1 3454.4883 -302.36133 z M 4047.873 -302.36133 A 221.10236 221.10236 0 0 1 4268.9766 -81.259766 L 4268.9766 190.47656 A 56.692913 56.692913 0 0 1 4251.0625 231.83398 L 4129.7812 345.55664 A 119.74517 119.74517 0 0 1 3965.9668 345.55664 L 3844.6855 231.83398 A 56.692913 56.692913 0 0 1 3826.7715 190.47656 L 3826.7715 -81.259766 A 221.10236 221.10236 0 0 1 4047.873 -302.36133 z " />
  </g>
  <g
     inkscape:groupmode="layer"
     inkscape:label="insulation"
     id="g29778">
    <path
       d="M 4535.433071,548.031496 L 4535.433071,1122.519685 L 0.000000,1122.519685 L 0.000000,548.031496 L 4535.433071,548.031496"
       style="fill:#ffffff;stroke:#000000;stroke-linecap:round;fill-opacity:1"
       id="path29776" />
  </g>
</svg>
