<?xml version="1.0" encoding="UTF-8" standalone="no"?>
<svg
   viewBox="0 0 793.7007874015749 1122.5196850393702"
   width="793.7007874015749"
   height="1122.5196850393702"
   version="1.1"
   id="svg36145"
   sodipodi:docname="T260.svg"
   inkscape:version="1.2.2 (732a01da63, 2022-12-09)"
   xmlns:inkscape="http://www.inkscape.org/namespaces/inkscape"
   xmlns:sodipodi="http://sodipodi.sourceforge.net/DTD/sodipodi-0.dtd"
   xmlns="http://www.w3.org/2000/svg"
   xmlns:svg="http://www.w3.org/2000/svg">
  <sodipodi:namedview
     id="namedview36147"
     pagecolor="#ffffff"
     bordercolor="#000000"
     borderopacity="0.25"
     inkscape:showpageshadow="2"
     inkscape:pageopacity="0.0"
     inkscape:pagecheckerboard="0"
     inkscape:deskcolor="#d1d1d1"
     showgrid="false"
     inkscape:zoom="0.36976785"
     inkscape:cx="1118.2692"
     inkscape:cy="408.36433"
     inkscape:window-width="3440"
     inkscape:window-height="1377"
     inkscape:window-x="-8"
     inkscape:window-y="-8"
     inkscape:window-maximized="1"
     inkscape:current-layer="g36139" />
  <desc
     id="desc36002">T260.dxf - scale = 1.000000, origin = (0.000000, 0.000000), method = manual</desc>
  <defs
     id="defs36119">
    <marker
       id="DistanceX"
       orient="auto"
       refX="0.0"
       refY="0.0"
       style="overflow:visible">
      <path
         d="M 3,-3 L -3,3 M 0,-5 L  0,5"
         style="stroke:#000000; stroke-width:0.5"
         id="path36004" />
    </marker>
    <pattern
       id="Hatch"
       patternUnits="userSpaceOnUse"
       width="8"
       height="8"
       x="0"
       y="0">
      <path
         d="M8 4 l-4,4"
         stroke="#000000"
         stroke-width="0.25"
         linecap="square"
         id="path36007" />
      <path
         d="M6 2 l-4,4"
         stroke="#000000"
         stroke-width="0.25"
         linecap="square"
         id="path36009" />
      <path
         d="M4 0 l-4,4"
         stroke="#000000"
         stroke-width="0.25"
         linecap="square"
         id="path36011" />
    </pattern>
    <symbol
       id="*Model_Space" />
    <symbol
       id="*Paper_Space" />
    <symbol
       id="$MODEL_SPACE" />
    <symbol
       id="$PAPER_SPACE" />
    <symbol
       id="DIMDOT">
      <path
         style="fill:none;stroke:#000000"
         d="M -7.55905 1122.52 L 7.55905 1122.52"
         id="path36018" />
      <path
         style="fill:none;stroke:#000000"
         d="M 0 1135.75 L 0 1109.29"
         id="path36020" />
      <path
         d="M 1.889764,1122.519685 A 1.889764,1.889764 0.000000 0, 0 -1.889764,1122.519685 A 1.889764,1.889764 0.000000 0, 0 1.889764,1122.519685 z"
         style="fill:none;stroke:#000000"
         id="path36022" />
      <path
         d="M 0.944882,1122.519685 A 0.944882,0.944882 0.000000 0, 0 -0.944882,1122.519685 A 0.944882,0.944882 0.000000 0, 0 0.944882,1122.519685 z"
         style="fill:none;stroke:#000000"
         id="path36024" />
    </symbol>
    <symbol
       id="VBI_T260_DDRSN_GR">
      <path
         d="M -1983.345899,806.321218 L -1862.065316,920.045737 A 119.745165,119.745165 0.0 0 0 -1698.249652,920.045737 L -1576.969070,806.321218 A 56.692913,56.692913 0.0 0 0 -1559.055122,764.965707 L -1559.055122,493.228352 A 221.102362,221.102362 0.0 0 0 -2001.259846,493.228352 L -2001.259846,764.965707 A 56.692913,56.692913 0.0 0 0 -1983.345899,806.321218 z"
         style="fill:none;stroke:#000000"
         id="path36027" />
      <path
         d="M -1389.960072,806.321218 L -1268.679490,920.045737 A 119.745165,119.745165 0.0 0 0 -1104.863825,920.045737 L -983.583243,806.321218 A 56.692913,56.692913 0.0 0 0 -965.669295,764.965707 L -965.669295,493.228352 A 221.102362,221.102362 0.0 0 0 -1407.874020,493.228352 L -1407.874020,764.965707 A 56.692913,56.692913 0.0 0 0 -1389.960072,806.321218 z"
         style="fill:none;stroke:#000000"
         id="path36029" />
      <path
         d="M -796.574245,806.321218 L -675.293663,920.045737 A 119.745165,119.745165 0.0 0 0 -511.477999,920.045737 L -390.197416,806.321218 A 56.692913,56.692913 0.0 0 0 -372.283469,764.965707 L -372.283469,493.228352 A 221.102362,221.102362 0.0 0 0 -814.488193,493.228352 L -814.488193,764.965707 A 56.692913,56.692913 0.0 0 0 -796.574245,806.321218 z"
         style="fill:none;stroke:#000000"
         id="path36031" />
      <path
         d="M -203.188418,806.321218 L -81.907836,920.045737 A 119.745165,119.745165 0.0 0 0 81.907828,920.045737 L 203.188411,806.321218 A 56.692913,56.692913 0.0 0 0 221.102358,764.965707 L 221.102358,493.228352 A 221.102362,221.102362 0.0 0 0 -221.102366,493.228352 L -221.102366,764.965707 A 56.692913,56.692913 0.0 0 0 -203.188418,806.321218 z"
         style="fill:none;stroke:#000000"
         id="path36033" />
      <path
         d="M 390.197408,806.321218 L 511.477991,920.045737 A 119.745165,119.745165 0.0 0 0 675.293655,920.045737 L 796.574237,806.321218 A 56.692913,56.692913 0.0 0 0 814.488185,764.965707 L 814.488185,493.228352 A 221.102362,221.102362 0.0 0 0 372.283461,493.228352 L 372.283461,764.965707 A 56.692913,56.692913 0.0 0 0 390.197408,806.321218 z"
         style="fill:none;stroke:#000000"
         id="path36035" />
      <path
         d="M 983.583235,806.321218 L 1104.863817,920.045737 A 119.745165,119.745165 0.0 0 0 1268.679482,920.045737 L 1389.960064,806.321218 A 56.692913,56.692913 0.0 0 0 1407.874012,764.965707 L 1407.874012,493.228352 A 221.102362,221.102362 0.0 0 0 965.669287,493.228352 L 965.669287,764.965707 A 56.692913,56.692913 0.0 0 0 983.583235,806.321218 z"
         style="fill:none;stroke:#000000"
         id="path36037" />
      <path
         d="M 1576.969062,806.321218 L 1698.249644,920.045737 A 119.745165,119.745165 0.0 0 0 1862.065308,920.045737 L 1983.345891,806.321218 A 56.692913,56.692913 0.0 0 0 2001.259839,764.965707 L 2001.259839,493.228352 A 221.102362,221.102362 0.0 0 0 1559.055114,493.228352 L 1559.055114,764.965707 A 56.692913,56.692913 0.0 0 0 1576.969062,806.321218 z"
         style="fill:none;stroke:#000000"
         id="path36039" />
      <path
         d="M -2241.259846,1122.519691 L 2241.259839,1122.519691 L 2241.259839,1046.929140 L 2203.276993,667.100676 L 2152.631951,616.455634 L 2124.232433,332.460482 L 2165.669287,291.023628 L 2165.669287,139.842526 L -2165.669295,139.842526 L -2165.669295,291.023628 L -2124.232441,332.460482 L -2152.631959,616.455634 L -2203.277000,667.100676 L -2241.259846,1046.929140 L -2241.259846,1122.519691"
         style="fill:none;stroke:#000000"
         id="path36041" />
      <path
         style="fill:none;stroke:#FF0000"
         d="M 2155.09 1882.2 L 2177.76 1122.52"
         id="path36043" />
      <path
         style="fill:none;stroke:#FF0000"
         d="M 1807.37 1122.52 L 1890.52 1882.2"
         id="path36045" />
      <path
         d="M 2267.716531,1122.519691 L -2267.716539,1122.519691 L -2267.716539,1923.779534 L 1322.834642,1923.779534 L 1322.834642,1882.204730 L 2267.716531,1882.204730 L 2267.716531,1122.519691"
         style="fill:none;stroke:#000000"
         id="path36047" />
      <path
         d="M 2267.716531,1387.608615 L 2072.387851,1122.519691 L 1515.404842,1882.204730"
         style="fill:none;stroke:#000000"
         id="path36049" />
      <path
         d="M 1515.404842,1882.204730 L 958.421834,1122.519691 L 368.019844,1923.779534 L -222.382145,1122.519691 L -812.784134,1923.779534 L -1403.186123,1122.519691 L -1993.588113,1923.779534 L -2267.716539,1551.748097"
         style="fill:none;stroke:#000000"
         id="path36051" />
    </symbol>
    <symbol
       id="VBI_T260_DDRSN_RO">
      <path
         d="M -1983.345895,806.321212 L -1862.065312,920.045731 A 119.745165,119.745165 0.0 0 0 -1698.249648,920.045731 L -1576.969066,806.321212 A 56.692913,56.692913 0.0 0 0 -1559.055118,764.965701 L -1559.055118,493.228346 A 221.102362,221.102362 0.0 0 0 -2001.259843,493.228346 L -2001.259843,764.965701 A 56.692913,56.692913 0.0 0 0 -1983.345895,806.321212 z"
         style="fill:none;stroke:#000000"
         id="path36054" />
      <path
         d="M -1389.960068,806.321212 L -1268.679486,920.045731 A 119.745165,119.745165 0.0 0 0 -1104.863821,920.045731 L -983.583239,806.321212 A 56.692913,56.692913 0.0 0 0 -965.669291,764.965701 L -965.669291,493.228346 A 221.102362,221.102362 0.0 0 0 -1407.874016,493.228346 L -1407.874016,764.965701 A 56.692913,56.692913 0.0 0 0 -1389.960068,806.321212 z"
         style="fill:none;stroke:#000000"
         id="path36056" />
      <path
         d="M -796.574241,806.321212 L -675.293659,920.045731 A 119.745165,119.745165 0.0 0 0 -511.477995,920.045731 L -390.197412,806.321212 A 56.692913,56.692913 0.0 0 0 -372.283465,764.965701 L -372.283465,493.228346 A 221.102362,221.102362 0.0 0 0 -814.488189,493.228346 L -814.488189,764.965701 A 56.692913,56.692913 0.0 0 0 -796.574241,806.321212 z"
         style="fill:none;stroke:#000000"
         id="path36058" />
      <path
         d="M -203.188415,806.321212 L -81.907832,920.045731 A 119.745165,119.745165 0.0 0 0 81.907832,920.045731 L 203.188415,806.321212 A 56.692913,56.692913 0.0 0 0 221.102362,764.965701 L 221.102362,493.228346 A 221.102362,221.102362 0.0 0 0 -221.102362,493.228346 L -221.102362,764.965701 A 56.692913,56.692913 0.0 0 0 -203.188415,806.321212 z"
         style="fill:none;stroke:#000000"
         id="path36060" />
      <path
         d="M 390.197412,806.321212 L 511.477995,920.045731 A 119.745165,119.745165 0.0 0 0 675.293659,920.045731 L 796.574241,806.321212 A 56.692913,56.692913 0.0 0 0 814.488189,764.965701 L 814.488189,493.228346 A 221.102362,221.102362 0.0 0 0 372.283465,493.228346 L 372.283465,764.965701 A 56.692913,56.692913 0.0 0 0 390.197412,806.321212 z"
         style="fill:none;stroke:#000000"
         id="path36062" />
      <path
         d="M 983.583239,806.321212 L 1104.863821,920.045731 A 119.745165,119.745165 0.0 0 0 1268.679486,920.045731 L 1389.960068,806.321212 A 56.692913,56.692913 0.0 0 0 1407.874016,764.965701 L 1407.874016,493.228346 A 221.102362,221.102362 0.0 0 0 965.669291,493.228346 L 965.669291,764.965701 A 56.692913,56.692913 0.0 0 0 983.583239,806.321212 z"
         style="fill:none;stroke:#000000"
         id="path36064" />
      <path
         d="M 1576.969066,806.321212 L 1698.249648,920.045731 A 119.745165,119.745165 0.0 0 0 1862.065312,920.045731 L 1983.345895,806.321212 A 56.692913,56.692913 0.0 0 0 2001.259843,764.965701 L 2001.259843,493.228346 A 221.102362,221.102362 0.0 0 0 1559.055118,493.228346 L 1559.055118,764.965701 A 56.692913,56.692913 0.0 0 0 1576.969066,806.321212 z"
         style="fill:none;stroke:#000000"
         id="path36066" />
      <path
         d="M -2241.259843,1122.519685 L 2241.259843,1122.519685 L 2241.259843,1046.929134 L 2203.276997,667.100670 L 2152.631955,616.455628 L 2124.232437,332.460476 L 2165.669291,291.023622 L 2165.669291,139.842520 L -2165.669291,139.842520 L -2165.669291,291.023622 L -2124.232437,332.460476 L -2152.631955,616.455628 L -2203.276997,667.100670 L -2241.259843,1046.929134 L -2241.259843,1122.519685"
         style="fill:none;stroke:#000000"
         id="path36068" />
      <path
         d="M 1700.787401,1122.519685 L 1700.787401,1923.779528 L -2267.716535,1923.779528 L -2267.716535,1122.519685 L 2267.716535,1122.519685"
         style="fill:none;stroke:#000000;stroke-linecap: round"
         id="path36070" />
      <path
         d="M 1700.787401,1717.543248 L 1548.823827,1923.779528 L 958.421838,1122.519685 L 368.019848,1923.779528 L -222.382141,1122.519685 L -812.784130,1923.779528 L -1403.186119,1122.519685 L -1993.588109,1923.779528 L -2267.716535,1551.748091"
         style="fill:none;stroke:#000000"
         id="path36072" />
    </symbol>
    <symbol
       id="VBI_T260_DDRSN_NP">
      <path
         d="M 2267.716535,1122.519685 L 2241.259843,1122.519685 L 2241.259843,1046.929134 L 2203.276993,667.100676 L 2152.631951,616.455634 L 2124.232433,332.460482 L 2165.669287,291.023628 L 2165.669291,139.842526 L 2263.937008,139.842526 L 2369.763776,139.842526 L 2369.763776,291.023628 L 2411.200630,332.460482 L 2382.801112,616.455634 L 2332.156070,667.100676 L 2294.173228,1046.929134 L 2294.173228,1122.519685 L 2267.716535,1122.519685 z"
         style="fill:none;stroke:#FF0000"
         id="path36075" />
      <path
         d="M -1983.345899,806.321218 L -1862.065316,920.045737 A 119.745165,119.745165 0.0 0 0 -1698.249652,920.045737 L -1576.969070,806.321218 A 56.692913,56.692913 0.0 0 0 -1559.055122,764.965707 L -1559.055122,493.228352 A 221.102362,221.102362 0.0 0 0 -2001.259846,493.228352 L -2001.259846,764.965707 A 56.692913,56.692913 0.0 0 0 -1983.345899,806.321218 z"
         style="fill:none;stroke:#000000"
         id="path36077" />
      <path
         d="M -1389.960072,806.321218 L -1268.679490,920.045737 A 119.745165,119.745165 0.0 0 0 -1104.863825,920.045737 L -983.583243,806.321218 A 56.692913,56.692913 0.0 0 0 -965.669295,764.965707 L -965.669295,493.228352 A 221.102362,221.102362 0.0 0 0 -1407.874020,493.228352 L -1407.874020,764.965707 A 56.692913,56.692913 0.0 0 0 -1389.960072,806.321218 z"
         style="fill:none;stroke:#000000"
         id="path36079" />
      <path
         d="M -796.574245,806.321218 L -675.293663,920.045737 A 119.745165,119.745165 0.0 0 0 -511.477999,920.045737 L -390.197416,806.321218 A 56.692913,56.692913 0.0 0 0 -372.283469,764.965707 L -372.283469,493.228352 A 221.102362,221.102362 0.0 0 0 -814.488193,493.228352 L -814.488193,764.965707 A 56.692913,56.692913 0.0 0 0 -796.574245,806.321218 z"
         style="fill:none;stroke:#000000"
         id="path36081" />
      <path
         d="M -203.188418,806.321218 L -81.907836,920.045737 A 119.745165,119.745165 0.0 0 0 81.907828,920.045737 L 203.188411,806.321218 A 56.692913,56.692913 0.0 0 0 221.102358,764.965707 L 221.102358,493.228352 A 221.102362,221.102362 0.0 0 0 -221.102366,493.228352 L -221.102366,764.965707 A 56.692913,56.692913 0.0 0 0 -203.188418,806.321218 z"
         style="fill:none;stroke:#000000"
         id="path36083" />
      <path
         d="M 390.197408,806.321218 L 511.477991,920.045737 A 119.745165,119.745165 0.0 0 0 675.293655,920.045737 L 796.574237,806.321218 A 56.692913,56.692913 0.0 0 0 814.488185,764.965707 L 814.488185,493.228352 A 221.102362,221.102362 0.0 0 0 372.283461,493.228352 L 372.283461,764.965707 A 56.692913,56.692913 0.0 0 0 390.197408,806.321218 z"
         style="fill:none;stroke:#000000"
         id="path36085" />
      <path
         d="M 983.583235,806.321218 L 1104.863817,920.045737 A 119.745165,119.745165 0.0 0 0 1268.679482,920.045737 L 1389.960064,806.321218 A 56.692913,56.692913 0.0 0 0 1407.874012,764.965707 L 1407.874012,493.228352 A 221.102362,221.102362 0.0 0 0 965.669287,493.228352 L 965.669287,764.965707 A 56.692913,56.692913 0.0 0 0 983.583235,806.321218 z"
         style="fill:none;stroke:#000000"
         id="path36087" />
      <path
         d="M 1576.969062,806.321218 L 1698.249644,920.045737 A 119.745165,119.745165 0.0 0 0 1862.065308,920.045737 L 1983.345891,806.321218 A 56.692913,56.692913 0.0 0 0 2001.259839,764.965707 L 2001.259839,493.228352 A 221.102362,221.102362 0.0 0 0 1559.055114,493.228352 L 1559.055114,764.965707 A 56.692913,56.692913 0.0 0 0 1576.969062,806.321218 z"
         style="fill:none;stroke:#000000"
         id="path36089" />
      <path
         d="M -2241.259846,1122.519691 L 2241.259839,1122.519691 L 2241.259839,1046.929140 L 2203.276993,667.100676 L 2152.631951,616.455634 L 2124.232433,332.460482 L 2165.669287,291.023628 L 2165.669287,139.842526 L -2165.669295,139.842526 L -2165.669295,291.023628 L -2124.232441,332.460482 L -2152.631959,616.455634 L -2203.277000,667.100676 L -2241.259846,1046.929140 L -2241.259846,1122.519691"
         style="fill:none;stroke:#000000"
         id="path36091" />
      <path
         d="M 2267.716531,1122.519691 L 2267.716531,1923.779534 L -2267.716539,1923.779534 L -2267.716539,1122.519691 L 2267.716531,1122.519691"
         style="fill:none;stroke:#000000;stroke-linecap: round"
         id="path36093" />
      <path
         d="M 2267.716531,1296.899953 L 2139.225812,1122.519691 L 1548.823823,1923.779534 L 958.421834,1122.519691 L 368.019844,1923.779534 L -222.382145,1122.519691 L -812.784134,1923.779534 L -1403.186123,1122.519691 L -1993.588113,1923.779534 L -2267.716539,1551.748097"
         style="fill:none;stroke:#000000"
         id="path36095" />
    </symbol>
    <symbol
       id="T260">
      <path
         d="M 4535.433075,321.259837 L 4508.976382,321.259837 L 4508.976382,245.669285 L 4470.993532,-134.159172 L 4420.348490,-184.804214 L 4391.948973,-468.799366 L 4433.385827,-510.236220 L 4433.385831,-661.417323 L 4531.653547,-661.417323 L 4637.480315,-661.417323 L 4637.480315,-510.236220 L 4678.917169,-468.799366 L 4650.517652,-184.804214 L 4599.872610,-134.159172 L 4561.889768,245.669285 L 4561.889768,321.259837 L 4535.433075,321.259837 z"
         style="fill:none;stroke:#FF0000"
         id="path36098" />
      <path
         d="M 284.370641,5.061369 L 405.651223,118.785888 A 119.745165,119.745165 0.0 0 0 569.466887,118.785888 L 690.747470,5.061369 A 56.692913,56.692913 0.0 0 0 708.661417,-36.294141 L 708.661417,-308.031496 A 221.102362,221.102362 0.0 0 0 266.456693,-308.031496 L 266.456693,-36.294141 A 56.692913,56.692913 0.0 0 0 284.370641,5.061369 z"
         style="fill:none;stroke:#000000"
         id="path36100" />
      <path
         d="M 877.756467,5.061369 L 999.037050,118.785888 A 119.745165,119.745165 0.0 0 0 1162.852714,118.785888 L 1284.133296,5.061369 A 56.692913,56.692913 0.0 0 0 1302.047244,-36.294141 L 1302.047244,-308.031496 A 221.102362,221.102362 0.0 0 0 859.842520,-308.031496 L 859.842520,-36.294141 A 56.692913,56.692913 0.0 0 0 877.756467,5.061369 z"
         style="fill:none;stroke:#000000"
         id="path36102" />
      <path
         d="M 1471.142294,5.061369 L 1592.422877,118.785888 A 119.745165,119.745165 0.0 0 0 1756.238541,118.785888 L 1877.519123,5.061369 A 56.692913,56.692913 0.0 0 0 1895.433071,-36.294141 L 1895.433071,-308.031496 A 221.102362,221.102362 0.0 0 0 1453.228346,-308.031496 L 1453.228346,-36.294141 A 56.692913,56.692913 0.0 0 0 1471.142294,5.061369 z"
         style="fill:none;stroke:#000000"
         id="path36104" />
      <path
         d="M 2064.528121,5.061369 L 2185.808703,118.785888 A 119.745165,119.745165 0.0 0 0 2349.624368,118.785888 L 2470.904950,5.061369 A 56.692913,56.692913 0.0 0 0 2488.818898,-36.294141 L 2488.818898,-308.031496 A 221.102362,221.102362 0.0 0 0 2046.614173,-308.031496 L 2046.614173,-36.294141 A 56.692913,56.692913 0.0 0 0 2064.528121,5.061369 z"
         style="fill:none;stroke:#000000"
         id="path36106" />
      <path
         d="M 2657.913948,5.061369 L 2779.194530,118.785888 A 119.745165,119.745165 0.0 0 0 2943.010194,118.785888 L 3064.290777,5.061369 A 56.692913,56.692913 0.0 0 0 3082.204724,-36.294141 L 3082.204724,-308.031496 A 221.102362,221.102362 0.0 0 0 2640.000000,-308.031496 L 2640.000000,-36.294141 A 56.692913,56.692913 0.0 0 0 2657.913948,5.061369 z"
         style="fill:none;stroke:#000000"
         id="path36108" />
      <path
         d="M 3251.299774,5.061369 L 3372.580357,118.785888 A 119.745165,119.745165 0.0 0 0 3536.396021,118.785888 L 3657.676604,5.061369 A 56.692913,56.692913 0.0 0 0 3675.590551,-36.294141 L 3675.590551,-308.031496 A 221.102362,221.102362 0.0 0 0 3233.385827,-308.031496 L 3233.385827,-36.294141 A 56.692913,56.692913 0.0 0 0 3251.299774,5.061369 z"
         style="fill:none;stroke:#000000"
         id="path36110" />
      <path
         d="M 3844.685601,5.061369 L 3965.966184,118.785888 A 119.745165,119.745165 0.0 0 0 4129.781848,118.785888 L 4251.062430,5.061369 A 56.692913,56.692913 0.0 0 0 4268.976378,-36.294141 L 4268.976378,-308.031496 A 221.102362,221.102362 0.0 0 0 3826.771654,-308.031496 L 3826.771654,-36.294141 A 56.692913,56.692913 0.0 0 0 3844.685601,5.061369 z"
         style="fill:none;stroke:#000000"
         id="path36112" />
      <path
         d="M 26.456693,321.259843 L 4508.976378,321.259843 L 4508.976378,245.669291 L 4470.993532,-134.159172 L 4420.348490,-184.804214 L 4391.948973,-468.799366 L 4433.385827,-510.236220 L 4433.385827,-661.417323 L 102.047244,-661.417323 L 102.047244,-510.236220 L 143.484098,-468.799366 L 115.084581,-184.804214 L 64.439539,-134.159172 L 26.456693,245.669291 L 26.456693,321.259843"
         style="fill:none;stroke:#000000"
         id="path36114" />
      <path
         d="M 4535.433071,321.259843 L 4535.433071,1122.519685 L 0.000000,1122.519685 L 0.000000,321.259843 L 4535.433071,321.259843"
         style="fill:none;stroke:#000000;stroke-linecap: round"
         id="path36116" />
    </symbol>
  </defs>
  <g
     inkscape:groupmode="layer"
     inkscape:label="0"
     id="g36121" />
  <g
     inkscape:groupmode="layer"
     inkscape:label="concrete"
     id="g36139">
    <path
       id="path36137"
       style="fill:#c0c0c0;stroke:#000000;fill-opacity:1"
       d="M 102.04688 -661.41797 L 102.04688 -510.23633 L 143.48438 -468.79883 L 115.08398 -184.80469 L 64.439453 -134.1582 L 26.457031 245.66992 L 26.457031 321.25977 L 4508.9766 321.25977 L 4508.9766 245.66992 L 4470.9941 -134.1582 L 4420.3477 -184.80469 L 4391.9492 -468.79883 L 4433.3867 -510.23633 L 4433.3867 -661.41797 L 102.04688 -661.41797 z M 487.55859 -529.13477 A 221.10236 221.10236 0 0 1 708.66211 -308.03125 L 708.66211 -36.294922 A 56.692913 56.692913 0 0 1 690.74805 5.0605469 L 569.4668 118.78516 A 119.74517 119.74517 0 0 1 405.65039 118.78516 L 284.37109 5.0605469 A 56.692913 56.692913 0 0 1 266.45703 -36.294922 L 266.45703 -308.03125 A 221.10236 221.10236 0 0 1 487.55859 -529.13477 z M 1080.9453 -529.13477 A 221.10236 221.10236 0 0 1 1302.0469 -308.03125 L 1302.0469 -36.294922 A 56.692913 56.692913 0 0 1 1284.1328 5.0605469 L 1162.8535 118.78516 A 119.74517 119.74517 0 0 1 999.03711 118.78516 L 877.75586 5.0605469 A 56.692913 56.692913 0 0 1 859.8418 -36.294922 L 859.8418 -308.03125 A 221.10236 221.10236 0 0 1 1080.9453 -529.13477 z M 1674.3301 -529.13477 A 221.10236 221.10236 0 0 1 1895.4336 -308.03125 L 1895.4336 -36.294922 A 56.692913 56.692913 0 0 1 1877.5195 5.0605469 L 1756.2383 118.78516 A 119.74517 119.74517 0 0 1 1592.4238 118.78516 L 1471.1426 5.0605469 A 56.692913 56.692913 0 0 1 1453.2285 -36.294922 L 1453.2285 -308.03125 A 221.10236 221.10236 0 0 1 1674.3301 -529.13477 z M 2267.7168 -529.13477 A 221.10236 221.10236 0 0 1 2488.8184 -308.03125 L 2488.8184 -36.294922 A 56.692913 56.692913 0 0 1 2470.9043 5.0605469 L 2349.625 118.78516 A 119.74517 119.74517 0 0 1 2185.8086 118.78516 L 2064.5273 5.0605469 A 56.692913 56.692913 0 0 1 2046.6133 -36.294922 L 2046.6133 -308.03125 A 221.10236 221.10236 0 0 1 2267.7168 -529.13477 z M 2861.1016 -529.13477 A 221.10236 221.10236 0 0 1 3082.2051 -308.03125 L 3082.2051 -36.294922 A 56.692913 56.692913 0 0 1 3064.291 5.0605469 L 2943.0098 118.78516 A 119.74517 119.74517 0 0 1 2779.1953 118.78516 L 2657.9141 5.0605469 A 56.692913 56.692913 0 0 1 2640 -36.294922 L 2640 -308.03125 A 221.10236 221.10236 0 0 1 2861.1016 -529.13477 z M 3454.4883 -529.13477 A 221.10236 221.10236 0 0 1 3675.5898 -308.03125 L 3675.5898 -36.294922 A 56.692913 56.692913 0 0 1 3657.6758 5.0605469 L 3536.3965 118.78516 A 119.74517 119.74517 0 0 1 3372.5801 118.78516 L 3251.2988 5.0605469 A 56.692913 56.692913 0 0 1 3233.3867 -36.294922 L 3233.3867 -308.03125 A 221.10236 221.10236 0 0 1 3454.4883 -529.13477 z M 4047.873 -529.13477 A 221.10236 221.10236 0 0 1 4268.9766 -308.03125 L 4268.9766 -36.294922 A 56.692913 56.692913 0 0 1 4251.0625 5.0605469 L 4129.7812 118.78516 A 119.74517 119.74517 0 0 1 3965.9668 118.78516 L 3844.6855 5.0605469 A 56.692913 56.692913 0 0 1 3826.7715 -36.294922 L 3826.7715 -308.03125 A 221.10236 221.10236 0 0 1 4047.873 -529.13477 z " />
  </g>
  <g
     inkscape:groupmode="layer"
     inkscape:label="insulation"
     id="g36143">
    <path
       d="M 4535.433071,321.259843 L 4535.433071,1122.519685 L 0.000000,1122.519685 L 0.000000,321.259843 L 4535.433071,321.259843"
       style="fill:#ffffff;stroke:#000000;stroke-linecap:round;fill-opacity:1"
       id="path36141" />
  </g>
</svg>
