<?xml version="1.0" encoding="UTF-8" standalone="no"?>
<svg
   viewBox="0 0 793.7007874015749 1122.5196850393702"
   width="793.7007874015749"
   height="1122.5196850393702"
   version="1.1"
   id="svg14678"
   sodipodi:docname="HVU32.svg"
   inkscape:version="1.2.2 (732a01da63, 2022-12-09)"
   xmlns:inkscape="http://www.inkscape.org/namespaces/inkscape"
   xmlns:sodipodi="http://sodipodi.sourceforge.net/DTD/sodipodi-0.dtd"
   xmlns:xlink="http://www.w3.org/1999/xlink"
   xmlns="http://www.w3.org/2000/svg"
   xmlns:svg="http://www.w3.org/2000/svg">
  <sodipodi:namedview
     id="namedview14680"
     pagecolor="#ffffff"
     bordercolor="#000000"
     borderopacity="0.25"
     inkscape:showpageshadow="2"
     inkscape:pageopacity="0.0"
     inkscape:pagecheckerboard="0"
     inkscape:deskcolor="#d1d1d1"
     showgrid="false"
     inkscape:zoom="0.26146536"
     inkscape:cx="1497.3303"
     inkscape:cy="240.9497"
     inkscape:window-width="3440"
     inkscape:window-height="1377"
     inkscape:window-x="-8"
     inkscape:window-y="-8"
     inkscape:window-maximized="1"
     inkscape:current-layer="g14676" />
  <desc
     id="desc13901">HVU32.dxf - scale = 1.000000, origin = (0.000000, 0.000000), method = manual</desc>
  <defs
     id="defs14656">
    <marker
       id="DistanceX"
       orient="auto"
       refX="0.0"
       refY="0.0"
       style="overflow:visible">
      <path
         d="M 3,-3 L -3,3 M 0,-5 L  0,5"
         style="stroke:#000000; stroke-width:0.5"
         id="path13903" />
    </marker>
    <pattern
       id="Hatch"
       patternUnits="userSpaceOnUse"
       width="8"
       height="8"
       x="0"
       y="0">
      <path
         d="M8 4 l-4,4"
         stroke="#000000"
         stroke-width="0.25"
         linecap="square"
         id="path13906" />
      <path
         d="M6 2 l-4,4"
         stroke="#000000"
         stroke-width="0.25"
         linecap="square"
         id="path13908" />
      <path
         d="M4 0 l-4,4"
         stroke="#000000"
         stroke-width="0.25"
         linecap="square"
         id="path13910" />
    </pattern>
    <symbol
       id="*Model_Space" />
    <symbol
       id="*Paper_Space" />
    <symbol
       id="$MODEL_SPACE" />
    <symbol
       id="$PAPER_SPACE" />
    <symbol
       id="DIMDOT">
      <path
         style="fill:none;stroke:#000000"
         d="M -7.55905 1122.52 L 7.55905 1122.52"
         id="path13917" />
      <path
         style="fill:none;stroke:#000000"
         d="M 0 1135.75 L 0 1109.29"
         id="path13919" />
      <path
         d="M 1.889764,1122.519685 A 1.889764,1.889764 0.000000 0, 0 -1.889764,1122.519685 A 1.889764,1.889764 0.000000 0, 0 1.889764,1122.519685 z"
         style="fill:none;stroke:#000000"
         id="path13921" />
      <path
         d="M 0.944882,1122.519685 A 0.944882,0.944882 0.000000 0, 0 -0.944882,1122.519685 A 0.944882,0.944882 0.000000 0, 0 0.944882,1122.519685 z"
         style="fill:none;stroke:#000000"
         id="path13923" />
    </symbol>
    <symbol
       id="VBI_HVU32_DDRSN_NP">
      <path
         d="M -2267.716531,1122.519679 L 2267.716539,1122.519679 L 2267.716539,1621.417317 L -2267.716531,1621.417317 L -2267.716531,1122.519679 z"
         style="fill:none;stroke:#000000"
         id="path13926" />
      <path
         d="M -2267.716531,1455.118104 L -2086.299209,1122.519679 L -1738.582673,1621.417317 L -1390.866138,1122.519679 L -1043.149602,1621.417317 L -695.433067,1122.519679 L -347.716531,1621.417317 L 0.000004,1122.519679 L 347.716539,1621.417317 L 695.433075,1122.519679 L 1043.149610,1621.417317 L 1390.866146,1122.519679 L 1738.582681,1621.417317 L 2086.299217,1122.519679 L 2267.716539,1455.118104"
         style="fill:none;stroke:#000000"
         id="path13928" />
      <use
         xlink:href="#%2AU4"
         style="stroke-width:0.500px"
         id="use13930" />
      <path
         d="M 2267.716535,1122.519685 L 2241.259843,1122.519685 L 2241.259843,1046.929134 L 2195.221888,441.047576 L 2146.460104,399.378415 L 2124.000130,113.013753 L 2165.669291,64.251969 L 2165.669291,-86.929134 L 2369.763780,-86.929134 L 2369.763780,64.251969 L 2411.432941,113.013753 L 2388.972967,399.378415 L 2340.211183,441.047576 L 2294.173228,1046.929134 L 2294.173228,1122.519685 L 2267.716535,1122.519685 z"
         style="fill:none;stroke:#FF0000"
         id="path13932" />
    </symbol>
    <symbol
       id="*U4">
      <path
         d="M 755.706720,64.671926 A 755.905512,755.905512 0.000000 0 0 668.976378,78.992223"
         style="fill:none;stroke:#000000"
         id="path13935" />
      <path
         d="M 763.663606,64.251977 A 75.590551,75.590551 0.000000 0 0 755.706720,64.671926"
         style="fill:none;stroke:#000000"
         id="path13937" />
      <path
         style="fill:none;stroke:#000000"
         d="M 763.664 64.252 L 906.887 64.252"
         id="path13939" />
      <path
         d="M 914.844287,64.671916 A 75.590551,75.590551 0.000000 0 0 906.887413,64.251969"
         style="fill:none;stroke:#000000"
         id="path13941" />
      <path
         d="M 1001.574803,78.992223 A 755.905512,755.905512 0.000000 0 0 914.844287,64.671916"
         style="fill:none;stroke:#000000"
         id="path13943" />
      <path
         d="M 1148.976378,263.338655 A 188.976378,188.976378 0.000000 0 0 1001.574803,78.992223"
         style="fill:none;stroke:#000000"
         id="path13945" />
      <path
         style="fill:none;stroke:#000000"
         d="M 1148.98 263.339 L 1148.98 549.55"
         id="path13947" />
      <path
         d="M 1090.983620,799.335002 A 566.929134,566.929134 0.000000 0 0 1148.976378,549.550278"
         style="fill:none;stroke:#000000"
         id="path13949" />
      <path
         style="fill:none;stroke:#000000"
         d="M 1090.98 799.335 L 1064.48 853.343"
         id="path13951" />
      <path
         d="M 924.608940,956.696976 A 188.976378,188.976378 0.000000 0 0 1064.476616,853.343023"
         style="fill:none;stroke:#000000"
         id="path13953" />
      <path
         d="M 905.459136,959.418534 A 566.929134,566.929134 0.000000 0 0 924.608940,956.696976"
         style="fill:none;stroke:#000000"
         id="path13955" />
      <path
         d="M 896.101330,960.000000 A 75.590551,75.590551 0.000000 0 0 905.459136,959.418534"
         style="fill:none;stroke:#000000"
         id="path13957" />
      <path
         style="fill:none;stroke:#000000"
         d="M 896.101 960 L 774.45 960"
         id="path13959" />
      <path
         d="M 765.092045,959.418534 A 75.590551,75.590551 0.000000 0 0 774.449851,960.000000"
         style="fill:none;stroke:#000000"
         id="path13961" />
      <path
         d="M 745.942241,956.696976 A 566.929134,566.929134 0.000000 0 0 765.092045,959.418534"
         style="fill:none;stroke:#000000"
         id="path13963" />
      <path
         d="M 606.074566,853.343023 A 188.976378,188.976378 0.000000 0 0 745.942241,956.696976"
         style="fill:none;stroke:#000000"
         id="path13965" />
      <path
         style="fill:none;stroke:#000000"
         d="M 606.075 853.343 L 579.568 799.335"
         id="path13967" />
      <path
         d="M 521.574803,549.550278 A 566.929134,566.929134 0.000000 0 0 579.567561,799.335002"
         style="fill:none;stroke:#000000"
         id="path13969" />
      <path
         style="fill:none;stroke:#000000"
         d="M 521.575 549.55 L 521.575 263.339"
         id="path13971" />
      <path
         d="M 668.976378,78.992223 A 188.976378,188.976378 0.000000 0 0 521.574803,263.338655"
         style="fill:none;stroke:#000000"
         id="path13973" />
      <path
         d="M -79.568870,64.671926 A 755.905512,755.905512 0.000000 0 0 -166.299213,78.992223"
         style="fill:none;stroke:#000000"
         id="path13975" />
      <path
         d="M -71.611984,64.251977 A 75.590551,75.590551 0.000000 0 0 -79.568870,64.671926"
         style="fill:none;stroke:#000000"
         id="path13977" />
      <path
         style="fill:none;stroke:#000000"
         d="M -71.612 64.252 L 71.6118 64.252"
         id="path13979" />
      <path
         d="M 79.568697,64.671916 A 75.590551,75.590551 0.000000 0 0 71.611823,64.251969"
         style="fill:none;stroke:#000000"
         id="path13981" />
      <path
         d="M 166.299213,78.992223 A 755.905512,755.905512 0.000000 0 0 79.568697,64.671916"
         style="fill:none;stroke:#000000"
         id="path13983" />
      <path
         d="M 313.700787,263.338655 A 188.976378,188.976378 0.000000 0 0 166.299213,78.992223"
         style="fill:none;stroke:#000000"
         id="path13985" />
      <path
         style="fill:none;stroke:#000000"
         d="M 313.701 263.339 L 313.701 549.55"
         id="path13987" />
      <path
         d="M 255.708029,799.335002 A 566.929134,566.929134 0.000000 0 0 313.700787,549.550278"
         style="fill:none;stroke:#000000"
         id="path13989" />
      <path
         style="fill:none;stroke:#000000"
         d="M 255.708 799.335 L 229.201 853.343"
         id="path13991" />
      <path
         d="M 89.333350,956.696976 A 188.976378,188.976378 0.000000 0 0 229.201025,853.343023"
         style="fill:none;stroke:#000000"
         id="path13993" />
      <path
         d="M 70.183546,959.418534 A 566.929134,566.929134 0.000000 0 0 89.333350,956.696976"
         style="fill:none;stroke:#000000"
         id="path13995" />
      <path
         d="M 60.825740,960.000000 A 75.590551,75.590551 0.000000 0 0 70.183546,959.418534"
         style="fill:none;stroke:#000000"
         id="path13997" />
      <path
         style="fill:none;stroke:#000000"
         d="M 60.8257 960 L -60.8257 960"
         id="path13999" />
      <path
         d="M -70.183546,959.418534 A 75.590551,75.590551 0.000000 0 0 -60.825740,960.000000"
         style="fill:none;stroke:#000000"
         id="path14001" />
      <path
         d="M -89.333350,956.696976 A 566.929134,566.929134 0.000000 0 0 -70.183546,959.418534"
         style="fill:none;stroke:#000000"
         id="path14003" />
      <path
         d="M -229.201025,853.343023 A 188.976378,188.976378 0.000000 0 0 -89.333350,956.696976"
         style="fill:none;stroke:#000000"
         id="path14005" />
      <path
         style="fill:none;stroke:#000000"
         d="M -229.201 853.343 L -255.708 799.335"
         id="path14007" />
      <path
         d="M -313.700787,549.550278 A 566.929134,566.929134 0.000000 0 0 -255.708029,799.335002"
         style="fill:none;stroke:#000000"
         id="path14009" />
      <path
         style="fill:none;stroke:#000000"
         d="M -313.701 549.55 L -313.701 263.339"
         id="path14011" />
      <path
         d="M -166.299213,78.992223 A 188.976378,188.976378 0.000000 0 0 -313.700787,263.338655"
         style="fill:none;stroke:#000000"
         id="path14013" />
      <path
         d="M -668.976378,78.992223 A 755.905512,755.905512 0.000000 0 0 -755.706720,64.671926"
         style="fill:none;stroke:#000000"
         id="path14015" />
      <path
         d="M -521.574803,263.338655 A 188.976378,188.976378 0.000000 0 0 -668.976378,78.992223"
         style="fill:none;stroke:#000000"
         id="path14017" />
      <path
         style="fill:none;stroke:#000000"
         d="M -521.575 263.339 L -521.575 549.55"
         id="path14019" />
      <path
         d="M -579.567561,799.335002 A 566.929134,566.929134 0.000000 0 0 -521.574803,549.550278"
         style="fill:none;stroke:#000000"
         id="path14021" />
      <path
         style="fill:none;stroke:#000000"
         d="M -579.568 799.335 L -606.075 853.343"
         id="path14023" />
      <path
         d="M -745.942241,956.696976 A 188.976378,188.976378 0.000000 0 0 -606.074566,853.343023"
         style="fill:none;stroke:#000000"
         id="path14025" />
      <path
         d="M -765.092045,959.418534 A 566.929134,566.929134 0.000000 0 0 -745.942241,956.696976"
         style="fill:none;stroke:#000000"
         id="path14027" />
      <path
         d="M -774.449851,960.000000 A 75.590551,75.590551 0.000000 0 0 -765.092045,959.418534"
         style="fill:none;stroke:#000000"
         id="path14029" />
      <path
         style="fill:none;stroke:#000000"
         d="M -774.45 960 L -896.101 960"
         id="path14031" />
      <path
         d="M -905.459136,959.418534 A 75.590551,75.590551 0.000000 0 0 -896.101330,960.000000"
         style="fill:none;stroke:#000000"
         id="path14033" />
      <path
         d="M -924.608940,956.696976 A 566.929134,566.929134 0.000000 0 0 -905.459136,959.418534"
         style="fill:none;stroke:#000000"
         id="path14035" />
      <path
         d="M -1064.476616,853.343023 A 188.976378,188.976378 0.000000 0 0 -924.608940,956.696976"
         style="fill:none;stroke:#000000"
         id="path14037" />
      <path
         style="fill:none;stroke:#000000"
         d="M -1064.48 853.343 L -1090.98 799.335"
         id="path14039" />
      <path
         d="M -1148.976378,549.550278 A 566.929134,566.929134 0.000000 0 0 -1090.983620,799.335002"
         style="fill:none;stroke:#000000"
         id="path14041" />
      <path
         style="fill:none;stroke:#000000"
         d="M -1148.98 549.55 L -1148.98 263.339"
         id="path14043" />
      <path
         d="M -1001.574803,78.992223 A 188.976378,188.976378 0.000000 0 0 -1148.976378,263.338655"
         style="fill:none;stroke:#000000"
         id="path14045" />
      <path
         d="M -914.844287,64.671916 A 755.905512,755.905512 0.000000 0 0 -1001.574803,78.992223"
         style="fill:none;stroke:#000000"
         id="path14047" />
      <path
         d="M -906.887413,64.251969 A 75.590551,75.590551 0.000000 0 0 -914.844287,64.671916"
         style="fill:none;stroke:#000000"
         id="path14049" />
      <path
         style="fill:none;stroke:#000000"
         d="M -906.887 64.252 L -763.664 64.252"
         id="path14051" />
      <path
         d="M -755.706720,64.671926 A 75.590551,75.590551 0.000000 0 0 -763.663606,64.251977"
         style="fill:none;stroke:#000000"
         id="path14053" />
      <path
         style="fill:none;stroke:#000000"
         d="M -1973.29 533.209 L -1952.03 243.308"
         id="path14055" />
      <path
         d="M -1794.557059,70.713360 A 188.976378,188.976378 0.000000 0 0 -1952.025849,243.308055"
         style="fill:none;stroke:#000000"
         id="path14057" />
      <path
         d="M -1750.119877,64.671916 A 755.905512,755.905512 0.000000 0 0 -1794.557059,70.713360"
         style="fill:none;stroke:#000000"
         id="path14059" />
      <path
         d="M -1742.163004,64.251969 A 75.590549,75.590549 0.000000 0 0 -1750.119877,64.671916"
         style="fill:none;stroke:#000000"
         id="path14061" />
      <path
         style="fill:none;stroke:#000000"
         d="M -1742.16 64.252 L -1670.55 64.252"
         id="path14063" />
      <path
         style="fill:none;stroke:#000000"
         d="M -1670.55 64.252 L -1598.94 64.252"
         id="path14065" />
      <path
         d="M -1590.982404,64.671916 A 75.590551,75.590551 0.000000 0 0 -1598.939278,64.251969"
         style="fill:none;stroke:#000000"
         id="path14067" />
      <path
         d="M -1504.251888,78.992223 A 755.905512,755.905512 0.000000 0 0 -1590.982404,64.671916"
         style="fill:none;stroke:#000000"
         id="path14069" />
      <path
         d="M -1356.850313,263.338655 A 188.976378,188.976378 0.000000 0 0 -1504.251888,78.992223"
         style="fill:none;stroke:#000000"
         id="path14071" />
      <path
         style="fill:none;stroke:#000000"
         d="M -1356.85 263.339 L -1356.85 549.55"
         id="path14073" />
      <path
         d="M -1414.843071,799.335002 A 566.929134,566.929134 0.000000 0 0 -1356.850313,549.550278"
         style="fill:none;stroke:#000000"
         id="path14075" />
      <path
         style="fill:none;stroke:#000000"
         d="M -1414.84 799.335 L -1441.35 853.343"
         id="path14077" />
      <path
         d="M -1581.217751,956.696976 A 188.976378,188.976378 0.000000 0 0 -1441.350075,853.343023"
         style="fill:none;stroke:#000000"
         id="path14079" />
      <path
         d="M -1600.367555,959.418534 A 566.929134,566.929134 0.000000 0 0 -1581.217751,956.696976"
         style="fill:none;stroke:#000000"
         id="path14081" />
      <path
         d="M -1609.725361,960.000000 A 75.590551,75.590551 0.000000 0 0 -1600.367555,959.418534"
         style="fill:none;stroke:#000000"
         id="path14083" />
      <path
         style="fill:none;stroke:#000000"
         d="M -1609.73 960 L -1731.38 960"
         id="path14085" />
      <path
         d="M -1740.734727,959.418534 A 75.590551,75.590551 0.000000 0 0 -1731.376921,960.000000"
         style="fill:none;stroke:#000000"
         id="path14087" />
      <path
         d="M -1759.884531,956.696976 A 566.929134,566.929134 0.000000 0 0 -1740.734727,959.418534"
         style="fill:none;stroke:#000000"
         id="path14089" />
      <path
         d="M -1899.752206,853.343023 A 188.976378,188.976378 0.000000 0 0 -1759.884531,956.696976"
         style="fill:none;stroke:#000000"
         id="path14091" />
      <path
         style="fill:none;stroke:#000000"
         d="M -1899.75 853.343 L -1918.69 814.75"
         id="path14093" />
      <path
         d="M -1973.285699,533.208798 A 548.031496,548.031496 0.000000 0 0 -1918.693775,814.749577"
         style="fill:none;stroke:#000000"
         id="path14095" />
      <path
         style="fill:none;stroke:#000000"
         d="M 1952.03 243.308 L 1973.29 533.209"
         id="path14097" />
      <path
         d="M 1918.693613,814.749577 A 548.031496,548.031496 0.000000 0 0 1973.285537,533.208798"
         style="fill:none;stroke:#000000"
         id="path14099" />
      <path
         style="fill:none;stroke:#000000"
         d="M 1918.69 814.75 L 1899.75 853.343"
         id="path14101" />
      <path
         d="M 1759.884369,956.696976 A 188.976378,188.976378 0.000000 0 0 1899.752044,853.343023"
         style="fill:none;stroke:#000000"
         id="path14103" />
      <path
         d="M 1740.734565,959.418534 A 566.929134,566.929134 0.000000 0 0 1759.884369,956.696976"
         style="fill:none;stroke:#000000"
         id="path14105" />
      <path
         d="M 1731.376759,960.000000 A 75.590551,75.590551 0.000000 0 0 1740.734565,959.418534"
         style="fill:none;stroke:#000000"
         id="path14107" />
      <path
         style="fill:none;stroke:#000000"
         d="M 1731.38 960 L 1609.73 960"
         id="path14109" />
      <path
         d="M 1600.367393,959.418534 A 75.590551,75.590551 0.000000 0 0 1609.725199,960.000000"
         style="fill:none;stroke:#000000"
         id="path14111" />
      <path
         d="M 1581.217589,956.696976 A 566.929134,566.929134 0.000000 0 0 1600.367393,959.418534"
         style="fill:none;stroke:#000000"
         id="path14113" />
      <path
         d="M 1441.349914,853.343023 A 188.976378,188.976378 0.000000 0 0 1581.217589,956.696976"
         style="fill:none;stroke:#000000"
         id="path14115" />
      <path
         style="fill:none;stroke:#000000"
         d="M 1441.35 853.343 L 1414.84 799.335"
         id="path14117" />
      <path
         d="M 1356.850151,549.550278 A 566.929134,566.929134 0.000000 0 0 1414.842910,799.335002"
         style="fill:none;stroke:#000000"
         id="path14119" />
      <path
         style="fill:none;stroke:#000000"
         d="M 1356.85 549.55 L 1356.85 263.339"
         id="path14121" />
      <path
         d="M 1504.251726,78.992223 A 188.976378,188.976378 0.000000 0 0 1356.850151,263.338655"
         style="fill:none;stroke:#000000"
         id="path14123" />
      <path
         d="M 1590.982242,64.671916 A 755.905512,755.905512 0.000000 0 0 1504.251726,78.992223"
         style="fill:none;stroke:#000000"
         id="path14125" />
      <path
         d="M 1598.939116,64.251969 A 75.590551,75.590551 0.000000 0 0 1590.982242,64.671916"
         style="fill:none;stroke:#000000"
         id="path14127" />
      <path
         style="fill:none;stroke:#000000"
         d="M 1598.94 64.252 L 1670.55 64.252"
         id="path14129" />
      <path
         style="fill:none;stroke:#000000"
         d="M 1670.55 64.252 L 1742.16 64.252"
         id="path14131" />
      <path
         d="M 1750.119716,64.671916 A 75.590549,75.590549 0.000000 0 0 1742.162842,64.251969"
         style="fill:none;stroke:#000000"
         id="path14133" />
      <path
         d="M 1794.556897,70.713360 A 755.905512,755.905512 0.000000 0 0 1750.119716,64.671916"
         style="fill:none;stroke:#000000"
         id="path14135" />
      <path
         d="M 1952.025688,243.308055 A 188.976378,188.976378 0.000000 0 0 1794.556897,70.713360"
         style="fill:none;stroke:#000000"
         id="path14137" />
      <path
         style="fill:none;stroke:#000000"
         d="M 2165.67 -86.9291 L -2165.67 -86.9291"
         id="path14139" />
      <path
         style="fill:none;stroke:#000000"
         d="M -2165.67 -86.9291 L -2165.67 64.252"
         id="path14141" />
      <path
         style="fill:none;stroke:#000000"
         d="M -2165.67 64.252 L -2124 113.014"
         id="path14143" />
      <path
         style="fill:none;stroke:#000000"
         d="M -2124 113.014 L -2146.46 399.378"
         id="path14145" />
      <path
         style="fill:none;stroke:#000000"
         d="M -2146.46 399.378 L -2195.22 441.048"
         id="path14147" />
      <path
         style="fill:none;stroke:#000000"
         d="M -2195.22 441.048 L -2241.26 1046.93"
         id="path14149" />
      <path
         style="fill:none;stroke:#000000"
         d="M -2241.26 1046.93 L -2241.26 1122.52"
         id="path14151" />
      <path
         style="fill:none;stroke:#000000"
         d="M -2241.26 1122.52 L 2241.26 1122.52"
         id="path14153" />
      <path
         style="fill:none;stroke:#000000"
         d="M 2241.26 1122.52 L 2241.26 1046.93"
         id="path14155" />
      <path
         style="fill:none;stroke:#000000"
         d="M 2241.26 1046.93 L 2195.22 441.048"
         id="path14157" />
      <path
         style="fill:none;stroke:#000000"
         d="M 2195.22 441.048 L 2146.46 399.378"
         id="path14159" />
      <path
         style="fill:none;stroke:#000000"
         d="M 2146.46 399.378 L 2124 113.014"
         id="path14161" />
      <path
         style="fill:none;stroke:#000000"
         d="M 2124 113.014 L 2165.67 64.252"
         id="path14163" />
      <path
         style="fill:none;stroke:#000000"
         d="M 2165.67 64.252 L 2165.67 -86.9291"
         id="path14165" />
    </symbol>
    <symbol
       id="VBI_HVU32_DDRSN_GR">
      <path
         d="M -2267.716528,1455.118098 L -2086.299205,1122.519673 L -1738.582669,1621.417311 L -1390.866134,1122.519673 L -1043.149598,1621.417311 L -695.433063,1122.519673 L -347.716528,1621.417311 L 0.000008,1122.519673 L 347.716543,1621.417311 L 695.433079,1122.519673 L 1043.149614,1621.417311 L 1390.866150,1122.519673 L 1693.228354,1576.062980 L 1995.590559,1122.519673 L 2267.716543,1545.826760"
         style="fill:none;stroke:#000000"
         id="path14168" />
      <path
         d="M 2267.716543,1122.519673 L -2267.716528,1122.519673 L -2267.716528,1621.417311 L 1322.834654,1621.417311 L 1322.834654,1576.062980 L 2267.716543,1576.062980 L 2267.716543,1122.519673 L 2267.716543,1122.519673"
         style="fill:none;stroke:#000000"
         id="path14170" />
      <path
         style="fill:none;stroke:#FF0000"
         d="M 1845.92 1122.52 L 1897.32 1576.06"
         id="path14172" />
      <path
         style="fill:none;stroke:#FF0000"
         d="M 2161.89 1576.06 L 2170.96 1122.52"
         id="path14174" />
      <use
         xlink:href="#%2AU6"
         style="stroke-width:0.500px"
         id="use14176" />
      <path
         d="M 2267.716535,1122.519685 L 2241.259843,1122.519685 L 2241.259843,1046.929134 L 2195.221888,441.047576 L 2146.460104,399.378415 L 2124.000130,113.013753 L 2165.669291,64.251969 L 2165.669291,-86.929134 L 2369.763780,-86.929134 L 2369.763780,64.251969 L 2411.432941,113.013753 L 2388.972967,399.378415 L 2340.211183,441.047576 L 2294.173228,1046.929134 L 2294.173228,1122.519685 L 2267.716535,1122.519685 z"
         style="fill:none;stroke:#FF0000"
         id="path14178" />
    </symbol>
    <symbol
       id="*U6">
      <path
         d="M 755.706720,64.671926 A 755.905512,755.905512 0.000000 0 0 668.976378,78.992223"
         style="fill:none;stroke:#000000"
         id="path14181" />
      <path
         d="M 763.663606,64.251977 A 75.590551,75.590551 0.000000 0 0 755.706720,64.671926"
         style="fill:none;stroke:#000000"
         id="path14183" />
      <path
         style="fill:none;stroke:#000000"
         d="M 763.664 64.252 L 906.887 64.252"
         id="path14185" />
      <path
         d="M 914.844287,64.671916 A 75.590551,75.590551 0.000000 0 0 906.887413,64.251969"
         style="fill:none;stroke:#000000"
         id="path14187" />
      <path
         d="M 1001.574803,78.992223 A 755.905512,755.905512 0.000000 0 0 914.844287,64.671916"
         style="fill:none;stroke:#000000"
         id="path14189" />
      <path
         d="M 1148.976378,263.338655 A 188.976378,188.976378 0.000000 0 0 1001.574803,78.992223"
         style="fill:none;stroke:#000000"
         id="path14191" />
      <path
         style="fill:none;stroke:#000000"
         d="M 1148.98 263.339 L 1148.98 549.55"
         id="path14193" />
      <path
         d="M 1090.983620,799.335002 A 566.929134,566.929134 0.000000 0 0 1148.976378,549.550278"
         style="fill:none;stroke:#000000"
         id="path14195" />
      <path
         style="fill:none;stroke:#000000"
         d="M 1090.98 799.335 L 1064.48 853.343"
         id="path14197" />
      <path
         d="M 924.608940,956.696976 A 188.976378,188.976378 0.000000 0 0 1064.476616,853.343023"
         style="fill:none;stroke:#000000"
         id="path14199" />
      <path
         d="M 905.459136,959.418534 A 566.929134,566.929134 0.000000 0 0 924.608940,956.696976"
         style="fill:none;stroke:#000000"
         id="path14201" />
      <path
         d="M 896.101330,960.000000 A 75.590551,75.590551 0.000000 0 0 905.459136,959.418534"
         style="fill:none;stroke:#000000"
         id="path14203" />
      <path
         style="fill:none;stroke:#000000"
         d="M 896.101 960 L 774.45 960"
         id="path14205" />
      <path
         d="M 765.092045,959.418534 A 75.590551,75.590551 0.000000 0 0 774.449851,960.000000"
         style="fill:none;stroke:#000000"
         id="path14207" />
      <path
         d="M 745.942241,956.696976 A 566.929134,566.929134 0.000000 0 0 765.092045,959.418534"
         style="fill:none;stroke:#000000"
         id="path14209" />
      <path
         d="M 606.074566,853.343023 A 188.976378,188.976378 0.000000 0 0 745.942241,956.696976"
         style="fill:none;stroke:#000000"
         id="path14211" />
      <path
         style="fill:none;stroke:#000000"
         d="M 606.075 853.343 L 579.568 799.335"
         id="path14213" />
      <path
         d="M 521.574803,549.550278 A 566.929134,566.929134 0.000000 0 0 579.567561,799.335002"
         style="fill:none;stroke:#000000"
         id="path14215" />
      <path
         style="fill:none;stroke:#000000"
         d="M 521.575 549.55 L 521.575 263.339"
         id="path14217" />
      <path
         d="M 668.976378,78.992223 A 188.976378,188.976378 0.000000 0 0 521.574803,263.338655"
         style="fill:none;stroke:#000000"
         id="path14219" />
      <path
         d="M -79.568870,64.671926 A 755.905512,755.905512 0.000000 0 0 -166.299213,78.992223"
         style="fill:none;stroke:#000000"
         id="path14221" />
      <path
         d="M -71.611984,64.251977 A 75.590551,75.590551 0.000000 0 0 -79.568870,64.671926"
         style="fill:none;stroke:#000000"
         id="path14223" />
      <path
         style="fill:none;stroke:#000000"
         d="M -71.612 64.252 L 71.6118 64.252"
         id="path14225" />
      <path
         d="M 79.568697,64.671916 A 75.590551,75.590551 0.000000 0 0 71.611823,64.251969"
         style="fill:none;stroke:#000000"
         id="path14227" />
      <path
         d="M 166.299213,78.992223 A 755.905512,755.905512 0.000000 0 0 79.568697,64.671916"
         style="fill:none;stroke:#000000"
         id="path14229" />
      <path
         d="M 313.700787,263.338655 A 188.976378,188.976378 0.000000 0 0 166.299213,78.992223"
         style="fill:none;stroke:#000000"
         id="path14231" />
      <path
         style="fill:none;stroke:#000000"
         d="M 313.701 263.339 L 313.701 549.55"
         id="path14233" />
      <path
         d="M 255.708029,799.335002 A 566.929134,566.929134 0.000000 0 0 313.700787,549.550278"
         style="fill:none;stroke:#000000"
         id="path14235" />
      <path
         style="fill:none;stroke:#000000"
         d="M 255.708 799.335 L 229.201 853.343"
         id="path14237" />
      <path
         d="M 89.333350,956.696976 A 188.976378,188.976378 0.000000 0 0 229.201025,853.343023"
         style="fill:none;stroke:#000000"
         id="path14239" />
      <path
         d="M 70.183546,959.418534 A 566.929134,566.929134 0.000000 0 0 89.333350,956.696976"
         style="fill:none;stroke:#000000"
         id="path14241" />
      <path
         d="M 60.825740,960.000000 A 75.590551,75.590551 0.000000 0 0 70.183546,959.418534"
         style="fill:none;stroke:#000000"
         id="path14243" />
      <path
         style="fill:none;stroke:#000000"
         d="M 60.8257 960 L -60.8257 960"
         id="path14245" />
      <path
         d="M -70.183546,959.418534 A 75.590551,75.590551 0.000000 0 0 -60.825740,960.000000"
         style="fill:none;stroke:#000000"
         id="path14247" />
      <path
         d="M -89.333350,956.696976 A 566.929134,566.929134 0.000000 0 0 -70.183546,959.418534"
         style="fill:none;stroke:#000000"
         id="path14249" />
      <path
         d="M -229.201025,853.343023 A 188.976378,188.976378 0.000000 0 0 -89.333350,956.696976"
         style="fill:none;stroke:#000000"
         id="path14251" />
      <path
         style="fill:none;stroke:#000000"
         d="M -229.201 853.343 L -255.708 799.335"
         id="path14253" />
      <path
         d="M -313.700787,549.550278 A 566.929134,566.929134 0.000000 0 0 -255.708029,799.335002"
         style="fill:none;stroke:#000000"
         id="path14255" />
      <path
         style="fill:none;stroke:#000000"
         d="M -313.701 549.55 L -313.701 263.339"
         id="path14257" />
      <path
         d="M -166.299213,78.992223 A 188.976378,188.976378 0.000000 0 0 -313.700787,263.338655"
         style="fill:none;stroke:#000000"
         id="path14259" />
      <path
         d="M -668.976378,78.992223 A 755.905512,755.905512 0.000000 0 0 -755.706720,64.671926"
         style="fill:none;stroke:#000000"
         id="path14261" />
      <path
         d="M -521.574803,263.338655 A 188.976378,188.976378 0.000000 0 0 -668.976378,78.992223"
         style="fill:none;stroke:#000000"
         id="path14263" />
      <path
         style="fill:none;stroke:#000000"
         d="M -521.575 263.339 L -521.575 549.55"
         id="path14265" />
      <path
         d="M -579.567561,799.335002 A 566.929134,566.929134 0.000000 0 0 -521.574803,549.550278"
         style="fill:none;stroke:#000000"
         id="path14267" />
      <path
         style="fill:none;stroke:#000000"
         d="M -579.568 799.335 L -606.075 853.343"
         id="path14269" />
      <path
         d="M -745.942241,956.696976 A 188.976378,188.976378 0.000000 0 0 -606.074566,853.343023"
         style="fill:none;stroke:#000000"
         id="path14271" />
      <path
         d="M -765.092045,959.418534 A 566.929134,566.929134 0.000000 0 0 -745.942241,956.696976"
         style="fill:none;stroke:#000000"
         id="path14273" />
      <path
         d="M -774.449851,960.000000 A 75.590551,75.590551 0.000000 0 0 -765.092045,959.418534"
         style="fill:none;stroke:#000000"
         id="path14275" />
      <path
         style="fill:none;stroke:#000000"
         d="M -774.45 960 L -896.101 960"
         id="path14277" />
      <path
         d="M -905.459136,959.418534 A 75.590551,75.590551 0.000000 0 0 -896.101330,960.000000"
         style="fill:none;stroke:#000000"
         id="path14279" />
      <path
         d="M -924.608940,956.696976 A 566.929134,566.929134 0.000000 0 0 -905.459136,959.418534"
         style="fill:none;stroke:#000000"
         id="path14281" />
      <path
         d="M -1064.476616,853.343023 A 188.976378,188.976378 0.000000 0 0 -924.608940,956.696976"
         style="fill:none;stroke:#000000"
         id="path14283" />
      <path
         style="fill:none;stroke:#000000"
         d="M -1064.48 853.343 L -1090.98 799.335"
         id="path14285" />
      <path
         d="M -1148.976378,549.550278 A 566.929134,566.929134 0.000000 0 0 -1090.983620,799.335002"
         style="fill:none;stroke:#000000"
         id="path14287" />
      <path
         style="fill:none;stroke:#000000"
         d="M -1148.98 549.55 L -1148.98 263.339"
         id="path14289" />
      <path
         d="M -1001.574803,78.992223 A 188.976378,188.976378 0.000000 0 0 -1148.976378,263.338655"
         style="fill:none;stroke:#000000"
         id="path14291" />
      <path
         d="M -914.844287,64.671916 A 755.905512,755.905512 0.000000 0 0 -1001.574803,78.992223"
         style="fill:none;stroke:#000000"
         id="path14293" />
      <path
         d="M -906.887413,64.251969 A 75.590551,75.590551 0.000000 0 0 -914.844287,64.671916"
         style="fill:none;stroke:#000000"
         id="path14295" />
      <path
         style="fill:none;stroke:#000000"
         d="M -906.887 64.252 L -763.664 64.252"
         id="path14297" />
      <path
         d="M -755.706720,64.671926 A 75.590551,75.590551 0.000000 0 0 -763.663606,64.251977"
         style="fill:none;stroke:#000000"
         id="path14299" />
      <path
         style="fill:none;stroke:#000000"
         d="M -1973.29 533.209 L -1952.03 243.308"
         id="path14301" />
      <path
         d="M -1794.557059,70.713360 A 188.976378,188.976378 0.000000 0 0 -1952.025849,243.308055"
         style="fill:none;stroke:#000000"
         id="path14303" />
      <path
         d="M -1750.119877,64.671916 A 755.905512,755.905512 0.000000 0 0 -1794.557059,70.713360"
         style="fill:none;stroke:#000000"
         id="path14305" />
      <path
         d="M -1742.163004,64.251969 A 75.590549,75.590549 0.000000 0 0 -1750.119877,64.671916"
         style="fill:none;stroke:#000000"
         id="path14307" />
      <path
         style="fill:none;stroke:#000000"
         d="M -1742.16 64.252 L -1670.55 64.252"
         id="path14309" />
      <path
         style="fill:none;stroke:#000000"
         d="M -1670.55 64.252 L -1598.94 64.252"
         id="path14311" />
      <path
         d="M -1590.982404,64.671916 A 75.590551,75.590551 0.000000 0 0 -1598.939278,64.251969"
         style="fill:none;stroke:#000000"
         id="path14313" />
      <path
         d="M -1504.251888,78.992223 A 755.905512,755.905512 0.000000 0 0 -1590.982404,64.671916"
         style="fill:none;stroke:#000000"
         id="path14315" />
      <path
         d="M -1356.850313,263.338655 A 188.976378,188.976378 0.000000 0 0 -1504.251888,78.992223"
         style="fill:none;stroke:#000000"
         id="path14317" />
      <path
         style="fill:none;stroke:#000000"
         d="M -1356.85 263.339 L -1356.85 549.55"
         id="path14319" />
      <path
         d="M -1414.843071,799.335002 A 566.929134,566.929134 0.000000 0 0 -1356.850313,549.550278"
         style="fill:none;stroke:#000000"
         id="path14321" />
      <path
         style="fill:none;stroke:#000000"
         d="M -1414.84 799.335 L -1441.35 853.343"
         id="path14323" />
      <path
         d="M -1581.217751,956.696976 A 188.976378,188.976378 0.000000 0 0 -1441.350075,853.343023"
         style="fill:none;stroke:#000000"
         id="path14325" />
      <path
         d="M -1600.367555,959.418534 A 566.929134,566.929134 0.000000 0 0 -1581.217751,956.696976"
         style="fill:none;stroke:#000000"
         id="path14327" />
      <path
         d="M -1609.725361,960.000000 A 75.590551,75.590551 0.000000 0 0 -1600.367555,959.418534"
         style="fill:none;stroke:#000000"
         id="path14329" />
      <path
         style="fill:none;stroke:#000000"
         d="M -1609.73 960 L -1731.38 960"
         id="path14331" />
      <path
         d="M -1740.734727,959.418534 A 75.590551,75.590551 0.000000 0 0 -1731.376921,960.000000"
         style="fill:none;stroke:#000000"
         id="path14333" />
      <path
         d="M -1759.884531,956.696976 A 566.929134,566.929134 0.000000 0 0 -1740.734727,959.418534"
         style="fill:none;stroke:#000000"
         id="path14335" />
      <path
         d="M -1899.752206,853.343023 A 188.976378,188.976378 0.000000 0 0 -1759.884531,956.696976"
         style="fill:none;stroke:#000000"
         id="path14337" />
      <path
         style="fill:none;stroke:#000000"
         d="M -1899.75 853.343 L -1918.69 814.75"
         id="path14339" />
      <path
         d="M -1973.285699,533.208798 A 548.031496,548.031496 0.000000 0 0 -1918.693775,814.749577"
         style="fill:none;stroke:#000000"
         id="path14341" />
      <path
         style="fill:none;stroke:#000000"
         d="M 1952.03 243.308 L 1973.29 533.209"
         id="path14343" />
      <path
         d="M 1918.693613,814.749577 A 548.031496,548.031496 0.000000 0 0 1973.285537,533.208798"
         style="fill:none;stroke:#000000"
         id="path14345" />
      <path
         style="fill:none;stroke:#000000"
         d="M 1918.69 814.75 L 1899.75 853.343"
         id="path14347" />
      <path
         d="M 1759.884369,956.696976 A 188.976378,188.976378 0.000000 0 0 1899.752044,853.343023"
         style="fill:none;stroke:#000000"
         id="path14349" />
      <path
         d="M 1740.734565,959.418534 A 566.929134,566.929134 0.000000 0 0 1759.884369,956.696976"
         style="fill:none;stroke:#000000"
         id="path14351" />
      <path
         d="M 1731.376759,960.000000 A 75.590551,75.590551 0.000000 0 0 1740.734565,959.418534"
         style="fill:none;stroke:#000000"
         id="path14353" />
      <path
         style="fill:none;stroke:#000000"
         d="M 1731.38 960 L 1609.73 960"
         id="path14355" />
      <path
         d="M 1600.367393,959.418534 A 75.590551,75.590551 0.000000 0 0 1609.725199,960.000000"
         style="fill:none;stroke:#000000"
         id="path14357" />
      <path
         d="M 1581.217589,956.696976 A 566.929134,566.929134 0.000000 0 0 1600.367393,959.418534"
         style="fill:none;stroke:#000000"
         id="path14359" />
      <path
         d="M 1441.349914,853.343023 A 188.976378,188.976378 0.000000 0 0 1581.217589,956.696976"
         style="fill:none;stroke:#000000"
         id="path14361" />
      <path
         style="fill:none;stroke:#000000"
         d="M 1441.35 853.343 L 1414.84 799.335"
         id="path14363" />
      <path
         d="M 1356.850151,549.550278 A 566.929134,566.929134 0.000000 0 0 1414.842910,799.335002"
         style="fill:none;stroke:#000000"
         id="path14365" />
      <path
         style="fill:none;stroke:#000000"
         d="M 1356.85 549.55 L 1356.85 263.339"
         id="path14367" />
      <path
         d="M 1504.251726,78.992223 A 188.976378,188.976378 0.000000 0 0 1356.850151,263.338655"
         style="fill:none;stroke:#000000"
         id="path14369" />
      <path
         d="M 1590.982242,64.671916 A 755.905512,755.905512 0.000000 0 0 1504.251726,78.992223"
         style="fill:none;stroke:#000000"
         id="path14371" />
      <path
         d="M 1598.939116,64.251969 A 75.590551,75.590551 0.000000 0 0 1590.982242,64.671916"
         style="fill:none;stroke:#000000"
         id="path14373" />
      <path
         style="fill:none;stroke:#000000"
         d="M 1598.94 64.252 L 1670.55 64.252"
         id="path14375" />
      <path
         style="fill:none;stroke:#000000"
         d="M 1670.55 64.252 L 1742.16 64.252"
         id="path14377" />
      <path
         d="M 1750.119716,64.671916 A 75.590549,75.590549 0.000000 0 0 1742.162842,64.251969"
         style="fill:none;stroke:#000000"
         id="path14379" />
      <path
         d="M 1794.556897,70.713360 A 755.905512,755.905512 0.000000 0 0 1750.119716,64.671916"
         style="fill:none;stroke:#000000"
         id="path14381" />
      <path
         d="M 1952.025688,243.308055 A 188.976378,188.976378 0.000000 0 0 1794.556897,70.713360"
         style="fill:none;stroke:#000000"
         id="path14383" />
      <path
         style="fill:none;stroke:#000000"
         d="M 2165.67 -86.9291 L -2165.67 -86.9291"
         id="path14385" />
      <path
         style="fill:none;stroke:#000000"
         d="M -2165.67 -86.9291 L -2165.67 64.252"
         id="path14387" />
      <path
         style="fill:none;stroke:#000000"
         d="M -2165.67 64.252 L -2124 113.014"
         id="path14389" />
      <path
         style="fill:none;stroke:#000000"
         d="M -2124 113.014 L -2146.46 399.378"
         id="path14391" />
      <path
         style="fill:none;stroke:#000000"
         d="M -2146.46 399.378 L -2195.22 441.048"
         id="path14393" />
      <path
         style="fill:none;stroke:#000000"
         d="M -2195.22 441.048 L -2241.26 1046.93"
         id="path14395" />
      <path
         style="fill:none;stroke:#000000"
         d="M -2241.26 1046.93 L -2241.26 1122.52"
         id="path14397" />
      <path
         style="fill:none;stroke:#000000"
         d="M -2241.26 1122.52 L 2241.26 1122.52"
         id="path14399" />
      <path
         style="fill:none;stroke:#000000"
         d="M 2241.26 1122.52 L 2241.26 1046.93"
         id="path14401" />
      <path
         style="fill:none;stroke:#000000"
         d="M 2241.26 1046.93 L 2195.22 441.048"
         id="path14403" />
      <path
         style="fill:none;stroke:#000000"
         d="M 2195.22 441.048 L 2146.46 399.378"
         id="path14405" />
      <path
         style="fill:none;stroke:#000000"
         d="M 2146.46 399.378 L 2124 113.014"
         id="path14407" />
      <path
         style="fill:none;stroke:#000000"
         d="M 2124 113.014 L 2165.67 64.252"
         id="path14409" />
      <path
         style="fill:none;stroke:#000000"
         d="M 2165.67 64.252 L 2165.67 -86.9291"
         id="path14411" />
    </symbol>
    <symbol
       id="VBI_HVU32_DDRSN_RO">
      <path
         d="M -2267.716531,1455.118104 L -2086.299209,1122.519679 L -1738.582673,1621.417317 L -1390.866138,1122.519679 L -1043.149602,1621.417317 L -695.433067,1122.519679 L -347.716531,1621.417317 L 0.000004,1122.519679 L 347.716539,1621.417317 L 695.433075,1122.519679 L 1043.149610,1621.417317 L 1390.866146,1122.519679 L 1700.787406,1583.622041"
         style="fill:none;stroke:#000000"
         id="path14414" />
      <path
         d="M -2241.259843,1122.519685 L -2267.716531,1122.519679 L -2267.716531,1621.417317 L 1700.787406,1621.417317 L 1700.787406,1122.519679"
         style="fill:none;stroke:#000000"
         id="path14416" />
      <use
         xlink:href="#%2AU8"
         style="stroke-width:0.500px"
         id="use14418" />
      <path
         d="M 2267.716535,1122.519685 L 2241.259843,1122.519685 L 2241.259843,1046.929134 L 2195.221888,441.047576 L 2146.460104,399.378415 L 2124.000130,113.013753 L 2165.669291,64.251969 L 2165.669291,-86.929134 L 2369.763780,-86.929134 L 2369.763780,64.251969 L 2411.432941,113.013753 L 2388.972967,399.378415 L 2340.211183,441.047576 L 2294.173228,1046.929134 L 2294.173228,1122.519685 L 2267.716535,1122.519685 z"
         style="fill:none;stroke:#FF0000"
         id="path14420" />
    </symbol>
    <symbol
       id="*U8">
      <path
         d="M 755.706720,64.671926 A 755.905512,755.905512 0.000000 0 0 668.976378,78.992223"
         style="fill:none;stroke:#000000"
         id="path14423" />
      <path
         d="M 763.663606,64.251977 A 75.590551,75.590551 0.000000 0 0 755.706720,64.671926"
         style="fill:none;stroke:#000000"
         id="path14425" />
      <path
         style="fill:none;stroke:#000000"
         d="M 763.664 64.252 L 906.887 64.252"
         id="path14427" />
      <path
         d="M 914.844287,64.671916 A 75.590551,75.590551 0.000000 0 0 906.887413,64.251969"
         style="fill:none;stroke:#000000"
         id="path14429" />
      <path
         d="M 1001.574803,78.992223 A 755.905512,755.905512 0.000000 0 0 914.844287,64.671916"
         style="fill:none;stroke:#000000"
         id="path14431" />
      <path
         d="M 1148.976378,263.338655 A 188.976378,188.976378 0.000000 0 0 1001.574803,78.992223"
         style="fill:none;stroke:#000000"
         id="path14433" />
      <path
         style="fill:none;stroke:#000000"
         d="M 1148.98 263.339 L 1148.98 549.55"
         id="path14435" />
      <path
         d="M 1090.983620,799.335002 A 566.929134,566.929134 0.000000 0 0 1148.976378,549.550278"
         style="fill:none;stroke:#000000"
         id="path14437" />
      <path
         style="fill:none;stroke:#000000"
         d="M 1090.98 799.335 L 1064.48 853.343"
         id="path14439" />
      <path
         d="M 924.608940,956.696976 A 188.976378,188.976378 0.000000 0 0 1064.476616,853.343023"
         style="fill:none;stroke:#000000"
         id="path14441" />
      <path
         d="M 905.459136,959.418534 A 566.929134,566.929134 0.000000 0 0 924.608940,956.696976"
         style="fill:none;stroke:#000000"
         id="path14443" />
      <path
         d="M 896.101330,960.000000 A 75.590551,75.590551 0.000000 0 0 905.459136,959.418534"
         style="fill:none;stroke:#000000"
         id="path14445" />
      <path
         style="fill:none;stroke:#000000"
         d="M 896.101 960 L 774.45 960"
         id="path14447" />
      <path
         d="M 765.092045,959.418534 A 75.590551,75.590551 0.000000 0 0 774.449851,960.000000"
         style="fill:none;stroke:#000000"
         id="path14449" />
      <path
         d="M 745.942241,956.696976 A 566.929134,566.929134 0.000000 0 0 765.092045,959.418534"
         style="fill:none;stroke:#000000"
         id="path14451" />
      <path
         d="M 606.074566,853.343023 A 188.976378,188.976378 0.000000 0 0 745.942241,956.696976"
         style="fill:none;stroke:#000000"
         id="path14453" />
      <path
         style="fill:none;stroke:#000000"
         d="M 606.075 853.343 L 579.568 799.335"
         id="path14455" />
      <path
         d="M 521.574803,549.550278 A 566.929134,566.929134 0.000000 0 0 579.567561,799.335002"
         style="fill:none;stroke:#000000"
         id="path14457" />
      <path
         style="fill:none;stroke:#000000"
         d="M 521.575 549.55 L 521.575 263.339"
         id="path14459" />
      <path
         d="M 668.976378,78.992223 A 188.976378,188.976378 0.000000 0 0 521.574803,263.338655"
         style="fill:none;stroke:#000000"
         id="path14461" />
      <path
         d="M -79.568870,64.671926 A 755.905512,755.905512 0.000000 0 0 -166.299213,78.992223"
         style="fill:none;stroke:#000000"
         id="path14463" />
      <path
         d="M -71.611984,64.251977 A 75.590551,75.590551 0.000000 0 0 -79.568870,64.671926"
         style="fill:none;stroke:#000000"
         id="path14465" />
      <path
         style="fill:none;stroke:#000000"
         d="M -71.612 64.252 L 71.6118 64.252"
         id="path14467" />
      <path
         d="M 79.568697,64.671916 A 75.590551,75.590551 0.000000 0 0 71.611823,64.251969"
         style="fill:none;stroke:#000000"
         id="path14469" />
      <path
         d="M 166.299213,78.992223 A 755.905512,755.905512 0.000000 0 0 79.568697,64.671916"
         style="fill:none;stroke:#000000"
         id="path14471" />
      <path
         d="M 313.700787,263.338655 A 188.976378,188.976378 0.000000 0 0 166.299213,78.992223"
         style="fill:none;stroke:#000000"
         id="path14473" />
      <path
         style="fill:none;stroke:#000000"
         d="M 313.701 263.339 L 313.701 549.55"
         id="path14475" />
      <path
         d="M 255.708029,799.335002 A 566.929134,566.929134 0.000000 0 0 313.700787,549.550278"
         style="fill:none;stroke:#000000"
         id="path14477" />
      <path
         style="fill:none;stroke:#000000"
         d="M 255.708 799.335 L 229.201 853.343"
         id="path14479" />
      <path
         d="M 89.333350,956.696976 A 188.976378,188.976378 0.000000 0 0 229.201025,853.343023"
         style="fill:none;stroke:#000000"
         id="path14481" />
      <path
         d="M 70.183546,959.418534 A 566.929134,566.929134 0.000000 0 0 89.333350,956.696976"
         style="fill:none;stroke:#000000"
         id="path14483" />
      <path
         d="M 60.825740,960.000000 A 75.590551,75.590551 0.000000 0 0 70.183546,959.418534"
         style="fill:none;stroke:#000000"
         id="path14485" />
      <path
         style="fill:none;stroke:#000000"
         d="M 60.8257 960 L -60.8257 960"
         id="path14487" />
      <path
         d="M -70.183546,959.418534 A 75.590551,75.590551 0.000000 0 0 -60.825740,960.000000"
         style="fill:none;stroke:#000000"
         id="path14489" />
      <path
         d="M -89.333350,956.696976 A 566.929134,566.929134 0.000000 0 0 -70.183546,959.418534"
         style="fill:none;stroke:#000000"
         id="path14491" />
      <path
         d="M -229.201025,853.343023 A 188.976378,188.976378 0.000000 0 0 -89.333350,956.696976"
         style="fill:none;stroke:#000000"
         id="path14493" />
      <path
         style="fill:none;stroke:#000000"
         d="M -229.201 853.343 L -255.708 799.335"
         id="path14495" />
      <path
         d="M -313.700787,549.550278 A 566.929134,566.929134 0.000000 0 0 -255.708029,799.335002"
         style="fill:none;stroke:#000000"
         id="path14497" />
      <path
         style="fill:none;stroke:#000000"
         d="M -313.701 549.55 L -313.701 263.339"
         id="path14499" />
      <path
         d="M -166.299213,78.992223 A 188.976378,188.976378 0.000000 0 0 -313.700787,263.338655"
         style="fill:none;stroke:#000000"
         id="path14501" />
      <path
         d="M -668.976378,78.992223 A 755.905512,755.905512 0.000000 0 0 -755.706720,64.671926"
         style="fill:none;stroke:#000000"
         id="path14503" />
      <path
         d="M -521.574803,263.338655 A 188.976378,188.976378 0.000000 0 0 -668.976378,78.992223"
         style="fill:none;stroke:#000000"
         id="path14505" />
      <path
         style="fill:none;stroke:#000000"
         d="M -521.575 263.339 L -521.575 549.55"
         id="path14507" />
      <path
         d="M -579.567561,799.335002 A 566.929134,566.929134 0.000000 0 0 -521.574803,549.550278"
         style="fill:none;stroke:#000000"
         id="path14509" />
      <path
         style="fill:none;stroke:#000000"
         d="M -579.568 799.335 L -606.075 853.343"
         id="path14511" />
      <path
         d="M -745.942241,956.696976 A 188.976378,188.976378 0.000000 0 0 -606.074566,853.343023"
         style="fill:none;stroke:#000000"
         id="path14513" />
      <path
         d="M -765.092045,959.418534 A 566.929134,566.929134 0.000000 0 0 -745.942241,956.696976"
         style="fill:none;stroke:#000000"
         id="path14515" />
      <path
         d="M -774.449851,960.000000 A 75.590551,75.590551 0.000000 0 0 -765.092045,959.418534"
         style="fill:none;stroke:#000000"
         id="path14517" />
      <path
         style="fill:none;stroke:#000000"
         d="M -774.45 960 L -896.101 960"
         id="path14519" />
      <path
         d="M -905.459136,959.418534 A 75.590551,75.590551 0.000000 0 0 -896.101330,960.000000"
         style="fill:none;stroke:#000000"
         id="path14521" />
      <path
         d="M -924.608940,956.696976 A 566.929134,566.929134 0.000000 0 0 -905.459136,959.418534"
         style="fill:none;stroke:#000000"
         id="path14523" />
      <path
         d="M -1064.476616,853.343023 A 188.976378,188.976378 0.000000 0 0 -924.608940,956.696976"
         style="fill:none;stroke:#000000"
         id="path14525" />
      <path
         style="fill:none;stroke:#000000"
         d="M -1064.48 853.343 L -1090.98 799.335"
         id="path14527" />
      <path
         d="M -1148.976378,549.550278 A 566.929134,566.929134 0.000000 0 0 -1090.983620,799.335002"
         style="fill:none;stroke:#000000"
         id="path14529" />
      <path
         style="fill:none;stroke:#000000"
         d="M -1148.98 549.55 L -1148.98 263.339"
         id="path14531" />
      <path
         d="M -1001.574803,78.992223 A 188.976378,188.976378 0.000000 0 0 -1148.976378,263.338655"
         style="fill:none;stroke:#000000"
         id="path14533" />
      <path
         d="M -914.844287,64.671916 A 755.905512,755.905512 0.000000 0 0 -1001.574803,78.992223"
         style="fill:none;stroke:#000000"
         id="path14535" />
      <path
         d="M -906.887413,64.251969 A 75.590551,75.590551 0.000000 0 0 -914.844287,64.671916"
         style="fill:none;stroke:#000000"
         id="path14537" />
      <path
         style="fill:none;stroke:#000000"
         d="M -906.887 64.252 L -763.664 64.252"
         id="path14539" />
      <path
         d="M -755.706720,64.671926 A 75.590551,75.590551 0.000000 0 0 -763.663606,64.251977"
         style="fill:none;stroke:#000000"
         id="path14541" />
      <path
         style="fill:none;stroke:#000000"
         d="M -1973.29 533.209 L -1952.03 243.308"
         id="path14543" />
      <path
         d="M -1794.557059,70.713360 A 188.976378,188.976378 0.000000 0 0 -1952.025849,243.308055"
         style="fill:none;stroke:#000000"
         id="path14545" />
      <path
         d="M -1750.119877,64.671916 A 755.905512,755.905512 0.000000 0 0 -1794.557059,70.713360"
         style="fill:none;stroke:#000000"
         id="path14547" />
      <path
         d="M -1742.163004,64.251969 A 75.590549,75.590549 0.000000 0 0 -1750.119877,64.671916"
         style="fill:none;stroke:#000000"
         id="path14549" />
      <path
         style="fill:none;stroke:#000000"
         d="M -1742.16 64.252 L -1670.55 64.252"
         id="path14551" />
      <path
         style="fill:none;stroke:#000000"
         d="M -1670.55 64.252 L -1598.94 64.252"
         id="path14553" />
      <path
         d="M -1590.982404,64.671916 A 75.590551,75.590551 0.000000 0 0 -1598.939278,64.251969"
         style="fill:none;stroke:#000000"
         id="path14555" />
      <path
         d="M -1504.251888,78.992223 A 755.905512,755.905512 0.000000 0 0 -1590.982404,64.671916"
         style="fill:none;stroke:#000000"
         id="path14557" />
      <path
         d="M -1356.850313,263.338655 A 188.976378,188.976378 0.000000 0 0 -1504.251888,78.992223"
         style="fill:none;stroke:#000000"
         id="path14559" />
      <path
         style="fill:none;stroke:#000000"
         d="M -1356.85 263.339 L -1356.85 549.55"
         id="path14561" />
      <path
         d="M -1414.843071,799.335002 A 566.929134,566.929134 0.000000 0 0 -1356.850313,549.550278"
         style="fill:none;stroke:#000000"
         id="path14563" />
      <path
         style="fill:none;stroke:#000000"
         d="M -1414.84 799.335 L -1441.35 853.343"
         id="path14565" />
      <path
         d="M -1581.217751,956.696976 A 188.976378,188.976378 0.000000 0 0 -1441.350075,853.343023"
         style="fill:none;stroke:#000000"
         id="path14567" />
      <path
         d="M -1600.367555,959.418534 A 566.929134,566.929134 0.000000 0 0 -1581.217751,956.696976"
         style="fill:none;stroke:#000000"
         id="path14569" />
      <path
         d="M -1609.725361,960.000000 A 75.590551,75.590551 0.000000 0 0 -1600.367555,959.418534"
         style="fill:none;stroke:#000000"
         id="path14571" />
      <path
         style="fill:none;stroke:#000000"
         d="M -1609.73 960 L -1731.38 960"
         id="path14573" />
      <path
         d="M -1740.734727,959.418534 A 75.590551,75.590551 0.000000 0 0 -1731.376921,960.000000"
         style="fill:none;stroke:#000000"
         id="path14575" />
      <path
         d="M -1759.884531,956.696976 A 566.929134,566.929134 0.000000 0 0 -1740.734727,959.418534"
         style="fill:none;stroke:#000000"
         id="path14577" />
      <path
         d="M -1899.752206,853.343023 A 188.976378,188.976378 0.000000 0 0 -1759.884531,956.696976"
         style="fill:none;stroke:#000000"
         id="path14579" />
      <path
         style="fill:none;stroke:#000000"
         d="M -1899.75 853.343 L -1918.69 814.75"
         id="path14581" />
      <path
         d="M -1973.285699,533.208798 A 548.031496,548.031496 0.000000 0 0 -1918.693775,814.749577"
         style="fill:none;stroke:#000000"
         id="path14583" />
      <path
         style="fill:none;stroke:#000000"
         d="M 1952.03 243.308 L 1973.29 533.209"
         id="path14585" />
      <path
         d="M 1918.693613,814.749577 A 548.031496,548.031496 0.000000 0 0 1973.285537,533.208798"
         style="fill:none;stroke:#000000"
         id="path14587" />
      <path
         style="fill:none;stroke:#000000"
         d="M 1918.69 814.75 L 1899.75 853.343"
         id="path14589" />
      <path
         d="M 1759.884369,956.696976 A 188.976378,188.976378 0.000000 0 0 1899.752044,853.343023"
         style="fill:none;stroke:#000000"
         id="path14591" />
      <path
         d="M 1740.734565,959.418534 A 566.929134,566.929134 0.000000 0 0 1759.884369,956.696976"
         style="fill:none;stroke:#000000"
         id="path14593" />
      <path
         d="M 1731.376759,960.000000 A 75.590551,75.590551 0.000000 0 0 1740.734565,959.418534"
         style="fill:none;stroke:#000000"
         id="path14595" />
      <path
         style="fill:none;stroke:#000000"
         d="M 1731.38 960 L 1609.73 960"
         id="path14597" />
      <path
         d="M 1600.367393,959.418534 A 75.590551,75.590551 0.000000 0 0 1609.725199,960.000000"
         style="fill:none;stroke:#000000"
         id="path14599" />
      <path
         d="M 1581.217589,956.696976 A 566.929134,566.929134 0.000000 0 0 1600.367393,959.418534"
         style="fill:none;stroke:#000000"
         id="path14601" />
      <path
         d="M 1441.349914,853.343023 A 188.976378,188.976378 0.000000 0 0 1581.217589,956.696976"
         style="fill:none;stroke:#000000"
         id="path14603" />
      <path
         style="fill:none;stroke:#000000"
         d="M 1441.35 853.343 L 1414.84 799.335"
         id="path14605" />
      <path
         d="M 1356.850151,549.550278 A 566.929134,566.929134 0.000000 0 0 1414.842910,799.335002"
         style="fill:none;stroke:#000000"
         id="path14607" />
      <path
         style="fill:none;stroke:#000000"
         d="M 1356.85 549.55 L 1356.85 263.339"
         id="path14609" />
      <path
         d="M 1504.251726,78.992223 A 188.976378,188.976378 0.000000 0 0 1356.850151,263.338655"
         style="fill:none;stroke:#000000"
         id="path14611" />
      <path
         d="M 1590.982242,64.671916 A 755.905512,755.905512 0.000000 0 0 1504.251726,78.992223"
         style="fill:none;stroke:#000000"
         id="path14613" />
      <path
         d="M 1598.939116,64.251969 A 75.590551,75.590551 0.000000 0 0 1590.982242,64.671916"
         style="fill:none;stroke:#000000"
         id="path14615" />
      <path
         style="fill:none;stroke:#000000"
         d="M 1598.94 64.252 L 1670.55 64.252"
         id="path14617" />
      <path
         style="fill:none;stroke:#000000"
         d="M 1670.55 64.252 L 1742.16 64.252"
         id="path14619" />
      <path
         d="M 1750.119716,64.671916 A 75.590549,75.590549 0.000000 0 0 1742.162842,64.251969"
         style="fill:none;stroke:#000000"
         id="path14621" />
      <path
         d="M 1794.556897,70.713360 A 755.905512,755.905512 0.000000 0 0 1750.119716,64.671916"
         style="fill:none;stroke:#000000"
         id="path14623" />
      <path
         d="M 1952.025688,243.308055 A 188.976378,188.976378 0.000000 0 0 1794.556897,70.713360"
         style="fill:none;stroke:#000000"
         id="path14625" />
      <path
         style="fill:none;stroke:#000000"
         d="M 2165.67 -86.9291 L -2165.67 -86.9291"
         id="path14627" />
      <path
         style="fill:none;stroke:#000000"
         d="M -2165.67 -86.9291 L -2165.67 64.252"
         id="path14629" />
      <path
         style="fill:none;stroke:#000000"
         d="M -2165.67 64.252 L -2124 113.014"
         id="path14631" />
      <path
         style="fill:none;stroke:#000000"
         d="M -2124 113.014 L -2146.46 399.378"
         id="path14633" />
      <path
         style="fill:none;stroke:#000000"
         d="M -2146.46 399.378 L -2195.22 441.048"
         id="path14635" />
      <path
         style="fill:none;stroke:#000000"
         d="M -2195.22 441.048 L -2241.26 1046.93"
         id="path14637" />
      <path
         style="fill:none;stroke:#000000"
         d="M -2241.26 1046.93 L -2241.26 1122.52"
         id="path14639" />
      <path
         style="fill:none;stroke:#000000"
         d="M -2241.26 1122.52 L 2241.26 1122.52"
         id="path14641" />
      <path
         style="fill:none;stroke:#000000"
         d="M 2241.26 1122.52 L 2241.26 1046.93"
         id="path14643" />
      <path
         style="fill:none;stroke:#000000"
         d="M 2241.26 1046.93 L 2195.22 441.048"
         id="path14645" />
      <path
         style="fill:none;stroke:#000000"
         d="M 2195.22 441.048 L 2146.46 399.378"
         id="path14647" />
      <path
         style="fill:none;stroke:#000000"
         d="M 2146.46 399.378 L 2124 113.014"
         id="path14649" />
      <path
         style="fill:none;stroke:#000000"
         d="M 2124 113.014 L 2165.67 64.252"
         id="path14651" />
      <path
         style="fill:none;stroke:#000000"
         d="M 2165.67 64.252 L 2165.67 -86.9291"
         id="path14653" />
    </symbol>
  </defs>
  <g
     inkscape:groupmode="layer"
     inkscape:label="0"
     id="g14658" />
  <g
     inkscape:groupmode="layer"
     inkscape:label="concrete"
     id="g14672">
    <path
       id="path14660"
       style="fill:#c0c0c0;stroke:#000000;fill-opacity:1"
       d="M 102.04688 -585.82617 L 102.04688 -434.64648 L 143.7168 -385.88477 L 121.25586 -99.519531 L 72.494141 -57.849609 L 26.457031 548.03125 L 26.457031 623.62109 L 4508.9766 623.62109 L 4508.9766 548.03125 L 4462.9375 -57.849609 L 4414.1758 -99.519531 L 4391.7168 -385.88477 L 4433.3867 -434.64648 L 4433.3867 -585.82617 L 102.04688 -585.82617 z M 525.55273 -434.64648 L 597.16602 -434.64648 L 668.77734 -434.64648 A 75.590551 75.590551 0 0 1 676.73438 -434.22656 A 755.90551 755.90551 0 0 1 763.46484 -419.90625 A 188.97638 188.97638 0 0 1 910.86719 -235.55859 L 910.86719 50.652344 A 566.92913 566.92913 0 0 1 852.87305 300.4375 L 826.36719 354.44531 A 188.97638 188.97638 0 0 1 686.49805 457.79883 A 566.92913 566.92913 0 0 1 667.34961 460.52148 A 75.590551 75.590551 0 0 1 657.99023 461.10156 L 536.33984 461.10156 A 75.590551 75.590551 0 0 1 526.98242 460.52148 A 566.92913 566.92913 0 0 1 507.83203 457.79883 A 188.97638 188.97638 0 0 1 367.96484 354.44531 L 349.02344 315.85156 A 548.0315 548.0315 0 0 1 294.43164 34.310547 L 315.69141 -255.58984 A 188.97638 188.97638 0 0 1 473.16016 -428.18359 A 755.90551 755.90551 0 0 1 517.5957 -434.22656 A 75.590549 75.590549 0 0 1 525.55273 -434.64648 z M 1360.8301 -434.64648 L 1504.0527 -434.64648 A 75.590551 75.590551 0 0 1 1512.0098 -434.22656 A 755.90551 755.90551 0 0 1 1598.7402 -419.90625 A 188.97638 188.97638 0 0 1 1746.1426 -235.55859 L 1746.1426 50.652344 A 566.92913 566.92913 0 0 1 1688.1484 300.4375 L 1661.6426 354.44531 A 188.97638 188.97638 0 0 1 1521.7734 457.79883 A 566.92913 566.92913 0 0 1 1502.625 460.52148 A 75.590551 75.590551 0 0 1 1493.2676 461.10156 L 1371.6152 461.10156 A 75.590551 75.590551 0 0 1 1362.2578 460.52148 A 566.92913 566.92913 0 0 1 1343.1074 457.79883 A 188.97638 188.97638 0 0 1 1203.2402 354.44531 L 1176.7324 300.4375 A 566.92913 566.92913 0 0 1 1118.7402 50.652344 L 1118.7402 -235.55859 A 188.97638 188.97638 0 0 1 1266.1426 -419.90625 A 755.90551 755.90551 0 0 1 1352.873 -434.22656 A 75.590551 75.590551 0 0 1 1360.8301 -434.64648 z M 2196.1055 -434.64648 L 2339.3281 -434.64648 A 75.590551 75.590551 0 0 1 2347.2852 -434.22656 A 755.90551 755.90551 0 0 1 2434.0156 -419.90625 A 188.97638 188.97638 0 0 1 2581.418 -235.55859 L 2581.418 50.652344 A 566.92913 566.92913 0 0 1 2523.4238 300.4375 L 2496.918 354.44531 A 188.97638 188.97638 0 0 1 2357.0508 457.79883 A 566.92913 566.92913 0 0 1 2337.9004 460.52148 A 75.590551 75.590551 0 0 1 2328.543 461.10156 L 2206.8906 461.10156 A 75.590551 75.590551 0 0 1 2197.5332 460.52148 A 566.92913 566.92913 0 0 1 2178.3828 457.79883 A 188.97638 188.97638 0 0 1 2038.5156 354.44531 L 2012.0078 300.4375 A 566.92913 566.92913 0 0 1 1954.0156 50.652344 L 1954.0156 -235.55859 A 188.97638 188.97638 0 0 1 2101.418 -419.90625 A 755.90551 755.90551 0 0 1 2188.1484 -434.22656 A 75.590551 75.590551 0 0 1 2196.1055 -434.64648 z M 3031.3809 -434.64648 L 3174.6035 -434.64648 A 75.590551 75.590551 0 0 1 3182.5605 -434.22656 A 755.90551 755.90551 0 0 1 3269.291 -419.90625 A 188.97638 188.97638 0 0 1 3416.6934 -235.55859 L 3416.6934 50.652344 A 566.92913 566.92913 0 0 1 3358.6992 300.4375 L 3332.1934 354.44531 A 188.97638 188.97638 0 0 1 3192.3262 457.79883 A 566.92913 566.92913 0 0 1 3173.1758 460.52148 A 75.590551 75.590551 0 0 1 3163.8184 461.10156 L 3042.166 461.10156 A 75.590551 75.590551 0 0 1 3032.8086 460.52148 A 566.92913 566.92913 0 0 1 3013.6582 457.79883 A 188.97638 188.97638 0 0 1 2873.791 354.44531 L 2847.2832 300.4375 A 566.92913 566.92913 0 0 1 2789.291 50.652344 L 2789.291 -235.55859 A 188.97638 188.97638 0 0 1 2936.6934 -419.90625 A 755.90551 755.90551 0 0 1 3023.4238 -434.22656 A 75.590551 75.590551 0 0 1 3031.3809 -434.64648 z M 3866.6562 -434.64648 L 3938.2676 -434.64648 L 4009.8789 -434.64648 A 75.590549 75.590549 0 0 1 4017.8359 -434.22656 A 755.90551 755.90551 0 0 1 4062.2734 -428.18359 A 188.97638 188.97638 0 0 1 4219.7422 -255.58984 L 4241.002 34.310547 A 548.0315 548.0315 0 0 1 4186.4102 315.85156 L 4167.4688 354.44531 A 188.97638 188.97638 0 0 1 4027.6016 457.79883 A 566.92913 566.92913 0 0 1 4008.4512 460.52148 A 75.590551 75.590551 0 0 1 3999.0938 461.10156 L 3877.4414 461.10156 A 75.590551 75.590551 0 0 1 3868.084 460.52148 A 566.92913 566.92913 0 0 1 3848.9336 457.79883 A 188.97638 188.97638 0 0 1 3709.0664 354.44531 L 3682.5586 300.4375 A 566.92913 566.92913 0 0 1 3624.5664 50.652344 L 3624.5664 -235.55859 A 188.97638 188.97638 0 0 1 3771.9688 -419.90625 A 755.90551 755.90551 0 0 1 3858.6992 -434.22656 A 75.590551 75.590551 0 0 1 3866.6562 -434.64648 z " />
  </g>
  <g
     inkscape:groupmode="layer"
     inkscape:label="insulation"
     id="g14676">
    <path
       d="M 0.000000,623.622047 L 4535.433071,623.622047 L 4535.433071,1122.519685 L 0.000000,1122.519685 L 0.000000,623.622047 z"
       style="fill:#ffffff;stroke:#000000;fill-opacity:1"
       id="path14674" />
  </g>
</svg>
