<?xml version="1.0" encoding="UTF-8" standalone="no"?>
<svg
   viewBox="0 0 793.7007874015749 1122.5196850393702"
   width="793.7007874015749"
   height="1122.5196850393702"
   version="1.1"
   id="svg33410"
   sodipodi:docname="QL200Q200.svg"
   inkscape:version="1.2.2 (732a01da63, 2022-12-09)"
   xmlns:inkscape="http://www.inkscape.org/namespaces/inkscape"
   xmlns:sodipodi="http://sodipodi.sourceforge.net/DTD/sodipodi-0.dtd"
   xmlns:xlink="http://www.w3.org/1999/xlink"
   xmlns="http://www.w3.org/2000/svg"
   xmlns:svg="http://www.w3.org/2000/svg">
  <sodipodi:namedview
     id="namedview33412"
     pagecolor="#ffffff"
     bordercolor="#000000"
     borderopacity="0.25"
     inkscape:showpageshadow="2"
     inkscape:pageopacity="0.0"
     inkscape:pagecheckerboard="0"
     inkscape:deskcolor="#d1d1d1"
     showgrid="false"
     inkscape:zoom="0.36976785"
     inkscape:cx="1959.3375"
     inkscape:cy="302.89275"
     inkscape:window-width="3440"
     inkscape:window-height="1377"
     inkscape:window-x="-8"
     inkscape:window-y="-8"
     inkscape:window-maximized="1"
     inkscape:current-layer="g33408" />
  <desc
     id="desc32928">QL200Q200.dxf - scale = 1.000000, origin = (0.000000, 0.000000), method = manual</desc>
  <defs
     id="defs33384">
    <marker
       id="DistanceX"
       orient="auto"
       refX="0.0"
       refY="0.0"
       style="overflow:visible">
      <path
         d="M 3,-3 L -3,3 M 0,-5 L  0,5"
         style="stroke:#000000; stroke-width:0.5"
         id="path32930" />
    </marker>
    <pattern
       id="Hatch"
       patternUnits="userSpaceOnUse"
       width="8"
       height="8"
       x="0"
       y="0">
      <path
         d="M8 4 l-4,4"
         stroke="#000000"
         stroke-width="0.25"
         linecap="square"
         id="path32933" />
      <path
         d="M6 2 l-4,4"
         stroke="#000000"
         stroke-width="0.25"
         linecap="square"
         id="path32935" />
      <path
         d="M4 0 l-4,4"
         stroke="#000000"
         stroke-width="0.25"
         linecap="square"
         id="path32937" />
    </pattern>
    <symbol
       id="*Model_Space" />
    <symbol
       id="*Paper_Space" />
    <symbol
       id="$MODEL_SPACE" />
    <symbol
       id="$PAPER_SPACE" />
    <symbol
       id="DIMDOT">
      <path
         style="fill:none;stroke:#000000"
         d="M -7.55905 1122.52 L 7.55905 1122.52"
         id="path32944" />
      <path
         style="fill:none;stroke:#000000"
         d="M 0 1135.75 L 0 1109.29"
         id="path32946" />
      <path
         d="M 1.889764,1122.519685 A 1.889764,1.889764 0.000000 0, 0 -1.889764,1122.519685 A 1.889764,1.889764 0.000000 0, 0 1.889764,1122.519685 z"
         style="fill:none;stroke:#000000"
         id="path32948" />
      <path
         d="M 0.944882,1122.519685 A 0.944882,0.944882 0.000000 0, 0 -0.944882,1122.519685 A 0.944882,0.944882 0.000000 0, 0 0.944882,1122.519685 z"
         style="fill:none;stroke:#000000"
         id="path32950" />
    </symbol>
    <symbol
       id="VBI_QL200_DDRSN_NP">
      <path
         d="M 2267.716535,1122.519685 L 2267.716535,1697.007874 L -2267.716535,1697.007874 L -2267.716535,1122.519685 L 2267.716535,1122.519685"
         style="fill:none;stroke:#000000;stroke-linecap: round"
         id="path32953" />
      <path
         d="M 2267.716535,1296.899947 L 2139.225816,1122.519685 L 1604.522128,1697.007874 L 1069.818439,1122.519685 L 535.114751,1697.007874 L 0.411063,1122.519685 L -534.292626,1697.007874 L -1068.996314,1122.519685 L -1603.700002,1697.007874 L -2138.403691,1122.519685 L -2267.716535,1298.015688"
         style="fill:none;stroke:#000000"
         id="path32955" />
      <path
         d="M 2184.566932,366.614176 L 2350.866145,366.614176 L 2350.866145,517.795278 L 2396.220476,563.149609 L 2396.220476,631.181105 L 2350.866145,744.566932 L 2350.866145,1122.519688 L 2184.566932,1122.519688 L 2184.566932,744.566932 L 2139.212602,631.181105 L 2139.212602,563.149609 L 2184.566932,517.795278 L 2184.566932,366.614176 z"
         style="fill:none;stroke:#FF0000"
         id="path32957" />
      <path
         d="M -2139.212595,563.149609 L -2139.212595,631.181105 L -2184.566926,744.566932 L -2184.566926,1122.519688 L 2184.566932,1122.519688 L 2184.566932,744.566932 L 2139.212602,631.181105 L 2139.212602,563.149609 L 2184.566932,517.795278 L 2184.566932,366.614176 L -2184.566926,366.614176 L -2184.566926,517.795278 L -2139.212595,563.149609 z"
         style="fill:none;stroke:#000000"
         id="path32959" />
      <path
         d="M 0.000003,1009.142093 A 377.953114,377.953114 0.0 0 1 -205.511759,948.385247 A 75.590551,75.590551 0.0 0 1 -239.999997,884.946053 L -239.999997,752.926652 A 226.771654,226.771654 0.0 0 1 -203.083895,628.909508 A 359.055118,359.055118 0.0 0 0 -191.731853,610.323087 A 220.679061,220.679061 0.0 0 1 0.000003,498.905837 A 220.679061,220.679061 0.0 0 1 191.731859,610.323087 A 359.055118,359.055118 0.0 0 0 203.083902,628.909508 A 226.771654,226.771654 0.0 0 1 240.000003,752.926652 L 240.000003,884.946053 A 75.590551,75.590551 0.0 0 1 205.511766,948.385247 A 377.953114,377.953114 0.0 0 1 0.000003,1009.142093 z"
         style="fill:none;stroke:#000000"
         id="path32961" />
      <path
         d="M -593.385823,1009.142093 A 377.953114,377.953114 0.0 0 1 -798.897586,948.385247 A 75.590551,75.590551 0.0 0 1 -833.385823,884.946053 L -833.385823,752.926652 A 226.771654,226.771654 0.0 0 1 -796.469722,628.909508 A 359.055118,359.055118 0.0 0 0 -785.117680,610.323087 A 220.679061,220.679061 0.0 0 1 -593.385823,498.905837 A 220.679061,220.679061 0.0 0 1 -401.653967,610.323087 A 359.055118,359.055118 0.0 0 0 -390.301925,628.909508 A 226.771654,226.771654 0.0 0 1 -353.385823,752.926652 L -353.385823,884.946053 A 75.590551,75.590551 0.0 0 1 -387.874061,948.385247 A 377.953114,377.953114 0.0 0 1 -593.385823,1009.142093 z"
         style="fill:none;stroke:#000000"
         id="path32963" />
      <path
         d="M -1186.771650,1009.142093 A 377.953114,377.953114 0.0 0 1 -1392.283413,948.385247 A 75.590551,75.590551 0.0 0 1 -1426.771650,884.946053 L -1426.771650,752.926652 A 226.771654,226.771654 0.0 0 1 -1389.855549,628.909508 A 359.055118,359.055118 0.0 0 0 -1378.503506,610.323087 A 220.679061,220.679061 0.0 0 1 -1186.771650,498.905837 A 220.679061,220.679061 0.0 0 1 -995.039794,610.323087 A 359.055118,359.055118 0.0 0 0 -983.687752,628.909508 A 226.771654,226.771654 0.0 0 1 -946.771650,752.926652 L -946.771650,884.946053 A 75.590551,75.590551 0.0 0 1 -981.259888,948.385247 A 377.953114,377.953114 0.0 0 1 -1186.771650,1009.142093 z"
         style="fill:none;stroke:#000000"
         id="path32965" />
      <path
         d="M -1780.157477,1009.142093 A 377.953114,377.953114 0.0 0 1 -1985.669239,948.385247 A 75.590551,75.590551 0.0 0 1 -2020.157477,884.946053 L -2020.157477,752.926652 A 226.771654,226.771654 0.0 0 1 -1983.241376,628.909508 A 359.055118,359.055118 0.0 0 0 -1971.889333,610.323087 A 220.679061,220.679061 0.0 0 1 -1780.157477,498.905837 A 220.679061,220.679061 0.0 0 1 -1588.425621,610.323087 A 359.055118,359.055118 0.0 0 0 -1577.073578,628.909508 A 226.771654,226.771654 0.0 0 1 -1540.157477,752.926652 L -1540.157477,884.946053 A 75.590551,75.590551 0.0 0 1 -1574.645715,948.385247 A 377.953114,377.953114 0.0 0 1 -1780.157477,1009.142093 z"
         style="fill:none;stroke:#000000"
         id="path32967" />
      <path
         d="M 593.385830,1009.142093 A 377.953114,377.953114 0.0 0 0 798.897592,948.385247 A 75.590551,75.590551 0.0 0 0 833.385830,884.946053 L 833.385830,752.926652 A 226.771654,226.771654 0.0 0 0 796.469729,628.909508 A 359.055118,359.055118 0.0 0 1 785.117686,610.323087 A 220.679061,220.679061 0.0 0 0 593.385830,498.905837 A 220.679061,220.679061 0.0 0 0 401.653974,610.323087 A 359.055118,359.055118 0.0 0 1 390.301931,628.909508 A 226.771654,226.771654 0.0 0 0 353.385830,752.926652 L 353.385830,884.946053 A 75.590551,75.590551 0.0 0 0 387.874068,948.385247 A 377.953114,377.953114 0.0 0 0 593.385830,1009.142093 z"
         style="fill:none;stroke:#000000"
         id="path32969" />
      <path
         d="M 1186.771657,1009.142093 A 377.953114,377.953114 0.0 0 0 1392.283419,948.385247 A 75.590551,75.590551 0.0 0 0 1426.771657,884.946053 L 1426.771657,752.926652 A 226.771654,226.771654 0.0 0 0 1389.855556,628.909508 A 359.055118,359.055118 0.0 0 1 1378.503513,610.323087 A 220.679061,220.679061 0.0 0 0 1186.771657,498.905837 A 220.679061,220.679061 0.0 0 0 995.039801,610.323087 A 359.055118,359.055118 0.0 0 1 983.687758,628.909508 A 226.771654,226.771654 0.0 0 0 946.771657,752.926652 L 946.771657,884.946053 A 75.590551,75.590551 0.0 0 0 981.259895,948.385247 A 377.953114,377.953114 0.0 0 0 1186.771657,1009.142093 z"
         style="fill:none;stroke:#000000"
         id="path32971" />
      <path
         d="M 1780.157484,1009.142093 A 377.953114,377.953114 0.0 0 0 1985.669246,948.385247 A 75.590551,75.590551 0.0 0 0 2020.157484,884.946053 L 2020.157484,752.926652 A 226.771654,226.771654 0.0 0 0 1983.241382,628.909508 A 359.055118,359.055118 0.0 0 1 1971.889340,610.323087 A 220.679061,220.679061 0.0 0 0 1780.157484,498.905837 A 220.679061,220.679061 0.0 0 0 1588.425628,610.323087 A 359.055118,359.055118 0.0 0 1 1577.073585,628.909508 A 226.771654,226.771654 0.0 0 0 1540.157484,752.926652 L 1540.157484,884.946053 A 75.590551,75.590551 0.0 0 0 1574.645721,948.385247 A 377.953114,377.953114 0.0 0 0 1780.157484,1009.142093 z"
         style="fill:none;stroke:#000000"
         id="path32973" />
    </symbol>
    <symbol
       id="VBI_QL200_DDRSN_GR">
      <path
         style="fill:none;stroke:#FF0000"
         d="M 1781.67 1122.52 L 1897.32 1651.65"
         id="path32976" />
      <path
         style="fill:none;stroke:#FF0000"
         d="M 2161.89 1651.65 L 2182.3 1122.52"
         id="path32978" />
      <path
         d="M 2267.716535,1122.519685 L -2267.716535,1122.519685 L -2267.716535,1697.007874 L 1322.834646,1697.007874 L 1322.834646,1651.653543 L 2267.716535,1651.653543 L 2267.716535,1122.519685"
         style="fill:none;stroke:#000000"
         id="path32980" />
      <path
         d="M 2267.716535,1387.608609 L 2072.387855,1122.519685 L 1571.103147,1651.653543 L 1069.818439,1122.519685 L 535.114751,1697.007874 L 0.411063,1122.519685 L -534.292626,1697.007874 L -1068.996314,1122.519685 L -1603.700002,1697.007874 L -2138.403691,1122.519685 L -2267.716535,1298.015688"
         style="fill:none;stroke:#000000"
         id="path32982" />
      <path
         d="M -2139.212595,563.149609 L -2139.212595,631.181105 L -2184.566926,744.566932 L -2184.566926,1122.519688 L 2184.566932,1122.519688 L 2184.566932,744.566932 L 2139.212602,631.181105 L 2139.212602,563.149609 L 2184.566932,517.795278 L 2184.566932,366.614176 L -2184.566926,366.614176 L -2184.566926,517.795278 L -2139.212595,563.149609 z"
         style="fill:none;stroke:#000000"
         id="path32984" />
      <path
         d="M 0.000003,1009.142093 A 377.953114,377.953114 0.0 0 1 -205.511759,948.385247 A 75.590551,75.590551 0.0 0 1 -239.999997,884.946053 L -239.999997,752.926652 A 226.771654,226.771654 0.0 0 1 -203.083895,628.909508 A 359.055118,359.055118 0.0 0 0 -191.731853,610.323087 A 220.679061,220.679061 0.0 0 1 0.000003,498.905837 A 220.679061,220.679061 0.0 0 1 191.731859,610.323087 A 359.055118,359.055118 0.0 0 0 203.083902,628.909508 A 226.771654,226.771654 0.0 0 1 240.000003,752.926652 L 240.000003,884.946053 A 75.590551,75.590551 0.0 0 1 205.511766,948.385247 A 377.953114,377.953114 0.0 0 1 0.000003,1009.142093 z"
         style="fill:none;stroke:#000000"
         id="path32986" />
      <path
         d="M -593.385823,1009.142093 A 377.953114,377.953114 0.0 0 1 -798.897586,948.385247 A 75.590551,75.590551 0.0 0 1 -833.385823,884.946053 L -833.385823,752.926652 A 226.771654,226.771654 0.0 0 1 -796.469722,628.909508 A 359.055118,359.055118 0.0 0 0 -785.117680,610.323087 A 220.679061,220.679061 0.0 0 1 -593.385823,498.905837 A 220.679061,220.679061 0.0 0 1 -401.653967,610.323087 A 359.055118,359.055118 0.0 0 0 -390.301925,628.909508 A 226.771654,226.771654 0.0 0 1 -353.385823,752.926652 L -353.385823,884.946053 A 75.590551,75.590551 0.0 0 1 -387.874061,948.385247 A 377.953114,377.953114 0.0 0 1 -593.385823,1009.142093 z"
         style="fill:none;stroke:#000000"
         id="path32988" />
      <path
         d="M -1186.771650,1009.142093 A 377.953114,377.953114 0.0 0 1 -1392.283413,948.385247 A 75.590551,75.590551 0.0 0 1 -1426.771650,884.946053 L -1426.771650,752.926652 A 226.771654,226.771654 0.0 0 1 -1389.855549,628.909508 A 359.055118,359.055118 0.0 0 0 -1378.503506,610.323087 A 220.679061,220.679061 0.0 0 1 -1186.771650,498.905837 A 220.679061,220.679061 0.0 0 1 -995.039794,610.323087 A 359.055118,359.055118 0.0 0 0 -983.687752,628.909508 A 226.771654,226.771654 0.0 0 1 -946.771650,752.926652 L -946.771650,884.946053 A 75.590551,75.590551 0.0 0 1 -981.259888,948.385247 A 377.953114,377.953114 0.0 0 1 -1186.771650,1009.142093 z"
         style="fill:none;stroke:#000000"
         id="path32990" />
      <path
         d="M -1780.157477,1009.142093 A 377.953114,377.953114 0.0 0 1 -1985.669239,948.385247 A 75.590551,75.590551 0.0 0 1 -2020.157477,884.946053 L -2020.157477,752.926652 A 226.771654,226.771654 0.0 0 1 -1983.241376,628.909508 A 359.055118,359.055118 0.0 0 0 -1971.889333,610.323087 A 220.679061,220.679061 0.0 0 1 -1780.157477,498.905837 A 220.679061,220.679061 0.0 0 1 -1588.425621,610.323087 A 359.055118,359.055118 0.0 0 0 -1577.073578,628.909508 A 226.771654,226.771654 0.0 0 1 -1540.157477,752.926652 L -1540.157477,884.946053 A 75.590551,75.590551 0.0 0 1 -1574.645715,948.385247 A 377.953114,377.953114 0.0 0 1 -1780.157477,1009.142093 z"
         style="fill:none;stroke:#000000"
         id="path32992" />
      <path
         d="M 593.385830,1009.142093 A 377.953114,377.953114 0.0 0 0 798.897592,948.385247 A 75.590551,75.590551 0.0 0 0 833.385830,884.946053 L 833.385830,752.926652 A 226.771654,226.771654 0.0 0 0 796.469729,628.909508 A 359.055118,359.055118 0.0 0 1 785.117686,610.323087 A 220.679061,220.679061 0.0 0 0 593.385830,498.905837 A 220.679061,220.679061 0.0 0 0 401.653974,610.323087 A 359.055118,359.055118 0.0 0 1 390.301931,628.909508 A 226.771654,226.771654 0.0 0 0 353.385830,752.926652 L 353.385830,884.946053 A 75.590551,75.590551 0.0 0 0 387.874068,948.385247 A 377.953114,377.953114 0.0 0 0 593.385830,1009.142093 z"
         style="fill:none;stroke:#000000"
         id="path32994" />
      <path
         d="M 1186.771657,1009.142093 A 377.953114,377.953114 0.0 0 0 1392.283419,948.385247 A 75.590551,75.590551 0.0 0 0 1426.771657,884.946053 L 1426.771657,752.926652 A 226.771654,226.771654 0.0 0 0 1389.855556,628.909508 A 359.055118,359.055118 0.0 0 1 1378.503513,610.323087 A 220.679061,220.679061 0.0 0 0 1186.771657,498.905837 A 220.679061,220.679061 0.0 0 0 995.039801,610.323087 A 359.055118,359.055118 0.0 0 1 983.687758,628.909508 A 226.771654,226.771654 0.0 0 0 946.771657,752.926652 L 946.771657,884.946053 A 75.590551,75.590551 0.0 0 0 981.259895,948.385247 A 377.953114,377.953114 0.0 0 0 1186.771657,1009.142093 z"
         style="fill:none;stroke:#000000"
         id="path32996" />
      <path
         d="M 1780.157484,1009.142093 A 377.953114,377.953114 0.0 0 0 1985.669246,948.385247 A 75.590551,75.590551 0.0 0 0 2020.157484,884.946053 L 2020.157484,752.926652 A 226.771654,226.771654 0.0 0 0 1983.241382,628.909508 A 359.055118,359.055118 0.0 0 1 1971.889340,610.323087 A 220.679061,220.679061 0.0 0 0 1780.157484,498.905837 A 220.679061,220.679061 0.0 0 0 1588.425628,610.323087 A 359.055118,359.055118 0.0 0 1 1577.073585,628.909508 A 226.771654,226.771654 0.0 0 0 1540.157484,752.926652 L 1540.157484,884.946053 A 75.590551,75.590551 0.0 0 0 1574.645721,948.385247 A 377.953114,377.953114 0.0 0 0 1780.157484,1009.142093 z"
         style="fill:none;stroke:#000000"
         id="path32998" />
    </symbol>
    <symbol
       id="VBI_Q200_DDSN_NP">
      <path
         style="fill:none;stroke:#000000"
         d="M -2241.26 1122.52 L -2260.16 1122.52"
         id="path33001" />
      <path
         style="fill:none;stroke:#000000"
         d="M 2275.28 1122.52 L 2241.26 1122.52"
         id="path33003" />
      <path
         d="M 2165.669291,366.614173 L 2369.763780,366.614173 L 2369.763780,517.795276 L 2409.851723,557.883219 L 2391.144016,688.837168 L 2337.693425,742.287759 L 2294.173228,1046.929134 L 2294.173228,1122.519685 L 2241.259843,1122.519685 L 2241.259843,1046.929134 L 2197.739646,742.287759 L 2144.289055,688.837168 L 2125.581348,557.883219 L 2165.669291,517.795276 L 2165.669291,366.614173"
         style="fill:none;stroke:#FF0000"
         id="path33005" />
      <path
         d="M -2260.157480,1122.519685 L 2275.275591,1122.519685 L 2275.275591,1697.007874 L -2260.157480,1697.007874 L -2260.157480,1122.519685 z"
         style="fill:none;stroke:#000000"
         id="path33007" />
      <path
         d="M -2260.157480,1298.015688 L -2130.844636,1122.519685 L -1596.140947,1697.007874 L -1061.437259,1122.519685 L -526.733571,1697.007874 L 7.559055,1122.519685 L 542.673806,1697.007874 L 1077.377494,1122.519685 L 1612.081183,1697.007874 L 2146.784871,1122.519685 L 2275.275591,1296.899947"
         style="fill:none;stroke:#000000"
         id="path33009" />
      <use
         xlink:href="#%2AU6"
         style="stroke-width:0.500px"
         id="use33011" />
    </symbol>
    <symbol
       id="*U6">
      <path
         style="fill:none;stroke:#000000"
         d="M -2001.26 794.178 L -2001.26 720"
         id="path33014" />
      <path
         d="M -1559.055118,720.000000 A 221.102362,221.102362 0.000000 0 0 -2001.259843,720.000000"
         style="fill:none;stroke:#000000"
         id="path33016" />
      <path
         style="fill:none;stroke:#000000"
         d="M -1559.06 720 L -1559.06 794.178"
         id="path33018" />
      <path
         d="M -1563.474999,816.123970 A 56.692913,56.692913 0.000000 0 0 -1559.055118,794.178208"
         style="fill:none;stroke:#000000"
         id="path33020" />
      <path
         style="fill:none;stroke:#000000"
         d="M -1563.47 816.124 L -1620.57 952.111"
         id="path33022" />
      <path
         d="M -1636.604890,966.972347 A 26.456693,26.456693 0.000000 0 0 -1620.566414,952.111105"
         style="fill:none;stroke:#000000"
         id="path33024" />
      <path
         d="M -1923.710070,966.972347 A 454.536388,454.536388 0.000000 0 0 -1636.604890,966.972347"
         style="fill:none;stroke:#000000"
         id="path33026" />
      <path
         d="M -1939.748546,952.111105 A 26.456693,26.456693 0.000000 0 0 -1923.710070,966.972347"
         style="fill:none;stroke:#000000"
         id="path33028" />
      <path
         style="fill:none;stroke:#000000"
         d="M -1939.75 952.111 L -1996.84 816.124"
         id="path33030" />
      <path
         d="M -2001.259843,794.178208 A 56.692913,56.692913 0.000000 0 0 -1996.839962,816.123970"
         style="fill:none;stroke:#000000"
         id="path33032" />
      <path
         style="fill:none;stroke:#000000"
         d="M -1407.87 794.178 L -1407.87 720"
         id="path33034" />
      <path
         d="M -965.669291,720.000000 A 221.102362,221.102362 0.000000 0 0 -1407.874016,720.000000"
         style="fill:none;stroke:#000000"
         id="path33036" />
      <path
         style="fill:none;stroke:#000000"
         d="M -965.669 720 L -965.669 794.178"
         id="path33038" />
      <path
         d="M -970.089172,816.123970 A 56.692913,56.692913 0.000000 0 0 -965.669291,794.178208"
         style="fill:none;stroke:#000000"
         id="path33040" />
      <path
         style="fill:none;stroke:#000000"
         d="M -970.089 816.124 L -1027.18 952.111"
         id="path33042" />
      <path
         d="M -1043.219064,966.972347 A 26.456693,26.456693 0.000000 0 0 -1027.180587,952.111105"
         style="fill:none;stroke:#000000"
         id="path33044" />
      <path
         d="M -1330.324243,966.972347 A 454.536388,454.536388 0.000000 0 0 -1043.219064,966.972347"
         style="fill:none;stroke:#000000"
         id="path33046" />
      <path
         d="M -1346.362720,952.111105 A 26.456693,26.456693 0.000000 0 0 -1330.324243,966.972347"
         style="fill:none;stroke:#000000"
         id="path33048" />
      <path
         style="fill:none;stroke:#000000"
         d="M -1346.36 952.111 L -1403.45 816.124"
         id="path33050" />
      <path
         d="M -1407.874016,794.178208 A 56.692913,56.692913 0.000000 0 0 -1403.454135,816.123970"
         style="fill:none;stroke:#000000"
         id="path33052" />
      <path
         style="fill:none;stroke:#000000"
         d="M -814.488 794.178 L -814.488 720"
         id="path33054" />
      <path
         d="M -372.283465,720.000000 A 221.102362,221.102362 0.000000 0 0 -814.488189,720.000000"
         style="fill:none;stroke:#000000"
         id="path33056" />
      <path
         style="fill:none;stroke:#000000"
         d="M -372.283 720 L -372.283 794.178"
         id="path33058" />
      <path
         d="M -376.703345,816.123970 A 56.692913,56.692913 0.000000 0 0 -372.283465,794.178208"
         style="fill:none;stroke:#000000"
         id="path33060" />
      <path
         style="fill:none;stroke:#000000"
         d="M -376.703 816.124 L -433.795 952.111"
         id="path33062" />
      <path
         d="M -449.833237,966.972347 A 26.456693,26.456693 0.000000 0 0 -433.794761,952.111105"
         style="fill:none;stroke:#000000"
         id="path33064" />
      <path
         d="M -736.938417,966.972347 A 454.536388,454.536388 0.000000 0 0 -449.833237,966.972347"
         style="fill:none;stroke:#000000"
         id="path33066" />
      <path
         d="M -752.976893,952.111105 A 26.456693,26.456693 0.000000 0 0 -736.938417,966.972347"
         style="fill:none;stroke:#000000"
         id="path33068" />
      <path
         style="fill:none;stroke:#000000"
         d="M -752.977 952.111 L -810.068 816.124"
         id="path33070" />
      <path
         d="M -814.488189,794.178208 A 56.692913,56.692913 0.000000 0 0 -810.068308,816.123970"
         style="fill:none;stroke:#000000"
         id="path33072" />
      <path
         style="fill:none;stroke:#000000"
         d="M -221.102 794.178 L -221.102 720"
         id="path33074" />
      <path
         d="M 221.102362,720.000000 A 221.102362,221.102362 0.000000 0 0 -221.102362,720.000000"
         style="fill:none;stroke:#000000"
         id="path33076" />
      <path
         style="fill:none;stroke:#000000"
         d="M 221.102 720 L 221.102 794.178"
         id="path33078" />
      <path
         d="M 216.682481,816.123970 A 56.692913,56.692913 0.000000 0 0 221.102362,794.178208"
         style="fill:none;stroke:#000000"
         id="path33080" />
      <path
         style="fill:none;stroke:#000000"
         d="M 216.682 816.124 L 159.591 952.111"
         id="path33082" />
      <path
         d="M 143.552590,966.972347 A 26.456693,26.456693 0.000000 0 0 159.591066,952.111105"
         style="fill:none;stroke:#000000"
         id="path33084" />
      <path
         d="M -143.552590,966.972347 A 454.536388,454.536388 0.000000 0 0 143.552590,966.972347"
         style="fill:none;stroke:#000000"
         id="path33086" />
      <path
         d="M -159.591066,952.111105 A 26.456693,26.456693 0.000000 0 0 -143.552590,966.972347"
         style="fill:none;stroke:#000000"
         id="path33088" />
      <path
         style="fill:none;stroke:#000000"
         d="M -159.591 952.111 L -216.682 816.124"
         id="path33090" />
      <path
         d="M -221.102362,794.178208 A 56.692913,56.692913 0.000000 0 0 -216.682481,816.123970"
         style="fill:none;stroke:#000000"
         id="path33092" />
      <path
         style="fill:none;stroke:#000000"
         d="M 372.283 794.178 L 372.283 720"
         id="path33094" />
      <path
         d="M 814.488189,720.000000 A 221.102362,221.102362 0.000000 0 0 372.283465,720.000000"
         style="fill:none;stroke:#000000"
         id="path33096" />
      <path
         style="fill:none;stroke:#000000"
         d="M 814.488 720 L 814.488 794.178"
         id="path33098" />
      <path
         d="M 810.068308,816.123970 A 56.692913,56.692913 0.000000 0 0 814.488189,794.178208"
         style="fill:none;stroke:#000000"
         id="path33100" />
      <path
         style="fill:none;stroke:#000000"
         d="M 810.068 816.124 L 752.977 952.111"
         id="path33102" />
      <path
         d="M 736.938417,966.972347 A 26.456693,26.456693 0.000000 0 0 752.976893,952.111105"
         style="fill:none;stroke:#000000"
         id="path33104" />
      <path
         d="M 449.833237,966.972347 A 454.536388,454.536388 0.000000 0 0 736.938417,966.972347"
         style="fill:none;stroke:#000000"
         id="path33106" />
      <path
         d="M 433.794761,952.111105 A 26.456693,26.456693 0.000000 0 0 449.833237,966.972347"
         style="fill:none;stroke:#000000"
         id="path33108" />
      <path
         style="fill:none;stroke:#000000"
         d="M 433.795 952.111 L 376.703 816.124"
         id="path33110" />
      <path
         d="M 372.283465,794.178208 A 56.692913,56.692913 0.000000 0 0 376.703345,816.123970"
         style="fill:none;stroke:#000000"
         id="path33112" />
      <path
         style="fill:none;stroke:#000000"
         d="M 965.669 794.178 L 965.669 720"
         id="path33114" />
      <path
         d="M 1407.874016,720.000000 A 221.102362,221.102362 0.000000 0 0 965.669291,720.000000"
         style="fill:none;stroke:#000000"
         id="path33116" />
      <path
         style="fill:none;stroke:#000000"
         d="M 1407.87 720 L 1407.87 794.178"
         id="path33118" />
      <path
         d="M 1403.454135,816.123970 A 56.692913,56.692913 0.000000 0 0 1407.874016,794.178208"
         style="fill:none;stroke:#000000"
         id="path33120" />
      <path
         style="fill:none;stroke:#000000"
         d="M 1403.45 816.124 L 1346.36 952.111"
         id="path33122" />
      <path
         d="M 1330.324243,966.972347 A 26.456693,26.456693 0.000000 0 0 1346.362720,952.111105"
         style="fill:none;stroke:#000000"
         id="path33124" />
      <path
         d="M 1043.219064,966.972347 A 454.536388,454.536388 0.000000 0 0 1330.324243,966.972347"
         style="fill:none;stroke:#000000"
         id="path33126" />
      <path
         d="M 1027.180587,952.111105 A 26.456693,26.456693 0.000000 0 0 1043.219064,966.972347"
         style="fill:none;stroke:#000000"
         id="path33128" />
      <path
         style="fill:none;stroke:#000000"
         d="M 1027.18 952.111 L 970.089 816.124"
         id="path33130" />
      <path
         d="M 965.669291,794.178208 A 56.692913,56.692913 0.000000 0 0 970.089172,816.123970"
         style="fill:none;stroke:#000000"
         id="path33132" />
      <path
         style="fill:none;stroke:#000000"
         d="M 1559.06 794.178 L 1559.06 720"
         id="path33134" />
      <path
         d="M 2001.259843,720.000000 A 221.102362,221.102362 0.000000 0 0 1559.055118,720.000000"
         style="fill:none;stroke:#000000"
         id="path33136" />
      <path
         style="fill:none;stroke:#000000"
         d="M 2001.26 720 L 2001.26 794.178"
         id="path33138" />
      <path
         d="M 1996.839962,816.123970 A 56.692913,56.692913 0.000000 0 0 2001.259843,794.178208"
         style="fill:none;stroke:#000000"
         id="path33140" />
      <path
         style="fill:none;stroke:#000000"
         d="M 1996.84 816.124 L 1939.75 952.111"
         id="path33142" />
      <path
         d="M 1923.710070,966.972347 A 26.456693,26.456693 0.000000 0 0 1939.748546,952.111105"
         style="fill:none;stroke:#000000"
         id="path33144" />
      <path
         d="M 1636.604890,966.972347 A 454.536388,454.536388 0.000000 0 0 1923.710070,966.972347"
         style="fill:none;stroke:#000000"
         id="path33146" />
      <path
         d="M 1620.566414,952.111105 A 26.456693,26.456693 0.000000 0 0 1636.604890,966.972347"
         style="fill:none;stroke:#000000"
         id="path33148" />
      <path
         style="fill:none;stroke:#000000"
         d="M 1620.57 952.111 L 1563.47 816.124"
         id="path33150" />
      <path
         d="M 1559.055118,794.178208 A 56.692913,56.692913 0.000000 0 0 1563.474999,816.123970"
         style="fill:none;stroke:#000000"
         id="path33152" />
      <path
         style="fill:none;stroke:#000000"
         d="M 2241.26 1046.93 L 2197.74 742.288"
         id="path33154" />
      <path
         style="fill:none;stroke:#000000"
         d="M 2197.74 742.288 L 2144.29 688.837"
         id="path33156" />
      <path
         style="fill:none;stroke:#000000"
         d="M 2144.29 688.837 L 2125.58 557.883"
         id="path33158" />
      <path
         style="fill:none;stroke:#000000"
         d="M 2125.58 557.883 L 2165.67 517.795"
         id="path33160" />
      <path
         style="fill:none;stroke:#000000"
         d="M 2165.67 517.795 L 2165.67 366.614"
         id="path33162" />
      <path
         style="fill:none;stroke:#000000"
         d="M 2165.67 366.614 L -2165.67 366.614"
         id="path33164" />
      <path
         style="fill:none;stroke:#000000"
         d="M -2165.67 366.614 L -2165.67 517.795"
         id="path33166" />
      <path
         style="fill:none;stroke:#000000"
         d="M -2165.67 517.795 L -2125.58 557.883"
         id="path33168" />
      <path
         style="fill:none;stroke:#000000"
         d="M -2125.58 557.883 L -2144.29 688.837"
         id="path33170" />
      <path
         style="fill:none;stroke:#000000"
         d="M -2144.29 688.837 L -2197.74 742.288"
         id="path33172" />
      <path
         style="fill:none;stroke:#000000"
         d="M -2197.74 742.288 L -2241.26 1046.93"
         id="path33174" />
      <path
         style="fill:none;stroke:#000000"
         d="M -2241.26 1046.93 L -2241.26 1122.52"
         id="path33176" />
      <path
         style="fill:none;stroke:#000000"
         d="M -2241.26 1122.52 L 2241.26 1122.52"
         id="path33178" />
      <path
         style="fill:none;stroke:#000000"
         d="M 2241.26 1122.52 L 2241.26 1046.93"
         id="path33180" />
    </symbol>
    <symbol
       id="VBI_Q200_DDSN_GR">
      <path
         style="fill:none;stroke:#000000"
         d="M -2241.26 1122.52 L -2260.16 1122.52"
         id="path33183" />
      <path
         style="fill:none;stroke:#000000"
         d="M 2275.28 1122.52 L 2241.26 1122.52"
         id="path33185" />
      <path
         d="M -2260.157480,1298.015688 L -2130.844636,1122.519685 L -1596.140947,1697.007874 L -1061.437259,1122.519685 L -526.733571,1697.007874 L 7.559055,1122.519685 L 542.673806,1697.007874 L 1077.377494,1122.519685 L 1578.662202,1651.653543 L 2079.946910,1122.519685 L 2275.275591,1387.608609"
         style="fill:none;stroke:#000000"
         id="path33187" />
      <path
         d="M -2260.157480,1122.519685 L -2260.157480,1697.007874 L 1330.393701,1697.007874 L 1330.393701,1651.653543 L 2275.275591,1651.653543 L 2275.275591,1122.519685 L -2260.157480,1122.519685"
         style="fill:none;stroke:#000000"
         id="path33189" />
      <path
         d="M 1838.362205,1122.519685 L 1954.015748,1651.653543 L 2218.582677,1651.653543 L 2238.994165,1122.451715"
         style="fill:none;stroke:#FF0000"
         id="path33191" />
      <use
         xlink:href="#%2AU8"
         style="stroke-width:0.500px"
         id="use33193" />
    </symbol>
    <symbol
       id="*U8">
      <path
         style="fill:none;stroke:#000000"
         d="M -2001.26 794.178 L -2001.26 720"
         id="path33196" />
      <path
         d="M -1559.055118,720.000000 A 221.102362,221.102362 0.000000 0 0 -2001.259843,720.000000"
         style="fill:none;stroke:#000000"
         id="path33198" />
      <path
         style="fill:none;stroke:#000000"
         d="M -1559.06 720 L -1559.06 794.178"
         id="path33200" />
      <path
         d="M -1563.474999,816.123970 A 56.692913,56.692913 0.000000 0 0 -1559.055118,794.178208"
         style="fill:none;stroke:#000000"
         id="path33202" />
      <path
         style="fill:none;stroke:#000000"
         d="M -1563.47 816.124 L -1620.57 952.111"
         id="path33204" />
      <path
         d="M -1636.604890,966.972347 A 26.456693,26.456693 0.000000 0 0 -1620.566414,952.111105"
         style="fill:none;stroke:#000000"
         id="path33206" />
      <path
         d="M -1923.710070,966.972347 A 454.536388,454.536388 0.000000 0 0 -1636.604890,966.972347"
         style="fill:none;stroke:#000000"
         id="path33208" />
      <path
         d="M -1939.748546,952.111105 A 26.456693,26.456693 0.000000 0 0 -1923.710070,966.972347"
         style="fill:none;stroke:#000000"
         id="path33210" />
      <path
         style="fill:none;stroke:#000000"
         d="M -1939.75 952.111 L -1996.84 816.124"
         id="path33212" />
      <path
         d="M -2001.259843,794.178208 A 56.692913,56.692913 0.000000 0 0 -1996.839962,816.123970"
         style="fill:none;stroke:#000000"
         id="path33214" />
      <path
         style="fill:none;stroke:#000000"
         d="M -1407.87 794.178 L -1407.87 720"
         id="path33216" />
      <path
         d="M -965.669291,720.000000 A 221.102362,221.102362 0.000000 0 0 -1407.874016,720.000000"
         style="fill:none;stroke:#000000"
         id="path33218" />
      <path
         style="fill:none;stroke:#000000"
         d="M -965.669 720 L -965.669 794.178"
         id="path33220" />
      <path
         d="M -970.089172,816.123970 A 56.692913,56.692913 0.000000 0 0 -965.669291,794.178208"
         style="fill:none;stroke:#000000"
         id="path33222" />
      <path
         style="fill:none;stroke:#000000"
         d="M -970.089 816.124 L -1027.18 952.111"
         id="path33224" />
      <path
         d="M -1043.219064,966.972347 A 26.456693,26.456693 0.000000 0 0 -1027.180587,952.111105"
         style="fill:none;stroke:#000000"
         id="path33226" />
      <path
         d="M -1330.324243,966.972347 A 454.536388,454.536388 0.000000 0 0 -1043.219064,966.972347"
         style="fill:none;stroke:#000000"
         id="path33228" />
      <path
         d="M -1346.362720,952.111105 A 26.456693,26.456693 0.000000 0 0 -1330.324243,966.972347"
         style="fill:none;stroke:#000000"
         id="path33230" />
      <path
         style="fill:none;stroke:#000000"
         d="M -1346.36 952.111 L -1403.45 816.124"
         id="path33232" />
      <path
         d="M -1407.874016,794.178208 A 56.692913,56.692913 0.000000 0 0 -1403.454135,816.123970"
         style="fill:none;stroke:#000000"
         id="path33234" />
      <path
         style="fill:none;stroke:#000000"
         d="M -814.488 794.178 L -814.488 720"
         id="path33236" />
      <path
         d="M -372.283465,720.000000 A 221.102362,221.102362 0.000000 0 0 -814.488189,720.000000"
         style="fill:none;stroke:#000000"
         id="path33238" />
      <path
         style="fill:none;stroke:#000000"
         d="M -372.283 720 L -372.283 794.178"
         id="path33240" />
      <path
         d="M -376.703345,816.123970 A 56.692913,56.692913 0.000000 0 0 -372.283465,794.178208"
         style="fill:none;stroke:#000000"
         id="path33242" />
      <path
         style="fill:none;stroke:#000000"
         d="M -376.703 816.124 L -433.795 952.111"
         id="path33244" />
      <path
         d="M -449.833237,966.972347 A 26.456693,26.456693 0.000000 0 0 -433.794761,952.111105"
         style="fill:none;stroke:#000000"
         id="path33246" />
      <path
         d="M -736.938417,966.972347 A 454.536388,454.536388 0.000000 0 0 -449.833237,966.972347"
         style="fill:none;stroke:#000000"
         id="path33248" />
      <path
         d="M -752.976893,952.111105 A 26.456693,26.456693 0.000000 0 0 -736.938417,966.972347"
         style="fill:none;stroke:#000000"
         id="path33250" />
      <path
         style="fill:none;stroke:#000000"
         d="M -752.977 952.111 L -810.068 816.124"
         id="path33252" />
      <path
         d="M -814.488189,794.178208 A 56.692913,56.692913 0.000000 0 0 -810.068308,816.123970"
         style="fill:none;stroke:#000000"
         id="path33254" />
      <path
         style="fill:none;stroke:#000000"
         d="M -221.102 794.178 L -221.102 720"
         id="path33256" />
      <path
         d="M 221.102362,720.000000 A 221.102362,221.102362 0.000000 0 0 -221.102362,720.000000"
         style="fill:none;stroke:#000000"
         id="path33258" />
      <path
         style="fill:none;stroke:#000000"
         d="M 221.102 720 L 221.102 794.178"
         id="path33260" />
      <path
         d="M 216.682481,816.123970 A 56.692913,56.692913 0.000000 0 0 221.102362,794.178208"
         style="fill:none;stroke:#000000"
         id="path33262" />
      <path
         style="fill:none;stroke:#000000"
         d="M 216.682 816.124 L 159.591 952.111"
         id="path33264" />
      <path
         d="M 143.552590,966.972347 A 26.456693,26.456693 0.000000 0 0 159.591066,952.111105"
         style="fill:none;stroke:#000000"
         id="path33266" />
      <path
         d="M -143.552590,966.972347 A 454.536388,454.536388 0.000000 0 0 143.552590,966.972347"
         style="fill:none;stroke:#000000"
         id="path33268" />
      <path
         d="M -159.591066,952.111105 A 26.456693,26.456693 0.000000 0 0 -143.552590,966.972347"
         style="fill:none;stroke:#000000"
         id="path33270" />
      <path
         style="fill:none;stroke:#000000"
         d="M -159.591 952.111 L -216.682 816.124"
         id="path33272" />
      <path
         d="M -221.102362,794.178208 A 56.692913,56.692913 0.000000 0 0 -216.682481,816.123970"
         style="fill:none;stroke:#000000"
         id="path33274" />
      <path
         style="fill:none;stroke:#000000"
         d="M 372.283 794.178 L 372.283 720"
         id="path33276" />
      <path
         d="M 814.488189,720.000000 A 221.102362,221.102362 0.000000 0 0 372.283465,720.000000"
         style="fill:none;stroke:#000000"
         id="path33278" />
      <path
         style="fill:none;stroke:#000000"
         d="M 814.488 720 L 814.488 794.178"
         id="path33280" />
      <path
         d="M 810.068308,816.123970 A 56.692913,56.692913 0.000000 0 0 814.488189,794.178208"
         style="fill:none;stroke:#000000"
         id="path33282" />
      <path
         style="fill:none;stroke:#000000"
         d="M 810.068 816.124 L 752.977 952.111"
         id="path33284" />
      <path
         d="M 736.938417,966.972347 A 26.456693,26.456693 0.000000 0 0 752.976893,952.111105"
         style="fill:none;stroke:#000000"
         id="path33286" />
      <path
         d="M 449.833237,966.972347 A 454.536388,454.536388 0.000000 0 0 736.938417,966.972347"
         style="fill:none;stroke:#000000"
         id="path33288" />
      <path
         d="M 433.794761,952.111105 A 26.456693,26.456693 0.000000 0 0 449.833237,966.972347"
         style="fill:none;stroke:#000000"
         id="path33290" />
      <path
         style="fill:none;stroke:#000000"
         d="M 433.795 952.111 L 376.703 816.124"
         id="path33292" />
      <path
         d="M 372.283465,794.178208 A 56.692913,56.692913 0.000000 0 0 376.703345,816.123970"
         style="fill:none;stroke:#000000"
         id="path33294" />
      <path
         style="fill:none;stroke:#000000"
         d="M 965.669 794.178 L 965.669 720"
         id="path33296" />
      <path
         d="M 1407.874016,720.000000 A 221.102362,221.102362 0.000000 0 0 965.669291,720.000000"
         style="fill:none;stroke:#000000"
         id="path33298" />
      <path
         style="fill:none;stroke:#000000"
         d="M 1407.87 720 L 1407.87 794.178"
         id="path33300" />
      <path
         d="M 1403.454135,816.123970 A 56.692913,56.692913 0.000000 0 0 1407.874016,794.178208"
         style="fill:none;stroke:#000000"
         id="path33302" />
      <path
         style="fill:none;stroke:#000000"
         d="M 1403.45 816.124 L 1346.36 952.111"
         id="path33304" />
      <path
         d="M 1330.324243,966.972347 A 26.456693,26.456693 0.000000 0 0 1346.362720,952.111105"
         style="fill:none;stroke:#000000"
         id="path33306" />
      <path
         d="M 1043.219064,966.972347 A 454.536388,454.536388 0.000000 0 0 1330.324243,966.972347"
         style="fill:none;stroke:#000000"
         id="path33308" />
      <path
         d="M 1027.180587,952.111105 A 26.456693,26.456693 0.000000 0 0 1043.219064,966.972347"
         style="fill:none;stroke:#000000"
         id="path33310" />
      <path
         style="fill:none;stroke:#000000"
         d="M 1027.18 952.111 L 970.089 816.124"
         id="path33312" />
      <path
         d="M 965.669291,794.178208 A 56.692913,56.692913 0.000000 0 0 970.089172,816.123970"
         style="fill:none;stroke:#000000"
         id="path33314" />
      <path
         style="fill:none;stroke:#000000"
         d="M 1559.06 794.178 L 1559.06 720"
         id="path33316" />
      <path
         d="M 2001.259843,720.000000 A 221.102362,221.102362 0.000000 0 0 1559.055118,720.000000"
         style="fill:none;stroke:#000000"
         id="path33318" />
      <path
         style="fill:none;stroke:#000000"
         d="M 2001.26 720 L 2001.26 794.178"
         id="path33320" />
      <path
         d="M 1996.839962,816.123970 A 56.692913,56.692913 0.000000 0 0 2001.259843,794.178208"
         style="fill:none;stroke:#000000"
         id="path33322" />
      <path
         style="fill:none;stroke:#000000"
         d="M 1996.84 816.124 L 1939.75 952.111"
         id="path33324" />
      <path
         d="M 1923.710070,966.972347 A 26.456693,26.456693 0.000000 0 0 1939.748546,952.111105"
         style="fill:none;stroke:#000000"
         id="path33326" />
      <path
         d="M 1636.604890,966.972347 A 454.536388,454.536388 0.000000 0 0 1923.710070,966.972347"
         style="fill:none;stroke:#000000"
         id="path33328" />
      <path
         d="M 1620.566414,952.111105 A 26.456693,26.456693 0.000000 0 0 1636.604890,966.972347"
         style="fill:none;stroke:#000000"
         id="path33330" />
      <path
         style="fill:none;stroke:#000000"
         d="M 1620.57 952.111 L 1563.47 816.124"
         id="path33332" />
      <path
         d="M 1559.055118,794.178208 A 56.692913,56.692913 0.000000 0 0 1563.474999,816.123970"
         style="fill:none;stroke:#000000"
         id="path33334" />
      <path
         style="fill:none;stroke:#000000"
         d="M 2241.26 1046.93 L 2197.74 742.288"
         id="path33336" />
      <path
         style="fill:none;stroke:#000000"
         d="M 2197.74 742.288 L 2144.29 688.837"
         id="path33338" />
      <path
         style="fill:none;stroke:#000000"
         d="M 2144.29 688.837 L 2125.58 557.883"
         id="path33340" />
      <path
         style="fill:none;stroke:#000000"
         d="M 2125.58 557.883 L 2165.67 517.795"
         id="path33342" />
      <path
         style="fill:none;stroke:#000000"
         d="M 2165.67 517.795 L 2165.67 366.614"
         id="path33344" />
      <path
         style="fill:none;stroke:#000000"
         d="M 2165.67 366.614 L -2165.67 366.614"
         id="path33346" />
      <path
         style="fill:none;stroke:#000000"
         d="M -2165.67 366.614 L -2165.67 517.795"
         id="path33348" />
      <path
         style="fill:none;stroke:#000000"
         d="M -2165.67 517.795 L -2125.58 557.883"
         id="path33350" />
      <path
         style="fill:none;stroke:#000000"
         d="M -2125.58 557.883 L -2144.29 688.837"
         id="path33352" />
      <path
         style="fill:none;stroke:#000000"
         d="M -2144.29 688.837 L -2197.74 742.288"
         id="path33354" />
      <path
         style="fill:none;stroke:#000000"
         d="M -2197.74 742.288 L -2241.26 1046.93"
         id="path33356" />
      <path
         style="fill:none;stroke:#000000"
         d="M -2241.26 1046.93 L -2241.26 1122.52"
         id="path33358" />
      <path
         style="fill:none;stroke:#000000"
         d="M -2241.26 1122.52 L 2241.26 1122.52"
         id="path33360" />
      <path
         style="fill:none;stroke:#000000"
         d="M 2241.26 1122.52 L 2241.26 1046.93"
         id="path33362" />
    </symbol>
    <symbol
       id="VBI_Q200_LDRSN_GR">
      <path
         d="M -611.443966,-7852.682967 L -611.443966,-9137.722337 L 8837.374932,-9137.722337 L 8837.374932,-7852.682970 L 8440.524538,-7852.682970 L 8389.122964,-8381.816826 L -163.191997,-8381.816826 L -214.593572,-7852.682967 L -611.443966,-7852.682967 z"
         style="fill:none;stroke:#000000"
         id="path33365" />
      <path
         style="fill:none;stroke:#000000;stroke-dasharray:188.9764,94.4882,"
         d="M 8837.37 -9005.44 L -611.444 -9005.44"
         id="path33367" />
      <path
         style="fill:none;stroke:#000000;stroke-dasharray:188.9764,94.4882,"
         d="M 8837.37 -8514.1 L -611.444 -8514.1"
         id="path33369" />
      <path
         d="M -163.191997,-8381.816826 L 8389.122964,-8381.816826"
         style="fill:none;stroke:#000000"
         id="path33371" />
      <path
         style="fill:none;stroke:#000000;stroke-dasharray:94.4882,47.2441,"
         d="M 8389.12 -8381.82 L 8837.37 -8381.82"
         id="path33373" />
      <path
         style="fill:none;stroke:#000000;stroke-dasharray:94.4882,47.2441,"
         d="M -163.192 -8381.82 L -611.444 -8381.82"
         id="path33375" />
      <path
         d="M -214.593572,-7852.682967 L 333.437924,-7852.682967 L 333.437924,-7807.328639 L 7892.493042,-7807.328639 L 7892.493042,-7852.682970 L 8440.524538,-7852.682970"
         style="fill:none;stroke:#000000"
         id="path33377" />
      <path
         d="M 2677.084675,-7807.328639 L 2142.380987,-8381.816828 L 1607.677298,-7807.328639 L 1072.973610,-8381.816828 L 538.269922,-7807.328639 L 3.566233,-8381.816828 L -182.245025,-8129.644407"
         style="fill:none;stroke:#000000"
         id="path33379" />
      <path
         d="M 5548.846291,-7807.328639 L 6083.549979,-8381.816828 L 6618.253668,-7807.328639 L 7152.957356,-8381.816828 L 7687.661044,-7807.328639 L 8222.364733,-8381.816828 L 8408.175990,-8129.644407"
         style="fill:none;stroke:#000000"
         id="path33381" />
    </symbol>
  </defs>
  <g
     inkscape:groupmode="layer"
     inkscape:label="0"
     id="g33386" />
  <g
     inkscape:groupmode="layer"
     inkscape:label="concrete"
     id="g33404">
    <path
       id="path33402"
       style="fill:#c0c0c0;stroke:#000000;fill-opacity:1"
       d="M 102.04688 -207.87305 L 102.04688 -56.693359 L 142.13477 -16.605469 L 123.42773 114.34961 L 69.976562 167.79883 L 26.457031 472.44141 L 26.457031 548.03125 L 4508.9766 548.03125 L 4508.9766 472.44141 L 4465.457 167.79883 L 4412.0059 114.34961 L 4393.2988 -16.605469 L 4433.3867 -56.693359 L 4433.3867 -207.87305 L 102.04688 -207.87305 z M 487.55859 -75.589844 A 221.10236 221.10236 0 0 1 708.66211 145.51172 L 708.66211 219.68945 A 56.692913 56.692913 0 0 1 704.24219 241.63672 L 647.15039 377.62305 A 26.456693 26.456693 0 0 1 631.11133 392.48438 A 454.53639 454.53639 0 0 1 344.00586 392.48438 A 26.456693 26.456693 0 0 1 327.96875 377.62305 L 270.87695 241.63672 A 56.692913 56.692913 0 0 1 266.45703 219.68945 L 266.45703 145.51172 A 221.10236 221.10236 0 0 1 487.55859 -75.589844 z M 1080.9453 -75.589844 A 221.10236 221.10236 0 0 1 1302.0469 145.51172 L 1302.0469 219.68945 A 56.692913 56.692913 0 0 1 1297.627 241.63672 L 1240.5352 377.62305 A 26.456693 26.456693 0 0 1 1224.498 392.48438 A 454.53639 454.53639 0 0 1 937.39258 392.48438 A 26.456693 26.456693 0 0 1 921.35352 377.62305 L 864.26172 241.63672 A 56.692913 56.692913 0 0 1 859.8418 219.68945 L 859.8418 145.51172 A 221.10236 221.10236 0 0 1 1080.9453 -75.589844 z M 1674.3301 -75.589844 A 221.10236 221.10236 0 0 1 1895.4336 145.51172 L 1895.4336 219.68945 A 56.692913 56.692913 0 0 1 1891.0137 241.63672 L 1833.9219 377.62305 A 26.456693 26.456693 0 0 1 1817.8828 392.48438 A 454.53639 454.53639 0 0 1 1530.7773 392.48438 A 26.456693 26.456693 0 0 1 1514.7402 377.62305 L 1457.6484 241.63672 A 56.692913 56.692913 0 0 1 1453.2285 219.68945 L 1453.2285 145.51172 A 221.10236 221.10236 0 0 1 1674.3301 -75.589844 z M 2267.7168 -75.589844 A 221.10236 221.10236 0 0 1 2488.8184 145.51172 L 2488.8184 219.68945 A 56.692913 56.692913 0 0 1 2484.3984 241.63672 L 2427.3066 377.62305 A 26.456693 26.456693 0 0 1 2411.2695 392.48438 A 454.53639 454.53639 0 0 1 2124.1641 392.48438 A 26.456693 26.456693 0 0 1 2108.125 377.62305 L 2051.0332 241.63672 A 56.692913 56.692913 0 0 1 2046.6133 219.68945 L 2046.6133 145.51172 A 221.10236 221.10236 0 0 1 2267.7168 -75.589844 z M 2861.1016 -75.589844 A 221.10236 221.10236 0 0 1 3082.2051 145.51172 L 3082.2051 219.68945 A 56.692913 56.692913 0 0 1 3077.7852 241.63672 L 3020.6934 377.62305 A 26.456693 26.456693 0 0 1 3004.6543 392.48438 A 454.53639 454.53639 0 0 1 2717.5488 392.48438 A 26.456693 26.456693 0 0 1 2701.5117 377.62305 L 2644.4199 241.63672 A 56.692913 56.692913 0 0 1 2640 219.68945 L 2640 145.51172 A 221.10236 221.10236 0 0 1 2861.1016 -75.589844 z M 3454.4883 -75.589844 A 221.10236 221.10236 0 0 1 3675.5898 145.51172 L 3675.5898 219.68945 A 56.692913 56.692913 0 0 1 3671.1699 241.63672 L 3614.0801 377.62305 A 26.456693 26.456693 0 0 1 3598.041 392.48438 A 454.53639 454.53639 0 0 1 3310.9355 392.48438 A 26.456693 26.456693 0 0 1 3294.8965 377.62305 L 3237.8066 241.63672 A 56.692913 56.692913 0 0 1 3233.3867 219.68945 L 3233.3867 145.51172 A 221.10236 221.10236 0 0 1 3454.4883 -75.589844 z M 4047.873 -75.589844 A 221.10236 221.10236 0 0 1 4268.9766 145.51172 L 4268.9766 219.68945 A 56.692913 56.692913 0 0 1 4264.5566 241.63672 L 4207.4648 377.62305 A 26.456693 26.456693 0 0 1 4191.4258 392.48438 A 454.53639 454.53639 0 0 1 3904.3223 392.48438 A 26.456693 26.456693 0 0 1 3888.2832 377.62305 L 3831.1914 241.63672 A 56.692913 56.692913 0 0 1 3826.7715 219.68945 L 3826.7715 145.51172 A 221.10236 221.10236 0 0 1 4047.873 -75.589844 z " />
  </g>
  <g
     inkscape:groupmode="layer"
     inkscape:label="insulation"
     id="g33408">
    <path
       d="M 4535.433071,548.031496 L 4535.433071,1122.519685 L 0.000000,1122.519685 L 0.000000,548.031496 L 4535.433071,548.031496 z"
       style="fill:#ffffff;stroke:#000000;fill-opacity:1"
       id="path33406" />
  </g>
</svg>
