<?xml version="1.0" encoding="UTF-8" standalone="no"?>
<svg
   viewBox="0 0 793.7007874015749 1122.5196850393702"
   width="793.7007874015749"
   height="1122.5196850393702"
   version="1.1"
   id="svg26917"
   sodipodi:docname="KVU32.svg"
   inkscape:version="1.2.2 (732a01da63, 2022-12-09)"
   xmlns:inkscape="http://www.inkscape.org/namespaces/inkscape"
   xmlns:sodipodi="http://sodipodi.sourceforge.net/DTD/sodipodi-0.dtd"
   xmlns:xlink="http://www.w3.org/1999/xlink"
   xmlns="http://www.w3.org/2000/svg"
   xmlns:svg="http://www.w3.org/2000/svg">
  <sodipodi:namedview
     id="namedview26919"
     pagecolor="#ffffff"
     bordercolor="#000000"
     borderopacity="0.25"
     inkscape:showpageshadow="2"
     inkscape:pageopacity="0.0"
     inkscape:pagecheckerboard="0"
     inkscape:deskcolor="#d1d1d1"
     showgrid="false"
     inkscape:zoom="0.18488393"
     inkscape:cx="792.38906"
     inkscape:cy="1249.4326"
     inkscape:window-width="3440"
     inkscape:window-height="1377"
     inkscape:window-x="-8"
     inkscape:window-y="-8"
     inkscape:window-maximized="1"
     inkscape:current-layer="g26915" />
  <desc
     id="desc26136">KVU32.dxf - scale = 1.000000, origin = (0.000000, 0.000000), method = manual</desc>
  <defs
     id="defs26895">
    <marker
       id="DistanceX"
       orient="auto"
       refX="0.0"
       refY="0.0"
       style="overflow:visible">
      <path
         d="M 3,-3 L -3,3 M 0,-5 L  0,5"
         style="stroke:#000000; stroke-width:0.5"
         id="path26138" />
    </marker>
    <pattern
       id="Hatch"
       patternUnits="userSpaceOnUse"
       width="8"
       height="8"
       x="0"
       y="0">
      <path
         d="M8 4 l-4,4"
         stroke="#000000"
         stroke-width="0.25"
         linecap="square"
         id="path26141" />
      <path
         d="M6 2 l-4,4"
         stroke="#000000"
         stroke-width="0.25"
         linecap="square"
         id="path26143" />
      <path
         d="M4 0 l-4,4"
         stroke="#000000"
         stroke-width="0.25"
         linecap="square"
         id="path26145" />
    </pattern>
    <symbol
       id="*Model_Space" />
    <symbol
       id="*Paper_Space" />
    <symbol
       id="$MODEL_SPACE" />
    <symbol
       id="$PAPER_SPACE" />
    <symbol
       id="DIMDOT">
      <path
         style="fill:none;stroke:#000000"
         d="M -7.55905 1122.52 L 7.55905 1122.52"
         id="path26152" />
      <path
         style="fill:none;stroke:#000000"
         d="M 0 1135.75 L 0 1109.29"
         id="path26154" />
      <path
         d="M 1.889764,1122.519685 A 1.889764,1.889764 0.000000 0, 0 -1.889764,1122.519685 A 1.889764,1.889764 0.000000 0, 0 1.889764,1122.519685 z"
         style="fill:none;stroke:#000000"
         id="path26156" />
      <path
         d="M 0.944882,1122.519685 A 0.944882,0.944882 0.000000 0, 0 -0.944882,1122.519685 A 0.944882,0.944882 0.000000 0, 0 0.944882,1122.519685 z"
         style="fill:none;stroke:#000000"
         id="path26158" />
    </symbol>
    <symbol
       id="VBI_KVU32_DDRSN_NP">
      <path
         d="M -2267.716531,1122.519679 L 2267.716539,1122.519679 L 2267.716539,1697.007868 L -2267.716531,1697.007868 L -2267.716531,1122.519679 z"
         style="fill:none;stroke:#000000"
         id="path26161" />
      <path
         d="M -2267.716531,1455.118104 L -2086.299209,1122.519679 L -1685.898350,1697.007868 L -1285.497491,1122.519679 L -885.096632,1697.007868 L -484.695773,1122.519679 L -84.294914,1697.007868 L 316.105945,1122.519679 L 716.506804,1697.007868 L 1116.907663,1122.519679 L 1517.308522,1697.007868 L 1917.709381,1122.519679 L 2267.716539,1624.703863"
         style="fill:none;stroke:#000000"
         id="path26163" />
      <use
         xlink:href="#%2AU4"
         style="stroke-width:0.500px"
         id="use26165" />
      <path
         d="M 2267.716535,1122.519685 L 2241.259843,1122.519685 L 2241.259843,1046.929134 L 2195.221888,441.047576 L 2146.460104,399.378415 L 2124.000130,113.013753 L 2165.669291,64.251969 L 2165.669291,-86.929134 L 2369.763780,-86.929134 L 2369.763780,64.251969 L 2411.432941,113.013753 L 2388.972967,399.378415 L 2340.211183,441.047576 L 2294.173228,1046.929134 L 2294.173228,1122.519685 L 2267.716535,1122.519685 z"
         style="fill:none;stroke:#FF0000"
         id="path26167" />
    </symbol>
    <symbol
       id="*U4">
      <path
         d="M 755.706720,64.671926 A 755.905512,755.905512 0.000000 0 0 668.976378,78.992223"
         style="fill:none;stroke:#000000"
         id="path26170" />
      <path
         d="M 763.663606,64.251977 A 75.590551,75.590551 0.000000 0 0 755.706720,64.671926"
         style="fill:none;stroke:#000000"
         id="path26172" />
      <path
         style="fill:none;stroke:#000000"
         d="M 763.664 64.252 L 906.887 64.252"
         id="path26174" />
      <path
         d="M 914.844287,64.671916 A 75.590551,75.590551 0.000000 0 0 906.887413,64.251969"
         style="fill:none;stroke:#000000"
         id="path26176" />
      <path
         d="M 1001.574803,78.992223 A 755.905512,755.905512 0.000000 0 0 914.844287,64.671916"
         style="fill:none;stroke:#000000"
         id="path26178" />
      <path
         d="M 1148.976378,263.338655 A 188.976378,188.976378 0.000000 0 0 1001.574803,78.992223"
         style="fill:none;stroke:#000000"
         id="path26180" />
      <path
         style="fill:none;stroke:#000000"
         d="M 1148.98 263.339 L 1148.98 549.55"
         id="path26182" />
      <path
         d="M 1090.983620,799.335002 A 566.929134,566.929134 0.000000 0 0 1148.976378,549.550278"
         style="fill:none;stroke:#000000"
         id="path26184" />
      <path
         style="fill:none;stroke:#000000"
         d="M 1090.98 799.335 L 1064.48 853.343"
         id="path26186" />
      <path
         d="M 924.608940,956.696976 A 188.976378,188.976378 0.000000 0 0 1064.476616,853.343023"
         style="fill:none;stroke:#000000"
         id="path26188" />
      <path
         d="M 905.459136,959.418534 A 566.929134,566.929134 0.000000 0 0 924.608940,956.696976"
         style="fill:none;stroke:#000000"
         id="path26190" />
      <path
         d="M 896.101330,960.000000 A 75.590551,75.590551 0.000000 0 0 905.459136,959.418534"
         style="fill:none;stroke:#000000"
         id="path26192" />
      <path
         style="fill:none;stroke:#000000"
         d="M 896.101 960 L 774.45 960"
         id="path26194" />
      <path
         d="M 765.092045,959.418534 A 75.590551,75.590551 0.000000 0 0 774.449851,960.000000"
         style="fill:none;stroke:#000000"
         id="path26196" />
      <path
         d="M 745.942241,956.696976 A 566.929134,566.929134 0.000000 0 0 765.092045,959.418534"
         style="fill:none;stroke:#000000"
         id="path26198" />
      <path
         d="M 606.074566,853.343023 A 188.976378,188.976378 0.000000 0 0 745.942241,956.696976"
         style="fill:none;stroke:#000000"
         id="path26200" />
      <path
         style="fill:none;stroke:#000000"
         d="M 606.075 853.343 L 579.568 799.335"
         id="path26202" />
      <path
         d="M 521.574803,549.550278 A 566.929134,566.929134 0.000000 0 0 579.567561,799.335002"
         style="fill:none;stroke:#000000"
         id="path26204" />
      <path
         style="fill:none;stroke:#000000"
         d="M 521.575 549.55 L 521.575 263.339"
         id="path26206" />
      <path
         d="M 668.976378,78.992223 A 188.976378,188.976378 0.000000 0 0 521.574803,263.338655"
         style="fill:none;stroke:#000000"
         id="path26208" />
      <path
         d="M -79.568870,64.671926 A 755.905512,755.905512 0.000000 0 0 -166.299213,78.992223"
         style="fill:none;stroke:#000000"
         id="path26210" />
      <path
         d="M -71.611984,64.251977 A 75.590551,75.590551 0.000000 0 0 -79.568870,64.671926"
         style="fill:none;stroke:#000000"
         id="path26212" />
      <path
         style="fill:none;stroke:#000000"
         d="M -71.612 64.252 L 71.6118 64.252"
         id="path26214" />
      <path
         d="M 79.568697,64.671916 A 75.590551,75.590551 0.000000 0 0 71.611823,64.251969"
         style="fill:none;stroke:#000000"
         id="path26216" />
      <path
         d="M 166.299213,78.992223 A 755.905512,755.905512 0.000000 0 0 79.568697,64.671916"
         style="fill:none;stroke:#000000"
         id="path26218" />
      <path
         d="M 313.700787,263.338655 A 188.976378,188.976378 0.000000 0 0 166.299213,78.992223"
         style="fill:none;stroke:#000000"
         id="path26220" />
      <path
         style="fill:none;stroke:#000000"
         d="M 313.701 263.339 L 313.701 549.55"
         id="path26222" />
      <path
         d="M 255.708029,799.335002 A 566.929134,566.929134 0.000000 0 0 313.700787,549.550278"
         style="fill:none;stroke:#000000"
         id="path26224" />
      <path
         style="fill:none;stroke:#000000"
         d="M 255.708 799.335 L 229.201 853.343"
         id="path26226" />
      <path
         d="M 89.333350,956.696976 A 188.976378,188.976378 0.000000 0 0 229.201025,853.343023"
         style="fill:none;stroke:#000000"
         id="path26228" />
      <path
         d="M 70.183546,959.418534 A 566.929134,566.929134 0.000000 0 0 89.333350,956.696976"
         style="fill:none;stroke:#000000"
         id="path26230" />
      <path
         d="M 60.825740,960.000000 A 75.590551,75.590551 0.000000 0 0 70.183546,959.418534"
         style="fill:none;stroke:#000000"
         id="path26232" />
      <path
         style="fill:none;stroke:#000000"
         d="M 60.8257 960 L -60.8257 960"
         id="path26234" />
      <path
         d="M -70.183546,959.418534 A 75.590551,75.590551 0.000000 0 0 -60.825740,960.000000"
         style="fill:none;stroke:#000000"
         id="path26236" />
      <path
         d="M -89.333350,956.696976 A 566.929134,566.929134 0.000000 0 0 -70.183546,959.418534"
         style="fill:none;stroke:#000000"
         id="path26238" />
      <path
         d="M -229.201025,853.343023 A 188.976378,188.976378 0.000000 0 0 -89.333350,956.696976"
         style="fill:none;stroke:#000000"
         id="path26240" />
      <path
         style="fill:none;stroke:#000000"
         d="M -229.201 853.343 L -255.708 799.335"
         id="path26242" />
      <path
         d="M -313.700787,549.550278 A 566.929134,566.929134 0.000000 0 0 -255.708029,799.335002"
         style="fill:none;stroke:#000000"
         id="path26244" />
      <path
         style="fill:none;stroke:#000000"
         d="M -313.701 549.55 L -313.701 263.339"
         id="path26246" />
      <path
         d="M -166.299213,78.992223 A 188.976378,188.976378 0.000000 0 0 -313.700787,263.338655"
         style="fill:none;stroke:#000000"
         id="path26248" />
      <path
         d="M -668.976378,78.992223 A 755.905512,755.905512 0.000000 0 0 -755.706720,64.671926"
         style="fill:none;stroke:#000000"
         id="path26250" />
      <path
         d="M -521.574803,263.338655 A 188.976378,188.976378 0.000000 0 0 -668.976378,78.992223"
         style="fill:none;stroke:#000000"
         id="path26252" />
      <path
         style="fill:none;stroke:#000000"
         d="M -521.575 263.339 L -521.575 549.55"
         id="path26254" />
      <path
         d="M -579.567561,799.335002 A 566.929134,566.929134 0.000000 0 0 -521.574803,549.550278"
         style="fill:none;stroke:#000000"
         id="path26256" />
      <path
         style="fill:none;stroke:#000000"
         d="M -579.568 799.335 L -606.075 853.343"
         id="path26258" />
      <path
         d="M -745.942241,956.696976 A 188.976378,188.976378 0.000000 0 0 -606.074566,853.343023"
         style="fill:none;stroke:#000000"
         id="path26260" />
      <path
         d="M -765.092045,959.418534 A 566.929134,566.929134 0.000000 0 0 -745.942241,956.696976"
         style="fill:none;stroke:#000000"
         id="path26262" />
      <path
         d="M -774.449851,960.000000 A 75.590551,75.590551 0.000000 0 0 -765.092045,959.418534"
         style="fill:none;stroke:#000000"
         id="path26264" />
      <path
         style="fill:none;stroke:#000000"
         d="M -774.45 960 L -896.101 960"
         id="path26266" />
      <path
         d="M -905.459136,959.418534 A 75.590551,75.590551 0.000000 0 0 -896.101330,960.000000"
         style="fill:none;stroke:#000000"
         id="path26268" />
      <path
         d="M -924.608940,956.696976 A 566.929134,566.929134 0.000000 0 0 -905.459136,959.418534"
         style="fill:none;stroke:#000000"
         id="path26270" />
      <path
         d="M -1064.476616,853.343023 A 188.976378,188.976378 0.000000 0 0 -924.608940,956.696976"
         style="fill:none;stroke:#000000"
         id="path26272" />
      <path
         style="fill:none;stroke:#000000"
         d="M -1064.48 853.343 L -1090.98 799.335"
         id="path26274" />
      <path
         d="M -1148.976378,549.550278 A 566.929134,566.929134 0.000000 0 0 -1090.983620,799.335002"
         style="fill:none;stroke:#000000"
         id="path26276" />
      <path
         style="fill:none;stroke:#000000"
         d="M -1148.98 549.55 L -1148.98 263.339"
         id="path26278" />
      <path
         d="M -1001.574803,78.992223 A 188.976378,188.976378 0.000000 0 0 -1148.976378,263.338655"
         style="fill:none;stroke:#000000"
         id="path26280" />
      <path
         d="M -914.844287,64.671916 A 755.905512,755.905512 0.000000 0 0 -1001.574803,78.992223"
         style="fill:none;stroke:#000000"
         id="path26282" />
      <path
         d="M -906.887413,64.251969 A 75.590551,75.590551 0.000000 0 0 -914.844287,64.671916"
         style="fill:none;stroke:#000000"
         id="path26284" />
      <path
         style="fill:none;stroke:#000000"
         d="M -906.887 64.252 L -763.664 64.252"
         id="path26286" />
      <path
         d="M -755.706720,64.671926 A 75.590551,75.590551 0.000000 0 0 -763.663606,64.251977"
         style="fill:none;stroke:#000000"
         id="path26288" />
      <path
         style="fill:none;stroke:#000000"
         d="M -1973.29 533.209 L -1952.03 243.308"
         id="path26290" />
      <path
         d="M -1794.557059,70.713360 A 188.976378,188.976378 0.000000 0 0 -1952.025849,243.308055"
         style="fill:none;stroke:#000000"
         id="path26292" />
      <path
         d="M -1750.119877,64.671916 A 755.905512,755.905512 0.000000 0 0 -1794.557059,70.713360"
         style="fill:none;stroke:#000000"
         id="path26294" />
      <path
         d="M -1742.163004,64.251969 A 75.590549,75.590549 0.000000 0 0 -1750.119877,64.671916"
         style="fill:none;stroke:#000000"
         id="path26296" />
      <path
         style="fill:none;stroke:#000000"
         d="M -1742.16 64.252 L -1670.55 64.252"
         id="path26298" />
      <path
         style="fill:none;stroke:#000000"
         d="M -1670.55 64.252 L -1598.94 64.252"
         id="path26300" />
      <path
         d="M -1590.982404,64.671916 A 75.590551,75.590551 0.000000 0 0 -1598.939278,64.251969"
         style="fill:none;stroke:#000000"
         id="path26302" />
      <path
         d="M -1504.251888,78.992223 A 755.905512,755.905512 0.000000 0 0 -1590.982404,64.671916"
         style="fill:none;stroke:#000000"
         id="path26304" />
      <path
         d="M -1356.850313,263.338655 A 188.976378,188.976378 0.000000 0 0 -1504.251888,78.992223"
         style="fill:none;stroke:#000000"
         id="path26306" />
      <path
         style="fill:none;stroke:#000000"
         d="M -1356.85 263.339 L -1356.85 549.55"
         id="path26308" />
      <path
         d="M -1414.843071,799.335002 A 566.929134,566.929134 0.000000 0 0 -1356.850313,549.550278"
         style="fill:none;stroke:#000000"
         id="path26310" />
      <path
         style="fill:none;stroke:#000000"
         d="M -1414.84 799.335 L -1441.35 853.343"
         id="path26312" />
      <path
         d="M -1581.217751,956.696976 A 188.976378,188.976378 0.000000 0 0 -1441.350075,853.343023"
         style="fill:none;stroke:#000000"
         id="path26314" />
      <path
         d="M -1600.367555,959.418534 A 566.929134,566.929134 0.000000 0 0 -1581.217751,956.696976"
         style="fill:none;stroke:#000000"
         id="path26316" />
      <path
         d="M -1609.725361,960.000000 A 75.590551,75.590551 0.000000 0 0 -1600.367555,959.418534"
         style="fill:none;stroke:#000000"
         id="path26318" />
      <path
         style="fill:none;stroke:#000000"
         d="M -1609.73 960 L -1731.38 960"
         id="path26320" />
      <path
         d="M -1740.734727,959.418534 A 75.590551,75.590551 0.000000 0 0 -1731.376921,960.000000"
         style="fill:none;stroke:#000000"
         id="path26322" />
      <path
         d="M -1759.884531,956.696976 A 566.929134,566.929134 0.000000 0 0 -1740.734727,959.418534"
         style="fill:none;stroke:#000000"
         id="path26324" />
      <path
         d="M -1899.752206,853.343023 A 188.976378,188.976378 0.000000 0 0 -1759.884531,956.696976"
         style="fill:none;stroke:#000000"
         id="path26326" />
      <path
         style="fill:none;stroke:#000000"
         d="M -1899.75 853.343 L -1918.69 814.75"
         id="path26328" />
      <path
         d="M -1973.285699,533.208798 A 548.031496,548.031496 0.000000 0 0 -1918.693775,814.749577"
         style="fill:none;stroke:#000000"
         id="path26330" />
      <path
         style="fill:none;stroke:#000000"
         d="M 1952.03 243.308 L 1973.29 533.209"
         id="path26332" />
      <path
         d="M 1918.693613,814.749577 A 548.031496,548.031496 0.000000 0 0 1973.285537,533.208798"
         style="fill:none;stroke:#000000"
         id="path26334" />
      <path
         style="fill:none;stroke:#000000"
         d="M 1918.69 814.75 L 1899.75 853.343"
         id="path26336" />
      <path
         d="M 1759.884369,956.696976 A 188.976378,188.976378 0.000000 0 0 1899.752044,853.343023"
         style="fill:none;stroke:#000000"
         id="path26338" />
      <path
         d="M 1740.734565,959.418534 A 566.929134,566.929134 0.000000 0 0 1759.884369,956.696976"
         style="fill:none;stroke:#000000"
         id="path26340" />
      <path
         d="M 1731.376759,960.000000 A 75.590551,75.590551 0.000000 0 0 1740.734565,959.418534"
         style="fill:none;stroke:#000000"
         id="path26342" />
      <path
         style="fill:none;stroke:#000000"
         d="M 1731.38 960 L 1609.73 960"
         id="path26344" />
      <path
         d="M 1600.367393,959.418534 A 75.590551,75.590551 0.000000 0 0 1609.725199,960.000000"
         style="fill:none;stroke:#000000"
         id="path26346" />
      <path
         d="M 1581.217589,956.696976 A 566.929134,566.929134 0.000000 0 0 1600.367393,959.418534"
         style="fill:none;stroke:#000000"
         id="path26348" />
      <path
         d="M 1441.349914,853.343023 A 188.976378,188.976378 0.000000 0 0 1581.217589,956.696976"
         style="fill:none;stroke:#000000"
         id="path26350" />
      <path
         style="fill:none;stroke:#000000"
         d="M 1441.35 853.343 L 1414.84 799.335"
         id="path26352" />
      <path
         d="M 1356.850151,549.550278 A 566.929134,566.929134 0.000000 0 0 1414.842910,799.335002"
         style="fill:none;stroke:#000000"
         id="path26354" />
      <path
         style="fill:none;stroke:#000000"
         d="M 1356.85 549.55 L 1356.85 263.339"
         id="path26356" />
      <path
         d="M 1504.251726,78.992223 A 188.976378,188.976378 0.000000 0 0 1356.850151,263.338655"
         style="fill:none;stroke:#000000"
         id="path26358" />
      <path
         d="M 1590.982242,64.671916 A 755.905512,755.905512 0.000000 0 0 1504.251726,78.992223"
         style="fill:none;stroke:#000000"
         id="path26360" />
      <path
         d="M 1598.939116,64.251969 A 75.590551,75.590551 0.000000 0 0 1590.982242,64.671916"
         style="fill:none;stroke:#000000"
         id="path26362" />
      <path
         style="fill:none;stroke:#000000"
         d="M 1598.94 64.252 L 1670.55 64.252"
         id="path26364" />
      <path
         style="fill:none;stroke:#000000"
         d="M 1670.55 64.252 L 1742.16 64.252"
         id="path26366" />
      <path
         d="M 1750.119716,64.671916 A 75.590549,75.590549 0.000000 0 0 1742.162842,64.251969"
         style="fill:none;stroke:#000000"
         id="path26368" />
      <path
         d="M 1794.556897,70.713360 A 755.905512,755.905512 0.000000 0 0 1750.119716,64.671916"
         style="fill:none;stroke:#000000"
         id="path26370" />
      <path
         d="M 1952.025688,243.308055 A 188.976378,188.976378 0.000000 0 0 1794.556897,70.713360"
         style="fill:none;stroke:#000000"
         id="path26372" />
      <path
         style="fill:none;stroke:#000000"
         d="M 2165.67 -86.9291 L -2165.67 -86.9291"
         id="path26374" />
      <path
         style="fill:none;stroke:#000000"
         d="M -2165.67 -86.9291 L -2165.67 64.252"
         id="path26376" />
      <path
         style="fill:none;stroke:#000000"
         d="M -2165.67 64.252 L -2124 113.014"
         id="path26378" />
      <path
         style="fill:none;stroke:#000000"
         d="M -2124 113.014 L -2146.46 399.378"
         id="path26380" />
      <path
         style="fill:none;stroke:#000000"
         d="M -2146.46 399.378 L -2195.22 441.048"
         id="path26382" />
      <path
         style="fill:none;stroke:#000000"
         d="M -2195.22 441.048 L -2241.26 1046.93"
         id="path26384" />
      <path
         style="fill:none;stroke:#000000"
         d="M -2241.26 1046.93 L -2241.26 1122.52"
         id="path26386" />
      <path
         style="fill:none;stroke:#000000"
         d="M -2241.26 1122.52 L 2241.26 1122.52"
         id="path26388" />
      <path
         style="fill:none;stroke:#000000"
         d="M 2241.26 1122.52 L 2241.26 1046.93"
         id="path26390" />
      <path
         style="fill:none;stroke:#000000"
         d="M 2241.26 1046.93 L 2195.22 441.048"
         id="path26392" />
      <path
         style="fill:none;stroke:#000000"
         d="M 2195.22 441.048 L 2146.46 399.378"
         id="path26394" />
      <path
         style="fill:none;stroke:#000000"
         d="M 2146.46 399.378 L 2124 113.014"
         id="path26396" />
      <path
         style="fill:none;stroke:#000000"
         d="M 2124 113.014 L 2165.67 64.252"
         id="path26398" />
      <path
         style="fill:none;stroke:#000000"
         d="M 2165.67 64.252 L 2165.67 -86.9291"
         id="path26400" />
    </symbol>
    <symbol
       id="VBI_KVU32_DDRSN_GR">
      <path
         style="fill:none;stroke:#FF0000"
         d="M 1837.35 1122.52 L 1897.32 1651.65"
         id="path26403" />
      <path
         style="fill:none;stroke:#FF0000"
         d="M 2161.89 1651.65 L 2172.47 1122.52"
         id="path26405" />
      <path
         d="M 1322.834654,1651.653531 L 1322.834654,1697.007862 L -2267.716528,1697.007862 L -2267.716528,1122.519673 L 2267.716543,1122.519673 L 2267.716543,1651.653531"
         style="fill:none;stroke:#000000"
         id="path26407" />
      <path
         d="M -2267.716528,1455.118098 L -2086.299205,1122.519673 L -1685.898346,1697.007862 L -1285.497487,1122.519673 L -885.096628,1697.007862 L -484.695769,1122.519673 L -84.294910,1697.007862 L 316.105949,1122.519673 L 716.506808,1697.007862 L 1116.907667,1122.519673 L 1517.308526,1651.653531 L 1917.709385,1122.519673 L 2267.716543,1624.703857"
         style="fill:none;stroke:#000000"
         id="path26409" />
      <path
         style="fill:none;stroke:#000000"
         d="M 1322.83 1651.65 L 2267.72 1651.65"
         id="path26411" />
      <path
         style="fill:none;stroke:#000000"
         d="M -2267.72 1122.52 L -2267.72 1122.52"
         id="path26413" />
      <use
         xlink:href="#%2AU6"
         style="stroke-width:0.500px"
         id="use26415" />
      <path
         d="M 2267.716535,1122.519685 L 2241.259843,1122.519685 L 2241.259843,1046.929134 L 2195.221888,441.047576 L 2146.460104,399.378415 L 2124.000130,113.013753 L 2165.669291,64.251969 L 2165.669291,-86.929134 L 2369.763780,-86.929134 L 2369.763780,64.251969 L 2411.432941,113.013753 L 2388.972967,399.378415 L 2340.211183,441.047576 L 2294.173228,1046.929134 L 2294.173228,1122.519685 L 2267.716535,1122.519685 z"
         style="fill:none;stroke:#FF0000"
         id="path26417" />
    </symbol>
    <symbol
       id="*U6">
      <path
         d="M 755.706720,64.671926 A 755.905512,755.905512 0.000000 0 0 668.976378,78.992223"
         style="fill:none;stroke:#000000"
         id="path26420" />
      <path
         d="M 763.663606,64.251977 A 75.590551,75.590551 0.000000 0 0 755.706720,64.671926"
         style="fill:none;stroke:#000000"
         id="path26422" />
      <path
         style="fill:none;stroke:#000000"
         d="M 763.664 64.252 L 906.887 64.252"
         id="path26424" />
      <path
         d="M 914.844287,64.671916 A 75.590551,75.590551 0.000000 0 0 906.887413,64.251969"
         style="fill:none;stroke:#000000"
         id="path26426" />
      <path
         d="M 1001.574803,78.992223 A 755.905512,755.905512 0.000000 0 0 914.844287,64.671916"
         style="fill:none;stroke:#000000"
         id="path26428" />
      <path
         d="M 1148.976378,263.338655 A 188.976378,188.976378 0.000000 0 0 1001.574803,78.992223"
         style="fill:none;stroke:#000000"
         id="path26430" />
      <path
         style="fill:none;stroke:#000000"
         d="M 1148.98 263.339 L 1148.98 549.55"
         id="path26432" />
      <path
         d="M 1090.983620,799.335002 A 566.929134,566.929134 0.000000 0 0 1148.976378,549.550278"
         style="fill:none;stroke:#000000"
         id="path26434" />
      <path
         style="fill:none;stroke:#000000"
         d="M 1090.98 799.335 L 1064.48 853.343"
         id="path26436" />
      <path
         d="M 924.608940,956.696976 A 188.976378,188.976378 0.000000 0 0 1064.476616,853.343023"
         style="fill:none;stroke:#000000"
         id="path26438" />
      <path
         d="M 905.459136,959.418534 A 566.929134,566.929134 0.000000 0 0 924.608940,956.696976"
         style="fill:none;stroke:#000000"
         id="path26440" />
      <path
         d="M 896.101330,960.000000 A 75.590551,75.590551 0.000000 0 0 905.459136,959.418534"
         style="fill:none;stroke:#000000"
         id="path26442" />
      <path
         style="fill:none;stroke:#000000"
         d="M 896.101 960 L 774.45 960"
         id="path26444" />
      <path
         d="M 765.092045,959.418534 A 75.590551,75.590551 0.000000 0 0 774.449851,960.000000"
         style="fill:none;stroke:#000000"
         id="path26446" />
      <path
         d="M 745.942241,956.696976 A 566.929134,566.929134 0.000000 0 0 765.092045,959.418534"
         style="fill:none;stroke:#000000"
         id="path26448" />
      <path
         d="M 606.074566,853.343023 A 188.976378,188.976378 0.000000 0 0 745.942241,956.696976"
         style="fill:none;stroke:#000000"
         id="path26450" />
      <path
         style="fill:none;stroke:#000000"
         d="M 606.075 853.343 L 579.568 799.335"
         id="path26452" />
      <path
         d="M 521.574803,549.550278 A 566.929134,566.929134 0.000000 0 0 579.567561,799.335002"
         style="fill:none;stroke:#000000"
         id="path26454" />
      <path
         style="fill:none;stroke:#000000"
         d="M 521.575 549.55 L 521.575 263.339"
         id="path26456" />
      <path
         d="M 668.976378,78.992223 A 188.976378,188.976378 0.000000 0 0 521.574803,263.338655"
         style="fill:none;stroke:#000000"
         id="path26458" />
      <path
         d="M -79.568870,64.671926 A 755.905512,755.905512 0.000000 0 0 -166.299213,78.992223"
         style="fill:none;stroke:#000000"
         id="path26460" />
      <path
         d="M -71.611984,64.251977 A 75.590551,75.590551 0.000000 0 0 -79.568870,64.671926"
         style="fill:none;stroke:#000000"
         id="path26462" />
      <path
         style="fill:none;stroke:#000000"
         d="M -71.612 64.252 L 71.6118 64.252"
         id="path26464" />
      <path
         d="M 79.568697,64.671916 A 75.590551,75.590551 0.000000 0 0 71.611823,64.251969"
         style="fill:none;stroke:#000000"
         id="path26466" />
      <path
         d="M 166.299213,78.992223 A 755.905512,755.905512 0.000000 0 0 79.568697,64.671916"
         style="fill:none;stroke:#000000"
         id="path26468" />
      <path
         d="M 313.700787,263.338655 A 188.976378,188.976378 0.000000 0 0 166.299213,78.992223"
         style="fill:none;stroke:#000000"
         id="path26470" />
      <path
         style="fill:none;stroke:#000000"
         d="M 313.701 263.339 L 313.701 549.55"
         id="path26472" />
      <path
         d="M 255.708029,799.335002 A 566.929134,566.929134 0.000000 0 0 313.700787,549.550278"
         style="fill:none;stroke:#000000"
         id="path26474" />
      <path
         style="fill:none;stroke:#000000"
         d="M 255.708 799.335 L 229.201 853.343"
         id="path26476" />
      <path
         d="M 89.333350,956.696976 A 188.976378,188.976378 0.000000 0 0 229.201025,853.343023"
         style="fill:none;stroke:#000000"
         id="path26478" />
      <path
         d="M 70.183546,959.418534 A 566.929134,566.929134 0.000000 0 0 89.333350,956.696976"
         style="fill:none;stroke:#000000"
         id="path26480" />
      <path
         d="M 60.825740,960.000000 A 75.590551,75.590551 0.000000 0 0 70.183546,959.418534"
         style="fill:none;stroke:#000000"
         id="path26482" />
      <path
         style="fill:none;stroke:#000000"
         d="M 60.8257 960 L -60.8257 960"
         id="path26484" />
      <path
         d="M -70.183546,959.418534 A 75.590551,75.590551 0.000000 0 0 -60.825740,960.000000"
         style="fill:none;stroke:#000000"
         id="path26486" />
      <path
         d="M -89.333350,956.696976 A 566.929134,566.929134 0.000000 0 0 -70.183546,959.418534"
         style="fill:none;stroke:#000000"
         id="path26488" />
      <path
         d="M -229.201025,853.343023 A 188.976378,188.976378 0.000000 0 0 -89.333350,956.696976"
         style="fill:none;stroke:#000000"
         id="path26490" />
      <path
         style="fill:none;stroke:#000000"
         d="M -229.201 853.343 L -255.708 799.335"
         id="path26492" />
      <path
         d="M -313.700787,549.550278 A 566.929134,566.929134 0.000000 0 0 -255.708029,799.335002"
         style="fill:none;stroke:#000000"
         id="path26494" />
      <path
         style="fill:none;stroke:#000000"
         d="M -313.701 549.55 L -313.701 263.339"
         id="path26496" />
      <path
         d="M -166.299213,78.992223 A 188.976378,188.976378 0.000000 0 0 -313.700787,263.338655"
         style="fill:none;stroke:#000000"
         id="path26498" />
      <path
         d="M -668.976378,78.992223 A 755.905512,755.905512 0.000000 0 0 -755.706720,64.671926"
         style="fill:none;stroke:#000000"
         id="path26500" />
      <path
         d="M -521.574803,263.338655 A 188.976378,188.976378 0.000000 0 0 -668.976378,78.992223"
         style="fill:none;stroke:#000000"
         id="path26502" />
      <path
         style="fill:none;stroke:#000000"
         d="M -521.575 263.339 L -521.575 549.55"
         id="path26504" />
      <path
         d="M -579.567561,799.335002 A 566.929134,566.929134 0.000000 0 0 -521.574803,549.550278"
         style="fill:none;stroke:#000000"
         id="path26506" />
      <path
         style="fill:none;stroke:#000000"
         d="M -579.568 799.335 L -606.075 853.343"
         id="path26508" />
      <path
         d="M -745.942241,956.696976 A 188.976378,188.976378 0.000000 0 0 -606.074566,853.343023"
         style="fill:none;stroke:#000000"
         id="path26510" />
      <path
         d="M -765.092045,959.418534 A 566.929134,566.929134 0.000000 0 0 -745.942241,956.696976"
         style="fill:none;stroke:#000000"
         id="path26512" />
      <path
         d="M -774.449851,960.000000 A 75.590551,75.590551 0.000000 0 0 -765.092045,959.418534"
         style="fill:none;stroke:#000000"
         id="path26514" />
      <path
         style="fill:none;stroke:#000000"
         d="M -774.45 960 L -896.101 960"
         id="path26516" />
      <path
         d="M -905.459136,959.418534 A 75.590551,75.590551 0.000000 0 0 -896.101330,960.000000"
         style="fill:none;stroke:#000000"
         id="path26518" />
      <path
         d="M -924.608940,956.696976 A 566.929134,566.929134 0.000000 0 0 -905.459136,959.418534"
         style="fill:none;stroke:#000000"
         id="path26520" />
      <path
         d="M -1064.476616,853.343023 A 188.976378,188.976378 0.000000 0 0 -924.608940,956.696976"
         style="fill:none;stroke:#000000"
         id="path26522" />
      <path
         style="fill:none;stroke:#000000"
         d="M -1064.48 853.343 L -1090.98 799.335"
         id="path26524" />
      <path
         d="M -1148.976378,549.550278 A 566.929134,566.929134 0.000000 0 0 -1090.983620,799.335002"
         style="fill:none;stroke:#000000"
         id="path26526" />
      <path
         style="fill:none;stroke:#000000"
         d="M -1148.98 549.55 L -1148.98 263.339"
         id="path26528" />
      <path
         d="M -1001.574803,78.992223 A 188.976378,188.976378 0.000000 0 0 -1148.976378,263.338655"
         style="fill:none;stroke:#000000"
         id="path26530" />
      <path
         d="M -914.844287,64.671916 A 755.905512,755.905512 0.000000 0 0 -1001.574803,78.992223"
         style="fill:none;stroke:#000000"
         id="path26532" />
      <path
         d="M -906.887413,64.251969 A 75.590551,75.590551 0.000000 0 0 -914.844287,64.671916"
         style="fill:none;stroke:#000000"
         id="path26534" />
      <path
         style="fill:none;stroke:#000000"
         d="M -906.887 64.252 L -763.664 64.252"
         id="path26536" />
      <path
         d="M -755.706720,64.671926 A 75.590551,75.590551 0.000000 0 0 -763.663606,64.251977"
         style="fill:none;stroke:#000000"
         id="path26538" />
      <path
         style="fill:none;stroke:#000000"
         d="M -1973.29 533.209 L -1952.03 243.308"
         id="path26540" />
      <path
         d="M -1794.557059,70.713360 A 188.976378,188.976378 0.000000 0 0 -1952.025849,243.308055"
         style="fill:none;stroke:#000000"
         id="path26542" />
      <path
         d="M -1750.119877,64.671916 A 755.905512,755.905512 0.000000 0 0 -1794.557059,70.713360"
         style="fill:none;stroke:#000000"
         id="path26544" />
      <path
         d="M -1742.163004,64.251969 A 75.590549,75.590549 0.000000 0 0 -1750.119877,64.671916"
         style="fill:none;stroke:#000000"
         id="path26546" />
      <path
         style="fill:none;stroke:#000000"
         d="M -1742.16 64.252 L -1670.55 64.252"
         id="path26548" />
      <path
         style="fill:none;stroke:#000000"
         d="M -1670.55 64.252 L -1598.94 64.252"
         id="path26550" />
      <path
         d="M -1590.982404,64.671916 A 75.590551,75.590551 0.000000 0 0 -1598.939278,64.251969"
         style="fill:none;stroke:#000000"
         id="path26552" />
      <path
         d="M -1504.251888,78.992223 A 755.905512,755.905512 0.000000 0 0 -1590.982404,64.671916"
         style="fill:none;stroke:#000000"
         id="path26554" />
      <path
         d="M -1356.850313,263.338655 A 188.976378,188.976378 0.000000 0 0 -1504.251888,78.992223"
         style="fill:none;stroke:#000000"
         id="path26556" />
      <path
         style="fill:none;stroke:#000000"
         d="M -1356.85 263.339 L -1356.85 549.55"
         id="path26558" />
      <path
         d="M -1414.843071,799.335002 A 566.929134,566.929134 0.000000 0 0 -1356.850313,549.550278"
         style="fill:none;stroke:#000000"
         id="path26560" />
      <path
         style="fill:none;stroke:#000000"
         d="M -1414.84 799.335 L -1441.35 853.343"
         id="path26562" />
      <path
         d="M -1581.217751,956.696976 A 188.976378,188.976378 0.000000 0 0 -1441.350075,853.343023"
         style="fill:none;stroke:#000000"
         id="path26564" />
      <path
         d="M -1600.367555,959.418534 A 566.929134,566.929134 0.000000 0 0 -1581.217751,956.696976"
         style="fill:none;stroke:#000000"
         id="path26566" />
      <path
         d="M -1609.725361,960.000000 A 75.590551,75.590551 0.000000 0 0 -1600.367555,959.418534"
         style="fill:none;stroke:#000000"
         id="path26568" />
      <path
         style="fill:none;stroke:#000000"
         d="M -1609.73 960 L -1731.38 960"
         id="path26570" />
      <path
         d="M -1740.734727,959.418534 A 75.590551,75.590551 0.000000 0 0 -1731.376921,960.000000"
         style="fill:none;stroke:#000000"
         id="path26572" />
      <path
         d="M -1759.884531,956.696976 A 566.929134,566.929134 0.000000 0 0 -1740.734727,959.418534"
         style="fill:none;stroke:#000000"
         id="path26574" />
      <path
         d="M -1899.752206,853.343023 A 188.976378,188.976378 0.000000 0 0 -1759.884531,956.696976"
         style="fill:none;stroke:#000000"
         id="path26576" />
      <path
         style="fill:none;stroke:#000000"
         d="M -1899.75 853.343 L -1918.69 814.75"
         id="path26578" />
      <path
         d="M -1973.285699,533.208798 A 548.031496,548.031496 0.000000 0 0 -1918.693775,814.749577"
         style="fill:none;stroke:#000000"
         id="path26580" />
      <path
         style="fill:none;stroke:#000000"
         d="M 1952.03 243.308 L 1973.29 533.209"
         id="path26582" />
      <path
         d="M 1918.693613,814.749577 A 548.031496,548.031496 0.000000 0 0 1973.285537,533.208798"
         style="fill:none;stroke:#000000"
         id="path26584" />
      <path
         style="fill:none;stroke:#000000"
         d="M 1918.69 814.75 L 1899.75 853.343"
         id="path26586" />
      <path
         d="M 1759.884369,956.696976 A 188.976378,188.976378 0.000000 0 0 1899.752044,853.343023"
         style="fill:none;stroke:#000000"
         id="path26588" />
      <path
         d="M 1740.734565,959.418534 A 566.929134,566.929134 0.000000 0 0 1759.884369,956.696976"
         style="fill:none;stroke:#000000"
         id="path26590" />
      <path
         d="M 1731.376759,960.000000 A 75.590551,75.590551 0.000000 0 0 1740.734565,959.418534"
         style="fill:none;stroke:#000000"
         id="path26592" />
      <path
         style="fill:none;stroke:#000000"
         d="M 1731.38 960 L 1609.73 960"
         id="path26594" />
      <path
         d="M 1600.367393,959.418534 A 75.590551,75.590551 0.000000 0 0 1609.725199,960.000000"
         style="fill:none;stroke:#000000"
         id="path26596" />
      <path
         d="M 1581.217589,956.696976 A 566.929134,566.929134 0.000000 0 0 1600.367393,959.418534"
         style="fill:none;stroke:#000000"
         id="path26598" />
      <path
         d="M 1441.349914,853.343023 A 188.976378,188.976378 0.000000 0 0 1581.217589,956.696976"
         style="fill:none;stroke:#000000"
         id="path26600" />
      <path
         style="fill:none;stroke:#000000"
         d="M 1441.35 853.343 L 1414.84 799.335"
         id="path26602" />
      <path
         d="M 1356.850151,549.550278 A 566.929134,566.929134 0.000000 0 0 1414.842910,799.335002"
         style="fill:none;stroke:#000000"
         id="path26604" />
      <path
         style="fill:none;stroke:#000000"
         d="M 1356.85 549.55 L 1356.85 263.339"
         id="path26606" />
      <path
         d="M 1504.251726,78.992223 A 188.976378,188.976378 0.000000 0 0 1356.850151,263.338655"
         style="fill:none;stroke:#000000"
         id="path26608" />
      <path
         d="M 1590.982242,64.671916 A 755.905512,755.905512 0.000000 0 0 1504.251726,78.992223"
         style="fill:none;stroke:#000000"
         id="path26610" />
      <path
         d="M 1598.939116,64.251969 A 75.590551,75.590551 0.000000 0 0 1590.982242,64.671916"
         style="fill:none;stroke:#000000"
         id="path26612" />
      <path
         style="fill:none;stroke:#000000"
         d="M 1598.94 64.252 L 1670.55 64.252"
         id="path26614" />
      <path
         style="fill:none;stroke:#000000"
         d="M 1670.55 64.252 L 1742.16 64.252"
         id="path26616" />
      <path
         d="M 1750.119716,64.671916 A 75.590549,75.590549 0.000000 0 0 1742.162842,64.251969"
         style="fill:none;stroke:#000000"
         id="path26618" />
      <path
         d="M 1794.556897,70.713360 A 755.905512,755.905512 0.000000 0 0 1750.119716,64.671916"
         style="fill:none;stroke:#000000"
         id="path26620" />
      <path
         d="M 1952.025688,243.308055 A 188.976378,188.976378 0.000000 0 0 1794.556897,70.713360"
         style="fill:none;stroke:#000000"
         id="path26622" />
      <path
         style="fill:none;stroke:#000000"
         d="M 2165.67 -86.9291 L -2165.67 -86.9291"
         id="path26624" />
      <path
         style="fill:none;stroke:#000000"
         d="M -2165.67 -86.9291 L -2165.67 64.252"
         id="path26626" />
      <path
         style="fill:none;stroke:#000000"
         d="M -2165.67 64.252 L -2124 113.014"
         id="path26628" />
      <path
         style="fill:none;stroke:#000000"
         d="M -2124 113.014 L -2146.46 399.378"
         id="path26630" />
      <path
         style="fill:none;stroke:#000000"
         d="M -2146.46 399.378 L -2195.22 441.048"
         id="path26632" />
      <path
         style="fill:none;stroke:#000000"
         d="M -2195.22 441.048 L -2241.26 1046.93"
         id="path26634" />
      <path
         style="fill:none;stroke:#000000"
         d="M -2241.26 1046.93 L -2241.26 1122.52"
         id="path26636" />
      <path
         style="fill:none;stroke:#000000"
         d="M -2241.26 1122.52 L 2241.26 1122.52"
         id="path26638" />
      <path
         style="fill:none;stroke:#000000"
         d="M 2241.26 1122.52 L 2241.26 1046.93"
         id="path26640" />
      <path
         style="fill:none;stroke:#000000"
         d="M 2241.26 1046.93 L 2195.22 441.048"
         id="path26642" />
      <path
         style="fill:none;stroke:#000000"
         d="M 2195.22 441.048 L 2146.46 399.378"
         id="path26644" />
      <path
         style="fill:none;stroke:#000000"
         d="M 2146.46 399.378 L 2124 113.014"
         id="path26646" />
      <path
         style="fill:none;stroke:#000000"
         d="M 2124 113.014 L 2165.67 64.252"
         id="path26648" />
      <path
         style="fill:none;stroke:#000000"
         d="M 2165.67 64.252 L 2165.67 -86.9291"
         id="path26650" />
    </symbol>
    <symbol
       id="VBI_KVU32_DDRSN_RO">
      <path
         d="M -2241.259843,1122.519685 L -2267.716531,1122.519679 L -2267.716531,1697.007868 L 1700.787406,1697.007868 L 1700.787406,1122.519679"
         style="fill:none;stroke:#000000"
         id="path26653" />
      <path
         d="M -2267.716531,1455.118104 L -2086.299209,1122.519679 L -1685.898350,1697.007868 L -1285.497491,1122.519679 L -885.096632,1697.007868 L -484.695773,1122.519679 L -84.294914,1697.007868 L 316.105945,1122.519679 L 716.506804,1697.007868 L 1116.907663,1122.519679 L 1517.308522,1697.007868 L 1700.787406,1433.755557"
         style="fill:none;stroke:#000000"
         id="path26655" />
      <use
         xlink:href="#%2AU8"
         style="stroke-width:0.500px"
         id="use26657" />
      <path
         d="M 2267.716535,1122.519685 L 2241.259843,1122.519685 L 2241.259843,1046.929134 L 2195.221888,441.047576 L 2146.460104,399.378415 L 2124.000130,113.013753 L 2165.669291,64.251969 L 2165.669291,-86.929134 L 2369.763780,-86.929134 L 2369.763780,64.251969 L 2411.432941,113.013753 L 2388.972967,399.378415 L 2340.211183,441.047576 L 2294.173228,1046.929134 L 2294.173228,1122.519685 L 2267.716535,1122.519685 z"
         style="fill:none;stroke:#FF0000"
         id="path26659" />
    </symbol>
    <symbol
       id="*U8">
      <path
         d="M 755.706720,64.671926 A 755.905512,755.905512 0.000000 0 0 668.976378,78.992223"
         style="fill:none;stroke:#000000"
         id="path26662" />
      <path
         d="M 763.663606,64.251977 A 75.590551,75.590551 0.000000 0 0 755.706720,64.671926"
         style="fill:none;stroke:#000000"
         id="path26664" />
      <path
         style="fill:none;stroke:#000000"
         d="M 763.664 64.252 L 906.887 64.252"
         id="path26666" />
      <path
         d="M 914.844287,64.671916 A 75.590551,75.590551 0.000000 0 0 906.887413,64.251969"
         style="fill:none;stroke:#000000"
         id="path26668" />
      <path
         d="M 1001.574803,78.992223 A 755.905512,755.905512 0.000000 0 0 914.844287,64.671916"
         style="fill:none;stroke:#000000"
         id="path26670" />
      <path
         d="M 1148.976378,263.338655 A 188.976378,188.976378 0.000000 0 0 1001.574803,78.992223"
         style="fill:none;stroke:#000000"
         id="path26672" />
      <path
         style="fill:none;stroke:#000000"
         d="M 1148.98 263.339 L 1148.98 549.55"
         id="path26674" />
      <path
         d="M 1090.983620,799.335002 A 566.929134,566.929134 0.000000 0 0 1148.976378,549.550278"
         style="fill:none;stroke:#000000"
         id="path26676" />
      <path
         style="fill:none;stroke:#000000"
         d="M 1090.98 799.335 L 1064.48 853.343"
         id="path26678" />
      <path
         d="M 924.608940,956.696976 A 188.976378,188.976378 0.000000 0 0 1064.476616,853.343023"
         style="fill:none;stroke:#000000"
         id="path26680" />
      <path
         d="M 905.459136,959.418534 A 566.929134,566.929134 0.000000 0 0 924.608940,956.696976"
         style="fill:none;stroke:#000000"
         id="path26682" />
      <path
         d="M 896.101330,960.000000 A 75.590551,75.590551 0.000000 0 0 905.459136,959.418534"
         style="fill:none;stroke:#000000"
         id="path26684" />
      <path
         style="fill:none;stroke:#000000"
         d="M 896.101 960 L 774.45 960"
         id="path26686" />
      <path
         d="M 765.092045,959.418534 A 75.590551,75.590551 0.000000 0 0 774.449851,960.000000"
         style="fill:none;stroke:#000000"
         id="path26688" />
      <path
         d="M 745.942241,956.696976 A 566.929134,566.929134 0.000000 0 0 765.092045,959.418534"
         style="fill:none;stroke:#000000"
         id="path26690" />
      <path
         d="M 606.074566,853.343023 A 188.976378,188.976378 0.000000 0 0 745.942241,956.696976"
         style="fill:none;stroke:#000000"
         id="path26692" />
      <path
         style="fill:none;stroke:#000000"
         d="M 606.075 853.343 L 579.568 799.335"
         id="path26694" />
      <path
         d="M 521.574803,549.550278 A 566.929134,566.929134 0.000000 0 0 579.567561,799.335002"
         style="fill:none;stroke:#000000"
         id="path26696" />
      <path
         style="fill:none;stroke:#000000"
         d="M 521.575 549.55 L 521.575 263.339"
         id="path26698" />
      <path
         d="M 668.976378,78.992223 A 188.976378,188.976378 0.000000 0 0 521.574803,263.338655"
         style="fill:none;stroke:#000000"
         id="path26700" />
      <path
         d="M -79.568870,64.671926 A 755.905512,755.905512 0.000000 0 0 -166.299213,78.992223"
         style="fill:none;stroke:#000000"
         id="path26702" />
      <path
         d="M -71.611984,64.251977 A 75.590551,75.590551 0.000000 0 0 -79.568870,64.671926"
         style="fill:none;stroke:#000000"
         id="path26704" />
      <path
         style="fill:none;stroke:#000000"
         d="M -71.612 64.252 L 71.6118 64.252"
         id="path26706" />
      <path
         d="M 79.568697,64.671916 A 75.590551,75.590551 0.000000 0 0 71.611823,64.251969"
         style="fill:none;stroke:#000000"
         id="path26708" />
      <path
         d="M 166.299213,78.992223 A 755.905512,755.905512 0.000000 0 0 79.568697,64.671916"
         style="fill:none;stroke:#000000"
         id="path26710" />
      <path
         d="M 313.700787,263.338655 A 188.976378,188.976378 0.000000 0 0 166.299213,78.992223"
         style="fill:none;stroke:#000000"
         id="path26712" />
      <path
         style="fill:none;stroke:#000000"
         d="M 313.701 263.339 L 313.701 549.55"
         id="path26714" />
      <path
         d="M 255.708029,799.335002 A 566.929134,566.929134 0.000000 0 0 313.700787,549.550278"
         style="fill:none;stroke:#000000"
         id="path26716" />
      <path
         style="fill:none;stroke:#000000"
         d="M 255.708 799.335 L 229.201 853.343"
         id="path26718" />
      <path
         d="M 89.333350,956.696976 A 188.976378,188.976378 0.000000 0 0 229.201025,853.343023"
         style="fill:none;stroke:#000000"
         id="path26720" />
      <path
         d="M 70.183546,959.418534 A 566.929134,566.929134 0.000000 0 0 89.333350,956.696976"
         style="fill:none;stroke:#000000"
         id="path26722" />
      <path
         d="M 60.825740,960.000000 A 75.590551,75.590551 0.000000 0 0 70.183546,959.418534"
         style="fill:none;stroke:#000000"
         id="path26724" />
      <path
         style="fill:none;stroke:#000000"
         d="M 60.8257 960 L -60.8257 960"
         id="path26726" />
      <path
         d="M -70.183546,959.418534 A 75.590551,75.590551 0.000000 0 0 -60.825740,960.000000"
         style="fill:none;stroke:#000000"
         id="path26728" />
      <path
         d="M -89.333350,956.696976 A 566.929134,566.929134 0.000000 0 0 -70.183546,959.418534"
         style="fill:none;stroke:#000000"
         id="path26730" />
      <path
         d="M -229.201025,853.343023 A 188.976378,188.976378 0.000000 0 0 -89.333350,956.696976"
         style="fill:none;stroke:#000000"
         id="path26732" />
      <path
         style="fill:none;stroke:#000000"
         d="M -229.201 853.343 L -255.708 799.335"
         id="path26734" />
      <path
         d="M -313.700787,549.550278 A 566.929134,566.929134 0.000000 0 0 -255.708029,799.335002"
         style="fill:none;stroke:#000000"
         id="path26736" />
      <path
         style="fill:none;stroke:#000000"
         d="M -313.701 549.55 L -313.701 263.339"
         id="path26738" />
      <path
         d="M -166.299213,78.992223 A 188.976378,188.976378 0.000000 0 0 -313.700787,263.338655"
         style="fill:none;stroke:#000000"
         id="path26740" />
      <path
         d="M -668.976378,78.992223 A 755.905512,755.905512 0.000000 0 0 -755.706720,64.671926"
         style="fill:none;stroke:#000000"
         id="path26742" />
      <path
         d="M -521.574803,263.338655 A 188.976378,188.976378 0.000000 0 0 -668.976378,78.992223"
         style="fill:none;stroke:#000000"
         id="path26744" />
      <path
         style="fill:none;stroke:#000000"
         d="M -521.575 263.339 L -521.575 549.55"
         id="path26746" />
      <path
         d="M -579.567561,799.335002 A 566.929134,566.929134 0.000000 0 0 -521.574803,549.550278"
         style="fill:none;stroke:#000000"
         id="path26748" />
      <path
         style="fill:none;stroke:#000000"
         d="M -579.568 799.335 L -606.075 853.343"
         id="path26750" />
      <path
         d="M -745.942241,956.696976 A 188.976378,188.976378 0.000000 0 0 -606.074566,853.343023"
         style="fill:none;stroke:#000000"
         id="path26752" />
      <path
         d="M -765.092045,959.418534 A 566.929134,566.929134 0.000000 0 0 -745.942241,956.696976"
         style="fill:none;stroke:#000000"
         id="path26754" />
      <path
         d="M -774.449851,960.000000 A 75.590551,75.590551 0.000000 0 0 -765.092045,959.418534"
         style="fill:none;stroke:#000000"
         id="path26756" />
      <path
         style="fill:none;stroke:#000000"
         d="M -774.45 960 L -896.101 960"
         id="path26758" />
      <path
         d="M -905.459136,959.418534 A 75.590551,75.590551 0.000000 0 0 -896.101330,960.000000"
         style="fill:none;stroke:#000000"
         id="path26760" />
      <path
         d="M -924.608940,956.696976 A 566.929134,566.929134 0.000000 0 0 -905.459136,959.418534"
         style="fill:none;stroke:#000000"
         id="path26762" />
      <path
         d="M -1064.476616,853.343023 A 188.976378,188.976378 0.000000 0 0 -924.608940,956.696976"
         style="fill:none;stroke:#000000"
         id="path26764" />
      <path
         style="fill:none;stroke:#000000"
         d="M -1064.48 853.343 L -1090.98 799.335"
         id="path26766" />
      <path
         d="M -1148.976378,549.550278 A 566.929134,566.929134 0.000000 0 0 -1090.983620,799.335002"
         style="fill:none;stroke:#000000"
         id="path26768" />
      <path
         style="fill:none;stroke:#000000"
         d="M -1148.98 549.55 L -1148.98 263.339"
         id="path26770" />
      <path
         d="M -1001.574803,78.992223 A 188.976378,188.976378 0.000000 0 0 -1148.976378,263.338655"
         style="fill:none;stroke:#000000"
         id="path26772" />
      <path
         d="M -914.844287,64.671916 A 755.905512,755.905512 0.000000 0 0 -1001.574803,78.992223"
         style="fill:none;stroke:#000000"
         id="path26774" />
      <path
         d="M -906.887413,64.251969 A 75.590551,75.590551 0.000000 0 0 -914.844287,64.671916"
         style="fill:none;stroke:#000000"
         id="path26776" />
      <path
         style="fill:none;stroke:#000000"
         d="M -906.887 64.252 L -763.664 64.252"
         id="path26778" />
      <path
         d="M -755.706720,64.671926 A 75.590551,75.590551 0.000000 0 0 -763.663606,64.251977"
         style="fill:none;stroke:#000000"
         id="path26780" />
      <path
         style="fill:none;stroke:#000000"
         d="M -1973.29 533.209 L -1952.03 243.308"
         id="path26782" />
      <path
         d="M -1794.557059,70.713360 A 188.976378,188.976378 0.000000 0 0 -1952.025849,243.308055"
         style="fill:none;stroke:#000000"
         id="path26784" />
      <path
         d="M -1750.119877,64.671916 A 755.905512,755.905512 0.000000 0 0 -1794.557059,70.713360"
         style="fill:none;stroke:#000000"
         id="path26786" />
      <path
         d="M -1742.163004,64.251969 A 75.590549,75.590549 0.000000 0 0 -1750.119877,64.671916"
         style="fill:none;stroke:#000000"
         id="path26788" />
      <path
         style="fill:none;stroke:#000000"
         d="M -1742.16 64.252 L -1670.55 64.252"
         id="path26790" />
      <path
         style="fill:none;stroke:#000000"
         d="M -1670.55 64.252 L -1598.94 64.252"
         id="path26792" />
      <path
         d="M -1590.982404,64.671916 A 75.590551,75.590551 0.000000 0 0 -1598.939278,64.251969"
         style="fill:none;stroke:#000000"
         id="path26794" />
      <path
         d="M -1504.251888,78.992223 A 755.905512,755.905512 0.000000 0 0 -1590.982404,64.671916"
         style="fill:none;stroke:#000000"
         id="path26796" />
      <path
         d="M -1356.850313,263.338655 A 188.976378,188.976378 0.000000 0 0 -1504.251888,78.992223"
         style="fill:none;stroke:#000000"
         id="path26798" />
      <path
         style="fill:none;stroke:#000000"
         d="M -1356.85 263.339 L -1356.85 549.55"
         id="path26800" />
      <path
         d="M -1414.843071,799.335002 A 566.929134,566.929134 0.000000 0 0 -1356.850313,549.550278"
         style="fill:none;stroke:#000000"
         id="path26802" />
      <path
         style="fill:none;stroke:#000000"
         d="M -1414.84 799.335 L -1441.35 853.343"
         id="path26804" />
      <path
         d="M -1581.217751,956.696976 A 188.976378,188.976378 0.000000 0 0 -1441.350075,853.343023"
         style="fill:none;stroke:#000000"
         id="path26806" />
      <path
         d="M -1600.367555,959.418534 A 566.929134,566.929134 0.000000 0 0 -1581.217751,956.696976"
         style="fill:none;stroke:#000000"
         id="path26808" />
      <path
         d="M -1609.725361,960.000000 A 75.590551,75.590551 0.000000 0 0 -1600.367555,959.418534"
         style="fill:none;stroke:#000000"
         id="path26810" />
      <path
         style="fill:none;stroke:#000000"
         d="M -1609.73 960 L -1731.38 960"
         id="path26812" />
      <path
         d="M -1740.734727,959.418534 A 75.590551,75.590551 0.000000 0 0 -1731.376921,960.000000"
         style="fill:none;stroke:#000000"
         id="path26814" />
      <path
         d="M -1759.884531,956.696976 A 566.929134,566.929134 0.000000 0 0 -1740.734727,959.418534"
         style="fill:none;stroke:#000000"
         id="path26816" />
      <path
         d="M -1899.752206,853.343023 A 188.976378,188.976378 0.000000 0 0 -1759.884531,956.696976"
         style="fill:none;stroke:#000000"
         id="path26818" />
      <path
         style="fill:none;stroke:#000000"
         d="M -1899.75 853.343 L -1918.69 814.75"
         id="path26820" />
      <path
         d="M -1973.285699,533.208798 A 548.031496,548.031496 0.000000 0 0 -1918.693775,814.749577"
         style="fill:none;stroke:#000000"
         id="path26822" />
      <path
         style="fill:none;stroke:#000000"
         d="M 1952.03 243.308 L 1973.29 533.209"
         id="path26824" />
      <path
         d="M 1918.693613,814.749577 A 548.031496,548.031496 0.000000 0 0 1973.285537,533.208798"
         style="fill:none;stroke:#000000"
         id="path26826" />
      <path
         style="fill:none;stroke:#000000"
         d="M 1918.69 814.75 L 1899.75 853.343"
         id="path26828" />
      <path
         d="M 1759.884369,956.696976 A 188.976378,188.976378 0.000000 0 0 1899.752044,853.343023"
         style="fill:none;stroke:#000000"
         id="path26830" />
      <path
         d="M 1740.734565,959.418534 A 566.929134,566.929134 0.000000 0 0 1759.884369,956.696976"
         style="fill:none;stroke:#000000"
         id="path26832" />
      <path
         d="M 1731.376759,960.000000 A 75.590551,75.590551 0.000000 0 0 1740.734565,959.418534"
         style="fill:none;stroke:#000000"
         id="path26834" />
      <path
         style="fill:none;stroke:#000000"
         d="M 1731.38 960 L 1609.73 960"
         id="path26836" />
      <path
         d="M 1600.367393,959.418534 A 75.590551,75.590551 0.000000 0 0 1609.725199,960.000000"
         style="fill:none;stroke:#000000"
         id="path26838" />
      <path
         d="M 1581.217589,956.696976 A 566.929134,566.929134 0.000000 0 0 1600.367393,959.418534"
         style="fill:none;stroke:#000000"
         id="path26840" />
      <path
         d="M 1441.349914,853.343023 A 188.976378,188.976378 0.000000 0 0 1581.217589,956.696976"
         style="fill:none;stroke:#000000"
         id="path26842" />
      <path
         style="fill:none;stroke:#000000"
         d="M 1441.35 853.343 L 1414.84 799.335"
         id="path26844" />
      <path
         d="M 1356.850151,549.550278 A 566.929134,566.929134 0.000000 0 0 1414.842910,799.335002"
         style="fill:none;stroke:#000000"
         id="path26846" />
      <path
         style="fill:none;stroke:#000000"
         d="M 1356.85 549.55 L 1356.85 263.339"
         id="path26848" />
      <path
         d="M 1504.251726,78.992223 A 188.976378,188.976378 0.000000 0 0 1356.850151,263.338655"
         style="fill:none;stroke:#000000"
         id="path26850" />
      <path
         d="M 1590.982242,64.671916 A 755.905512,755.905512 0.000000 0 0 1504.251726,78.992223"
         style="fill:none;stroke:#000000"
         id="path26852" />
      <path
         d="M 1598.939116,64.251969 A 75.590551,75.590551 0.000000 0 0 1590.982242,64.671916"
         style="fill:none;stroke:#000000"
         id="path26854" />
      <path
         style="fill:none;stroke:#000000"
         d="M 1598.94 64.252 L 1670.55 64.252"
         id="path26856" />
      <path
         style="fill:none;stroke:#000000"
         d="M 1670.55 64.252 L 1742.16 64.252"
         id="path26858" />
      <path
         d="M 1750.119716,64.671916 A 75.590549,75.590549 0.000000 0 0 1742.162842,64.251969"
         style="fill:none;stroke:#000000"
         id="path26860" />
      <path
         d="M 1794.556897,70.713360 A 755.905512,755.905512 0.000000 0 0 1750.119716,64.671916"
         style="fill:none;stroke:#000000"
         id="path26862" />
      <path
         d="M 1952.025688,243.308055 A 188.976378,188.976378 0.000000 0 0 1794.556897,70.713360"
         style="fill:none;stroke:#000000"
         id="path26864" />
      <path
         style="fill:none;stroke:#000000"
         d="M 2165.67 -86.9291 L -2165.67 -86.9291"
         id="path26866" />
      <path
         style="fill:none;stroke:#000000"
         d="M -2165.67 -86.9291 L -2165.67 64.252"
         id="path26868" />
      <path
         style="fill:none;stroke:#000000"
         d="M -2165.67 64.252 L -2124 113.014"
         id="path26870" />
      <path
         style="fill:none;stroke:#000000"
         d="M -2124 113.014 L -2146.46 399.378"
         id="path26872" />
      <path
         style="fill:none;stroke:#000000"
         d="M -2146.46 399.378 L -2195.22 441.048"
         id="path26874" />
      <path
         style="fill:none;stroke:#000000"
         d="M -2195.22 441.048 L -2241.26 1046.93"
         id="path26876" />
      <path
         style="fill:none;stroke:#000000"
         d="M -2241.26 1046.93 L -2241.26 1122.52"
         id="path26878" />
      <path
         style="fill:none;stroke:#000000"
         d="M -2241.26 1122.52 L 2241.26 1122.52"
         id="path26880" />
      <path
         style="fill:none;stroke:#000000"
         d="M 2241.26 1122.52 L 2241.26 1046.93"
         id="path26882" />
      <path
         style="fill:none;stroke:#000000"
         d="M 2241.26 1046.93 L 2195.22 441.048"
         id="path26884" />
      <path
         style="fill:none;stroke:#000000"
         d="M 2195.22 441.048 L 2146.46 399.378"
         id="path26886" />
      <path
         style="fill:none;stroke:#000000"
         d="M 2146.46 399.378 L 2124 113.014"
         id="path26888" />
      <path
         style="fill:none;stroke:#000000"
         d="M 2124 113.014 L 2165.67 64.252"
         id="path26890" />
      <path
         style="fill:none;stroke:#000000"
         d="M 2165.67 64.252 L 2165.67 -86.9291"
         id="path26892" />
    </symbol>
  </defs>
  <g
     inkscape:groupmode="layer"
     inkscape:label="0"
     id="g26897" />
  <g
     inkscape:groupmode="layer"
     inkscape:label="concrete"
     id="g26911">
    <path
       id="path26899"
       style="fill:#c0c0c0;stroke:#000000;fill-opacity:1"
       d="M 102.04688 -661.41797 L 102.04688 -510.23633 L 143.7168 -461.47461 L 121.25586 -175.10938 L 72.494141 -133.44141 L 26.457031 472.44141 L 26.457031 548.03125 L 4508.9766 548.03125 L 4508.9766 472.44141 L 4462.9375 -133.44141 L 4414.1758 -175.10938 L 4391.7168 -461.47461 L 4433.3867 -510.23633 L 4433.3867 -661.41797 L 102.04688 -661.41797 z M 525.55273 -510.23633 L 597.16602 -510.23633 L 668.77734 -510.23633 A 75.590551 75.590551 0 0 1 676.73438 -509.81641 A 755.90551 755.90551 0 0 1 763.46484 -495.49609 A 188.97638 188.97638 0 0 1 910.86719 -311.15039 L 910.86719 -24.9375 A 566.92913 566.92913 0 0 1 852.87305 224.84766 L 826.36719 278.85547 A 188.97638 188.97638 0 0 1 686.49805 382.20898 A 566.92913 566.92913 0 0 1 667.34961 384.92969 A 75.590551 75.590551 0 0 1 657.99023 385.51172 L 536.33984 385.51172 A 75.590551 75.590551 0 0 1 526.98242 384.92969 A 566.92913 566.92913 0 0 1 507.83203 382.20898 A 188.97638 188.97638 0 0 1 367.96484 278.85547 L 349.02344 240.26172 A 548.0315 548.0315 0 0 1 294.43164 -41.279297 L 315.69141 -331.17969 A 188.97638 188.97638 0 0 1 473.16016 -503.77539 A 755.90551 755.90551 0 0 1 517.5957 -509.81641 A 75.590549 75.590549 0 0 1 525.55273 -510.23633 z M 1360.8301 -510.23633 L 1504.0527 -510.23633 A 75.590551 75.590551 0 0 1 1512.0098 -509.81641 A 755.90551 755.90551 0 0 1 1598.7402 -495.49609 A 188.97638 188.97638 0 0 1 1746.1426 -311.15039 L 1746.1426 -24.9375 A 566.92913 566.92913 0 0 1 1688.1484 224.84766 L 1661.6426 278.85547 A 188.97638 188.97638 0 0 1 1521.7734 382.20898 A 566.92913 566.92913 0 0 1 1502.625 384.92969 A 75.590551 75.590551 0 0 1 1493.2676 385.51172 L 1371.6152 385.51172 A 75.590551 75.590551 0 0 1 1362.2578 384.92969 A 566.92913 566.92913 0 0 1 1343.1074 382.20898 A 188.97638 188.97638 0 0 1 1203.2402 278.85547 L 1176.7324 224.84766 A 566.92913 566.92913 0 0 1 1118.7402 -24.9375 L 1118.7402 -311.15039 A 188.97638 188.97638 0 0 1 1266.1426 -495.49609 A 755.90551 755.90551 0 0 1 1352.873 -509.81641 A 75.590551 75.590551 0 0 1 1360.8301 -510.23633 z M 2196.1055 -510.23633 L 2339.3281 -510.23633 A 75.590551 75.590551 0 0 1 2347.2852 -509.81641 A 755.90551 755.90551 0 0 1 2434.0156 -495.49609 A 188.97638 188.97638 0 0 1 2581.418 -311.15039 L 2581.418 -24.9375 A 566.92913 566.92913 0 0 1 2523.4238 224.84766 L 2496.918 278.85547 A 188.97638 188.97638 0 0 1 2357.0508 382.20898 A 566.92913 566.92913 0 0 1 2337.9004 384.92969 A 75.590551 75.590551 0 0 1 2328.543 385.51172 L 2206.8906 385.51172 A 75.590551 75.590551 0 0 1 2197.5332 384.92969 A 566.92913 566.92913 0 0 1 2178.3828 382.20898 A 188.97638 188.97638 0 0 1 2038.5156 278.85547 L 2012.0078 224.84766 A 566.92913 566.92913 0 0 1 1954.0156 -24.9375 L 1954.0156 -311.15039 A 188.97638 188.97638 0 0 1 2101.418 -495.49609 A 755.90551 755.90551 0 0 1 2188.1484 -509.81641 A 75.590551 75.590551 0 0 1 2196.1055 -510.23633 z M 3031.3809 -510.23633 L 3174.6035 -510.23633 A 75.590551 75.590551 0 0 1 3182.5605 -509.81641 A 755.90551 755.90551 0 0 1 3269.291 -495.49609 A 188.97638 188.97638 0 0 1 3416.6934 -311.15039 L 3416.6934 -24.9375 A 566.92913 566.92913 0 0 1 3358.6992 224.84766 L 3332.1934 278.85547 A 188.97638 188.97638 0 0 1 3192.3262 382.20898 A 566.92913 566.92913 0 0 1 3173.1758 384.92969 A 75.590551 75.590551 0 0 1 3163.8184 385.51172 L 3042.166 385.51172 A 75.590551 75.590551 0 0 1 3032.8086 384.92969 A 566.92913 566.92913 0 0 1 3013.6582 382.20898 A 188.97638 188.97638 0 0 1 2873.791 278.85547 L 2847.2832 224.84766 A 566.92913 566.92913 0 0 1 2789.291 -24.9375 L 2789.291 -311.15039 A 188.97638 188.97638 0 0 1 2936.6934 -495.49609 A 755.90551 755.90551 0 0 1 3023.4238 -509.81641 A 75.590551 75.590551 0 0 1 3031.3809 -510.23633 z M 3866.6562 -510.23633 L 3938.2676 -510.23633 L 4009.8789 -510.23633 A 75.590549 75.590549 0 0 1 4017.8359 -509.81641 A 755.90551 755.90551 0 0 1 4062.2734 -503.77539 A 188.97638 188.97638 0 0 1 4219.7422 -331.17969 L 4241.002 -41.279297 A 548.0315 548.0315 0 0 1 4186.4102 240.26172 L 4167.4688 278.85547 A 188.97638 188.97638 0 0 1 4027.6016 382.20898 A 566.92913 566.92913 0 0 1 4008.4512 384.92969 A 75.590551 75.590551 0 0 1 3999.0938 385.51172 L 3877.4414 385.51172 A 75.590551 75.590551 0 0 1 3868.084 384.92969 A 566.92913 566.92913 0 0 1 3848.9336 382.20898 A 188.97638 188.97638 0 0 1 3709.0664 278.85547 L 3682.5586 224.84766 A 566.92913 566.92913 0 0 1 3624.5664 -24.9375 L 3624.5664 -311.15039 A 188.97638 188.97638 0 0 1 3771.9688 -495.49609 A 755.90551 755.90551 0 0 1 3858.6992 -509.81641 A 75.590551 75.590551 0 0 1 3866.6562 -510.23633 z " />
  </g>
  <g
     inkscape:groupmode="layer"
     inkscape:label="insulation"
     id="g26915">
    <path
       d="M 4535.433071,548.031496 L 4535.433071,1122.519685 L 0.000000,1122.519685 L 0.000000,548.031496 L 4535.433071,548.031496 z"
       style="fill:#ffffff;stroke:#000000;fill-opacity:1"
       id="path26913" />
  </g>
</svg>
