<?xml version="1.0" encoding="UTF-8" standalone="no"?>
<svg
   viewBox="0 0 793.7007874015749 1122.5196850393702"
   width="793.7007874015749"
   height="1122.5196850393702"
   version="1.1"
   id="svg11277"
   sodipodi:docname="HL200H200.svg"
   inkscape:version="1.2.2 (732a01da63, 2022-12-09)"
   xmlns:inkscape="http://www.inkscape.org/namespaces/inkscape"
   xmlns:sodipodi="http://sodipodi.sourceforge.net/DTD/sodipodi-0.dtd"
   xmlns:xlink="http://www.w3.org/1999/xlink"
   xmlns="http://www.w3.org/2000/svg"
   xmlns:svg="http://www.w3.org/2000/svg">
  <sodipodi:namedview
     id="namedview11279"
     pagecolor="#ffffff"
     bordercolor="#000000"
     borderopacity="0.25"
     inkscape:showpageshadow="2"
     inkscape:pageopacity="0.0"
     inkscape:pagecheckerboard="0"
     inkscape:deskcolor="#d1d1d1"
     showgrid="false"
     inkscape:zoom="0.26146536"
     inkscape:cx="124.29945"
     inkscape:cy="210.35292"
     inkscape:window-width="3440"
     inkscape:window-height="1377"
     inkscape:window-x="-8"
     inkscape:window-y="-8"
     inkscape:window-maximized="1"
     inkscape:current-layer="g11275" />
  <desc
     id="desc10735">HL200H200.dxf - scale = 1.000000, origin = (0.000000, 0.000000), method = manual</desc>
  <defs
     id="defs11249">
    <marker
       id="DistanceX"
       orient="auto"
       refX="0.0"
       refY="0.0"
       style="overflow:visible">
      <path
         d="M 3,-3 L -3,3 M 0,-5 L  0,5"
         style="stroke:#000000; stroke-width:0.5"
         id="path10737" />
    </marker>
    <pattern
       id="Hatch"
       patternUnits="userSpaceOnUse"
       width="8"
       height="8"
       x="0"
       y="0">
      <path
         d="M8 4 l-4,4"
         stroke="#000000"
         stroke-width="0.25"
         linecap="square"
         id="path10740" />
      <path
         d="M6 2 l-4,4"
         stroke="#000000"
         stroke-width="0.25"
         linecap="square"
         id="path10742" />
      <path
         d="M4 0 l-4,4"
         stroke="#000000"
         stroke-width="0.25"
         linecap="square"
         id="path10744" />
    </pattern>
    <symbol
       id="*Model_Space" />
    <symbol
       id="*Paper_Space" />
    <symbol
       id="$MODEL_SPACE" />
    <symbol
       id="$PAPER_SPACE" />
    <symbol
       id="DIMDOT">
      <path
         style="fill:none;stroke:#000000"
         d="M -7.55905 1122.52 L 7.55905 1122.52"
         id="path10751" />
      <path
         style="fill:none;stroke:#000000"
         d="M 0 1135.75 L 0 1109.29"
         id="path10753" />
      <path
         d="M 1.889764,1122.519685 A 1.889764,1.889764 0.000000 0, 0 -1.889764,1122.519685 A 1.889764,1.889764 0.000000 0, 0 1.889764,1122.519685 z"
         style="fill:none;stroke:#000000"
         id="path10755" />
      <path
         d="M 0.944882,1122.519685 A 0.944882,0.944882 0.000000 0, 0 -0.944882,1122.519685 A 0.944882,0.944882 0.000000 0, 0 0.944882,1122.519685 z"
         style="fill:none;stroke:#000000"
         id="path10757" />
    </symbol>
    <symbol
       id="VBI_HL200_DDRSN_NP">
      <path
         d="M 2192.125984,1122.519685 L 2267.716535,1122.519685 L 2267.716535,1621.417323 L -2267.716535,1621.417323 L -2267.716535,1122.519685 L -2192.125984,1122.519685"
         style="fill:none;stroke:#000000;stroke-linecap: round"
         id="path10760" />
      <path
         d="M -2267.716535,1260.932910 L -2129.303311,1122.519685 L -1705.996224,1621.417323 L -1282.689138,1122.519685 L -859.382051,1621.417323 L -436.074964,1122.519685 L -12.767878,1621.417323 L 410.539209,1122.519685 L 833.846295,1621.417323 L 1257.153382,1122.519685 L 1680.460469,1621.417323 L 2103.767555,1122.519685 L 2267.716535,1315.745269"
         style="fill:none;stroke:#000000"
         id="path10762" />
      <path
         d="M 2184.566929,366.614173 L 2350.866142,366.614173 L 2350.866142,517.795276 L 2396.220472,563.149606 L 2396.220472,631.181102 L 2350.866142,744.566929 L 2350.866142,1122.519685 L 2184.566929,1122.519685 L 2184.566929,744.566929 L 2139.212598,631.181102 L 2139.212598,563.149606 L 2184.566929,517.795276 L 2184.566929,366.614173 z"
         style="fill:none;stroke:#FF0000"
         id="path10764" />
      <path
         d="M -2139.212598,563.149606 L -2139.212598,631.181102 L -2184.566929,744.566929 L -2184.566929,1122.519685 L 2184.566929,1122.519685 L 2184.566929,744.566929 L 2139.212598,631.181102 L 2139.212598,563.149606 L 2184.566929,517.795276 L 2184.566929,366.614173 L -2184.566929,366.614173 L -2184.566929,517.795276 L -2139.212598,563.149606 z"
         style="fill:none;stroke:#000000"
         id="path10766" />
      <path
         d="M 0.000000,1009.142091 A 377.953114,377.953114 0.0 0 1 -205.511762,948.385244 A 75.590551,75.590551 0.0 0 1 -240.000000,884.946051 L -240.000000,752.926650 A 226.771654,226.771654 0.0 0 1 -203.083899,628.909505 A 359.055118,359.055118 0.0 0 0 -191.731856,610.323084 A 220.679061,220.679061 0.0 0 1 0.000000,498.905834 A 220.679061,220.679061 0.0 0 1 191.731856,610.323084 A 359.055118,359.055118 0.0 0 0 203.083899,628.909505 A 226.771654,226.771654 0.0 0 1 240.000000,752.926650 L 240.000000,884.946051 A 75.590551,75.590551 0.0 0 1 205.511762,948.385244 A 377.953114,377.953114 0.0 0 1 0.000000,1009.142091 z"
         style="fill:none;stroke:#000000"
         id="path10768" />
      <path
         d="M -593.385827,1009.142091 A 377.953114,377.953114 0.0 0 1 -798.897589,948.385244 A 75.590551,75.590551 0.0 0 1 -833.385827,884.946051 L -833.385827,752.926650 A 226.771654,226.771654 0.0 0 1 -796.469725,628.909505 A 359.055118,359.055118 0.0 0 0 -785.117683,610.323084 A 220.679061,220.679061 0.0 0 1 -593.385827,498.905834 A 220.679061,220.679061 0.0 0 1 -401.653971,610.323084 A 359.055118,359.055118 0.0 0 0 -390.301928,628.909505 A 226.771654,226.771654 0.0 0 1 -353.385827,752.926650 L -353.385827,884.946051 A 75.590551,75.590551 0.0 0 1 -387.874064,948.385244 A 377.953114,377.953114 0.0 0 1 -593.385827,1009.142091 z"
         style="fill:none;stroke:#000000"
         id="path10770" />
      <path
         d="M -1186.771654,1009.142091 A 377.953114,377.953114 0.0 0 1 -1392.283416,948.385244 A 75.590551,75.590551 0.0 0 1 -1426.771654,884.946051 L -1426.771654,752.926650 A 226.771654,226.771654 0.0 0 1 -1389.855552,628.909505 A 359.055118,359.055118 0.0 0 0 -1378.503510,610.323084 A 220.679061,220.679061 0.0 0 1 -1186.771654,498.905834 A 220.679061,220.679061 0.0 0 1 -995.039797,610.323084 A 359.055118,359.055118 0.0 0 0 -983.687755,628.909505 A 226.771654,226.771654 0.0 0 1 -946.771654,752.926650 L -946.771654,884.946051 A 75.590551,75.590551 0.0 0 1 -981.259891,948.385244 A 377.953114,377.953114 0.0 0 1 -1186.771654,1009.142091 z"
         style="fill:none;stroke:#000000"
         id="path10772" />
      <path
         d="M -1780.157480,1009.142091 A 377.953114,377.953114 0.0 0 1 -1985.669243,948.385244 A 75.590551,75.590551 0.0 0 1 -2020.157480,884.946051 L -2020.157480,752.926650 A 226.771654,226.771654 0.0 0 1 -1983.241379,628.909505 A 359.055118,359.055118 0.0 0 0 -1971.889336,610.323084 A 220.679061,220.679061 0.0 0 1 -1780.157480,498.905834 A 220.679061,220.679061 0.0 0 1 -1588.425624,610.323084 A 359.055118,359.055118 0.0 0 0 -1577.073582,628.909505 A 226.771654,226.771654 0.0 0 1 -1540.157480,752.926650 L -1540.157480,884.946051 A 75.590551,75.590551 0.0 0 1 -1574.645718,948.385244 A 377.953114,377.953114 0.0 0 1 -1780.157480,1009.142091 z"
         style="fill:none;stroke:#000000"
         id="path10774" />
      <path
         d="M 593.385827,1009.142091 A 377.953114,377.953114 0.0 0 0 798.897589,948.385244 A 75.590551,75.590551 0.0 0 0 833.385827,884.946051 L 833.385827,752.926650 A 226.771654,226.771654 0.0 0 0 796.469725,628.909505 A 359.055118,359.055118 0.0 0 1 785.117683,610.323084 A 220.679061,220.679061 0.0 0 0 593.385827,498.905834 A 220.679061,220.679061 0.0 0 0 401.653971,610.323084 A 359.055118,359.055118 0.0 0 1 390.301928,628.909505 A 226.771654,226.771654 0.0 0 0 353.385827,752.926650 L 353.385827,884.946051 A 75.590551,75.590551 0.0 0 0 387.874064,948.385244 A 377.953114,377.953114 0.0 0 0 593.385827,1009.142091 z"
         style="fill:none;stroke:#000000"
         id="path10776" />
      <path
         d="M 1186.771654,1009.142091 A 377.953114,377.953114 0.0 0 0 1392.283416,948.385244 A 75.590551,75.590551 0.0 0 0 1426.771654,884.946051 L 1426.771654,752.926650 A 226.771654,226.771654 0.0 0 0 1389.855552,628.909505 A 359.055118,359.055118 0.0 0 1 1378.503510,610.323084 A 220.679061,220.679061 0.0 0 0 1186.771654,498.905834 A 220.679061,220.679061 0.0 0 0 995.039797,610.323084 A 359.055118,359.055118 0.0 0 1 983.687755,628.909505 A 226.771654,226.771654 0.0 0 0 946.771654,752.926650 L 946.771654,884.946051 A 75.590551,75.590551 0.0 0 0 981.259891,948.385244 A 377.953114,377.953114 0.0 0 0 1186.771654,1009.142091 z"
         style="fill:none;stroke:#000000"
         id="path10778" />
      <path
         d="M 1780.157480,1009.142091 A 377.953114,377.953114 0.0 0 0 1985.669243,948.385244 A 75.590551,75.590551 0.0 0 0 2020.157480,884.946051 L 2020.157480,752.926650 A 226.771654,226.771654 0.0 0 0 1983.241379,628.909505 A 359.055118,359.055118 0.0 0 1 1971.889336,610.323084 A 220.679061,220.679061 0.0 0 0 1780.157480,498.905834 A 220.679061,220.679061 0.0 0 0 1588.425624,610.323084 A 359.055118,359.055118 0.0 0 1 1577.073582,628.909505 A 226.771654,226.771654 0.0 0 0 1540.157480,752.926650 L 1540.157480,884.946051 A 75.590551,75.590551 0.0 0 0 1574.645718,948.385244 A 377.953114,377.953114 0.0 0 0 1780.157480,1009.142091 z"
         style="fill:none;stroke:#000000"
         id="path10780" />
    </symbol>
    <symbol
       id="VBI_HL200_DDRSN_GR">
      <path
         d="M -2267.716543,1260.932913 L -2129.303318,1122.519688 L -1705.996232,1621.417326 L -1282.689145,1122.519688 L -859.382058,1621.417326 L -436.074972,1122.519688 L -12.767885,1621.417326 L 410.539201,1122.519688 L 833.846288,1621.417326 L 1257.153375,1122.519688 L 1680.460461,1576.062995 L 2103.767548,1122.519688 L 2267.716528,1315.745272"
         style="fill:none;stroke:#000000"
         id="path10783" />
      <path
         style="fill:none;stroke:#FF0000"
         d="M 1820.22 1122.52 L 1897.32 1576.06"
         id="path10785" />
      <path
         style="fill:none;stroke:#FF0000"
         d="M 2161.89 1576.06 L 2175.5 1122.52"
         id="path10787" />
      <path
         d="M -2192.125992,1122.519688 L -2267.716543,1122.519688 L -2267.716543,1621.417326 L 1322.834638,1621.417326 L 1322.834638,1576.062995 L 2267.716528,1576.062995 L 2267.716528,1122.519688 L 2192.125977,1122.519688"
         style="fill:none;stroke:#000000"
         id="path10789" />
      <path
         d="M -2139.212606,563.149609 L -2139.212606,631.181105 L -2184.566937,744.566932 L -2184.566937,1122.519688 L 2184.566922,1122.519688 L 2184.566922,744.566932 L 2139.212591,631.181105 L 2139.212591,563.149609 L 2184.566922,517.795279 L 2184.566922,366.614176 L -2184.566937,366.614176 L -2184.566937,517.795279 L -2139.212606,563.149609 z"
         style="fill:none;stroke:#000000"
         id="path10791" />
      <path
         d="M -0.000007,1009.142094 A 377.953114,377.953114 0.0 0 1 -205.511770,948.385247 A 75.590551,75.590551 0.0 0 1 -240.000007,884.946054 L -240.000007,752.926653 A 226.771654,226.771654 0.0 0 1 -203.083906,628.909508 A 359.055118,359.055118 0.0 0 0 -191.731863,610.323087 A 220.679061,220.679061 0.0 0 1 -0.000007,498.905837 A 220.679061,220.679061 0.0 0 1 191.731849,610.323087 A 359.055118,359.055118 0.0 0 0 203.083891,628.909508 A 226.771654,226.771654 0.0 0 1 239.999993,752.926653 L 239.999993,884.946054 A 75.590551,75.590551 0.0 0 1 205.511755,948.385247 A 377.953114,377.953114 0.0 0 1 -0.000007,1009.142094 z"
         style="fill:none;stroke:#000000"
         id="path10793" />
      <path
         d="M -593.385834,1009.142094 A 377.953114,377.953114 0.0 0 1 -798.897596,948.385247 A 75.590551,75.590551 0.0 0 1 -833.385834,884.946054 L -833.385834,752.926653 A 226.771654,226.771654 0.0 0 1 -796.469733,628.909508 A 359.055118,359.055118 0.0 0 0 -785.117690,610.323087 A 220.679061,220.679061 0.0 0 1 -593.385834,498.905837 A 220.679061,220.679061 0.0 0 1 -401.653978,610.323087 A 359.055118,359.055118 0.0 0 0 -390.301935,628.909508 A 226.771654,226.771654 0.0 0 1 -353.385834,752.926653 L -353.385834,884.946054 A 75.590551,75.590551 0.0 0 1 -387.874072,948.385247 A 377.953114,377.953114 0.0 0 1 -593.385834,1009.142094 z"
         style="fill:none;stroke:#000000"
         id="path10795" />
      <path
         d="M -1186.771661,1009.142094 A 377.953114,377.953114 0.0 0 1 -1392.283423,948.385247 A 75.590551,75.590551 0.0 0 1 -1426.771661,884.946054 L -1426.771661,752.926653 A 226.771654,226.771654 0.0 0 1 -1389.855560,628.909508 A 359.055118,359.055118 0.0 0 0 -1378.503517,610.323087 A 220.679061,220.679061 0.0 0 1 -1186.771661,498.905837 A 220.679061,220.679061 0.0 0 1 -995.039805,610.323087 A 359.055118,359.055118 0.0 0 0 -983.687762,628.909508 A 226.771654,226.771654 0.0 0 1 -946.771661,752.926653 L -946.771661,884.946054 A 75.590551,75.590551 0.0 0 1 -981.259899,948.385247 A 377.953114,377.953114 0.0 0 1 -1186.771661,1009.142094 z"
         style="fill:none;stroke:#000000"
         id="path10797" />
      <path
         d="M -1780.157488,1009.142094 A 377.953114,377.953114 0.0 0 1 -1985.669250,948.385247 A 75.590551,75.590551 0.0 0 1 -2020.157488,884.946054 L -2020.157488,752.926653 A 226.771654,226.771654 0.0 0 1 -1983.241386,628.909508 A 359.055118,359.055118 0.0 0 0 -1971.889344,610.323087 A 220.679061,220.679061 0.0 0 1 -1780.157488,498.905837 A 220.679061,220.679061 0.0 0 1 -1588.425632,610.323087 A 359.055118,359.055118 0.0 0 0 -1577.073589,628.909508 A 226.771654,226.771654 0.0 0 1 -1540.157488,752.926653 L -1540.157488,884.946054 A 75.590551,75.590551 0.0 0 1 -1574.645725,948.385247 A 377.953114,377.953114 0.0 0 1 -1780.157488,1009.142094 z"
         style="fill:none;stroke:#000000"
         id="path10799" />
      <path
         d="M 593.385819,1009.142094 A 377.953114,377.953114 0.0 0 0 798.897582,948.385247 A 75.590551,75.590551 0.0 0 0 833.385819,884.946054 L 833.385819,752.926653 A 226.771654,226.771654 0.0 0 0 796.469718,628.909508 A 359.055118,359.055118 0.0 0 1 785.117675,610.323087 A 220.679061,220.679061 0.0 0 0 593.385819,498.905837 A 220.679061,220.679061 0.0 0 0 401.653963,610.323087 A 359.055118,359.055118 0.0 0 1 390.301921,628.909508 A 226.771654,226.771654 0.0 0 0 353.385819,752.926653 L 353.385819,884.946054 A 75.590551,75.590551 0.0 0 0 387.874057,948.385247 A 377.953114,377.953114 0.0 0 0 593.385819,1009.142094 z"
         style="fill:none;stroke:#000000"
         id="path10801" />
      <path
         d="M 1186.771646,1009.142094 A 377.953114,377.953114 0.0 0 0 1392.283408,948.385247 A 75.590551,75.590551 0.0 0 0 1426.771646,884.946054 L 1426.771646,752.926653 A 226.771654,226.771654 0.0 0 0 1389.855545,628.909508 A 359.055118,359.055118 0.0 0 1 1378.503502,610.323087 A 220.679061,220.679061 0.0 0 0 1186.771646,498.905837 A 220.679061,220.679061 0.0 0 0 995.039790,610.323087 A 359.055118,359.055118 0.0 0 1 983.687747,628.909508 A 226.771654,226.771654 0.0 0 0 946.771646,752.926653 L 946.771646,884.946054 A 75.590551,75.590551 0.0 0 0 981.259884,948.385247 A 377.953114,377.953114 0.0 0 0 1186.771646,1009.142094 z"
         style="fill:none;stroke:#000000"
         id="path10803" />
      <path
         d="M 1780.157473,1009.142094 A 377.953114,377.953114 0.0 0 0 1985.669235,948.385247 A 75.590551,75.590551 0.0 0 0 2020.157473,884.946054 L 2020.157473,752.926653 A 226.771654,226.771654 0.0 0 0 1983.241372,628.909508 A 359.055118,359.055118 0.0 0 1 1971.889329,610.323087 A 220.679061,220.679061 0.0 0 0 1780.157473,498.905837 A 220.679061,220.679061 0.0 0 0 1588.425617,610.323087 A 359.055118,359.055118 0.0 0 1 1577.073574,628.909508 A 226.771654,226.771654 0.0 0 0 1540.157473,752.926653 L 1540.157473,884.946054 A 75.590551,75.590551 0.0 0 0 1574.645711,948.385247 A 377.953114,377.953114 0.0 0 0 1780.157473,1009.142094 z"
         style="fill:none;stroke:#000000"
         id="path10805" />
    </symbol>
    <symbol
       id="_ARCHTICK">
      <path
         d="M -1.889764,1124.409449 L 1.889764,1120.629921"
         style="fill:none;stroke:#000000;stroke-linecap: round"
         id="path10808" />
    </symbol>
    <symbol
       id="_OPEN90">
      <path
         style="fill:none;stroke:#000000;stroke-linecap:round"
         d="M -1.88976 1120.63 L 0 1122.52"
         id="path10811" />
      <path
         style="fill:none;stroke:#000000;stroke-linecap:round"
         d="M 0 1122.52 L -1.88976 1124.41"
         id="path10813" />
      <path
         style="fill:none;stroke:#000000;stroke-linecap:round"
         d="M 0 1122.52 L -3.77953 1122.52"
         id="path10815" />
    </symbol>
    <symbol
       id="_SMALL">
      <path
         d="M 0.944882,1122.519685 A 0.944882,0.944882 0.000000 0, 0 -0.944882,1122.519685 A 0.944882,0.944882 0.000000 0, 0 0.944882,1122.519685 z"
         style="fill:none;stroke:#000000;stroke-linecap: round"
         id="path10818" />
    </symbol>
    <symbol
       id="VBI_H200_DDRSN_NP">
      <use
         xlink:href="#%2AU9"
         style="stroke-width:0.500px"
         id="use10821" />
      <path
         d="M -2267.716535,1122.519685 L 2267.716535,1122.519685 L 2267.716535,1621.417323 L -2267.716535,1621.417323 L -2267.716535,1122.519685 z"
         style="fill:none;stroke:#000000"
         id="path10823" />
      <path
         d="M -2267.716535,1260.932910 L -2129.303311,1122.519685 L -1705.996224,1621.417323 L -1282.689138,1122.519685 L -859.382051,1621.417323 L -436.074964,1122.519685 L -12.767878,1621.417323 L 410.539209,1122.519685 L 833.846295,1621.417323 L 1257.153382,1122.519685 L 1680.460469,1621.417323 L 2103.767555,1122.519685 L 2267.716535,1315.745269"
         style="fill:none;stroke:#000000"
         id="path10825" />
      <use
         xlink:href="#%2AU10"
         style="stroke-width:0.500px"
         id="use10827" />
    </symbol>
    <symbol
       id="*U9">
      <path
         style="fill:none;stroke:#FF0000"
         d="M 2158.11 366.614 L 2362.2 366.614"
         id="path10830" />
      <path
         style="fill:none;stroke:#FF0000"
         d="M 2158.11 517.795 L 2158.11 366.614"
         id="path10832" />
      <path
         style="fill:none;stroke:#FF0000"
         d="M 2118.02 557.883 L 2158.11 517.795"
         id="path10834" />
      <path
         style="fill:none;stroke:#FF0000"
         d="M 2136.73 688.837 L 2118.02 557.883"
         id="path10836" />
      <path
         style="fill:none;stroke:#FF0000"
         d="M 2190.18 742.288 L 2136.73 688.837"
         id="path10838" />
      <path
         style="fill:none;stroke:#FF0000"
         d="M 2233.7 1046.93 L 2190.18 742.288"
         id="path10840" />
      <path
         style="fill:none;stroke:#FF0000"
         d="M 2233.7 1122.52 L 2233.7 1046.93"
         id="path10842" />
      <path
         style="fill:none;stroke:#FF0000"
         d="M 2286.61 1122.52 L 2233.7 1122.52"
         id="path10844" />
      <path
         style="fill:none;stroke:#FF0000"
         d="M 2286.61 1046.93 L 2286.61 1122.52"
         id="path10846" />
      <path
         style="fill:none;stroke:#FF0000"
         d="M 2330.13 742.288 L 2286.61 1046.93"
         id="path10848" />
      <path
         style="fill:none;stroke:#FF0000"
         d="M 2383.58 688.837 L 2330.13 742.288"
         id="path10850" />
      <path
         style="fill:none;stroke:#FF0000"
         d="M 2402.29 557.883 L 2383.58 688.837"
         id="path10852" />
      <path
         style="fill:none;stroke:#FF0000"
         d="M 2362.2 517.795 L 2402.29 557.883"
         id="path10854" />
      <path
         style="fill:none;stroke:#FF0000"
         d="M 2362.2 366.614 L 2362.2 517.795"
         id="path10856" />
    </symbol>
    <symbol
       id="*U10">
      <path
         style="fill:none;stroke:#000000"
         d="M -2008.82 794.178 L -2008.82 720"
         id="path10859" />
      <path
         d="M -1566.614173,720.000000 A 221.102362,221.102362 0.000000 0 0 -2008.818898,720.000000"
         style="fill:none;stroke:#000000"
         id="path10861" />
      <path
         style="fill:none;stroke:#000000"
         d="M -1566.61 720 L -1566.61 794.178"
         id="path10863" />
      <path
         d="M -1571.034054,816.123970 A 56.692913,56.692913 0.000000 0 0 -1566.614173,794.178208"
         style="fill:none;stroke:#000000"
         id="path10865" />
      <path
         style="fill:none;stroke:#000000"
         d="M -1571.03 816.124 L -1628.13 952.111"
         id="path10867" />
      <path
         d="M -1644.163945,966.972347 A 26.456693,26.456693 0.000000 0 0 -1628.125469,952.111105"
         style="fill:none;stroke:#000000"
         id="path10869" />
      <path
         d="M -1931.269125,966.972347 A 454.536388,454.536388 0.000000 0 0 -1644.163945,966.972347"
         style="fill:none;stroke:#000000"
         id="path10871" />
      <path
         d="M -1947.307602,952.111105 A 26.456693,26.456693 0.000000 0 0 -1931.269125,966.972347"
         style="fill:none;stroke:#000000"
         id="path10873" />
      <path
         style="fill:none;stroke:#000000"
         d="M -1947.31 952.111 L -2004.4 816.124"
         id="path10875" />
      <path
         d="M -2008.818898,794.178208 A 56.692913,56.692913 0.000000 0 0 -2004.399017,816.123970"
         style="fill:none;stroke:#000000"
         id="path10877" />
      <path
         style="fill:none;stroke:#000000"
         d="M -1415.43 794.178 L -1415.43 720"
         id="path10879" />
      <path
         d="M -973.228346,720.000000 A 221.102362,221.102362 0.000000 0 0 -1415.433071,720.000000"
         style="fill:none;stroke:#000000"
         id="path10881" />
      <path
         style="fill:none;stroke:#000000"
         d="M -973.228 720 L -973.228 794.178"
         id="path10883" />
      <path
         d="M -977.648227,816.123970 A 56.692913,56.692913 0.000000 0 0 -973.228346,794.178208"
         style="fill:none;stroke:#000000"
         id="path10885" />
      <path
         style="fill:none;stroke:#000000"
         d="M -977.648 816.124 L -1034.74 952.111"
         id="path10887" />
      <path
         d="M -1050.778119,966.972347 A 26.456693,26.456693 0.000000 0 0 -1034.739643,952.111105"
         style="fill:none;stroke:#000000"
         id="path10889" />
      <path
         d="M -1337.883299,966.972347 A 454.536388,454.536388 0.000000 0 0 -1050.778119,966.972347"
         style="fill:none;stroke:#000000"
         id="path10891" />
      <path
         d="M -1353.921775,952.111105 A 26.456693,26.456693 0.000000 0 0 -1337.883299,966.972347"
         style="fill:none;stroke:#000000"
         id="path10893" />
      <path
         style="fill:none;stroke:#000000"
         d="M -1353.92 952.111 L -1411.01 816.124"
         id="path10895" />
      <path
         d="M -1415.433071,794.178208 A 56.692913,56.692913 0.000000 0 0 -1411.013190,816.123970"
         style="fill:none;stroke:#000000"
         id="path10897" />
      <path
         style="fill:none;stroke:#000000"
         d="M -822.047 794.178 L -822.047 720"
         id="path10899" />
      <path
         d="M -379.842520,720.000000 A 221.102362,221.102362 0.000000 0 0 -822.047244,720.000000"
         style="fill:none;stroke:#000000"
         id="path10901" />
      <path
         style="fill:none;stroke:#000000"
         d="M -379.843 720 L -379.843 794.178"
         id="path10903" />
      <path
         d="M -384.262401,816.123970 A 56.692913,56.692913 0.000000 0 0 -379.842520,794.178208"
         style="fill:none;stroke:#000000"
         id="path10905" />
      <path
         style="fill:none;stroke:#000000"
         d="M -384.262 816.124 L -441.354 952.111"
         id="path10907" />
      <path
         d="M -457.392292,966.972347 A 26.456693,26.456693 0.000000 0 0 -441.353816,952.111105"
         style="fill:none;stroke:#000000"
         id="path10909" />
      <path
         d="M -744.497472,966.972347 A 454.536388,454.536388 0.000000 0 0 -457.392292,966.972347"
         style="fill:none;stroke:#000000"
         id="path10911" />
      <path
         d="M -760.535948,952.111105 A 26.456693,26.456693 0.000000 0 0 -744.497472,966.972347"
         style="fill:none;stroke:#000000"
         id="path10913" />
      <path
         style="fill:none;stroke:#000000"
         d="M -760.536 952.111 L -817.627 816.124"
         id="path10915" />
      <path
         d="M -822.047244,794.178208 A 56.692913,56.692913 0.000000 0 0 -817.627363,816.123970"
         style="fill:none;stroke:#000000"
         id="path10917" />
      <path
         style="fill:none;stroke:#000000"
         d="M -228.661 794.178 L -228.661 720"
         id="path10919" />
      <path
         d="M 213.543307,720.000000 A 221.102362,221.102362 0.000000 0 0 -228.661417,720.000000"
         style="fill:none;stroke:#000000"
         id="path10921" />
      <path
         style="fill:none;stroke:#000000"
         d="M 213.543 720 L 213.543 794.178"
         id="path10923" />
      <path
         d="M 209.123426,816.123970 A 56.692913,56.692913 0.000000 0 0 213.543307,794.178208"
         style="fill:none;stroke:#000000"
         id="path10925" />
      <path
         style="fill:none;stroke:#000000"
         d="M 209.123 816.124 L 152.032 952.111"
         id="path10927" />
      <path
         d="M 135.993535,966.972347 A 26.456693,26.456693 0.000000 0 0 152.032011,952.111105"
         style="fill:none;stroke:#000000"
         id="path10929" />
      <path
         d="M -151.111645,966.972347 A 454.536388,454.536388 0.000000 0 0 135.993535,966.972347"
         style="fill:none;stroke:#000000"
         id="path10931" />
      <path
         d="M -167.150121,952.111105 A 26.456693,26.456693 0.000000 0 0 -151.111645,966.972347"
         style="fill:none;stroke:#000000"
         id="path10933" />
      <path
         style="fill:none;stroke:#000000"
         d="M -167.15 952.111 L -224.242 816.124"
         id="path10935" />
      <path
         d="M -228.661417,794.178208 A 56.692913,56.692913 0.000000 0 0 -224.241536,816.123970"
         style="fill:none;stroke:#000000"
         id="path10937" />
      <path
         style="fill:none;stroke:#000000"
         d="M 364.724 794.178 L 364.724 720"
         id="path10939" />
      <path
         d="M 806.929134,720.000000 A 221.102362,221.102362 0.000000 0 0 364.724409,720.000000"
         style="fill:none;stroke:#000000"
         id="path10941" />
      <path
         style="fill:none;stroke:#000000"
         d="M 806.929 720 L 806.929 794.178"
         id="path10943" />
      <path
         d="M 802.509253,816.123970 A 56.692913,56.692913 0.000000 0 0 806.929134,794.178208"
         style="fill:none;stroke:#000000"
         id="path10945" />
      <path
         style="fill:none;stroke:#000000"
         d="M 802.509 816.124 L 745.418 952.111"
         id="path10947" />
      <path
         d="M 729.379362,966.972347 A 26.456693,26.456693 0.000000 0 0 745.417838,952.111105"
         style="fill:none;stroke:#000000"
         id="path10949" />
      <path
         d="M 442.274182,966.972347 A 454.536388,454.536388 0.000000 0 0 729.379362,966.972347"
         style="fill:none;stroke:#000000"
         id="path10951" />
      <path
         d="M 426.235706,952.111105 A 26.456693,26.456693 0.000000 0 0 442.274182,966.972347"
         style="fill:none;stroke:#000000"
         id="path10953" />
      <path
         style="fill:none;stroke:#000000"
         d="M 426.236 952.111 L 369.144 816.124"
         id="path10955" />
      <path
         d="M 364.724409,794.178208 A 56.692913,56.692913 0.000000 0 0 369.144290,816.123970"
         style="fill:none;stroke:#000000"
         id="path10957" />
      <path
         style="fill:none;stroke:#000000"
         d="M 958.11 794.178 L 958.11 720"
         id="path10959" />
      <path
         d="M 1400.314961,720.000000 A 221.102362,221.102362 0.000000 0 0 958.110236,720.000000"
         style="fill:none;stroke:#000000"
         id="path10961" />
      <path
         style="fill:none;stroke:#000000"
         d="M 1400.31 720 L 1400.31 794.178"
         id="path10963" />
      <path
         d="M 1395.895080,816.123970 A 56.692913,56.692913 0.000000 0 0 1400.314961,794.178208"
         style="fill:none;stroke:#000000"
         id="path10965" />
      <path
         style="fill:none;stroke:#000000"
         d="M 1395.9 816.124 L 1338.8 952.111"
         id="path10967" />
      <path
         d="M 1322.765188,966.972347 A 26.456693,26.456693 0.000000 0 0 1338.803665,952.111105"
         style="fill:none;stroke:#000000"
         id="path10969" />
      <path
         d="M 1035.660008,966.972347 A 454.536388,454.536388 0.000000 0 0 1322.765188,966.972347"
         style="fill:none;stroke:#000000"
         id="path10971" />
      <path
         d="M 1019.621532,952.111105 A 26.456693,26.456693 0.000000 0 0 1035.660008,966.972347"
         style="fill:none;stroke:#000000"
         id="path10973" />
      <path
         style="fill:none;stroke:#000000"
         d="M 1019.62 952.111 L 962.53 816.124"
         id="path10975" />
      <path
         d="M 958.110236,794.178208 A 56.692913,56.692913 0.000000 0 0 962.530117,816.123970"
         style="fill:none;stroke:#000000"
         id="path10977" />
      <path
         style="fill:none;stroke:#000000"
         d="M 1551.5 794.178 L 1551.5 720"
         id="path10979" />
      <path
         d="M 1993.700787,720.000000 A 221.102362,221.102362 0.000000 0 0 1551.496063,720.000000"
         style="fill:none;stroke:#000000"
         id="path10981" />
      <path
         style="fill:none;stroke:#000000"
         d="M 1993.7 720 L 1993.7 794.178"
         id="path10983" />
      <path
         d="M 1989.280906,816.123970 A 56.692913,56.692913 0.000000 0 0 1993.700787,794.178208"
         style="fill:none;stroke:#000000"
         id="path10985" />
      <path
         style="fill:none;stroke:#000000"
         d="M 1989.28 816.124 L 1932.19 952.111"
         id="path10987" />
      <path
         d="M 1916.151015,966.972347 A 26.456693,26.456693 0.000000 0 0 1932.189491,952.111105"
         style="fill:none;stroke:#000000"
         id="path10989" />
      <path
         d="M 1629.045835,966.972347 A 454.536388,454.536388 0.000000 0 0 1916.151015,966.972347"
         style="fill:none;stroke:#000000"
         id="path10991" />
      <path
         d="M 1613.007359,952.111105 A 26.456693,26.456693 0.000000 0 0 1629.045835,966.972347"
         style="fill:none;stroke:#000000"
         id="path10993" />
      <path
         style="fill:none;stroke:#000000"
         d="M 1613.01 952.111 L 1555.92 816.124"
         id="path10995" />
      <path
         d="M 1551.496063,794.178208 A 56.692913,56.692913 0.000000 0 0 1555.915944,816.123970"
         style="fill:none;stroke:#000000"
         id="path10997" />
      <path
         style="fill:none;stroke:#000000"
         d="M 2233.7 1046.93 L 2190.18 742.288"
         id="path10999" />
      <path
         style="fill:none;stroke:#000000"
         d="M 2190.18 742.288 L 2136.73 688.837"
         id="path11001" />
      <path
         style="fill:none;stroke:#000000"
         d="M 2136.73 688.837 L 2118.02 557.883"
         id="path11003" />
      <path
         style="fill:none;stroke:#000000"
         d="M 2118.02 557.883 L 2158.11 517.795"
         id="path11005" />
      <path
         style="fill:none;stroke:#000000"
         d="M 2158.11 517.795 L 2158.11 366.614"
         id="path11007" />
      <path
         style="fill:none;stroke:#000000"
         d="M 2158.11 366.614 L -2173.23 366.614"
         id="path11009" />
      <path
         style="fill:none;stroke:#000000"
         d="M -2173.23 366.614 L -2173.23 517.795"
         id="path11011" />
      <path
         style="fill:none;stroke:#000000"
         d="M -2173.23 517.795 L -2133.14 557.883"
         id="path11013" />
      <path
         style="fill:none;stroke:#000000"
         d="M -2133.14 557.883 L -2151.85 688.837"
         id="path11015" />
      <path
         style="fill:none;stroke:#000000"
         d="M -2151.85 688.837 L -2205.3 742.288"
         id="path11017" />
      <path
         style="fill:none;stroke:#000000"
         d="M -2205.3 742.288 L -2248.82 1046.93"
         id="path11019" />
      <path
         style="fill:none;stroke:#000000"
         d="M -2248.82 1046.93 L -2248.82 1122.52"
         id="path11021" />
      <path
         style="fill:none;stroke:#000000"
         d="M -2248.82 1122.52 L 2233.7 1122.52"
         id="path11023" />
      <path
         style="fill:none;stroke:#000000"
         d="M 2233.7 1122.52 L 2233.7 1046.93"
         id="path11025" />
    </symbol>
    <symbol
       id="VBI_H200_DDRSN_GR">
      <path
         style="fill:none;stroke:#000000"
         d="M -2248.82 1122.52 L -2267.72 1122.52"
         id="path11028" />
      <path
         style="fill:none;stroke:#000000"
         d="M 2267.72 1122.52 L 2233.7 1122.52"
         id="path11030" />
      <path
         d="M 925.984252,1122.519685 L 1341.732283,1122.519685"
         style="fill:none;stroke:#000000"
         id="path11032" />
      <path
         d="M -207.874016,1122.519685 L 207.874016,1122.519685"
         style="fill:none;stroke:#000000"
         id="path11034" />
      <path
         d="M -1341.732283,1122.519685 L -925.984252,1122.519685"
         style="fill:none;stroke:#000000"
         id="path11036" />
      <path
         style="fill:none;stroke:#000000;stroke-dasharray:94.4882,47.2441,"
         d="M -2059.84 1122.52 L -1341.73 1122.52"
         id="path11038" />
      <path
         style="fill:none;stroke:#000000;stroke-dasharray:94.4882,47.2441,"
         d="M -925.984 1122.52 L -207.874 1122.52"
         id="path11040" />
      <path
         style="fill:none;stroke:#000000;stroke-dasharray:94.4882,47.2441,"
         d="M 207.874 1122.52 L 925.984 1122.52"
         id="path11042" />
      <path
         style="fill:none;stroke:#000000;stroke-dasharray:94.4882,47.2441,"
         d="M 1341.73 1122.52 L 2059.84 1122.52"
         id="path11044" />
      <path
         d="M -2267.716535,1260.932910 L -2129.303311,1122.519685 L -1705.996224,1621.417323 L -1282.689138,1122.519685 L -859.382051,1621.417323 L -436.074964,1122.519685 L -12.767878,1621.417323 L 410.539209,1122.519685 L 833.846295,1621.417323 L 1257.153382,1122.519685 L 1680.460469,1576.062992 L 2103.767555,1122.519685 L 2267.716535,1315.745269"
         style="fill:none;stroke:#000000"
         id="path11046" />
      <path
         d="M 2226.897638,1122.519685 L 2213.291339,1576.062992 L 1948.724409,1576.062992 L 1871.622047,1122.519685"
         style="fill:none;stroke:#FF0000"
         id="path11048" />
      <path
         d="M -2267.716535,1122.519685 L 2267.716535,1122.519685 L 2267.716535,1576.062992 L 1322.834646,1576.062992 L 1322.834646,1621.417323 L -2267.716535,1621.417323 L -2267.716535,1122.519685"
         style="fill:none;stroke:#000000"
         id="path11050" />
      <use
         xlink:href="#%2AU12"
         style="stroke-width:0.500px"
         id="use11052" />
    </symbol>
    <symbol
       id="*U12">
      <path
         style="fill:none;stroke:#000000"
         d="M -2008.82 794.178 L -2008.82 720"
         id="path11055" />
      <path
         d="M -1566.614173,720.000000 A 221.102362,221.102362 0.000000 0 0 -2008.818898,720.000000"
         style="fill:none;stroke:#000000"
         id="path11057" />
      <path
         style="fill:none;stroke:#000000"
         d="M -1566.61 720 L -1566.61 794.178"
         id="path11059" />
      <path
         d="M -1571.034054,816.123970 A 56.692913,56.692913 0.000000 0 0 -1566.614173,794.178208"
         style="fill:none;stroke:#000000"
         id="path11061" />
      <path
         style="fill:none;stroke:#000000"
         d="M -1571.03 816.124 L -1628.13 952.111"
         id="path11063" />
      <path
         d="M -1644.163945,966.972347 A 26.456693,26.456693 0.000000 0 0 -1628.125469,952.111105"
         style="fill:none;stroke:#000000"
         id="path11065" />
      <path
         d="M -1931.269125,966.972347 A 454.536388,454.536388 0.000000 0 0 -1644.163945,966.972347"
         style="fill:none;stroke:#000000"
         id="path11067" />
      <path
         d="M -1947.307602,952.111105 A 26.456693,26.456693 0.000000 0 0 -1931.269125,966.972347"
         style="fill:none;stroke:#000000"
         id="path11069" />
      <path
         style="fill:none;stroke:#000000"
         d="M -1947.31 952.111 L -2004.4 816.124"
         id="path11071" />
      <path
         d="M -2008.818898,794.178208 A 56.692913,56.692913 0.000000 0 0 -2004.399017,816.123970"
         style="fill:none;stroke:#000000"
         id="path11073" />
      <path
         style="fill:none;stroke:#000000"
         d="M -1415.43 794.178 L -1415.43 720"
         id="path11075" />
      <path
         d="M -973.228346,720.000000 A 221.102362,221.102362 0.000000 0 0 -1415.433071,720.000000"
         style="fill:none;stroke:#000000"
         id="path11077" />
      <path
         style="fill:none;stroke:#000000"
         d="M -973.228 720 L -973.228 794.178"
         id="path11079" />
      <path
         d="M -977.648227,816.123970 A 56.692913,56.692913 0.000000 0 0 -973.228346,794.178208"
         style="fill:none;stroke:#000000"
         id="path11081" />
      <path
         style="fill:none;stroke:#000000"
         d="M -977.648 816.124 L -1034.74 952.111"
         id="path11083" />
      <path
         d="M -1050.778119,966.972347 A 26.456693,26.456693 0.000000 0 0 -1034.739643,952.111105"
         style="fill:none;stroke:#000000"
         id="path11085" />
      <path
         d="M -1337.883299,966.972347 A 454.536388,454.536388 0.000000 0 0 -1050.778119,966.972347"
         style="fill:none;stroke:#000000"
         id="path11087" />
      <path
         d="M -1353.921775,952.111105 A 26.456693,26.456693 0.000000 0 0 -1337.883299,966.972347"
         style="fill:none;stroke:#000000"
         id="path11089" />
      <path
         style="fill:none;stroke:#000000"
         d="M -1353.92 952.111 L -1411.01 816.124"
         id="path11091" />
      <path
         d="M -1415.433071,794.178208 A 56.692913,56.692913 0.000000 0 0 -1411.013190,816.123970"
         style="fill:none;stroke:#000000"
         id="path11093" />
      <path
         style="fill:none;stroke:#000000"
         d="M -822.047 794.178 L -822.047 720"
         id="path11095" />
      <path
         d="M -379.842520,720.000000 A 221.102362,221.102362 0.000000 0 0 -822.047244,720.000000"
         style="fill:none;stroke:#000000"
         id="path11097" />
      <path
         style="fill:none;stroke:#000000"
         d="M -379.843 720 L -379.843 794.178"
         id="path11099" />
      <path
         d="M -384.262401,816.123970 A 56.692913,56.692913 0.000000 0 0 -379.842520,794.178208"
         style="fill:none;stroke:#000000"
         id="path11101" />
      <path
         style="fill:none;stroke:#000000"
         d="M -384.262 816.124 L -441.354 952.111"
         id="path11103" />
      <path
         d="M -457.392292,966.972347 A 26.456693,26.456693 0.000000 0 0 -441.353816,952.111105"
         style="fill:none;stroke:#000000"
         id="path11105" />
      <path
         d="M -744.497472,966.972347 A 454.536388,454.536388 0.000000 0 0 -457.392292,966.972347"
         style="fill:none;stroke:#000000"
         id="path11107" />
      <path
         d="M -760.535948,952.111105 A 26.456693,26.456693 0.000000 0 0 -744.497472,966.972347"
         style="fill:none;stroke:#000000"
         id="path11109" />
      <path
         style="fill:none;stroke:#000000"
         d="M -760.536 952.111 L -817.627 816.124"
         id="path11111" />
      <path
         d="M -822.047244,794.178208 A 56.692913,56.692913 0.000000 0 0 -817.627363,816.123970"
         style="fill:none;stroke:#000000"
         id="path11113" />
      <path
         style="fill:none;stroke:#000000"
         d="M -228.661 794.178 L -228.661 720"
         id="path11115" />
      <path
         d="M 213.543307,720.000000 A 221.102362,221.102362 0.000000 0 0 -228.661417,720.000000"
         style="fill:none;stroke:#000000"
         id="path11117" />
      <path
         style="fill:none;stroke:#000000"
         d="M 213.543 720 L 213.543 794.178"
         id="path11119" />
      <path
         d="M 209.123426,816.123970 A 56.692913,56.692913 0.000000 0 0 213.543307,794.178208"
         style="fill:none;stroke:#000000"
         id="path11121" />
      <path
         style="fill:none;stroke:#000000"
         d="M 209.123 816.124 L 152.032 952.111"
         id="path11123" />
      <path
         d="M 135.993535,966.972347 A 26.456693,26.456693 0.000000 0 0 152.032011,952.111105"
         style="fill:none;stroke:#000000"
         id="path11125" />
      <path
         d="M -151.111645,966.972347 A 454.536388,454.536388 0.000000 0 0 135.993535,966.972347"
         style="fill:none;stroke:#000000"
         id="path11127" />
      <path
         d="M -167.150121,952.111105 A 26.456693,26.456693 0.000000 0 0 -151.111645,966.972347"
         style="fill:none;stroke:#000000"
         id="path11129" />
      <path
         style="fill:none;stroke:#000000"
         d="M -167.15 952.111 L -224.242 816.124"
         id="path11131" />
      <path
         d="M -228.661417,794.178208 A 56.692913,56.692913 0.000000 0 0 -224.241536,816.123970"
         style="fill:none;stroke:#000000"
         id="path11133" />
      <path
         style="fill:none;stroke:#000000"
         d="M 364.724 794.178 L 364.724 720"
         id="path11135" />
      <path
         d="M 806.929134,720.000000 A 221.102362,221.102362 0.000000 0 0 364.724409,720.000000"
         style="fill:none;stroke:#000000"
         id="path11137" />
      <path
         style="fill:none;stroke:#000000"
         d="M 806.929 720 L 806.929 794.178"
         id="path11139" />
      <path
         d="M 802.509253,816.123970 A 56.692913,56.692913 0.000000 0 0 806.929134,794.178208"
         style="fill:none;stroke:#000000"
         id="path11141" />
      <path
         style="fill:none;stroke:#000000"
         d="M 802.509 816.124 L 745.418 952.111"
         id="path11143" />
      <path
         d="M 729.379362,966.972347 A 26.456693,26.456693 0.000000 0 0 745.417838,952.111105"
         style="fill:none;stroke:#000000"
         id="path11145" />
      <path
         d="M 442.274182,966.972347 A 454.536388,454.536388 0.000000 0 0 729.379362,966.972347"
         style="fill:none;stroke:#000000"
         id="path11147" />
      <path
         d="M 426.235706,952.111105 A 26.456693,26.456693 0.000000 0 0 442.274182,966.972347"
         style="fill:none;stroke:#000000"
         id="path11149" />
      <path
         style="fill:none;stroke:#000000"
         d="M 426.236 952.111 L 369.144 816.124"
         id="path11151" />
      <path
         d="M 364.724409,794.178208 A 56.692913,56.692913 0.000000 0 0 369.144290,816.123970"
         style="fill:none;stroke:#000000"
         id="path11153" />
      <path
         style="fill:none;stroke:#000000"
         d="M 958.11 794.178 L 958.11 720"
         id="path11155" />
      <path
         d="M 1400.314961,720.000000 A 221.102362,221.102362 0.000000 0 0 958.110236,720.000000"
         style="fill:none;stroke:#000000"
         id="path11157" />
      <path
         style="fill:none;stroke:#000000"
         d="M 1400.31 720 L 1400.31 794.178"
         id="path11159" />
      <path
         d="M 1395.895080,816.123970 A 56.692913,56.692913 0.000000 0 0 1400.314961,794.178208"
         style="fill:none;stroke:#000000"
         id="path11161" />
      <path
         style="fill:none;stroke:#000000"
         d="M 1395.9 816.124 L 1338.8 952.111"
         id="path11163" />
      <path
         d="M 1322.765188,966.972347 A 26.456693,26.456693 0.000000 0 0 1338.803665,952.111105"
         style="fill:none;stroke:#000000"
         id="path11165" />
      <path
         d="M 1035.660008,966.972347 A 454.536388,454.536388 0.000000 0 0 1322.765188,966.972347"
         style="fill:none;stroke:#000000"
         id="path11167" />
      <path
         d="M 1019.621532,952.111105 A 26.456693,26.456693 0.000000 0 0 1035.660008,966.972347"
         style="fill:none;stroke:#000000"
         id="path11169" />
      <path
         style="fill:none;stroke:#000000"
         d="M 1019.62 952.111 L 962.53 816.124"
         id="path11171" />
      <path
         d="M 958.110236,794.178208 A 56.692913,56.692913 0.000000 0 0 962.530117,816.123970"
         style="fill:none;stroke:#000000"
         id="path11173" />
      <path
         style="fill:none;stroke:#000000"
         d="M 1551.5 794.178 L 1551.5 720"
         id="path11175" />
      <path
         d="M 1993.700787,720.000000 A 221.102362,221.102362 0.000000 0 0 1551.496063,720.000000"
         style="fill:none;stroke:#000000"
         id="path11177" />
      <path
         style="fill:none;stroke:#000000"
         d="M 1993.7 720 L 1993.7 794.178"
         id="path11179" />
      <path
         d="M 1989.280906,816.123970 A 56.692913,56.692913 0.000000 0 0 1993.700787,794.178208"
         style="fill:none;stroke:#000000"
         id="path11181" />
      <path
         style="fill:none;stroke:#000000"
         d="M 1989.28 816.124 L 1932.19 952.111"
         id="path11183" />
      <path
         d="M 1916.151015,966.972347 A 26.456693,26.456693 0.000000 0 0 1932.189491,952.111105"
         style="fill:none;stroke:#000000"
         id="path11185" />
      <path
         d="M 1629.045835,966.972347 A 454.536388,454.536388 0.000000 0 0 1916.151015,966.972347"
         style="fill:none;stroke:#000000"
         id="path11187" />
      <path
         d="M 1613.007359,952.111105 A 26.456693,26.456693 0.000000 0 0 1629.045835,966.972347"
         style="fill:none;stroke:#000000"
         id="path11189" />
      <path
         style="fill:none;stroke:#000000"
         d="M 1613.01 952.111 L 1555.92 816.124"
         id="path11191" />
      <path
         d="M 1551.496063,794.178208 A 56.692913,56.692913 0.000000 0 0 1555.915944,816.123970"
         style="fill:none;stroke:#000000"
         id="path11193" />
      <path
         style="fill:none;stroke:#000000"
         d="M 2233.7 1046.93 L 2190.18 742.288"
         id="path11195" />
      <path
         style="fill:none;stroke:#000000"
         d="M 2190.18 742.288 L 2136.73 688.837"
         id="path11197" />
      <path
         style="fill:none;stroke:#000000"
         d="M 2136.73 688.837 L 2118.02 557.883"
         id="path11199" />
      <path
         style="fill:none;stroke:#000000"
         d="M 2118.02 557.883 L 2158.11 517.795"
         id="path11201" />
      <path
         style="fill:none;stroke:#000000"
         d="M 2158.11 517.795 L 2158.11 366.614"
         id="path11203" />
      <path
         style="fill:none;stroke:#000000"
         d="M 2158.11 366.614 L -2173.23 366.614"
         id="path11205" />
      <path
         style="fill:none;stroke:#000000"
         d="M -2173.23 366.614 L -2173.23 517.795"
         id="path11207" />
      <path
         style="fill:none;stroke:#000000"
         d="M -2173.23 517.795 L -2133.14 557.883"
         id="path11209" />
      <path
         style="fill:none;stroke:#000000"
         d="M -2133.14 557.883 L -2151.85 688.837"
         id="path11211" />
      <path
         style="fill:none;stroke:#000000"
         d="M -2151.85 688.837 L -2205.3 742.288"
         id="path11213" />
      <path
         style="fill:none;stroke:#000000"
         d="M -2205.3 742.288 L -2248.82 1046.93"
         id="path11215" />
      <path
         style="fill:none;stroke:#000000"
         d="M -2248.82 1046.93 L -2248.82 1122.52"
         id="path11217" />
      <path
         style="fill:none;stroke:#000000"
         d="M -2248.82 1122.52 L 2233.7 1122.52"
         id="path11219" />
      <path
         style="fill:none;stroke:#000000"
         d="M 2233.7 1122.52 L 2233.7 1046.93"
         id="path11221" />
    </symbol>
    <symbol
       id="VBI_H200_LDRSN_GR">
      <path
         d="M -326.900868,-11099.695020 L 247.587321,-11099.695020 L 247.587321,-11054.340689 L 7806.642439,-11054.340689 L 7806.642439,-11099.695023 L 8381.130628,-11099.695023"
         style="fill:none;stroke:#000000"
         id="path11224" />
      <path
         d="M -697.294568,-11099.695020 L -697.294568,-12309.143839 L 8751.524329,-12309.143839 L 8751.524329,-11099.695023 L 8354.673935,-11099.695023 L 8303.272361,-11553.238327 L -249.042600,-11553.238327 L -300.444175,-11099.695020 L -697.294568,-11099.695020 z"
         style="fill:none;stroke:#000000"
         id="path11226" />
      <path
         d="M 8751.524329,-11553.238327 L 8751.524329,-12309.143839 L -697.294568,-12309.143839 L -697.294568,-11553.238327"
         style="fill:none;stroke:#000000"
         id="path11228" />
      <path
         style="fill:none;stroke:#000000;stroke-dasharray:188.9764,94.4882,"
         d="M 8751.52 -12176.9 L -697.295 -12176.9"
         id="path11230" />
      <path
         style="fill:none;stroke:#000000;stroke-dasharray:188.9764,94.4882,"
         d="M 8751.52 -11685.5 L -697.295 -11685.5"
         id="path11232" />
      <path
         style="fill:none;stroke:#000000"
         d="M 8751.52 -11099.7 L 8751.52 -11553.2"
         id="path11234" />
      <path
         style="fill:none;stroke:#000000"
         d="M -697.295 -11099.7 L -697.295 -11553.2"
         id="path11236" />
      <path
         d="M -249.042600,-11553.238327 L 8303.272361,-11553.238327"
         style="fill:none;stroke:#000000"
         id="path11238" />
      <path
         d="M 1963.492828,-11054.340689 L 1615.776293,-11553.238327 L 1268.059757,-11054.340689 L 920.343222,-11553.238327 L 572.626687,-11054.340689 L 224.910151,-11553.238327 L -77.452054,-11099.695020 L -264.260035,-11418.966845"
         style="fill:none;stroke:#000000"
         id="path11240" />
      <path
         style="fill:none;stroke:#000000;stroke-dasharray:94.4882,47.2441,"
         d="M 8303.27 -11553.2 L 8751.52 -11553.2"
         id="path11242" />
      <path
         style="fill:none;stroke:#000000;stroke-dasharray:94.4882,47.2441,"
         d="M -249.043 -11553.2 L -697.295 -11553.2"
         id="path11244" />
      <path
         d="M 6090.736933,-11054.340689 L 6438.453468,-11553.238327 L 6786.170004,-11054.340689 L 7133.886539,-11553.238327 L 7481.603075,-11054.340689 L 7829.319610,-11553.238327 L 8131.681815,-11099.695020 L 8318.489796,-11418.966845"
         style="fill:none;stroke:#000000"
         id="path11246" />
    </symbol>
  </defs>
  <g
     inkscape:groupmode="layer"
     inkscape:label="0"
     id="g11251" />
  <g
     inkscape:groupmode="layer"
     inkscape:label="Concrete"
     id="g11269">
    <path
       id="path11253"
       style="fill:#c0c0c0;stroke:#000000;fill-opacity:1"
       d="M 102.04688 -132.2832 L 102.04688 18.898438 L 142.13477 58.986328 L 123.42773 189.93945 L 69.976562 243.39062 L 26.457031 548.03125 L 26.457031 623.62109 L 4508.9766 623.62109 L 4508.9766 548.03125 L 4465.457 243.39062 L 4412.0059 189.93945 L 4393.2988 58.986328 L 4433.3867 18.898438 L 4433.3867 -132.2832 L 102.04688 -132.2832 z M 487.55859 0 A 221.10236 221.10236 0 0 1 708.66211 221.10156 L 708.66211 295.28125 A 56.692913 56.692913 0 0 1 704.24219 317.22656 L 647.15039 453.21289 A 26.456693 26.456693 0 0 1 631.11133 468.07422 A 454.53639 454.53639 0 0 1 344.00586 468.07422 A 26.456693 26.456693 0 0 1 327.96875 453.21289 L 270.87695 317.22656 A 56.692913 56.692913 0 0 1 266.45703 295.28125 L 266.45703 221.10156 A 221.10236 221.10236 0 0 1 487.55859 0 z M 1080.9453 0 A 221.10236 221.10236 0 0 1 1302.0469 221.10156 L 1302.0469 295.28125 A 56.692913 56.692913 0 0 1 1297.627 317.22656 L 1240.5352 453.21289 A 26.456693 26.456693 0 0 1 1224.498 468.07422 A 454.53639 454.53639 0 0 1 937.39258 468.07422 A 26.456693 26.456693 0 0 1 921.35352 453.21289 L 864.26172 317.22656 A 56.692913 56.692913 0 0 1 859.8418 295.28125 L 859.8418 221.10156 A 221.10236 221.10236 0 0 1 1080.9453 0 z M 1674.3301 0 A 221.10236 221.10236 0 0 1 1895.4336 221.10156 L 1895.4336 295.28125 A 56.692913 56.692913 0 0 1 1891.0137 317.22656 L 1833.9219 453.21289 A 26.456693 26.456693 0 0 1 1817.8828 468.07422 A 454.53639 454.53639 0 0 1 1530.7773 468.07422 A 26.456693 26.456693 0 0 1 1514.7402 453.21289 L 1457.6484 317.22656 A 56.692913 56.692913 0 0 1 1453.2285 295.28125 L 1453.2285 221.10156 A 221.10236 221.10236 0 0 1 1674.3301 0 z M 2267.7168 0 A 221.10236 221.10236 0 0 1 2488.8184 221.10156 L 2488.8184 295.28125 A 56.692913 56.692913 0 0 1 2484.3984 317.22656 L 2427.3066 453.21289 A 26.456693 26.456693 0 0 1 2411.2695 468.07422 A 454.53639 454.53639 0 0 1 2124.1641 468.07422 A 26.456693 26.456693 0 0 1 2108.125 453.21289 L 2051.0332 317.22656 A 56.692913 56.692913 0 0 1 2046.6133 295.28125 L 2046.6133 221.10156 A 221.10236 221.10236 0 0 1 2267.7168 0 z M 2861.1016 0 A 221.10236 221.10236 0 0 1 3082.2051 221.10156 L 3082.2051 295.28125 A 56.692913 56.692913 0 0 1 3077.7852 317.22656 L 3020.6934 453.21289 A 26.456693 26.456693 0 0 1 3004.6543 468.07422 A 454.53639 454.53639 0 0 1 2717.5488 468.07422 A 26.456693 26.456693 0 0 1 2701.5117 453.21289 L 2644.4199 317.22656 A 56.692913 56.692913 0 0 1 2640 295.28125 L 2640 221.10156 A 221.10236 221.10236 0 0 1 2861.1016 0 z M 3454.4883 0 A 221.10236 221.10236 0 0 1 3675.5898 221.10156 L 3675.5898 295.28125 A 56.692913 56.692913 0 0 1 3671.1699 317.22656 L 3614.0801 453.21289 A 26.456693 26.456693 0 0 1 3598.041 468.07422 A 454.53639 454.53639 0 0 1 3310.9355 468.07422 A 26.456693 26.456693 0 0 1 3294.8965 453.21289 L 3237.8066 317.22656 A 56.692913 56.692913 0 0 1 3233.3867 295.28125 L 3233.3867 221.10156 A 221.10236 221.10236 0 0 1 3454.4883 0 z M 4047.873 0 A 221.10236 221.10236 0 0 1 4268.9766 221.10156 L 4268.9766 295.28125 A 56.692913 56.692913 0 0 1 4264.5566 317.22656 L 4207.4648 453.21289 A 26.456693 26.456693 0 0 1 4191.4258 468.07422 A 454.53639 454.53639 0 0 1 3904.3223 468.07422 A 26.456693 26.456693 0 0 1 3888.2832 453.21289 L 3831.1914 317.22656 A 56.692913 56.692913 0 0 1 3826.7715 295.28125 L 3826.7715 221.10156 A 221.10236 221.10236 0 0 1 4047.873 0 z " />
  </g>
  <g
     inkscape:groupmode="layer"
     inkscape:label="DEFPOINTS"
     id="g11271" />
  <g
     inkscape:groupmode="layer"
     inkscape:label="Insulation"
     id="g11275">
    <path
       d="M 4535.433071,623.622047 L 4535.433071,1122.519685 L 0.000000,1122.519685 L 0.000000,623.622047 L 4535.433071,623.622047 z"
       style="fill:#ffffff;stroke:#000000;fill-opacity:1"
       id="path11273" />
  </g>
</svg>
