<?xml version="1.0" encoding="UTF-8" standalone="no"?>
<svg
   viewBox="0 0 793.7007874015749 1122.5196850393702"
   width="793.7007874015749"
   height="1122.5196850393702"
   version="1.1"
   id="svg20436"
   sodipodi:docname="KL200K200.dxf"
   inkscape:version="1.2.2 (732a01da63, 2022-12-09)"
   xmlns:inkscape="http://www.inkscape.org/namespaces/inkscape"
   xmlns:sodipodi="http://sodipodi.sourceforge.net/DTD/sodipodi-0.dtd"
   xmlns:xlink="http://www.w3.org/1999/xlink"
   xmlns="http://www.w3.org/2000/svg"
   xmlns:svg="http://www.w3.org/2000/svg">
  <sodipodi:namedview
     id="namedview20438"
     pagecolor="#ffffff"
     bordercolor="#000000"
     borderopacity="0.25"
     inkscape:showpageshadow="2"
     inkscape:pageopacity="0.0"
     inkscape:pagecheckerboard="0"
     inkscape:deskcolor="#d1d1d1"
     showgrid="false"
     inkscape:zoom="0.36976785"
     inkscape:cx="983.04922"
     inkscape:cy="400.25113"
     inkscape:window-width="3440"
     inkscape:window-height="1377"
     inkscape:window-x="-8"
     inkscape:window-y="-8"
     inkscape:window-maximized="1"
     inkscape:current-layer="g20428" />
  <desc
     id="desc19952">KL200K200.dxf - scale = 1.000000, origin = (0.000000, 0.000000), method = manual</desc>
  <defs
     id="defs20408">
    <marker
       id="DistanceX"
       orient="auto"
       refX="0.0"
       refY="0.0"
       style="overflow:visible">
      <path
         d="M 3,-3 L -3,3 M 0,-5 L  0,5"
         style="stroke:#000000; stroke-width:0.5"
         id="path19954" />
    </marker>
    <pattern
       id="Hatch"
       patternUnits="userSpaceOnUse"
       width="8"
       height="8"
       x="0"
       y="0">
      <path
         d="M8 4 l-4,4"
         stroke="#000000"
         stroke-width="0.25"
         linecap="square"
         id="path19957" />
      <path
         d="M6 2 l-4,4"
         stroke="#000000"
         stroke-width="0.25"
         linecap="square"
         id="path19959" />
      <path
         d="M4 0 l-4,4"
         stroke="#000000"
         stroke-width="0.25"
         linecap="square"
         id="path19961" />
    </pattern>
    <symbol
       id="*Model_Space" />
    <symbol
       id="*Paper_Space" />
    <symbol
       id="$MODEL_SPACE" />
    <symbol
       id="$PAPER_SPACE" />
    <symbol
       id="DIMDOT">
      <path
         style="fill:none;stroke:#000000"
         d="M -7.55905 1122.52 L 7.55905 1122.52"
         id="path19968" />
      <path
         style="fill:none;stroke:#000000"
         d="M 0 1135.75 L 0 1109.29"
         id="path19970" />
      <path
         d="M 1.889764,1122.519685 A 1.889764,1.889764 0.000000 0, 0 -1.889764,1122.519685 A 1.889764,1.889764 0.000000 0, 0 1.889764,1122.519685 z"
         style="fill:none;stroke:#000000"
         id="path19972" />
      <path
         d="M 0.944882,1122.519685 A 0.944882,0.944882 0.000000 0, 0 -0.944882,1122.519685 A 0.944882,0.944882 0.000000 0, 0 0.944882,1122.519685 z"
         style="fill:none;stroke:#000000"
         id="path19974" />
    </symbol>
    <symbol
       id="VBI_KL200_DDRSN_NP">
      <path
         d="M 2267.716535,1122.519685 L 2267.716535,1697.007874 L -2267.716535,1697.007874 L -2267.716535,1122.519685 L 2267.716535,1122.519685"
         style="fill:none;stroke:#000000;stroke-linecap: round"
         id="path19977" />
      <path
         d="M -2267.716535,1310.366204 L -2129.303311,1122.519685 L -1705.996224,1697.007874 L -1282.689138,1122.519685 L -859.382051,1697.007874 L -436.074964,1122.519685 L -0.000000,1697.007874 L 410.539209,1122.519685 L 833.846295,1697.007874 L 1257.153382,1122.519685 L 1680.460469,1697.007874 L 2103.767555,1122.519685 L 2267.716535,1345.021872"
         style="fill:none;stroke:#000000"
         id="path19979" />
      <path
         d="M 2184.566932,366.614176 L 2350.866145,366.614176 L 2350.866145,517.795278 L 2396.220476,563.149609 L 2396.220476,631.181105 L 2350.866145,744.566932 L 2350.866145,1122.519688 L 2184.566932,1122.519688 L 2184.566932,744.566932 L 2139.212602,631.181105 L 2139.212602,563.149609 L 2184.566932,517.795278 L 2184.566932,366.614176 z"
         style="fill:none;stroke:#FF0000"
         id="path19981" />
      <path
         d="M -2139.212595,563.149609 L -2139.212595,631.181105 L -2184.566926,744.566932 L -2184.566926,1122.519688 L 2184.566932,1122.519688 L 2184.566932,744.566932 L 2139.212602,631.181105 L 2139.212602,563.149609 L 2184.566932,517.795278 L 2184.566932,366.614176 L -2184.566926,366.614176 L -2184.566926,517.795278 L -2139.212595,563.149609 z"
         style="fill:none;stroke:#000000"
         id="path19983" />
      <path
         d="M 0.000003,1009.142093 A 377.953114,377.953114 0.0 0 1 -205.511759,948.385247 A 75.590551,75.590551 0.0 0 1 -239.999997,884.946053 L -239.999997,752.926652 A 226.771654,226.771654 0.0 0 1 -203.083895,628.909508 A 359.055118,359.055118 0.0 0 0 -191.731853,610.323087 A 220.679061,220.679061 0.0 0 1 0.000003,498.905837 A 220.679061,220.679061 0.0 0 1 191.731859,610.323087 A 359.055118,359.055118 0.0 0 0 203.083902,628.909508 A 226.771654,226.771654 0.0 0 1 240.000003,752.926652 L 240.000003,884.946053 A 75.590551,75.590551 0.0 0 1 205.511766,948.385247 A 377.953114,377.953114 0.0 0 1 0.000003,1009.142093 z"
         style="fill:none;stroke:#000000"
         id="path19985" />
      <path
         d="M -593.385823,1009.142093 A 377.953114,377.953114 0.0 0 1 -798.897586,948.385247 A 75.590551,75.590551 0.0 0 1 -833.385823,884.946053 L -833.385823,752.926652 A 226.771654,226.771654 0.0 0 1 -796.469722,628.909508 A 359.055118,359.055118 0.0 0 0 -785.117680,610.323087 A 220.679061,220.679061 0.0 0 1 -593.385823,498.905837 A 220.679061,220.679061 0.0 0 1 -401.653967,610.323087 A 359.055118,359.055118 0.0 0 0 -390.301925,628.909508 A 226.771654,226.771654 0.0 0 1 -353.385823,752.926652 L -353.385823,884.946053 A 75.590551,75.590551 0.0 0 1 -387.874061,948.385247 A 377.953114,377.953114 0.0 0 1 -593.385823,1009.142093 z"
         style="fill:none;stroke:#000000"
         id="path19987" />
      <path
         d="M -1186.771650,1009.142093 A 377.953114,377.953114 0.0 0 1 -1392.283413,948.385247 A 75.590551,75.590551 0.0 0 1 -1426.771650,884.946053 L -1426.771650,752.926652 A 226.771654,226.771654 0.0 0 1 -1389.855549,628.909508 A 359.055118,359.055118 0.0 0 0 -1378.503506,610.323087 A 220.679061,220.679061 0.0 0 1 -1186.771650,498.905837 A 220.679061,220.679061 0.0 0 1 -995.039794,610.323087 A 359.055118,359.055118 0.0 0 0 -983.687752,628.909508 A 226.771654,226.771654 0.0 0 1 -946.771650,752.926652 L -946.771650,884.946053 A 75.590551,75.590551 0.0 0 1 -981.259888,948.385247 A 377.953114,377.953114 0.0 0 1 -1186.771650,1009.142093 z"
         style="fill:none;stroke:#000000"
         id="path19989" />
      <path
         d="M -1780.157477,1009.142093 A 377.953114,377.953114 0.0 0 1 -1985.669239,948.385247 A 75.590551,75.590551 0.0 0 1 -2020.157477,884.946053 L -2020.157477,752.926652 A 226.771654,226.771654 0.0 0 1 -1983.241376,628.909508 A 359.055118,359.055118 0.0 0 0 -1971.889333,610.323087 A 220.679061,220.679061 0.0 0 1 -1780.157477,498.905837 A 220.679061,220.679061 0.0 0 1 -1588.425621,610.323087 A 359.055118,359.055118 0.0 0 0 -1577.073578,628.909508 A 226.771654,226.771654 0.0 0 1 -1540.157477,752.926652 L -1540.157477,884.946053 A 75.590551,75.590551 0.0 0 1 -1574.645715,948.385247 A 377.953114,377.953114 0.0 0 1 -1780.157477,1009.142093 z"
         style="fill:none;stroke:#000000"
         id="path19991" />
      <path
         d="M 593.385830,1009.142093 A 377.953114,377.953114 0.0 0 0 798.897592,948.385247 A 75.590551,75.590551 0.0 0 0 833.385830,884.946053 L 833.385830,752.926652 A 226.771654,226.771654 0.0 0 0 796.469729,628.909508 A 359.055118,359.055118 0.0 0 1 785.117686,610.323087 A 220.679061,220.679061 0.0 0 0 593.385830,498.905837 A 220.679061,220.679061 0.0 0 0 401.653974,610.323087 A 359.055118,359.055118 0.0 0 1 390.301931,628.909508 A 226.771654,226.771654 0.0 0 0 353.385830,752.926652 L 353.385830,884.946053 A 75.590551,75.590551 0.0 0 0 387.874068,948.385247 A 377.953114,377.953114 0.0 0 0 593.385830,1009.142093 z"
         style="fill:none;stroke:#000000"
         id="path19993" />
      <path
         d="M 1186.771657,1009.142093 A 377.953114,377.953114 0.0 0 0 1392.283419,948.385247 A 75.590551,75.590551 0.0 0 0 1426.771657,884.946053 L 1426.771657,752.926652 A 226.771654,226.771654 0.0 0 0 1389.855556,628.909508 A 359.055118,359.055118 0.0 0 1 1378.503513,610.323087 A 220.679061,220.679061 0.0 0 0 1186.771657,498.905837 A 220.679061,220.679061 0.0 0 0 995.039801,610.323087 A 359.055118,359.055118 0.0 0 1 983.687758,628.909508 A 226.771654,226.771654 0.0 0 0 946.771657,752.926652 L 946.771657,884.946053 A 75.590551,75.590551 0.0 0 0 981.259895,948.385247 A 377.953114,377.953114 0.0 0 0 1186.771657,1009.142093 z"
         style="fill:none;stroke:#000000"
         id="path19995" />
      <path
         d="M 1780.157484,1009.142093 A 377.953114,377.953114 0.0 0 0 1985.669246,948.385247 A 75.590551,75.590551 0.0 0 0 2020.157484,884.946053 L 2020.157484,752.926652 A 226.771654,226.771654 0.0 0 0 1983.241382,628.909508 A 359.055118,359.055118 0.0 0 1 1971.889340,610.323087 A 220.679061,220.679061 0.0 0 0 1780.157484,498.905837 A 220.679061,220.679061 0.0 0 0 1588.425628,610.323087 A 359.055118,359.055118 0.0 0 1 1577.073585,628.909508 A 226.771654,226.771654 0.0 0 0 1540.157484,752.926652 L 1540.157484,884.946053 A 75.590551,75.590551 0.0 0 0 1574.645721,948.385247 A 377.953114,377.953114 0.0 0 0 1780.157484,1009.142093 z"
         style="fill:none;stroke:#000000"
         id="path19997" />
    </symbol>
    <symbol
       id="VBI_KL200_DDRSN_GR">
      <path
         d="M -2267.716535,1310.366204 L -2129.303311,1122.519685 L -1705.996224,1697.007874 L -1282.689138,1122.519685 L -859.382051,1697.007874 L -436.074964,1122.519685 L -12.767878,1697.007874 L 410.539209,1122.519685 L 833.846295,1697.007874 L 1257.153382,1122.519685 L 1680.460469,1651.653543 L 2103.767555,1122.519685 L 2267.716535,1345.021872"
         style="fill:none;stroke:#000000"
         id="path20000" />
      <path
         style="fill:none;stroke:#FF0000"
         d="M 1807.37 1122.52 L 1897.32 1651.65"
         id="path20002" />
      <path
         style="fill:none;stroke:#FF0000"
         d="M 2161.89 1651.65 L 2177.76 1122.52"
         id="path20004" />
      <path
         d="M 2267.716535,1122.519685 L -2267.716535,1122.519685 L -2267.716535,1697.007874 L 1322.834646,1697.007874 L 1322.834646,1651.653543 L 2267.716535,1651.653543 L 2267.716535,1122.519685"
         style="fill:none;stroke:#000000"
         id="path20006" />
      <path
         d="M -2139.212595,563.149609 L -2139.212595,631.181105 L -2184.566926,744.566932 L -2184.566926,1122.519688 L 2184.566932,1122.519688 L 2184.566932,744.566932 L 2139.212602,631.181105 L 2139.212602,563.149609 L 2184.566932,517.795278 L 2184.566932,366.614176 L -2184.566926,366.614176 L -2184.566926,517.795278 L -2139.212595,563.149609 z"
         style="fill:none;stroke:#000000"
         id="path20008" />
      <path
         d="M 0.000003,1009.142093 A 377.953114,377.953114 0.0 0 1 -205.511759,948.385247 A 75.590551,75.590551 0.0 0 1 -239.999997,884.946053 L -239.999997,752.926652 A 226.771654,226.771654 0.0 0 1 -203.083895,628.909508 A 359.055118,359.055118 0.0 0 0 -191.731853,610.323087 A 220.679061,220.679061 0.0 0 1 0.000003,498.905837 A 220.679061,220.679061 0.0 0 1 191.731859,610.323087 A 359.055118,359.055118 0.0 0 0 203.083902,628.909508 A 226.771654,226.771654 0.0 0 1 240.000003,752.926652 L 240.000003,884.946053 A 75.590551,75.590551 0.0 0 1 205.511766,948.385247 A 377.953114,377.953114 0.0 0 1 0.000003,1009.142093 z"
         style="fill:none;stroke:#000000"
         id="path20010" />
      <path
         d="M -593.385823,1009.142093 A 377.953114,377.953114 0.0 0 1 -798.897586,948.385247 A 75.590551,75.590551 0.0 0 1 -833.385823,884.946053 L -833.385823,752.926652 A 226.771654,226.771654 0.0 0 1 -796.469722,628.909508 A 359.055118,359.055118 0.0 0 0 -785.117680,610.323087 A 220.679061,220.679061 0.0 0 1 -593.385823,498.905837 A 220.679061,220.679061 0.0 0 1 -401.653967,610.323087 A 359.055118,359.055118 0.0 0 0 -390.301925,628.909508 A 226.771654,226.771654 0.0 0 1 -353.385823,752.926652 L -353.385823,884.946053 A 75.590551,75.590551 0.0 0 1 -387.874061,948.385247 A 377.953114,377.953114 0.0 0 1 -593.385823,1009.142093 z"
         style="fill:none;stroke:#000000"
         id="path20012" />
      <path
         d="M -1186.771650,1009.142093 A 377.953114,377.953114 0.0 0 1 -1392.283413,948.385247 A 75.590551,75.590551 0.0 0 1 -1426.771650,884.946053 L -1426.771650,752.926652 A 226.771654,226.771654 0.0 0 1 -1389.855549,628.909508 A 359.055118,359.055118 0.0 0 0 -1378.503506,610.323087 A 220.679061,220.679061 0.0 0 1 -1186.771650,498.905837 A 220.679061,220.679061 0.0 0 1 -995.039794,610.323087 A 359.055118,359.055118 0.0 0 0 -983.687752,628.909508 A 226.771654,226.771654 0.0 0 1 -946.771650,752.926652 L -946.771650,884.946053 A 75.590551,75.590551 0.0 0 1 -981.259888,948.385247 A 377.953114,377.953114 0.0 0 1 -1186.771650,1009.142093 z"
         style="fill:none;stroke:#000000"
         id="path20014" />
      <path
         d="M -1780.157477,1009.142093 A 377.953114,377.953114 0.0 0 1 -1985.669239,948.385247 A 75.590551,75.590551 0.0 0 1 -2020.157477,884.946053 L -2020.157477,752.926652 A 226.771654,226.771654 0.0 0 1 -1983.241376,628.909508 A 359.055118,359.055118 0.0 0 0 -1971.889333,610.323087 A 220.679061,220.679061 0.0 0 1 -1780.157477,498.905837 A 220.679061,220.679061 0.0 0 1 -1588.425621,610.323087 A 359.055118,359.055118 0.0 0 0 -1577.073578,628.909508 A 226.771654,226.771654 0.0 0 1 -1540.157477,752.926652 L -1540.157477,884.946053 A 75.590551,75.590551 0.0 0 1 -1574.645715,948.385247 A 377.953114,377.953114 0.0 0 1 -1780.157477,1009.142093 z"
         style="fill:none;stroke:#000000"
         id="path20016" />
      <path
         d="M 593.385830,1009.142093 A 377.953114,377.953114 0.0 0 0 798.897592,948.385247 A 75.590551,75.590551 0.0 0 0 833.385830,884.946053 L 833.385830,752.926652 A 226.771654,226.771654 0.0 0 0 796.469729,628.909508 A 359.055118,359.055118 0.0 0 1 785.117686,610.323087 A 220.679061,220.679061 0.0 0 0 593.385830,498.905837 A 220.679061,220.679061 0.0 0 0 401.653974,610.323087 A 359.055118,359.055118 0.0 0 1 390.301931,628.909508 A 226.771654,226.771654 0.0 0 0 353.385830,752.926652 L 353.385830,884.946053 A 75.590551,75.590551 0.0 0 0 387.874068,948.385247 A 377.953114,377.953114 0.0 0 0 593.385830,1009.142093 z"
         style="fill:none;stroke:#000000"
         id="path20018" />
      <path
         d="M 1186.771657,1009.142093 A 377.953114,377.953114 0.0 0 0 1392.283419,948.385247 A 75.590551,75.590551 0.0 0 0 1426.771657,884.946053 L 1426.771657,752.926652 A 226.771654,226.771654 0.0 0 0 1389.855556,628.909508 A 359.055118,359.055118 0.0 0 1 1378.503513,610.323087 A 220.679061,220.679061 0.0 0 0 1186.771657,498.905837 A 220.679061,220.679061 0.0 0 0 995.039801,610.323087 A 359.055118,359.055118 0.0 0 1 983.687758,628.909508 A 226.771654,226.771654 0.0 0 0 946.771657,752.926652 L 946.771657,884.946053 A 75.590551,75.590551 0.0 0 0 981.259895,948.385247 A 377.953114,377.953114 0.0 0 0 1186.771657,1009.142093 z"
         style="fill:none;stroke:#000000"
         id="path20020" />
      <path
         d="M 1780.157484,1009.142093 A 377.953114,377.953114 0.0 0 0 1985.669246,948.385247 A 75.590551,75.590551 0.0 0 0 2020.157484,884.946053 L 2020.157484,752.926652 A 226.771654,226.771654 0.0 0 0 1983.241382,628.909508 A 359.055118,359.055118 0.0 0 1 1971.889340,610.323087 A 220.679061,220.679061 0.0 0 0 1780.157484,498.905837 A 220.679061,220.679061 0.0 0 0 1588.425628,610.323087 A 359.055118,359.055118 0.0 0 1 1577.073585,628.909508 A 226.771654,226.771654 0.0 0 0 1540.157484,752.926652 L 1540.157484,884.946053 A 75.590551,75.590551 0.0 0 0 1574.645721,948.385247 A 377.953114,377.953114 0.0 0 0 1780.157484,1009.142093 z"
         style="fill:none;stroke:#000000"
         id="path20022" />
    </symbol>
    <symbol
       id="VBI_K200_DDSND_NP">
      <path
         style="fill:none;stroke:#000000"
         d="M -2248.82 1122.52 L -2267.72 1122.52"
         id="path20025" />
      <path
         style="fill:none;stroke:#000000"
         d="M 2267.72 1122.52 L 2233.7 1122.52"
         id="path20027" />
      <path
         d="M -2267.716535,1122.519685 L 2267.716535,1122.519685 L 2267.716535,1697.007874 L -2267.716535,1697.007874 L -2267.716535,1122.519685 z"
         style="fill:none;stroke:#000000"
         id="path20029" />
      <path
         d="M -2267.716535,1310.366204 L -2129.303311,1122.519685 L -1705.996224,1697.007874 L -1282.689138,1122.519685 L -859.382051,1697.007874 L -436.074964,1122.519685 L 0.000000,1697.007874 L 410.539209,1122.519685 L 833.846295,1697.007874 L 1257.153382,1122.519685 L 1680.460469,1697.007874 L 2103.767555,1122.519685 L 2267.716535,1345.021872"
         style="fill:none;stroke:#000000"
         id="path20031" />
      <path
         d="M 2158.110236,366.614173 L 2362.204724,366.614173 L 2362.204724,517.795276 L 2402.292668,557.883219 L 2383.584961,688.837168 L 2330.134370,742.287759 L 2286.614173,1046.929134 L 2286.614173,1122.519685 L 2233.700787,1122.519685 L 2233.700787,1046.929134 L 2190.180591,742.287759 L 2136.730000,688.837168 L 2118.022293,557.883219 L 2158.110236,517.795276 L 2158.110236,366.614173"
         style="fill:none;stroke:#FF0000"
         id="path20033" />
      <use
         xlink:href="#%2AU6"
         style="stroke-width:0.500px"
         id="use20035" />
    </symbol>
    <symbol
       id="*U6">
      <path
         style="fill:none;stroke:#000000"
         d="M -2008.82 794.178 L -2008.82 720"
         id="path20038" />
      <path
         d="M -1566.614173,720.000000 A 221.102362,221.102362 0.000000 0 0 -2008.818898,720.000000"
         style="fill:none;stroke:#000000"
         id="path20040" />
      <path
         style="fill:none;stroke:#000000"
         d="M -1566.61 720 L -1566.61 794.178"
         id="path20042" />
      <path
         d="M -1571.034054,816.123970 A 56.692913,56.692913 0.000000 0 0 -1566.614173,794.178208"
         style="fill:none;stroke:#000000"
         id="path20044" />
      <path
         style="fill:none;stroke:#000000"
         d="M -1571.03 816.124 L -1628.13 952.111"
         id="path20046" />
      <path
         d="M -1644.163945,966.972347 A 26.456693,26.456693 0.000000 0 0 -1628.125469,952.111105"
         style="fill:none;stroke:#000000"
         id="path20048" />
      <path
         d="M -1931.269125,966.972347 A 454.536388,454.536388 0.000000 0 0 -1644.163945,966.972347"
         style="fill:none;stroke:#000000"
         id="path20050" />
      <path
         d="M -1947.307602,952.111105 A 26.456693,26.456693 0.000000 0 0 -1931.269125,966.972347"
         style="fill:none;stroke:#000000"
         id="path20052" />
      <path
         style="fill:none;stroke:#000000"
         d="M -1947.31 952.111 L -2004.4 816.124"
         id="path20054" />
      <path
         d="M -2008.818898,794.178208 A 56.692913,56.692913 0.000000 0 0 -2004.399017,816.123970"
         style="fill:none;stroke:#000000"
         id="path20056" />
      <path
         style="fill:none;stroke:#000000"
         d="M -1415.43 794.178 L -1415.43 720"
         id="path20058" />
      <path
         d="M -973.228346,720.000000 A 221.102362,221.102362 0.000000 0 0 -1415.433071,720.000000"
         style="fill:none;stroke:#000000"
         id="path20060" />
      <path
         style="fill:none;stroke:#000000"
         d="M -973.228 720 L -973.228 794.178"
         id="path20062" />
      <path
         d="M -977.648227,816.123970 A 56.692913,56.692913 0.000000 0 0 -973.228346,794.178208"
         style="fill:none;stroke:#000000"
         id="path20064" />
      <path
         style="fill:none;stroke:#000000"
         d="M -977.648 816.124 L -1034.74 952.111"
         id="path20066" />
      <path
         d="M -1050.778119,966.972347 A 26.456693,26.456693 0.000000 0 0 -1034.739643,952.111105"
         style="fill:none;stroke:#000000"
         id="path20068" />
      <path
         d="M -1337.883299,966.972347 A 454.536388,454.536388 0.000000 0 0 -1050.778119,966.972347"
         style="fill:none;stroke:#000000"
         id="path20070" />
      <path
         d="M -1353.921775,952.111105 A 26.456693,26.456693 0.000000 0 0 -1337.883299,966.972347"
         style="fill:none;stroke:#000000"
         id="path20072" />
      <path
         style="fill:none;stroke:#000000"
         d="M -1353.92 952.111 L -1411.01 816.124"
         id="path20074" />
      <path
         d="M -1415.433071,794.178208 A 56.692913,56.692913 0.000000 0 0 -1411.013190,816.123970"
         style="fill:none;stroke:#000000"
         id="path20076" />
      <path
         style="fill:none;stroke:#000000"
         d="M -822.047 794.178 L -822.047 720"
         id="path20078" />
      <path
         d="M -379.842520,720.000000 A 221.102362,221.102362 0.000000 0 0 -822.047244,720.000000"
         style="fill:none;stroke:#000000"
         id="path20080" />
      <path
         style="fill:none;stroke:#000000"
         d="M -379.843 720 L -379.843 794.178"
         id="path20082" />
      <path
         d="M -384.262401,816.123970 A 56.692913,56.692913 0.000000 0 0 -379.842520,794.178208"
         style="fill:none;stroke:#000000"
         id="path20084" />
      <path
         style="fill:none;stroke:#000000"
         d="M -384.262 816.124 L -441.354 952.111"
         id="path20086" />
      <path
         d="M -457.392292,966.972347 A 26.456693,26.456693 0.000000 0 0 -441.353816,952.111105"
         style="fill:none;stroke:#000000"
         id="path20088" />
      <path
         d="M -744.497472,966.972347 A 454.536388,454.536388 0.000000 0 0 -457.392292,966.972347"
         style="fill:none;stroke:#000000"
         id="path20090" />
      <path
         d="M -760.535948,952.111105 A 26.456693,26.456693 0.000000 0 0 -744.497472,966.972347"
         style="fill:none;stroke:#000000"
         id="path20092" />
      <path
         style="fill:none;stroke:#000000"
         d="M -760.536 952.111 L -817.627 816.124"
         id="path20094" />
      <path
         d="M -822.047244,794.178208 A 56.692913,56.692913 0.000000 0 0 -817.627363,816.123970"
         style="fill:none;stroke:#000000"
         id="path20096" />
      <path
         style="fill:none;stroke:#000000"
         d="M -228.661 794.178 L -228.661 720"
         id="path20098" />
      <path
         d="M 213.543307,720.000000 A 221.102362,221.102362 0.000000 0 0 -228.661417,720.000000"
         style="fill:none;stroke:#000000"
         id="path20100" />
      <path
         style="fill:none;stroke:#000000"
         d="M 213.543 720 L 213.543 794.178"
         id="path20102" />
      <path
         d="M 209.123426,816.123970 A 56.692913,56.692913 0.000000 0 0 213.543307,794.178208"
         style="fill:none;stroke:#000000"
         id="path20104" />
      <path
         style="fill:none;stroke:#000000"
         d="M 209.123 816.124 L 152.032 952.111"
         id="path20106" />
      <path
         d="M 135.993535,966.972347 A 26.456693,26.456693 0.000000 0 0 152.032011,952.111105"
         style="fill:none;stroke:#000000"
         id="path20108" />
      <path
         d="M -151.111645,966.972347 A 454.536388,454.536388 0.000000 0 0 135.993535,966.972347"
         style="fill:none;stroke:#000000"
         id="path20110" />
      <path
         d="M -167.150121,952.111105 A 26.456693,26.456693 0.000000 0 0 -151.111645,966.972347"
         style="fill:none;stroke:#000000"
         id="path20112" />
      <path
         style="fill:none;stroke:#000000"
         d="M -167.15 952.111 L -224.242 816.124"
         id="path20114" />
      <path
         d="M -228.661417,794.178208 A 56.692913,56.692913 0.000000 0 0 -224.241536,816.123970"
         style="fill:none;stroke:#000000"
         id="path20116" />
      <path
         style="fill:none;stroke:#000000"
         d="M 364.724 794.178 L 364.724 720"
         id="path20118" />
      <path
         d="M 806.929134,720.000000 A 221.102362,221.102362 0.000000 0 0 364.724409,720.000000"
         style="fill:none;stroke:#000000"
         id="path20120" />
      <path
         style="fill:none;stroke:#000000"
         d="M 806.929 720 L 806.929 794.178"
         id="path20122" />
      <path
         d="M 802.509253,816.123970 A 56.692913,56.692913 0.000000 0 0 806.929134,794.178208"
         style="fill:none;stroke:#000000"
         id="path20124" />
      <path
         style="fill:none;stroke:#000000"
         d="M 802.509 816.124 L 745.418 952.111"
         id="path20126" />
      <path
         d="M 729.379362,966.972347 A 26.456693,26.456693 0.000000 0 0 745.417838,952.111105"
         style="fill:none;stroke:#000000"
         id="path20128" />
      <path
         d="M 442.274182,966.972347 A 454.536388,454.536388 0.000000 0 0 729.379362,966.972347"
         style="fill:none;stroke:#000000"
         id="path20130" />
      <path
         d="M 426.235706,952.111105 A 26.456693,26.456693 0.000000 0 0 442.274182,966.972347"
         style="fill:none;stroke:#000000"
         id="path20132" />
      <path
         style="fill:none;stroke:#000000"
         d="M 426.236 952.111 L 369.144 816.124"
         id="path20134" />
      <path
         d="M 364.724409,794.178208 A 56.692913,56.692913 0.000000 0 0 369.144290,816.123970"
         style="fill:none;stroke:#000000"
         id="path20136" />
      <path
         style="fill:none;stroke:#000000"
         d="M 958.11 794.178 L 958.11 720"
         id="path20138" />
      <path
         d="M 1400.314961,720.000000 A 221.102362,221.102362 0.000000 0 0 958.110236,720.000000"
         style="fill:none;stroke:#000000"
         id="path20140" />
      <path
         style="fill:none;stroke:#000000"
         d="M 1400.31 720 L 1400.31 794.178"
         id="path20142" />
      <path
         d="M 1395.895080,816.123970 A 56.692913,56.692913 0.000000 0 0 1400.314961,794.178208"
         style="fill:none;stroke:#000000"
         id="path20144" />
      <path
         style="fill:none;stroke:#000000"
         d="M 1395.9 816.124 L 1338.8 952.111"
         id="path20146" />
      <path
         d="M 1322.765188,966.972347 A 26.456693,26.456693 0.000000 0 0 1338.803665,952.111105"
         style="fill:none;stroke:#000000"
         id="path20148" />
      <path
         d="M 1035.660008,966.972347 A 454.536388,454.536388 0.000000 0 0 1322.765188,966.972347"
         style="fill:none;stroke:#000000"
         id="path20150" />
      <path
         d="M 1019.621532,952.111105 A 26.456693,26.456693 0.000000 0 0 1035.660008,966.972347"
         style="fill:none;stroke:#000000"
         id="path20152" />
      <path
         style="fill:none;stroke:#000000"
         d="M 1019.62 952.111 L 962.53 816.124"
         id="path20154" />
      <path
         d="M 958.110236,794.178208 A 56.692913,56.692913 0.000000 0 0 962.530117,816.123970"
         style="fill:none;stroke:#000000"
         id="path20156" />
      <path
         style="fill:none;stroke:#000000"
         d="M 1551.5 794.178 L 1551.5 720"
         id="path20158" />
      <path
         d="M 1993.700787,720.000000 A 221.102362,221.102362 0.000000 0 0 1551.496063,720.000000"
         style="fill:none;stroke:#000000"
         id="path20160" />
      <path
         style="fill:none;stroke:#000000"
         d="M 1993.7 720 L 1993.7 794.178"
         id="path20162" />
      <path
         d="M 1989.280906,816.123970 A 56.692913,56.692913 0.000000 0 0 1993.700787,794.178208"
         style="fill:none;stroke:#000000"
         id="path20164" />
      <path
         style="fill:none;stroke:#000000"
         d="M 1989.28 816.124 L 1932.19 952.111"
         id="path20166" />
      <path
         d="M 1916.151015,966.972347 A 26.456693,26.456693 0.000000 0 0 1932.189491,952.111105"
         style="fill:none;stroke:#000000"
         id="path20168" />
      <path
         d="M 1629.045835,966.972347 A 454.536388,454.536388 0.000000 0 0 1916.151015,966.972347"
         style="fill:none;stroke:#000000"
         id="path20170" />
      <path
         d="M 1613.007359,952.111105 A 26.456693,26.456693 0.000000 0 0 1629.045835,966.972347"
         style="fill:none;stroke:#000000"
         id="path20172" />
      <path
         style="fill:none;stroke:#000000"
         d="M 1613.01 952.111 L 1555.92 816.124"
         id="path20174" />
      <path
         d="M 1551.496063,794.178208 A 56.692913,56.692913 0.000000 0 0 1555.915944,816.123970"
         style="fill:none;stroke:#000000"
         id="path20176" />
      <path
         style="fill:none;stroke:#000000"
         d="M 2233.7 1046.93 L 2190.18 742.288"
         id="path20178" />
      <path
         style="fill:none;stroke:#000000"
         d="M 2190.18 742.288 L 2136.73 688.837"
         id="path20180" />
      <path
         style="fill:none;stroke:#000000"
         d="M 2136.73 688.837 L 2118.02 557.883"
         id="path20182" />
      <path
         style="fill:none;stroke:#000000"
         d="M 2118.02 557.883 L 2158.11 517.795"
         id="path20184" />
      <path
         style="fill:none;stroke:#000000"
         d="M 2158.11 517.795 L 2158.11 366.614"
         id="path20186" />
      <path
         style="fill:none;stroke:#000000"
         d="M 2158.11 366.614 L -2173.23 366.614"
         id="path20188" />
      <path
         style="fill:none;stroke:#000000"
         d="M -2173.23 366.614 L -2173.23 517.795"
         id="path20190" />
      <path
         style="fill:none;stroke:#000000"
         d="M -2173.23 517.795 L -2133.14 557.883"
         id="path20192" />
      <path
         style="fill:none;stroke:#000000"
         d="M -2133.14 557.883 L -2151.85 688.837"
         id="path20194" />
      <path
         style="fill:none;stroke:#000000"
         d="M -2151.85 688.837 L -2205.3 742.288"
         id="path20196" />
      <path
         style="fill:none;stroke:#000000"
         d="M -2205.3 742.288 L -2248.82 1046.93"
         id="path20198" />
      <path
         style="fill:none;stroke:#000000"
         d="M -2248.82 1046.93 L -2248.82 1122.52"
         id="path20200" />
      <path
         style="fill:none;stroke:#000000"
         d="M -2248.82 1122.52 L 2233.7 1122.52"
         id="path20202" />
      <path
         style="fill:none;stroke:#000000"
         d="M 2233.7 1122.52 L 2233.7 1046.93"
         id="path20204" />
    </symbol>
    <symbol
       id="VBI_K200_DDSN_GR">
      <path
         style="fill:none;stroke:#000000"
         d="M -2241.26 1122.52 L -2260.16 1122.52"
         id="path20207" />
      <path
         style="fill:none;stroke:#000000"
         d="M 2275.28 1122.52 L 2241.26 1122.52"
         id="path20209" />
      <path
         d="M 1864.062992,1122.519685 L 1954.015748,1651.653543 L 2218.582677,1651.653543 L 2234.456693,1122.519685"
         style="fill:none;stroke:#FF0000"
         id="path20211" />
      <path
         d="M -2260.157480,1122.519685 L -2260.157480,1697.007874 L 1330.393701,1697.007874 L 1330.393701,1651.653543 L 2275.275591,1651.653543 L 2275.275591,1122.519685 L -2260.157480,1122.519685"
         style="fill:none;stroke:#000000"
         id="path20213" />
      <path
         d="M -2260.157480,1310.366204 L -2121.744256,1122.519685 L -1698.437169,1697.007874 L -1275.130083,1122.519685 L -851.822996,1697.007874 L -428.515909,1122.519685 L -5.208823,1697.007874 L 418.098264,1122.519685 L 841.405351,1697.007874 L 1264.712437,1122.519685 L 1688.019524,1651.653543 L 2111.326610,1122.519685 L 2275.275591,1345.021872"
         style="fill:none;stroke:#000000"
         id="path20215" />
      <use
         xlink:href="#%2AU8"
         style="stroke-width:0.500px"
         id="use20217" />
    </symbol>
    <symbol
       id="*U8">
      <path
         style="fill:none;stroke:#000000"
         d="M -2001.26 794.178 L -2001.26 720"
         id="path20220" />
      <path
         d="M -1559.055118,720.000000 A 221.102362,221.102362 0.000000 0 0 -2001.259843,720.000000"
         style="fill:none;stroke:#000000"
         id="path20222" />
      <path
         style="fill:none;stroke:#000000"
         d="M -1559.06 720 L -1559.06 794.178"
         id="path20224" />
      <path
         d="M -1563.474999,816.123970 A 56.692913,56.692913 0.000000 0 0 -1559.055118,794.178208"
         style="fill:none;stroke:#000000"
         id="path20226" />
      <path
         style="fill:none;stroke:#000000"
         d="M -1563.47 816.124 L -1620.57 952.111"
         id="path20228" />
      <path
         d="M -1636.604890,966.972347 A 26.456693,26.456693 0.000000 0 0 -1620.566414,952.111105"
         style="fill:none;stroke:#000000"
         id="path20230" />
      <path
         d="M -1923.710070,966.972347 A 454.536388,454.536388 0.000000 0 0 -1636.604890,966.972347"
         style="fill:none;stroke:#000000"
         id="path20232" />
      <path
         d="M -1939.748546,952.111105 A 26.456693,26.456693 0.000000 0 0 -1923.710070,966.972347"
         style="fill:none;stroke:#000000"
         id="path20234" />
      <path
         style="fill:none;stroke:#000000"
         d="M -1939.75 952.111 L -1996.84 816.124"
         id="path20236" />
      <path
         d="M -2001.259843,794.178208 A 56.692913,56.692913 0.000000 0 0 -1996.839962,816.123970"
         style="fill:none;stroke:#000000"
         id="path20238" />
      <path
         style="fill:none;stroke:#000000"
         d="M -1407.87 794.178 L -1407.87 720"
         id="path20240" />
      <path
         d="M -965.669291,720.000000 A 221.102362,221.102362 0.000000 0 0 -1407.874016,720.000000"
         style="fill:none;stroke:#000000"
         id="path20242" />
      <path
         style="fill:none;stroke:#000000"
         d="M -965.669 720 L -965.669 794.178"
         id="path20244" />
      <path
         d="M -970.089172,816.123970 A 56.692913,56.692913 0.000000 0 0 -965.669291,794.178208"
         style="fill:none;stroke:#000000"
         id="path20246" />
      <path
         style="fill:none;stroke:#000000"
         d="M -970.089 816.124 L -1027.18 952.111"
         id="path20248" />
      <path
         d="M -1043.219064,966.972347 A 26.456693,26.456693 0.000000 0 0 -1027.180587,952.111105"
         style="fill:none;stroke:#000000"
         id="path20250" />
      <path
         d="M -1330.324243,966.972347 A 454.536388,454.536388 0.000000 0 0 -1043.219064,966.972347"
         style="fill:none;stroke:#000000"
         id="path20252" />
      <path
         d="M -1346.362720,952.111105 A 26.456693,26.456693 0.000000 0 0 -1330.324243,966.972347"
         style="fill:none;stroke:#000000"
         id="path20254" />
      <path
         style="fill:none;stroke:#000000"
         d="M -1346.36 952.111 L -1403.45 816.124"
         id="path20256" />
      <path
         d="M -1407.874016,794.178208 A 56.692913,56.692913 0.000000 0 0 -1403.454135,816.123970"
         style="fill:none;stroke:#000000"
         id="path20258" />
      <path
         style="fill:none;stroke:#000000"
         d="M -814.488 794.178 L -814.488 720"
         id="path20260" />
      <path
         d="M -372.283465,720.000000 A 221.102362,221.102362 0.000000 0 0 -814.488189,720.000000"
         style="fill:none;stroke:#000000"
         id="path20262" />
      <path
         style="fill:none;stroke:#000000"
         d="M -372.283 720 L -372.283 794.178"
         id="path20264" />
      <path
         d="M -376.703345,816.123970 A 56.692913,56.692913 0.000000 0 0 -372.283465,794.178208"
         style="fill:none;stroke:#000000"
         id="path20266" />
      <path
         style="fill:none;stroke:#000000"
         d="M -376.703 816.124 L -433.795 952.111"
         id="path20268" />
      <path
         d="M -449.833237,966.972347 A 26.456693,26.456693 0.000000 0 0 -433.794761,952.111105"
         style="fill:none;stroke:#000000"
         id="path20270" />
      <path
         d="M -736.938417,966.972347 A 454.536388,454.536388 0.000000 0 0 -449.833237,966.972347"
         style="fill:none;stroke:#000000"
         id="path20272" />
      <path
         d="M -752.976893,952.111105 A 26.456693,26.456693 0.000000 0 0 -736.938417,966.972347"
         style="fill:none;stroke:#000000"
         id="path20274" />
      <path
         style="fill:none;stroke:#000000"
         d="M -752.977 952.111 L -810.068 816.124"
         id="path20276" />
      <path
         d="M -814.488189,794.178208 A 56.692913,56.692913 0.000000 0 0 -810.068308,816.123970"
         style="fill:none;stroke:#000000"
         id="path20278" />
      <path
         style="fill:none;stroke:#000000"
         d="M -221.102 794.178 L -221.102 720"
         id="path20280" />
      <path
         d="M 221.102362,720.000000 A 221.102362,221.102362 0.000000 0 0 -221.102362,720.000000"
         style="fill:none;stroke:#000000"
         id="path20282" />
      <path
         style="fill:none;stroke:#000000"
         d="M 221.102 720 L 221.102 794.178"
         id="path20284" />
      <path
         d="M 216.682481,816.123970 A 56.692913,56.692913 0.000000 0 0 221.102362,794.178208"
         style="fill:none;stroke:#000000"
         id="path20286" />
      <path
         style="fill:none;stroke:#000000"
         d="M 216.682 816.124 L 159.591 952.111"
         id="path20288" />
      <path
         d="M 143.552590,966.972347 A 26.456693,26.456693 0.000000 0 0 159.591066,952.111105"
         style="fill:none;stroke:#000000"
         id="path20290" />
      <path
         d="M -143.552590,966.972347 A 454.536388,454.536388 0.000000 0 0 143.552590,966.972347"
         style="fill:none;stroke:#000000"
         id="path20292" />
      <path
         d="M -159.591066,952.111105 A 26.456693,26.456693 0.000000 0 0 -143.552590,966.972347"
         style="fill:none;stroke:#000000"
         id="path20294" />
      <path
         style="fill:none;stroke:#000000"
         d="M -159.591 952.111 L -216.682 816.124"
         id="path20296" />
      <path
         d="M -221.102362,794.178208 A 56.692913,56.692913 0.000000 0 0 -216.682481,816.123970"
         style="fill:none;stroke:#000000"
         id="path20298" />
      <path
         style="fill:none;stroke:#000000"
         d="M 372.283 794.178 L 372.283 720"
         id="path20300" />
      <path
         d="M 814.488189,720.000000 A 221.102362,221.102362 0.000000 0 0 372.283465,720.000000"
         style="fill:none;stroke:#000000"
         id="path20302" />
      <path
         style="fill:none;stroke:#000000"
         d="M 814.488 720 L 814.488 794.178"
         id="path20304" />
      <path
         d="M 810.068308,816.123970 A 56.692913,56.692913 0.000000 0 0 814.488189,794.178208"
         style="fill:none;stroke:#000000"
         id="path20306" />
      <path
         style="fill:none;stroke:#000000"
         d="M 810.068 816.124 L 752.977 952.111"
         id="path20308" />
      <path
         d="M 736.938417,966.972347 A 26.456693,26.456693 0.000000 0 0 752.976893,952.111105"
         style="fill:none;stroke:#000000"
         id="path20310" />
      <path
         d="M 449.833237,966.972347 A 454.536388,454.536388 0.000000 0 0 736.938417,966.972347"
         style="fill:none;stroke:#000000"
         id="path20312" />
      <path
         d="M 433.794761,952.111105 A 26.456693,26.456693 0.000000 0 0 449.833237,966.972347"
         style="fill:none;stroke:#000000"
         id="path20314" />
      <path
         style="fill:none;stroke:#000000"
         d="M 433.795 952.111 L 376.703 816.124"
         id="path20316" />
      <path
         d="M 372.283465,794.178208 A 56.692913,56.692913 0.000000 0 0 376.703345,816.123970"
         style="fill:none;stroke:#000000"
         id="path20318" />
      <path
         style="fill:none;stroke:#000000"
         d="M 965.669 794.178 L 965.669 720"
         id="path20320" />
      <path
         d="M 1407.874016,720.000000 A 221.102362,221.102362 0.000000 0 0 965.669291,720.000000"
         style="fill:none;stroke:#000000"
         id="path20322" />
      <path
         style="fill:none;stroke:#000000"
         d="M 1407.87 720 L 1407.87 794.178"
         id="path20324" />
      <path
         d="M 1403.454135,816.123970 A 56.692913,56.692913 0.000000 0 0 1407.874016,794.178208"
         style="fill:none;stroke:#000000"
         id="path20326" />
      <path
         style="fill:none;stroke:#000000"
         d="M 1403.45 816.124 L 1346.36 952.111"
         id="path20328" />
      <path
         d="M 1330.324243,966.972347 A 26.456693,26.456693 0.000000 0 0 1346.362720,952.111105"
         style="fill:none;stroke:#000000"
         id="path20330" />
      <path
         d="M 1043.219064,966.972347 A 454.536388,454.536388 0.000000 0 0 1330.324243,966.972347"
         style="fill:none;stroke:#000000"
         id="path20332" />
      <path
         d="M 1027.180587,952.111105 A 26.456693,26.456693 0.000000 0 0 1043.219064,966.972347"
         style="fill:none;stroke:#000000"
         id="path20334" />
      <path
         style="fill:none;stroke:#000000"
         d="M 1027.18 952.111 L 970.089 816.124"
         id="path20336" />
      <path
         d="M 965.669291,794.178208 A 56.692913,56.692913 0.000000 0 0 970.089172,816.123970"
         style="fill:none;stroke:#000000"
         id="path20338" />
      <path
         style="fill:none;stroke:#000000"
         d="M 1559.06 794.178 L 1559.06 720"
         id="path20340" />
      <path
         d="M 2001.259843,720.000000 A 221.102362,221.102362 0.000000 0 0 1559.055118,720.000000"
         style="fill:none;stroke:#000000"
         id="path20342" />
      <path
         style="fill:none;stroke:#000000"
         d="M 2001.26 720 L 2001.26 794.178"
         id="path20344" />
      <path
         d="M 1996.839962,816.123970 A 56.692913,56.692913 0.000000 0 0 2001.259843,794.178208"
         style="fill:none;stroke:#000000"
         id="path20346" />
      <path
         style="fill:none;stroke:#000000"
         d="M 1996.84 816.124 L 1939.75 952.111"
         id="path20348" />
      <path
         d="M 1923.710070,966.972347 A 26.456693,26.456693 0.000000 0 0 1939.748546,952.111105"
         style="fill:none;stroke:#000000"
         id="path20350" />
      <path
         d="M 1636.604890,966.972347 A 454.536388,454.536388 0.000000 0 0 1923.710070,966.972347"
         style="fill:none;stroke:#000000"
         id="path20352" />
      <path
         d="M 1620.566414,952.111105 A 26.456693,26.456693 0.000000 0 0 1636.604890,966.972347"
         style="fill:none;stroke:#000000"
         id="path20354" />
      <path
         style="fill:none;stroke:#000000"
         d="M 1620.57 952.111 L 1563.47 816.124"
         id="path20356" />
      <path
         d="M 1559.055118,794.178208 A 56.692913,56.692913 0.000000 0 0 1563.474999,816.123970"
         style="fill:none;stroke:#000000"
         id="path20358" />
      <path
         style="fill:none;stroke:#000000"
         d="M 2241.26 1046.93 L 2197.74 742.288"
         id="path20360" />
      <path
         style="fill:none;stroke:#000000"
         d="M 2197.74 742.288 L 2144.29 688.837"
         id="path20362" />
      <path
         style="fill:none;stroke:#000000"
         d="M 2144.29 688.837 L 2125.58 557.883"
         id="path20364" />
      <path
         style="fill:none;stroke:#000000"
         d="M 2125.58 557.883 L 2165.67 517.795"
         id="path20366" />
      <path
         style="fill:none;stroke:#000000"
         d="M 2165.67 517.795 L 2165.67 366.614"
         id="path20368" />
      <path
         style="fill:none;stroke:#000000"
         d="M 2165.67 366.614 L -2165.67 366.614"
         id="path20370" />
      <path
         style="fill:none;stroke:#000000"
         d="M -2165.67 366.614 L -2165.67 517.795"
         id="path20372" />
      <path
         style="fill:none;stroke:#000000"
         d="M -2165.67 517.795 L -2125.58 557.883"
         id="path20374" />
      <path
         style="fill:none;stroke:#000000"
         d="M -2125.58 557.883 L -2144.29 688.837"
         id="path20376" />
      <path
         style="fill:none;stroke:#000000"
         d="M -2144.29 688.837 L -2197.74 742.288"
         id="path20378" />
      <path
         style="fill:none;stroke:#000000"
         d="M -2197.74 742.288 L -2241.26 1046.93"
         id="path20380" />
      <path
         style="fill:none;stroke:#000000"
         d="M -2241.26 1046.93 L -2241.26 1122.52"
         id="path20382" />
      <path
         style="fill:none;stroke:#000000"
         d="M -2241.26 1122.52 L 2241.26 1122.52"
         id="path20384" />
      <path
         style="fill:none;stroke:#000000"
         d="M 2241.26 1122.52 L 2241.26 1046.93"
         id="path20386" />
    </symbol>
    <symbol
       id="VBI_K200_LDRSN_GR">
      <path
         d="M 39.743128,-7701.501862 L 39.743128,-8986.541235 L 9488.562026,-8986.541235 L 9488.562026,-7701.501865 L 9091.711632,-7701.501865 L 9040.310058,-8230.635723 L 487.995097,-8230.635723 L 436.593522,-7701.501862 L 39.743128,-7701.501862 z"
         style="fill:none;stroke:#000000"
         id="path20389" />
      <path
         style="fill:none;stroke:#000000;stroke-dasharray:188.9764,94.4882,"
         d="M 9488.56 -8854.26 L 39.7431 -8854.26"
         id="path20391" />
      <path
         style="fill:none;stroke:#000000;stroke-dasharray:188.9764,94.4882,"
         d="M 9488.56 -8362.92 L 39.7431 -8362.92"
         id="path20393" />
      <path
         d="M 487.995097,-8230.635723 L 9040.310058,-8230.635723"
         style="fill:none;stroke:#000000"
         id="path20395" />
      <path
         style="fill:none;stroke:#000000;stroke-dasharray:94.4882,47.2441,"
         d="M 9040.31 -8230.64 L 9488.56 -8230.64"
         id="path20397" />
      <path
         style="fill:none;stroke:#000000;stroke-dasharray:94.4882,47.2441,"
         d="M 487.995 -8230.64 L 39.7431 -8230.64"
         id="path20399" />
      <path
         d="M 436.593522,-7701.501862 L 984.625018,-7701.501862 L 984.625018,-7656.147534 L 8543.680136,-7656.147534 L 8543.680136,-7701.501865 L 9091.711632,-7701.501865"
         style="fill:none;stroke:#000000"
         id="path20401" />
      <path
         d="M 459.690281,-7939.262619 L 634.882418,-7701.501862 L 1024.770526,-8230.635723 L 1448.077613,-7656.147534 L 1871.384699,-8230.635723 L 2307.459664,-7656.147534 L 2717.998873,-8230.635723 L 3141.305959,-7656.147534"
         style="fill:none;stroke:#000000"
         id="path20403" />
      <path
         d="M 9068.614873,-7939.262619 L 8893.422736,-7701.501862 L 8503.534628,-8230.635723 L 8080.227542,-7656.147534 L 7656.920455,-8230.635723 L 7220.845491,-7656.147534 L 6810.306282,-8230.635723 L 6386.999195,-7656.147534"
         style="fill:none;stroke:#000000"
         id="path20405" />
    </symbol>
  </defs>
  <g
     inkscape:groupmode="layer"
     inkscape:label="0"
     id="g20410" />
  <g
     inkscape:groupmode="layer"
     inkscape:label="concrete"
     id="g20428">
    <path
       id="path20412"
       style="fill:#c0c0c0;stroke:#000000;fill-opacity:1"
       d="M 94.488281 -207.87305 L 94.488281 -56.693359 L 134.57617 -16.605469 L 115.86914 114.34961 L 62.417969 167.79883 L 18.898438 472.44141 L 18.898438 548.03125 L 4501.418 548.03125 L 4501.418 472.44141 L 4457.8965 167.79883 L 4404.4473 114.34961 L 4385.7383 -16.605469 L 4425.8262 -56.693359 L 4425.8262 -207.87305 L 94.488281 -207.87305 z M 480 -75.589844 A 221.10236 221.10236 0 0 1 701.10156 145.51172 L 701.10156 219.68945 A 56.692913 56.692913 0 0 1 696.68164 241.63672 L 639.5918 377.62305 A 26.456693 26.456693 0 0 1 623.55273 392.48438 A 454.53639 454.53639 0 0 1 336.44727 392.48438 A 26.456693 26.456693 0 0 1 320.4082 377.62305 L 263.31836 241.63672 A 56.692913 56.692913 0 0 1 258.89844 219.68945 L 258.89844 145.51172 A 221.10236 221.10236 0 0 1 480 -75.589844 z M 1073.3867 -75.589844 A 221.10236 221.10236 0 0 1 1294.4883 145.51172 L 1294.4883 219.68945 A 56.692913 56.692913 0 0 1 1290.0684 241.63672 L 1232.9766 377.62305 A 26.456693 26.456693 0 0 1 1216.9375 392.48438 A 454.53639 454.53639 0 0 1 929.83398 392.48438 A 26.456693 26.456693 0 0 1 913.79492 377.62305 L 856.70312 241.63672 A 56.692913 56.692913 0 0 1 852.2832 219.68945 L 852.2832 145.51172 A 221.10236 221.10236 0 0 1 1073.3867 -75.589844 z M 1666.7715 -75.589844 A 221.10236 221.10236 0 0 1 1887.873 145.51172 L 1887.873 219.68945 A 56.692913 56.692913 0 0 1 1883.4551 241.63672 L 1826.3633 377.62305 A 26.456693 26.456693 0 0 1 1810.3242 392.48438 A 454.53639 454.53639 0 0 1 1523.2188 392.48438 A 26.456693 26.456693 0 0 1 1507.1797 377.62305 L 1450.0898 241.63672 A 56.692913 56.692913 0 0 1 1445.6699 219.68945 L 1445.6699 145.51172 A 221.10236 221.10236 0 0 1 1666.7715 -75.589844 z M 2260.1582 -75.589844 A 221.10236 221.10236 0 0 1 2481.2598 145.51172 L 2481.2598 219.68945 A 56.692913 56.692913 0 0 1 2476.8398 241.63672 L 2419.748 377.62305 A 26.456693 26.456693 0 0 1 2403.7109 392.48438 A 454.53639 454.53639 0 0 1 2116.6055 392.48438 A 26.456693 26.456693 0 0 1 2100.5664 377.62305 L 2043.4746 241.63672 A 56.692913 56.692913 0 0 1 2039.0547 219.68945 L 2039.0547 145.51172 A 221.10236 221.10236 0 0 1 2260.1582 -75.589844 z M 2853.543 -75.589844 A 221.10236 221.10236 0 0 1 3074.6465 145.51172 L 3074.6465 219.68945 A 56.692913 56.692913 0 0 1 3070.2266 241.63672 L 3013.1348 377.62305 A 26.456693 26.456693 0 0 1 2997.0957 392.48438 A 454.53639 454.53639 0 0 1 2709.9902 392.48438 A 26.456693 26.456693 0 0 1 2693.9531 377.62305 L 2636.8613 241.63672 A 56.692913 56.692913 0 0 1 2632.4414 219.68945 L 2632.4414 145.51172 A 221.10236 221.10236 0 0 1 2853.543 -75.589844 z M 3446.9297 -75.589844 A 221.10236 221.10236 0 0 1 3668.0312 145.51172 L 3668.0312 219.68945 A 56.692913 56.692913 0 0 1 3663.6113 241.63672 L 3606.5195 377.62305 A 26.456693 26.456693 0 0 1 3590.4824 392.48438 A 454.53639 454.53639 0 0 1 3303.377 392.48438 A 26.456693 26.456693 0 0 1 3287.3379 377.62305 L 3230.2461 241.63672 A 56.692913 56.692913 0 0 1 3225.8262 219.68945 L 3225.8262 145.51172 A 221.10236 221.10236 0 0 1 3446.9297 -75.589844 z M 4040.3145 -75.589844 A 221.10236 221.10236 0 0 1 4261.418 145.51172 L 4261.418 219.68945 A 56.692913 56.692913 0 0 1 4256.998 241.63672 L 4199.9062 377.62305 A 26.456693 26.456693 0 0 1 4183.8672 392.48438 A 454.53639 454.53639 0 0 1 3896.7617 392.48438 A 26.456693 26.456693 0 0 1 3880.7246 377.62305 L 3823.6328 241.63672 A 56.692913 56.692913 0 0 1 3819.2129 219.68945 L 3819.2129 145.51172 A 221.10236 221.10236 0 0 1 4040.3145 -75.589844 z " />
  </g>
  <g
     inkscape:groupmode="layer"
     inkscape:label="insulation"
     id="g20432">
    <path
       d="M 4535.433071,548.031496 L 4535.433071,1122.519685 L 0.000000,1122.519685 L 0.000000,548.031496 L 4535.433071,548.031496 z"
       style="fill:#ffffff;stroke:#000000;fill-opacity:1"
       id="path20430" />
  </g>
  <g
     inkscape:groupmode="layer"
     inkscape:label="DEFPOINTS"
     id="g20434" />
</svg>
