<?xml version="1.0" encoding="UTF-8" standalone="no"?>
<svg
   viewBox="0 0 793.7007874015749 1122.5196850393702"
   width="793.7007874015749"
   height="1122.5196850393702"
   version="1.1"
   id="svg39033"
   sodipodi:docname="TL200T200.svg"
   inkscape:version="1.2.2 (732a01da63, 2022-12-09)"
   xmlns:inkscape="http://www.inkscape.org/namespaces/inkscape"
   xmlns:sodipodi="http://sodipodi.sourceforge.net/DTD/sodipodi-0.dtd"
   xmlns:xlink="http://www.w3.org/1999/xlink"
   xmlns="http://www.w3.org/2000/svg"
   xmlns:svg="http://www.w3.org/2000/svg">
  <sodipodi:namedview
     id="namedview39035"
     pagecolor="#ffffff"
     bordercolor="#000000"
     borderopacity="0.25"
     inkscape:showpageshadow="2"
     inkscape:pageopacity="0.0"
     inkscape:pagecheckerboard="0"
     inkscape:deskcolor="#d1d1d1"
     showgrid="false"
     inkscape:zoom="0.36976785"
     inkscape:cx="1851.1615"
     inkscape:cy="113.58478"
     inkscape:window-width="3440"
     inkscape:window-height="1377"
     inkscape:window-x="-8"
     inkscape:window-y="-8"
     inkscape:window-maximized="1"
     inkscape:current-layer="g39027" />
  <desc
     id="desc38566">TL200T200.dxf - scale = 1.000000, origin = (0.000000, 0.000000), method = manual</desc>
  <defs
     id="defs39003">
    <marker
       id="DistanceX"
       orient="auto"
       refX="0.0"
       refY="0.0"
       style="overflow:visible">
      <path
         d="M 3,-3 L -3,3 M 0,-5 L  0,5"
         style="stroke:#000000; stroke-width:0.5"
         id="path38568" />
    </marker>
    <pattern
       id="Hatch"
       patternUnits="userSpaceOnUse"
       width="8"
       height="8"
       x="0"
       y="0">
      <path
         d="M8 4 l-4,4"
         stroke="#000000"
         stroke-width="0.25"
         linecap="square"
         id="path38571" />
      <path
         d="M6 2 l-4,4"
         stroke="#000000"
         stroke-width="0.25"
         linecap="square"
         id="path38573" />
      <path
         d="M4 0 l-4,4"
         stroke="#000000"
         stroke-width="0.25"
         linecap="square"
         id="path38575" />
    </pattern>
    <symbol
       id="*Model_Space" />
    <symbol
       id="*Paper_Space" />
    <symbol
       id="$MODEL_SPACE" />
    <symbol
       id="$PAPER_SPACE" />
    <symbol
       id="DIMDOT">
      <path
         style="fill:none;stroke:#000000"
         d="M -7.55905 1122.52 L 7.55905 1122.52"
         id="path38582" />
      <path
         style="fill:none;stroke:#000000"
         d="M 0 1135.75 L 0 1109.29"
         id="path38584" />
      <path
         d="M 1.889764,1122.519685 A 1.889764,1.889764 0.000000 0, 0 -1.889764,1122.519685 A 1.889764,1.889764 0.000000 0, 0 1.889764,1122.519685 z"
         style="fill:none;stroke:#000000"
         id="path38586" />
      <path
         d="M 0.944882,1122.519685 A 0.944882,0.944882 0.000000 0, 0 -0.944882,1122.519685 A 0.944882,0.944882 0.000000 0, 0 0.944882,1122.519685 z"
         style="fill:none;stroke:#000000"
         id="path38588" />
    </symbol>
    <symbol
       id="VBI_TL200_DDRSN_NP">
      <path
         d="M 2267.716535,1122.519685 L 2267.716535,1923.779528 L -2267.716535,1923.779528 L -2267.716535,1122.519685 L 2267.716535,1122.519685"
         style="fill:none;stroke:#000000;stroke-linecap: round"
         id="path38591" />
      <path
         d="M 2267.716535,1296.899947 L 2139.225816,1122.519685 L 1548.823827,1923.779528 L 958.421838,1122.519685 L 368.019848,1923.779528 L -222.382141,1122.519685 L -812.784130,1923.779528 L -1403.186119,1122.519685 L -1993.588109,1923.779528 L -2267.716535,1551.748091"
         style="fill:none;stroke:#000000"
         id="path38593" />
      <path
         d="M 2184.566932,366.614176 L 2350.866145,366.614176 L 2350.866145,517.795278 L 2396.220476,563.149609 L 2396.220476,631.181105 L 2350.866145,744.566932 L 2350.866145,1122.519688 L 2184.566932,1122.519688 L 2184.566932,744.566932 L 2139.212602,631.181105 L 2139.212602,563.149609 L 2184.566932,517.795278 L 2184.566932,366.614176 z"
         style="fill:none;stroke:#FF0000"
         id="path38595" />
      <path
         d="M -2139.212595,563.149609 L -2139.212595,631.181105 L -2184.566926,744.566932 L -2184.566926,1122.519688 L 2184.566932,1122.519688 L 2184.566932,744.566932 L 2139.212602,631.181105 L 2139.212602,563.149609 L 2184.566932,517.795278 L 2184.566932,366.614176 L -2184.566926,366.614176 L -2184.566926,517.795278 L -2139.212595,563.149609 z"
         style="fill:none;stroke:#000000"
         id="path38597" />
      <path
         d="M 0.000003,1009.142093 A 377.953114,377.953114 0.0 0 1 -205.511759,948.385247 A 75.590551,75.590551 0.0 0 1 -239.999997,884.946053 L -239.999997,752.926652 A 226.771654,226.771654 0.0 0 1 -203.083895,628.909508 A 359.055118,359.055118 0.0 0 0 -191.731853,610.323087 A 220.679061,220.679061 0.0 0 1 0.000003,498.905837 A 220.679061,220.679061 0.0 0 1 191.731859,610.323087 A 359.055118,359.055118 0.0 0 0 203.083902,628.909508 A 226.771654,226.771654 0.0 0 1 240.000003,752.926652 L 240.000003,884.946053 A 75.590551,75.590551 0.0 0 1 205.511766,948.385247 A 377.953114,377.953114 0.0 0 1 0.000003,1009.142093 z"
         style="fill:none;stroke:#000000"
         id="path38599" />
      <path
         d="M -593.385823,1009.142093 A 377.953114,377.953114 0.0 0 1 -798.897586,948.385247 A 75.590551,75.590551 0.0 0 1 -833.385823,884.946053 L -833.385823,752.926652 A 226.771654,226.771654 0.0 0 1 -796.469722,628.909508 A 359.055118,359.055118 0.0 0 0 -785.117680,610.323087 A 220.679061,220.679061 0.0 0 1 -593.385823,498.905837 A 220.679061,220.679061 0.0 0 1 -401.653967,610.323087 A 359.055118,359.055118 0.0 0 0 -390.301925,628.909508 A 226.771654,226.771654 0.0 0 1 -353.385823,752.926652 L -353.385823,884.946053 A 75.590551,75.590551 0.0 0 1 -387.874061,948.385247 A 377.953114,377.953114 0.0 0 1 -593.385823,1009.142093 z"
         style="fill:none;stroke:#000000"
         id="path38601" />
      <path
         d="M -1186.771650,1009.142093 A 377.953114,377.953114 0.0 0 1 -1392.283413,948.385247 A 75.590551,75.590551 0.0 0 1 -1426.771650,884.946053 L -1426.771650,752.926652 A 226.771654,226.771654 0.0 0 1 -1389.855549,628.909508 A 359.055118,359.055118 0.0 0 0 -1378.503506,610.323087 A 220.679061,220.679061 0.0 0 1 -1186.771650,498.905837 A 220.679061,220.679061 0.0 0 1 -995.039794,610.323087 A 359.055118,359.055118 0.0 0 0 -983.687752,628.909508 A 226.771654,226.771654 0.0 0 1 -946.771650,752.926652 L -946.771650,884.946053 A 75.590551,75.590551 0.0 0 1 -981.259888,948.385247 A 377.953114,377.953114 0.0 0 1 -1186.771650,1009.142093 z"
         style="fill:none;stroke:#000000"
         id="path38603" />
      <path
         d="M -1780.157477,1009.142093 A 377.953114,377.953114 0.0 0 1 -1985.669239,948.385247 A 75.590551,75.590551 0.0 0 1 -2020.157477,884.946053 L -2020.157477,752.926652 A 226.771654,226.771654 0.0 0 1 -1983.241376,628.909508 A 359.055118,359.055118 0.0 0 0 -1971.889333,610.323087 A 220.679061,220.679061 0.0 0 1 -1780.157477,498.905837 A 220.679061,220.679061 0.0 0 1 -1588.425621,610.323087 A 359.055118,359.055118 0.0 0 0 -1577.073578,628.909508 A 226.771654,226.771654 0.0 0 1 -1540.157477,752.926652 L -1540.157477,884.946053 A 75.590551,75.590551 0.0 0 1 -1574.645715,948.385247 A 377.953114,377.953114 0.0 0 1 -1780.157477,1009.142093 z"
         style="fill:none;stroke:#000000"
         id="path38605" />
      <path
         d="M 593.385830,1009.142093 A 377.953114,377.953114 0.0 0 0 798.897592,948.385247 A 75.590551,75.590551 0.0 0 0 833.385830,884.946053 L 833.385830,752.926652 A 226.771654,226.771654 0.0 0 0 796.469729,628.909508 A 359.055118,359.055118 0.0 0 1 785.117686,610.323087 A 220.679061,220.679061 0.0 0 0 593.385830,498.905837 A 220.679061,220.679061 0.0 0 0 401.653974,610.323087 A 359.055118,359.055118 0.0 0 1 390.301931,628.909508 A 226.771654,226.771654 0.0 0 0 353.385830,752.926652 L 353.385830,884.946053 A 75.590551,75.590551 0.0 0 0 387.874068,948.385247 A 377.953114,377.953114 0.0 0 0 593.385830,1009.142093 z"
         style="fill:none;stroke:#000000"
         id="path38607" />
      <path
         d="M 1186.771657,1009.142093 A 377.953114,377.953114 0.0 0 0 1392.283419,948.385247 A 75.590551,75.590551 0.0 0 0 1426.771657,884.946053 L 1426.771657,752.926652 A 226.771654,226.771654 0.0 0 0 1389.855556,628.909508 A 359.055118,359.055118 0.0 0 1 1378.503513,610.323087 A 220.679061,220.679061 0.0 0 0 1186.771657,498.905837 A 220.679061,220.679061 0.0 0 0 995.039801,610.323087 A 359.055118,359.055118 0.0 0 1 983.687758,628.909508 A 226.771654,226.771654 0.0 0 0 946.771657,752.926652 L 946.771657,884.946053 A 75.590551,75.590551 0.0 0 0 981.259895,948.385247 A 377.953114,377.953114 0.0 0 0 1186.771657,1009.142093 z"
         style="fill:none;stroke:#000000"
         id="path38609" />
      <path
         d="M 1780.157484,1009.142093 A 377.953114,377.953114 0.0 0 0 1985.669246,948.385247 A 75.590551,75.590551 0.0 0 0 2020.157484,884.946053 L 2020.157484,752.926652 A 226.771654,226.771654 0.0 0 0 1983.241382,628.909508 A 359.055118,359.055118 0.0 0 1 1971.889340,610.323087 A 220.679061,220.679061 0.0 0 0 1780.157484,498.905837 A 220.679061,220.679061 0.0 0 0 1588.425628,610.323087 A 359.055118,359.055118 0.0 0 1 1577.073585,628.909508 A 226.771654,226.771654 0.0 0 0 1540.157484,752.926652 L 1540.157484,884.946053 A 75.590551,75.590551 0.0 0 0 1574.645721,948.385247 A 377.953114,377.953114 0.0 0 0 1780.157484,1009.142093 z"
         style="fill:none;stroke:#000000"
         id="path38611" />
    </symbol>
    <symbol
       id="VBI_TL200_DDRSN_GR">
      <path
         style="fill:none;stroke:#FF0000"
         d="M 1768.82 1122.52 L 1897.32 1878.43"
         id="path38614" />
      <path
         style="fill:none;stroke:#FF0000"
         d="M 2161.89 1878.43 L 2184.57 1122.52"
         id="path38616" />
      <path
         d="M 2267.716535,1122.519685 L -2267.716535,1122.519685 L -2267.716535,1923.779528 L 1322.834646,1923.779528 L 1322.834646,1878.425197 L 2267.716535,1878.425197 L 2267.716535,1122.519685"
         style="fill:none;stroke:#000000"
         id="path38618" />
      <path
         d="M 2267.716535,1456.965628 L 2021.282683,1122.519685 L 1464.299674,1878.425197 L 907.316666,1122.519685 L 316.914676,1923.779528 L -273.487313,1122.519685 L -863.889302,1923.779528 L -1454.291291,1122.519685 L -2044.693281,1923.779528 L -2267.716535,1621.105110"
         style="fill:none;stroke:#000000"
         id="path38620" />
      <path
         d="M -2139.212595,563.149609 L -2139.212595,631.181105 L -2184.566926,744.566932 L -2184.566926,1122.519688 L 2184.566932,1122.519688 L 2184.566932,744.566932 L 2139.212602,631.181105 L 2139.212602,563.149609 L 2184.566932,517.795278 L 2184.566932,366.614176 L -2184.566926,366.614176 L -2184.566926,517.795278 L -2139.212595,563.149609 z"
         style="fill:none;stroke:#000000"
         id="path38622" />
      <path
         d="M 0.000003,1009.142093 A 377.953114,377.953114 0.0 0 1 -205.511759,948.385247 A 75.590551,75.590551 0.0 0 1 -239.999997,884.946053 L -239.999997,752.926652 A 226.771654,226.771654 0.0 0 1 -203.083895,628.909508 A 359.055118,359.055118 0.0 0 0 -191.731853,610.323087 A 220.679061,220.679061 0.0 0 1 0.000003,498.905837 A 220.679061,220.679061 0.0 0 1 191.731859,610.323087 A 359.055118,359.055118 0.0 0 0 203.083902,628.909508 A 226.771654,226.771654 0.0 0 1 240.000003,752.926652 L 240.000003,884.946053 A 75.590551,75.590551 0.0 0 1 205.511766,948.385247 A 377.953114,377.953114 0.0 0 1 0.000003,1009.142093 z"
         style="fill:none;stroke:#000000"
         id="path38624" />
      <path
         d="M -593.385823,1009.142093 A 377.953114,377.953114 0.0 0 1 -798.897586,948.385247 A 75.590551,75.590551 0.0 0 1 -833.385823,884.946053 L -833.385823,752.926652 A 226.771654,226.771654 0.0 0 1 -796.469722,628.909508 A 359.055118,359.055118 0.0 0 0 -785.117680,610.323087 A 220.679061,220.679061 0.0 0 1 -593.385823,498.905837 A 220.679061,220.679061 0.0 0 1 -401.653967,610.323087 A 359.055118,359.055118 0.0 0 0 -390.301925,628.909508 A 226.771654,226.771654 0.0 0 1 -353.385823,752.926652 L -353.385823,884.946053 A 75.590551,75.590551 0.0 0 1 -387.874061,948.385247 A 377.953114,377.953114 0.0 0 1 -593.385823,1009.142093 z"
         style="fill:none;stroke:#000000"
         id="path38626" />
      <path
         d="M -1186.771650,1009.142093 A 377.953114,377.953114 0.0 0 1 -1392.283413,948.385247 A 75.590551,75.590551 0.0 0 1 -1426.771650,884.946053 L -1426.771650,752.926652 A 226.771654,226.771654 0.0 0 1 -1389.855549,628.909508 A 359.055118,359.055118 0.0 0 0 -1378.503506,610.323087 A 220.679061,220.679061 0.0 0 1 -1186.771650,498.905837 A 220.679061,220.679061 0.0 0 1 -995.039794,610.323087 A 359.055118,359.055118 0.0 0 0 -983.687752,628.909508 A 226.771654,226.771654 0.0 0 1 -946.771650,752.926652 L -946.771650,884.946053 A 75.590551,75.590551 0.0 0 1 -981.259888,948.385247 A 377.953114,377.953114 0.0 0 1 -1186.771650,1009.142093 z"
         style="fill:none;stroke:#000000"
         id="path38628" />
      <path
         d="M -1780.157477,1009.142093 A 377.953114,377.953114 0.0 0 1 -1985.669239,948.385247 A 75.590551,75.590551 0.0 0 1 -2020.157477,884.946053 L -2020.157477,752.926652 A 226.771654,226.771654 0.0 0 1 -1983.241376,628.909508 A 359.055118,359.055118 0.0 0 0 -1971.889333,610.323087 A 220.679061,220.679061 0.0 0 1 -1780.157477,498.905837 A 220.679061,220.679061 0.0 0 1 -1588.425621,610.323087 A 359.055118,359.055118 0.0 0 0 -1577.073578,628.909508 A 226.771654,226.771654 0.0 0 1 -1540.157477,752.926652 L -1540.157477,884.946053 A 75.590551,75.590551 0.0 0 1 -1574.645715,948.385247 A 377.953114,377.953114 0.0 0 1 -1780.157477,1009.142093 z"
         style="fill:none;stroke:#000000"
         id="path38630" />
      <path
         d="M 593.385830,1009.142093 A 377.953114,377.953114 0.0 0 0 798.897592,948.385247 A 75.590551,75.590551 0.0 0 0 833.385830,884.946053 L 833.385830,752.926652 A 226.771654,226.771654 0.0 0 0 796.469729,628.909508 A 359.055118,359.055118 0.0 0 1 785.117686,610.323087 A 220.679061,220.679061 0.0 0 0 593.385830,498.905837 A 220.679061,220.679061 0.0 0 0 401.653974,610.323087 A 359.055118,359.055118 0.0 0 1 390.301931,628.909508 A 226.771654,226.771654 0.0 0 0 353.385830,752.926652 L 353.385830,884.946053 A 75.590551,75.590551 0.0 0 0 387.874068,948.385247 A 377.953114,377.953114 0.0 0 0 593.385830,1009.142093 z"
         style="fill:none;stroke:#000000"
         id="path38632" />
      <path
         d="M 1186.771657,1009.142093 A 377.953114,377.953114 0.0 0 0 1392.283419,948.385247 A 75.590551,75.590551 0.0 0 0 1426.771657,884.946053 L 1426.771657,752.926652 A 226.771654,226.771654 0.0 0 0 1389.855556,628.909508 A 359.055118,359.055118 0.0 0 1 1378.503513,610.323087 A 220.679061,220.679061 0.0 0 0 1186.771657,498.905837 A 220.679061,220.679061 0.0 0 0 995.039801,610.323087 A 359.055118,359.055118 0.0 0 1 983.687758,628.909508 A 226.771654,226.771654 0.0 0 0 946.771657,752.926652 L 946.771657,884.946053 A 75.590551,75.590551 0.0 0 0 981.259895,948.385247 A 377.953114,377.953114 0.0 0 0 1186.771657,1009.142093 z"
         style="fill:none;stroke:#000000"
         id="path38634" />
      <path
         d="M 1780.157484,1009.142093 A 377.953114,377.953114 0.0 0 0 1985.669246,948.385247 A 75.590551,75.590551 0.0 0 0 2020.157484,884.946053 L 2020.157484,752.926652 A 226.771654,226.771654 0.0 0 0 1983.241382,628.909508 A 359.055118,359.055118 0.0 0 1 1971.889340,610.323087 A 220.679061,220.679061 0.0 0 0 1780.157484,498.905837 A 220.679061,220.679061 0.0 0 0 1588.425628,610.323087 A 359.055118,359.055118 0.0 0 1 1577.073585,628.909508 A 226.771654,226.771654 0.0 0 0 1540.157484,752.926652 L 1540.157484,884.946053 A 75.590551,75.590551 0.0 0 0 1574.645721,948.385247 A 377.953114,377.953114 0.0 0 0 1780.157484,1009.142093 z"
         style="fill:none;stroke:#000000"
         id="path38636" />
    </symbol>
    <symbol
       id="VBI_T200_DDSN_NP">
      <path
         style="fill:none;stroke:#000000"
         d="M -2241.26 1122.52 L -2260.16 1122.52"
         id="path38639" />
      <path
         style="fill:none;stroke:#000000"
         d="M 2275.28 1122.52 L 2241.26 1122.52"
         id="path38641" />
      <path
         d="M 2165.669291,366.614173 L 2369.763780,366.614173 L 2369.763780,517.795276 L 2409.851723,557.883219 L 2391.144016,688.837168 L 2337.693425,742.287759 L 2294.173228,1046.929134 L 2294.173228,1122.519685 L 2241.259843,1122.519685 L 2241.259843,1046.929134 L 2197.739646,742.287759 L 2144.289055,688.837168 L 2125.581348,557.883219 L 2165.669291,517.795276 L 2165.669291,366.614173"
         style="fill:none;stroke:#FF0000"
         id="path38643" />
      <path
         d="M -2260.157480,1122.519685 L 2275.275591,1122.519685 L 2275.275591,1923.779528 L -2260.157480,1923.779528 L -2260.157480,1122.519685 z"
         style="fill:none;stroke:#000000"
         id="path38645" />
      <path
         d="M -2260.157480,1551.748091 L -1986.029053,1923.779528 L -1395.627064,1122.519685 L -805.225075,1923.779528 L -214.823086,1122.519685 L 375.578903,1923.779528 L 965.980893,1122.519685 L 1556.382882,1923.779528 L 2146.784871,1122.519685 L 2275.275591,1296.899947"
         style="fill:none;stroke:#000000"
         id="path38647" />
      <use
         xlink:href="#%2AU6"
         style="stroke-width:0.500px"
         id="use38649" />
    </symbol>
    <symbol
       id="*U6">
      <path
         style="fill:none;stroke:#000000"
         d="M -2001.26 794.178 L -2001.26 720"
         id="path38652" />
      <path
         d="M -1559.055118,720.000000 A 221.102362,221.102362 0.000000 0 0 -2001.259843,720.000000"
         style="fill:none;stroke:#000000"
         id="path38654" />
      <path
         style="fill:none;stroke:#000000"
         d="M -1559.06 720 L -1559.06 794.178"
         id="path38656" />
      <path
         d="M -1563.474999,816.123970 A 56.692913,56.692913 0.000000 0 0 -1559.055118,794.178208"
         style="fill:none;stroke:#000000"
         id="path38658" />
      <path
         style="fill:none;stroke:#000000"
         d="M -1563.47 816.124 L -1620.57 952.111"
         id="path38660" />
      <path
         d="M -1636.604890,966.972347 A 26.456693,26.456693 0.000000 0 0 -1620.566414,952.111105"
         style="fill:none;stroke:#000000"
         id="path38662" />
      <path
         d="M -1923.710070,966.972347 A 454.536388,454.536388 0.000000 0 0 -1636.604890,966.972347"
         style="fill:none;stroke:#000000"
         id="path38664" />
      <path
         d="M -1939.748546,952.111105 A 26.456693,26.456693 0.000000 0 0 -1923.710070,966.972347"
         style="fill:none;stroke:#000000"
         id="path38666" />
      <path
         style="fill:none;stroke:#000000"
         d="M -1939.75 952.111 L -1996.84 816.124"
         id="path38668" />
      <path
         d="M -2001.259843,794.178208 A 56.692913,56.692913 0.000000 0 0 -1996.839962,816.123970"
         style="fill:none;stroke:#000000"
         id="path38670" />
      <path
         style="fill:none;stroke:#000000"
         d="M -1407.87 794.178 L -1407.87 720"
         id="path38672" />
      <path
         d="M -965.669291,720.000000 A 221.102362,221.102362 0.000000 0 0 -1407.874016,720.000000"
         style="fill:none;stroke:#000000"
         id="path38674" />
      <path
         style="fill:none;stroke:#000000"
         d="M -965.669 720 L -965.669 794.178"
         id="path38676" />
      <path
         d="M -970.089172,816.123970 A 56.692913,56.692913 0.000000 0 0 -965.669291,794.178208"
         style="fill:none;stroke:#000000"
         id="path38678" />
      <path
         style="fill:none;stroke:#000000"
         d="M -970.089 816.124 L -1027.18 952.111"
         id="path38680" />
      <path
         d="M -1043.219064,966.972347 A 26.456693,26.456693 0.000000 0 0 -1027.180587,952.111105"
         style="fill:none;stroke:#000000"
         id="path38682" />
      <path
         d="M -1330.324243,966.972347 A 454.536388,454.536388 0.000000 0 0 -1043.219064,966.972347"
         style="fill:none;stroke:#000000"
         id="path38684" />
      <path
         d="M -1346.362720,952.111105 A 26.456693,26.456693 0.000000 0 0 -1330.324243,966.972347"
         style="fill:none;stroke:#000000"
         id="path38686" />
      <path
         style="fill:none;stroke:#000000"
         d="M -1346.36 952.111 L -1403.45 816.124"
         id="path38688" />
      <path
         d="M -1407.874016,794.178208 A 56.692913,56.692913 0.000000 0 0 -1403.454135,816.123970"
         style="fill:none;stroke:#000000"
         id="path38690" />
      <path
         style="fill:none;stroke:#000000"
         d="M -814.488 794.178 L -814.488 720"
         id="path38692" />
      <path
         d="M -372.283465,720.000000 A 221.102362,221.102362 0.000000 0 0 -814.488189,720.000000"
         style="fill:none;stroke:#000000"
         id="path38694" />
      <path
         style="fill:none;stroke:#000000"
         d="M -372.283 720 L -372.283 794.178"
         id="path38696" />
      <path
         d="M -376.703345,816.123970 A 56.692913,56.692913 0.000000 0 0 -372.283465,794.178208"
         style="fill:none;stroke:#000000"
         id="path38698" />
      <path
         style="fill:none;stroke:#000000"
         d="M -376.703 816.124 L -433.795 952.111"
         id="path38700" />
      <path
         d="M -449.833237,966.972347 A 26.456693,26.456693 0.000000 0 0 -433.794761,952.111105"
         style="fill:none;stroke:#000000"
         id="path38702" />
      <path
         d="M -736.938417,966.972347 A 454.536388,454.536388 0.000000 0 0 -449.833237,966.972347"
         style="fill:none;stroke:#000000"
         id="path38704" />
      <path
         d="M -752.976893,952.111105 A 26.456693,26.456693 0.000000 0 0 -736.938417,966.972347"
         style="fill:none;stroke:#000000"
         id="path38706" />
      <path
         style="fill:none;stroke:#000000"
         d="M -752.977 952.111 L -810.068 816.124"
         id="path38708" />
      <path
         d="M -814.488189,794.178208 A 56.692913,56.692913 0.000000 0 0 -810.068308,816.123970"
         style="fill:none;stroke:#000000"
         id="path38710" />
      <path
         style="fill:none;stroke:#000000"
         d="M -221.102 794.178 L -221.102 720"
         id="path38712" />
      <path
         d="M 221.102362,720.000000 A 221.102362,221.102362 0.000000 0 0 -221.102362,720.000000"
         style="fill:none;stroke:#000000"
         id="path38714" />
      <path
         style="fill:none;stroke:#000000"
         d="M 221.102 720 L 221.102 794.178"
         id="path38716" />
      <path
         d="M 216.682481,816.123970 A 56.692913,56.692913 0.000000 0 0 221.102362,794.178208"
         style="fill:none;stroke:#000000"
         id="path38718" />
      <path
         style="fill:none;stroke:#000000"
         d="M 216.682 816.124 L 159.591 952.111"
         id="path38720" />
      <path
         d="M 143.552590,966.972347 A 26.456693,26.456693 0.000000 0 0 159.591066,952.111105"
         style="fill:none;stroke:#000000"
         id="path38722" />
      <path
         d="M -143.552590,966.972347 A 454.536388,454.536388 0.000000 0 0 143.552590,966.972347"
         style="fill:none;stroke:#000000"
         id="path38724" />
      <path
         d="M -159.591066,952.111105 A 26.456693,26.456693 0.000000 0 0 -143.552590,966.972347"
         style="fill:none;stroke:#000000"
         id="path38726" />
      <path
         style="fill:none;stroke:#000000"
         d="M -159.591 952.111 L -216.682 816.124"
         id="path38728" />
      <path
         d="M -221.102362,794.178208 A 56.692913,56.692913 0.000000 0 0 -216.682481,816.123970"
         style="fill:none;stroke:#000000"
         id="path38730" />
      <path
         style="fill:none;stroke:#000000"
         d="M 372.283 794.178 L 372.283 720"
         id="path38732" />
      <path
         d="M 814.488189,720.000000 A 221.102362,221.102362 0.000000 0 0 372.283465,720.000000"
         style="fill:none;stroke:#000000"
         id="path38734" />
      <path
         style="fill:none;stroke:#000000"
         d="M 814.488 720 L 814.488 794.178"
         id="path38736" />
      <path
         d="M 810.068308,816.123970 A 56.692913,56.692913 0.000000 0 0 814.488189,794.178208"
         style="fill:none;stroke:#000000"
         id="path38738" />
      <path
         style="fill:none;stroke:#000000"
         d="M 810.068 816.124 L 752.977 952.111"
         id="path38740" />
      <path
         d="M 736.938417,966.972347 A 26.456693,26.456693 0.000000 0 0 752.976893,952.111105"
         style="fill:none;stroke:#000000"
         id="path38742" />
      <path
         d="M 449.833237,966.972347 A 454.536388,454.536388 0.000000 0 0 736.938417,966.972347"
         style="fill:none;stroke:#000000"
         id="path38744" />
      <path
         d="M 433.794761,952.111105 A 26.456693,26.456693 0.000000 0 0 449.833237,966.972347"
         style="fill:none;stroke:#000000"
         id="path38746" />
      <path
         style="fill:none;stroke:#000000"
         d="M 433.795 952.111 L 376.703 816.124"
         id="path38748" />
      <path
         d="M 372.283465,794.178208 A 56.692913,56.692913 0.000000 0 0 376.703345,816.123970"
         style="fill:none;stroke:#000000"
         id="path38750" />
      <path
         style="fill:none;stroke:#000000"
         d="M 965.669 794.178 L 965.669 720"
         id="path38752" />
      <path
         d="M 1407.874016,720.000000 A 221.102362,221.102362 0.000000 0 0 965.669291,720.000000"
         style="fill:none;stroke:#000000"
         id="path38754" />
      <path
         style="fill:none;stroke:#000000"
         d="M 1407.87 720 L 1407.87 794.178"
         id="path38756" />
      <path
         d="M 1403.454135,816.123970 A 56.692913,56.692913 0.000000 0 0 1407.874016,794.178208"
         style="fill:none;stroke:#000000"
         id="path38758" />
      <path
         style="fill:none;stroke:#000000"
         d="M 1403.45 816.124 L 1346.36 952.111"
         id="path38760" />
      <path
         d="M 1330.324243,966.972347 A 26.456693,26.456693 0.000000 0 0 1346.362720,952.111105"
         style="fill:none;stroke:#000000"
         id="path38762" />
      <path
         d="M 1043.219064,966.972347 A 454.536388,454.536388 0.000000 0 0 1330.324243,966.972347"
         style="fill:none;stroke:#000000"
         id="path38764" />
      <path
         d="M 1027.180587,952.111105 A 26.456693,26.456693 0.000000 0 0 1043.219064,966.972347"
         style="fill:none;stroke:#000000"
         id="path38766" />
      <path
         style="fill:none;stroke:#000000"
         d="M 1027.18 952.111 L 970.089 816.124"
         id="path38768" />
      <path
         d="M 965.669291,794.178208 A 56.692913,56.692913 0.000000 0 0 970.089172,816.123970"
         style="fill:none;stroke:#000000"
         id="path38770" />
      <path
         style="fill:none;stroke:#000000"
         d="M 1559.06 794.178 L 1559.06 720"
         id="path38772" />
      <path
         d="M 2001.259843,720.000000 A 221.102362,221.102362 0.000000 0 0 1559.055118,720.000000"
         style="fill:none;stroke:#000000"
         id="path38774" />
      <path
         style="fill:none;stroke:#000000"
         d="M 2001.26 720 L 2001.26 794.178"
         id="path38776" />
      <path
         d="M 1996.839962,816.123970 A 56.692913,56.692913 0.000000 0 0 2001.259843,794.178208"
         style="fill:none;stroke:#000000"
         id="path38778" />
      <path
         style="fill:none;stroke:#000000"
         d="M 1996.84 816.124 L 1939.75 952.111"
         id="path38780" />
      <path
         d="M 1923.710070,966.972347 A 26.456693,26.456693 0.000000 0 0 1939.748546,952.111105"
         style="fill:none;stroke:#000000"
         id="path38782" />
      <path
         d="M 1636.604890,966.972347 A 454.536388,454.536388 0.000000 0 0 1923.710070,966.972347"
         style="fill:none;stroke:#000000"
         id="path38784" />
      <path
         d="M 1620.566414,952.111105 A 26.456693,26.456693 0.000000 0 0 1636.604890,966.972347"
         style="fill:none;stroke:#000000"
         id="path38786" />
      <path
         style="fill:none;stroke:#000000"
         d="M 1620.57 952.111 L 1563.47 816.124"
         id="path38788" />
      <path
         d="M 1559.055118,794.178208 A 56.692913,56.692913 0.000000 0 0 1563.474999,816.123970"
         style="fill:none;stroke:#000000"
         id="path38790" />
      <path
         style="fill:none;stroke:#000000"
         d="M 2241.26 1046.93 L 2197.74 742.288"
         id="path38792" />
      <path
         style="fill:none;stroke:#000000"
         d="M 2197.74 742.288 L 2144.29 688.837"
         id="path38794" />
      <path
         style="fill:none;stroke:#000000"
         d="M 2144.29 688.837 L 2125.58 557.883"
         id="path38796" />
      <path
         style="fill:none;stroke:#000000"
         d="M 2125.58 557.883 L 2165.67 517.795"
         id="path38798" />
      <path
         style="fill:none;stroke:#000000"
         d="M 2165.67 517.795 L 2165.67 366.614"
         id="path38800" />
      <path
         style="fill:none;stroke:#000000"
         d="M 2165.67 366.614 L -2165.67 366.614"
         id="path38802" />
      <path
         style="fill:none;stroke:#000000"
         d="M -2165.67 366.614 L -2165.67 517.795"
         id="path38804" />
      <path
         style="fill:none;stroke:#000000"
         d="M -2165.67 517.795 L -2125.58 557.883"
         id="path38806" />
      <path
         style="fill:none;stroke:#000000"
         d="M -2125.58 557.883 L -2144.29 688.837"
         id="path38808" />
      <path
         style="fill:none;stroke:#000000"
         d="M -2144.29 688.837 L -2197.74 742.288"
         id="path38810" />
      <path
         style="fill:none;stroke:#000000"
         d="M -2197.74 742.288 L -2241.26 1046.93"
         id="path38812" />
      <path
         style="fill:none;stroke:#000000"
         d="M -2241.26 1046.93 L -2241.26 1122.52"
         id="path38814" />
      <path
         style="fill:none;stroke:#000000"
         d="M -2241.26 1122.52 L 2241.26 1122.52"
         id="path38816" />
      <path
         style="fill:none;stroke:#000000"
         d="M 2241.26 1122.52 L 2241.26 1046.93"
         id="path38818" />
    </symbol>
    <symbol
       id="VBI_T200_DDSN_GR">
      <path
         style="fill:none;stroke:#000000"
         d="M -2248.82 1122.52 L -2267.72 1122.52"
         id="path38821" />
      <path
         style="fill:none;stroke:#000000"
         d="M 2267.72 1122.52 L 2233.7 1122.52"
         id="path38823" />
      <path
         d="M -2267.716535,1122.519685 L -2267.716535,1923.779528 L 1322.834646,1923.779528 L 1322.834646,1878.425197 L 2267.716535,1878.425197 L 2267.716535,1122.519685 L -2267.716535,1122.519685"
         style="fill:none;stroke:#000000"
         id="path38825" />
      <path
         d="M -2267.716535,1621.105110 L -2044.693281,1923.779528 L -1454.291291,1122.519685 L -863.889302,1923.779528 L -273.487313,1122.519685 L 316.914676,1923.779528 L 907.316666,1122.519685 L 1464.299674,1878.425197 L 2021.282683,1122.519685 L 2267.716535,1456.965628"
         style="fill:none;stroke:#000000"
         id="path38827" />
      <path
         d="M 1817.952756,1122.519685 L 1946.456693,1878.425197 L 2211.023622,1878.425197 L 2233.700787,1122.519685"
         style="fill:none;stroke:#FF0000"
         id="path38829" />
      <use
         xlink:href="#%2AU8"
         style="stroke-width:0.500px"
         id="use38831" />
    </symbol>
    <symbol
       id="*U8">
      <path
         style="fill:none;stroke:#000000"
         d="M -2008.82 794.178 L -2008.82 720"
         id="path38834" />
      <path
         d="M -1566.614173,720.000000 A 221.102362,221.102362 0.000000 0 0 -2008.818898,720.000000"
         style="fill:none;stroke:#000000"
         id="path38836" />
      <path
         style="fill:none;stroke:#000000"
         d="M -1566.61 720 L -1566.61 794.178"
         id="path38838" />
      <path
         d="M -1571.034054,816.123970 A 56.692913,56.692913 0.000000 0 0 -1566.614173,794.178208"
         style="fill:none;stroke:#000000"
         id="path38840" />
      <path
         style="fill:none;stroke:#000000"
         d="M -1571.03 816.124 L -1628.13 952.111"
         id="path38842" />
      <path
         d="M -1644.163945,966.972347 A 26.456693,26.456693 0.000000 0 0 -1628.125469,952.111105"
         style="fill:none;stroke:#000000"
         id="path38844" />
      <path
         d="M -1931.269125,966.972347 A 454.536388,454.536388 0.000000 0 0 -1644.163945,966.972347"
         style="fill:none;stroke:#000000"
         id="path38846" />
      <path
         d="M -1947.307602,952.111105 A 26.456693,26.456693 0.000000 0 0 -1931.269125,966.972347"
         style="fill:none;stroke:#000000"
         id="path38848" />
      <path
         style="fill:none;stroke:#000000"
         d="M -1947.31 952.111 L -2004.4 816.124"
         id="path38850" />
      <path
         d="M -2008.818898,794.178208 A 56.692913,56.692913 0.000000 0 0 -2004.399017,816.123970"
         style="fill:none;stroke:#000000"
         id="path38852" />
      <path
         style="fill:none;stroke:#000000"
         d="M -1415.43 794.178 L -1415.43 720"
         id="path38854" />
      <path
         d="M -973.228346,720.000000 A 221.102362,221.102362 0.000000 0 0 -1415.433071,720.000000"
         style="fill:none;stroke:#000000"
         id="path38856" />
      <path
         style="fill:none;stroke:#000000"
         d="M -973.228 720 L -973.228 794.178"
         id="path38858" />
      <path
         d="M -977.648227,816.123970 A 56.692913,56.692913 0.000000 0 0 -973.228346,794.178208"
         style="fill:none;stroke:#000000"
         id="path38860" />
      <path
         style="fill:none;stroke:#000000"
         d="M -977.648 816.124 L -1034.74 952.111"
         id="path38862" />
      <path
         d="M -1050.778119,966.972347 A 26.456693,26.456693 0.000000 0 0 -1034.739643,952.111105"
         style="fill:none;stroke:#000000"
         id="path38864" />
      <path
         d="M -1337.883299,966.972347 A 454.536388,454.536388 0.000000 0 0 -1050.778119,966.972347"
         style="fill:none;stroke:#000000"
         id="path38866" />
      <path
         d="M -1353.921775,952.111105 A 26.456693,26.456693 0.000000 0 0 -1337.883299,966.972347"
         style="fill:none;stroke:#000000"
         id="path38868" />
      <path
         style="fill:none;stroke:#000000"
         d="M -1353.92 952.111 L -1411.01 816.124"
         id="path38870" />
      <path
         d="M -1415.433071,794.178208 A 56.692913,56.692913 0.000000 0 0 -1411.013190,816.123970"
         style="fill:none;stroke:#000000"
         id="path38872" />
      <path
         style="fill:none;stroke:#000000"
         d="M -822.047 794.178 L -822.047 720"
         id="path38874" />
      <path
         d="M -379.842520,720.000000 A 221.102362,221.102362 0.000000 0 0 -822.047244,720.000000"
         style="fill:none;stroke:#000000"
         id="path38876" />
      <path
         style="fill:none;stroke:#000000"
         d="M -379.843 720 L -379.843 794.178"
         id="path38878" />
      <path
         d="M -384.262401,816.123970 A 56.692913,56.692913 0.000000 0 0 -379.842520,794.178208"
         style="fill:none;stroke:#000000"
         id="path38880" />
      <path
         style="fill:none;stroke:#000000"
         d="M -384.262 816.124 L -441.354 952.111"
         id="path38882" />
      <path
         d="M -457.392292,966.972347 A 26.456693,26.456693 0.000000 0 0 -441.353816,952.111105"
         style="fill:none;stroke:#000000"
         id="path38884" />
      <path
         d="M -744.497472,966.972347 A 454.536388,454.536388 0.000000 0 0 -457.392292,966.972347"
         style="fill:none;stroke:#000000"
         id="path38886" />
      <path
         d="M -760.535948,952.111105 A 26.456693,26.456693 0.000000 0 0 -744.497472,966.972347"
         style="fill:none;stroke:#000000"
         id="path38888" />
      <path
         style="fill:none;stroke:#000000"
         d="M -760.536 952.111 L -817.627 816.124"
         id="path38890" />
      <path
         d="M -822.047244,794.178208 A 56.692913,56.692913 0.000000 0 0 -817.627363,816.123970"
         style="fill:none;stroke:#000000"
         id="path38892" />
      <path
         style="fill:none;stroke:#000000"
         d="M -228.661 794.178 L -228.661 720"
         id="path38894" />
      <path
         d="M 213.543307,720.000000 A 221.102362,221.102362 0.000000 0 0 -228.661417,720.000000"
         style="fill:none;stroke:#000000"
         id="path38896" />
      <path
         style="fill:none;stroke:#000000"
         d="M 213.543 720 L 213.543 794.178"
         id="path38898" />
      <path
         d="M 209.123426,816.123970 A 56.692913,56.692913 0.000000 0 0 213.543307,794.178208"
         style="fill:none;stroke:#000000"
         id="path38900" />
      <path
         style="fill:none;stroke:#000000"
         d="M 209.123 816.124 L 152.032 952.111"
         id="path38902" />
      <path
         d="M 135.993535,966.972347 A 26.456693,26.456693 0.000000 0 0 152.032011,952.111105"
         style="fill:none;stroke:#000000"
         id="path38904" />
      <path
         d="M -151.111645,966.972347 A 454.536388,454.536388 0.000000 0 0 135.993535,966.972347"
         style="fill:none;stroke:#000000"
         id="path38906" />
      <path
         d="M -167.150121,952.111105 A 26.456693,26.456693 0.000000 0 0 -151.111645,966.972347"
         style="fill:none;stroke:#000000"
         id="path38908" />
      <path
         style="fill:none;stroke:#000000"
         d="M -167.15 952.111 L -224.242 816.124"
         id="path38910" />
      <path
         d="M -228.661417,794.178208 A 56.692913,56.692913 0.000000 0 0 -224.241536,816.123970"
         style="fill:none;stroke:#000000"
         id="path38912" />
      <path
         style="fill:none;stroke:#000000"
         d="M 364.724 794.178 L 364.724 720"
         id="path38914" />
      <path
         d="M 806.929134,720.000000 A 221.102362,221.102362 0.000000 0 0 364.724409,720.000000"
         style="fill:none;stroke:#000000"
         id="path38916" />
      <path
         style="fill:none;stroke:#000000"
         d="M 806.929 720 L 806.929 794.178"
         id="path38918" />
      <path
         d="M 802.509253,816.123970 A 56.692913,56.692913 0.000000 0 0 806.929134,794.178208"
         style="fill:none;stroke:#000000"
         id="path38920" />
      <path
         style="fill:none;stroke:#000000"
         d="M 802.509 816.124 L 745.418 952.111"
         id="path38922" />
      <path
         d="M 729.379362,966.972347 A 26.456693,26.456693 0.000000 0 0 745.417838,952.111105"
         style="fill:none;stroke:#000000"
         id="path38924" />
      <path
         d="M 442.274182,966.972347 A 454.536388,454.536388 0.000000 0 0 729.379362,966.972347"
         style="fill:none;stroke:#000000"
         id="path38926" />
      <path
         d="M 426.235706,952.111105 A 26.456693,26.456693 0.000000 0 0 442.274182,966.972347"
         style="fill:none;stroke:#000000"
         id="path38928" />
      <path
         style="fill:none;stroke:#000000"
         d="M 426.236 952.111 L 369.144 816.124"
         id="path38930" />
      <path
         d="M 364.724409,794.178208 A 56.692913,56.692913 0.000000 0 0 369.144290,816.123970"
         style="fill:none;stroke:#000000"
         id="path38932" />
      <path
         style="fill:none;stroke:#000000"
         d="M 958.11 794.178 L 958.11 720"
         id="path38934" />
      <path
         d="M 1400.314961,720.000000 A 221.102362,221.102362 0.000000 0 0 958.110236,720.000000"
         style="fill:none;stroke:#000000"
         id="path38936" />
      <path
         style="fill:none;stroke:#000000"
         d="M 1400.31 720 L 1400.31 794.178"
         id="path38938" />
      <path
         d="M 1395.895080,816.123970 A 56.692913,56.692913 0.000000 0 0 1400.314961,794.178208"
         style="fill:none;stroke:#000000"
         id="path38940" />
      <path
         style="fill:none;stroke:#000000"
         d="M 1395.9 816.124 L 1338.8 952.111"
         id="path38942" />
      <path
         d="M 1322.765188,966.972347 A 26.456693,26.456693 0.000000 0 0 1338.803665,952.111105"
         style="fill:none;stroke:#000000"
         id="path38944" />
      <path
         d="M 1035.660008,966.972347 A 454.536388,454.536388 0.000000 0 0 1322.765188,966.972347"
         style="fill:none;stroke:#000000"
         id="path38946" />
      <path
         d="M 1019.621532,952.111105 A 26.456693,26.456693 0.000000 0 0 1035.660008,966.972347"
         style="fill:none;stroke:#000000"
         id="path38948" />
      <path
         style="fill:none;stroke:#000000"
         d="M 1019.62 952.111 L 962.53 816.124"
         id="path38950" />
      <path
         d="M 958.110236,794.178208 A 56.692913,56.692913 0.000000 0 0 962.530117,816.123970"
         style="fill:none;stroke:#000000"
         id="path38952" />
      <path
         style="fill:none;stroke:#000000"
         d="M 1551.5 794.178 L 1551.5 720"
         id="path38954" />
      <path
         d="M 1993.700787,720.000000 A 221.102362,221.102362 0.000000 0 0 1551.496063,720.000000"
         style="fill:none;stroke:#000000"
         id="path38956" />
      <path
         style="fill:none;stroke:#000000"
         d="M 1993.7 720 L 1993.7 794.178"
         id="path38958" />
      <path
         d="M 1989.280906,816.123970 A 56.692913,56.692913 0.000000 0 0 1993.700787,794.178208"
         style="fill:none;stroke:#000000"
         id="path38960" />
      <path
         style="fill:none;stroke:#000000"
         d="M 1989.28 816.124 L 1932.19 952.111"
         id="path38962" />
      <path
         d="M 1916.151015,966.972347 A 26.456693,26.456693 0.000000 0 0 1932.189491,952.111105"
         style="fill:none;stroke:#000000"
         id="path38964" />
      <path
         d="M 1629.045835,966.972347 A 454.536388,454.536388 0.000000 0 0 1916.151015,966.972347"
         style="fill:none;stroke:#000000"
         id="path38966" />
      <path
         d="M 1613.007359,952.111105 A 26.456693,26.456693 0.000000 0 0 1629.045835,966.972347"
         style="fill:none;stroke:#000000"
         id="path38968" />
      <path
         style="fill:none;stroke:#000000"
         d="M 1613.01 952.111 L 1555.92 816.124"
         id="path38970" />
      <path
         d="M 1551.496063,794.178208 A 56.692913,56.692913 0.000000 0 0 1555.915944,816.123970"
         style="fill:none;stroke:#000000"
         id="path38972" />
      <path
         style="fill:none;stroke:#000000"
         d="M 2233.7 1046.93 L 2190.18 742.288"
         id="path38974" />
      <path
         style="fill:none;stroke:#000000"
         d="M 2190.18 742.288 L 2136.73 688.837"
         id="path38976" />
      <path
         style="fill:none;stroke:#000000"
         d="M 2136.73 688.837 L 2118.02 557.883"
         id="path38978" />
      <path
         style="fill:none;stroke:#000000"
         d="M 2118.02 557.883 L 2158.11 517.795"
         id="path38980" />
      <path
         style="fill:none;stroke:#000000"
         d="M 2158.11 517.795 L 2158.11 366.614"
         id="path38982" />
      <path
         style="fill:none;stroke:#000000"
         d="M 2158.11 366.614 L -2173.23 366.614"
         id="path38984" />
      <path
         style="fill:none;stroke:#000000"
         d="M -2173.23 366.614 L -2173.23 517.795"
         id="path38986" />
      <path
         style="fill:none;stroke:#000000"
         d="M -2173.23 517.795 L -2133.14 557.883"
         id="path38988" />
      <path
         style="fill:none;stroke:#000000"
         d="M -2133.14 557.883 L -2151.85 688.837"
         id="path38990" />
      <path
         style="fill:none;stroke:#000000"
         d="M -2151.85 688.837 L -2205.3 742.288"
         id="path38992" />
      <path
         style="fill:none;stroke:#000000"
         d="M -2205.3 742.288 L -2248.82 1046.93"
         id="path38994" />
      <path
         style="fill:none;stroke:#000000"
         d="M -2248.82 1046.93 L -2248.82 1122.52"
         id="path38996" />
      <path
         style="fill:none;stroke:#000000"
         d="M -2248.82 1122.52 L 2233.7 1122.52"
         id="path38998" />
      <path
         style="fill:none;stroke:#000000"
         d="M 2233.7 1122.52 L 2233.7 1046.93"
         id="path39000" />
    </symbol>
  </defs>
  <g
     inkscape:groupmode="layer"
     inkscape:label="0"
     id="g39005" />
  <g
     inkscape:groupmode="layer"
     inkscape:label="Concrete"
     id="g39027">
    <path
       style="fill:none;stroke:#000000"
       d="M 18.8976 321.26 L 0 321.26"
       id="path39007" />
    <path
       style="fill:none;stroke:#000000"
       d="M 4535.43 321.26 L 4501.42 321.26"
       id="path39009" />
    <path
       id="path39011"
       style="fill:#c0c0c0;stroke:#000000;fill-opacity:1"
       d="M 94.488281 -434.64648 L 94.488281 -283.46484 L 134.57617 -243.37695 L 115.86914 -112.42188 L 62.417969 -58.972656 L 18.898438 245.66992 L 18.898438 321.25977 L 4501.418 321.25977 L 4501.418 245.66992 L 4457.8965 -58.972656 L 4404.4473 -112.42188 L 4385.7383 -243.37695 L 4425.8262 -283.46484 L 4425.8262 -434.64648 L 94.488281 -434.64648 z M 480 -302.36133 A 221.10236 221.10236 0 0 1 701.10156 -81.259766 L 701.10156 -7.0820312 A 56.692913 56.692913 0 0 1 696.68164 14.863281 L 639.5918 150.85156 A 26.456693 26.456693 0 0 1 623.55273 165.71289 A 454.53639 454.53639 0 0 1 336.44727 165.71289 A 26.456693 26.456693 0 0 1 320.4082 150.85156 L 263.31836 14.863281 A 56.692913 56.692913 0 0 1 258.89844 -7.0820312 L 258.89844 -81.259766 A 221.10236 221.10236 0 0 1 480 -302.36133 z M 1073.3867 -302.36133 A 221.10236 221.10236 0 0 1 1294.4883 -81.259766 L 1294.4883 -7.0820312 A 56.692913 56.692913 0 0 1 1290.0684 14.863281 L 1232.9766 150.85156 A 26.456693 26.456693 0 0 1 1216.9375 165.71289 A 454.53639 454.53639 0 0 1 929.83398 165.71289 A 26.456693 26.456693 0 0 1 913.79492 150.85156 L 856.70312 14.863281 A 56.692913 56.692913 0 0 1 852.2832 -7.0820312 L 852.2832 -81.259766 A 221.10236 221.10236 0 0 1 1073.3867 -302.36133 z M 1666.7715 -302.36133 A 221.10236 221.10236 0 0 1 1887.873 -81.259766 L 1887.873 -7.0820312 A 56.692913 56.692913 0 0 1 1883.4551 14.863281 L 1826.3633 150.85156 A 26.456693 26.456693 0 0 1 1810.3242 165.71289 A 454.53639 454.53639 0 0 1 1523.2188 165.71289 A 26.456693 26.456693 0 0 1 1507.1797 150.85156 L 1450.0898 14.863281 A 56.692913 56.692913 0 0 1 1445.6699 -7.0820312 L 1445.6699 -81.259766 A 221.10236 221.10236 0 0 1 1666.7715 -302.36133 z M 2260.1582 -302.36133 A 221.10236 221.10236 0 0 1 2481.2598 -81.259766 L 2481.2598 -7.0820312 A 56.692913 56.692913 0 0 1 2476.8398 14.863281 L 2419.748 150.85156 A 26.456693 26.456693 0 0 1 2403.7109 165.71289 A 454.53639 454.53639 0 0 1 2116.6055 165.71289 A 26.456693 26.456693 0 0 1 2100.5664 150.85156 L 2043.4746 14.863281 A 56.692913 56.692913 0 0 1 2039.0547 -7.0820312 L 2039.0547 -81.259766 A 221.10236 221.10236 0 0 1 2260.1582 -302.36133 z M 2853.543 -302.36133 A 221.10236 221.10236 0 0 1 3074.6465 -81.259766 L 3074.6465 -7.0820312 A 56.692913 56.692913 0 0 1 3070.2266 14.863281 L 3013.1348 150.85156 A 26.456693 26.456693 0 0 1 2997.0957 165.71289 A 454.53639 454.53639 0 0 1 2709.9902 165.71289 A 26.456693 26.456693 0 0 1 2693.9531 150.85156 L 2636.8613 14.863281 A 56.692913 56.692913 0 0 1 2632.4414 -7.0820312 L 2632.4414 -81.259766 A 221.10236 221.10236 0 0 1 2853.543 -302.36133 z M 3446.9297 -302.36133 A 221.10236 221.10236 0 0 1 3668.0312 -81.259766 L 3668.0312 -7.0820312 A 56.692913 56.692913 0 0 1 3663.6113 14.863281 L 3606.5195 150.85156 A 26.456693 26.456693 0 0 1 3590.4824 165.71289 A 454.53639 454.53639 0 0 1 3303.377 165.71289 A 26.456693 26.456693 0 0 1 3287.3379 150.85156 L 3230.2461 14.863281 A 56.692913 56.692913 0 0 1 3225.8262 -7.0820312 L 3225.8262 -81.259766 A 221.10236 221.10236 0 0 1 3446.9297 -302.36133 z M 4040.3145 -302.36133 A 221.10236 221.10236 0 0 1 4261.418 -81.259766 L 4261.418 -7.0820312 A 56.692913 56.692913 0 0 1 4256.998 14.863281 L 4199.9062 150.85156 A 26.456693 26.456693 0 0 1 4183.8672 165.71289 A 454.53639 454.53639 0 0 1 3896.7617 165.71289 A 26.456693 26.456693 0 0 1 3880.7246 150.85156 L 3823.6328 14.863281 A 56.692913 56.692913 0 0 1 3819.2129 -7.0820312 L 3819.2129 -81.259766 A 221.10236 221.10236 0 0 1 4040.3145 -302.36133 z " />
  </g>
  <g
     inkscape:groupmode="layer"
     inkscape:label="insulation"
     id="g39031">
    <path
       d="M 0.000000,321.259843 L 4535.433071,321.259843 L 4535.433071,1122.519685 L 0.000000,1122.519685 L 0.000000,321.259843 z"
       style="fill:#ffffff;stroke:#000000;fill-opacity:1"
       id="path39029" />
  </g>
</svg>
