<?xml version="1.0" encoding="UTF-8" standalone="no"?>
<svg
   viewBox="0 0 793.7007874015749 1122.5196850393702"
   width="793.7007874015749"
   height="1122.5196850393702"
   version="1.1"
   id="svg392"
   sodipodi:docname="A200.svg"
   inkscape:version="1.2.2 (732a01da63, 2022-12-09)"
   xmlns:inkscape="http://www.inkscape.org/namespaces/inkscape"
   xmlns:sodipodi="http://sodipodi.sourceforge.net/DTD/sodipodi-0.dtd"
   xmlns="http://www.w3.org/2000/svg"
   xmlns:svg="http://www.w3.org/2000/svg">
  <sodipodi:namedview
     id="namedview394"
     pagecolor="#ffffff"
     bordercolor="#000000"
     borderopacity="0.25"
     inkscape:showpageshadow="2"
     inkscape:pageopacity="0.0"
     inkscape:pagecheckerboard="0"
     inkscape:deskcolor="#d1d1d1"
     showgrid="false"
     inkscape:zoom="0.36976785"
     inkscape:cx="2167.5762"
     inkscape:cy="528.71011"
     inkscape:window-width="2272"
     inkscape:window-height="1368"
     inkscape:window-x="1159"
     inkscape:window-y="0"
     inkscape:window-maximized="0"
     inkscape:current-layer="g390" />
  <desc
     id="desc317">A200.dxf - scale = 1.000000, origin = (0.000000, 0.000000), method = manual</desc>
  <defs
     id="defs370">
    <marker
       id="DistanceX"
       orient="auto"
       refX="0.0"
       refY="0.0"
       style="overflow:visible">
      <path
         d="M 3,-3 L -3,3 M 0,-5 L  0,5"
         style="stroke:#000000; stroke-width:0.5"
         id="path319" />
    </marker>
    <pattern
       id="Hatch"
       patternUnits="userSpaceOnUse"
       width="8"
       height="8"
       x="0"
       y="0">
      <path
         d="M8 4 l-4,4"
         stroke="#000000"
         stroke-width="0.25"
         linecap="square"
         id="path322" />
      <path
         d="M6 2 l-4,4"
         stroke="#000000"
         stroke-width="0.25"
         linecap="square"
         id="path324" />
      <path
         d="M4 0 l-4,4"
         stroke="#000000"
         stroke-width="0.25"
         linecap="square"
         id="path326" />
    </pattern>
    <symbol
       id="*Model_Space" />
    <symbol
       id="*Paper_Space" />
    <symbol
       id="$MODEL_SPACE" />
    <symbol
       id="$PAPER_SPACE" />
    <symbol
       id="DIMDOT">
      <path
         style="fill:none;stroke:#000000"
         d="M -7.55905 1122.52 L 7.55905 1122.52"
         id="path333" />
      <path
         style="fill:none;stroke:#000000"
         d="M 0 1135.75 L 0 1109.29"
         id="path335" />
      <path
         d="M 1.889764,1122.519685 A 1.889764,1.889764 0.000000 0, 0 -1.889764,1122.519685 A 1.889764,1.889764 0.000000 0, 0 1.889764,1122.519685 z"
         style="fill:none;stroke:#000000"
         id="path337" />
      <path
         d="M 0.944882,1122.519685 A 0.944882,0.944882 0.000000 0, 0 -0.944882,1122.519685 A 0.944882,0.944882 0.000000 0, 0 0.944882,1122.519685 z"
         style="fill:none;stroke:#000000"
         id="path339" />
    </symbol>
    <symbol
       id="VBI_A200_DDRSN_NP">
      <path
         d="M -221.102362,720.000000 L -221.102362,794.178208 A 56.692913,56.692913 0.0 0 0 -216.682481,816.123970 L -159.591066,952.111105 A 26.456693,26.456693 0.0 0 0 -143.552590,966.972347 A 454.536388,454.536388 0.0 0 0 143.552590,966.972347 A 26.456693,26.456693 0.0 0 0 159.591066,952.111105 L 216.682481,816.123970 A 56.692913,56.692913 0.0 0 0 221.102362,794.178208 L 221.102362,720.000000 A 221.102362,221.102362 0.0 0 0 -221.102362,720.000000 z"
         style="fill:none;stroke:#000000"
         id="path342" />
      <path
         d="M 2222.362205,1122.519685 L 2260.157480,1084.724409 L 2260.157480,1046.929134 L 2241.259843,1046.929134 L 2197.739646,742.287759 L 2144.289055,688.837168 L 2125.581348,557.883219 L 2165.669291,517.795276 L 2165.669291,366.614173 L -2165.669291,366.614173 L -2165.669291,517.795276 L -2125.581348,557.883219 L -2144.289055,688.837168 L -2197.739646,742.287759 L -2241.259843,1046.929134 L -2260.157480,1046.929134 L -2260.157480,1084.724409 L -2222.362205,1122.519685 L 2222.362205,1122.519685 z"
         style="fill:none;stroke:#000000"
         id="path344" />
      <path
         d="M -1407.874016,720.000000 L -1407.874016,794.178208 A 56.692913,56.692913 0.0 0 0 -1403.454135,816.123970 L -1346.362720,952.111105 A 26.456693,26.456693 0.0 0 0 -1330.324243,966.972347 A 454.536388,454.536388 0.0 0 0 -1043.219064,966.972347 A 26.456693,26.456693 0.0 0 0 -1027.180587,952.111105 L -970.089172,816.123970 A 56.692913,56.692913 0.0 0 0 -965.669291,794.178208 L -965.669291,720.000000 A 221.102362,221.102362 0.0 0 0 -1407.874016,720.000000 z"
         style="fill:none;stroke:#000000"
         id="path346" />
      <path
         d="M -2001.259843,720.000000 L -2001.259843,794.178208 A 56.692913,56.692913 0.0 0 0 -1996.839962,816.123970 L -1939.748546,952.111105 A 26.456693,26.456693 0.0 0 0 -1923.710070,966.972347 A 454.536388,454.536388 0.0 0 0 -1636.604890,966.972347 A 26.456693,26.456693 0.0 0 0 -1620.566414,952.111105 L -1563.474999,816.123970 A 56.692913,56.692913 0.0 0 0 -1559.055118,794.178208 L -1559.055118,720.000000 A 221.102362,221.102362 0.0 0 0 -2001.259843,720.000000 z"
         style="fill:none;stroke:#000000"
         id="path348" />
      <path
         d="M -814.488189,720.000000 L -814.488189,794.178208 A 56.692913,56.692913 0.0 0 0 -810.068308,816.123970 L -752.976893,952.111105 A 26.456693,26.456693 0.0 0 0 -736.938417,966.972347 A 454.536388,454.536388 0.0 0 0 -449.833237,966.972347 A 26.456693,26.456693 0.0 0 0 -433.794761,952.111105 L -376.703345,816.123970 A 56.692913,56.692913 0.0 0 0 -372.283465,794.178208 L -372.283465,720.000000 A 221.102362,221.102362 0.0 0 0 -814.488189,720.000000 z"
         style="fill:none;stroke:#000000"
         id="path350" />
      <path
         d="M 1559.055118,720.000000 L 1559.055118,794.178208 A 56.692913,56.692913 0.0 0 0 1563.474999,816.123970 L 1620.566414,952.111105 A 26.456693,26.456693 0.0 0 0 1636.604890,966.972347 A 454.536388,454.536388 0.0 0 0 1923.710070,966.972347 A 26.456693,26.456693 0.0 0 0 1939.748546,952.111105 L 1996.839962,816.123970 A 56.692913,56.692913 0.0 0 0 2001.259843,794.178208 L 2001.259843,720.000000 A 221.102362,221.102362 0.0 0 0 1559.055118,720.000000 z"
         style="fill:none;stroke:#000000"
         id="path352" />
      <path
         d="M 372.283465,720.000000 L 372.283465,794.178208 A 56.692913,56.692913 0.0 0 0 376.703345,816.123970 L 433.794761,952.111105 A 26.456693,26.456693 0.0 0 0 449.833237,966.972347 A 454.536388,454.536388 0.0 0 0 736.938417,966.972347 A 26.456693,26.456693 0.0 0 0 752.976893,952.111105 L 810.068308,816.123970 A 56.692913,56.692913 0.0 0 0 814.488189,794.178208 L 814.488189,720.000000 A 221.102362,221.102362 0.0 0 0 372.283465,720.000000 z"
         style="fill:none;stroke:#000000"
         id="path354" />
      <path
         d="M 965.669291,720.000000 L 965.669291,794.178208 A 56.692913,56.692913 0.0 0 0 970.089172,816.123970 L 1027.180587,952.111105 A 26.456693,26.456693 0.0 0 0 1043.219064,966.972347 A 454.536388,454.536388 0.0 0 0 1330.324243,966.972347 A 26.456693,26.456693 0.0 0 0 1346.362720,952.111105 L 1403.454135,816.123970 A 56.692913,56.692913 0.0 0 0 1407.874016,794.178208 L 1407.874016,720.000000 A 221.102362,221.102362 0.0 0 0 965.669291,720.000000 z"
         style="fill:none;stroke:#000000"
         id="path356" />
      <path
         d="M 2294.173228,1046.929134 L 2337.693425,742.287759 L 2391.144016,688.837168 L 2409.851723,557.883219 L 2369.763780,517.795276 L 2369.763780,366.614173 L 2165.669291,366.614173 L 2165.669291,517.795276 L 2125.581348,557.883219 L 2144.289055,688.837168 L 2197.739646,742.287759 L 2241.259843,1046.929134 L 2241.259843,1046.929134 L 2294.173228,1046.929134 L 2294.173228,1046.929134 z"
         style="fill:none;stroke:#FF0000"
         id="path358" />
    </symbol>
    <symbol
       id="VBI_A200_DDRSN_PP">
      <path
         d="M 0.000000,1122.519685 L -2229.921260,1122.519685 L -2267.716535,1084.724409 L -2267.716535,1046.929134 L -2248.818898,1046.929134 L -2205.298701,742.287759 L -2151.848110,688.837168 L -2133.140403,557.883219 L -2173.228346,517.795276 L -2173.228346,366.614173 L 0.000000,366.614173 L -0.000000,498.897638 A 221.102362,221.102362 0.0 0 0 -221.102362,720.000000 L -221.102362,794.178208 A 56.692913,56.692913 0.0 0 0 -216.682481,816.123970 L -159.591066,952.111105 A 26.456693,26.456693 0.0 0 0 -143.552590,966.972347 A 454.536388,454.536388 0.0 0 0 0.000000,990.236220 L 0.000000,1122.519685 z"
         style="fill:none;stroke:#000000"
         id="path361" />
      <path
         d="M -1407.874016,720.000000 L -1407.874016,794.178208 A 56.692913,56.692913 0.0 0 0 -1403.454135,816.123970 L -1346.362720,952.111105 A 26.456693,26.456693 0.0 0 0 -1330.324243,966.972347 A 454.536388,454.536388 0.0 0 0 -1043.219064,966.972347 A 26.456693,26.456693 0.0 0 0 -1027.180587,952.111105 L -970.089172,816.123970 A 56.692913,56.692913 0.0 0 0 -965.669291,794.178208 L -965.669291,720.000000 A 221.102362,221.102362 0.0 0 0 -1407.874016,720.000000 z"
         style="fill:none;stroke:#000000"
         id="path363" />
      <path
         d="M -2001.259843,720.000000 L -2001.259843,794.178208 A 56.692913,56.692913 0.0 0 0 -1996.839962,816.123970 L -1939.748546,952.111105 A 26.456693,26.456693 0.0 0 0 -1923.710070,966.972347 A 454.536388,454.536388 0.0 0 0 -1636.604890,966.972347 A 26.456693,26.456693 0.0 0 0 -1620.566414,952.111105 L -1563.474999,816.123970 A 56.692913,56.692913 0.0 0 0 -1559.055118,794.178208 L -1559.055118,720.000000 A 221.102362,221.102362 0.0 0 0 -2001.259843,720.000000 z"
         style="fill:none;stroke:#000000"
         id="path365" />
      <path
         d="M -814.488189,720.000000 L -814.488189,794.178208 A 56.692913,56.692913 0.0 0 0 -810.068308,816.123970 L -752.976893,952.111105 A 26.456693,26.456693 0.0 0 0 -736.938417,966.972347 A 454.536388,454.536388 0.0 0 0 -449.833237,966.972347 A 26.456693,26.456693 0.0 0 0 -433.794761,952.111105 L -376.703345,816.123970 A 56.692913,56.692913 0.0 0 0 -372.283465,794.178208 L -372.283465,720.000000 A 221.102362,221.102362 0.0 0 0 -814.488189,720.000000 z"
         style="fill:none;stroke:#000000"
         id="path367" />
    </symbol>
  </defs>
  <g
     inkscape:groupmode="layer"
     inkscape:label="0"
     id="g372" />
  <g
     inkscape:groupmode="layer"
     inkscape:label="concrete"
     id="g390">
    <path
       id="path376"
       style="fill:#c0c0c0;stroke:#000000;fill-opacity:1"
       d="M 94.488281 366.61328 L 94.488281 517.79492 L 134.57617 557.88281 L 115.86914 688.83789 L 62.417969 742.28711 L 18.898438 1046.9297 L 0 1046.9297 L 0 1084.7246 L 37.794922 1122.5195 L 4482.5195 1122.5195 L 4520.3145 1084.7246 L 4520.3145 1046.9297 L 4501.418 1046.9297 L 4457.8965 742.28711 L 4404.4473 688.83789 L 4385.7383 557.88281 L 4425.8262 517.79492 L 4425.8262 366.61328 L 94.488281 366.61328 z M 480 498.89844 A 221.10236 221.10236 0 0 1 701.10156 720 L 701.10156 794.17773 A 56.692913 56.692913 0 0 1 696.68164 816.12305 L 639.5918 952.11133 A 26.456693 26.456693 0 0 1 623.55273 966.97266 A 454.53639 454.53639 0 0 1 336.44727 966.97266 A 26.456693 26.456693 0 0 1 320.4082 952.11133 L 263.31836 816.12305 A 56.692913 56.692913 0 0 1 258.89844 794.17773 L 258.89844 720 A 221.10236 221.10236 0 0 1 480 498.89844 z M 1073.3867 498.89844 A 221.10236 221.10236 0 0 1 1294.4883 720 L 1294.4883 794.17773 A 56.692913 56.692913 0 0 1 1290.0684 816.12305 L 1232.9766 952.11133 A 26.456693 26.456693 0 0 1 1216.9375 966.97266 A 454.53639 454.53639 0 0 1 929.83398 966.97266 A 26.456693 26.456693 0 0 1 913.79492 952.11133 L 856.70312 816.12305 A 56.692913 56.692913 0 0 1 852.2832 794.17773 L 852.2832 720 A 221.10236 221.10236 0 0 1 1073.3867 498.89844 z M 1666.7715 498.89844 A 221.10236 221.10236 0 0 1 1887.873 720 L 1887.873 794.17773 A 56.692913 56.692913 0 0 1 1883.4551 816.12305 L 1826.3633 952.11133 A 26.456693 26.456693 0 0 1 1810.3242 966.97266 A 454.53639 454.53639 0 0 1 1523.2188 966.97266 A 26.456693 26.456693 0 0 1 1507.1797 952.11133 L 1450.0898 816.12305 A 56.692913 56.692913 0 0 1 1445.6699 794.17773 L 1445.6699 720 A 221.10236 221.10236 0 0 1 1666.7715 498.89844 z M 2260.1582 498.89844 A 221.10236 221.10236 0 0 1 2481.2598 720 L 2481.2598 794.17773 A 56.692913 56.692913 0 0 1 2476.8398 816.12305 L 2419.748 952.11133 A 26.456693 26.456693 0 0 1 2403.7109 966.97266 A 454.53639 454.53639 0 0 1 2116.6055 966.97266 A 26.456693 26.456693 0 0 1 2100.5664 952.11133 L 2043.4746 816.12305 A 56.692913 56.692913 0 0 1 2039.0547 794.17773 L 2039.0547 720 A 221.10236 221.10236 0 0 1 2260.1582 498.89844 z M 2853.543 498.89844 A 221.10236 221.10236 0 0 1 3074.6465 720 L 3074.6465 794.17773 A 56.692913 56.692913 0 0 1 3070.2266 816.12305 L 3013.1348 952.11133 A 26.456693 26.456693 0 0 1 2997.0957 966.97266 A 454.53639 454.53639 0 0 1 2709.9902 966.97266 A 26.456693 26.456693 0 0 1 2693.9531 952.11133 L 2636.8613 816.12305 A 56.692913 56.692913 0 0 1 2632.4414 794.17773 L 2632.4414 720 A 221.10236 221.10236 0 0 1 2853.543 498.89844 z M 3446.9297 498.89844 A 221.10236 221.10236 0 0 1 3668.0312 720 L 3668.0312 794.17773 A 56.692913 56.692913 0 0 1 3663.6113 816.12305 L 3606.5195 952.11133 A 26.456693 26.456693 0 0 1 3590.4824 966.97266 A 454.53639 454.53639 0 0 1 3303.377 966.97266 A 26.456693 26.456693 0 0 1 3287.3379 952.11133 L 3230.2461 816.12305 A 56.692913 56.692913 0 0 1 3225.8262 794.17773 L 3225.8262 720 A 221.10236 221.10236 0 0 1 3446.9297 498.89844 z M 4040.3145 498.89844 A 221.10236 221.10236 0 0 1 4261.418 720 L 4261.418 794.17773 A 56.692913 56.692913 0 0 1 4256.998 816.12305 L 4199.9062 952.11133 A 26.456693 26.456693 0 0 1 4183.8672 966.97266 A 454.53639 454.53639 0 0 1 3896.7617 966.97266 A 26.456693 26.456693 0 0 1 3880.7246 952.11133 L 3823.6328 816.12305 A 56.692913 56.692913 0 0 1 3819.2129 794.17773 L 3819.2129 720 A 221.10236 221.10236 0 0 1 4040.3145 498.89844 z " />
  </g>
</svg>
