<?xml version="1.0" encoding="UTF-8" standalone="no"?>
<svg
   viewBox="0 0 793.7007874015749 1122.5196850393702"
   width="793.7007874015749"
   height="1122.5196850393702"
   version="1.1"
   id="svg1611"
   sodipodi:docname="Kanaalplaatvloer 320.svg"
   inkscape:version="1.2.2 (732a01da63, 2022-12-09)"
   xmlns:inkscape="http://www.inkscape.org/namespaces/inkscape"
   xmlns:sodipodi="http://sodipodi.sourceforge.net/DTD/sodipodi-0.dtd"
   xmlns:xlink="http://www.w3.org/1999/xlink"
   xmlns="http://www.w3.org/2000/svg"
   xmlns:svg="http://www.w3.org/2000/svg">
  <sodipodi:namedview
     id="namedview1613"
     pagecolor="#ffffff"
     bordercolor="#000000"
     borderopacity="0.25"
     inkscape:showpageshadow="2"
     inkscape:pageopacity="0.0"
     inkscape:pagecheckerboard="0"
     inkscape:deskcolor="#d1d1d1"
     showgrid="false"
     inkscape:zoom="0.26146536"
     inkscape:cx="2981.2745"
     inkscape:cy="-8693.3123"
     inkscape:window-width="3440"
     inkscape:window-height="1377"
     inkscape:window-x="-8"
     inkscape:window-y="-8"
     inkscape:window-maximized="1"
     inkscape:current-layer="g1609" />
  <desc
     id="desc1049">Kanaalplaatvloer 320.dxf - scale = 1.000000, origin = (0.000000, 0.000000), method = manual</desc>
  <defs
     id="defs1589">
    <marker
       id="DistanceX"
       orient="auto"
       refX="0.0"
       refY="0.0"
       style="overflow:visible">
      <path
         d="M 3,-3 L -3,3 M 0,-5 L  0,5"
         style="stroke:#000000; stroke-width:0.5"
         id="path1051" />
    </marker>
    <pattern
       id="Hatch"
       patternUnits="userSpaceOnUse"
       width="8"
       height="8"
       x="0"
       y="0">
      <path
         d="M8 4 l-4,4"
         stroke="#000000"
         stroke-width="0.25"
         linecap="square"
         id="path1054" />
      <path
         d="M6 2 l-4,4"
         stroke="#000000"
         stroke-width="0.25"
         linecap="square"
         id="path1056" />
      <path
         d="M4 0 l-4,4"
         stroke="#000000"
         stroke-width="0.25"
         linecap="square"
         id="path1058" />
    </pattern>
    <symbol
       id="*Model_Space" />
    <symbol
       id="*Paper_Space" />
    <symbol
       id="$MODEL_SPACE" />
    <symbol
       id="$PAPER_SPACE" />
    <symbol
       id="DIMDOT">
      <path
         style="fill:none;stroke:#000000"
         d="M -7.55905 1122.52 L 7.55905 1122.52"
         id="path1065" />
      <path
         style="fill:none;stroke:#000000"
         d="M 0 1135.75 L 0 1109.29"
         id="path1067" />
      <path
         d="M 1.889764,1122.519685 A 1.889764,1.889764 0.000000 0, 0 -1.889764,1122.519685 A 1.889764,1.889764 0.000000 0, 0 1.889764,1122.519685 z"
         style="fill:none;stroke:#000000"
         id="path1069" />
      <path
         d="M 0.944882,1122.519685 A 0.944882,0.944882 0.000000 0, 0 -0.944882,1122.519685 A 0.944882,0.944882 0.000000 0, 0 0.944882,1122.519685 z"
         style="fill:none;stroke:#000000"
         id="path1071" />
    </symbol>
    <symbol
       id="VBI_AVU32_DDRSN_PP">
      <path
         d="M 0.000009,64.251973 L 0.000000,-86.929134 L -2165.669291,-86.929134 L -2165.669291,64.251969 L -2124.000130,113.013753 L -2146.460104,399.378415 L -2195.221888,441.047576 L -2241.259843,1046.929134 L -2260.157480,1046.929134 L -2260.157480,1084.724409 L -2222.362205,1122.519685 L 0.000000,1122.519685 L 0.000000,960.000000 L -60.825740,960.000000 A 75.590551,75.590551 0.0 0 1 -70.183546,959.418534 A 566.929134,566.929134 0.0 0 1 -89.333350,956.696976 A 188.976378,188.976378 0.0 0 1 -229.201025,853.343023 L -255.708029,799.335002 A 566.929134,566.929134 0.0 0 1 -313.700787,549.550278 L -313.700787,263.338655 A 188.976378,188.976378 0.0 0 1 -166.299213,78.992223 A 755.905512,755.905512 0.0 0 1 -79.568870,64.671926 A 75.590551,75.590551 0.0 0 1 -71.611984,64.251977 L -0.000081,64.251973"
         style="fill:none;stroke:#000000"
         id="path1074" />
      <path
         d="M -1504.251888,78.992223 A 188.976378,188.976378 0.0 0 1 -1356.850313,263.338655 L -1356.850313,549.550278 A 566.929134,566.929134 0.0 0 1 -1414.843071,799.335002 L -1441.350075,853.343023 A 188.976378,188.976378 0.0 0 1 -1581.217751,956.696976 A 566.929134,566.929134 0.0 0 1 -1600.367555,959.418534 A 75.590551,75.590551 0.0 0 1 -1609.725361,960.000000 L -1731.376921,960.000000 A 75.590551,75.590551 0.0 0 1 -1740.734727,959.418534 A 566.929134,566.929134 0.0 0 1 -1759.884531,956.696976 A 188.976378,188.976378 0.0 0 1 -1899.752206,853.343023 L -1918.693775,814.749577 A 548.031496,548.031496 0.0 0 1 -1973.285699,533.208798 L -1952.025849,243.308055 A 188.976378,188.976378 0.0 0 1 -1794.557059,70.713360 A 755.905512,755.905512 0.0 0 1 -1750.119877,64.671916 A 75.590549,75.590549 0.0 0 1 -1742.163004,64.251969 L -1670.551100,64.251973 L -1598.939278,64.251969 A 75.590551,75.590551 0.0 0 1 -1590.982404,64.671916 A 755.905512,755.905512 0.0 0 1 -1504.251888,78.992223 z"
         style="fill:none;stroke:#000000"
         id="path1076" />
      <path
         d="M -924.608940,956.696976 A 188.976378,188.976378 0.0 0 1 -1064.476616,853.343023 L -1090.983620,799.335002 A 566.929134,566.929134 0.0 0 1 -1148.976378,549.550278 L -1148.976378,263.338655 A 188.976378,188.976378 0.0 0 1 -1001.574803,78.992223 A 755.905512,755.905512 0.0 0 1 -914.844287,64.671916 A 75.590551,75.590551 0.0 0 1 -906.887413,64.251969 L -763.663606,64.251977 A 75.590551,75.590551 0.0 0 1 -755.706720,64.671926 A 755.905512,755.905512 0.0 0 1 -668.976378,78.992223 A 188.976378,188.976378 0.0 0 1 -521.574803,263.338655 L -521.574803,549.550278 A 566.929134,566.929134 0.0 0 1 -579.567561,799.335002 L -606.074566,853.343023 A 188.976378,188.976378 0.0 0 1 -745.942241,956.696976 A 566.929134,566.929134 0.0 0 1 -765.092045,959.418534 A 75.590551,75.590551 0.0 0 1 -774.449851,960.000000 L -896.101330,960.000000 A 75.590551,75.590551 0.0 0 1 -905.459136,959.418534 A 566.929134,566.929134 0.0 0 1 -924.608940,956.696976 z"
         style="fill:none;stroke:#000000"
         id="path1078" />
    </symbol>
    <symbol
       id="VBI_AVU32_DDRSN_NP">
      <use
         xlink:href="#%2AU5"
         style="stroke-width:0.500px"
         id="use1081" />
      <path
         d="M 2195.221888,441.047576 L 2241.259843,1046.929134 L 2260.157480,1046.929134 L 2275.275591,1046.929134 L 2294.173228,1046.929134 L 2340.211183,441.047576 L 2388.972967,399.378415 L 2411.432941,113.013753 L 2369.763780,64.251969 L 2369.763780,-86.929134 L 2165.669291,-86.929134 L 2165.669291,-86.929134 L 2165.669291,64.251969 L 2124.000130,113.013753 L 2146.460104,399.378415 L 2195.221888,441.047576 z"
         style="fill:none;stroke:#FF0000"
         id="path1083" />
    </symbol>
    <symbol
       id="*U5">
      <path
         d="M -79.568870,64.671926 A 755.905512,755.905512 0.000000 0 0 -166.299213,78.992223"
         style="fill:none;stroke:#000000"
         id="path1086" />
      <path
         d="M -71.611984,64.251977 A 75.590551,75.590551 0.000000 0 0 -79.568870,64.671926"
         style="fill:none;stroke:#000000"
         id="path1088" />
      <path
         style="fill:none;stroke:#000000"
         d="M -71.612 64.252 L 71.6118 64.252"
         id="path1090" />
      <path
         d="M 79.568697,64.671916 A 75.590551,75.590551 0.000000 0 0 71.611823,64.251969"
         style="fill:none;stroke:#000000"
         id="path1092" />
      <path
         d="M 166.299213,78.992223 A 755.905512,755.905512 0.000000 0 0 79.568697,64.671916"
         style="fill:none;stroke:#000000"
         id="path1094" />
      <path
         d="M 313.700787,263.338655 A 188.976378,188.976378 0.000000 0 0 166.299213,78.992223"
         style="fill:none;stroke:#000000"
         id="path1096" />
      <path
         style="fill:none;stroke:#000000"
         d="M 313.701 263.339 L 313.701 549.55"
         id="path1098" />
      <path
         d="M 255.708029,799.335002 A 566.929134,566.929134 0.000000 0 0 313.700787,549.550278"
         style="fill:none;stroke:#000000"
         id="path1100" />
      <path
         style="fill:none;stroke:#000000"
         d="M 255.708 799.335 L 229.201 853.343"
         id="path1102" />
      <path
         d="M 89.333350,956.696976 A 188.976378,188.976378 0.000000 0 0 229.201025,853.343023"
         style="fill:none;stroke:#000000"
         id="path1104" />
      <path
         d="M 70.183546,959.418534 A 566.929134,566.929134 0.000000 0 0 89.333350,956.696976"
         style="fill:none;stroke:#000000"
         id="path1106" />
      <path
         d="M 60.825740,960.000000 A 75.590551,75.590551 0.000000 0 0 70.183546,959.418534"
         style="fill:none;stroke:#000000"
         id="path1108" />
      <path
         style="fill:none;stroke:#000000"
         d="M 60.8257 960 L -60.8257 960"
         id="path1110" />
      <path
         d="M -70.183546,959.418534 A 75.590551,75.590551 0.000000 0 0 -60.825740,960.000000"
         style="fill:none;stroke:#000000"
         id="path1112" />
      <path
         d="M -89.333350,956.696976 A 566.929134,566.929134 0.000000 0 0 -70.183546,959.418534"
         style="fill:none;stroke:#000000"
         id="path1114" />
      <path
         d="M -229.201025,853.343023 A 188.976378,188.976378 0.000000 0 0 -89.333350,956.696976"
         style="fill:none;stroke:#000000"
         id="path1116" />
      <path
         style="fill:none;stroke:#000000"
         d="M -229.201 853.343 L -255.708 799.335"
         id="path1118" />
      <path
         d="M -313.700787,549.550278 A 566.929134,566.929134 0.000000 0 0 -255.708029,799.335002"
         style="fill:none;stroke:#000000"
         id="path1120" />
      <path
         style="fill:none;stroke:#000000"
         d="M -313.701 549.55 L -313.701 263.339"
         id="path1122" />
      <path
         d="M -166.299213,78.992223 A 188.976378,188.976378 0.000000 0 0 -313.700787,263.338655"
         style="fill:none;stroke:#000000"
         id="path1124" />
      <path
         style="fill:none;stroke:#000000"
         d="M -1973.29 533.209 L -1952.03 243.308"
         id="path1126" />
      <path
         d="M -1794.557059,70.713360 A 188.976378,188.976378 0.000000 0 0 -1952.025849,243.308055"
         style="fill:none;stroke:#000000"
         id="path1128" />
      <path
         d="M -1750.119877,64.671916 A 755.905512,755.905512 0.000000 0 0 -1794.557059,70.713360"
         style="fill:none;stroke:#000000"
         id="path1130" />
      <path
         d="M -1742.163004,64.251969 A 75.590549,75.590549 0.000000 0 0 -1750.119877,64.671916"
         style="fill:none;stroke:#000000"
         id="path1132" />
      <path
         style="fill:none;stroke:#000000"
         d="M -1742.16 64.252 L -1670.55 64.252"
         id="path1134" />
      <path
         style="fill:none;stroke:#000000"
         d="M -1670.55 64.252 L -1598.94 64.252"
         id="path1136" />
      <path
         d="M -1590.982404,64.671916 A 75.590551,75.590551 0.000000 0 0 -1598.939278,64.251969"
         style="fill:none;stroke:#000000"
         id="path1138" />
      <path
         d="M -1504.251888,78.992223 A 755.905512,755.905512 0.000000 0 0 -1590.982404,64.671916"
         style="fill:none;stroke:#000000"
         id="path1140" />
      <path
         d="M -1356.850313,263.338655 A 188.976378,188.976378 0.000000 0 0 -1504.251888,78.992223"
         style="fill:none;stroke:#000000"
         id="path1142" />
      <path
         style="fill:none;stroke:#000000"
         d="M -1356.85 263.339 L -1356.85 549.55"
         id="path1144" />
      <path
         d="M -1414.843071,799.335002 A 566.929134,566.929134 0.000000 0 0 -1356.850313,549.550278"
         style="fill:none;stroke:#000000"
         id="path1146" />
      <path
         style="fill:none;stroke:#000000"
         d="M -1414.84 799.335 L -1441.35 853.343"
         id="path1148" />
      <path
         d="M -1581.217751,956.696976 A 188.976378,188.976378 0.000000 0 0 -1441.350075,853.343023"
         style="fill:none;stroke:#000000"
         id="path1150" />
      <path
         d="M -1600.367555,959.418534 A 566.929134,566.929134 0.000000 0 0 -1581.217751,956.696976"
         style="fill:none;stroke:#000000"
         id="path1152" />
      <path
         d="M -1609.725361,960.000000 A 75.590551,75.590551 0.000000 0 0 -1600.367555,959.418534"
         style="fill:none;stroke:#000000"
         id="path1154" />
      <path
         style="fill:none;stroke:#000000"
         d="M -1609.73 960 L -1731.38 960"
         id="path1156" />
      <path
         d="M -1740.734727,959.418534 A 75.590551,75.590551 0.000000 0 0 -1731.376921,960.000000"
         style="fill:none;stroke:#000000"
         id="path1158" />
      <path
         d="M -1759.884531,956.696976 A 566.929134,566.929134 0.000000 0 0 -1740.734727,959.418534"
         style="fill:none;stroke:#000000"
         id="path1160" />
      <path
         d="M -1899.752206,853.343023 A 188.976378,188.976378 0.000000 0 0 -1759.884531,956.696976"
         style="fill:none;stroke:#000000"
         id="path1162" />
      <path
         style="fill:none;stroke:#000000"
         d="M -1899.75 853.343 L -1918.69 814.75"
         id="path1164" />
      <path
         d="M -1973.285699,533.208798 A 548.031496,548.031496 0.000000 0 0 -1918.693775,814.749577"
         style="fill:none;stroke:#000000"
         id="path1166" />
      <path
         style="fill:none;stroke:#000000"
         d="M 1952.03 243.308 L 1973.29 533.209"
         id="path1168" />
      <path
         d="M 1918.693613,814.749577 A 548.031496,548.031496 0.000000 0 0 1973.285537,533.208798"
         style="fill:none;stroke:#000000"
         id="path1170" />
      <path
         style="fill:none;stroke:#000000"
         d="M 1918.69 814.75 L 1899.75 853.343"
         id="path1172" />
      <path
         d="M 1759.884369,956.696976 A 188.976378,188.976378 0.000000 0 0 1899.752044,853.343023"
         style="fill:none;stroke:#000000"
         id="path1174" />
      <path
         d="M 1740.734565,959.418534 A 566.929134,566.929134 0.000000 0 0 1759.884369,956.696976"
         style="fill:none;stroke:#000000"
         id="path1176" />
      <path
         d="M 1731.376759,960.000000 A 75.590551,75.590551 0.000000 0 0 1740.734565,959.418534"
         style="fill:none;stroke:#000000"
         id="path1178" />
      <path
         style="fill:none;stroke:#000000"
         d="M 1731.38 960 L 1609.73 960"
         id="path1180" />
      <path
         d="M 1600.367393,959.418534 A 75.590551,75.590551 0.000000 0 0 1609.725199,960.000000"
         style="fill:none;stroke:#000000"
         id="path1182" />
      <path
         d="M 1581.217589,956.696976 A 566.929134,566.929134 0.000000 0 0 1600.367393,959.418534"
         style="fill:none;stroke:#000000"
         id="path1184" />
      <path
         d="M 1441.349914,853.343023 A 188.976378,188.976378 0.000000 0 0 1581.217589,956.696976"
         style="fill:none;stroke:#000000"
         id="path1186" />
      <path
         style="fill:none;stroke:#000000"
         d="M 1441.35 853.343 L 1414.84 799.335"
         id="path1188" />
      <path
         d="M 1356.850151,549.550278 A 566.929134,566.929134 0.000000 0 0 1414.842910,799.335002"
         style="fill:none;stroke:#000000"
         id="path1190" />
      <path
         style="fill:none;stroke:#000000"
         d="M 1356.85 549.55 L 1356.85 263.339"
         id="path1192" />
      <path
         d="M 1504.251726,78.992223 A 188.976378,188.976378 0.000000 0 0 1356.850151,263.338655"
         style="fill:none;stroke:#000000"
         id="path1194" />
      <path
         d="M 1590.982242,64.671916 A 755.905512,755.905512 0.000000 0 0 1504.251726,78.992223"
         style="fill:none;stroke:#000000"
         id="path1196" />
      <path
         d="M 1598.939116,64.251969 A 75.590551,75.590551 0.000000 0 0 1590.982242,64.671916"
         style="fill:none;stroke:#000000"
         id="path1198" />
      <path
         style="fill:none;stroke:#000000"
         d="M 1598.94 64.252 L 1742.16 64.252"
         id="path1200" />
      <path
         d="M 1750.119716,64.671916 A 75.590549,75.590549 0.000000 0 0 1742.162842,64.251969"
         style="fill:none;stroke:#000000"
         id="path1202" />
      <path
         d="M 1794.556897,70.713360 A 755.905512,755.905512 0.000000 0 0 1750.119716,64.671916"
         style="fill:none;stroke:#000000"
         id="path1204" />
      <path
         d="M 1952.025688,243.308055 A 188.976378,188.976378 0.000000 0 0 1794.556897,70.713360"
         style="fill:none;stroke:#000000"
         id="path1206" />
      <path
         d="M -668.976378,78.992223 A 755.905512,755.905512 0.000000 0 0 -755.706720,64.671926"
         style="fill:none;stroke:#000000"
         id="path1208" />
      <path
         d="M -521.574803,263.338655 A 188.976378,188.976378 0.000000 0 0 -668.976378,78.992223"
         style="fill:none;stroke:#000000"
         id="path1210" />
      <path
         style="fill:none;stroke:#000000"
         d="M -521.575 263.339 L -521.575 549.55"
         id="path1212" />
      <path
         d="M -579.567561,799.335002 A 566.929134,566.929134 0.000000 0 0 -521.574803,549.550278"
         style="fill:none;stroke:#000000"
         id="path1214" />
      <path
         style="fill:none;stroke:#000000"
         d="M -579.568 799.335 L -606.075 853.343"
         id="path1216" />
      <path
         d="M -745.942241,956.696976 A 188.976378,188.976378 0.000000 0 0 -606.074566,853.343023"
         style="fill:none;stroke:#000000"
         id="path1218" />
      <path
         d="M -765.092045,959.418534 A 566.929134,566.929134 0.000000 0 0 -745.942241,956.696976"
         style="fill:none;stroke:#000000"
         id="path1220" />
      <path
         d="M -774.449851,960.000000 A 75.590551,75.590551 0.000000 0 0 -765.092045,959.418534"
         style="fill:none;stroke:#000000"
         id="path1222" />
      <path
         style="fill:none;stroke:#000000"
         d="M -774.45 960 L -896.101 960"
         id="path1224" />
      <path
         d="M -905.459136,959.418534 A 75.590551,75.590551 0.000000 0 0 -896.101330,960.000000"
         style="fill:none;stroke:#000000"
         id="path1226" />
      <path
         d="M -924.608940,956.696976 A 566.929134,566.929134 0.000000 0 0 -905.459136,959.418534"
         style="fill:none;stroke:#000000"
         id="path1228" />
      <path
         d="M -1064.476616,853.343023 A 188.976378,188.976378 0.000000 0 0 -924.608940,956.696976"
         style="fill:none;stroke:#000000"
         id="path1230" />
      <path
         style="fill:none;stroke:#000000"
         d="M -1064.48 853.343 L -1090.98 799.335"
         id="path1232" />
      <path
         d="M -1148.976378,549.550278 A 566.929134,566.929134 0.000000 0 0 -1090.983620,799.335002"
         style="fill:none;stroke:#000000"
         id="path1234" />
      <path
         style="fill:none;stroke:#000000"
         d="M -1148.98 549.55 L -1148.98 263.339"
         id="path1236" />
      <path
         d="M -1001.574803,78.992223 A 188.976378,188.976378 0.000000 0 0 -1148.976378,263.338655"
         style="fill:none;stroke:#000000"
         id="path1238" />
      <path
         d="M -914.844287,64.671916 A 755.905512,755.905512 0.000000 0 0 -1001.574803,78.992223"
         style="fill:none;stroke:#000000"
         id="path1240" />
      <path
         d="M -906.887413,64.251969 A 75.590551,75.590551 0.000000 0 0 -914.844287,64.671916"
         style="fill:none;stroke:#000000"
         id="path1242" />
      <path
         style="fill:none;stroke:#000000"
         d="M -906.887 64.252 L -763.664 64.252"
         id="path1244" />
      <path
         d="M -755.706720,64.671926 A 75.590551,75.590551 0.000000 0 0 -763.663606,64.251977"
         style="fill:none;stroke:#000000"
         id="path1246" />
      <path
         d="M 755.706720,64.671926 A 755.905512,755.905512 0.000000 0 0 668.976378,78.992223"
         style="fill:none;stroke:#000000"
         id="path1248" />
      <path
         d="M 763.663606,64.251977 A 75.590551,75.590551 0.000000 0 0 755.706720,64.671926"
         style="fill:none;stroke:#000000"
         id="path1250" />
      <path
         style="fill:none;stroke:#000000"
         d="M 763.664 64.252 L 906.887 64.252"
         id="path1252" />
      <path
         d="M 914.844287,64.671916 A 75.590551,75.590551 0.000000 0 0 906.887413,64.251969"
         style="fill:none;stroke:#000000"
         id="path1254" />
      <path
         d="M 1001.574803,78.992223 A 755.905512,755.905512 0.000000 0 0 914.844287,64.671916"
         style="fill:none;stroke:#000000"
         id="path1256" />
      <path
         d="M 1148.976378,263.338655 A 188.976378,188.976378 0.000000 0 0 1001.574803,78.992223"
         style="fill:none;stroke:#000000"
         id="path1258" />
      <path
         style="fill:none;stroke:#000000"
         d="M 1148.98 263.339 L 1148.98 549.55"
         id="path1260" />
      <path
         d="M 1090.983620,799.335002 A 566.929134,566.929134 0.000000 0 0 1148.976378,549.550278"
         style="fill:none;stroke:#000000"
         id="path1262" />
      <path
         style="fill:none;stroke:#000000"
         d="M 1090.98 799.335 L 1064.48 853.343"
         id="path1264" />
      <path
         d="M 924.608940,956.696976 A 188.976378,188.976378 0.000000 0 0 1064.476616,853.343023"
         style="fill:none;stroke:#000000"
         id="path1266" />
      <path
         d="M 905.459136,959.418534 A 566.929134,566.929134 0.000000 0 0 924.608940,956.696976"
         style="fill:none;stroke:#000000"
         id="path1268" />
      <path
         d="M 896.101330,960.000000 A 75.590551,75.590551 0.000000 0 0 905.459136,959.418534"
         style="fill:none;stroke:#000000"
         id="path1270" />
      <path
         style="fill:none;stroke:#000000"
         d="M 896.101 960 L 774.45 960"
         id="path1272" />
      <path
         d="M 765.092045,959.418534 A 75.590551,75.590551 0.000000 0 0 774.449851,960.000000"
         style="fill:none;stroke:#000000"
         id="path1274" />
      <path
         d="M 745.942241,956.696976 A 566.929134,566.929134 0.000000 0 0 765.092045,959.418534"
         style="fill:none;stroke:#000000"
         id="path1276" />
      <path
         d="M 606.074566,853.343023 A 188.976378,188.976378 0.000000 0 0 745.942241,956.696976"
         style="fill:none;stroke:#000000"
         id="path1278" />
      <path
         style="fill:none;stroke:#000000"
         d="M 606.075 853.343 L 579.568 799.335"
         id="path1280" />
      <path
         d="M 521.574803,549.550278 A 566.929134,566.929134 0.000000 0 0 579.567561,799.335002"
         style="fill:none;stroke:#000000"
         id="path1282" />
      <path
         style="fill:none;stroke:#000000"
         d="M 521.575 549.55 L 521.575 263.339"
         id="path1284" />
      <path
         d="M 668.976378,78.992223 A 188.976378,188.976378 0.000000 0 0 521.574803,263.338655"
         style="fill:none;stroke:#000000"
         id="path1286" />
      <path
         style="fill:none;stroke:#000000"
         d="M 2165.67 -86.9291 L -2165.67 -86.9291"
         id="path1288" />
      <path
         style="fill:none;stroke:#000000"
         d="M -2165.67 -86.9291 L -2165.67 64.252"
         id="path1290" />
      <path
         style="fill:none;stroke:#000000"
         d="M -2165.67 64.252 L -2124 113.014"
         id="path1292" />
      <path
         style="fill:none;stroke:#000000"
         d="M -2124 113.014 L -2146.46 399.378"
         id="path1294" />
      <path
         style="fill:none;stroke:#000000"
         d="M -2146.46 399.378 L -2195.22 441.048"
         id="path1296" />
      <path
         style="fill:none;stroke:#000000"
         d="M -2195.22 441.048 L -2241.26 1046.93"
         id="path1298" />
      <path
         style="fill:none;stroke:#000000"
         d="M -2241.26 1046.93 L -2260.16 1046.93"
         id="path1300" />
      <path
         style="fill:none;stroke:#000000"
         d="M -2260.16 1046.93 L -2260.16 1084.72"
         id="path1302" />
      <path
         style="fill:none;stroke:#000000"
         d="M -2260.16 1084.72 L -2222.36 1122.52"
         id="path1304" />
      <path
         style="fill:none;stroke:#000000"
         d="M -2222.36 1122.52 L 2222.36 1122.52"
         id="path1306" />
      <path
         style="fill:none;stroke:#000000"
         d="M 2222.36 1122.52 L 2260.16 1084.72"
         id="path1308" />
      <path
         style="fill:none;stroke:#000000"
         d="M 2260.16 1084.72 L 2260.16 1046.93"
         id="path1310" />
      <path
         style="fill:none;stroke:#000000"
         d="M 2260.16 1046.93 L 2241.26 1046.93"
         id="path1312" />
      <path
         style="fill:none;stroke:#000000"
         d="M 2241.26 1046.93 L 2195.22 441.048"
         id="path1314" />
      <path
         style="fill:none;stroke:#000000"
         d="M 2195.22 441.048 L 2146.46 399.378"
         id="path1316" />
      <path
         style="fill:none;stroke:#000000"
         d="M 2146.46 399.378 L 2124 113.014"
         id="path1318" />
      <path
         style="fill:none;stroke:#000000"
         d="M 2124 113.014 L 2165.67 64.252"
         id="path1320" />
      <path
         style="fill:none;stroke:#000000"
         d="M 2165.67 64.252 L 2165.67 -86.9291"
         id="path1322" />
    </symbol>
    <symbol
       id="VBI_AVU40_DDRSN_PP">
      <path
         d="M 1059.895114,959.418534 A 566.929134,566.929134 0.0 0 1 1040.745310,956.696976 A 188.976378,188.976378 0.0 0 1 900.877634,853.343023 L 874.370630,799.335002 A 566.929134,566.929134 0.0 0 1 816.377872,549.550278 L 816.377872,-39.023554 A 188.976378,188.976378 0.0 0 1 963.779447,-223.369986 A 755.905512,755.905512 0.0 0 1 1050.509963,-237.690293 A 75.590551,75.590551 0.0 0 1 1058.466837,-238.110240 L 1130.078740,-238.110236 L 1130.078740,-389.291339 L -1035.590551,-389.291339 L -1035.590551,-238.110236 L -993.019741,-190.133609 L -1010.138162,96.599942 L -1058.114789,139.170752 L -1111.181102,1046.929134 L -1130.078740,1046.929134 L -1130.078740,1084.724409 L -1092.283465,1122.519685 L 1130.078740,1122.519685 L 1130.078740,960.000000 L 1069.252920,960.000000 A 75.590551,75.590551 0.0 0 1 1059.895114,959.418534 z"
         style="fill:none;stroke:#000000"
         id="path1325" />
      <path
         d="M -460.903571,-237.690283 A 755.905512,755.905512 0.0 0 1 -374.173228,-223.369986 A 188.976378,188.976378 0.0 0 1 -226.771654,-39.023554 L -226.771654,549.550278 A 566.929134,566.929134 0.0 0 1 -284.764412,799.335002 L -311.271416,853.343023 A 188.976378,188.976378 0.0 0 1 -451.139091,956.696976 A 566.929134,566.929134 0.0 0 1 -470.288895,959.418534 A 75.590551,75.590551 0.0 0 1 -479.646701,960.000000 L -601.298181,960.000000 A 75.590551,75.590551 0.0 0 1 -610.655987,959.418534 A 566.929134,566.929134 0.0 0 1 -629.805791,956.696976 A 188.976378,188.976378 0.0 0 1 -769.673466,853.343023 L -795.403696,800.917680 A 566.929134,566.929134 0.0 0 1 -852.388803,517.346599 L -818.090522,-57.149610 A 188.976378,188.976378 0.0 0 1 -659.109223,-232.521902 A 755.905512,755.905512 0.0 0 1 -620.041138,-237.690293 A 75.590551,75.590551 0.0 0 1 -612.084264,-238.110240 L -468.860457,-238.110232 A 75.590551,75.590551 0.0 0 1 -460.903571,-237.690283 z"
         style="fill:none;stroke:#000000"
         id="path1327" />
      <path
         d="M 461.102362,-223.369986 A 188.976378,188.976378 0.0 0 1 608.503937,-39.023554 L 608.503937,549.550278 A 566.929134,566.929134 0.0 0 1 550.511179,799.335002 L 524.004175,853.343023 A 188.976378,188.976378 0.0 0 1 384.136499,956.696976 A 566.929134,566.929134 0.0 0 1 364.986695,959.418534 A 75.590551,75.590551 0.0 0 1 355.628889,960.000000 L 233.977410,960.000000 A 75.590551,75.590551 0.0 0 1 224.619604,959.418534 A 566.929134,566.929134 0.0 0 1 205.469800,956.696976 A 188.976378,188.976378 0.0 0 1 65.602125,853.343023 L 39.095120,799.335002 A 566.929134,566.929134 0.0 0 1 -18.897638,549.550278 L -18.897638,-39.023554 A 188.976378,188.976378 0.0 0 1 128.503937,-223.369986 A 755.905512,755.905512 0.0 0 1 215.234453,-237.690293 A 75.590551,75.590551 0.0 0 1 223.191327,-238.110240 L 366.415134,-238.110232 A 75.590551,75.590551 0.0 0 1 374.372020,-237.690283 A 755.905512,755.905512 0.0 0 1 461.102362,-223.369986 z"
         style="fill:none;stroke:#000000"
         id="path1329" />
    </symbol>
    <symbol
       id="VBI_AVU40_DDRSN_NP">
      <use
         xlink:href="#%2AU8"
         style="stroke-width:0.500px"
         id="use1332" />
      <path
         d="M 2412.716259,-190.133609 L 2395.597838,96.599942 L 2347.621210,139.170752 L 2294.554897,1046.929134 L 2275.657260,1046.929134 L 2241.641512,1046.929134 L 2188.575199,139.170752 L 2140.598571,96.599942 L 2123.480150,-190.133609 L 2166.050960,-238.110236 L 2166.050960,-389.291339 L 2370.145449,-389.291339 L 2370.145449,-238.110236 L 2412.716259,-190.133609 z"
         style="fill:none;stroke:#FF0000"
         id="path1334" />
    </symbol>
    <symbol
       id="*U8">
      <path
         d="M 1001.956311,-223.369986 A 755.905512,755.905512 0.000000 0 0 915.225968,-237.690283"
         style="fill:none;stroke:#000000"
         id="path1337" />
      <path
         d="M 1149.357885,-39.023554 A 188.976378,188.976378 0.000000 0 0 1001.956311,-223.369986"
         style="fill:none;stroke:#000000"
         id="path1339" />
      <path
         style="fill:none;stroke:#000000"
         d="M 1149.36 -39.0236 L 1149.36 549.55"
         id="path1341" />
      <path
         d="M 1091.365127,799.335002 A 566.929134,566.929134 0.000000 0 0 1149.357885,549.550278"
         style="fill:none;stroke:#000000"
         id="path1343" />
      <path
         style="fill:none;stroke:#000000"
         d="M 1091.37 799.335 L 1064.86 853.343"
         id="path1345" />
      <path
         d="M 924.990448,956.696976 A 188.976378,188.976378 0.000000 0 0 1064.858123,853.343023"
         style="fill:none;stroke:#000000"
         id="path1347" />
      <path
         d="M 905.840644,959.418534 A 566.929134,566.929134 0.000000 0 0 924.990448,956.696976"
         style="fill:none;stroke:#000000"
         id="path1349" />
      <path
         d="M 896.482838,960.000000 A 75.590551,75.590551 0.000000 0 0 905.840644,959.418534"
         style="fill:none;stroke:#000000"
         id="path1351" />
      <path
         style="fill:none;stroke:#000000"
         d="M 896.483 960 L 774.831 960"
         id="path1353" />
      <path
         d="M 765.473552,959.418534 A 75.590551,75.590551 0.000000 0 0 774.831358,960.000000"
         style="fill:none;stroke:#000000"
         id="path1355" />
      <path
         d="M 746.323748,956.696976 A 566.929134,566.929134 0.000000 0 0 765.473552,959.418534"
         style="fill:none;stroke:#000000"
         id="path1357" />
      <path
         d="M 606.456073,853.343023 A 188.976378,188.976378 0.000000 0 0 746.323748,956.696976"
         style="fill:none;stroke:#000000"
         id="path1359" />
      <path
         style="fill:none;stroke:#000000"
         d="M 606.456 853.343 L 579.949 799.335"
         id="path1361" />
      <path
         d="M 521.956311,549.550278 A 566.929134,566.929134 0.000000 0 0 579.949069,799.335002"
         style="fill:none;stroke:#000000"
         id="path1363" />
      <path
         style="fill:none;stroke:#000000"
         d="M 521.956 549.55 L 521.956 -39.0236"
         id="path1365" />
      <path
         d="M 669.357885,-223.369986 A 188.976378,188.976378 0.000000 0 0 521.956311,-39.023554"
         style="fill:none;stroke:#000000"
         id="path1367" />
      <path
         d="M 756.088401,-237.690293 A 755.905512,755.905512 0.000000 0 0 669.357885,-223.369986"
         style="fill:none;stroke:#000000"
         id="path1369" />
      <path
         d="M 764.045275,-238.110240 A 75.590551,75.590551 0.000000 0 0 756.088401,-237.690293"
         style="fill:none;stroke:#000000"
         id="path1371" />
      <path
         style="fill:none;stroke:#000000"
         d="M 764.045 -238.11 L 907.269 -238.11"
         id="path1373" />
      <path
         d="M 915.225968,-237.690283 A 75.590551,75.590551 0.000000 0 0 907.269082,-238.110232"
         style="fill:none;stroke:#000000"
         id="path1375" />
      <path
         d="M -668.594709,-223.369986 A 755.905512,755.905512 0.000000 0 0 -755.325051,-237.690283"
         style="fill:none;stroke:#000000"
         id="path1377" />
      <path
         d="M -521.193134,-39.023554 A 188.976378,188.976378 0.000000 0 0 -668.594709,-223.369986"
         style="fill:none;stroke:#000000"
         id="path1379" />
      <path
         style="fill:none;stroke:#000000"
         d="M -521.193 -39.0236 L -521.193 549.55"
         id="path1381" />
      <path
         d="M -579.185892,799.335002 A 566.929134,566.929134 0.000000 0 0 -521.193134,549.550278"
         style="fill:none;stroke:#000000"
         id="path1383" />
      <path
         style="fill:none;stroke:#000000"
         d="M -579.186 799.335 L -605.693 853.343"
         id="path1385" />
      <path
         d="M -745.560572,956.696976 A 188.976378,188.976378 0.000000 0 0 -605.692896,853.343023"
         style="fill:none;stroke:#000000"
         id="path1387" />
      <path
         d="M -764.710376,959.418534 A 566.929134,566.929134 0.000000 0 0 -745.560572,956.696976"
         style="fill:none;stroke:#000000"
         id="path1389" />
      <path
         d="M -774.068182,960.000000 A 75.590551,75.590551 0.000000 0 0 -764.710376,959.418534"
         style="fill:none;stroke:#000000"
         id="path1391" />
      <path
         style="fill:none;stroke:#000000"
         d="M -774.068 960 L -895.72 960"
         id="path1393" />
      <path
         d="M -905.077467,959.418534 A 75.590551,75.590551 0.000000 0 0 -895.719661,960.000000"
         style="fill:none;stroke:#000000"
         id="path1395" />
      <path
         d="M -924.227271,956.696976 A 566.929134,566.929134 0.000000 0 0 -905.077467,959.418534"
         style="fill:none;stroke:#000000"
         id="path1397" />
      <path
         d="M -1064.094946,853.343023 A 188.976378,188.976378 0.000000 0 0 -924.227271,956.696976"
         style="fill:none;stroke:#000000"
         id="path1399" />
      <path
         style="fill:none;stroke:#000000"
         d="M -1064.09 853.343 L -1090.6 799.335"
         id="path1401" />
      <path
         d="M -1148.594709,549.550278 A 566.929134,566.929134 0.000000 0 0 -1090.601951,799.335002"
         style="fill:none;stroke:#000000"
         id="path1403" />
      <path
         style="fill:none;stroke:#000000"
         d="M -1148.59 549.55 L -1148.59 -39.0236"
         id="path1405" />
      <path
         d="M -1001.193134,-223.369986 A 188.976378,188.976378 0.000000 0 0 -1148.594709,-39.023554"
         style="fill:none;stroke:#000000"
         id="path1407" />
      <path
         d="M -914.462618,-237.690293 A 755.905512,755.905512 0.000000 0 0 -1001.193134,-223.369986"
         style="fill:none;stroke:#000000"
         id="path1409" />
      <path
         d="M -906.505744,-238.110240 A 75.590551,75.590551 0.000000 0 0 -914.462618,-237.690293"
         style="fill:none;stroke:#000000"
         id="path1411" />
      <path
         style="fill:none;stroke:#000000"
         d="M -906.506 -238.11 L -763.282 -238.11"
         id="path1413" />
      <path
         d="M -755.325051,-237.690283 A 75.590551,75.590551 0.000000 0 0 -763.281937,-238.110232"
         style="fill:none;stroke:#000000"
         id="path1415" />
      <path
         style="fill:none;stroke:#000000"
         d="M -1741.78 -238.11 L -1598.56 -238.11"
         id="path1417" />
      <path
         d="M -1590.600642,-237.690283 A 75.590551,75.590551 0.000000 0 0 -1598.557528,-238.110232"
         style="fill:none;stroke:#000000"
         id="path1419" />
      <path
         d="M -1503.870299,-223.369986 A 755.905512,755.905512 0.000000 0 0 -1590.600642,-237.690283"
         style="fill:none;stroke:#000000"
         id="path1421" />
      <path
         d="M -1356.468725,-39.023554 A 188.976378,188.976378 0.000000 0 0 -1503.870299,-223.369986"
         style="fill:none;stroke:#000000"
         id="path1423" />
      <path
         style="fill:none;stroke:#000000"
         d="M -1356.47 -39.0236 L -1356.47 549.55"
         id="path1425" />
      <path
         d="M -1414.461483,799.335002 A 566.929134,566.929134 0.000000 0 0 -1356.468725,549.550278"
         style="fill:none;stroke:#000000"
         id="path1427" />
      <path
         style="fill:none;stroke:#000000"
         d="M -1414.46 799.335 L -1440.97 853.343"
         id="path1429" />
      <path
         d="M -1580.836162,956.696976 A 188.976378,188.976378 0.000000 0 0 -1440.968487,853.343023"
         style="fill:none;stroke:#000000"
         id="path1431" />
      <path
         d="M -1599.985966,959.418534 A 566.929134,566.929134 0.000000 0 0 -1580.836162,956.696976"
         style="fill:none;stroke:#000000"
         id="path1433" />
      <path
         d="M -1609.343772,960.000000 A 75.590551,75.590551 0.000000 0 0 -1599.985966,959.418534"
         style="fill:none;stroke:#000000"
         id="path1435" />
      <path
         style="fill:none;stroke:#000000"
         d="M -1609.34 960 L -1731 960"
         id="path1437" />
      <path
         d="M -1740.353058,959.418534 A 75.590551,75.590551 0.000000 0 0 -1730.995252,960.000000"
         style="fill:none;stroke:#000000"
         id="path1439" />
      <path
         d="M -1759.502862,956.696976 A 566.929134,566.929134 0.000000 0 0 -1740.353058,959.418534"
         style="fill:none;stroke:#000000"
         id="path1441" />
      <path
         d="M -1899.370537,853.343023 A 188.976378,188.976378 0.000000 0 0 -1759.502862,956.696976"
         style="fill:none;stroke:#000000"
         id="path1443" />
      <path
         style="fill:none;stroke:#000000"
         d="M -1899.37 853.343 L -1925.1 800.918"
         id="path1445" />
      <path
         d="M -1982.085874,517.346599 A 566.929134,566.929134 0.000000 0 0 -1925.100767,800.917680"
         style="fill:none;stroke:#000000"
         id="path1447" />
      <path
         style="fill:none;stroke:#000000"
         d="M -1982.09 517.347 L -1947.79 -57.1496"
         id="path1449" />
      <path
         d="M -1788.806294,-232.521902 A 188.976378,188.976378 0.000000 0 0 -1947.787593,-57.149610"
         style="fill:none;stroke:#000000"
         id="path1451" />
      <path
         d="M -1749.738209,-237.690293 A 755.905512,755.905512 0.000000 0 0 -1788.806294,-232.521902"
         style="fill:none;stroke:#000000"
         id="path1453" />
      <path
         d="M -1741.781335,-238.110240 A 75.590551,75.590551 0.000000 0 0 -1749.738209,-237.690293"
         style="fill:none;stroke:#000000"
         id="path1455" />
      <path
         d="M 166.680801,-223.369986 A 755.905512,755.905512 0.000000 0 0 79.950459,-237.690283"
         style="fill:none;stroke:#000000"
         id="path1457" />
      <path
         d="M 314.082376,-39.023554 A 188.976378,188.976378 0.000000 0 0 166.680801,-223.369986"
         style="fill:none;stroke:#000000"
         id="path1459" />
      <path
         style="fill:none;stroke:#000000"
         d="M 314.082 -39.0236 L 314.082 549.55"
         id="path1461" />
      <path
         d="M 256.089617,799.335002 A 566.929134,566.929134 0.000000 0 0 314.082376,549.550278"
         style="fill:none;stroke:#000000"
         id="path1463" />
      <path
         style="fill:none;stroke:#000000"
         d="M 256.09 799.335 L 229.583 853.343"
         id="path1465" />
      <path
         d="M 89.714938,956.696976 A 188.976378,188.976378 0.000000 0 0 229.582613,853.343023"
         style="fill:none;stroke:#000000"
         id="path1467" />
      <path
         d="M 70.565134,959.418534 A 566.929134,566.929134 0.000000 0 0 89.714938,956.696976"
         style="fill:none;stroke:#000000"
         id="path1469" />
      <path
         d="M 61.207328,960.000000 A 75.590551,75.590551 0.000000 0 0 70.565134,959.418534"
         style="fill:none;stroke:#000000"
         id="path1471" />
      <path
         style="fill:none;stroke:#000000"
         d="M 61.2073 960 L -60.4442 960"
         id="path1473" />
      <path
         d="M -69.801957,959.418534 A 75.590551,75.590551 0.000000 0 0 -60.444151,960.000000"
         style="fill:none;stroke:#000000"
         id="path1475" />
      <path
         d="M -88.951761,956.696976 A 566.929134,566.929134 0.000000 0 0 -69.801957,959.418534"
         style="fill:none;stroke:#000000"
         id="path1477" />
      <path
         d="M -228.819437,853.343023 A 188.976378,188.976378 0.000000 0 0 -88.951761,956.696976"
         style="fill:none;stroke:#000000"
         id="path1479" />
      <path
         style="fill:none;stroke:#000000"
         d="M -228.819 853.343 L -255.326 799.335"
         id="path1481" />
      <path
         d="M -313.319199,549.550278 A 566.929134,566.929134 0.000000 0 0 -255.326441,799.335002"
         style="fill:none;stroke:#000000"
         id="path1483" />
      <path
         style="fill:none;stroke:#000000"
         d="M -313.319 549.55 L -313.319 -39.0236"
         id="path1485" />
      <path
         d="M -165.917624,-223.369986 A 188.976378,188.976378 0.000000 0 0 -313.319199,-39.023554"
         style="fill:none;stroke:#000000"
         id="path1487" />
      <path
         d="M -79.187108,-237.690293 A 755.905512,755.905512 0.000000 0 0 -165.917624,-223.369986"
         style="fill:none;stroke:#000000"
         id="path1489" />
      <path
         d="M -71.230234,-238.110240 A 75.590551,75.590551 0.000000 0 0 -79.187108,-237.690293"
         style="fill:none;stroke:#000000"
         id="path1491" />
      <path
         style="fill:none;stroke:#000000"
         d="M -71.2302 -238.11 L 71.9936 -238.11"
         id="path1493" />
      <path
         d="M 79.950459,-237.690283 A 75.590551,75.590551 0.000000 0 0 71.993573,-238.110232"
         style="fill:none;stroke:#000000"
         id="path1495" />
      <path
         style="fill:none;stroke:#000000"
         d="M 1599.32 -238.11 L 1742.54 -238.11"
         id="path1497" />
      <path
         d="M 1750.501547,-237.690293 A 75.590551,75.590551 0.000000 0 0 1742.544673,-238.110240"
         style="fill:none;stroke:#000000"
         id="path1499" />
      <path
         d="M 1789.569632,-232.521902 A 755.905512,755.905512 0.000000 0 0 1750.501547,-237.690293"
         style="fill:none;stroke:#000000"
         id="path1501" />
      <path
         d="M 1948.550931,-57.149610 A 188.976378,188.976378 0.000000 0 0 1789.569632,-232.521902"
         style="fill:none;stroke:#000000"
         id="path1503" />
      <path
         style="fill:none;stroke:#000000"
         d="M 1948.55 -57.1496 L 1982.85 517.347"
         id="path1505" />
      <path
         d="M 1925.864105,800.917680 A 566.929134,566.929134 0.000000 0 0 1982.849212,517.346599"
         style="fill:none;stroke:#000000"
         id="path1507" />
      <path
         style="fill:none;stroke:#000000"
         d="M 1925.86 800.918 L 1900.13 853.343"
         id="path1509" />
      <path
         d="M 1760.266200,956.696976 A 188.976378,188.976378 0.000000 0 0 1900.133875,853.343023"
         style="fill:none;stroke:#000000"
         id="path1511" />
      <path
         d="M 1741.116396,959.418534 A 566.929134,566.929134 0.000000 0 0 1760.266200,956.696976"
         style="fill:none;stroke:#000000"
         id="path1513" />
      <path
         d="M 1731.758590,960.000000 A 75.590551,75.590551 0.000000 0 0 1741.116396,959.418534"
         style="fill:none;stroke:#000000"
         id="path1515" />
      <path
         style="fill:none;stroke:#000000"
         d="M 1731.76 960 L 1610.11 960"
         id="path1517" />
      <path
         d="M 1600.749304,959.418534 A 75.590551,75.590551 0.000000 0 0 1610.107111,960.000000"
         style="fill:none;stroke:#000000"
         id="path1519" />
      <path
         d="M 1581.599500,956.696976 A 566.929134,566.929134 0.000000 0 0 1600.749304,959.418534"
         style="fill:none;stroke:#000000"
         id="path1521" />
      <path
         d="M 1441.731825,853.343023 A 188.976378,188.976378 0.000000 0 0 1581.599500,956.696976"
         style="fill:none;stroke:#000000"
         id="path1523" />
      <path
         style="fill:none;stroke:#000000"
         d="M 1441.73 853.343 L 1415.22 799.335"
         id="path1525" />
      <path
         d="M 1357.232063,549.550278 A 566.929134,566.929134 0.000000 0 0 1415.224821,799.335002"
         style="fill:none;stroke:#000000"
         id="path1527" />
      <path
         style="fill:none;stroke:#000000"
         d="M 1357.23 549.55 L 1357.23 -39.0236"
         id="path1529" />
      <path
         d="M 1504.633638,-223.369986 A 188.976378,188.976378 0.000000 0 0 1357.232063,-39.023554"
         style="fill:none;stroke:#000000"
         id="path1531" />
      <path
         d="M 1591.363980,-237.690283 A 755.905512,755.905512 0.000000 0 0 1504.633638,-223.369986"
         style="fill:none;stroke:#000000"
         id="path1533" />
      <path
         d="M 1599.320866,-238.110232 A 75.590551,75.590551 0.000000 0 0 1591.363980,-237.690283"
         style="fill:none;stroke:#000000"
         id="path1535" />
      <path
         style="fill:none;stroke:#000000"
         d="M 2123.48 -190.134 L 2166.05 -238.11"
         id="path1537" />
      <path
         style="fill:none;stroke:#000000"
         d="M 2166.05 -238.11 L 2166.05 -389.291"
         id="path1539" />
      <path
         style="fill:none;stroke:#000000"
         d="M 2166.05 -389.291 L -2165.29 -389.291"
         id="path1541" />
      <path
         style="fill:none;stroke:#000000"
         d="M -2165.29 -389.291 L -2165.29 -238.11"
         id="path1543" />
      <path
         style="fill:none;stroke:#000000"
         d="M -2165.29 -238.11 L -2122.72 -190.134"
         id="path1545" />
      <path
         style="fill:none;stroke:#000000"
         d="M -2122.72 -190.134 L -2139.84 96.5999"
         id="path1547" />
      <path
         style="fill:none;stroke:#000000"
         d="M -2139.84 96.5999 L -2187.81 139.171"
         id="path1549" />
      <path
         style="fill:none;stroke:#000000"
         d="M -2187.81 139.171 L -2240.88 1046.93"
         id="path1551" />
      <path
         style="fill:none;stroke:#000000"
         d="M -2240.88 1046.93 L -2259.78 1046.93"
         id="path1553" />
      <path
         style="fill:none;stroke:#000000"
         d="M -2259.78 1046.93 L -2259.78 1084.72"
         id="path1555" />
      <path
         style="fill:none;stroke:#000000"
         d="M -2259.78 1084.72 L -2221.98 1122.52"
         id="path1557" />
      <path
         style="fill:none;stroke:#000000"
         d="M -2221.98 1122.52 L 2222.74 1122.52"
         id="path1559" />
      <path
         style="fill:none;stroke:#000000"
         d="M 2222.74 1122.52 L 2260.54 1084.72"
         id="path1561" />
      <path
         style="fill:none;stroke:#000000"
         d="M 2260.54 1084.72 L 2260.54 1046.93"
         id="path1563" />
      <path
         style="fill:none;stroke:#000000"
         d="M 2260.54 1046.93 L 2241.64 1046.93"
         id="path1565" />
      <path
         style="fill:none;stroke:#000000"
         d="M 2241.64 1046.93 L 2188.58 139.171"
         id="path1567" />
      <path
         style="fill:none;stroke:#000000"
         d="M 2188.58 139.171 L 2140.6 96.5999"
         id="path1569" />
      <path
         style="fill:none;stroke:#000000"
         d="M 2140.6 96.5999 L 2123.48 -190.134"
         id="path1571" />
    </symbol>
    <symbol
       id="AVU400">
      <path
         style="fill:none;stroke:#000000"
         d="M 4400.37 96.5999 L 4383.26 -190.134"
         id="path1574" />
      <path
         d="M 4383.255962,-190.133609 L 4425.826772,-238.110236 L 4425.826772,-389.291339 L 94.488189,-389.291339 L 94.488189,-238.110236 L 137.058999,-190.133609 L 119.940578,96.599942 L 71.963951,139.170752 L 18.897638,1046.929134 L 0.000000,1046.929134 L 0.000000,1084.724409 L 37.795276,1122.519685 L 4482.519685,1122.519685 L 4520.314961,1084.724409 L 4520.314961,1046.929134 L 4501.417323,1046.929134 L 4448.351010,139.170752 L 4400.374383,96.599942"
         style="fill:none;stroke:#000000"
         id="path1576" />
      <path
         d="M 3859.096677,-238.110232 A 75.590551,75.590551 0.0 0 0 3851.139791,-237.690283 A 755.905512,755.905512 0.0 0 0 3764.409449,-223.369986 A 188.976378,188.976378 0.0 0 0 3617.007874,-39.023554 L 3617.007874,549.550278 A 566.929134,566.929134 0.0 0 0 3675.000632,799.335002 L 3701.507636,853.343023 A 188.976378,188.976378 0.0 0 0 3841.375312,956.696976 A 566.929134,566.929134 0.0 0 0 3860.525116,959.418534 A 75.590551,75.590551 0.0 0 0 3869.882922,960.000000 L 3991.534401,960.000000 A 75.590551,75.590551 0.0 0 0 4000.892207,959.418534 A 566.929134,566.929134 0.0 0 0 4020.042011,956.696976 A 188.976378,188.976378 0.0 0 0 4159.909686,853.343023 L 4185.639916,800.917680 A 566.929134,566.929134 0.0 0 0 4242.625024,517.346599 L 4208.326742,-57.149610 A 188.976378,188.976378 0.0 0 0 4049.345444,-232.521902 A 755.905512,755.905512 0.0 0 0 4010.277358,-237.690293 A 75.590551,75.590551 0.0 0 0 4002.320484,-238.110240 L 3859.096677,-238.110232 z"
         style="fill:none;stroke:#000000"
         id="path1578" />
      <path
         d="M 2339.726270,-237.690283 A 75.590551,75.590551 0.0 0 0 2331.769384,-238.110232 L 2188.545577,-238.110240 A 75.590551,75.590551 0.0 0 0 2180.588703,-237.690293 A 755.905512,755.905512 0.0 0 0 2093.858187,-223.369986 A 188.976378,188.976378 0.0 0 0 1946.456612,-39.023554 L 1946.456612,549.550278 A 566.929134,566.929134 0.0 0 0 2004.449370,799.335002 L 2030.956374,853.343023 A 188.976378,188.976378 0.0 0 0 2170.824050,956.696976 A 566.929134,566.929134 0.0 0 0 2189.973854,959.418534 A 75.590551,75.590551 0.0 0 0 2199.331660,960.000000 L 2320.983139,960.000000 A 75.590551,75.590551 0.0 0 0 2330.340945,959.418534 A 566.929134,566.929134 0.0 0 0 2349.490749,956.696976 A 188.976378,188.976378 0.0 0 0 2489.358424,853.343023 L 2515.865429,799.335002 A 566.929134,566.929134 0.0 0 0 2573.858187,549.550278 L 2573.858187,-39.023554 A 188.976378,188.976378 0.0 0 0 2426.456612,-223.369986 A 755.905512,755.905512 0.0 0 0 2339.726270,-237.690283 z"
         style="fill:none;stroke:#000000"
         id="path1580" />
      <path
         d="M 517.994477,-238.110240 A 75.590551,75.590551 0.0 0 0 510.037603,-237.690293 A 755.905512,755.905512 0.0 0 0 470.969517,-232.521902 A 188.976378,188.976378 0.0 0 0 311.988218,-57.149610 L 277.689937,517.346599 A 566.929134,566.929134 0.0 0 0 334.675045,800.917680 L 360.405274,853.343023 A 188.976378,188.976378 0.0 0 0 500.272949,956.696976 A 566.929134,566.929134 0.0 0 0 519.422754,959.418534 A 75.590551,75.590551 0.0 0 0 528.780560,960.000000 L 650.432039,960.000000 A 75.590551,75.590551 0.0 0 0 659.789845,959.418534 A 566.929134,566.929134 0.0 0 0 678.939649,956.696976 A 188.976378,188.976378 0.0 0 0 818.807324,853.343023 L 845.314328,799.335002 A 566.929134,566.929134 0.0 0 0 903.307087,549.550278 L 903.307087,-39.023554 A 188.976378,188.976378 0.0 0 0 755.905512,-223.369986 A 755.905512,755.905512 0.0 0 0 669.175170,-237.690283 A 75.590551,75.590551 0.0 0 0 661.218283,-238.110232 L 517.994477,-238.110240 z"
         style="fill:none;stroke:#000000"
         id="path1582" />
      <path
         d="M 1504.450760,-237.690283 A 75.590551,75.590551 0.0 0 0 1496.493874,-238.110232 L 1353.270067,-238.110240 A 75.590551,75.590551 0.0 0 0 1345.313193,-237.690293 A 755.905512,755.905512 0.0 0 0 1258.582677,-223.369986 A 188.976378,188.976378 0.0 0 0 1111.181102,-39.023554 L 1111.181102,549.550278 A 566.929134,566.929134 0.0 0 0 1169.173861,799.335002 L 1195.680865,853.343023 A 188.976378,188.976378 0.0 0 0 1335.548540,956.696976 A 566.929134,566.929134 0.0 0 0 1354.698344,959.418534 A 75.590551,75.590551 0.0 0 0 1364.056150,960.000000 L 1485.707629,960.000000 A 75.590551,75.590551 0.0 0 0 1495.065435,959.418534 A 566.929134,566.929134 0.0 0 0 1514.215239,956.696976 A 188.976378,188.976378 0.0 0 0 1654.082915,853.343023 L 1680.589919,799.335002 A 566.929134,566.929134 0.0 0 0 1738.582677,549.550278 L 1738.582677,-39.023554 A 188.976378,188.976378 0.0 0 0 1591.181102,-223.369986 A 755.905512,755.905512 0.0 0 0 1504.450760,-237.690283 z"
         style="fill:none;stroke:#000000"
         id="path1584" />
      <path
         d="M 3175.001780,-237.690283 A 75.590551,75.590551 0.0 0 0 3167.044893,-238.110232 L 3023.821087,-238.110240 A 75.590551,75.590551 0.0 0 0 3015.864213,-237.690293 A 755.905512,755.905512 0.0 0 0 2929.133697,-223.369986 A 188.976378,188.976378 0.0 0 0 2781.732122,-39.023554 L 2781.732122,549.550278 A 566.929134,566.929134 0.0 0 0 2839.724880,799.335002 L 2866.231884,853.343023 A 188.976378,188.976378 0.0 0 0 3006.099559,956.696976 A 566.929134,566.929134 0.0 0 0 3025.249364,959.418534 A 75.590551,75.590551 0.0 0 0 3034.607170,960.000000 L 3156.258649,960.000000 A 75.590551,75.590551 0.0 0 0 3165.616455,959.418534 A 566.929134,566.929134 0.0 0 0 3184.766259,956.696976 A 188.976378,188.976378 0.0 0 0 3324.633934,853.343023 L 3351.140938,799.335002 A 566.929134,566.929134 0.0 0 0 3409.133697,549.550278 L 3409.133697,-39.023554 A 188.976378,188.976378 0.0 0 0 3261.732122,-223.369986 A 755.905512,755.905512 0.0 0 0 3175.001780,-237.690283 z"
         style="fill:none;stroke:#000000"
         id="path1586" />
    </symbol>
  </defs>
  <g
     inkscape:groupmode="layer"
     inkscape:label="0"
     id="g1591" />
  <g
     inkscape:groupmode="layer"
     inkscape:label="A--L23"
     id="g1593" />
  <g
     inkscape:groupmode="layer"
     inkscape:label="DEFPOINTS"
     id="g1595" />
  <g
     inkscape:groupmode="layer"
     inkscape:label="concrete"
     id="g1609">
    <path
       id="path1597"
       style="fill:#c0c0c0;stroke:#000000;fill-opacity:1"
       d="M 2393.0918 -9436.8301 L 2393.0918 -9285.6484 L 2434.7617 -9236.8867 L 2412.3008 -8950.5215 L 2363.5391 -8908.8535 L 2317.502 -8302.9707 L 2298.6035 -8302.9707 L 2298.6035 -8265.1758 L 2336.3984 -8227.3809 L 6781.123 -8227.3809 L 6818.918 -8265.1758 L 6818.918 -8302.9707 L 6800.0215 -8302.9707 L 6753.9824 -8908.8535 L 6705.2207 -8950.5215 L 6682.7617 -9236.8867 L 6724.4297 -9285.6484 L 6724.4297 -9436.8301 L 2393.0918 -9436.8301 z M 2816.5977 -9285.6484 L 2888.209 -9285.6484 L 2959.8223 -9285.6484 A 75.590551 75.590551 0 0 1 2967.7793 -9285.2285 A 755.90551 755.90551 0 0 1 3054.5098 -9270.9082 A 188.97638 188.97638 0 0 1 3201.9102 -9086.5625 L 3201.9102 -8800.3496 A 566.92913 566.92913 0 0 1 3143.918 -8550.5664 L 3117.4102 -8496.5566 A 188.97638 188.97638 0 0 1 2977.543 -8393.2031 A 566.92913 566.92913 0 0 1 2958.3926 -8390.4824 A 75.590551 75.590551 0 0 1 2949.0352 -8389.9004 L 2827.3848 -8389.9004 A 75.590551 75.590551 0 0 1 2818.0254 -8390.4824 A 566.92913 566.92913 0 0 1 2798.877 -8393.2031 A 188.97638 188.97638 0 0 1 2659.0098 -8496.5566 L 2640.0664 -8535.1504 A 548.0315 548.0315 0 0 1 2585.4746 -8816.6914 L 2606.7344 -9106.5918 A 188.97638 188.97638 0 0 1 2764.2031 -9279.1875 A 755.90551 755.90551 0 0 1 2808.6406 -9285.2285 A 75.590549 75.590549 0 0 1 2816.5977 -9285.6484 z M 3651.873 -9285.6484 L 3795.0977 -9285.6484 A 75.590551 75.590551 0 0 1 3803.0547 -9285.2285 A 755.90551 755.90551 0 0 1 3889.7852 -9270.9082 A 188.97638 188.97638 0 0 1 4037.1855 -9086.5625 L 4037.1855 -8800.3496 A 566.92913 566.92913 0 0 1 3979.1934 -8550.5664 L 3952.6855 -8496.5566 A 188.97638 188.97638 0 0 1 3812.8184 -8393.2031 A 566.92913 566.92913 0 0 1 3793.6699 -8390.4824 A 75.590551 75.590551 0 0 1 3784.3105 -8389.9004 L 3662.6602 -8389.9004 A 75.590551 75.590551 0 0 1 3653.3027 -8390.4824 A 566.92913 566.92913 0 0 1 3634.1523 -8393.2031 A 188.97638 188.97638 0 0 1 3494.2852 -8496.5566 L 3467.7773 -8550.5664 A 566.92913 566.92913 0 0 1 3409.7852 -8800.3496 L 3409.7852 -9086.5625 A 188.97638 188.97638 0 0 1 3557.1855 -9270.9082 A 755.90551 755.90551 0 0 1 3643.916 -9285.2285 A 75.590551 75.590551 0 0 1 3651.873 -9285.6484 z M 4487.1484 -9285.6484 L 4630.373 -9285.6484 A 75.590551 75.590551 0 0 1 4638.3301 -9285.2285 A 755.90551 755.90551 0 0 1 4725.0605 -9270.9082 A 188.97638 188.97638 0 0 1 4872.4609 -9086.5625 L 4872.4609 -8800.3496 A 566.92913 566.92913 0 0 1 4814.4688 -8550.5664 L 4787.9629 -8496.5566 A 188.97638 188.97638 0 0 1 4648.0938 -8393.2031 A 566.92913 566.92913 0 0 1 4628.9453 -8390.4824 A 75.590551 75.590551 0 0 1 4619.5859 -8389.9004 L 4497.9355 -8389.9004 A 75.590551 75.590551 0 0 1 4488.5781 -8390.4824 A 566.92913 566.92913 0 0 1 4469.4277 -8393.2031 A 188.97638 188.97638 0 0 1 4329.5605 -8496.5566 L 4303.0527 -8550.5664 A 566.92913 566.92913 0 0 1 4245.0605 -8800.3496 L 4245.0605 -9086.5625 A 188.97638 188.97638 0 0 1 4392.4609 -9270.9082 A 755.90551 755.90551 0 0 1 4479.1914 -9285.2285 A 75.590551 75.590551 0 0 1 4487.1484 -9285.6484 z M 5322.4238 -9285.6484 L 5465.6484 -9285.6484 A 75.590551 75.590551 0 0 1 5473.6055 -9285.2285 A 755.90551 755.90551 0 0 1 5560.3359 -9270.9082 A 188.97638 188.97638 0 0 1 5707.7383 -9086.5625 L 5707.7383 -8800.3496 A 566.92913 566.92913 0 0 1 5649.7441 -8550.5664 L 5623.2383 -8496.5566 A 188.97638 188.97638 0 0 1 5483.3691 -8393.2031 A 566.92913 566.92913 0 0 1 5464.2207 -8390.4824 A 75.590551 75.590551 0 0 1 5454.8633 -8389.9004 L 5333.2109 -8389.9004 A 75.590551 75.590551 0 0 1 5323.8535 -8390.4824 A 566.92913 566.92913 0 0 1 5304.7031 -8393.2031 A 188.97638 188.97638 0 0 1 5164.8359 -8496.5566 L 5138.3281 -8550.5664 A 566.92913 566.92913 0 0 1 5080.3359 -8800.3496 L 5080.3359 -9086.5625 A 188.97638 188.97638 0 0 1 5227.7383 -9270.9082 A 755.90551 755.90551 0 0 1 5314.4668 -9285.2285 A 75.590551 75.590551 0 0 1 5322.4238 -9285.6484 z M 6157.6992 -9285.6484 L 6300.9238 -9285.6484 A 75.590549 75.590549 0 0 1 6308.8809 -9285.2285 A 755.90551 755.90551 0 0 1 6353.3184 -9279.1875 A 188.97638 188.97638 0 0 1 6510.7871 -9106.5918 L 6532.0469 -8816.6914 A 548.0315 548.0315 0 0 1 6477.4551 -8535.1504 L 6458.5137 -8496.5566 A 188.97638 188.97638 0 0 1 6318.6445 -8393.2031 A 566.92913 566.92913 0 0 1 6299.4961 -8390.4824 A 75.590551 75.590551 0 0 1 6290.1387 -8389.9004 L 6168.4863 -8389.9004 A 75.590551 75.590551 0 0 1 6159.1289 -8390.4824 A 566.92913 566.92913 0 0 1 6139.9785 -8393.2031 A 188.97638 188.97638 0 0 1 6000.1113 -8496.5566 L 5973.6035 -8550.5664 A 566.92913 566.92913 0 0 1 5915.6113 -8800.3496 L 5915.6113 -9086.5625 A 188.97638 188.97638 0 0 1 6063.0137 -9270.9082 A 755.90551 755.90551 0 0 1 6149.7441 -9285.2285 A 75.590551 75.590551 0 0 1 6157.6992 -9285.6484 z " />
  </g>
</svg>
