<?xml version="1.0" encoding="UTF-8" standalone="no"?>
<svg
   viewBox="0 0 793.7007874015749 1122.5196850393702"
   width="793.7007874015749"
   height="1122.5196850393702"
   version="1.1"
   id="svg4052"
   sodipodi:docname="AVU400.svg"
   inkscape:version="1.2.2 (732a01da63, 2022-12-09)"
   xmlns:inkscape="http://www.inkscape.org/namespaces/inkscape"
   xmlns:sodipodi="http://sodipodi.sourceforge.net/DTD/sodipodi-0.dtd"
   xmlns:xlink="http://www.w3.org/1999/xlink"
   xmlns="http://www.w3.org/2000/svg"
   xmlns:svg="http://www.w3.org/2000/svg">
  <sodipodi:namedview
     id="namedview4054"
     pagecolor="#ffffff"
     bordercolor="#000000"
     borderopacity="0.25"
     inkscape:showpageshadow="2"
     inkscape:pageopacity="0.0"
     inkscape:pagecheckerboard="0"
     inkscape:deskcolor="#d1d1d1"
     showgrid="false"
     inkscape:zoom="0.26146536"
     inkscape:cx="931.28973"
     inkscape:cy="-152.98394"
     inkscape:window-width="3440"
     inkscape:window-height="1377"
     inkscape:window-x="-8"
     inkscape:window-y="-8"
     inkscape:window-maximized="1"
     inkscape:current-layer="g4048" />
  <desc
     id="desc3758">AVU400.dxf - scale = 1.000000, origin = (0.000000, 0.000000), method = manual</desc>
  <defs
     id="defs4032">
    <marker
       id="DistanceX"
       orient="auto"
       refX="0.0"
       refY="0.0"
       style="overflow:visible">
      <path
         d="M 3,-3 L -3,3 M 0,-5 L  0,5"
         style="stroke:#000000; stroke-width:0.5"
         id="path3760" />
    </marker>
    <pattern
       id="Hatch"
       patternUnits="userSpaceOnUse"
       width="8"
       height="8"
       x="0"
       y="0">
      <path
         d="M8 4 l-4,4"
         stroke="#000000"
         stroke-width="0.25"
         linecap="square"
         id="path3763" />
      <path
         d="M6 2 l-4,4"
         stroke="#000000"
         stroke-width="0.25"
         linecap="square"
         id="path3765" />
      <path
         d="M4 0 l-4,4"
         stroke="#000000"
         stroke-width="0.25"
         linecap="square"
         id="path3767" />
    </pattern>
    <symbol
       id="*Model_Space" />
    <symbol
       id="*Paper_Space" />
    <symbol
       id="$MODEL_SPACE" />
    <symbol
       id="$PAPER_SPACE" />
    <symbol
       id="DIMDOT">
      <path
         style="fill:none;stroke:#000000"
         d="M -7.55905 1122.52 L 7.55905 1122.52"
         id="path3774" />
      <path
         style="fill:none;stroke:#000000"
         d="M 0 1135.75 L 0 1109.29"
         id="path3776" />
      <path
         d="M 1.889764,1122.519685 A 1.889764,1.889764 0.000000 0, 0 -1.889764,1122.519685 A 1.889764,1.889764 0.000000 0, 0 1.889764,1122.519685 z"
         style="fill:none;stroke:#000000"
         id="path3778" />
      <path
         d="M 0.944882,1122.519685 A 0.944882,0.944882 0.000000 0, 0 -0.944882,1122.519685 A 0.944882,0.944882 0.000000 0, 0 0.944882,1122.519685 z"
         style="fill:none;stroke:#000000"
         id="path3780" />
    </symbol>
    <symbol
       id="VBI_AVU40_DDRSN_PP">
      <path
         d="M 1059.895114,959.418534 A 566.929134,566.929134 0.0 0 1 1040.745310,956.696976 A 188.976378,188.976378 0.0 0 1 900.877634,853.343023 L 874.370630,799.335002 A 566.929134,566.929134 0.0 0 1 816.377872,549.550278 L 816.377872,-39.023554 A 188.976378,188.976378 0.0 0 1 963.779447,-223.369986 A 755.905512,755.905512 0.0 0 1 1050.509963,-237.690293 A 75.590551,75.590551 0.0 0 1 1058.466837,-238.110240 L 1130.078740,-238.110236 L 1130.078740,-389.291339 L -1035.590551,-389.291339 L -1035.590551,-238.110236 L -993.019741,-190.133609 L -1010.138162,96.599942 L -1058.114789,139.170752 L -1111.181102,1046.929134 L -1130.078740,1046.929134 L -1130.078740,1084.724409 L -1092.283465,1122.519685 L 1130.078740,1122.519685 L 1130.078740,960.000000 L 1069.252920,960.000000 A 75.590551,75.590551 0.0 0 1 1059.895114,959.418534 z"
         style="fill:none;stroke:#000000"
         id="path3783" />
      <path
         d="M -460.903571,-237.690283 A 755.905512,755.905512 0.0 0 1 -374.173228,-223.369986 A 188.976378,188.976378 0.0 0 1 -226.771654,-39.023554 L -226.771654,549.550278 A 566.929134,566.929134 0.0 0 1 -284.764412,799.335002 L -311.271416,853.343023 A 188.976378,188.976378 0.0 0 1 -451.139091,956.696976 A 566.929134,566.929134 0.0 0 1 -470.288895,959.418534 A 75.590551,75.590551 0.0 0 1 -479.646701,960.000000 L -601.298181,960.000000 A 75.590551,75.590551 0.0 0 1 -610.655987,959.418534 A 566.929134,566.929134 0.0 0 1 -629.805791,956.696976 A 188.976378,188.976378 0.0 0 1 -769.673466,853.343023 L -795.403696,800.917680 A 566.929134,566.929134 0.0 0 1 -852.388803,517.346599 L -818.090522,-57.149610 A 188.976378,188.976378 0.0 0 1 -659.109223,-232.521902 A 755.905512,755.905512 0.0 0 1 -620.041138,-237.690293 A 75.590551,75.590551 0.0 0 1 -612.084264,-238.110240 L -468.860457,-238.110232 A 75.590551,75.590551 0.0 0 1 -460.903571,-237.690283 z"
         style="fill:none;stroke:#000000"
         id="path3785" />
      <path
         d="M 461.102362,-223.369986 A 188.976378,188.976378 0.0 0 1 608.503937,-39.023554 L 608.503937,549.550278 A 566.929134,566.929134 0.0 0 1 550.511179,799.335002 L 524.004175,853.343023 A 188.976378,188.976378 0.0 0 1 384.136499,956.696976 A 566.929134,566.929134 0.0 0 1 364.986695,959.418534 A 75.590551,75.590551 0.0 0 1 355.628889,960.000000 L 233.977410,960.000000 A 75.590551,75.590551 0.0 0 1 224.619604,959.418534 A 566.929134,566.929134 0.0 0 1 205.469800,956.696976 A 188.976378,188.976378 0.0 0 1 65.602125,853.343023 L 39.095120,799.335002 A 566.929134,566.929134 0.0 0 1 -18.897638,549.550278 L -18.897638,-39.023554 A 188.976378,188.976378 0.0 0 1 128.503937,-223.369986 A 755.905512,755.905512 0.0 0 1 215.234453,-237.690293 A 75.590551,75.590551 0.0 0 1 223.191327,-238.110240 L 366.415134,-238.110232 A 75.590551,75.590551 0.0 0 1 374.372020,-237.690283 A 755.905512,755.905512 0.0 0 1 461.102362,-223.369986 z"
         style="fill:none;stroke:#000000"
         id="path3787" />
    </symbol>
    <symbol
       id="VBI_AVU40_DDRSN_NP">
      <use
         xlink:href="#%2AU5"
         style="stroke-width:0.500px"
         id="use3790" />
      <path
         d="M 2412.716259,-190.133609 L 2395.597838,96.599942 L 2347.621210,139.170752 L 2294.554897,1046.929134 L 2275.657260,1046.929134 L 2241.641512,1046.929134 L 2188.575199,139.170752 L 2140.598571,96.599942 L 2123.480150,-190.133609 L 2166.050960,-238.110236 L 2166.050960,-389.291339 L 2370.145449,-389.291339 L 2370.145449,-238.110236 L 2412.716259,-190.133609 z"
         style="fill:none;stroke:#FF0000"
         id="path3792" />
    </symbol>
    <symbol
       id="*U5">
      <path
         d="M 1001.956311,-223.369986 A 755.905512,755.905512 0.000000 0 0 915.225968,-237.690283"
         style="fill:none;stroke:#000000"
         id="path3795" />
      <path
         d="M 1149.357885,-39.023554 A 188.976378,188.976378 0.000000 0 0 1001.956311,-223.369986"
         style="fill:none;stroke:#000000"
         id="path3797" />
      <path
         style="fill:none;stroke:#000000"
         d="M 1149.36 -39.0236 L 1149.36 549.55"
         id="path3799" />
      <path
         d="M 1091.365127,799.335002 A 566.929134,566.929134 0.000000 0 0 1149.357885,549.550278"
         style="fill:none;stroke:#000000"
         id="path3801" />
      <path
         style="fill:none;stroke:#000000"
         d="M 1091.37 799.335 L 1064.86 853.343"
         id="path3803" />
      <path
         d="M 924.990448,956.696976 A 188.976378,188.976378 0.000000 0 0 1064.858123,853.343023"
         style="fill:none;stroke:#000000"
         id="path3805" />
      <path
         d="M 905.840644,959.418534 A 566.929134,566.929134 0.000000 0 0 924.990448,956.696976"
         style="fill:none;stroke:#000000"
         id="path3807" />
      <path
         d="M 896.482838,960.000000 A 75.590551,75.590551 0.000000 0 0 905.840644,959.418534"
         style="fill:none;stroke:#000000"
         id="path3809" />
      <path
         style="fill:none;stroke:#000000"
         d="M 896.483 960 L 774.831 960"
         id="path3811" />
      <path
         d="M 765.473552,959.418534 A 75.590551,75.590551 0.000000 0 0 774.831358,960.000000"
         style="fill:none;stroke:#000000"
         id="path3813" />
      <path
         d="M 746.323748,956.696976 A 566.929134,566.929134 0.000000 0 0 765.473552,959.418534"
         style="fill:none;stroke:#000000"
         id="path3815" />
      <path
         d="M 606.456073,853.343023 A 188.976378,188.976378 0.000000 0 0 746.323748,956.696976"
         style="fill:none;stroke:#000000"
         id="path3817" />
      <path
         style="fill:none;stroke:#000000"
         d="M 606.456 853.343 L 579.949 799.335"
         id="path3819" />
      <path
         d="M 521.956311,549.550278 A 566.929134,566.929134 0.000000 0 0 579.949069,799.335002"
         style="fill:none;stroke:#000000"
         id="path3821" />
      <path
         style="fill:none;stroke:#000000"
         d="M 521.956 549.55 L 521.956 -39.0236"
         id="path3823" />
      <path
         d="M 669.357885,-223.369986 A 188.976378,188.976378 0.000000 0 0 521.956311,-39.023554"
         style="fill:none;stroke:#000000"
         id="path3825" />
      <path
         d="M 756.088401,-237.690293 A 755.905512,755.905512 0.000000 0 0 669.357885,-223.369986"
         style="fill:none;stroke:#000000"
         id="path3827" />
      <path
         d="M 764.045275,-238.110240 A 75.590551,75.590551 0.000000 0 0 756.088401,-237.690293"
         style="fill:none;stroke:#000000"
         id="path3829" />
      <path
         style="fill:none;stroke:#000000"
         d="M 764.045 -238.11 L 907.269 -238.11"
         id="path3831" />
      <path
         d="M 915.225968,-237.690283 A 75.590551,75.590551 0.000000 0 0 907.269082,-238.110232"
         style="fill:none;stroke:#000000"
         id="path3833" />
      <path
         d="M -668.594709,-223.369986 A 755.905512,755.905512 0.000000 0 0 -755.325051,-237.690283"
         style="fill:none;stroke:#000000"
         id="path3835" />
      <path
         d="M -521.193134,-39.023554 A 188.976378,188.976378 0.000000 0 0 -668.594709,-223.369986"
         style="fill:none;stroke:#000000"
         id="path3837" />
      <path
         style="fill:none;stroke:#000000"
         d="M -521.193 -39.0236 L -521.193 549.55"
         id="path3839" />
      <path
         d="M -579.185892,799.335002 A 566.929134,566.929134 0.000000 0 0 -521.193134,549.550278"
         style="fill:none;stroke:#000000"
         id="path3841" />
      <path
         style="fill:none;stroke:#000000"
         d="M -579.186 799.335 L -605.693 853.343"
         id="path3843" />
      <path
         d="M -745.560572,956.696976 A 188.976378,188.976378 0.000000 0 0 -605.692896,853.343023"
         style="fill:none;stroke:#000000"
         id="path3845" />
      <path
         d="M -764.710376,959.418534 A 566.929134,566.929134 0.000000 0 0 -745.560572,956.696976"
         style="fill:none;stroke:#000000"
         id="path3847" />
      <path
         d="M -774.068182,960.000000 A 75.590551,75.590551 0.000000 0 0 -764.710376,959.418534"
         style="fill:none;stroke:#000000"
         id="path3849" />
      <path
         style="fill:none;stroke:#000000"
         d="M -774.068 960 L -895.72 960"
         id="path3851" />
      <path
         d="M -905.077467,959.418534 A 75.590551,75.590551 0.000000 0 0 -895.719661,960.000000"
         style="fill:none;stroke:#000000"
         id="path3853" />
      <path
         d="M -924.227271,956.696976 A 566.929134,566.929134 0.000000 0 0 -905.077467,959.418534"
         style="fill:none;stroke:#000000"
         id="path3855" />
      <path
         d="M -1064.094946,853.343023 A 188.976378,188.976378 0.000000 0 0 -924.227271,956.696976"
         style="fill:none;stroke:#000000"
         id="path3857" />
      <path
         style="fill:none;stroke:#000000"
         d="M -1064.09 853.343 L -1090.6 799.335"
         id="path3859" />
      <path
         d="M -1148.594709,549.550278 A 566.929134,566.929134 0.000000 0 0 -1090.601951,799.335002"
         style="fill:none;stroke:#000000"
         id="path3861" />
      <path
         style="fill:none;stroke:#000000"
         d="M -1148.59 549.55 L -1148.59 -39.0236"
         id="path3863" />
      <path
         d="M -1001.193134,-223.369986 A 188.976378,188.976378 0.000000 0 0 -1148.594709,-39.023554"
         style="fill:none;stroke:#000000"
         id="path3865" />
      <path
         d="M -914.462618,-237.690293 A 755.905512,755.905512 0.000000 0 0 -1001.193134,-223.369986"
         style="fill:none;stroke:#000000"
         id="path3867" />
      <path
         d="M -906.505744,-238.110240 A 75.590551,75.590551 0.000000 0 0 -914.462618,-237.690293"
         style="fill:none;stroke:#000000"
         id="path3869" />
      <path
         style="fill:none;stroke:#000000"
         d="M -906.506 -238.11 L -763.282 -238.11"
         id="path3871" />
      <path
         d="M -755.325051,-237.690283 A 75.590551,75.590551 0.000000 0 0 -763.281937,-238.110232"
         style="fill:none;stroke:#000000"
         id="path3873" />
      <path
         style="fill:none;stroke:#000000"
         d="M -1741.78 -238.11 L -1598.56 -238.11"
         id="path3875" />
      <path
         d="M -1590.600642,-237.690283 A 75.590551,75.590551 0.000000 0 0 -1598.557528,-238.110232"
         style="fill:none;stroke:#000000"
         id="path3877" />
      <path
         d="M -1503.870299,-223.369986 A 755.905512,755.905512 0.000000 0 0 -1590.600642,-237.690283"
         style="fill:none;stroke:#000000"
         id="path3879" />
      <path
         d="M -1356.468725,-39.023554 A 188.976378,188.976378 0.000000 0 0 -1503.870299,-223.369986"
         style="fill:none;stroke:#000000"
         id="path3881" />
      <path
         style="fill:none;stroke:#000000"
         d="M -1356.47 -39.0236 L -1356.47 549.55"
         id="path3883" />
      <path
         d="M -1414.461483,799.335002 A 566.929134,566.929134 0.000000 0 0 -1356.468725,549.550278"
         style="fill:none;stroke:#000000"
         id="path3885" />
      <path
         style="fill:none;stroke:#000000"
         d="M -1414.46 799.335 L -1440.97 853.343"
         id="path3887" />
      <path
         d="M -1580.836162,956.696976 A 188.976378,188.976378 0.000000 0 0 -1440.968487,853.343023"
         style="fill:none;stroke:#000000"
         id="path3889" />
      <path
         d="M -1599.985966,959.418534 A 566.929134,566.929134 0.000000 0 0 -1580.836162,956.696976"
         style="fill:none;stroke:#000000"
         id="path3891" />
      <path
         d="M -1609.343772,960.000000 A 75.590551,75.590551 0.000000 0 0 -1599.985966,959.418534"
         style="fill:none;stroke:#000000"
         id="path3893" />
      <path
         style="fill:none;stroke:#000000"
         d="M -1609.34 960 L -1731 960"
         id="path3895" />
      <path
         d="M -1740.353058,959.418534 A 75.590551,75.590551 0.000000 0 0 -1730.995252,960.000000"
         style="fill:none;stroke:#000000"
         id="path3897" />
      <path
         d="M -1759.502862,956.696976 A 566.929134,566.929134 0.000000 0 0 -1740.353058,959.418534"
         style="fill:none;stroke:#000000"
         id="path3899" />
      <path
         d="M -1899.370537,853.343023 A 188.976378,188.976378 0.000000 0 0 -1759.502862,956.696976"
         style="fill:none;stroke:#000000"
         id="path3901" />
      <path
         style="fill:none;stroke:#000000"
         d="M -1899.37 853.343 L -1925.1 800.918"
         id="path3903" />
      <path
         d="M -1982.085874,517.346599 A 566.929134,566.929134 0.000000 0 0 -1925.100767,800.917680"
         style="fill:none;stroke:#000000"
         id="path3905" />
      <path
         style="fill:none;stroke:#000000"
         d="M -1982.09 517.347 L -1947.79 -57.1496"
         id="path3907" />
      <path
         d="M -1788.806294,-232.521902 A 188.976378,188.976378 0.000000 0 0 -1947.787593,-57.149610"
         style="fill:none;stroke:#000000"
         id="path3909" />
      <path
         d="M -1749.738209,-237.690293 A 755.905512,755.905512 0.000000 0 0 -1788.806294,-232.521902"
         style="fill:none;stroke:#000000"
         id="path3911" />
      <path
         d="M -1741.781335,-238.110240 A 75.590551,75.590551 0.000000 0 0 -1749.738209,-237.690293"
         style="fill:none;stroke:#000000"
         id="path3913" />
      <path
         d="M 166.680801,-223.369986 A 755.905512,755.905512 0.000000 0 0 79.950459,-237.690283"
         style="fill:none;stroke:#000000"
         id="path3915" />
      <path
         d="M 314.082376,-39.023554 A 188.976378,188.976378 0.000000 0 0 166.680801,-223.369986"
         style="fill:none;stroke:#000000"
         id="path3917" />
      <path
         style="fill:none;stroke:#000000"
         d="M 314.082 -39.0236 L 314.082 549.55"
         id="path3919" />
      <path
         d="M 256.089617,799.335002 A 566.929134,566.929134 0.000000 0 0 314.082376,549.550278"
         style="fill:none;stroke:#000000"
         id="path3921" />
      <path
         style="fill:none;stroke:#000000"
         d="M 256.09 799.335 L 229.583 853.343"
         id="path3923" />
      <path
         d="M 89.714938,956.696976 A 188.976378,188.976378 0.000000 0 0 229.582613,853.343023"
         style="fill:none;stroke:#000000"
         id="path3925" />
      <path
         d="M 70.565134,959.418534 A 566.929134,566.929134 0.000000 0 0 89.714938,956.696976"
         style="fill:none;stroke:#000000"
         id="path3927" />
      <path
         d="M 61.207328,960.000000 A 75.590551,75.590551 0.000000 0 0 70.565134,959.418534"
         style="fill:none;stroke:#000000"
         id="path3929" />
      <path
         style="fill:none;stroke:#000000"
         d="M 61.2073 960 L -60.4442 960"
         id="path3931" />
      <path
         d="M -69.801957,959.418534 A 75.590551,75.590551 0.000000 0 0 -60.444151,960.000000"
         style="fill:none;stroke:#000000"
         id="path3933" />
      <path
         d="M -88.951761,956.696976 A 566.929134,566.929134 0.000000 0 0 -69.801957,959.418534"
         style="fill:none;stroke:#000000"
         id="path3935" />
      <path
         d="M -228.819437,853.343023 A 188.976378,188.976378 0.000000 0 0 -88.951761,956.696976"
         style="fill:none;stroke:#000000"
         id="path3937" />
      <path
         style="fill:none;stroke:#000000"
         d="M -228.819 853.343 L -255.326 799.335"
         id="path3939" />
      <path
         d="M -313.319199,549.550278 A 566.929134,566.929134 0.000000 0 0 -255.326441,799.335002"
         style="fill:none;stroke:#000000"
         id="path3941" />
      <path
         style="fill:none;stroke:#000000"
         d="M -313.319 549.55 L -313.319 -39.0236"
         id="path3943" />
      <path
         d="M -165.917624,-223.369986 A 188.976378,188.976378 0.000000 0 0 -313.319199,-39.023554"
         style="fill:none;stroke:#000000"
         id="path3945" />
      <path
         d="M -79.187108,-237.690293 A 755.905512,755.905512 0.000000 0 0 -165.917624,-223.369986"
         style="fill:none;stroke:#000000"
         id="path3947" />
      <path
         d="M -71.230234,-238.110240 A 75.590551,75.590551 0.000000 0 0 -79.187108,-237.690293"
         style="fill:none;stroke:#000000"
         id="path3949" />
      <path
         style="fill:none;stroke:#000000"
         d="M -71.2302 -238.11 L 71.9936 -238.11"
         id="path3951" />
      <path
         d="M 79.950459,-237.690283 A 75.590551,75.590551 0.000000 0 0 71.993573,-238.110232"
         style="fill:none;stroke:#000000"
         id="path3953" />
      <path
         style="fill:none;stroke:#000000"
         d="M 1599.32 -238.11 L 1742.54 -238.11"
         id="path3955" />
      <path
         d="M 1750.501547,-237.690293 A 75.590551,75.590551 0.000000 0 0 1742.544673,-238.110240"
         style="fill:none;stroke:#000000"
         id="path3957" />
      <path
         d="M 1789.569632,-232.521902 A 755.905512,755.905512 0.000000 0 0 1750.501547,-237.690293"
         style="fill:none;stroke:#000000"
         id="path3959" />
      <path
         d="M 1948.550931,-57.149610 A 188.976378,188.976378 0.000000 0 0 1789.569632,-232.521902"
         style="fill:none;stroke:#000000"
         id="path3961" />
      <path
         style="fill:none;stroke:#000000"
         d="M 1948.55 -57.1496 L 1982.85 517.347"
         id="path3963" />
      <path
         d="M 1925.864105,800.917680 A 566.929134,566.929134 0.000000 0 0 1982.849212,517.346599"
         style="fill:none;stroke:#000000"
         id="path3965" />
      <path
         style="fill:none;stroke:#000000"
         d="M 1925.86 800.918 L 1900.13 853.343"
         id="path3967" />
      <path
         d="M 1760.266200,956.696976 A 188.976378,188.976378 0.000000 0 0 1900.133875,853.343023"
         style="fill:none;stroke:#000000"
         id="path3969" />
      <path
         d="M 1741.116396,959.418534 A 566.929134,566.929134 0.000000 0 0 1760.266200,956.696976"
         style="fill:none;stroke:#000000"
         id="path3971" />
      <path
         d="M 1731.758590,960.000000 A 75.590551,75.590551 0.000000 0 0 1741.116396,959.418534"
         style="fill:none;stroke:#000000"
         id="path3973" />
      <path
         style="fill:none;stroke:#000000"
         d="M 1731.76 960 L 1610.11 960"
         id="path3975" />
      <path
         d="M 1600.749304,959.418534 A 75.590551,75.590551 0.000000 0 0 1610.107111,960.000000"
         style="fill:none;stroke:#000000"
         id="path3977" />
      <path
         d="M 1581.599500,956.696976 A 566.929134,566.929134 0.000000 0 0 1600.749304,959.418534"
         style="fill:none;stroke:#000000"
         id="path3979" />
      <path
         d="M 1441.731825,853.343023 A 188.976378,188.976378 0.000000 0 0 1581.599500,956.696976"
         style="fill:none;stroke:#000000"
         id="path3981" />
      <path
         style="fill:none;stroke:#000000"
         d="M 1441.73 853.343 L 1415.22 799.335"
         id="path3983" />
      <path
         d="M 1357.232063,549.550278 A 566.929134,566.929134 0.000000 0 0 1415.224821,799.335002"
         style="fill:none;stroke:#000000"
         id="path3985" />
      <path
         style="fill:none;stroke:#000000"
         d="M 1357.23 549.55 L 1357.23 -39.0236"
         id="path3987" />
      <path
         d="M 1504.633638,-223.369986 A 188.976378,188.976378 0.000000 0 0 1357.232063,-39.023554"
         style="fill:none;stroke:#000000"
         id="path3989" />
      <path
         d="M 1591.363980,-237.690283 A 755.905512,755.905512 0.000000 0 0 1504.633638,-223.369986"
         style="fill:none;stroke:#000000"
         id="path3991" />
      <path
         d="M 1599.320866,-238.110232 A 75.590551,75.590551 0.000000 0 0 1591.363980,-237.690283"
         style="fill:none;stroke:#000000"
         id="path3993" />
      <path
         style="fill:none;stroke:#000000"
         d="M 2123.48 -190.134 L 2166.05 -238.11"
         id="path3995" />
      <path
         style="fill:none;stroke:#000000"
         d="M 2166.05 -238.11 L 2166.05 -389.291"
         id="path3997" />
      <path
         style="fill:none;stroke:#000000"
         d="M 2166.05 -389.291 L -2165.29 -389.291"
         id="path3999" />
      <path
         style="fill:none;stroke:#000000"
         d="M -2165.29 -389.291 L -2165.29 -238.11"
         id="path4001" />
      <path
         style="fill:none;stroke:#000000"
         d="M -2165.29 -238.11 L -2122.72 -190.134"
         id="path4003" />
      <path
         style="fill:none;stroke:#000000"
         d="M -2122.72 -190.134 L -2139.84 96.5999"
         id="path4005" />
      <path
         style="fill:none;stroke:#000000"
         d="M -2139.84 96.5999 L -2187.81 139.171"
         id="path4007" />
      <path
         style="fill:none;stroke:#000000"
         d="M -2187.81 139.171 L -2240.88 1046.93"
         id="path4009" />
      <path
         style="fill:none;stroke:#000000"
         d="M -2240.88 1046.93 L -2259.78 1046.93"
         id="path4011" />
      <path
         style="fill:none;stroke:#000000"
         d="M -2259.78 1046.93 L -2259.78 1084.72"
         id="path4013" />
      <path
         style="fill:none;stroke:#000000"
         d="M -2259.78 1084.72 L -2221.98 1122.52"
         id="path4015" />
      <path
         style="fill:none;stroke:#000000"
         d="M -2221.98 1122.52 L 2222.74 1122.52"
         id="path4017" />
      <path
         style="fill:none;stroke:#000000"
         d="M 2222.74 1122.52 L 2260.54 1084.72"
         id="path4019" />
      <path
         style="fill:none;stroke:#000000"
         d="M 2260.54 1084.72 L 2260.54 1046.93"
         id="path4021" />
      <path
         style="fill:none;stroke:#000000"
         d="M 2260.54 1046.93 L 2241.64 1046.93"
         id="path4023" />
      <path
         style="fill:none;stroke:#000000"
         d="M 2241.64 1046.93 L 2188.58 139.171"
         id="path4025" />
      <path
         style="fill:none;stroke:#000000"
         d="M 2188.58 139.171 L 2140.6 96.5999"
         id="path4027" />
      <path
         style="fill:none;stroke:#000000"
         d="M 2140.6 96.5999 L 2123.48 -190.134"
         id="path4029" />
    </symbol>
  </defs>
  <g
     inkscape:groupmode="layer"
     inkscape:label="0"
     id="g4034" />
  <g
     inkscape:groupmode="layer"
     inkscape:label="concrete"
     id="g4048">
    <path
       id="path4036"
       style="fill:#c0c0c0;stroke:#000000;fill-opacity:1"
       d="M 94.488281 -389.29102 L 94.488281 -238.10938 L 137.05859 -190.13281 L 119.94141 96.599609 L 71.964844 139.16992 L 18.898438 1046.9297 L 0 1046.9297 L 0 1084.7246 L 37.794922 1122.5195 L 4482.5195 1122.5195 L 4520.3145 1084.7246 L 4520.3145 1046.9297 L 4501.418 1046.9297 L 4448.3516 139.16992 L 4400.375 96.599609 L 4383.2559 -190.13281 L 4425.8262 -238.10938 L 4425.8262 -389.29102 L 94.488281 -389.29102 z M 517.99414 -238.10938 L 661.21875 -238.10938 A 75.590551 75.590551 0 0 1 669.17578 -237.68945 A 755.90551 755.90551 0 0 1 755.90625 -223.36914 A 188.97638 188.97638 0 0 1 903.30664 -39.023438 L 903.30664 549.55078 A 566.92913 566.92913 0 0 1 845.31445 799.33594 L 818.80664 853.34375 A 188.97638 188.97638 0 0 1 678.93945 956.69727 A 566.92913 566.92913 0 0 1 659.78906 959.41797 A 75.590551 75.590551 0 0 1 650.43164 960 L 528.78125 960 A 75.590551 75.590551 0 0 1 519.42188 959.41797 A 566.92913 566.92913 0 0 1 500.27344 956.69727 A 188.97638 188.97638 0 0 1 360.40625 853.34375 L 334.67578 800.91797 A 566.92913 566.92913 0 0 1 277.68945 517.3457 L 311.98828 -57.150391 A 188.97638 188.97638 0 0 1 470.96875 -232.52148 A 755.90551 755.90551 0 0 1 510.03711 -237.68945 A 75.590551 75.590551 0 0 1 517.99414 -238.10938 z M 1353.2695 -238.10938 L 1496.4941 -238.10938 A 75.590551 75.590551 0 0 1 1504.4512 -237.68945 A 755.90551 755.90551 0 0 1 1591.1816 -223.36914 A 188.97638 188.97638 0 0 1 1738.582 -39.023438 L 1738.582 549.55078 A 566.92913 566.92913 0 0 1 1680.5898 799.33594 L 1654.082 853.34375 A 188.97638 188.97638 0 0 1 1514.2148 956.69727 A 566.92913 566.92913 0 0 1 1495.0664 959.41797 A 75.590551 75.590551 0 0 1 1485.707 960 L 1364.0566 960 A 75.590551 75.590551 0 0 1 1354.6992 959.41797 A 566.92913 566.92913 0 0 1 1335.5488 956.69727 A 188.97638 188.97638 0 0 1 1195.6816 853.34375 L 1169.1738 799.33594 A 566.92913 566.92913 0 0 1 1111.1816 549.55078 L 1111.1816 -39.023438 A 188.97638 188.97638 0 0 1 1258.582 -223.36914 A 755.90551 755.90551 0 0 1 1345.3125 -237.68945 A 75.590551 75.590551 0 0 1 1353.2695 -238.10938 z M 2188.5449 -238.10938 L 2331.7695 -238.10938 A 75.590551 75.590551 0 0 1 2339.7266 -237.68945 A 755.90551 755.90551 0 0 1 2426.457 -223.36914 A 188.97638 188.97638 0 0 1 2573.8574 -39.023438 L 2573.8574 549.55078 A 566.92913 566.92913 0 0 1 2515.8652 799.33594 L 2489.3594 853.34375 A 188.97638 188.97638 0 0 1 2349.4902 956.69727 A 566.92913 566.92913 0 0 1 2330.3418 959.41797 A 75.590551 75.590551 0 0 1 2320.9824 960 L 2199.332 960 A 75.590551 75.590551 0 0 1 2189.9746 959.41797 A 566.92913 566.92913 0 0 1 2170.8242 956.69727 A 188.97638 188.97638 0 0 1 2030.957 853.34375 L 2004.4492 799.33594 A 566.92913 566.92913 0 0 1 1946.457 549.55078 L 1946.457 -39.023438 A 188.97638 188.97638 0 0 1 2093.8574 -223.36914 A 755.90551 755.90551 0 0 1 2180.5879 -237.68945 A 75.590551 75.590551 0 0 1 2188.5449 -238.10938 z M 3023.8203 -238.10938 L 3167.0449 -238.10938 A 75.590551 75.590551 0 0 1 3175.002 -237.68945 A 755.90551 755.90551 0 0 1 3261.7324 -223.36914 A 188.97638 188.97638 0 0 1 3409.1328 -39.023438 L 3409.1328 549.55078 A 566.92913 566.92913 0 0 1 3351.1406 799.33594 L 3324.6348 853.34375 A 188.97638 188.97638 0 0 1 3184.7656 956.69727 A 566.92913 566.92913 0 0 1 3165.6172 959.41797 A 75.590551 75.590551 0 0 1 3156.2578 960 L 3034.6074 960 A 75.590551 75.590551 0 0 1 3025.25 959.41797 A 566.92913 566.92913 0 0 1 3006.0996 956.69727 A 188.97638 188.97638 0 0 1 2866.2324 853.34375 L 2839.7246 799.33594 A 566.92913 566.92913 0 0 1 2781.7324 549.55078 L 2781.7324 -39.023438 A 188.97638 188.97638 0 0 1 2929.1328 -223.36914 A 755.90551 755.90551 0 0 1 3015.8633 -237.68945 A 75.590551 75.590551 0 0 1 3023.8203 -238.10938 z M 3859.0957 -238.10938 L 4002.3203 -238.10938 A 75.590551 75.590551 0 0 1 4010.2773 -237.68945 A 755.90551 755.90551 0 0 1 4049.3457 -232.52148 A 188.97638 188.97638 0 0 1 4208.3262 -57.150391 L 4242.625 517.3457 A 566.92913 566.92913 0 0 1 4185.6406 800.91797 L 4159.9102 853.34375 A 188.97638 188.97638 0 0 1 4020.043 956.69727 A 566.92913 566.92913 0 0 1 4000.8926 959.41797 A 75.590551 75.590551 0 0 1 3991.5352 960 L 3869.8828 960 A 75.590551 75.590551 0 0 1 3860.5254 959.41797 A 566.92913 566.92913 0 0 1 3841.375 956.69727 A 188.97638 188.97638 0 0 1 3701.5078 853.34375 L 3675 799.33594 A 566.92913 566.92913 0 0 1 3617.0078 549.55078 L 3617.0078 -39.023438 A 188.97638 188.97638 0 0 1 3764.4102 -223.36914 A 755.90551 755.90551 0 0 1 3851.1406 -237.68945 A 75.590551 75.590551 0 0 1 3859.0957 -238.10938 z " />
  </g>
  <g
     inkscape:groupmode="layer"
     inkscape:label="DEFPOINTS"
     id="g4050" />
</svg>
