<?xml version="1.0" encoding="UTF-8" standalone="no"?>
<svg
   viewBox="0 0 793.7007874015749 1122.5196850393702"
   width="793.7007874015749"
   height="1122.5196850393702"
   version="1.1"
   id="svg3759"
   sodipodi:docname="A260.svg"
   inkscape:version="1.2.2 (732a01da63, 2022-12-09)"
   xmlns:inkscape="http://www.inkscape.org/namespaces/inkscape"
   xmlns:sodipodi="http://sodipodi.sourceforge.net/DTD/sodipodi-0.dtd"
   xmlns="http://www.w3.org/2000/svg"
   xmlns:svg="http://www.w3.org/2000/svg">
  <sodipodi:namedview
     id="namedview3761"
     pagecolor="#ffffff"
     bordercolor="#000000"
     borderopacity="0.25"
     inkscape:showpageshadow="2"
     inkscape:pageopacity="0.0"
     inkscape:pagecheckerboard="0"
     inkscape:deskcolor="#d1d1d1"
     showgrid="false"
     inkscape:zoom="0.36976785"
     inkscape:cx="2067.5134"
     inkscape:cy="584.1503"
     inkscape:window-width="2274"
     inkscape:window-height="1377"
     inkscape:window-x="1158"
     inkscape:window-y="-8"
     inkscape:window-maximized="0"
     inkscape:current-layer="g3755" />
  <desc
     id="desc3682">A260.dxf - scale = 1.000000, origin = (0.000000, 0.000000), method = manual</desc>
  <defs
     id="defs3735">
    <marker
       id="DistanceX"
       orient="auto"
       refX="0.0"
       refY="0.0"
       style="overflow:visible">
      <path
         d="M 3,-3 L -3,3 M 0,-5 L  0,5"
         style="stroke:#000000; stroke-width:0.5"
         id="path3684" />
    </marker>
    <pattern
       id="Hatch"
       patternUnits="userSpaceOnUse"
       width="8"
       height="8"
       x="0"
       y="0">
      <path
         d="M8 4 l-4,4"
         stroke="#000000"
         stroke-width="0.25"
         linecap="square"
         id="path3687" />
      <path
         d="M6 2 l-4,4"
         stroke="#000000"
         stroke-width="0.25"
         linecap="square"
         id="path3689" />
      <path
         d="M4 0 l-4,4"
         stroke="#000000"
         stroke-width="0.25"
         linecap="square"
         id="path3691" />
    </pattern>
    <symbol
       id="*Model_Space" />
    <symbol
       id="*Paper_Space" />
    <symbol
       id="$MODEL_SPACE" />
    <symbol
       id="$PAPER_SPACE" />
    <symbol
       id="DIMDOT">
      <path
         style="fill:none;stroke:#000000"
         d="M -7.55905 1122.52 L 7.55905 1122.52"
         id="path3698" />
      <path
         style="fill:none;stroke:#000000"
         d="M 0 1135.75 L 0 1109.29"
         id="path3700" />
      <path
         d="M 1.889764,1122.519685 A 1.889764,1.889764 0.000000 0, 0 -1.889764,1122.519685 A 1.889764,1.889764 0.000000 0, 0 1.889764,1122.519685 z"
         style="fill:none;stroke:#000000"
         id="path3702" />
      <path
         d="M 0.944882,1122.519685 A 0.944882,0.944882 0.000000 0, 0 -0.944882,1122.519685 A 0.944882,0.944882 0.000000 0, 0 0.944882,1122.519685 z"
         style="fill:none;stroke:#000000"
         id="path3704" />
    </symbol>
    <symbol
       id="VBI_A260_DDRSN_NP">
      <path
         d="M -2222.362205,1122.519685 L 2222.362205,1122.519685 L 2260.157480,1084.724409 L 2260.157480,1046.929134 L 2241.259843,1046.929134 L 2203.276997,667.100670 L 2152.631955,616.455628 L 2124.232437,332.460476 L 2165.669291,291.023622 L 2165.669291,139.842520 L -2165.669291,139.842520 L -2165.669291,291.023622 L -2124.232437,332.460476 L -2152.631955,616.455628 L -2203.276997,667.100670 L -2241.259843,1046.929134 L -2260.157480,1046.929134 L -2260.157480,1084.724409 L -2222.362205,1122.519685 z"
         style="fill:none;stroke:#000000"
         id="path3707" />
      <path
         d="M -1983.345895,806.321212 L -1862.065312,920.045731 A 119.745165,119.745165 0.0 0 0 -1698.249648,920.045731 L -1576.969066,806.321212 A 56.692913,56.692913 0.0 0 0 -1559.055118,764.965701 L -1559.055118,493.228346 A 221.102362,221.102362 0.0 0 0 -2001.259843,493.228346 L -2001.259843,764.965701 A 56.692913,56.692913 0.0 0 0 -1983.345895,806.321212 z"
         style="fill:none;stroke:#000000"
         id="path3709" />
      <path
         d="M -1389.960068,806.321212 L -1268.679486,920.045731 A 119.745165,119.745165 0.0 0 0 -1104.863821,920.045731 L -983.583239,806.321212 A 56.692913,56.692913 0.0 0 0 -965.669291,764.965701 L -965.669291,493.228346 A 221.102362,221.102362 0.0 0 0 -1407.874016,493.228346 L -1407.874016,764.965701 A 56.692913,56.692913 0.0 0 0 -1389.960068,806.321212 z"
         style="fill:none;stroke:#000000"
         id="path3711" />
      <path
         d="M -796.574241,806.321212 L -675.293659,920.045731 A 119.745165,119.745165 0.0 0 0 -511.477995,920.045731 L -390.197412,806.321212 A 56.692913,56.692913 0.0 0 0 -372.283465,764.965701 L -372.283465,493.228346 A 221.102362,221.102362 0.0 0 0 -814.488189,493.228346 L -814.488189,764.965701 A 56.692913,56.692913 0.0 0 0 -796.574241,806.321212 z"
         style="fill:none;stroke:#000000"
         id="path3713" />
      <path
         d="M -203.188415,806.321212 L -81.907832,920.045731 A 119.745165,119.745165 0.0 0 0 81.907832,920.045731 L 203.188415,806.321212 A 56.692913,56.692913 0.0 0 0 221.102362,764.965701 L 221.102362,493.228346 A 221.102362,221.102362 0.0 0 0 -221.102362,493.228346 L -221.102362,764.965701 A 56.692913,56.692913 0.0 0 0 -203.188415,806.321212 z"
         style="fill:none;stroke:#000000"
         id="path3715" />
      <path
         d="M 390.197412,806.321212 L 511.477995,920.045731 A 119.745165,119.745165 0.0 0 0 675.293659,920.045731 L 796.574241,806.321212 A 56.692913,56.692913 0.0 0 0 814.488189,764.965701 L 814.488189,493.228346 A 221.102362,221.102362 0.0 0 0 372.283465,493.228346 L 372.283465,764.965701 A 56.692913,56.692913 0.0 0 0 390.197412,806.321212 z"
         style="fill:none;stroke:#000000"
         id="path3717" />
      <path
         d="M 983.583239,806.321212 L 1104.863821,920.045731 A 119.745165,119.745165 0.0 0 0 1268.679486,920.045731 L 1389.960068,806.321212 A 56.692913,56.692913 0.0 0 0 1407.874016,764.965701 L 1407.874016,493.228346 A 221.102362,221.102362 0.0 0 0 965.669291,493.228346 L 965.669291,764.965701 A 56.692913,56.692913 0.0 0 0 983.583239,806.321212 z"
         style="fill:none;stroke:#000000"
         id="path3719" />
      <path
         d="M 1576.969066,806.321212 L 1698.249648,920.045731 A 119.745165,119.745165 0.0 0 0 1862.065312,920.045731 L 1983.345895,806.321212 A 56.692913,56.692913 0.0 0 0 2001.259843,764.965701 L 2001.259843,493.228346 A 221.102362,221.102362 0.0 0 0 1559.055118,493.228346 L 1559.055118,764.965701 A 56.692913,56.692913 0.0 0 0 1576.969066,806.321212 z"
         style="fill:none;stroke:#000000"
         id="path3721" />
      <path
         d="M 2267.653543,139.590551 L 2165.921260,139.590551 L 2165.921260,290.771654 L 2124.484406,332.208508 L 2152.883923,616.203660 L 2203.528965,666.848702 L 2241.259843,1046.929134 L 2267.653543,1046.929134 L 2294.047244,1046.929134 L 2331.778122,666.848702 L 2382.423163,616.203660 L 2410.822681,332.208508 L 2369.385827,290.771654 L 2369.385827,139.590551 L 2267.653543,139.590551 z"
         style="fill:none;stroke:#FF0000"
         id="path3723" />
    </symbol>
    <symbol
       id="VBI_A260_DDRSN_PP">
      <path
         d="M 0.000000,1122.519685 L -2229.921260,1122.519685 L -2267.716535,1084.724409 L -2267.716535,1046.929134 L -2248.818898,1046.929134 L -2210.836052,667.100670 L -2160.191010,616.455628 L -2131.791492,332.460476 L -2173.228346,291.023622 L -2173.228346,139.842520 L 0.000000,139.842520 L 0.000000,272.125984 A 221.102362,221.102362 0.0 0 0 -221.102362,493.228346 L -221.102362,764.965701 A 56.692913,56.692913 0.0 0 0 -203.188415,806.321212 L -81.907832,920.045731 A 119.745165,119.745165 0.0 0 0 0.000000,952.440959 L 0.000000,1122.519685 z"
         style="fill:none;stroke:#000000"
         id="path3726" />
      <path
         d="M -796.574241,806.321212 L -675.293659,920.045731 A 119.745165,119.745165 0.0 0 0 -511.477995,920.045731 L -390.197412,806.321212 A 56.692913,56.692913 0.0 0 0 -372.283465,764.965701 L -372.283465,493.228346 A 221.102362,221.102362 0.0 0 0 -814.488189,493.228346 L -814.488189,764.965701 A 56.692913,56.692913 0.0 0 0 -796.574241,806.321212 z"
         style="fill:none;stroke:#000000"
         id="path3728" />
      <path
         d="M -1389.960068,806.321212 L -1268.679486,920.045731 A 119.745165,119.745165 0.0 0 0 -1104.863821,920.045731 L -983.583239,806.321212 A 56.692913,56.692913 0.0 0 0 -965.669291,764.965701 L -965.669291,493.228346 A 221.102362,221.102362 0.0 0 0 -1407.874016,493.228346 L -1407.874016,764.965701 A 56.692913,56.692913 0.0 0 0 -1389.960068,806.321212 z"
         style="fill:none;stroke:#000000"
         id="path3730" />
      <path
         d="M -1983.345895,806.321212 L -1862.065312,920.045731 A 119.745165,119.745165 0.0 0 0 -1698.249648,920.045731 L -1576.969066,806.321212 A 56.692913,56.692913 0.0 0 0 -1559.055118,764.965701 L -1559.055118,493.228346 A 221.102362,221.102362 0.0 0 0 -2001.259843,493.228346 L -2001.259843,764.965701 A 56.692913,56.692913 0.0 0 0 -1983.345895,806.321212 z"
         style="fill:none;stroke:#000000"
         id="path3732" />
    </symbol>
  </defs>
  <g
     inkscape:groupmode="layer"
     inkscape:label="0"
     id="g3737" />
  <g
     inkscape:groupmode="layer"
     inkscape:label="concrete"
     id="g3755">
    <path
       id="path3739"
       style="fill:#c0c0c0;stroke:#000000;fill-opacity:1"
       d="M 94.488281 139.8418 L 94.488281 291.02344 L 135.92578 332.46094 L 107.52539 616.45508 L 56.880859 667.10156 L 18.898438 1046.9297 L 0 1046.9297 L 0 1084.7246 L 37.794922 1122.5195 L 4482.5195 1122.5195 L 4520.3145 1084.7246 L 4520.3145 1046.9297 L 4501.418 1046.9297 L 4463.4336 667.10156 L 4412.7891 616.45508 L 4384.3906 332.46094 L 4425.8262 291.02344 L 4425.8262 139.8418 L 94.488281 139.8418 z M 480 272.12695 A 221.10236 221.10236 0 0 1 701.10156 493.22852 L 701.10156 764.96484 A 56.692913 56.692913 0 0 1 683.1875 806.32031 L 561.9082 920.04492 A 119.74517 119.74517 0 0 1 398.0918 920.04492 L 276.8125 806.32031 A 56.692913 56.692913 0 0 1 258.89844 764.96484 L 258.89844 493.22852 A 221.10236 221.10236 0 0 1 480 272.12695 z M 1073.3867 272.12695 A 221.10236 221.10236 0 0 1 1294.4883 493.22852 L 1294.4883 764.96484 A 56.692913 56.692913 0 0 1 1276.5742 806.32031 L 1155.293 920.04492 A 119.74517 119.74517 0 0 1 991.47852 920.04492 L 870.19727 806.32031 A 56.692913 56.692913 0 0 1 852.2832 764.96484 L 852.2832 493.22852 A 221.10236 221.10236 0 0 1 1073.3867 272.12695 z M 1666.7715 272.12695 A 221.10236 221.10236 0 0 1 1887.873 493.22852 L 1887.873 764.96484 A 56.692913 56.692913 0 0 1 1869.9609 806.32031 L 1748.6797 920.04492 A 119.74517 119.74517 0 0 1 1584.8633 920.04492 L 1463.584 806.32031 A 56.692913 56.692913 0 0 1 1445.6699 764.96484 L 1445.6699 493.22852 A 221.10236 221.10236 0 0 1 1666.7715 272.12695 z M 2260.1582 272.12695 A 221.10236 221.10236 0 0 1 2481.2598 493.22852 L 2481.2598 764.96484 A 56.692913 56.692913 0 0 1 2463.3457 806.32031 L 2342.0645 920.04492 A 119.74517 119.74517 0 0 1 2178.25 920.04492 L 2056.9688 806.32031 A 56.692913 56.692913 0 0 1 2039.0547 764.96484 L 2039.0547 493.22852 A 221.10236 221.10236 0 0 1 2260.1582 272.12695 z M 2853.543 272.12695 A 221.10236 221.10236 0 0 1 3074.6465 493.22852 L 3074.6465 764.96484 A 56.692913 56.692913 0 0 1 3056.7324 806.32031 L 2935.4512 920.04492 A 119.74517 119.74517 0 0 1 2771.6348 920.04492 L 2650.3555 806.32031 A 56.692913 56.692913 0 0 1 2632.4414 764.96484 L 2632.4414 493.22852 A 221.10236 221.10236 0 0 1 2853.543 272.12695 z M 3446.9297 272.12695 A 221.10236 221.10236 0 0 1 3668.0312 493.22852 L 3668.0312 764.96484 A 56.692913 56.692913 0 0 1 3650.1172 806.32031 L 3528.8379 920.04492 A 119.74517 119.74517 0 0 1 3365.0215 920.04492 L 3243.7402 806.32031 A 56.692913 56.692913 0 0 1 3225.8262 764.96484 L 3225.8262 493.22852 A 221.10236 221.10236 0 0 1 3446.9297 272.12695 z M 4040.3145 272.12695 A 221.10236 221.10236 0 0 1 4261.418 493.22852 L 4261.418 764.96484 A 56.692913 56.692913 0 0 1 4243.5039 806.32031 L 4122.2227 920.04492 A 119.74517 119.74517 0 0 1 3958.4062 920.04492 L 3837.127 806.32031 A 56.692913 56.692913 0 0 1 3819.2129 764.96484 L 3819.2129 493.22852 A 221.10236 221.10236 0 0 1 4040.3145 272.12695 z " />
  </g>
  <g
     inkscape:groupmode="layer"
     inkscape:label="DEFPOINTS"
     id="g3757" />
</svg>
