<?xml version="1.0" encoding="UTF-8" standalone="no"?>
<svg
   sodipodi:docname="A150.svg"
   id="svg97"
   version="1.1"
   height="1122.5196850393702"
   width="793.7007874015749"
   viewBox="0 0 793.7007874015749 1122.5196850393702"
   inkscape:version="1.2.2 (732a01da63, 2022-12-09)"
   xmlns:inkscape="http://www.inkscape.org/namespaces/inkscape"
   xmlns:sodipodi="http://sodipodi.sourceforge.net/DTD/sodipodi-0.dtd"
   xmlns="http://www.w3.org/2000/svg"
   xmlns:svg="http://www.w3.org/2000/svg">
  <sodipodi:namedview
     id="namedview99"
     pagecolor="#ffffff"
     bordercolor="#000000"
     borderopacity="0.25"
     inkscape:showpageshadow="2"
     inkscape:pageopacity="0.0"
     inkscape:pagecheckerboard="0"
     inkscape:deskcolor="#d1d1d1"
     showgrid="false"
     inkscape:zoom="0.64693626"
     inkscape:cx="1138.4429"
     inkscape:cy="637.62078"
     inkscape:window-width="2492"
     inkscape:window-height="1368"
     inkscape:window-x="939"
     inkscape:window-y="0"
     inkscape:window-maximized="0"
     inkscape:current-layer="g95" />
  <desc
     id="desc2">A150.dxf - scale = 1.000000, origin = (0.000000, 0.000000), method = manual</desc>
  <defs
     id="defs67">
    <marker
       id="DistanceX"
       orient="auto"
       refX="0.0"
       refY="0.0"
       style="overflow:visible">
      <path
         d="M 3,-3 L -3,3 M 0,-5 L  0,5"
         style="stroke:#000000; stroke-width:0.5"
         id="path4" />
    </marker>
    <pattern
       id="Hatch"
       patternUnits="userSpaceOnUse"
       width="8"
       height="8"
       x="0"
       y="0">
      <path
         d="M8 4 l-4,4"
         stroke="#000000"
         stroke-width="0.25"
         linecap="square"
         id="path7" />
      <path
         d="M6 2 l-4,4"
         stroke="#000000"
         stroke-width="0.25"
         linecap="square"
         id="path9" />
      <path
         d="M4 0 l-4,4"
         stroke="#000000"
         stroke-width="0.25"
         linecap="square"
         id="path11" />
    </pattern>
    <symbol
       id="*Model_Space" />
    <symbol
       id="*Paper_Space" />
    <symbol
       id="$MODEL_SPACE" />
    <symbol
       id="$PAPER_SPACE" />
    <symbol
       id="DIMDOT">
      <path
         style="fill:none;stroke:#000000"
         d="M -7.55905 1122.52 L 7.55905 1122.52"
         id="path18" />
      <path
         style="fill:none;stroke:#000000"
         d="M 0 1135.75 L 0 1109.29"
         id="path20" />
      <path
         d="M 1.889764,1122.519685 A 1.889764,1.889764 0.000000 0, 0 -1.889764,1122.519685 A 1.889764,1.889764 0.000000 0, 0 1.889764,1122.519685 z"
         style="fill:none;stroke:#000000"
         id="path22" />
      <path
         d="M 0.944882,1122.519685 A 0.944882,0.944882 0.000000 0, 0 -0.944882,1122.519685 A 0.944882,0.944882 0.000000 0, 0 0.944882,1122.519685 z"
         style="fill:none;stroke:#000000"
         id="path24" />
    </symbol>
    <symbol
       id="VBI_A150_DDRSN_NP">
      <path
         d="M -2165.669291,555.590551 L 2165.669291,555.590551 L 2165.669291,706.771654 L 2126.286614,738.746457 L 2165.631496,915.855118 L 2214.840945,928.138583 L 2241.259843,1046.929134 L 2260.157480,1046.929134 L 2260.157480,1084.724409 L 2222.362205,1122.519685 L -2222.362205,1122.519685 L -2260.157480,1084.724409 L -2260.157480,1046.929134 L -2241.259843,1046.929134 L -2214.840945,928.138583 L -2165.631496,915.855118 L -2126.286614,738.746457 L -2165.669291,706.771654 L -2165.669291,555.590551 z"
         style="fill:none;stroke:#000000"
         id="path27" />
      <path
         d="M -633.070866,867.401575 A 122.834646,122.834646 0.0 0 1 -878.740157,867.401575 L -878.740157,810.708661 A 122.834646,122.834646 0.0 0 1 -633.070866,810.708661 L -633.070866,867.401575 z"
         style="fill:none;stroke:#000000"
         id="path29" />
      <path
         d="M -1388.976378,867.401575 A 122.834646,122.834646 0.0 0 1 -1634.645669,867.401575 L -1634.645669,810.708661 A 122.834646,122.834646 0.0 0 1 -1388.976378,810.708661 L -1388.976378,867.401575 z"
         style="fill:none;stroke:#000000"
         id="path31" />
      <path
         d="M -1766.929134,867.401575 A 122.834646,122.834646 0.0 0 1 -2012.598425,867.401575 L -2012.598425,810.708661 A 122.834646,122.834646 0.0 0 1 -1766.929134,810.708661 L -1766.929134,867.401575 z"
         style="fill:none;stroke:#000000"
         id="path33" />
      <path
         d="M -1011.023622,867.401575 A 122.834646,122.834646 0.0 0 1 -1256.692913,867.401575 L -1256.692913,810.708661 A 122.834646,122.834646 0.0 0 1 -1011.023622,810.708661 L -1011.023622,867.401575 z"
         style="fill:none;stroke:#000000"
         id="path35" />
      <path
         d="M -122.834646,867.401575 A 122.834646,122.834646 0.0 0 0 122.834646,867.401575 L 122.834646,810.708661 A 122.834646,122.834646 0.0 0 0 -122.834646,810.708661 L -122.834646,867.401575 z"
         style="fill:none;stroke:#000000"
         id="path37" />
      <path
         d="M -255.118110,867.401575 A 122.834646,122.834646 0.0 0 1 -500.787402,867.401575 L -500.787402,810.708661 A 122.834646,122.834646 0.0 0 1 -255.118110,810.708661 L -255.118110,867.401575 z"
         style="fill:none;stroke:#000000"
         id="path39" />
      <path
         d="M 255.118110,867.401575 A 122.834646,122.834646 0.0 0 0 500.787402,867.401575 L 500.787402,810.708661 A 122.834646,122.834646 0.0 0 0 255.118110,810.708661 L 255.118110,867.401575 z"
         style="fill:none;stroke:#000000"
         id="path41" />
      <path
         d="M 633.070866,867.401575 A 122.834646,122.834646 0.0 0 0 878.740157,867.401575 L 878.740157,810.708661 A 122.834646,122.834646 0.0 0 0 633.070866,810.708661 L 633.070866,867.401575 z"
         style="fill:none;stroke:#000000"
         id="path43" />
      <path
         d="M 1766.929134,867.401575 A 122.834646,122.834646 0.0 0 0 2012.598425,867.401575 L 2012.598425,810.708661 A 122.834646,122.834646 0.0 0 0 1766.929134,810.708661 L 1766.929134,867.401575 z"
         style="fill:none;stroke:#000000"
         id="path45" />
      <path
         d="M 1011.023622,867.401575 A 122.834646,122.834646 0.0 0 0 1256.692913,867.401575 L 1256.692913,810.708661 A 122.834646,122.834646 0.0 0 0 1011.023622,810.708661 L 1011.023622,867.401575 z"
         style="fill:none;stroke:#000000"
         id="path47" />
      <path
         d="M 1388.976378,867.401575 A 122.834646,122.834646 0.0 0 0 1634.645669,867.401575 L 1634.645669,810.708661 A 122.834646,122.834646 0.0 0 0 1388.976378,810.708661 L 1388.976378,867.401575 z"
         style="fill:none;stroke:#000000"
         id="path49" />
      <path
         d="M 2165.669291,555.590551 L 2165.669291,706.771654 L 2126.286614,738.746457 L 2165.631496,915.855118 L 2214.840945,928.138583 L 2241.259843,1046.929134 L 2294.173228,1046.929134 L 2320.592126,928.138583 L 2369.801575,915.855118 L 2409.146457,738.746457 L 2369.763780,706.771654 L 2369.763780,555.590551 L 2165.669291,555.590551 z"
         style="fill:none;stroke:#FF0000"
         id="path51" />
    </symbol>
    <symbol
       id="VBI_A150_DDRSN_PP">
      <path
         d="M -633.070866,867.401575 A 122.834646,122.834646 0.0 0 1 -878.740157,867.401575 L -878.740157,810.708661 A 122.834646,122.834646 0.0 0 1 -633.070866,810.708661 L -633.070866,867.401575 z"
         style="fill:none;stroke:#000000"
         id="path54" />
      <path
         d="M -1388.976378,867.401575 A 122.834646,122.834646 0.0 0 1 -1634.645669,867.401575 L -1634.645669,810.708661 A 122.834646,122.834646 0.0 0 1 -1388.976378,810.708661 L -1388.976378,867.401575 z"
         style="fill:none;stroke:#000000"
         id="path56" />
      <path
         d="M -1766.929134,867.401575 A 122.834646,122.834646 0.0 0 1 -2012.598425,867.401575 L -2012.598425,810.708661 A 122.834646,122.834646 0.0 0 1 -1766.929134,810.708661 L -1766.929134,867.401575 z"
         style="fill:none;stroke:#000000"
         id="path58" />
      <path
         d="M -1011.023622,867.401575 A 122.834646,122.834646 0.0 0 1 -1256.692913,867.401575 L -1256.692913,810.708661 A 122.834646,122.834646 0.0 0 1 -1011.023622,810.708661 L -1011.023622,867.401575 z"
         style="fill:none;stroke:#000000"
         id="path60" />
      <path
         d="M 0.000000,1122.519685 L -2229.921260,1122.519685 L -2267.716535,1084.724409 L -2267.716535,1046.929134 L -2248.818898,1046.929134 L -2222.400000,928.138583 L -2173.190551,915.855118 L -2133.845669,738.746457 L -2173.228346,706.771654 L -2173.228346,555.590551 L 0.000000,555.590551 L 0.000000,687.874016 A 122.834646,122.834646 0.0 0 0 -122.834646,810.708661 L -122.834646,867.401575 A 122.834646,122.834646 0.0 0 0 0.000000,990.236220 L 0.000000,1122.519685 z"
         style="fill:none;stroke:#000000"
         id="path62" />
      <path
         d="M -255.118110,867.401575 A 122.834646,122.834646 0.0 0 1 -500.787402,867.401575 L -500.787402,810.708661 A 122.834646,122.834646 0.0 0 1 -255.118110,810.708661 L -255.118110,867.401575 z"
         style="fill:none;stroke:#000000"
         id="path64" />
    </symbol>
  </defs>
  <g
     inkscape:groupmode="layer"
     inkscape:label="0"
     id="g69" />
  <g
     inkscape:groupmode="layer"
     inkscape:label="concrete"
     id="g95">
    <path
       id="path71"
       style="fill:#c0c0c0;fill-opacity:1;stroke:#000000"
       d="M 94.488281 555.58984 L 94.488281 706.77148 L 133.87109 738.74609 L 94.525391 915.85547 L 45.316406 928.13867 L 18.898438 1046.9297 L 0 1046.9297 L 0 1084.7246 L 37.794922 1122.5195 L 4482.5195 1122.5195 L 4520.3145 1084.7246 L 4520.3145 1046.9297 L 4501.418 1046.9297 L 4474.998 928.13867 L 4425.7891 915.85547 L 4386.4434 738.74609 L 4425.8262 706.77148 L 4425.8262 555.58984 L 94.488281 555.58984 z M 3016.0625 687.87305 A 122.83465 122.83465 0 0 1 3138.8984 810.70898 L 3138.8984 867.40234 A 122.83496 122.83496 0 0 1 2893.2285 867.40234 L 2893.2285 810.70898 A 122.83465 122.83465 0 0 1 3016.0625 687.87305 z M 3394.0156 687.87305 A 122.83465 122.83465 0 0 1 3516.8496 810.70898 L 3516.8496 867.40234 A 122.83465 122.83465 0 0 1 3271.1816 867.40234 L 3271.1816 810.70898 A 122.83465 122.83465 0 0 1 3394.0156 687.87305 z M 3771.9688 687.87305 A 122.83465 122.83465 0 0 1 3894.8027 810.70898 L 3894.8027 867.40234 A 122.83465 122.83465 0 0 1 3649.1348 867.40234 L 3649.1348 810.70898 A 122.83465 122.83465 0 0 1 3771.9688 687.87305 z M 4149.9219 687.87305 A 122.83465 122.83465 0 0 1 4272.7559 810.70898 L 4272.7559 867.40234 A 122.83496 122.83496 0 0 1 4027.0859 867.40234 L 4027.0859 810.70898 A 122.83465 122.83465 0 0 1 4149.9219 687.87305 z M 370.39453 687.88477 A 122.83465 122.83465 0 0 1 493.22852 810.70898 L 493.22852 867.40234 A 122.83497 122.83497 0 0 1 247.55859 867.40234 L 247.55859 810.70898 A 122.83465 122.83465 0 0 1 370.39453 687.88477 z M 748.3457 687.88477 A 122.83465 122.83465 0 0 1 871.18164 810.70898 L 871.18164 867.40234 A 122.83496 122.83496 0 0 1 625.51172 867.40234 L 625.51172 810.70898 A 122.83465 122.83465 0 0 1 748.3457 687.88477 z M 1126.2988 687.88477 A 122.83465 122.83465 0 0 1 1249.1348 810.70898 L 1249.1348 867.40234 A 122.835 122.835 0 0 1 1003.4648 867.40234 L 1003.4648 810.70898 A 122.83465 122.83465 0 0 1 1126.2988 687.88477 z M 1504.252 687.88477 A 122.83465 122.83465 0 0 1 1627.0859 810.70898 L 1627.0859 867.40234 A 122.83465 122.83465 0 0 1 1381.418 867.40234 L 1381.418 810.70898 A 122.83465 122.83465 0 0 1 1504.252 687.88477 z M 1882.2051 687.88477 A 122.83465 122.83465 0 0 1 2005.0391 810.70898 L 2005.0391 867.40234 A 122.835 122.835 0 0 1 1759.3691 867.40234 L 1759.3691 810.70898 A 122.83465 122.83465 0 0 1 1882.2051 687.88477 z M 2260.1582 687.88477 A 122.83465 122.83465 0 0 1 2382.9922 810.70898 L 2382.9922 867.40234 A 122.83496 122.83496 0 0 1 2137.3223 867.40234 L 2137.3223 810.70898 A 122.83465 122.83465 0 0 1 2260.1582 687.88477 z M 2638.1094 687.88477 A 122.83465 122.83465 0 0 1 2760.9453 810.70898 L 2760.9453 867.40234 A 122.83496 122.83496 0 0 1 2515.2754 867.40234 L 2515.2754 810.70898 A 122.83465 122.83465 0 0 1 2638.1094 687.88477 z " />
  </g>
</svg>
