<?xml version="1.0" encoding="UTF-8" standalone="no"?>
<svg
   viewBox="0 0 793.7007874015749 1122.5196850393702"
   width="793.7007874015749"
   height="1122.5196850393702"
   version="1.1"
   id="svg276"
   sodipodi:docname="AL320.svg"
   inkscape:version="1.2.2 (732a01da63, 2022-12-09)"
   xmlns:inkscape="http://www.inkscape.org/namespaces/inkscape"
   xmlns:sodipodi="http://sodipodi.sourceforge.net/DTD/sodipodi-0.dtd"
   xmlns:xlink="http://www.w3.org/1999/xlink"
   xmlns="http://www.w3.org/2000/svg"
   xmlns:svg="http://www.w3.org/2000/svg">
  <sodipodi:namedview
     id="namedview278"
     pagecolor="#ffffff"
     bordercolor="#000000"
     borderopacity="0.25"
     inkscape:showpageshadow="2"
     inkscape:pageopacity="0.0"
     inkscape:pagecheckerboard="0"
     inkscape:deskcolor="#d1d1d1"
     showgrid="false"
     inkscape:zoom="0.32346813"
     inkscape:cx="799.15137"
     inkscape:cy="268.96004"
     inkscape:window-width="3440"
     inkscape:window-height="1377"
     inkscape:window-x="-8"
     inkscape:window-y="-8"
     inkscape:window-maximized="1"
     inkscape:current-layer="g274" />
  <desc
     id="desc2">AL320.dxf - scale = 1.000000, origin = (0.000000, 0.000000), method = manual</desc>
  <defs
     id="defs244">
    <marker
       id="DistanceX"
       orient="auto"
       refX="0.0"
       refY="0.0"
       style="overflow:visible">
      <path
         d="M 3,-3 L -3,3 M 0,-5 L  0,5"
         style="stroke:#000000; stroke-width:0.5"
         id="path4" />
    </marker>
    <pattern
       id="Hatch"
       patternUnits="userSpaceOnUse"
       width="8"
       height="8"
       x="0"
       y="0">
      <path
         d="M8 4 l-4,4"
         stroke="#000000"
         stroke-width="0.25"
         linecap="square"
         id="path7" />
      <path
         d="M6 2 l-4,4"
         stroke="#000000"
         stroke-width="0.25"
         linecap="square"
         id="path9" />
      <path
         d="M4 0 l-4,4"
         stroke="#000000"
         stroke-width="0.25"
         linecap="square"
         id="path11" />
    </pattern>
    <symbol
       id="*Model_Space" />
    <symbol
       id="*Paper_Space" />
    <symbol
       id="$MODEL_SPACE" />
    <symbol
       id="$PAPER_SPACE" />
    <symbol
       id="DIMDOT">
      <path
         style="fill:none;stroke:#000000"
         d="M -7.55905 1122.52 L 7.55905 1122.52"
         id="path18" />
      <path
         style="fill:none;stroke:#000000"
         d="M 0 1135.75 L 0 1109.29"
         id="path20" />
      <path
         d="M 1.889764,1122.519685 A 1.889764,1.889764 0.000000 0, 0 -1.889764,1122.519685 A 1.889764,1.889764 0.000000 0, 0 1.889764,1122.519685 z"
         style="fill:none;stroke:#000000"
         id="path22" />
      <path
         d="M 0.944882,1122.519685 A 0.944882,0.944882 0.000000 0, 0 -0.944882,1122.519685 A 0.944882,0.944882 0.000000 0, 0 0.944882,1122.519685 z"
         style="fill:none;stroke:#000000"
         id="path24" />
    </symbol>
    <symbol
       id="VBI_AL320_DDRSN_NP">
      <path
         d="M 2267.716535,-86.929134 L 2369.763780,-86.929134 L 2369.763780,64.251969 L 2415.118110,109.606299 L 2415.118110,245.669291 L 2369.763780,291.023622 L 2369.763780,593.385827 L 2409.840887,628.802805 L 2389.149915,752.948636 L 2332.482749,817.072008 L 2294.173228,1046.929134 L 2267.716535,1046.929134 L 2241.259843,1046.929134 L 2202.950322,817.072008 L 2146.283156,752.948636 L 2125.592184,628.802805 L 2165.669291,593.385827 L 2165.669291,291.023622 L 2120.314961,245.669291 L 2120.314961,109.606299 L 2165.669291,64.251969 L 2165.669291,-86.929134 L 2267.716535,-86.929134 z"
         style="fill:none;stroke:#FF0000"
         id="path27" />
      <use
         xlink:href="#%2AU4"
         style="stroke-width:0.500px"
         id="use29" />
    </symbol>
    <symbol
       id="*U4">
      <path
         style="fill:none;stroke:#000000"
         d="M -472.441 404.409 L -472.441 306.142"
         id="path32" />
      <path
         d="M -283.464567,306.141732 A 94.488189,94.488189 0.000000 0 0 -472.440945,306.141732"
         style="fill:none;stroke:#000000"
         id="path34" />
      <path
         style="fill:none;stroke:#000000"
         d="M -283.465 306.142 L -283.465 404.409"
         id="path36" />
      <path
         d="M -321.259843,442.204724 A 37.795276,37.795276 0.000000 0 0 -283.464567,404.409449"
         style="fill:none;stroke:#000000"
         id="path38" />
      <path
         style="fill:none;stroke:#000000"
         d="M -321.26 442.205 L -434.646 442.205"
         id="path40" />
      <path
         d="M -472.440945,404.409449 A 37.795276,37.795276 0.000000 0 0 -434.645669,442.204724"
         style="fill:none;stroke:#000000"
         id="path42" />
      <path
         style="fill:none;stroke:#000000"
         d="M -850.394 404.409 L -850.394 306.142"
         id="path44" />
      <path
         d="M -661.417323,306.141732 A 94.488189,94.488189 0.000000 0 0 -850.393701,306.141732"
         style="fill:none;stroke:#000000"
         id="path46" />
      <path
         style="fill:none;stroke:#000000"
         d="M -661.417 306.142 L -661.417 404.409"
         id="path48" />
      <path
         d="M -699.212598,442.204724 A 37.795276,37.795276 0.000000 0 0 -661.417323,404.409449"
         style="fill:none;stroke:#000000"
         id="path50" />
      <path
         style="fill:none;stroke:#000000"
         d="M -699.213 442.205 L -812.598 442.205"
         id="path52" />
      <path
         d="M -850.393701,404.409449 A 37.795276,37.795276 0.000000 0 0 -812.598425,442.204724"
         style="fill:none;stroke:#000000"
         id="path54" />
      <path
         style="fill:none;stroke:#000000"
         d="M -1228.35 404.409 L -1228.35 306.142"
         id="path56" />
      <path
         d="M -1039.370079,306.141732 A 94.488189,94.488189 0.000000 0 0 -1228.346457,306.141732"
         style="fill:none;stroke:#000000"
         id="path58" />
      <path
         style="fill:none;stroke:#000000"
         d="M -1039.37 306.142 L -1039.37 404.409"
         id="path60" />
      <path
         d="M -1077.165354,442.204724 A 37.795276,37.795276 0.000000 0 0 -1039.370079,404.409449"
         style="fill:none;stroke:#000000"
         id="path62" />
      <path
         style="fill:none;stroke:#000000"
         d="M -1077.17 442.205 L -1190.55 442.205"
         id="path64" />
      <path
         d="M -1228.346457,404.409449 A 37.795276,37.795276 0.000000 0 0 -1190.551181,442.204724"
         style="fill:none;stroke:#000000"
         id="path66" />
      <path
         style="fill:none;stroke:#000000"
         d="M -1984.25 366.614 L -1984.25 268.346"
         id="path68" />
      <path
         d="M -1795.275591,268.346457 A 94.488189,94.488189 0.000000 0 0 -1984.251969,268.346457"
         style="fill:none;stroke:#000000"
         id="path70" />
      <path
         style="fill:none;stroke:#000000"
         d="M -1795.28 268.346 L -1795.28 366.614"
         id="path72" />
      <path
         d="M -1833.070866,404.409449 A 37.795276,37.795276 0.000000 0 0 -1795.275591,366.614173"
         style="fill:none;stroke:#000000"
         id="path74" />
      <path
         style="fill:none;stroke:#000000"
         d="M -1833.07 404.409 L -1946.46 404.409"
         id="path76" />
      <path
         d="M -1984.251969,366.614173 A 37.795276,37.795276 0.000000 0 0 -1946.456693,404.409449"
         style="fill:none;stroke:#000000"
         id="path78" />
      <path
         style="fill:none;stroke:#000000"
         d="M -1606.3 404.409 L -1606.3 306.142"
         id="path80" />
      <path
         d="M -1417.322835,306.141732 A 94.488189,94.488189 0.000000 0 0 -1606.299213,306.141732"
         style="fill:none;stroke:#000000"
         id="path82" />
      <path
         style="fill:none;stroke:#000000"
         d="M -1417.32 306.142 L -1417.32 404.409"
         id="path84" />
      <path
         d="M -1455.118110,442.204724 A 37.795276,37.795276 0.000000 0 0 -1417.322835,404.409449"
         style="fill:none;stroke:#000000"
         id="path86" />
      <path
         style="fill:none;stroke:#000000"
         d="M -1455.12 442.205 L -1568.5 442.205"
         id="path88" />
      <path
         d="M -1606.299213,404.409449 A 37.795276,37.795276 0.000000 0 0 -1568.503937,442.204724"
         style="fill:none;stroke:#000000"
         id="path90" />
      <path
         style="fill:none;stroke:#000000"
         d="M 434.646 442.205 L 321.26 442.205"
         id="path92" />
      <path
         d="M 283.464567,404.409449 A 37.795276,37.795276 0.000000 0 0 321.259843,442.204724"
         style="fill:none;stroke:#000000"
         id="path94" />
      <path
         style="fill:none;stroke:#000000"
         d="M 283.465 404.409 L 283.465 306.142"
         id="path96" />
      <path
         d="M 472.440945,306.141732 A 94.488189,94.488189 0.000000 0 0 283.464567,306.141732"
         style="fill:none;stroke:#000000"
         id="path98" />
      <path
         style="fill:none;stroke:#000000"
         d="M 472.441 306.142 L 472.441 404.409"
         id="path100" />
      <path
         d="M 434.645669,442.204724 A 37.795276,37.795276 0.000000 0 0 472.440945,404.409449"
         style="fill:none;stroke:#000000"
         id="path102" />
      <path
         style="fill:none;stroke:#000000"
         d="M 812.598 442.205 L 699.213 442.205"
         id="path104" />
      <path
         d="M 661.417323,404.409449 A 37.795276,37.795276 0.000000 0 0 699.212598,442.204724"
         style="fill:none;stroke:#000000"
         id="path106" />
      <path
         style="fill:none;stroke:#000000"
         d="M 661.417 404.409 L 661.417 306.142"
         id="path108" />
      <path
         d="M 850.393701,306.141732 A 94.488189,94.488189 0.000000 0 0 661.417323,306.141732"
         style="fill:none;stroke:#000000"
         id="path110" />
      <path
         style="fill:none;stroke:#000000"
         d="M 850.394 306.142 L 850.394 404.409"
         id="path112" />
      <path
         d="M 812.598425,442.204724 A 37.795276,37.795276 0.000000 0 0 850.393701,404.409449"
         style="fill:none;stroke:#000000"
         id="path114" />
      <path
         style="fill:none;stroke:#000000"
         d="M 1190.55 442.205 L 1077.17 442.205"
         id="path116" />
      <path
         d="M 1039.370079,404.409449 A 37.795276,37.795276 0.000000 0 0 1077.165354,442.204724"
         style="fill:none;stroke:#000000"
         id="path118" />
      <path
         style="fill:none;stroke:#000000"
         d="M 1039.37 404.409 L 1039.37 306.142"
         id="path120" />
      <path
         d="M 1228.346457,306.141732 A 94.488189,94.488189 0.000000 0 0 1039.370079,306.141732"
         style="fill:none;stroke:#000000"
         id="path122" />
      <path
         style="fill:none;stroke:#000000"
         d="M 1228.35 306.142 L 1228.35 404.409"
         id="path124" />
      <path
         d="M 1190.551181,442.204724 A 37.795276,37.795276 0.000000 0 0 1228.346457,404.409449"
         style="fill:none;stroke:#000000"
         id="path126" />
      <path
         style="fill:none;stroke:#000000"
         d="M 1946.46 404.409 L 1833.07 404.409"
         id="path128" />
      <path
         d="M 1795.275591,366.614173 A 37.795276,37.795276 0.000000 0 0 1833.070866,404.409449"
         style="fill:none;stroke:#000000"
         id="path130" />
      <path
         style="fill:none;stroke:#000000"
         d="M 1795.28 366.614 L 1795.28 268.346"
         id="path132" />
      <path
         d="M 1984.251969,268.346457 A 94.488189,94.488189 0.000000 0 0 1795.275591,268.346457"
         style="fill:none;stroke:#000000"
         id="path134" />
      <path
         style="fill:none;stroke:#000000"
         d="M 1984.25 268.346 L 1984.25 366.614"
         id="path136" />
      <path
         d="M 1946.456693,404.409449 A 37.795276,37.795276 0.000000 0 0 1984.251969,366.614173"
         style="fill:none;stroke:#000000"
         id="path138" />
      <path
         style="fill:none;stroke:#000000"
         d="M 1568.5 442.205 L 1455.12 442.205"
         id="path140" />
      <path
         d="M 1417.322835,404.409449 A 37.795276,37.795276 0.000000 0 0 1455.118110,442.204724"
         style="fill:none;stroke:#000000"
         id="path142" />
      <path
         style="fill:none;stroke:#000000"
         d="M 1417.32 404.409 L 1417.32 306.142"
         id="path144" />
      <path
         d="M 1606.299213,306.141732 A 94.488189,94.488189 0.000000 0 0 1417.322835,306.141732"
         style="fill:none;stroke:#000000"
         id="path146" />
      <path
         style="fill:none;stroke:#000000"
         d="M 1606.3 306.142 L 1606.3 404.409"
         id="path148" />
      <path
         d="M 1568.503937,442.204724 A 37.795276,37.795276 0.000000 0 0 1606.299213,404.409449"
         style="fill:none;stroke:#000000"
         id="path150" />
      <path
         style="fill:none;stroke:#000000"
         d="M -94.4882 404.409 L -94.4882 306.142"
         id="path152" />
      <path
         d="M 94.488189,306.141732 A 94.488189,94.488189 0.000000 0 0 -94.488189,306.141732"
         style="fill:none;stroke:#000000"
         id="path154" />
      <path
         style="fill:none;stroke:#000000"
         d="M 94.4882 306.142 L 94.4882 404.409"
         id="path156" />
      <path
         d="M 56.692913,442.204724 A 37.795276,37.795276 0.000000 0 0 94.488189,404.409449"
         style="fill:none;stroke:#000000"
         id="path158" />
      <path
         style="fill:none;stroke:#000000"
         d="M 56.6929 442.205 L -56.6929 442.205"
         id="path160" />
      <path
         d="M -94.488189,404.409449 A 37.795276,37.795276 0.000000 0 0 -56.692913,442.204724"
         style="fill:none;stroke:#000000"
         id="path162" />
      <path
         style="fill:none;stroke:#000000"
         d="M -2125.59 628.803 L -2165.67 593.386"
         id="path164" />
      <path
         style="fill:none;stroke:#000000"
         d="M -2146.28 752.949 L -2125.59 628.803"
         id="path166" />
      <path
         style="fill:none;stroke:#000000"
         d="M -2202.95 817.072 L -2146.28 752.949"
         id="path168" />
      <path
         style="fill:none;stroke:#000000"
         d="M -2241.26 1046.93 L -2202.95 817.072"
         id="path170" />
      <path
         style="fill:none;stroke:#000000"
         d="M -2260.16 1046.93 L -2241.26 1046.93"
         id="path172" />
      <path
         style="fill:none;stroke:#000000"
         d="M -2260.16 1084.72 L -2260.16 1046.93"
         id="path174" />
      <path
         style="fill:none;stroke:#000000"
         d="M -2222.36 1122.52 L -2260.16 1084.72"
         id="path176" />
      <path
         style="fill:none;stroke:#000000"
         d="M 2222.36 1122.52 L -2222.36 1122.52"
         id="path178" />
      <path
         style="fill:none;stroke:#000000"
         d="M 2260.16 1084.72 L 2222.36 1122.52"
         id="path180" />
      <path
         style="fill:none;stroke:#000000"
         d="M 2260.16 1046.93 L 2260.16 1084.72"
         id="path182" />
      <path
         style="fill:none;stroke:#000000"
         d="M 2241.26 1046.93 L 2260.16 1046.93"
         id="path184" />
      <path
         style="fill:none;stroke:#000000"
         d="M 2202.95 817.072 L 2241.26 1046.93"
         id="path186" />
      <path
         style="fill:none;stroke:#000000"
         d="M 2146.28 752.949 L 2202.95 817.072"
         id="path188" />
      <path
         style="fill:none;stroke:#000000"
         d="M 2125.59 628.803 L 2146.28 752.949"
         id="path190" />
      <path
         style="fill:none;stroke:#000000"
         d="M 2165.67 593.386 L 2125.59 628.803"
         id="path192" />
      <path
         style="fill:none;stroke:#000000"
         d="M 2165.67 291.024 L 2165.67 593.386"
         id="path194" />
      <path
         style="fill:none;stroke:#000000"
         d="M 2120.31 245.669 L 2165.67 291.024"
         id="path196" />
      <path
         style="fill:none;stroke:#000000"
         d="M 2120.31 109.606 L 2120.31 245.669"
         id="path198" />
      <path
         style="fill:none;stroke:#000000"
         d="M 2165.67 64.252 L 2120.31 109.606"
         id="path200" />
      <path
         style="fill:none;stroke:#000000"
         d="M 2165.67 -86.9291 L 2165.67 64.252"
         id="path202" />
      <path
         style="fill:none;stroke:#000000"
         d="M -2165.67 -86.9291 L 2165.67 -86.9291"
         id="path204" />
      <path
         style="fill:none;stroke:#000000"
         d="M -2165.67 64.252 L -2165.67 -86.9291"
         id="path206" />
      <path
         style="fill:none;stroke:#000000"
         d="M -2120.31 109.606 L -2165.67 64.252"
         id="path208" />
      <path
         style="fill:none;stroke:#000000"
         d="M -2120.31 245.669 L -2120.31 109.606"
         id="path210" />
      <path
         style="fill:none;stroke:#000000"
         d="M -2165.67 291.024 L -2120.31 245.669"
         id="path212" />
      <path
         style="fill:none;stroke:#000000"
         d="M -2165.67 593.386 L -2165.67 291.024"
         id="path214" />
    </symbol>
    <symbol
       id="VBI_AL320_DDRSN_PP">
      <path
         d="M -94.488189,306.141732 L -94.488189,404.409449 A 37.795276,37.795276 0.0 0 0 -56.692913,442.204724 L 0.000000,442.204724 L 0.000000,1122.519685 L -2222.362205,1122.519685 L -2260.157480,1084.724409 L -2260.157480,1046.929134 L -2241.259843,1046.929134 L -2202.950322,817.072008 L -2146.283156,752.948636 L -2125.592184,628.802805 L -2165.669291,593.385827 L -2165.669291,291.023622 L -2120.314961,245.669291 L -2120.314961,109.606299 L -2165.669291,64.251969 L -2165.669291,-86.929134 L 0.000000,-86.929134 L -0.000000,211.653543 A 90.313683,90.313683 0.0 0 0 -94.488189,306.141732 z"
         style="fill:none;stroke:#000000"
         id="path217" />
      <path
         d="M -1795.275591,366.614173 L -1795.275591,268.346457 A 94.488189,94.488189 0.0 0 0 -1984.251969,268.346457 L -1984.251969,366.614173 A 37.795276,37.795276 0.0 0 0 -1946.456693,404.409449 L -1833.070866,404.409449 A 37.795276,37.795276 0.0 0 0 -1795.275591,366.614173 z"
         style="fill:none;stroke:#000000"
         id="path219" />
      <path
         d="M -1417.322835,404.409449 L -1417.322835,306.141732 A 94.488189,94.488189 0.0 0 0 -1606.299213,306.141732 L -1606.299213,404.409449 A 37.795276,37.795276 0.0 0 0 -1568.503937,442.204724 L -1455.118110,442.204724 A 37.795276,37.795276 0.0 0 0 -1417.322835,404.409449 z"
         style="fill:none;stroke:#000000"
         id="path221" />
      <path
         d="M -1039.370079,404.409449 L -1039.370079,306.141732 A 94.488189,94.488189 0.0 0 0 -1228.346457,306.141732 L -1228.346457,404.409449 A 37.795276,37.795276 0.0 0 0 -1190.551181,442.204724 L -1077.165354,442.204724 A 37.795276,37.795276 0.0 0 0 -1039.370079,404.409449 z"
         style="fill:none;stroke:#000000"
         id="path223" />
      <path
         d="M -661.417323,404.409449 L -661.417323,306.141732 A 94.488189,94.488189 0.0 0 0 -850.393701,306.141732 L -850.393701,404.409449 A 37.795276,37.795276 0.0 0 0 -812.598425,442.204724 L -699.212598,442.204724 A 37.795276,37.795276 0.0 0 0 -661.417323,404.409449 z"
         style="fill:none;stroke:#000000"
         id="path225" />
      <path
         d="M -283.464567,404.409449 L -283.464567,306.141732 A 94.488189,94.488189 0.0 0 0 -472.440945,306.141732 L -472.440945,404.409449 A 37.795276,37.795276 0.0 0 0 -434.645669,442.204724 L -321.259843,442.204724 A 37.795276,37.795276 0.0 0 0 -283.464567,404.409449 z"
         style="fill:none;stroke:#000000"
         id="path227" />
    </symbol>
    <symbol
       id="*U6">
      <path
         d="M 0.000000,-86.929134 L 9070.866142,-86.929134 L 9070.866142,1122.519685 L 0.000000,1122.519685 L 0.000000,-86.929134 z"
         style="fill:none;stroke:#000000"
         id="path230" />
      <path
         d="M 0.000000,442.204724 L 9070.866142,442.204724"
         style="fill:none;stroke:#000000;stroke-dasharray:188.9764,94.4882,"
         id="path232" />
      <path
         d="M 0.000000,211.653543 L 9070.866142,211.653543"
         style="fill:none;stroke:#000000;stroke-dasharray:188.9764,94.4882,"
         id="path234" />
    </symbol>
    <symbol
       id="*U7">
      <path
         d="M 0.000000,-86.929134 L 9070.866142,-86.929134 L 9070.866142,1122.519685 L 0.000000,1122.519685 L 0.000000,-86.929134 z"
         style="fill:none;stroke:#000000"
         id="path237" />
      <path
         d="M 0.000000,442.204724 L 9070.866142,442.204724"
         style="fill:none;stroke:#000000;stroke-dasharray:188.9764,94.4882,"
         id="path239" />
      <path
         d="M 0.000000,211.653543 L 9070.866142,211.653543"
         style="fill:none;stroke:#000000;stroke-dasharray:188.9764,94.4882,"
         id="path241" />
    </symbol>
  </defs>
  <g
     inkscape:groupmode="layer"
     inkscape:label="0"
     id="g246" />
  <g
     inkscape:groupmode="layer"
     inkscape:label="A--L23"
     id="g248" />
  <g
     inkscape:groupmode="layer"
     inkscape:label="beton"
     id="g274">
    <path
       id="path250"
       style="fill:#c0c0c0;stroke:#000000;fill-opacity:1"
       d="M 94.488281 -86.929688 L 94.488281 64.251953 L 139.8418 109.60547 L 139.8418 245.66992 L 94.488281 291.02344 L 94.488281 593.38672 L 134.56445 628.80273 L 113.875 752.94922 L 57.207031 817.07227 L 18.898438 1046.9297 L 0 1046.9297 L 0 1084.7246 L 37.794922 1122.5195 L 4482.5195 1122.5195 L 4520.3145 1084.7246 L 4520.3145 1046.9297 L 4501.418 1046.9297 L 4463.1074 817.07227 L 4406.4414 752.94922 L 4385.75 628.80273 L 4425.8262 593.38672 L 4425.8262 291.02344 L 4380.4727 245.66992 L 4380.4727 109.60547 L 4425.8262 64.251953 L 4425.8262 -86.929688 L 94.488281 -86.929688 z M 370.39453 173.85742 A 94.488189 94.488189 0 0 1 464.88281 268.3457 L 464.88281 366.61328 A 37.795276 37.795276 0 0 1 427.08594 404.41016 L 313.70117 404.41016 A 37.795276 37.795276 0 0 1 275.90625 366.61328 L 275.90625 268.3457 A 94.488189 94.488189 0 0 1 341.19531 178.48242 A 94.488189 94.488189 0 0 1 370.39453 173.85742 z M 4120.7227 178.48242 A 94.488189 94.488189 0 0 1 4244.4102 268.3457 L 4244.4102 366.61328 A 37.795276 37.795276 0 0 1 4206.6133 404.41016 L 4093.2285 404.41016 A 37.795276 37.795276 0 0 1 4055.4336 366.61328 L 4055.4336 268.3457 A 94.488189 94.488189 0 0 1 4120.7227 178.48242 z M 1504.252 211.66211 A 94.488189 94.488189 0 0 1 1598.7402 306.14258 L 1598.7402 404.41016 A 37.795276 37.795276 0 0 1 1560.9453 442.20508 L 1447.5586 442.20508 A 37.795276 37.795276 0 0 1 1409.7637 404.41016 L 1409.7637 306.14258 A 94.488189 94.488189 0 0 1 1475.0547 216.28711 A 94.488189 94.488189 0 0 1 1504.252 211.66211 z M 1884.3242 211.67578 A 94.488189 94.488189 0 0 1 1976.6934 306.14258 L 1976.6934 404.41016 A 37.795276 37.795276 0 0 1 1938.8984 442.20508 L 1825.5117 442.20508 A 37.795276 37.795276 0 0 1 1787.7168 404.41016 L 1787.7168 306.14258 A 94.488189 94.488189 0 0 1 1853.0059 216.27734 A 94.488189 94.488189 0 0 1 1884.3242 211.67578 z M 2262.2773 211.67578 A 94.488189 94.488189 0 0 1 2354.6465 306.14258 L 2354.6465 404.41016 A 37.795276 37.795276 0 0 1 2316.8496 442.20508 L 2203.4648 442.20508 A 37.795276 37.795276 0 0 1 2165.6699 404.41016 L 2165.6699 306.14258 A 94.488189 94.488189 0 0 1 2230.959 216.27734 A 94.488189 94.488189 0 0 1 2262.2773 211.67578 z M 3396.1348 211.67578 A 94.488189 94.488189 0 0 1 3488.5039 306.14258 L 3488.5039 404.41016 A 37.795276 37.795276 0 0 1 3450.709 442.20508 L 3337.3223 442.20508 A 37.795276 37.795276 0 0 1 3299.5273 404.41016 L 3299.5273 306.14258 A 94.488189 94.488189 0 0 1 3364.8164 216.27734 A 94.488189 94.488189 0 0 1 3396.1348 211.67578 z M 3774.0879 211.67578 A 94.488189 94.488189 0 0 1 3866.457 306.14258 L 3866.457 404.41016 A 37.795276 37.795276 0 0 1 3828.6621 442.20508 L 3715.2754 442.20508 A 37.795276 37.795276 0 0 1 3677.4805 404.41016 L 3677.4805 306.14258 A 94.488189 94.488189 0 0 1 3742.7695 216.27734 A 94.488189 94.488189 0 0 1 3774.0879 211.67578 z M 750.4668 211.67773 A 94.488189 94.488189 0 0 1 842.83398 306.14258 L 842.83398 404.41016 A 37.795276 37.795276 0 0 1 805.03906 442.20508 L 691.6543 442.20508 A 37.795276 37.795276 0 0 1 653.85742 404.41016 L 653.85742 306.14258 A 94.488189 94.488189 0 0 1 719.14844 216.27734 A 94.488189 94.488189 0 0 1 750.4668 211.67773 z M 1128.4199 211.67773 A 94.488189 94.488189 0 0 1 1220.7871 306.14258 L 1220.7871 404.41016 A 37.795276 37.795276 0 0 1 1182.9922 442.20508 L 1069.6055 442.20508 A 37.795276 37.795276 0 0 1 1031.8105 404.41016 L 1031.8105 306.14258 A 94.488189 94.488189 0 0 1 1097.1016 216.27734 A 94.488189 94.488189 0 0 1 1128.4199 211.67773 z M 2640.2305 211.67773 A 94.488189 94.488189 0 0 1 2732.5977 306.14258 L 2732.5977 404.41016 A 37.795276 37.795276 0 0 1 2694.8027 442.20508 L 2581.418 442.20508 A 37.795276 37.795276 0 0 1 2543.6211 404.41016 L 2543.6211 306.14258 A 94.488189 94.488189 0 0 1 2608.9121 216.27734 A 94.488189 94.488189 0 0 1 2640.2305 211.67773 z M 3018.1836 211.67773 A 94.488189 94.488189 0 0 1 3110.5508 306.14258 L 3110.5508 404.41016 A 37.795276 37.795276 0 0 1 3072.7559 442.20508 L 2959.3691 442.20508 A 37.795276 37.795276 0 0 1 2921.5742 404.41016 L 2921.5742 306.14258 A 94.488189 94.488189 0 0 1 2986.8652 216.27734 A 94.488189 94.488189 0 0 1 3018.1836 211.67773 z " />
  </g>
</svg>
