<?xml version="1.0" encoding="UTF-8" standalone="no"?>
<svg
   viewBox="0 0 793.7007874015749 1122.5196850393702"
   width="793.7007874015749"
   height="1122.5196850393702"
   version="1.1"
   id="svg1892"
   sodipodi:docname="Leidingvloer 200 Rc=4,2.svg"
   inkscape:version="1.2.2 (732a01da63, 2022-12-09)"
   xmlns:inkscape="http://www.inkscape.org/namespaces/inkscape"
   xmlns:sodipodi="http://sodipodi.sourceforge.net/DTD/sodipodi-0.dtd"
   xmlns="http://www.w3.org/2000/svg"
   xmlns:svg="http://www.w3.org/2000/svg">
  <sodipodi:namedview
     id="namedview1894"
     pagecolor="#ffffff"
     bordercolor="#000000"
     borderopacity="0.25"
     inkscape:showpageshadow="2"
     inkscape:pageopacity="0.0"
     inkscape:pagecheckerboard="0"
     inkscape:deskcolor="#d1d1d1"
     showgrid="false"
     inkscape:zoom="0.26146536"
     inkscape:cx="1504.9795"
     inkscape:cy="221.82671"
     inkscape:window-width="3440"
     inkscape:window-height="1377"
     inkscape:window-x="-8"
     inkscape:window-y="-8"
     inkscape:window-maximized="1"
     inkscape:current-layer="g1864" />
  <desc
     id="desc1775">Leidingvloer 200 Rc=4,2.dxf - scale = 1.000000, origin = (0.000000, 0.000000), method = manual</desc>
  <defs
     id="defs1858">
    <marker
       id="DistanceX"
       orient="auto"
       refX="0.0"
       refY="0.0"
       style="overflow:visible">
      <path
         d="M 3,-3 L -3,3 M 0,-5 L  0,5"
         style="stroke:#000000; stroke-width:0.5"
         id="path1777" />
    </marker>
    <pattern
       id="Hatch"
       patternUnits="userSpaceOnUse"
       width="8"
       height="8"
       x="0"
       y="0">
      <path
         d="M8 4 l-4,4"
         stroke="#000000"
         stroke-width="0.25"
         linecap="square"
         id="path1780" />
      <path
         d="M6 2 l-4,4"
         stroke="#000000"
         stroke-width="0.25"
         linecap="square"
         id="path1782" />
      <path
         d="M4 0 l-4,4"
         stroke="#000000"
         stroke-width="0.25"
         linecap="square"
         id="path1784" />
    </pattern>
    <symbol
       id="*Model_Space" />
    <symbol
       id="*Paper_Space" />
    <symbol
       id="*Paper_Space0" />
    <symbol
       id="DIMDOT">
      <path
         style="fill:none;stroke:#000000"
         d="M -7.55905 1122.52 L 7.55905 1122.52"
         id="path1790" />
      <path
         style="fill:none;stroke:#000000"
         d="M 0 1135.75 L 0 1109.29"
         id="path1792" />
      <path
         d="M 1.889764,1122.519685 A 1.889764,1.889764 0.000000 0, 0 -1.889764,1122.519685 A 1.889764,1.889764 0.000000 0, 0 1.889764,1122.519685 z"
         style="fill:none;stroke:#000000"
         id="path1794" />
      <path
         d="M 0.944882,1122.519685 A 0.944882,0.944882 0.000000 0, 0 -0.944882,1122.519685 A 0.944882,0.944882 0.000000 0, 0 0.944882,1122.519685 z"
         style="fill:none;stroke:#000000"
         id="path1796" />
    </symbol>
    <symbol
       id="VBI_KS200_DDRSN_NP">
      <path
         d="M 2267.716535,1122.519685 L 2267.716535,1697.007874 L -2267.716535,1697.007874 L -2267.716535,1122.519685 L 2267.716535,1122.519685"
         style="fill:none;stroke:#000000"
         id="path1799" />
      <path
         d="M -2267.716535,1363.834536 L -2029.962288,1697.007874 L -1620.004493,1122.519685 L -1210.046698,1697.007874 L -800.088902,1122.519685 L -390.131107,1697.007874 L 19.826688,1122.519685 L 429.784483,1697.007874 L 839.742279,1122.519685 L 1249.700074,1697.007874 L 1659.657869,1122.519685 L 2069.615665,1697.007874 L 2267.716535,1419.402199"
         style="fill:none;stroke:#000000"
         id="path1801" />
      <path
         d="M 2165.669291,366.614173 L 2165.669291,517.795276 L 2125.581348,557.883219 L 2144.289055,688.837168 L 2197.739646,742.287759 L 2211.104360,835.840755 L 2171.016416,875.928699 L 2181.929686,952.321587 L 2235.380277,1005.772179 L 2241.259843,1046.929134 L 2241.259843,1122.519685 L 2294.173228,1122.519685 L 2294.173228,1046.929134 L 2300.052793,1005.772179 L 2353.503385,952.321587 L 2364.416654,875.928699 L 2324.328711,835.840755 L 2337.693425,742.287759 L 2391.144016,688.837168 L 2409.851723,557.883219 L 2369.763780,517.795276 L 2369.763780,366.614173 L 2165.669291,366.614173 z"
         style="fill:none;stroke:#FF0000"
         id="path1803" />
    </symbol>
    <symbol
       id="VBI_KS200_DDRSN_PP">
      <path
         style="fill:none;stroke:#FF0000"
         d="M 1807.37 1122.52 L 1897.32 1651.65"
         id="path1806" />
      <path
         style="fill:none;stroke:#FF0000"
         d="M 2161.89 1651.65 L 2177.76 1122.52"
         id="path1808" />
      <path
         d="M 2267.716535,1122.519685 L -2267.716535,1122.519685 L -2267.716535,1697.007874 L 1322.834646,1697.007874 L 1322.834646,1651.653543 L 2267.716535,1651.653543 L 2267.716535,1122.519685"
         style="fill:none;stroke:#000000"
         id="path1810" />
      <path
         d="M -2267.716535,1363.834536 L -2029.962288,1697.007874 L -1620.004493,1122.519685 L -1210.046698,1697.007874 L -800.088902,1122.519685 L -390.131107,1697.007874 L 19.826688,1122.519685 L 429.784483,1697.007874 L 839.742279,1122.519685 L 1249.700074,1697.007874 L 1659.657869,1122.519685 L 2037.250575,1651.653543 L 2267.716535,1328.693537"
         style="fill:none;stroke:#000000"
         id="path1812" />
      <path
         d="M 2165.669291,366.614173 L 2165.669291,517.795276 L 2125.581348,557.883219 L 2144.289055,688.837168 L 2197.739646,742.287759 L 2211.104360,835.840755 L 2171.016416,875.928699 L 2181.929686,952.321587 L 2235.380277,1005.772179 L 2241.259843,1046.929134 L 2241.259843,1122.519685 L 2294.173228,1122.519685 L 2294.173228,1046.929134 L 2300.052793,1005.772179 L 2353.503385,952.321587 L 2364.416654,875.928699 L 2324.328711,835.840755 L 2337.693425,742.287759 L 2391.144016,688.837168 L 2409.851723,557.883219 L 2369.763780,517.795276 L 2369.763780,366.614173 L 2165.669291,366.614173 z"
         style="fill:none;stroke:#FF0000"
         id="path1814" />
    </symbol>
    <symbol
       id="VBI_KS200_LDRSN">
      <path
         d="M -11330.066412,-8032.650409 L -1881.247515,-8032.650409"
         style="fill:none;stroke:#000000;stroke-dasharray:188.9764,94.4882,"
         id="path1817" />
      <path
         d="M -11330.066412,-8297.217323 L -1881.247515,-8297.217323"
         style="fill:none;stroke:#000000;stroke-dasharray:188.9764,94.4882,"
         id="path1819" />
      <path
         d="M -11330.066412,-7144.461433 L -11330.066412,-8429.500803 L -1881.247515,-8429.500803 L -1881.247515,-7144.461436 L -2278.097908,-7144.461436 L -2329.499483,-7673.595291 L -10881.814444,-7673.595291 L -10933.216019,-7144.461433 L -11330.066412,-7144.461433 z"
         style="fill:none;stroke:#000000"
         id="path1821" />
      <path
         d="M -10959.672712,-7144.461433 L -10385.184523,-7144.461433 L -10385.184523,-7099.107102 L -2826.129405,-7099.107105 L -2826.129405,-7144.461436 L -2278.097908,-7144.461436"
         style="fill:none;stroke:#000000"
         id="path1823" />
      <path
         style="fill:none;stroke:#000000"
         d="M -8417.51 -7099.11 L -8817.91 -7673.6"
         id="path1825" />
      <path
         style="fill:none;stroke:#000000"
         d="M -8817.91 -7673.6 L -9218.31 -7099.11"
         id="path1827" />
      <path
         style="fill:none;stroke:#000000"
         d="M -9218.31 -7099.11 L -9618.71 -7673.6"
         id="path1829" />
      <path
         style="fill:none;stroke:#000000"
         d="M -9618.71 -7673.6 L -10019.1 -7099.11"
         id="path1831" />
      <path
         style="fill:none;stroke:#000000"
         d="M -10019.1 -7099.11 L -10419.5 -7673.6"
         id="path1833" />
      <path
         style="fill:none;stroke:#000000"
         d="M -10419.5 -7673.6 L -10772.3 -7144.46"
         id="path1835" />
      <path
         style="fill:none;stroke:#000000"
         d="M -10772.3 -7144.46 L -10913.5 -7347.14"
         id="path1837" />
      <path
         style="fill:none;stroke:#000000"
         d="M -4740.89 -7099.11 L -4340.49 -7673.6"
         id="path1839" />
      <path
         style="fill:none;stroke:#000000"
         d="M -4340.49 -7673.6 L -3940.09 -7099.11"
         id="path1841" />
      <path
         style="fill:none;stroke:#000000"
         d="M -3940.09 -7099.11 L -3539.69 -7673.6"
         id="path1843" />
      <path
         style="fill:none;stroke:#000000"
         d="M -3539.69 -7673.6 L -3139.29 -7099.11"
         id="path1845" />
      <path
         style="fill:none;stroke:#000000"
         d="M -3139.29 -7099.11 L -2738.89 -7673.6"
         id="path1847" />
      <path
         style="fill:none;stroke:#000000"
         d="M -2738.89 -7673.6 L -2386.13 -7144.46"
         id="path1849" />
      <path
         style="fill:none;stroke:#000000"
         d="M -2386.13 -7144.46 L -2291.31 -7280.51"
         id="path1851" />
      <path
         d="M -2329.499483,-7673.595291 L -1881.247515,-7673.595291"
         style="fill:none;stroke:#000000;stroke-dasharray:94.4882,47.2441,"
         id="path1853" />
      <path
         d="M -10881.814444,-7673.595291 L -11330.066412,-7673.595291"
         style="fill:none;stroke:#000000;stroke-dasharray:94.4882,47.2441,"
         id="path1855" />
    </symbol>
  </defs>
  <g
     inkscape:groupmode="layer"
     inkscape:label="0"
     id="g1860" />
  <g
     inkscape:groupmode="layer"
     inkscape:label="isolatie"
     id="g1864">
    <path
       d="M 4535.433071,1122.519685 L 0.000000,1122.519685 L 0.000000,548.031496 L 4535.433071,548.031496 L 4535.433071,1122.519685 z"
       style="fill:#ffffff;stroke:#000000;fill-opacity:1"
       id="path1862" />
  </g>
  <g
     inkscape:groupmode="layer"
     inkscape:label="beton"
     id="g1890">
    <path
       id="path1866"
       style="fill:#c0c0c0;stroke:#000000;fill-opacity:1"
       d="M 102.04688 -207.87305 L 102.04688 -56.693359 L 142.13477 -16.605469 L 123.42773 114.34961 L 69.976562 167.79883 L 56.611328 261.35352 L 96.699219 301.44141 L 85.787109 377.83398 L 32.335938 431.2832 L 26.457031 472.44141 L 26.457031 548.03125 L 4508.9766 548.03125 L 4508.9766 472.44141 L 4503.0977 431.2832 L 4449.6465 377.83398 L 4438.7324 301.44141 L 4478.8203 261.35352 L 4465.457 167.79883 L 4412.0059 114.34961 L 4393.2988 -16.605469 L 4433.3867 -56.693359 L 4433.3867 -207.87305 L 102.04688 -207.87305 z M 755.90625 -75.589844 A 302.36221 302.36221 0 0 1 846.61328 -61.664062 A 56.692913 56.692913 0 0 1 886.29883 -7.5820312 L 886.29883 151.18164 A 37.795276 37.795276 0 0 1 848.50391 188.97656 L 663.30664 188.97656 A 37.795276 37.795276 0 0 1 625.51172 151.18164 L 625.51172 -7.5820312 A 56.692913 56.692913 0 0 1 665.19727 -61.664062 A 302.36221 302.36221 0 0 1 755.90625 -75.589844 z M 1133.8574 -75.589844 A 302.36221 302.36221 0 0 1 1224.5664 -61.664062 A 56.692913 56.692913 0 0 1 1264.252 -7.5820312 L 1264.252 151.18164 A 37.795276 37.795276 0 0 1 1226.457 188.97656 L 1041.2598 188.97656 A 37.795276 37.795276 0 0 1 1003.4648 151.18164 L 1003.4648 -7.5820312 A 56.692913 56.692913 0 0 1 1043.1504 -61.664062 A 302.36221 302.36221 0 0 1 1133.8574 -75.589844 z M 1511.8105 -75.589844 A 302.36221 302.36221 0 0 1 1602.5195 -61.664062 A 56.692913 56.692913 0 0 1 1642.2051 -7.5820312 L 1642.2051 151.18164 A 37.795276 37.795276 0 0 1 1604.4102 188.97656 L 1419.2129 188.97656 A 37.795276 37.795276 0 0 1 1381.418 151.18164 L 1381.418 -7.5820312 A 56.692913 56.692913 0 0 1 1421.1016 -61.664062 A 302.36221 302.36221 0 0 1 1511.8105 -75.589844 z M 1889.7637 -75.589844 A 302.36221 302.36221 0 0 1 1980.4727 -61.664062 A 56.692913 56.692913 0 0 1 2020.1582 -7.5820312 L 2020.1582 151.18164 A 37.795276 37.795276 0 0 1 1982.3613 188.97656 L 1797.166 188.97656 A 37.795276 37.795276 0 0 1 1759.3691 151.18164 L 1759.3691 -7.5820312 A 56.692913 56.692913 0 0 1 1799.0547 -61.664062 A 302.36221 302.36221 0 0 1 1889.7637 -75.589844 z M 2267.7168 -75.589844 A 302.36221 302.36221 0 0 1 2358.4258 -61.664062 A 56.692913 56.692913 0 0 1 2398.1094 -7.5820312 L 2398.1094 151.18164 A 37.795276 37.795276 0 0 1 2360.3145 188.97656 L 2175.1172 188.97656 A 37.795276 37.795276 0 0 1 2137.3223 151.18164 L 2137.3223 -7.5820312 A 56.692913 56.692913 0 0 1 2177.0078 -61.664062 A 302.36221 302.36221 0 0 1 2267.7168 -75.589844 z M 2645.6699 -75.589844 A 302.36221 302.36221 0 0 1 2736.3789 -61.664062 A 56.692913 56.692913 0 0 1 2776.0625 -7.5820312 L 2776.0625 151.18164 A 37.795276 37.795276 0 0 1 2738.2676 188.97656 L 2553.0703 188.97656 A 37.795276 37.795276 0 0 1 2515.2754 151.18164 L 2515.2754 -7.5820312 A 56.692913 56.692913 0 0 1 2554.9609 -61.664062 A 302.36221 302.36221 0 0 1 2645.6699 -75.589844 z M 3023.6211 -75.589844 A 302.36221 302.36221 0 0 1 3114.3301 -61.664062 A 56.692913 56.692913 0 0 1 3154.0156 -7.5820312 L 3154.0156 151.18164 A 37.795276 37.795276 0 0 1 3116.2207 188.97656 L 2931.0234 188.97656 A 37.795276 37.795276 0 0 1 2893.2285 151.18164 L 2893.2285 -7.5820312 A 56.692913 56.692913 0 0 1 2932.9141 -61.664062 A 302.36221 302.36221 0 0 1 3023.6211 -75.589844 z M 3401.5742 -75.589844 A 302.36221 302.36221 0 0 1 3492.2832 -61.664062 A 56.692913 56.692913 0 0 1 3531.9688 -7.5820312 L 3531.9688 151.18164 A 37.795276 37.795276 0 0 1 3494.1738 188.97656 L 3308.9766 188.97656 A 37.795276 37.795276 0 0 1 3271.1816 151.18164 L 3271.1816 -7.5820312 A 56.692913 56.692913 0 0 1 3310.8652 -61.664062 A 302.36221 302.36221 0 0 1 3401.5742 -75.589844 z M 3779.5273 -75.589844 A 302.36221 302.36221 0 0 1 3870.2363 -61.664062 A 56.692913 56.692913 0 0 1 3909.9219 -7.5820312 L 3909.9219 151.18164 A 37.795276 37.795276 0 0 1 3872.127 188.97656 L 3686.9297 188.97656 A 37.795276 37.795276 0 0 1 3649.1348 151.18164 L 3649.1348 -7.5820312 A 56.692913 56.692913 0 0 1 3688.8184 -61.664062 A 302.36221 302.36221 0 0 1 3779.5273 -75.589844 z M 391.18164 -68.021484 A 113.38583 113.38583 0 0 1 504.56641 45.353516 L 504.56641 151.18164 A 37.795276 37.795276 0 0 1 466.77148 188.97656 L 315.58984 188.97656 A 37.795276 37.795276 0 0 1 277.79492 151.18164 L 277.79492 45.353516 A 113.38583 113.38583 0 0 1 391.18164 -68.021484 z M 4144.252 -68.021484 A 113.38583 113.38583 0 0 1 4257.6387 45.353516 L 4257.6387 151.18164 A 37.795276 37.795276 0 0 1 4219.8418 188.97656 L 4068.6621 188.97656 A 37.795276 37.795276 0 0 1 4030.8652 151.18164 L 4030.8652 45.353516 A 113.38583 113.38583 0 0 1 4144.252 -68.021484 z " />
  </g>
</svg>
