<?xml version="1.0" encoding="UTF-8" standalone="no"?>
<svg
   viewBox="0 0 793.7007874015749 1122.5196850393702"
   width="793.7007874015749"
   height="1122.5196850393702"
   version="1.1"
   id="svg9504"
   sodipodi:docname="AL200.svg"
   inkscape:version="1.2.2 (732a01da63, 2022-12-09)"
   xmlns:inkscape="http://www.inkscape.org/namespaces/inkscape"
   xmlns:sodipodi="http://sodipodi.sourceforge.net/DTD/sodipodi-0.dtd"
   xmlns:xlink="http://www.w3.org/1999/xlink"
   xmlns="http://www.w3.org/2000/svg"
   xmlns:svg="http://www.w3.org/2000/svg">
  <sodipodi:namedview
     id="namedview9506"
     pagecolor="#ffffff"
     bordercolor="#000000"
     borderopacity="0.25"
     inkscape:showpageshadow="2"
     inkscape:pageopacity="0.0"
     inkscape:pagecheckerboard="0"
     inkscape:deskcolor="#d1d1d1"
     showgrid="false"
     inkscape:zoom="0.36976785"
     inkscape:cx="1329.2124"
     inkscape:cy="343.45874"
     inkscape:window-width="3440"
     inkscape:window-height="1377"
     inkscape:window-x="-8"
     inkscape:window-y="-8"
     inkscape:window-maximized="1"
     inkscape:current-layer="g9500" />
  <desc
     id="desc9101">AL200.dxf - scale = 1.000000, origin = (0.000000, 0.000000), method = manual</desc>
  <defs
     id="defs9474">
    <marker
       id="DistanceX"
       orient="auto"
       refX="0.0"
       refY="0.0"
       style="overflow:visible">
      <path
         d="M 3,-3 L -3,3 M 0,-5 L  0,5"
         style="stroke:#000000; stroke-width:0.5"
         id="path9103" />
    </marker>
    <pattern
       id="Hatch"
       patternUnits="userSpaceOnUse"
       width="8"
       height="8"
       x="0"
       y="0">
      <path
         d="M8 4 l-4,4"
         stroke="#000000"
         stroke-width="0.25"
         linecap="square"
         id="path9106" />
      <path
         d="M6 2 l-4,4"
         stroke="#000000"
         stroke-width="0.25"
         linecap="square"
         id="path9108" />
      <path
         d="M4 0 l-4,4"
         stroke="#000000"
         stroke-width="0.25"
         linecap="square"
         id="path9110" />
    </pattern>
    <symbol
       id="*Model_Space" />
    <symbol
       id="*Paper_Space" />
    <symbol
       id="$MODEL_SPACE" />
    <symbol
       id="$PAPER_SPACE" />
    <symbol
       id="DIMDOT">
      <path
         style="fill:none;stroke:#000000"
         d="M -7.55905 1122.52 L 7.55905 1122.52"
         id="path9117" />
      <path
         style="fill:none;stroke:#000000"
         d="M 0 1135.75 L 0 1109.29"
         id="path9119" />
      <path
         d="M 1.889764,1122.519685 A 1.889764,1.889764 0.000000 0, 0 -1.889764,1122.519685 A 1.889764,1.889764 0.000000 0, 0 1.889764,1122.519685 z"
         style="fill:none;stroke:#000000"
         id="path9121" />
      <path
         d="M 0.944882,1122.519685 A 0.944882,0.944882 0.000000 0, 0 -0.944882,1122.519685 A 0.944882,0.944882 0.000000 0, 0 0.944882,1122.519685 z"
         style="fill:none;stroke:#000000"
         id="path9123" />
    </symbol>
    <symbol
       id="VBI_AL200_DDRSN_NP">
      <path
         d="M 2235.380277,1005.772179 L 2181.929686,952.321587 L 2171.016416,875.928699 L 2211.104360,835.840755 L 2197.739646,742.287759 L 2144.289055,688.837168 L 2125.581348,557.883219 L 2165.669291,517.795276 L 2165.669291,366.614173 L 2369.763780,366.614173 L 2369.763780,517.795276 L 2409.851723,557.883219 L 2391.144016,688.837168 L 2337.693425,742.287759 L 2324.328711,835.840755 L 2364.416654,875.928699 L 2353.503385,952.321587 L 2300.052793,1005.772179 L 2294.173228,1046.929134 L 2267.716535,1046.929134 L 2241.259843,1046.929134 L 2235.380277,1005.772179 z"
         style="fill:none;stroke:#FF0000"
         id="path9126" />
      <use
         xlink:href="#%2AU4"
         style="stroke-width:0.500px"
         id="use9128" />
    </symbol>
    <symbol
       id="*U4">
      <path
         d="M -625.511811,566.906291 A 56.692913,56.692913 0.000000 0 0 -665.196850,512.824698"
         style="fill:none;stroke:#000000"
         id="path9131" />
      <path
         style="fill:none;stroke:#000000"
         d="M -625.512 566.906 L -625.512 725.669"
         id="path9133" />
      <path
         d="M -663.307087,763.464567 A 37.795276,37.795276 0.000000 0 0 -625.511811,725.669291"
         style="fill:none;stroke:#000000"
         id="path9135" />
      <path
         style="fill:none;stroke:#000000"
         d="M -663.307 763.465 L -848.504 763.465"
         id="path9137" />
      <path
         d="M -886.299213,725.669291 A 37.795276,37.795276 0.000000 0 0 -848.503937,763.464567"
         style="fill:none;stroke:#000000"
         id="path9139" />
      <path
         style="fill:none;stroke:#000000"
         d="M -886.299 725.669 L -886.299 566.906"
         id="path9141" />
      <path
         d="M -846.614173,512.824698 A 56.692913,56.692913 0.000000 0 0 -886.299213,566.906291"
         style="fill:none;stroke:#000000"
         id="path9143" />
      <path
         d="M -665.196850,512.824698 A 302.362205,302.362205 0.000000 0 0 -846.614173,512.824698"
         style="fill:none;stroke:#000000"
         id="path9145" />
      <path
         d="M 508.346457,566.906291 A 56.692913,56.692913 0.000000 0 0 468.661417,512.824698"
         style="fill:none;stroke:#000000"
         id="path9147" />
      <path
         style="fill:none;stroke:#000000"
         d="M 508.346 566.906 L 508.346 725.669"
         id="path9149" />
      <path
         d="M 470.551181,763.464567 A 37.795276,37.795276 0.000000 0 0 508.346457,725.669291"
         style="fill:none;stroke:#000000"
         id="path9151" />
      <path
         style="fill:none;stroke:#000000"
         d="M 470.551 763.465 L 285.354 763.465"
         id="path9153" />
      <path
         d="M 247.559055,725.669291 A 37.795276,37.795276 0.000000 0 0 285.354331,763.464567"
         style="fill:none;stroke:#000000"
         id="path9155" />
      <path
         style="fill:none;stroke:#000000"
         d="M 247.559 725.669 L 247.559 566.906"
         id="path9157" />
      <path
         d="M 287.244094,512.824698 A 56.692913,56.692913 0.000000 0 0 247.559055,566.906291"
         style="fill:none;stroke:#000000"
         id="path9159" />
      <path
         d="M 468.661417,512.824698 A 302.362205,302.362205 0.000000 0 0 287.244094,512.824698"
         style="fill:none;stroke:#000000"
         id="path9161" />
      <path
         d="M 1989.921260,619.842520 A 113.385827,113.385827 0.000000 0 0 1763.149606,619.842520"
         style="fill:none;stroke:#000000"
         id="path9163" />
      <path
         style="fill:none;stroke:#000000"
         d="M 1989.92 619.843 L 1989.92 725.669"
         id="path9165" />
      <path
         d="M 1952.125984,763.464567 A 37.795276,37.795276 0.000000 0 0 1989.921260,725.669291"
         style="fill:none;stroke:#000000"
         id="path9167" />
      <path
         style="fill:none;stroke:#000000"
         d="M 1952.13 763.465 L 1800.94 763.465"
         id="path9169" />
      <path
         d="M 1763.149606,725.669291 A 37.795276,37.795276 0.000000 0 0 1800.944882,763.464567"
         style="fill:none;stroke:#000000"
         id="path9171" />
      <path
         style="fill:none;stroke:#000000"
         d="M 1763.15 725.669 L 1763.15 619.843"
         id="path9173" />
      <path
         d="M 886.299213,566.906291 A 56.692913,56.692913 0.000000 0 0 846.614173,512.824698"
         style="fill:none;stroke:#000000"
         id="path9175" />
      <path
         style="fill:none;stroke:#000000"
         d="M 886.299 566.906 L 886.299 725.669"
         id="path9177" />
      <path
         d="M 848.503937,763.464567 A 37.795276,37.795276 0.000000 0 0 886.299213,725.669291"
         style="fill:none;stroke:#000000"
         id="path9179" />
      <path
         style="fill:none;stroke:#000000"
         d="M 848.504 763.465 L 663.307 763.465"
         id="path9181" />
      <path
         d="M 625.511811,725.669291 A 37.795276,37.795276 0.000000 0 0 663.307087,763.464567"
         style="fill:none;stroke:#000000"
         id="path9183" />
      <path
         style="fill:none;stroke:#000000"
         d="M 625.512 725.669 L 625.512 566.906"
         id="path9185" />
      <path
         d="M 665.196850,512.824698 A 56.692913,56.692913 0.000000 0 0 625.511811,566.906291"
         style="fill:none;stroke:#000000"
         id="path9187" />
      <path
         d="M 846.614173,512.824698 A 302.362205,302.362205 0.000000 0 0 665.196850,512.824698"
         style="fill:none;stroke:#000000"
         id="path9189" />
      <path
         d="M -1003.464567,566.906291 A 56.692913,56.692913 0.000000 0 0 -1043.149606,512.824698"
         style="fill:none;stroke:#000000"
         id="path9191" />
      <path
         style="fill:none;stroke:#000000"
         d="M -1003.46 566.906 L -1003.46 725.669"
         id="path9193" />
      <path
         d="M -1041.259843,763.464567 A 37.795276,37.795276 0.000000 0 0 -1003.464567,725.669291"
         style="fill:none;stroke:#000000"
         id="path9195" />
      <path
         style="fill:none;stroke:#000000"
         d="M -1041.26 763.465 L -1226.46 763.465"
         id="path9197" />
      <path
         d="M -1264.251969,725.669291 A 37.795276,37.795276 0.000000 0 0 -1226.456693,763.464567"
         style="fill:none;stroke:#000000"
         id="path9199" />
      <path
         style="fill:none;stroke:#000000"
         d="M -1264.25 725.669 L -1264.25 566.906"
         id="path9201" />
      <path
         d="M -1224.566929,512.824698 A 56.692913,56.692913 0.000000 0 0 -1264.251969,566.906291"
         style="fill:none;stroke:#000000"
         id="path9203" />
      <path
         d="M -1043.149606,512.824698 A 302.362205,302.362205 0.000000 0 0 -1224.566929,512.824698"
         style="fill:none;stroke:#000000"
         id="path9205" />
      <path
         d="M -1763.149606,619.842520 A 113.385827,113.385827 0.000000 0 0 -1989.921260,619.842520"
         style="fill:none;stroke:#000000"
         id="path9207" />
      <path
         style="fill:none;stroke:#000000"
         d="M -1763.15 619.843 L -1763.15 725.669"
         id="path9209" />
      <path
         d="M -1800.944882,763.464567 A 37.795276,37.795276 0.000000 0 0 -1763.149606,725.669291"
         style="fill:none;stroke:#000000"
         id="path9211" />
      <path
         style="fill:none;stroke:#000000"
         d="M -1800.94 763.465 L -1952.13 763.465"
         id="path9213" />
      <path
         d="M -1989.921260,725.669291 A 37.795276,37.795276 0.000000 0 0 -1952.125984,763.464567"
         style="fill:none;stroke:#000000"
         id="path9215" />
      <path
         style="fill:none;stroke:#000000"
         d="M -1989.92 725.669 L -1989.92 619.843"
         id="path9217" />
      <path
         d="M 130.393701,566.906291 A 56.692913,56.692913 0.000000 0 0 90.708661,512.824698"
         style="fill:none;stroke:#000000"
         id="path9219" />
      <path
         style="fill:none;stroke:#000000"
         d="M 130.394 566.906 L 130.394 725.669"
         id="path9221" />
      <path
         d="M 92.598425,763.464567 A 37.795276,37.795276 0.000000 0 0 130.393701,725.669291"
         style="fill:none;stroke:#000000"
         id="path9223" />
      <path
         style="fill:none;stroke:#000000"
         d="M 92.5984 763.465 L -92.5984 763.465"
         id="path9225" />
      <path
         d="M -130.393701,725.669291 A 37.795276,37.795276 0.000000 0 0 -92.598425,763.464567"
         style="fill:none;stroke:#000000"
         id="path9227" />
      <path
         style="fill:none;stroke:#000000"
         d="M -130.394 725.669 L -130.394 566.906"
         id="path9229" />
      <path
         d="M -90.708661,512.824698 A 56.692913,56.692913 0.000000 0 0 -130.393701,566.906291"
         style="fill:none;stroke:#000000"
         id="path9231" />
      <path
         d="M 90.708661,512.824698 A 302.362205,302.362205 0.000000 0 0 -90.708661,512.824698"
         style="fill:none;stroke:#000000"
         id="path9233" />
      <path
         d="M 1642.204724,566.906291 A 56.692913,56.692913 0.000000 0 0 1602.519685,512.824698"
         style="fill:none;stroke:#000000"
         id="path9235" />
      <path
         style="fill:none;stroke:#000000"
         d="M 1642.2 566.906 L 1642.2 725.669"
         id="path9237" />
      <path
         d="M 1604.409449,763.464567 A 37.795276,37.795276 0.000000 0 0 1642.204724,725.669291"
         style="fill:none;stroke:#000000"
         id="path9239" />
      <path
         style="fill:none;stroke:#000000"
         d="M 1604.41 763.465 L 1419.21 763.465"
         id="path9241" />
      <path
         d="M 1381.417323,725.669291 A 37.795276,37.795276 0.000000 0 0 1419.212598,763.464567"
         style="fill:none;stroke:#000000"
         id="path9243" />
      <path
         style="fill:none;stroke:#000000"
         d="M 1381.42 725.669 L 1381.42 566.906"
         id="path9245" />
      <path
         d="M 1421.102362,512.824698 A 56.692913,56.692913 0.000000 0 0 1381.417323,566.906291"
         style="fill:none;stroke:#000000"
         id="path9247" />
      <path
         d="M 1602.519685,512.824698 A 302.362205,302.362205 0.000000 0 0 1421.102362,512.824698"
         style="fill:none;stroke:#000000"
         id="path9249" />
      <path
         d="M 1264.251969,566.906291 A 56.692913,56.692913 0.000000 0 0 1224.566929,512.824698"
         style="fill:none;stroke:#000000"
         id="path9251" />
      <path
         style="fill:none;stroke:#000000"
         d="M 1264.25 566.906 L 1264.25 725.669"
         id="path9253" />
      <path
         d="M 1226.456693,763.464567 A 37.795276,37.795276 0.000000 0 0 1264.251969,725.669291"
         style="fill:none;stroke:#000000"
         id="path9255" />
      <path
         style="fill:none;stroke:#000000"
         d="M 1226.46 763.465 L 1041.26 763.465"
         id="path9257" />
      <path
         d="M 1003.464567,725.669291 A 37.795276,37.795276 0.000000 0 0 1041.259843,763.464567"
         style="fill:none;stroke:#000000"
         id="path9259" />
      <path
         style="fill:none;stroke:#000000"
         d="M 1003.46 725.669 L 1003.46 566.906"
         id="path9261" />
      <path
         d="M 1043.149606,512.824698 A 56.692913,56.692913 0.000000 0 0 1003.464567,566.906291"
         style="fill:none;stroke:#000000"
         id="path9263" />
      <path
         d="M 1224.566929,512.824698 A 302.362205,302.362205 0.000000 0 0 1043.149606,512.824698"
         style="fill:none;stroke:#000000"
         id="path9265" />
      <path
         d="M -1381.417323,566.906291 A 56.692913,56.692913 0.000000 0 0 -1421.102362,512.824698"
         style="fill:none;stroke:#000000"
         id="path9267" />
      <path
         style="fill:none;stroke:#000000"
         d="M -1381.42 566.906 L -1381.42 725.669"
         id="path9269" />
      <path
         d="M -1419.212598,763.464567 A 37.795276,37.795276 0.000000 0 0 -1381.417323,725.669291"
         style="fill:none;stroke:#000000"
         id="path9271" />
      <path
         style="fill:none;stroke:#000000"
         d="M -1419.21 763.465 L -1604.41 763.465"
         id="path9273" />
      <path
         d="M -1642.204724,725.669291 A 37.795276,37.795276 0.000000 0 0 -1604.409449,763.464567"
         style="fill:none;stroke:#000000"
         id="path9275" />
      <path
         style="fill:none;stroke:#000000"
         d="M -1642.2 725.669 L -1642.2 566.906"
         id="path9277" />
      <path
         d="M -1602.519685,512.824698 A 56.692913,56.692913 0.000000 0 0 -1642.204724,566.906291"
         style="fill:none;stroke:#000000"
         id="path9279" />
      <path
         d="M -1421.102362,512.824698 A 302.362205,302.362205 0.000000 0 0 -1602.519685,512.824698"
         style="fill:none;stroke:#000000"
         id="path9281" />
      <path
         d="M -247.559055,566.906291 A 56.692913,56.692913 0.000000 0 0 -287.244094,512.824698"
         style="fill:none;stroke:#000000"
         id="path9283" />
      <path
         style="fill:none;stroke:#000000"
         d="M -247.559 566.906 L -247.559 725.669"
         id="path9285" />
      <path
         d="M -285.354331,763.464567 A 37.795276,37.795276 0.000000 0 0 -247.559055,725.669291"
         style="fill:none;stroke:#000000"
         id="path9287" />
      <path
         style="fill:none;stroke:#000000"
         d="M -285.354 763.465 L -470.551 763.465"
         id="path9289" />
      <path
         d="M -508.346457,725.669291 A 37.795276,37.795276 0.000000 0 0 -470.551181,763.464567"
         style="fill:none;stroke:#000000"
         id="path9291" />
      <path
         style="fill:none;stroke:#000000"
         d="M -508.346 725.669 L -508.346 566.906"
         id="path9293" />
      <path
         d="M -468.661417,512.824698 A 56.692913,56.692913 0.000000 0 0 -508.346457,566.906291"
         style="fill:none;stroke:#000000"
         id="path9295" />
      <path
         d="M -287.244094,512.824698 A 302.362205,302.362205 0.000000 0 0 -468.661417,512.824698"
         style="fill:none;stroke:#000000"
         id="path9297" />
      <path
         style="fill:none;stroke:#000000"
         d="M -2260.16 1046.93 L -2241.26 1046.93"
         id="path9299" />
      <path
         style="fill:none;stroke:#000000"
         d="M -2260.16 1084.72 L -2260.16 1046.93"
         id="path9301" />
      <path
         style="fill:none;stroke:#000000"
         d="M -2222.36 1122.52 L -2260.16 1084.72"
         id="path9303" />
      <path
         style="fill:none;stroke:#000000"
         d="M 2222.36 1122.52 L -2222.36 1122.52"
         id="path9305" />
      <path
         style="fill:none;stroke:#000000"
         d="M 2260.16 1084.72 L 2222.36 1122.52"
         id="path9307" />
      <path
         style="fill:none;stroke:#000000"
         d="M 2260.16 1046.93 L 2260.16 1084.72"
         id="path9309" />
      <path
         style="fill:none;stroke:#000000"
         d="M 2241.26 1046.93 L 2260.16 1046.93"
         id="path9311" />
      <path
         style="fill:none;stroke:#000000"
         d="M 2235.38 1005.77 L 2241.26 1046.93"
         id="path9313" />
      <path
         style="fill:none;stroke:#000000"
         d="M 2181.93 952.322 L 2235.38 1005.77"
         id="path9315" />
      <path
         style="fill:none;stroke:#000000"
         d="M 2171.02 875.929 L 2181.93 952.322"
         id="path9317" />
      <path
         style="fill:none;stroke:#000000"
         d="M 2211.1 835.841 L 2171.02 875.929"
         id="path9319" />
      <path
         style="fill:none;stroke:#000000"
         d="M 2197.74 742.288 L 2211.1 835.841"
         id="path9321" />
      <path
         style="fill:none;stroke:#000000"
         d="M 2144.29 688.837 L 2197.74 742.288"
         id="path9323" />
      <path
         style="fill:none;stroke:#000000"
         d="M 2125.58 557.883 L 2144.29 688.837"
         id="path9325" />
      <path
         style="fill:none;stroke:#000000"
         d="M 2165.67 517.795 L 2125.58 557.883"
         id="path9327" />
      <path
         style="fill:none;stroke:#000000"
         d="M 2165.67 366.614 L 2165.67 517.795"
         id="path9329" />
      <path
         style="fill:none;stroke:#000000"
         d="M -2165.67 366.614 L 2165.67 366.614"
         id="path9331" />
      <path
         style="fill:none;stroke:#000000"
         d="M -2165.67 517.795 L -2165.67 366.614"
         id="path9333" />
      <path
         style="fill:none;stroke:#000000"
         d="M -2125.58 557.883 L -2165.67 517.795"
         id="path9335" />
      <path
         style="fill:none;stroke:#000000"
         d="M -2144.29 688.837 L -2125.58 557.883"
         id="path9337" />
      <path
         style="fill:none;stroke:#000000"
         d="M -2197.74 742.288 L -2144.29 688.837"
         id="path9339" />
      <path
         style="fill:none;stroke:#000000"
         d="M -2211.1 835.841 L -2197.74 742.288"
         id="path9341" />
      <path
         style="fill:none;stroke:#000000"
         d="M -2171.02 875.929 L -2211.1 835.841"
         id="path9343" />
      <path
         style="fill:none;stroke:#000000"
         d="M -2181.93 952.322 L -2171.02 875.929"
         id="path9345" />
      <path
         style="fill:none;stroke:#000000"
         d="M -2235.38 1005.77 L -2181.93 952.322"
         id="path9347" />
      <path
         style="fill:none;stroke:#000000"
         d="M -2241.26 1046.93 L -2235.38 1005.77"
         id="path9349" />
    </symbol>
    <symbol
       id="VBI_AL200_DDRSN_PP">
      <use
         xlink:href="#%2AU6"
         style="stroke-width:0.500px"
         id="use9352" />
    </symbol>
    <symbol
       id="*U6">
      <path
         d="M -1421.102362,512.824698 A 302.362205,302.362205 0.000000 0 0 -1602.519685,512.824698"
         style="fill:none;stroke:#000000"
         id="path9355" />
      <path
         d="M -1381.417323,566.906291 A 56.692913,56.692913 0.000000 0 0 -1421.102362,512.824698"
         style="fill:none;stroke:#000000"
         id="path9357" />
      <path
         style="fill:none;stroke:#000000"
         d="M -1381.42 566.906 L -1381.42 725.669"
         id="path9359" />
      <path
         d="M -1419.212598,763.464567 A 37.795276,37.795276 0.000000 0 0 -1381.417323,725.669291"
         style="fill:none;stroke:#000000"
         id="path9361" />
      <path
         style="fill:none;stroke:#000000"
         d="M -1419.21 763.465 L -1604.41 763.465"
         id="path9363" />
      <path
         d="M -1642.204724,725.669291 A 37.795276,37.795276 0.000000 0 0 -1604.409449,763.464567"
         style="fill:none;stroke:#000000"
         id="path9365" />
      <path
         style="fill:none;stroke:#000000"
         d="M -1642.2 725.669 L -1642.2 566.906"
         id="path9367" />
      <path
         d="M -1602.519685,512.824698 A 56.692913,56.692913 0.000000 0 0 -1642.204724,566.906291"
         style="fill:none;stroke:#000000"
         id="path9369" />
      <path
         d="M -1043.149606,512.824698 A 302.362205,302.362205 0.000000 0 0 -1224.566929,512.824698"
         style="fill:none;stroke:#000000"
         id="path9371" />
      <path
         d="M -1003.464567,566.906291 A 56.692913,56.692913 0.000000 0 0 -1043.149606,512.824698"
         style="fill:none;stroke:#000000"
         id="path9373" />
      <path
         style="fill:none;stroke:#000000"
         d="M -1003.46 566.906 L -1003.46 725.669"
         id="path9375" />
      <path
         d="M -1041.259843,763.464567 A 37.795276,37.795276 0.000000 0 0 -1003.464567,725.669291"
         style="fill:none;stroke:#000000"
         id="path9377" />
      <path
         style="fill:none;stroke:#000000"
         d="M -1041.26 763.465 L -1226.46 763.465"
         id="path9379" />
      <path
         d="M -1264.251969,725.669291 A 37.795276,37.795276 0.000000 0 0 -1226.456693,763.464567"
         style="fill:none;stroke:#000000"
         id="path9381" />
      <path
         style="fill:none;stroke:#000000"
         d="M -1264.25 725.669 L -1264.25 566.906"
         id="path9383" />
      <path
         d="M -1224.566929,512.824698 A 56.692913,56.692913 0.000000 0 0 -1264.251969,566.906291"
         style="fill:none;stroke:#000000"
         id="path9385" />
      <path
         d="M -665.196850,512.824698 A 302.362205,302.362205 0.000000 0 0 -846.614173,512.824698"
         style="fill:none;stroke:#000000"
         id="path9387" />
      <path
         d="M -625.511811,566.906291 A 56.692913,56.692913 0.000000 0 0 -665.196850,512.824698"
         style="fill:none;stroke:#000000"
         id="path9389" />
      <path
         style="fill:none;stroke:#000000"
         d="M -625.512 566.906 L -625.512 725.669"
         id="path9391" />
      <path
         d="M -663.307087,763.464567 A 37.795276,37.795276 0.000000 0 0 -625.511811,725.669291"
         style="fill:none;stroke:#000000"
         id="path9393" />
      <path
         style="fill:none;stroke:#000000"
         d="M -663.307 763.465 L -848.504 763.465"
         id="path9395" />
      <path
         d="M -886.299213,725.669291 A 37.795276,37.795276 0.000000 0 0 -848.503937,763.464567"
         style="fill:none;stroke:#000000"
         id="path9397" />
      <path
         style="fill:none;stroke:#000000"
         d="M -886.299 725.669 L -886.299 566.906"
         id="path9399" />
      <path
         d="M -846.614173,512.824698 A 56.692913,56.692913 0.000000 0 0 -886.299213,566.906291"
         style="fill:none;stroke:#000000"
         id="path9401" />
      <path
         style="fill:none;stroke:#000000"
         d="M -1763.15 619.843 L -1763.15 725.669"
         id="path9403" />
      <path
         d="M -1800.944882,763.464567 A 37.795276,37.795276 0.000000 0 0 -1763.149606,725.669291"
         style="fill:none;stroke:#000000"
         id="path9405" />
      <path
         style="fill:none;stroke:#000000"
         d="M -1800.94 763.465 L -1952.13 763.465"
         id="path9407" />
      <path
         d="M -1989.921260,725.669291 A 37.795276,37.795276 0.000000 0 0 -1952.125984,763.464567"
         style="fill:none;stroke:#000000"
         id="path9409" />
      <path
         style="fill:none;stroke:#000000"
         d="M -1989.92 725.669 L -1989.92 619.843"
         id="path9411" />
      <path
         d="M -1763.149606,619.842520 A 113.385827,113.385827 0.000000 0 0 -1989.921260,619.842520"
         style="fill:none;stroke:#000000"
         id="path9413" />
      <path
         d="M -287.244094,512.824698 A 302.362205,302.362205 0.000000 0 0 -468.661417,512.824698"
         style="fill:none;stroke:#000000"
         id="path9415" />
      <path
         d="M -247.559055,566.906291 A 56.692913,56.692913 0.000000 0 0 -287.244094,512.824698"
         style="fill:none;stroke:#000000"
         id="path9417" />
      <path
         style="fill:none;stroke:#000000"
         d="M -247.559 566.906 L -247.559 725.669"
         id="path9419" />
      <path
         d="M -285.354331,763.464567 A 37.795276,37.795276 0.000000 0 0 -247.559055,725.669291"
         style="fill:none;stroke:#000000"
         id="path9421" />
      <path
         style="fill:none;stroke:#000000"
         d="M -285.354 763.465 L -470.551 763.465"
         id="path9423" />
      <path
         d="M -508.346457,725.669291 A 37.795276,37.795276 0.000000 0 0 -470.551181,763.464567"
         style="fill:none;stroke:#000000"
         id="path9425" />
      <path
         style="fill:none;stroke:#000000"
         d="M -508.346 725.669 L -508.346 566.906"
         id="path9427" />
      <path
         d="M -468.661417,512.824698 A 56.692913,56.692913 0.000000 0 0 -508.346457,566.906291"
         style="fill:none;stroke:#000000"
         id="path9429" />
      <path
         style="fill:none;stroke:#000000"
         d="M -2260.16 1084.72 L -2260.16 1046.93"
         id="path9431" />
      <path
         style="fill:none;stroke:#000000"
         d="M -2222.36 1122.52 L -2260.16 1084.72"
         id="path9433" />
      <path
         style="fill:none;stroke:#000000"
         d="M 0 1122.52 L -2222.36 1122.52"
         id="path9435" />
      <path
         style="fill:none;stroke:#000000"
         d="M 0 763.465 L 0 1122.52"
         id="path9437" />
      <path
         style="fill:none;stroke:#000000"
         d="M -92.5984 763.465 L 0 763.465"
         id="path9439" />
      <path
         d="M -130.393701,725.669291 A 37.795276,37.795276 0.000000 0 0 -92.598425,763.464567"
         style="fill:none;stroke:#000000"
         id="path9441" />
      <path
         style="fill:none;stroke:#000000"
         d="M -130.394 566.906 L -130.394 725.669"
         id="path9443" />
      <path
         d="M -90.708661,512.824698 A 56.692913,56.692913 0.000000 0 0 -130.393701,566.906291"
         style="fill:none;stroke:#000000"
         id="path9445" />
      <path
         d="M 0.000000,498.897654 A 302.362205,302.362205 0.000000 0 0 -90.708661,512.824698"
         style="fill:none;stroke:#000000"
         id="path9447" />
      <path
         style="fill:none;stroke:#000000"
         d="M 0 366.614 L 0 498.898"
         id="path9449" />
      <path
         style="fill:none;stroke:#000000"
         d="M -2165.67 366.614 L 0 366.614"
         id="path9451" />
      <path
         style="fill:none;stroke:#000000"
         d="M -2165.67 517.795 L -2165.67 366.614"
         id="path9453" />
      <path
         style="fill:none;stroke:#000000"
         d="M -2125.58 557.883 L -2165.67 517.795"
         id="path9455" />
      <path
         style="fill:none;stroke:#000000"
         d="M -2144.29 688.837 L -2125.58 557.883"
         id="path9457" />
      <path
         style="fill:none;stroke:#000000"
         d="M -2197.74 742.288 L -2144.29 688.837"
         id="path9459" />
      <path
         style="fill:none;stroke:#000000"
         d="M -2211.1 835.841 L -2197.74 742.288"
         id="path9461" />
      <path
         style="fill:none;stroke:#000000"
         d="M -2171.02 875.929 L -2211.1 835.841"
         id="path9463" />
      <path
         style="fill:none;stroke:#000000"
         d="M -2181.93 952.322 L -2171.02 875.929"
         id="path9465" />
      <path
         style="fill:none;stroke:#000000"
         d="M -2235.38 1005.77 L -2181.93 952.322"
         id="path9467" />
      <path
         style="fill:none;stroke:#000000"
         d="M -2241.26 1046.93 L -2235.38 1005.77"
         id="path9469" />
      <path
         style="fill:none;stroke:#000000"
         d="M -2260.16 1046.93 L -2241.26 1046.93"
         id="path9471" />
    </symbol>
  </defs>
  <g
     inkscape:groupmode="layer"
     inkscape:label="0"
     id="g9500">
    <path
       id="path9476"
       style="fill:#c0c0c0;stroke:#000000;fill-opacity:0.99000001"
       d="M 94.488281 366.61328 L 94.488281 517.79492 L 134.57617 557.88281 L 115.86914 688.83789 L 62.417969 742.28711 L 49.052734 835.83984 L 89.140625 875.92773 L 78.228516 952.32227 L 24.777344 1005.7715 L 18.898438 1046.9297 L 0 1046.9297 L 0 1084.7246 L 37.794922 1122.5195 L 4482.5195 1122.5195 L 4520.3145 1084.7246 L 4520.3145 1046.9297 L 4501.418 1046.9297 L 4495.5371 1005.7715 L 4442.0879 952.32227 L 4431.1738 875.92773 L 4471.2617 835.83984 L 4457.8965 742.28711 L 4404.4473 688.83789 L 4385.7383 557.88281 L 4425.8262 517.79492 L 4425.8262 366.61328 L 94.488281 366.61328 z M 748.3457 498.89844 A 302.36221 302.36221 0 0 1 839.05469 512.82422 A 56.692913 56.692913 0 0 1 878.74023 566.90625 L 878.74023 725.66992 A 37.795276 37.795276 0 0 1 840.94531 763.46484 L 655.74805 763.46484 A 37.795276 37.795276 0 0 1 617.95312 725.66992 L 617.95312 566.90625 A 56.692913 56.692913 0 0 1 657.63867 512.82422 A 302.36221 302.36221 0 0 1 748.3457 498.89844 z M 1126.2988 498.89844 A 302.36221 302.36221 0 0 1 1217.0078 512.82422 A 56.692913 56.692913 0 0 1 1256.6934 566.90625 L 1256.6934 725.66992 A 37.795276 37.795276 0 0 1 1218.8984 763.46484 L 1033.7012 763.46484 A 37.795276 37.795276 0 0 1 995.90625 725.66992 L 995.90625 566.90625 A 56.692913 56.692913 0 0 1 1035.5898 512.82422 A 302.36221 302.36221 0 0 1 1126.2988 498.89844 z M 1504.252 498.89844 A 302.36221 302.36221 0 0 1 1594.9609 512.82422 A 56.692913 56.692913 0 0 1 1634.6465 566.90625 L 1634.6465 725.66992 A 37.795276 37.795276 0 0 1 1596.8496 763.46484 L 1411.6543 763.46484 A 37.795276 37.795276 0 0 1 1373.8574 725.66992 L 1373.8574 566.90625 A 56.692913 56.692913 0 0 1 1413.543 512.82422 A 302.36221 302.36221 0 0 1 1504.252 498.89844 z M 1882.2051 498.89844 A 302.36221 302.36221 0 0 1 1972.9141 512.82422 A 56.692913 56.692913 0 0 1 2012.5977 566.90625 L 2012.5977 725.66992 A 37.795276 37.795276 0 0 1 1974.8027 763.46484 L 1789.6055 763.46484 A 37.795276 37.795276 0 0 1 1751.8105 725.66992 L 1751.8105 566.90625 A 56.692913 56.692913 0 0 1 1791.4961 512.82422 A 302.36221 302.36221 0 0 1 1882.2051 498.89844 z M 2260.1582 498.89844 A 302.36221 302.36221 0 0 1 2350.8652 512.82422 A 56.692913 56.692913 0 0 1 2390.5508 566.90625 L 2390.5508 725.66992 A 37.795276 37.795276 0 0 1 2352.7559 763.46484 L 2167.5586 763.46484 A 37.795276 37.795276 0 0 1 2129.7637 725.66992 L 2129.7637 566.90625 A 56.692913 56.692913 0 0 1 2169.4492 512.82422 A 302.36221 302.36221 0 0 1 2260.1582 498.89844 z M 2638.1094 498.89844 A 302.36221 302.36221 0 0 1 2728.8184 512.82422 A 56.692913 56.692913 0 0 1 2768.5039 566.90625 L 2768.5039 725.66992 A 37.795276 37.795276 0 0 1 2730.709 763.46484 L 2545.5117 763.46484 A 37.795276 37.795276 0 0 1 2507.7168 725.66992 L 2507.7168 566.90625 A 56.692913 56.692913 0 0 1 2547.4023 512.82422 A 302.36221 302.36221 0 0 1 2638.1094 498.89844 z M 3016.0625 498.89844 A 302.36221 302.36221 0 0 1 3106.7715 512.82422 A 56.692913 56.692913 0 0 1 3146.457 566.90625 L 3146.457 725.66992 A 37.795276 37.795276 0 0 1 3108.6621 763.46484 L 2923.4648 763.46484 A 37.795276 37.795276 0 0 1 2885.6699 725.66992 L 2885.6699 566.90625 A 56.692913 56.692913 0 0 1 2925.3535 512.82422 A 302.36221 302.36221 0 0 1 3016.0625 498.89844 z M 3394.0156 498.89844 A 302.36221 302.36221 0 0 1 3484.7246 512.82422 A 56.692913 56.692913 0 0 1 3524.4102 566.90625 L 3524.4102 725.66992 A 37.795276 37.795276 0 0 1 3486.6133 763.46484 L 3301.418 763.46484 A 37.795276 37.795276 0 0 1 3263.6211 725.66992 L 3263.6211 566.90625 A 56.692913 56.692913 0 0 1 3303.3066 512.82422 A 302.36221 302.36221 0 0 1 3394.0156 498.89844 z M 3771.9688 498.89844 A 302.36221 302.36221 0 0 1 3862.6777 512.82422 A 56.692913 56.692913 0 0 1 3902.3613 566.90625 L 3902.3613 725.66992 A 37.795276 37.795276 0 0 1 3864.5664 763.46484 L 3679.3691 763.46484 A 37.795276 37.795276 0 0 1 3641.5742 725.66992 L 3641.5742 566.90625 A 56.692913 56.692913 0 0 1 3681.2598 512.82422 A 302.36221 302.36221 0 0 1 3771.9688 498.89844 z M 383.62109 506.45703 A 113.38583 113.38583 0 0 1 497.00781 619.8418 L 497.00781 725.66992 A 37.795276 37.795276 0 0 1 459.21289 763.46484 L 308.03125 763.46484 A 37.795276 37.795276 0 0 1 270.23633 725.66992 L 270.23633 619.8418 A 113.38583 113.38583 0 0 1 383.62109 506.45703 z M 4136.6934 506.4668 A 113.38583 113.38583 0 0 1 4250.0781 619.8418 L 4250.0781 725.66992 A 37.795276 37.795276 0 0 1 4212.2832 763.46484 L 4061.1016 763.46484 A 37.795276 37.795276 0 0 1 4023.3066 725.66992 L 4023.3066 619.8418 A 113.38583 113.38583 0 0 1 4136.6934 506.4668 z " />
  </g>
  <g
     inkscape:groupmode="layer"
     inkscape:label="A--L23"
     id="g9502" />
</svg>
