<?xml version="1.0" encoding="UTF-8" standalone="no"?>
<!-- Created with Inkscape (http://www.inkscape.org/) -->

<svg
   width="210mm"
   height="297mm"
   viewBox="0 0 210 297"
   version="1.1"
   id="svg46519"
   xml:space="preserve"
   inkscape:version="1.2.2 (732a01da63, 2022-12-09)"
   sodipodi:docname="PS-isolatievloer 210 Rc=3,5.svg"
   xmlns:inkscape="http://www.inkscape.org/namespaces/inkscape"
   xmlns:sodipodi="http://sodipodi.sourceforge.net/DTD/sodipodi-0.dtd"
   xmlns="http://www.w3.org/2000/svg"
   xmlns:svg="http://www.w3.org/2000/svg"><sodipodi:namedview
     id="namedview46521"
     pagecolor="#ffffff"
     bordercolor="#000000"
     borderopacity="0.25"
     inkscape:showpageshadow="2"
     inkscape:pageopacity="0.0"
     inkscape:pagecheckerboard="0"
     inkscape:deskcolor="#d1d1d1"
     inkscape:document-units="mm"
     showgrid="false"
     inkscape:zoom="0.457453"
     inkscape:cx="269.97309"
     inkscape:cy="595.68961"
     inkscape:window-width="2164"
     inkscape:window-height="1230"
     inkscape:window-x="217"
     inkscape:window-y="74"
     inkscape:window-maximized="0"
     inkscape:current-layer="g47797" /><defs
     id="defs46516"><marker
       id="DistanceX"
       orient="auto"
       refX="0.0"
       refY="0.0"
       style="overflow:visible"><path
         d="M 3,-3 L -3,3 M 0,-5 L  0,5"
         style="stroke:#000000; stroke-width:0.5"
         id="path47737" /></marker><pattern
       id="Hatch"
       patternUnits="userSpaceOnUse"
       width="8"
       height="8"
       x="0"
       y="0"><path
         d="M8 4 l-4,4"
         stroke="#000000"
         stroke-width="0.25"
         linecap="square"
         id="path47740" /><path
         d="M6 2 l-4,4"
         stroke="#000000"
         stroke-width="0.25"
         linecap="square"
         id="path47742" /><path
         d="M4 0 l-4,4"
         stroke="#000000"
         stroke-width="0.25"
         linecap="square"
         id="path47744" /></pattern><symbol
       id="*Model_Space" /><symbol
       id="*Paper_Space" /><symbol
       id="*Paper_Space0" /><symbol
       id="DIMDOT"><path
         style="fill:none;stroke:#000000"
         d="M -7.55905 1122.52 L 7.55905 1122.52"
         id="path47750" /><path
         style="fill:none;stroke:#000000"
         d="M 0 1135.75 L 0 1109.29"
         id="path47752" /><path
         d="M 1.889764,1122.519685 A 1.889764,1.889764 0.000000 0, 0 -1.889764,1122.519685 A 1.889764,1.889764 0.000000 0, 0 1.889764,1122.519685 z"
         style="fill:none;stroke:#000000"
         id="path47754" /><path
         d="M 0.944882,1122.519685 A 0.944882,0.944882 0.000000 0, 0 -0.944882,1122.519685 A 0.944882,0.944882 0.000000 0, 0 0.944882,1122.519685 z"
         style="fill:none;stroke:#000000"
         id="path47756" /></symbol></defs><g
     inkscape:label="Laag 1"
     inkscape:groupmode="layer"
     id="layer1"><g
       id="g47797"
       transform="matrix(0.26458333,0,0,0.26458333,-197.30672,15.370994)"><g
         inkscape:label="0"
         id="g47761" /><g
         inkscape:label="ANZ"
         id="g47763" /><g
         inkscape:label="beton"
         id="g47767"
         style="fill:#c0c0c0;fill-opacity:1"><path
           d="m 495.80883,273.72678 -13.61954,277.49819 a 37.795276,37.795276 0 0 0 28.04693,38.38133 l 77.35319,20.54694 a 18.897638,18.897638 0 0 1 14.04619,18.26429 V 802.86064 H 163.2104 V 628.41753 a 18.897638,18.897638 0 0 1 14.04619,-18.26429 l 77.35319,-20.54694 a 37.795276,37.795276 0 0 0 28.04694,-38.38133 L 269.03718,273.72678 V 160.34095 h 226.77165 z"
           style="fill:#c0c0c0;stroke:#ffff00;fill-opacity:1"
           id="path47765" /></g><g
         inkscape:label="isolatie"
         id="g47771"
         style="fill:#ffffff;fill-opacity:1"><path
           d="m 2532.2835,744.56693 -24.3279,7.29835 a 18.897638,18.897638 0 0 0 -13.4674,18.10065 v 99.32541 h -132.2835 v 143.99996 h -18.8976 l -171.5906,-63.49602 -204.8696,-269.9138 a 94.488189,94.488189 0 0 0 -75.2635,-37.3618 h -627.2613 a 94.488189,94.488189 0 0 0 -75.2635,37.3618 L 984.18898,949.79528 510.23622,1122.5197 H 245.66929 L 0,1031.811 V 857.95276 h 623.62205 a 37.795276,37.795276 0 0 0 37.79527,-37.79528 v -50.19155 a 18.897638,18.897638 0 0 0 -13.46744,-18.10065 l -24.32783,-7.29835 V 638.60952 A 26.456693,26.456693 0 0 0 603.58204,612.94276 L 510.23622,589.6063 V 404.40945 L 1080.9449,196.53543 h 994.0157 l 570.7087,207.87402 V 589.6063 l -93.3458,23.33646 a 26.456693,26.456693 0 0 0 -20.04,25.66676 z"
           style="fill:#ffffff;stroke:#00ff00;fill-opacity:1"
           id="path47769" /></g></g></g></svg>
