<?xml version="1.0" encoding="UTF-8" standalone="no"?>
<!-- Created with Inkscape (http://www.inkscape.org/) -->

<svg
   width="210mm"
   height="297mm"
   viewBox="0 0 210 297"
   version="1.1"
   id="svg56949"
   xml:space="preserve"
   inkscape:version="1.2.2 (732a01da63, 2022-12-09)"
   sodipodi:docname="PS-isolatievloer 210 Rc=6,5.svg"
   xmlns:inkscape="http://www.inkscape.org/namespaces/inkscape"
   xmlns:sodipodi="http://sodipodi.sourceforge.net/DTD/sodipodi-0.dtd"
   xmlns="http://www.w3.org/2000/svg"
   xmlns:svg="http://www.w3.org/2000/svg"><sodipodi:namedview
     id="namedview56951"
     pagecolor="#ffffff"
     bordercolor="#000000"
     borderopacity="0.25"
     inkscape:showpageshadow="2"
     inkscape:pageopacity="0.0"
     inkscape:pagecheckerboard="0"
     inkscape:deskcolor="#d1d1d1"
     inkscape:document-units="mm"
     showgrid="false"
     inkscape:zoom="0.457453"
     inkscape:cx="307.13538"
     inkscape:cy="541.03919"
     inkscape:window-width="2054"
     inkscape:window-height="1226"
     inkscape:window-x="262"
     inkscape:window-y="67"
     inkscape:window-maximized="0"
     inkscape:current-layer="g58230" /><defs
     id="defs56946"><marker
       id="DistanceX"
       orient="auto"
       refX="0.0"
       refY="0.0"
       style="overflow:visible"><path
         d="M 3,-3 L -3,3 M 0,-5 L  0,5"
         style="stroke:#000000; stroke-width:0.5"
         id="path58167" /></marker><pattern
       id="Hatch"
       patternUnits="userSpaceOnUse"
       width="8"
       height="8"
       x="0"
       y="0"><path
         d="M8 4 l-4,4"
         stroke="#000000"
         stroke-width="0.25"
         linecap="square"
         id="path58170" /><path
         d="M6 2 l-4,4"
         stroke="#000000"
         stroke-width="0.25"
         linecap="square"
         id="path58172" /><path
         d="M4 0 l-4,4"
         stroke="#000000"
         stroke-width="0.25"
         linecap="square"
         id="path58174" /></pattern><symbol
       id="*Model_Space" /><symbol
       id="*Paper_Space" /><symbol
       id="*Paper_Space0" /><symbol
       id="DIMDOT"><path
         style="fill:none;stroke:#000000"
         d="M -7.55905 1122.52 L 7.55905 1122.52"
         id="path58180" /><path
         style="fill:none;stroke:#000000"
         d="M 0 1135.75 L 0 1109.29"
         id="path58182" /><path
         d="M 1.889764,1122.519685 A 1.889764,1.889764 0.000000 0, 0 -1.889764,1122.519685 A 1.889764,1.889764 0.000000 0, 0 1.889764,1122.519685 z"
         style="fill:none;stroke:#000000"
         id="path58184" /><path
         d="M 0.944882,1122.519685 A 0.944882,0.944882 0.000000 0, 0 -0.944882,1122.519685 A 0.944882,0.944882 0.000000 0, 0 0.944882,1122.519685 z"
         style="fill:none;stroke:#000000"
         id="path58186" /></symbol></defs><g
     inkscape:label="Laag 1"
     inkscape:groupmode="layer"
     id="layer1"><g
       id="g58230"
       transform="matrix(0.26458333,0,0,0.26458333,-248.06378,54.406046)"><g
         inkscape:label="0"
         id="g58191" /><g
         inkscape:label="ANZ"
         id="g58193" /><g
         inkscape:label="A--L00--"
         id="g58195" /><g
         inkscape:label="isolatie"
         id="g58199"
         style="fill:#ffffff;fill-opacity:1"><path
           d="M 1213.2283,-166.29921 642.51968,41.574803 V 226.77165 l 93.33662,23.32677 a 26.447365,26.447365 0 0 1 20.03988,25.65163 l 0.009,105.98223 24.33071,7.29331 a 18.898214,18.898214 0 0 1 13.46514,18.10999 l -5.7e-4,87.98253 H 0 v 627.40159 h 1005.7327 l 207.4956,-75.5906 h 994.0158 l 66.8974,24.567 88.0632,-68.0315 V 495.11811 h 264.567 V 408.2185 a 18.897638,18.897638 0 0 1 12.7544,-17.87124 l 25.0408,-8.61498 V 275.75787 a 26.456693,26.456693 0 0 1 20.0428,-25.66745 l 93.3431,-23.31877 V 41.574803 L 2207.2441,-166.29921 Z"
           style="fill:#ffffff;stroke:#00ff00;fill-opacity:1"
           id="path58197" /></g><g
         inkscape:label="beton"
         id="g58203"
         style="fill:#c0c0c0;fill-opacity:1"><path
           d="M 628.09229,-202.49369 V -89.107866 L 614.47275,188.39033 a 37.795276,37.795276 0 0 0 28.04693,38.38132 l 77.3532,20.54695 a 18.897638,18.897638 0 0 1 14.04619,18.26428 V 440.02599 H 295.49387 V 265.58288 a 18.897638,18.897638 0 0 1 14.04618,-18.26428 l 77.3532,-20.54695 a 37.795276,37.795276 0 0 0 28.04693,-38.38132 L 401.32064,-89.107866 V -202.49369 Z"
           style="fill:#c0c0c0;stroke:#ffff00;fill-opacity:1"
           id="path58201" /></g></g></g></svg>
