<?xml version="1.0" encoding="UTF-8" standalone="no"?>
<!-- Created with Inkscape (http://www.inkscape.org/) -->

<svg
   width="210mm"
   height="297mm"
   viewBox="0 0 210 297"
   version="1.1"
   id="svg23866"
   xml:space="preserve"
   inkscape:version="1.2.2 (732a01da63, 2022-12-09)"
   sodipodi:docname="PS-isolatievloer 200 Rc=3,5.svg"
   xmlns:inkscape="http://www.inkscape.org/namespaces/inkscape"
   xmlns:sodipodi="http://sodipodi.sourceforge.net/DTD/sodipodi-0.dtd"
   xmlns="http://www.w3.org/2000/svg"
   xmlns:svg="http://www.w3.org/2000/svg"><sodipodi:namedview
     id="namedview23868"
     pagecolor="#ffffff"
     bordercolor="#000000"
     borderopacity="0.25"
     inkscape:showpageshadow="2"
     inkscape:pageopacity="0.0"
     inkscape:pagecheckerboard="0"
     inkscape:deskcolor="#d1d1d1"
     inkscape:document-units="mm"
     showgrid="false"
     inkscape:zoom="0.32346812"
     inkscape:cx="418.89754"
     inkscape:cy="32.460695"
     inkscape:window-width="1346"
     inkscape:window-height="1230"
     inkscape:window-x="717"
     inkscape:window-y="76"
     inkscape:window-maximized="0"
     inkscape:current-layer="g26239" /><defs
     id="defs23863"><marker
       id="DistanceX"
       orient="auto"
       refX="0.0"
       refY="0.0"
       style="overflow:visible"><path
         d="M 3,-3 L -3,3 M 0,-5 L  0,5"
         style="stroke:#000000; stroke-width:0.5"
         id="path26179" /></marker><pattern
       id="Hatch"
       patternUnits="userSpaceOnUse"
       width="8"
       height="8"
       x="0"
       y="0"><path
         d="M8 4 l-4,4"
         stroke="#000000"
         stroke-width="0.25"
         linecap="square"
         id="path26182" /><path
         d="M6 2 l-4,4"
         stroke="#000000"
         stroke-width="0.25"
         linecap="square"
         id="path26184" /><path
         d="M4 0 l-4,4"
         stroke="#000000"
         stroke-width="0.25"
         linecap="square"
         id="path26186" /></pattern><symbol
       id="*Model_Space" /><symbol
       id="*Paper_Space" /><symbol
       id="*Paper_Space0" /><symbol
       id="DIMDOT"><path
         style="fill:none;stroke:#000000"
         d="M -7.55905 1122.52 L 7.55905 1122.52"
         id="path26192" /><path
         style="fill:none;stroke:#000000"
         d="M 0 1135.75 L 0 1109.29"
         id="path26194" /><path
         d="M 1.889764,1122.519685 A 1.889764,1.889764 0.000000 0, 0 -1.889764,1122.519685 A 1.889764,1.889764 0.000000 0, 0 1.889764,1122.519685 z"
         style="fill:none;stroke:#000000"
         id="path26196" /><path
         d="M 0.944882,1122.519685 A 0.944882,0.944882 0.000000 0, 0 -0.944882,1122.519685 A 0.944882,0.944882 0.000000 0, 0 0.944882,1122.519685 z"
         style="fill:none;stroke:#000000"
         id="path26198" /></symbol></defs><g
     inkscape:label="Laag 1"
     inkscape:groupmode="layer"
     id="layer1"><g
       id="g26239"
       transform="matrix(0.26458333,0,0,0.26458333,-173.74489,-17.307682)"><g
         inkscape:label="0"
         id="g26203" /><g
         inkscape:label="ANZ"
         id="g26205" /><g
         inkscape:label="isolatie"
         id="g26209"
         style="fill:#ffffff;fill-opacity:1"><path
           d="m 1137.4214,747.91297 a 94.488189,94.488189 0 0 1 75.2635,-37.36179 h 276.9924 a 94.488189,94.488189 0 0 1 75.2635,37.36179 l 153.2324,201.88231 171.5906,63.49602 h 18.8976 V 869.29134 h 132.2835 v -99.32541 a 18.897638,18.897638 0 0 1 13.4674,-18.10065 l 24.3279,-7.29835 V 638.60952 a 26.456693,26.456693 0 0 1 20.04,-25.66676 L 2192.126,589.6063 V 404.40945 L 1621.4173,196.53543 H 1080.9449 L 510.23622,404.40945 V 589.6063 l 93.34582,23.33646 a 26.456693,26.456693 0 0 1 20.04001,25.66676 v 105.95741 l 24.32783,7.29835 a 18.897638,18.897638 0 0 1 13.46744,18.10065 v 50.19155 a 37.795276,37.795276 0 0 1 -37.79527,37.79528 H 0 V 1031.811 l 245.66929,90.7087 H 510.23622 L 984.18898,949.79528 Z"
           style="fill:#ffffff;stroke:#00ff00;fill-opacity:1"
           id="path26207" /></g><g
         inkscape:label="beton"
         id="g26213"
         style="fill:#c0c0c0;fill-opacity:1"><path
           d="m 495.80883,160.34095 v 113.38583 l -13.61954,277.49819 a 37.795276,37.795276 0 0 0 28.04693,38.38133 l 77.35319,20.54694 a 18.897638,18.897638 0 0 1 14.04619,18.26429 V 802.86064 H 163.2104 V 628.41753 a 18.897638,18.897638 0 0 1 14.04619,-18.26429 l 77.35319,-20.54694 a 37.795276,37.795276 0 0 0 28.04694,-38.38133 L 269.03718,273.72678 V 160.34095 Z"
           style="fill:#c0c0c0;stroke:#ffff00;fill-opacity:1"
           id="path26211" /></g></g></g></svg>
