<?xml version="1.0" encoding="UTF-8" standalone="no"?>
<!-- Created with Inkscape (http://www.inkscape.org/) -->

<svg
   width="210mm"
   height="297mm"
   viewBox="0 0 210 297"
   version="1.1"
   id="svg49678"
   xml:space="preserve"
   inkscape:version="1.2.2 (732a01da63, 2022-12-09)"
   xmlns:inkscape="http://www.inkscape.org/namespaces/inkscape"
   xmlns:sodipodi="http://sodipodi.sourceforge.net/DTD/sodipodi-0.dtd"
   xmlns="http://www.w3.org/2000/svg"
   xmlns:svg="http://www.w3.org/2000/svg"><sodipodi:namedview
     id="namedview49680"
     pagecolor="#ffffff"
     bordercolor="#000000"
     borderopacity="0.25"
     inkscape:showpageshadow="2"
     inkscape:pageopacity="0.0"
     inkscape:pagecheckerboard="0"
     inkscape:deskcolor="#d1d1d1"
     inkscape:document-units="mm"
     showgrid="false"
     inkscape:zoom="0.457453"
     inkscape:cx="523.55105"
     inkscape:cy="628.47986"
     inkscape:window-width="2156"
     inkscape:window-height="1230"
     inkscape:window-x="198"
     inkscape:window-y="82"
     inkscape:window-maximized="0"
     inkscape:current-layer="g50956" /><defs
     id="defs49675"><marker
       id="DistanceX"
       orient="auto"
       refX="0.0"
       refY="0.0"
       style="overflow:visible"><path
         d="M 3,-3 L -3,3 M 0,-5 L  0,5"
         style="stroke:#000000; stroke-width:0.5"
         id="path50896" /></marker><pattern
       id="Hatch"
       patternUnits="userSpaceOnUse"
       width="8"
       height="8"
       x="0"
       y="0"><path
         d="M8 4 l-4,4"
         stroke="#000000"
         stroke-width="0.25"
         linecap="square"
         id="path50899" /><path
         d="M6 2 l-4,4"
         stroke="#000000"
         stroke-width="0.25"
         linecap="square"
         id="path50901" /><path
         d="M4 0 l-4,4"
         stroke="#000000"
         stroke-width="0.25"
         linecap="square"
         id="path50903" /></pattern><symbol
       id="*Model_Space" /><symbol
       id="*Paper_Space" /><symbol
       id="*Paper_Space0" /><symbol
       id="DIMDOT"><path
         style="fill:none;stroke:#000000"
         d="M -7.55905 1122.52 L 7.55905 1122.52"
         id="path50909" /><path
         style="fill:none;stroke:#000000"
         d="M 0 1135.75 L 0 1109.29"
         id="path50911" /><path
         d="M 1.889764,1122.519685 A 1.889764,1.889764 0.000000 0, 0 -1.889764,1122.519685 A 1.889764,1.889764 0.000000 0, 0 1.889764,1122.519685 z"
         style="fill:none;stroke:#000000"
         id="path50913" /><path
         d="M 0.944882,1122.519685 A 0.944882,0.944882 0.000000 0, 0 -0.944882,1122.519685 A 0.944882,0.944882 0.000000 0, 0 0.944882,1122.519685 z"
         style="fill:none;stroke:#000000"
         id="path50915" /></symbol></defs><g
     inkscape:label="Laag 1"
     inkscape:groupmode="layer"
     id="layer1"><g
       id="g50956"
       transform="matrix(0.26458333,0,0,0.26458333,-174.17137,-0.02920093)"><g
         inkscape:label="0"
         id="g50920" /><g
         inkscape:label="ANZ"
         id="g50922" /><g
         inkscape:label="isolatie"
         id="g50926"
         style="fill:#ffffff;fill-opacity:1"><path
           d="m 2552.3235,567.58843 a 26.456693,26.456693 0 0 0 -20.04,25.66676 V 699.2126 l -24.3279,7.29835 a 18.897638,18.897638 0 0 0 -13.4674,18.10065 v 91.76635 H 2362.2047 V 1101.1941 L 2248.8189,1059.8947 2084.897,940.76457 a 37.795276,37.795276 0 0 0 -22.2196,-7.22126 h -969.9416 a 37.795276,37.795276 0 0 0 -21.4903,6.70431 L 888.18898,1066.7779 735.15247,1122.5197 H 83.149606 L 0,1039.3701 V 812.59843 h 623.62205 a 37.795276,37.795276 0 0 0 37.79527,-37.79528 V 724.6116 A 18.897638,18.897638 0 0 0 647.94988,706.51095 L 623.62205,699.2126 V 593.25519 A 26.456693,26.456693 0 0 0 603.58204,567.58843 L 510.23622,544.25197 V 359.05512 L 1080.9449,151.1811 h 994.0157 l 570.7087,207.87402 v 185.19685 z"
           style="fill:#ffffff;stroke:#00ff00;fill-opacity:1"
           id="path50924" /></g><g
         inkscape:label="beton"
         id="g50930"
         style="fill:#c0c0c0;fill-opacity:1"><path
           d="m 495.80883,114.98662 v 113.38583 l -13.61954,277.49819 a 37.795276,37.795276 0 0 0 28.04693,38.38133 l 77.35319,20.54694 A 18.897638,18.897638 0 0 1 601.6356,583.0632 V 757.50631 H 163.2104 V 583.0632 a 18.897638,18.897638 0 0 1 14.04619,-18.26429 l 77.35319,-20.54694 a 37.795276,37.795276 0 0 0 28.04694,-38.38133 L 269.03718,228.37245 V 114.98662 Z"
           style="fill:#c0c0c0;stroke:#ffff00;fill-opacity:1"
           id="path50928" /></g></g></g></svg>
