<?xml version="1.0" encoding="UTF-8" standalone="no"?>
<!-- Created with Inkscape (http://www.inkscape.org/) -->

<svg
   width="210mm"
   height="297mm"
   viewBox="0 0 210 297"
   version="1.1"
   id="svg52099"
   xml:space="preserve"
   inkscape:version="1.2.2 (732a01da63, 2022-12-09)"
   sodipodi:docname="PS-isolatievloer 210 Rc=4.svg"
   xmlns:inkscape="http://www.inkscape.org/namespaces/inkscape"
   xmlns:sodipodi="http://sodipodi.sourceforge.net/DTD/sodipodi-0.dtd"
   xmlns="http://www.w3.org/2000/svg"
   xmlns:svg="http://www.w3.org/2000/svg"><sodipodi:namedview
     id="namedview52101"
     pagecolor="#ffffff"
     bordercolor="#000000"
     borderopacity="0.25"
     inkscape:showpageshadow="2"
     inkscape:pageopacity="0.0"
     inkscape:pagecheckerboard="0"
     inkscape:deskcolor="#d1d1d1"
     inkscape:document-units="mm"
     showgrid="false"
     inkscape:zoom="0.32346812"
     inkscape:cx="-54.101158"
     inkscape:cy="408.07731"
     inkscape:window-width="2140"
     inkscape:window-height="1401"
     inkscape:window-x="232"
     inkscape:window-y="16"
     inkscape:window-maximized="0"
     inkscape:current-layer="g53351" /><defs
     id="defs52096"><marker
       id="DistanceX"
       orient="auto"
       refX="0.0"
       refY="0.0"
       style="overflow:visible"><path
         d="M 3,-3 L -3,3 M 0,-5 L  0,5"
         style="stroke:#000000; stroke-width:0.5"
         id="path53317" /></marker><pattern
       id="Hatch"
       patternUnits="userSpaceOnUse"
       width="8"
       height="8"
       x="0"
       y="0"><path
         d="M8 4 l-4,4"
         stroke="#000000"
         stroke-width="0.25"
         linecap="square"
         id="path53320" /><path
         d="M6 2 l-4,4"
         stroke="#000000"
         stroke-width="0.25"
         linecap="square"
         id="path53322" /><path
         d="M4 0 l-4,4"
         stroke="#000000"
         stroke-width="0.25"
         linecap="square"
         id="path53324" /></pattern><symbol
       id="*Model_Space" /><symbol
       id="*Paper_Space" /><symbol
       id="*Paper_Space0" /><symbol
       id="DIMDOT"><path
         style="fill:none;stroke:#000000"
         d="M -7.55905 1122.52 L 7.55905 1122.52"
         id="path53330" /><path
         style="fill:none;stroke:#000000"
         d="M 0 1135.75 L 0 1109.29"
         id="path53332" /><path
         d="M 1.889764,1122.519685 A 1.889764,1.889764 0.000000 0, 0 -1.889764,1122.519685 A 1.889764,1.889764 0.000000 0, 0 1.889764,1122.519685 z"
         style="fill:none;stroke:#000000"
         id="path53334" /><path
         d="M 0.944882,1122.519685 A 0.944882,0.944882 0.000000 0, 0 -0.944882,1122.519685 A 0.944882,0.944882 0.000000 0, 0 0.944882,1122.519685 z"
         style="fill:none;stroke:#000000"
         id="path53336" /></symbol></defs><g
     inkscape:label="Laag 1"
     inkscape:groupmode="layer"
     id="layer1"><g
       id="g53383"
       transform="matrix(0.26458333,0,0,0.26458333,-208.296,-5.2346537)"><g
         inkscape:label="0"
         id="g53341" /><g
         inkscape:label="ANZ"
         id="g53343" /><g
         inkscape:label="ARC"
         id="g53345" /><g
         inkscape:label="isolatie"
         id="g53351"><path
           d="m 2248.8189,1059.8947 113.3858,41.2994 V 816.37795 h 132.2835 V 724.6116 a 18.897638,18.897638 0 0 1 13.4674,-18.10065 l 24.3279,-7.29835 V 593.25519 a 26.456693,26.456693 0 0 1 20.04,-25.66676 l 93.3458,-23.33646 V 359.05512 L 2074.9606,151.1811 H 1080.9449 L 510.23622,359.05512 v 185.19685 l 93.34582,23.33646 a 26.456693,26.456693 0 0 1 20.04001,25.66676 V 699.2126 l 24.32783,7.29835 a 18.897638,18.897638 0 0 1 13.46744,18.10065 v 50.19155 a 37.795276,37.795276 0 0 1 -37.79527,37.79528 H 0 v 226.77167 l 83.149606,83.1496 H 735.15247 l 131.7936,-48.0043 3.77953,-16.2551 198.8864,-268.17602 a 37.795276,37.795276 0 0 1 30.3578,-15.28113 h 955.9659 a 37.795276,37.795276 0 0 1 30.3578,15.28113 l 106.393,143.45903 41.0143,92.32119 3.7795,25.7899"
           style="fill:#ffffff;stroke:#00ff00;fill-opacity:1"
           id="path53347" /><path
           style="fill:none;stroke:#00ff00"
           d="m 2237.48,1051.65 11.34,8.24"
           id="path53349" /></g><g
         inkscape:label="beton"
         id="g53355"
         style="fill:#c0c0c0;fill-opacity:1"><path
           d="m 495.80883,114.98662 v 113.38583 l -13.61954,277.49819 a 37.795276,37.795276 0 0 0 28.04693,38.38133 l 77.35319,20.54694 A 18.897638,18.897638 0 0 1 601.6356,583.0632 V 757.50631 H 163.2104 V 583.0632 a 18.897638,18.897638 0 0 1 14.04619,-18.26429 l 77.35319,-20.54694 a 37.795276,37.795276 0 0 0 28.04694,-38.38133 L 269.03718,228.37245 V 114.98662 Z"
           style="fill:#c0c0c0;stroke:#ffff00;fill-opacity:1"
           id="path53353" /></g></g></g></svg>
