<?xml version="1.0" encoding="UTF-8" standalone="no"?>
<!-- Created with Inkscape (http://www.inkscape.org/) -->

<svg
   width="210mm"
   height="297mm"
   viewBox="0 0 210 297"
   version="1.1"
   id="svg40935"
   xml:space="preserve"
   inkscape:version="1.2.2 (732a01da63, 2022-12-09)"
   sodipodi:docname="PS-isolatievloer 200 Rc=5.svg"
   xmlns:inkscape="http://www.inkscape.org/namespaces/inkscape"
   xmlns:sodipodi="http://sodipodi.sourceforge.net/DTD/sodipodi-0.dtd"
   xmlns="http://www.w3.org/2000/svg"
   xmlns:svg="http://www.w3.org/2000/svg"><sodipodi:namedview
     id="namedview40937"
     pagecolor="#ffffff"
     bordercolor="#000000"
     borderopacity="0.25"
     inkscape:showpageshadow="2"
     inkscape:pageopacity="0.0"
     inkscape:pagecheckerboard="0"
     inkscape:deskcolor="#d1d1d1"
     inkscape:document-units="mm"
     showgrid="false"
     inkscape:zoom="0.457453"
     inkscape:cx="306.04237"
     inkscape:cy="547.59724"
     inkscape:window-width="2191"
     inkscape:window-height="1230"
     inkscape:window-x="205"
     inkscape:window-y="36"
     inkscape:window-maximized="0"
     inkscape:current-layer="g42213" /><defs
     id="defs40932"><marker
       id="DistanceX"
       orient="auto"
       refX="0.0"
       refY="0.0"
       style="overflow:visible"><path
         d="M 3,-3 L -3,3 M 0,-5 L  0,5"
         style="stroke:#000000; stroke-width:0.5"
         id="path42153" /></marker><pattern
       id="Hatch"
       patternUnits="userSpaceOnUse"
       width="8"
       height="8"
       x="0"
       y="0"><path
         d="M8 4 l-4,4"
         stroke="#000000"
         stroke-width="0.25"
         linecap="square"
         id="path42156" /><path
         d="M6 2 l-4,4"
         stroke="#000000"
         stroke-width="0.25"
         linecap="square"
         id="path42158" /><path
         d="M4 0 l-4,4"
         stroke="#000000"
         stroke-width="0.25"
         linecap="square"
         id="path42160" /></pattern><symbol
       id="*Model_Space" /><symbol
       id="*Paper_Space" /><symbol
       id="*Paper_Space0" /><symbol
       id="DIMDOT"><path
         style="fill:none;stroke:#000000"
         d="M -7.55905 1122.52 L 7.55905 1122.52"
         id="path42166" /><path
         style="fill:none;stroke:#000000"
         d="M 0 1135.75 L 0 1109.29"
         id="path42168" /><path
         d="M 1.889764,1122.519685 A 1.889764,1.889764 0.000000 0, 0 -1.889764,1122.519685 A 1.889764,1.889764 0.000000 0, 0 1.889764,1122.519685 z"
         style="fill:none;stroke:#000000"
         id="path42170" /><path
         d="M 0.944882,1122.519685 A 0.944882,0.944882 0.000000 0, 0 -0.944882,1122.519685 A 0.944882,0.944882 0.000000 0, 0 0.944882,1122.519685 z"
         style="fill:none;stroke:#000000"
         id="path42172" /></symbol></defs><g
     inkscape:label="Laag 1"
     inkscape:groupmode="layer"
     id="layer1"><g
       id="g42213"
       transform="matrix(0.26458333,0,0,0.26458333,-167.38267,23.141198)"><g
         inkscape:label="0"
         id="g42177" /><g
         inkscape:label="ANZ"
         id="g42179" /><g
         inkscape:label="isolatie"
         id="g42183"
         style="fill:#ffffff;fill-opacity:1"><path
           d="m 2098.7802,499.55693 93.3458,-23.33646 V 291.02362 L 1621.4173,83.149606 H 1080.9449 L 510.23622,291.02362 v 185.19685 l 93.34582,23.33646 a 26.456693,26.456693 0 0 1 20.04001,25.66676 V 631.1811 l 24.32783,7.29835 a 18.897638,18.897638 0 0 1 13.46744,18.10066 v 50.19154 a 37.795276,37.795276 0 0 1 -37.79527,37.79528 H 0 v 377.95277 h 873.41446 l 207.53044,-75.5906 h 540.4724 l 207.5304,75.5906 h 79.7137 V 748.34646 h 132.2835 v -91.76635 a 18.897638,18.897638 0 0 1 13.4674,-18.10066 l 24.3279,-7.29835 V 525.22369 a 26.456693,26.456693 0 0 1 20.04,-25.66676 z"
           style="fill:#ffffff;stroke:#00ff00;fill-opacity:1"
           id="path42181" /></g><g
         inkscape:label="beton"
         id="g42187"
         style="fill:#c0c0c0;fill-opacity:1"><path
           d="M 495.80883,46.955126 V 160.34095 l -13.61954,277.4982 a 37.795276,37.795276 0 0 0 28.04693,38.38132 l 77.35319,20.54694 A 18.897638,18.897638 0 0 1 601.6356,515.0317 V 689.47481 H 163.2104 V 515.0317 a 18.897638,18.897638 0 0 1 14.04619,-18.26429 l 77.35319,-20.54694 a 37.795276,37.795276 0 0 0 28.04694,-38.38132 L 269.03718,160.34095 V 46.955126 Z"
           style="fill:#c0c0c0;stroke:#ffff00;fill-opacity:1"
           id="path42185" /></g></g></g></svg>
