<?xml version="1.0" encoding="UTF-8" standalone="no"?>
<!-- Created with Inkscape (http://www.inkscape.org/) -->

<svg
   width="210mm"
   height="297mm"
   viewBox="0 0 210 297"
   version="1.1"
   id="svg54528"
   xml:space="preserve"
   inkscape:version="1.2.2 (732a01da63, 2022-12-09)"
   sodipodi:docname="PS-isolatievloer 210 Rc=5.svg"
   xmlns:inkscape="http://www.inkscape.org/namespaces/inkscape"
   xmlns:sodipodi="http://sodipodi.sourceforge.net/DTD/sodipodi-0.dtd"
   xmlns="http://www.w3.org/2000/svg"
   xmlns:svg="http://www.w3.org/2000/svg"><sodipodi:namedview
     id="namedview54530"
     pagecolor="#ffffff"
     bordercolor="#000000"
     borderopacity="0.25"
     inkscape:showpageshadow="2"
     inkscape:pageopacity="0.0"
     inkscape:pagecheckerboard="0"
     inkscape:deskcolor="#d1d1d1"
     inkscape:document-units="mm"
     showgrid="false"
     inkscape:zoom="0.457453"
     inkscape:cx="453.59851"
     inkscape:cy="652.52605"
     inkscape:window-width="2036"
     inkscape:window-height="1230"
     inkscape:window-x="279"
     inkscape:window-y="73"
     inkscape:window-maximized="0"
     inkscape:current-layer="g55806" /><defs
     id="defs54525"><marker
       id="DistanceX"
       orient="auto"
       refX="0.0"
       refY="0.0"
       style="overflow:visible"><path
         d="M 3,-3 L -3,3 M 0,-5 L  0,5"
         style="stroke:#000000; stroke-width:0.5"
         id="path55746" /></marker><pattern
       id="Hatch"
       patternUnits="userSpaceOnUse"
       width="8"
       height="8"
       x="0"
       y="0"><path
         d="M8 4 l-4,4"
         stroke="#000000"
         stroke-width="0.25"
         linecap="square"
         id="path55749" /><path
         d="M6 2 l-4,4"
         stroke="#000000"
         stroke-width="0.25"
         linecap="square"
         id="path55751" /><path
         d="M4 0 l-4,4"
         stroke="#000000"
         stroke-width="0.25"
         linecap="square"
         id="path55753" /></pattern><symbol
       id="*Model_Space" /><symbol
       id="*Paper_Space" /><symbol
       id="*Paper_Space0" /><symbol
       id="DIMDOT"><path
         style="fill:none;stroke:#000000"
         d="M -7.55905 1122.52 L 7.55905 1122.52"
         id="path55759" /><path
         style="fill:none;stroke:#000000"
         d="M 0 1135.75 L 0 1109.29"
         id="path55761" /><path
         d="M 1.889764,1122.519685 A 1.889764,1.889764 0.000000 0, 0 -1.889764,1122.519685 A 1.889764,1.889764 0.000000 0, 0 1.889764,1122.519685 z"
         style="fill:none;stroke:#000000"
         id="path55763" /><path
         d="M 0.944882,1122.519685 A 0.944882,0.944882 0.000000 0, 0 -0.944882,1122.519685 A 0.944882,0.944882 0.000000 0, 0 0.944882,1122.519685 z"
         style="fill:none;stroke:#000000"
         id="path55765" /></symbol></defs><g
     inkscape:label="Laag 1"
     inkscape:groupmode="layer"
     id="layer1"><g
       id="g55806"
       transform="matrix(0.26458333,0,0,0.26458333,-215.23661,33.97372)"><g
         inkscape:label="0"
         id="g55770" /><g
         inkscape:label="ANZ"
         id="g55772" /><g
         inkscape:label="isolatie"
         id="g55776"
         style="fill:#ffffff;fill-opacity:1"><path
           d="m 2074.9606,75.590551 570.7087,207.874019 v 185.19685 l -93.3458,23.33645 a 26.456693,26.456693 0 0 0 -20.04,25.66677 v 105.95741 l -24.3279,7.29835 a 18.897638,18.897638 0 0 0 -13.4674,18.10065 v 91.76635 h -132.2835 v 360.4067 L 2248.8189,1059.8947 2084.897,940.76457 a 37.795276,37.795276 0 0 0 -22.2196,-7.22126 h -969.9416 a 37.795276,37.795276 0 0 0 -21.4903,6.70431 L 888.18898,1066.7779 735.15247,1122.5197 H 83.149606 L 0,1039.3701 V 737.00787 H 623.62205 A 37.795276,37.795276 0 0 0 661.41732,699.2126 V 649.02105 A 18.897638,18.897638 0 0 0 647.94988,630.9204 l -24.32783,-7.29835 V 517.66464 A 26.456693,26.456693 0 0 0 603.58204,491.99787 L 510.23622,468.66142 V 283.46457 L 1080.9449,75.590551 Z"
           style="fill:#ffffff;stroke:#00ff00;fill-opacity:1"
           id="path55774" /></g><g
         inkscape:label="beton"
         id="g55780"
         style="fill:#c0c0c0;fill-opacity:1"><path
           d="M 495.80883,39.396071 V 152.7819 l -13.61954,277.49819 a 37.795276,37.795276 0 0 0 28.04693,38.38133 l 77.35319,20.54694 a 18.897638,18.897638 0 0 1 14.04619,18.26428 V 681.91576 H 163.2104 V 507.47264 a 18.897638,18.897638 0 0 1 14.04619,-18.26428 l 77.35319,-20.54694 a 37.795276,37.795276 0 0 0 28.04694,-38.38133 L 269.03718,152.7819 V 39.396071 Z"
           style="fill:#c0c0c0;stroke:#ffff00;fill-opacity:1"
           id="path55778" /></g></g></g></svg>
