<?xml version="1.0" encoding="UTF-8" standalone="no"?>
<!-- Created with Inkscape (http://www.inkscape.org/) -->

<svg
   width="210mm"
   height="297mm"
   viewBox="0 0 210 297"
   version="1.1"
   id="svg44094"
   xml:space="preserve"
   inkscape:version="1.2.2 (732a01da63, 2022-12-09)"
   sodipodi:docname="PS-isolatievloer 200 Rc=6,5.svg"
   xmlns:inkscape="http://www.inkscape.org/namespaces/inkscape"
   xmlns:sodipodi="http://sodipodi.sourceforge.net/DTD/sodipodi-0.dtd"
   xmlns="http://www.w3.org/2000/svg"
   xmlns:svg="http://www.w3.org/2000/svg"><sodipodi:namedview
     id="namedview44096"
     pagecolor="#ffffff"
     bordercolor="#000000"
     borderopacity="0.25"
     inkscape:showpageshadow="2"
     inkscape:pageopacity="0.0"
     inkscape:pagecheckerboard="0"
     inkscape:deskcolor="#d1d1d1"
     inkscape:document-units="mm"
     showgrid="false"
     inkscape:zoom="0.457453"
     inkscape:cx="-7.6510592"
     inkscape:cy="508.24893"
     inkscape:window-width="2258"
     inkscape:window-height="1230"
     inkscape:window-x="122"
     inkscape:window-y="85"
     inkscape:window-maximized="0"
     inkscape:current-layer="g45375" /><defs
     id="defs44091"><marker
       id="DistanceX"
       orient="auto"
       refX="0.0"
       refY="0.0"
       style="overflow:visible"><path
         d="M 3,-3 L -3,3 M 0,-5 L  0,5"
         style="stroke:#000000; stroke-width:0.5"
         id="path45312" /></marker><pattern
       id="Hatch"
       patternUnits="userSpaceOnUse"
       width="8"
       height="8"
       x="0"
       y="0"><path
         d="M8 4 l-4,4"
         stroke="#000000"
         stroke-width="0.25"
         linecap="square"
         id="path45315" /><path
         d="M6 2 l-4,4"
         stroke="#000000"
         stroke-width="0.25"
         linecap="square"
         id="path45317" /><path
         d="M4 0 l-4,4"
         stroke="#000000"
         stroke-width="0.25"
         linecap="square"
         id="path45319" /></pattern><symbol
       id="*Model_Space" /><symbol
       id="*Paper_Space" /><symbol
       id="*Paper_Space0" /><symbol
       id="DIMDOT"><path
         style="fill:none;stroke:#000000"
         d="M -7.55905 1122.52 L 7.55905 1122.52"
         id="path45325" /><path
         style="fill:none;stroke:#000000"
         d="M 0 1135.75 L 0 1109.29"
         id="path45327" /><path
         d="M 1.889764,1122.519685 A 1.889764,1.889764 0.000000 0, 0 -1.889764,1122.519685 A 1.889764,1.889764 0.000000 0, 0 1.889764,1122.519685 z"
         style="fill:none;stroke:#000000"
         id="path45329" /><path
         d="M 0.944882,1122.519685 A 0.944882,0.944882 0.000000 0, 0 -0.944882,1122.519685 A 0.944882,0.944882 0.000000 0, 0 0.944882,1122.519685 z"
         style="fill:none;stroke:#000000"
         id="path45331" /></symbol></defs><g
     inkscape:label="Laag 1"
     inkscape:groupmode="layer"
     id="layer1"><g
       id="g45375"
       transform="matrix(0.26458333,0,0,0.26458333,-161.16893,41.235648)"><g
         inkscape:label="0"
         id="g45336" /><g
         inkscape:label="ANZ"
         id="g45338" /><g
         inkscape:label="A--L00--"
         id="g45340" /><g
         inkscape:label="isolatie"
         id="g45344"
         style="fill:#ffffff;fill-opacity:1"><path
           d="M 1213.2283,-173.85827 642.51968,34.015748 V 219.2126 l 93.33662,23.32677 a 26.447365,26.447365 0 0 1 20.03988,25.65207 l 0.009,105.98179 24.33071,7.29331 a 18.898214,18.898214 0 0 1 13.46514,18.10961 l -5.7e-4,87.9829 H 0 v 634.96065 h 1005.7327 l 207.4956,-75.5906 h 540.4725 l 66.8965,24.567 88.0641,-68.0315 V 487.55905 h 264.5669 v -86.8996 a 18.897638,18.897638 0 0 1 12.7542,-17.87117 l 25.0411,-8.61505 V 268.19882 a 26.456693,26.456693 0 0 1 20.0435,-25.66763 l 93.3423,-23.31859 V 34.015748 L 1753.7008,-173.85827 Z"
           style="fill:#ffffff;stroke:#00ff00;fill-opacity:1"
           id="path45342" /></g><g
         inkscape:label="beton"
         id="g45348"
         style="fill:#c0c0c0;fill-opacity:1"><path
           d="M 628.09229,-210.05275 V -96.666922 L 614.47275,180.83127 a 37.795276,37.795276 0 0 0 28.04693,38.38133 l 77.3532,20.54694 a 18.897638,18.897638 0 0 1 14.04619,18.26429 V 432.46694 H 295.49387 V 258.02383 a 18.897638,18.897638 0 0 1 14.04618,-18.26429 l 77.3532,-20.54694 a 37.795276,37.795276 0 0 0 28.04693,-38.38133 L 401.32064,-96.666922 V -210.05275 Z"
           style="fill:#c0c0c0;stroke:#ffff00;fill-opacity:1"
           id="path45346" /></g></g></g></svg>
