<?xml version="1.0" encoding="UTF-8" standalone="no"?>
<!-- Created with Inkscape (http://www.inkscape.org/) -->

<svg
   width="210mm"
   height="297mm"
   viewBox="0 0 210 297"
   version="1.1"
   id="svg30541"
   xml:space="preserve"
   inkscape:version="1.2.2 (732a01da63, 2022-12-09)"
   sodipodi:docname="PS-isolatievloer 200 Rc=4,2.svg"
   xmlns:inkscape="http://www.inkscape.org/namespaces/inkscape"
   xmlns:sodipodi="http://sodipodi.sourceforge.net/DTD/sodipodi-0.dtd"
   xmlns="http://www.w3.org/2000/svg"
   xmlns:svg="http://www.w3.org/2000/svg"><sodipodi:namedview
     id="namedview30543"
     pagecolor="#ffffff"
     bordercolor="#000000"
     borderopacity="0.25"
     inkscape:showpageshadow="2"
     inkscape:pageopacity="0.0"
     inkscape:pagecheckerboard="0"
     inkscape:deskcolor="#d1d1d1"
     inkscape:document-units="mm"
     showgrid="false"
     inkscape:zoom="0.5"
     inkscape:cx="592"
     inkscape:cy="619"
     inkscape:window-width="1873"
     inkscape:window-height="1230"
     inkscape:window-x="513"
     inkscape:window-y="71"
     inkscape:window-maximized="0"
     inkscape:current-layer="g35292" /><defs
     id="defs30538"><marker
       id="DistanceX"
       orient="auto"
       refX="0.0"
       refY="0.0"
       style="overflow:visible"><path
         d="M 3,-3 L -3,3 M 0,-5 L  0,5"
         style="stroke:#000000; stroke-width:0.5"
         id="path35229" /></marker><pattern
       id="Hatch"
       patternUnits="userSpaceOnUse"
       width="8"
       height="8"
       x="0"
       y="0"><path
         d="M8 4 l-4,4"
         stroke="#000000"
         stroke-width="0.25"
         linecap="square"
         id="path35232" /><path
         d="M6 2 l-4,4"
         stroke="#000000"
         stroke-width="0.25"
         linecap="square"
         id="path35234" /><path
         d="M4 0 l-4,4"
         stroke="#000000"
         stroke-width="0.25"
         linecap="square"
         id="path35236" /></pattern><symbol
       id="*Model_Space" /><symbol
       id="*Paper_Space" /><symbol
       id="*Paper_Space0" /><symbol
       id="DIMDOT"><path
         style="fill:none;stroke:#000000"
         d="M -7.55905 1122.52 L 7.55905 1122.52"
         id="path35242" /><path
         style="fill:none;stroke:#000000"
         d="M 0 1135.75 L 0 1109.29"
         id="path35244" /><path
         d="M 1.889764,1122.519685 A 1.889764,1.889764 0.000000 0, 0 -1.889764,1122.519685 A 1.889764,1.889764 0.000000 0, 0 1.889764,1122.519685 z"
         style="fill:none;stroke:#000000"
         id="path35246" /><path
         d="M 0.944882,1122.519685 A 0.944882,0.944882 0.000000 0, 0 -0.944882,1122.519685 A 0.944882,0.944882 0.000000 0, 0 0.944882,1122.519685 z"
         style="fill:none;stroke:#000000"
         id="path35248" /></symbol></defs><g
     inkscape:label="Laag 1"
     inkscape:groupmode="layer"
     id="layer1"><g
       id="g35292"
       transform="matrix(0.26458333,0,0,0.26458333,-97.912498,32.609062)"><g
         inkscape:label="0"
         id="g35253" /><g
         inkscape:label="ANZ"
         id="g35255" /><g
         inkscape:label="A--L00--"
         id="g35257" /><g
         inkscape:label="isolatie"
         id="g35261"
         style="fill:#ffffff;fill-opacity:1"><path
           d="m 1351.1811,151.1811 h 270.2362 l 570.7087,207.87402 v 185.19685 l -93.3366,23.32677 a 26.447365,26.447365 0 0 0 -20.0399,25.65163 l -0.01,105.98223 -24.3308,7.29331 a 18.898214,18.898214 0 0 0 -13.4651,18.10999 l 6e-4,87.98253 h -132.2835 v 302.36217 h -113.3858 l -173.8583,-75.5905 h -270.2362 -270.2362 l -207.46065,83.1496 H 0 V 812.59843 h 623.62205 a 37.795276,37.795276 0 0 0 37.79527,-37.79529 V 725.69882 A 18.897638,18.897638 0 0 0 648.66293,707.82758 L 623.62205,699.2126 V 593.23819 A 26.456693,26.456693 0 0 0 603.57889,567.57064 L 510.23622,544.25197 V 359.05512 L 1080.9449,151.1811 Z"
           style="fill:#ffffff;stroke:#00ff00;fill-opacity:1"
           id="path35259" /></g><g
         inkscape:label="beton"
         id="g35265"
         style="fill:#c0c0c0;fill-opacity:1"><path
           d="m 495.80883,114.98662 v 113.38583 l -13.61954,277.49819 a 37.795276,37.795276 0 0 0 28.04693,38.38133 l 77.35319,20.54694 A 18.897638,18.897638 0 0 1 601.6356,583.0632 V 757.50631 H 163.2104 V 583.0632 a 18.897638,18.897638 0 0 1 14.04619,-18.26429 l 77.35319,-20.54694 a 37.795276,37.795276 0 0 0 28.04694,-38.38133 L 269.03718,228.37245 V 114.98662 Z"
           style="fill:#c0c0c0;stroke:#ffff00;fill-opacity:1"
           id="path35263" /></g></g></g></svg>
