<?xml version="1.0" encoding="UTF-8" standalone="no"?>
<!-- Created with Inkscape (http://www.inkscape.org/) -->

<svg
   width="210mm"
   height="297mm"
   viewBox="0 0 210 297"
   version="1.1"
   id="svg59374"
   xml:space="preserve"
   inkscape:version="1.2.2 (732a01da63, 2022-12-09)"
   sodipodi:docname="Renovatievloer Rc=4 droog.svg"
   xmlns:inkscape="http://www.inkscape.org/namespaces/inkscape"
   xmlns:sodipodi="http://sodipodi.sourceforge.net/DTD/sodipodi-0.dtd"
   xmlns="http://www.w3.org/2000/svg"
   xmlns:svg="http://www.w3.org/2000/svg"><sodipodi:namedview
     id="namedview59376"
     pagecolor="#ffffff"
     bordercolor="#000000"
     borderopacity="0.25"
     inkscape:showpageshadow="2"
     inkscape:pageopacity="0.0"
     inkscape:pagecheckerboard="0"
     inkscape:deskcolor="#d1d1d1"
     inkscape:document-units="mm"
     showgrid="false"
     inkscape:zoom="0.32346812"
     inkscape:cx="581.20102"
     inkscape:cy="709.49805"
     inkscape:window-width="2133"
     inkscape:window-height="1230"
     inkscape:window-x="225"
     inkscape:window-y="36"
     inkscape:window-maximized="0"
     inkscape:current-layer="g60668" /><defs
     id="defs59371"><marker
       id="DistanceX"
       orient="auto"
       refX="0.0"
       refY="0.0"
       style="overflow:visible"><path
         d="M 3,-3 L -3,3 M 0,-5 L  0,5"
         style="stroke:#000000; stroke-width:0.5"
         id="path60592" /></marker><pattern
       id="Hatch"
       patternUnits="userSpaceOnUse"
       width="8"
       height="8"
       x="0"
       y="0"><path
         d="M8 4 l-4,4"
         stroke="#000000"
         stroke-width="0.25"
         linecap="square"
         id="path60595" /><path
         d="M6 2 l-4,4"
         stroke="#000000"
         stroke-width="0.25"
         linecap="square"
         id="path60597" /><path
         d="M4 0 l-4,4"
         stroke="#000000"
         stroke-width="0.25"
         linecap="square"
         id="path60599" /></pattern><symbol
       id="*Model_Space" /><symbol
       id="*Paper_Space" /><symbol
       id="*Paper_Space0" /><symbol
       id="DIMDOT"><path
         style="fill:none;stroke:#000000"
         d="M -7.55905 1122.52 L 7.55905 1122.52"
         id="path60605" /><path
         style="fill:none;stroke:#000000"
         d="M 0 1135.75 L 0 1109.29"
         id="path60607" /><path
         d="M 1.889764,1122.519685 A 1.889764,1.889764 0.000000 0, 0 -1.889764,1122.519685 A 1.889764,1.889764 0.000000 0, 0 1.889764,1122.519685 z"
         style="fill:none;stroke:#000000"
         id="path60609" /><path
         d="M 0.944882,1122.519685 A 0.944882,0.944882 0.000000 0, 0 -0.944882,1122.519685 A 0.944882,0.944882 0.000000 0, 0 0.944882,1122.519685 z"
         style="fill:none;stroke:#000000"
         id="path60611" /></symbol><symbol
       id="_DOT"><path
         d="M -0.944882,1122.519685 A 0.944882,0.944882 0.0 0 0 0.944882,1122.519685 A 0.944882,0.944882 0.0 0 0 -0.944882,1122.519685 z"
         style="fill:none;stroke:#000000;stroke-linecap: round"
         id="path60614" /><path
         style="fill:none;stroke:#000000;stroke-linecap:round"
         d="M -1.88976 1122.52 L -3.77953 1122.52"
         id="path60616" /></symbol><symbol
       id="A$C2545e61d"><path
         d="M 2301.732283,1122.519685 L 2301.732283,778.582677 L 2339.527559,778.582677 L 2339.527559,727.370817 L 2477.591043,727.370817 A 18.897638,18.897638 0.0 0 0 2490.953721,721.835797 L 2502.335138,710.451526 A 9.447810,9.447810 0.0 0 0 2505.102337,703.770912 L 2505.103346,576.054995 A 264.566929,264.566929 0.0 0 0 2356.882157,338.443277 L 1849.783465,90.145792 L 939.507874,90.145792 L 432.217028,338.564838 A 264.568764,264.568764 0.0 0 0 284.008992,576.176401 L 284.010827,703.593750 A 9.448819,9.448819 0.0 0 0 286.778321,710.275073 L 298.339075,721.834400 A 18.895619,18.895619 0.0 0 0 311.700295,727.368798 L 438.425197,727.370817 L 438.425197,765.354331 A 9.448819,9.448819 0.0 0 1 428.976378,774.803150 L 0.000000,774.803150 L 0.000000,1122.519685 L 516.636319,1122.519685 L 939.507874,915.441068 L 1849.783465,915.441068 L 2272.699311,1122.519685 L 2301.732283,1122.519685 L 2301.732283,1122.519685 z"
         style="fill:none;stroke:#FF0000"
         id="path60619" /></symbol></defs><g
     inkscape:label="Laag 1"
     inkscape:groupmode="layer"
     id="layer1"><g
       id="g60668"
       transform="matrix(0.26458333,0,0,0.26458333,-216.30581,-0.5024601)"><g
         inkscape:label="0"
         id="g60624" /><g
         inkscape:label="kader"
         id="g60626" /><g
         inkscape:label="staal"
         id="g60630"
         style="fill:#8f8f8f;fill-opacity:1"><path
           d="M 240.00636,706.12279 V 655.09917 283.98738 229.63777 a 5.669291,5.669291 0 0 0 -1.6605,-4.00879 l -113.3952,-113.3952 a 10.393701,10.393701 0 0 1 7.34946,-17.743153 h 224.88189 a 10.393701,10.393701 0 0 1 7.34946,17.743153 l -113.3952,113.3952 a 5.669291,5.669291 0 0 0 -1.66049,4.00879 v 54.34961 l -0.0333,333.31652 h -4.72441 l 0.0333,-333.31652 v -54.34961 a 10.393701,10.393701 0 0 1 3.04424,-7.34945 l 113.3952,-113.3952 a 5.669291,5.669291 0 0 0 -4.0088,-9.678083 H 132.30012 a 5.669291,5.669291 0 0 0 -4.00879,9.678083 l 113.39519,113.3952 a 10.393701,10.393701 0 0 1 3.04425,7.34945 v 54.34961 371.11179 51.02362 a 10.393701,10.393701 0 0 1 -3.04425,7.34946 l -53.37327,53.37327 a 10.393701,10.393701 0 0 1 -7.34945,3.04424 H 60.472454 v 0.18898 H 428.97638 v -0.18898 H 308.48503 a 10.393701,10.393701 0 0 1 -7.34945,-3.04424 l -53.37327,-53.37327 a 10.393701,10.393701 0 0 1 -3.04424,-7.34946 V 655.09917 617.3039 h 4.72441 v 37.79527 51.02362 a 5.669291,5.669291 0 0 0 1.66049,4.0088 l 53.37327,53.37327 a 5.669291,5.669291 0 0 0 4.00879,1.66049 h 120.49135 a 4.724409,4.724409 0 0 1 4.72441,4.72441 v 0.18898 a 4.724409,4.724409 0 0 1 -4.72441,4.72441 H 60.472454 a 4.724409,4.724409 0 0 1 -4.724409,-4.72441 v -0.18898 a 4.724409,4.724409 0 0 1 4.724409,-4.72441 H 180.9638 a 5.669291,5.669291 0 0 0 4.00879,-1.66049 l 53.37327,-53.37327 a 5.669291,5.669291 0 0 0 1.6605,-4.0088 z"
           style="fill:#8f8f8f;stroke:#000000;stroke-linecap:round;fill-opacity:1"
           id="path60628" /></g><g
         inkscape:label="isolatie"
         id="g60634"
         style="fill:#ffffff;fill-opacity:1"><path
           d="M 2301.7323,1122.5197 V 778.58268 h 37.7953 v -51.21186 h 138.0634 a 18.897638,18.897638 0 0 0 13.3627,-5.53502 l 11.3814,-11.38427 a 9.44781,9.44781 0 0 0 2.7672,-6.68062 V 576.05499 A 264.56693,264.56693 0 0 0 2356.8822,338.44328 L 1849.7835,90.145792 H 939.50787 L 432.21703,338.56484 A 264.56876,264.56876 0 0 0 284.00899,576.1764 l 0.002,127.41735 a 9.448819,9.448819 0 0 0 2.76749,6.68132 l 11.56075,11.55933 a 18.895619,18.895619 0 0 0 13.36122,5.5344 l 126.72491,0.002 v 37.98351 a 9.448819,9.448819 0 0 1 -9.44882,9.44882 H 0 V 1122.5197 H 516.63632 L 939.50787,915.44107 h 910.27563 l 422.9158,207.07863 z"
           style="fill:#ffffff;stroke:#ff0000;fill-opacity:1"
           id="path60632" /></g><g
         inkscape:label="06-25-1"
         id="g60636" /></g></g></svg>
