<?xml version="1.0" encoding="UTF-8" standalone="no"?>
<!-- Created with Inkscape (http://www.inkscape.org/) -->

<svg
   width="210mm"
   height="297mm"
   viewBox="0 0 210 297"
   version="1.1"
   id="svg65002"
   xml:space="preserve"
   inkscape:version="1.2.2 (732a01da63, 2022-12-09)"
   sodipodi:docname="Renovatievloer Rc=5,2 droog.svg"
   xmlns:inkscape="http://www.inkscape.org/namespaces/inkscape"
   xmlns:sodipodi="http://sodipodi.sourceforge.net/DTD/sodipodi-0.dtd"
   xmlns="http://www.w3.org/2000/svg"
   xmlns:svg="http://www.w3.org/2000/svg"><sodipodi:namedview
     id="namedview65004"
     pagecolor="#ffffff"
     bordercolor="#000000"
     borderopacity="0.25"
     inkscape:showpageshadow="2"
     inkscape:pageopacity="0.0"
     inkscape:pagecheckerboard="0"
     inkscape:deskcolor="#d1d1d1"
     inkscape:document-units="mm"
     showgrid="false"
     inkscape:zoom="0.37732698"
     inkscape:cx="113.95952"
     inkscape:cy="856.02148"
     inkscape:window-width="2039"
     inkscape:window-height="1401"
     inkscape:window-x="325"
     inkscape:window-y="29"
     inkscape:window-maximized="0"
     inkscape:current-layer="g66291" /><defs
     id="defs64999"><marker
       id="DistanceX"
       orient="auto"
       refX="0.0"
       refY="0.0"
       style="overflow:visible"><path
         d="M 3,-3 L -3,3 M 0,-5 L  0,5"
         style="stroke:#000000; stroke-width:0.5"
         id="path66220" /></marker><pattern
       id="Hatch"
       patternUnits="userSpaceOnUse"
       width="8"
       height="8"
       x="0"
       y="0"><path
         d="M8 4 l-4,4"
         stroke="#000000"
         stroke-width="0.25"
         linecap="square"
         id="path66223" /><path
         d="M6 2 l-4,4"
         stroke="#000000"
         stroke-width="0.25"
         linecap="square"
         id="path66225" /><path
         d="M4 0 l-4,4"
         stroke="#000000"
         stroke-width="0.25"
         linecap="square"
         id="path66227" /></pattern><symbol
       id="*Model_Space" /><symbol
       id="*Paper_Space" /><symbol
       id="*Paper_Space0" /><symbol
       id="DIMDOT"><path
         style="fill:none;stroke:#000000"
         d="M -7.55905 1122.52 L 7.55905 1122.52"
         id="path66233" /><path
         style="fill:none;stroke:#000000"
         d="M 0 1135.75 L 0 1109.29"
         id="path66235" /><path
         d="M 1.889764,1122.519685 A 1.889764,1.889764 0.000000 0, 0 -1.889764,1122.519685 A 1.889764,1.889764 0.000000 0, 0 1.889764,1122.519685 z"
         style="fill:none;stroke:#000000"
         id="path66237" /><path
         d="M 0.944882,1122.519685 A 0.944882,0.944882 0.000000 0, 0 -0.944882,1122.519685 A 0.944882,0.944882 0.000000 0, 0 0.944882,1122.519685 z"
         style="fill:none;stroke:#000000"
         id="path66239" /></symbol><symbol
       id="_DOT"><path
         d="M -0.944882,1122.519685 A 0.944882,0.944882 0.0 0 0 0.944882,1122.519685 A 0.944882,0.944882 0.0 0 0 -0.944882,1122.519685 z"
         style="fill:none;stroke:#000000;stroke-linecap: round"
         id="path66242" /><path
         style="fill:none;stroke:#000000;stroke-linecap:round"
         d="M -1.88976 1122.52 L -3.77953 1122.52"
         id="path66244" /></symbol></defs><g
     inkscape:label="Laag 1"
     inkscape:groupmode="layer"
     id="layer1"><g
       id="g66291"
       transform="matrix(0.26458333,0,0,0.26458333,-255.05751,12.305719)"><g
         inkscape:label="0"
         id="g66249" /><g
         inkscape:label="kader"
         id="g66251" /><g
         inkscape:label="A--L00--"
         id="g66253" /><g
         inkscape:label="isolatie"
         id="g66257"
         style="fill:#ffffff;fill-opacity:1"><path
           d="m 284.01083,665.79847 a 9.448819,9.448819 0 0 0 2.76743,6.68127 l 11.56081,11.55938 a 18.896924,18.896924 0 0 0 13.36254,5.53386 l 126.72359,7.2e-4 v 37.98535 a 9.448819,9.448819 0 0 1 -9.44882,9.44882 H 0 V 1122.5197 H 593.82136 L 939.50787,953.23634 h 910.27563 l 345.7308,169.28336 h 106.218 V 740.7874 h 37.7953 v -51.2137 h 138.0634 a 18.897638,18.897638 0 0 0 13.3627,-5.53502 l 11.3814,-11.38243 a 9.44781,9.44781 0 0 0 2.7672,-6.68061 V 538.25972 A 264.56693,264.56693 0 0 0 2356.8822,300.648 L 1849.7835,52.350517 H 939.50787 L 432.22441,300.76772 A 264.56718,264.56718 0 0 0 284.01058,538.37356 Z"
           style="fill:#ffffff;stroke:#00ff00;fill-opacity:1"
           id="path66255" /></g><g
         inkscape:label="staal"
         id="g66261"
         style="fill:#8f8f00;fill-opacity:1"><path
           d="m 238.67198,668.51988 v -51.02362 -371.1118 -54.3496 a 5.669291,5.669291 0 0 0 -1.6605,-4.0088 L 123.61629,74.630867 a 10.393701,10.393701 0 0 1 7.34945,-17.743157 h 224.8819 a 10.393701,10.393701 0 0 1 7.34945,17.743157 L 249.8019,188.02606 a 5.669291,5.669291 0 0 0 -1.6605,4.0088 v 54.3496 l -0.0333,333.31652 h -4.72441 l 0.0333,-333.31652 v -54.3496 a 10.393701,10.393701 0 0 1 3.04425,-7.34946 L 359.85643,71.290205 a 5.669291,5.669291 0 0 0 -4.00879,-9.678085 h -224.8819 a 5.669291,5.669291 0 0 0 -4.00879,9.678085 L 240.35214,184.6854 a 10.393701,10.393701 0 0 1 3.04425,7.34946 v 54.3496 371.1118 51.02362 a 10.393701,10.393701 0 0 1 -3.04425,7.34945 l -53.37326,53.37327 a 10.393701,10.393701 0 0 1 -7.34946,3.04425 H 59.138078 v 0.18897 H 427.642 v -0.18897 H 307.15066 a 10.393701,10.393701 0 0 1 -7.34946,-3.04425 l -53.37327,-53.37327 a 10.393701,10.393701 0 0 1 -3.04424,-7.34945 v -51.02362 -37.79528 h 4.72441 v 37.79528 51.02362 a 5.669291,5.669291 0 0 0 1.6605,4.00879 l 53.37326,53.37327 a 5.669291,5.669291 0 0 0 4.0088,1.6605 H 427.642 a 4.724409,4.724409 0 0 1 4.72441,4.72441 v 0.18897 a 4.724409,4.724409 0 0 1 -4.72441,4.72441 H 59.138078 a 4.724409,4.724409 0 0 1 -4.724409,-4.72441 v -0.18897 a 4.724409,4.724409 0 0 1 4.724409,-4.72441 H 179.62942 a 5.669291,5.669291 0 0 0 4.00879,-1.6605 l 53.37327,-53.37327 a 5.669291,5.669291 0 0 0 1.6605,-4.00879 z"
           style="fill:#8f8f8f;stroke:#000000;stroke-linecap:round;fill-opacity:1"
           id="path66259" /></g></g></g></svg>
