<?xml version="1.0" encoding="UTF-8" standalone="no"?>
<!-- Created with Inkscape (http://www.inkscape.org/) -->

<svg
   width="210mm"
   height="297mm"
   viewBox="0 0 210 297"
   version="1.1"
   id="svg67438"
   xml:space="preserve"
   inkscape:version="1.2.2 (732a01da63, 2022-12-09)"
   sodipodi:docname="Renovatievloer Rc=5,2 nat.svg"
   xmlns:inkscape="http://www.inkscape.org/namespaces/inkscape"
   xmlns:sodipodi="http://sodipodi.sourceforge.net/DTD/sodipodi-0.dtd"
   xmlns="http://www.w3.org/2000/svg"
   xmlns:svg="http://www.w3.org/2000/svg"><sodipodi:namedview
     id="namedview67440"
     pagecolor="#ffffff"
     bordercolor="#000000"
     borderopacity="0.25"
     inkscape:showpageshadow="2"
     inkscape:pageopacity="0.0"
     inkscape:pagecheckerboard="0"
     inkscape:deskcolor="#d1d1d1"
     inkscape:document-units="mm"
     showgrid="false"
     inkscape:zoom="0.457453"
     inkscape:cx="290.74025"
     inkscape:cy="597.87563"
     inkscape:window-width="2075"
     inkscape:window-height="1230"
     inkscape:window-x="268"
     inkscape:window-y="32"
     inkscape:window-maximized="0"
     inkscape:current-layer="g68727" /><defs
     id="defs67435"><marker
       id="DistanceX"
       orient="auto"
       refX="0.0"
       refY="0.0"
       style="overflow:visible"><path
         d="M 3,-3 L -3,3 M 0,-5 L  0,5"
         style="stroke:#000000; stroke-width:0.5"
         id="path68656" /></marker><pattern
       id="Hatch"
       patternUnits="userSpaceOnUse"
       width="8"
       height="8"
       x="0"
       y="0"><path
         d="M8 4 l-4,4"
         stroke="#000000"
         stroke-width="0.25"
         linecap="square"
         id="path68659" /><path
         d="M6 2 l-4,4"
         stroke="#000000"
         stroke-width="0.25"
         linecap="square"
         id="path68661" /><path
         d="M4 0 l-4,4"
         stroke="#000000"
         stroke-width="0.25"
         linecap="square"
         id="path68663" /></pattern><symbol
       id="*Model_Space" /><symbol
       id="*Paper_Space" /><symbol
       id="*Paper_Space0" /><symbol
       id="DIMDOT"><path
         style="fill:none;stroke:#000000"
         d="M -7.55905 1122.52 L 7.55905 1122.52"
         id="path68669" /><path
         style="fill:none;stroke:#000000"
         d="M 0 1135.75 L 0 1109.29"
         id="path68671" /><path
         d="M 1.889764,1122.519685 A 1.889764,1.889764 0.000000 0, 0 -1.889764,1122.519685 A 1.889764,1.889764 0.000000 0, 0 1.889764,1122.519685 z"
         style="fill:none;stroke:#000000"
         id="path68673" /><path
         d="M 0.944882,1122.519685 A 0.944882,0.944882 0.000000 0, 0 -0.944882,1122.519685 A 0.944882,0.944882 0.000000 0, 0 0.944882,1122.519685 z"
         style="fill:none;stroke:#000000"
         id="path68675" /></symbol><symbol
       id="_DOT"><path
         d="M -0.944882,1122.519685 A 0.944882,0.944882 0.0 0 0 0.944882,1122.519685 A 0.944882,0.944882 0.0 0 0 -0.944882,1122.519685 z"
         style="fill:none;stroke:#000000;stroke-linecap: round"
         id="path68678" /><path
         style="fill:none;stroke:#000000;stroke-linecap:round"
         d="M -1.88976 1122.52 L -3.77953 1122.52"
         id="path68680" /></symbol></defs><g
     inkscape:label="Laag 1"
     inkscape:groupmode="layer"
     id="layer1"><g
       id="g68727"
       transform="matrix(0.26458333,0,0,0.26458333,-221.80045,34.862681)"
       style="fill:#ffffff;fill-opacity:1"><g
         inkscape:label="0"
         id="g68685"
         style="fill:#ffffff;fill-opacity:1" /><g
         inkscape:label="kader"
         id="g68687"
         style="fill:#ffffff;fill-opacity:1" /><g
         inkscape:label="A--L00--"
         id="g68689"
         style="fill:#ffffff;fill-opacity:1" /><g
         inkscape:label="staal"
         id="g68693"
         style="fill:#8f8f8f;fill-opacity:1"><path
           d="M 240.00636,668.32752 V 617.3039 246.19211 191.8425 a 5.669291,5.669291 0 0 0 -1.6605,-4.0088 L 124.95066,74.438509 a 10.393701,10.393701 0 0 1 7.34946,-17.743157 h 224.88189 a 10.393701,10.393701 0 0 1 7.34946,17.743157 L 251.13627,187.8337 a 5.669291,5.669291 0 0 0 -1.66049,4.0088 v 54.34961 l -0.0333,333.31651 h -4.72441 l 0.0333,-333.31651 V 191.8425 a 10.393701,10.393701 0 0 1 3.04424,-7.34946 L 361.19081,71.097847 a 5.669291,5.669291 0 0 0 -4.0088,-9.678086 H 132.30012 a 5.669291,5.669291 0 0 0 -4.00879,9.678086 L 241.68652,184.49304 a 10.393701,10.393701 0 0 1 3.04425,7.34946 v 54.34961 371.11179 51.02362 a 10.393701,10.393701 0 0 1 -3.04425,7.34946 l -53.37327,53.37326 a 10.393701,10.393701 0 0 1 -7.34945,3.04425 H 60.472454 v 0.18897 H 428.97638 v -0.18897 H 308.48503 a 10.393701,10.393701 0 0 1 -7.34945,-3.04425 l -53.37327,-53.37326 a 10.393701,10.393701 0 0 1 -3.04424,-7.34946 V 617.3039 579.50862 h 4.72441 v 37.79528 51.02362 a 5.669291,5.669291 0 0 0 1.66049,4.00879 l 53.37327,53.37327 a 5.669291,5.669291 0 0 0 4.00879,1.6605 h 120.49135 a 4.724409,4.724409 0 0 1 4.72441,4.72441 v 0.18897 a 4.724409,4.724409 0 0 1 -4.72441,4.72441 H 60.472454 a 4.724409,4.724409 0 0 1 -4.724409,-4.72441 v -0.18897 a 4.724409,4.724409 0 0 1 4.724409,-4.72441 H 180.9638 a 5.669291,5.669291 0 0 0 4.00879,-1.6605 l 53.37327,-53.37327 a 5.669291,5.669291 0 0 0 1.6605,-4.00879 z"
           style="fill:#8f8f8f;stroke:#000000;stroke-linecap:round;fill-opacity:1"
           id="path68691" /></g><g
         inkscape:label="isolatie"
         id="g68697"
         style="fill:#ffffff;fill-opacity:1"><path
           d="m 284.01083,665.79847 a 9.448819,9.448819 0 0 0 2.76743,6.68127 l 11.56081,11.55938 a 18.896924,18.896924 0 0 0 13.36254,5.53386 l 126.72359,7.2e-4 v 37.98535 a 9.448819,9.448819 0 0 1 -9.44882,9.44882 H 0 V 1122.5197 H 593.82136 L 939.50787,953.23634 h 910.27563 l 345.7308,169.28336 h 106.218 V 740.7874 h 37.7953 v -51.2137 h 138.0634 a 18.897638,18.897638 0 0 0 13.3627,-5.53502 l 11.3814,-11.38243 a 9.44781,9.44781 0 0 0 2.7672,-6.68061 V 538.25972 A 264.56693,264.56693 0 0 0 2356.8822,300.648 L 1849.7835,52.350517 H 939.50787 L 432.22441,300.76772 A 264.56718,264.56718 0 0 0 284.01058,538.37356 Z"
           style="fill:#ffffff;stroke:#00ff00;fill-opacity:1"
           id="path68695" /></g></g></g></svg>
