<?xml version="1.0" encoding="UTF-8" standalone="no"?>
<!-- Created with Inkscape (http://www.inkscape.org/) -->

<svg
   width="210mm"
   height="297mm"
   viewBox="0 0 210 297"
   version="1.1"
   id="svg62555"
   xml:space="preserve"
   inkscape:version="1.2.2 (732a01da63, 2022-12-09)"
   sodipodi:docname="Renovatievloer Rc=4,3 nat.svg"
   xmlns:inkscape="http://www.inkscape.org/namespaces/inkscape"
   xmlns:sodipodi="http://sodipodi.sourceforge.net/DTD/sodipodi-0.dtd"
   xmlns="http://www.w3.org/2000/svg"
   xmlns:svg="http://www.w3.org/2000/svg"><sodipodi:namedview
     id="namedview62557"
     pagecolor="#ffffff"
     bordercolor="#000000"
     borderopacity="0.25"
     inkscape:showpageshadow="2"
     inkscape:pageopacity="0.0"
     inkscape:pagecheckerboard="0"
     inkscape:deskcolor="#d1d1d1"
     inkscape:document-units="mm"
     showgrid="false"
     inkscape:zoom="0.32346812"
     inkscape:cx="-3.0914948"
     inkscape:cy="823.88335"
     inkscape:window-width="2069"
     inkscape:window-height="1230"
     inkscape:window-x="245"
     inkscape:window-y="55"
     inkscape:window-maximized="0"
     inkscape:current-layer="g63852" /><defs
     id="defs62552"><marker
       id="DistanceX"
       orient="auto"
       refX="0.0"
       refY="0.0"
       style="overflow:visible"><path
         d="M 3,-3 L -3,3 M 0,-5 L  0,5"
         style="stroke:#000000; stroke-width:0.5"
         id="path63773" /></marker><pattern
       id="Hatch"
       patternUnits="userSpaceOnUse"
       width="8"
       height="8"
       x="0"
       y="0"><path
         d="M8 4 l-4,4"
         stroke="#000000"
         stroke-width="0.25"
         linecap="square"
         id="path63776" /><path
         d="M6 2 l-4,4"
         stroke="#000000"
         stroke-width="0.25"
         linecap="square"
         id="path63778" /><path
         d="M4 0 l-4,4"
         stroke="#000000"
         stroke-width="0.25"
         linecap="square"
         id="path63780" /></pattern><symbol
       id="*Model_Space" /><symbol
       id="*Paper_Space" /><symbol
       id="*Paper_Space0" /><symbol
       id="DIMDOT"><path
         style="fill:none;stroke:#000000"
         d="M -7.55905 1122.52 L 7.55905 1122.52"
         id="path63786" /><path
         style="fill:none;stroke:#000000"
         d="M 0 1135.75 L 0 1109.29"
         id="path63788" /><path
         d="M 1.889764,1122.519685 A 1.889764,1.889764 0.000000 0, 0 -1.889764,1122.519685 A 1.889764,1.889764 0.000000 0, 0 1.889764,1122.519685 z"
         style="fill:none;stroke:#000000"
         id="path63790" /><path
         d="M 0.944882,1122.519685 A 0.944882,0.944882 0.000000 0, 0 -0.944882,1122.519685 A 0.944882,0.944882 0.000000 0, 0 0.944882,1122.519685 z"
         style="fill:none;stroke:#000000"
         id="path63792" /></symbol><symbol
       id="_DOT"><path
         d="M -0.944882,1122.519685 A 0.944882,0.944882 0.0 0 0 0.944882,1122.519685 A 0.944882,0.944882 0.0 0 0 -0.944882,1122.519685 z"
         style="fill:none;stroke:#000000;stroke-linecap: round"
         id="path63795" /><path
         style="fill:none;stroke:#000000;stroke-linecap:round"
         d="M -1.88976 1122.52 L -3.77953 1122.52"
         id="path63797" /></symbol><symbol
       id="A$Cf9506979"><path
         d="M 1135.601436,565.949617 L 523.819940,757.908279 L 15.591594,757.908279 L 15.591594,447.987019 L 440.788444,447.987019 A 9.448819,9.448819 0.0 0 0 450.237263,438.538198 L 450.237263,400.550995 L 330.503011,400.550995 A 18.897638,18.897638 0.0 0 1 317.140362,395.016004 L 271.521712,349.394499 A 18.895619,18.895619 0.0 0 1 265.987313,336.033276 L 265.985294,237.573633 L 388.731357,13.274912 A 37.795645,37.795645 0.0 0 1 410.567307,-4.647307 L 1136.206751,-232.327942 L 2787.934113,-232.327942 L 3513.573877,-4.640934 A 37.789661,37.789661 0.0 0 1 3535.402555,13.274675 L 3658.126042,237.573633 L 3658.126042,336.033279 A 18.897638,18.897638 0.0 0 1 3652.591051,349.395928 L 3606.969546,395.007196 A 18.900845,18.900845 0.0 0 1 3593.593562,400.554203 L 3454.961672,400.550995 L 3454.961672,447.987019 L 3417.166397,447.987019 L 3417.166397,763.577570 L 2787.328798,565.949617 L 1135.601436,565.949617 L 1135.601436,565.949617 z"
         style="fill:none;stroke:#FF0000"
         id="path63800" /><text
         x="0.000000"
         y="1054.379908"
         style="font-size: 56.693px; fill: #FF0000; font-family: Arial; text-anchor: start"
         id="text63804"><tspan
           sodipodi:role="line"
           dx="0.000000"
           dy="0.000000"
           id="tspan63802">Renovatievloer Rc=4,3 nat</tspan></text></symbol></defs><g
     inkscape:label="Laag 1"
     inkscape:groupmode="layer"
     id="layer1"><g
       id="g63852"
       transform="matrix(0.26458333,0,0,0.26458333,-417.09797,-20.153682)"><g
         inkscape:label="0"
         id="g63809" /><g
         inkscape:label="isolatie"
         id="g63813"
         style="fill:#ffffff;fill-opacity:1"><path
           d="M 1120.0098,930.56102 508.22835,1122.5197 H 0 V 812.59843 h 425.19685 a 9.448819,9.448819 0 0 0 9.44882,-9.44883 V 765.1624 H 314.91142 a 18.897638,18.897638 0 0 1 -13.36265,-5.53499 l -45.61865,-45.6215 a 18.895619,18.895619 0 0 1 -5.5344,-13.36123 l -0.002,-98.45964 122.74606,-224.29872 A 37.795645,37.795645 0 0 1 394.97571,359.9641 L 1120.6152,132.28346 h 1651.7273 l 725.6398,227.68701 a 37.789661,37.789661 0 0 1 21.8287,17.91561 l 122.7234,224.29896 v 98.45964 a 18.897638,18.897638 0 0 1 -5.5349,13.36265 l -45.6215,45.61127 a 18.900845,18.900845 0 0 1 -13.376,5.54701 l -138.6319,-0.003 v 47.43603 h -37.7953 V 1128.189 L 2771.7372,930.56102 Z"
           style="fill:#ffffff;stroke:#ff0000;fill-opacity:1"
           id="path63811" /></g><g
         inkscape:label="A--L00--"
         id="g63815" /><g
         inkscape:label="staal"
         id="g63819"
         style="fill:#8f8f8f;fill-opacity:1"><path
           d="M 236.22683,743.91807 V 692.89445 321.78266 267.43305 a 5.669291,5.669291 0 0 0 -1.6605,-4.00879 L 121.17114,150.02906 a 10.393701,10.393701 0 0 1 7.34945,-17.74316 h 224.8819 a 10.393701,10.393701 0 0 1 7.34945,17.74316 l -113.39519,113.3952 a 5.669291,5.669291 0 0 0 -1.6605,4.00879 v 54.34961 l -0.0333,333.31651 h -4.72441 l 0.0333,-333.31651 v -54.34961 a 10.393701,10.393701 0 0 1 3.04425,-7.34946 L 357.41128,146.6884 a 5.669291,5.669291 0 0 0 -4.00879,-9.67809 h -224.8819 a 5.669291,5.669291 0 0 0 -4.00879,9.67809 l 113.39519,113.39519 a 10.393701,10.393701 0 0 1 3.04425,7.34946 v 54.34961 371.11179 51.02362 a 10.393701,10.393701 0 0 1 -3.04425,7.34946 l -53.37326,53.37327 a 10.393701,10.393701 0 0 1 -7.34946,3.04424 H 56.692927 v 0.18898 H 425.19685 v -0.18898 H 304.70551 a 10.393701,10.393701 0 0 1 -7.34946,-3.04424 l -53.37327,-53.37327 a 10.393701,10.393701 0 0 1 -3.04424,-7.34946 v -51.02362 -37.79528 h 4.72441 v 37.79528 51.02362 a 5.669291,5.669291 0 0 0 1.66049,4.0088 l 53.37327,53.37326 a 5.669291,5.669291 0 0 0 4.0088,1.6605 h 120.49134 a 4.724409,4.724409 0 0 1 4.72441,4.72441 v 0.18898 a 4.724409,4.724409 0 0 1 -4.72441,4.72441 H 56.692927 a 4.724409,4.724409 0 0 1 -4.72441,-4.72441 v -0.18898 a 4.724409,4.724409 0 0 1 4.72441,-4.72441 H 177.18427 a 5.669291,5.669291 0 0 0 4.00879,-1.6605 l 53.37327,-53.37326 a 5.669291,5.669291 0 0 0 1.6605,-4.0088 z"
           style="fill:#8f8f8f;stroke:#000000;stroke-linecap:round;fill-opacity:1"
           id="path63817" /></g></g></g></svg>
